<svg xmlns="http://www.w3.org/2000/svg" xmlns:xlink="http://www.w3.org/1999/xlink" width="1000" height="600"><path d="M0 0h1000v300H0z" style="fill:#002b7f"/><path d="M0 300h1000v300H0z" style="fill:#ce1126"/><path d="M461.843 375.449H220.802l-32.542-63.453-.704-1.375-.736-1.376-.8-1.376-.832-1.344-.864-1.344-.927-1.312-.992-1.312-1.024-1.248-.544-.64-.544-.608-.576-.576-.576-.608-.608-.576-.64-.544-.64-.576-.64-.512-.672-.544-.704-.479-.704-.512-.736-.448-.736-.48-.768-.416-.8-.416-.832-.416 1.472-1.312 1.472-1.216 1.472-1.152 1.472-1.088 1.472-1.024 1.504-.96 1.504-.896 1.472-.832 1.504-.768 1.503-.704 1.504-.64 1.504-.576 1.472-.544 1.504-.448 1.472-.416 1.504-.351-1.024-3.104-.864-3.104-.8-3.072-.672-3.04-.576-3.008-.48-3.007-.384-2.944-.288-2.912-.192-2.848-.096-2.848v-2.783l.064-2.72.192-2.688.224-2.656.352-2.592.384-2.528.512-2.463.544-2.4.64-2.368.704-2.304.768-2.208.832-2.144.896-2.08.928-2.016 1.024-1.951 1.088-1.856 1.12-1.76 1.183-1.696 1.216-1.632 1.28-1.536 1.312-1.408 1.376-1.376 1.248-.96 1.344-.96 1.376-.96 1.44-.895 1.472-.896 1.504-.832 1.568-.832 1.567-.8 1.632-.768 1.664-.768 1.696-.704 1.696-.704 1.728-.64 1.76-.64 1.792-.608 1.76-.576 1.823-.512 1.792-.512 1.824-.48 1.792-.448 1.824-.416 1.824-.384 1.792-.352 1.792-.32 1.792-.288 1.791-.256 1.728-.224 1.76-.192 1.696-.16 1.696-.128 1.664-.064 1.6-.064 2.336.16 2.336.16 2.271.192 2.272.224 2.272.256 2.208.256 2.208.288 2.208.288 2.176.32 2.175.32 2.176.352 2.144.352 4.256.768 4.256.8 4.223.832 4.256.864 4.224.896 4.288.928 4.287.896 4.352.928 4.384.896 4.479.896 12.384.288 12.383-.288 4.448-.896 4.383-.896 4.352-.928 4.288-.896 4.288-.928 4.223-.896 4.256-.864 4.224-.832 4.255-.8 4.288-.768 2.144-.352 2.144-.352 2.176-.32 2.176-.32 2.208-.288 2.207-.288 2.24-.256 2.24-.256 2.272-.224 2.304-.192 2.304-.16 2.336-.16 1.631.064 1.632.064 1.696.128 1.728.16 1.728.192 1.76.224 1.76.256 1.792.288 1.792.32 1.791.352 1.824.384 1.824.416 1.824.448 1.792.48 1.824.512 1.792.512 1.792.576 1.76.608 1.759.64 1.728.64 1.728.704 1.664.704 1.664.768 1.632.768 1.6.8 1.536.832 1.536.832 1.472.896 1.407.895 1.376.96 1.344.96 1.28.96 1.344 1.376 1.312 1.408 1.28 1.536 1.248 1.632 1.152 1.696 1.152 1.76 1.056 1.856 1.024 1.951.96 2.016.895 2.08.832 2.144.768 2.208.704 2.304.608 2.368.576 2.4.48 2.463.416 2.528.32 2.592.256 2.656.16 2.688.064 2.72v2.783l-.096 2.848-.192 2.848-.288 2.912-.352 2.944-.48 3.007-.576 3.008-.704 3.04-.768 3.072-.896 3.104-.991 3.104 1.471.351 1.472.416 1.504.448 1.504.544 1.472.576 1.504.64 1.504.704 1.504.768 1.504.832 1.472.896 1.503.96 1.472 1.024 1.504 1.088 1.472 1.152 1.44 1.216 1.472 1.312-.8.416-.8.416-.768.416-.768.48-.736.448-.704.512-.704.479-.672.544-.64.512-.64.576-.607.544-.608.576-.608.608-.544.576-.576.608-.544.64-1.024 1.248-.992 1.312-.896 1.312-.896 1.344-.832 1.344-.768 1.376-.768 1.376-.704 1.375z" style="fill:#000;fill-opacity:1;fill-rule:evenodd" transform="scale(.58594)"/><path d="m460.115 369.913-.096-.032h-.096l-.064-.032h-.096l-.096-.032-.096-.032h-.096l-.096-.032.064-.64.032-.608.032-.608v-.608l-.032-.576-.064-.544-.064-.576-.096-.544-.128-.544-.128-.544-.192-.512-.192-.544-.192-.512-.256-.544-.256-.544-.288-.512-.384.96-.384.992-.352 1.024-.416.992-.447.992-.48.96-.288.48-.288.48-.32.48-.32.448-.064-.032h-.096l-.096-.032h-.064l-.096-.032h-.096l-.064-.032-.096-.032.032-.64v-.64l-.032-.608-.064-.608-.064-.576-.064-.576-.128-.576-.128-.544-.16-.544-.192-.544-.224-.512-.224-.544-.256-.512-.288-.544-.288-.512-.352-.511-.288.959-.288 1.024-.32.992-.32 1.024-.352 1.024-.416.992-.224.48-.256.48-.256.48-.288.48-.224-.064-.224-.032-.224-.032-.224-.064-.224-.032-.224-.064-.224-.032-.224-.032v-1.28l-.032-.608-.032-.576-.064-.576-.096-.576-.128-.544-.128-.544-.16-.544-.192-.512-.192-.512-.256-.511-.256-.544-.256-.512-.32-.512-.32-.512-.288.96-.288 1.024-.32.991-.32.992-.352.992-.384.992-.224.48-.256.48-.256.48-.288.48-.16-.032-.159-.032-.161-.032-.127-.032-.16-.032h-.16l-.16-.032-.16-.032v-1.248l-.032-.608-.064-.576-.064-.576-.096-.544-.096-.576-.16-.512-.16-.544-.16-.512-.224-.511-.224-.512-.256-.512-.288-.512-.288-.512-.32-.512-.32.96-.288.992-.288.991-.32 1.024-.352.992-.384.992-.224.48-.256.48-.256.448-.288.48-.288-.064-.32-.032-.32-.064-.32-.032-.288-.064-.32-.064-.32-.032-.32-.064v-1.248l-.064-.608-.032-.576-.096-.576-.096-.544-.128-.576-.16-.511-.16-.544-.192-.512-.224-.512-.224-.512-.288-.512-.288-.512-.32-.512-.32-.512-.288.992-.256.992-.288 1.024-.288.992-.352 1.023-.384.992-.224.48-.224.48-.256.48-.288.48-2.719-.416-.032-.64-.032-.64-.064-.64-.064-.576-.096-.608-.128-.575-.16-.544-.16-.544-.192-.544-.192-.512-.256-.544-.256-.512-.288-.512-.32-.512-.32-.512-.384-.512-.224 1.024-.256 1.024-.224 1.024-.288 1.056-.32 1.024-.352 1.023-.192.512-.224.48-.256.512-.256.48-.512-.064-.512-.064-.512-.064-.48-.096-.512-.064-.512-.064-.512-.064-.512-.064v-.64l-.032-.64-.064-.607-.096-.576-.096-.576-.128-.576-.128-.544-.192-.544-.16-.544-.224-.512-.256-.512-.256-.512-.288-.512-.288-.512-.352-.48-.352-.512-.256.992-.224 1.024-.256 1.024-.256 1.056-.32 1.024-.352 1.024-.192.512-.224.48-.256.511-.256.48-.415-.064-.416-.032-.416-.064-.384-.032-.416-.064-.416-.032-.416-.064-.384-.032-.064-.672-.064-.607-.064-.64-.096-.576-.128-.576-.16-.576-.16-.544-.192-.544-.192-.512-.224-.512-.256-.512-.288-.512-.32-.512-.32-.48-.352-.48-.384-.512-.224.992-.192 1.024-.192 1.056-.224 1.024-.256 1.024-.32 1.024-.192.512-.192.512-.224.48-.256.479-.352-.032-.352-.031-.384-.033-.352-.031-.352-.033-.384-.064-.352-.032-.352-.031-.032-.64-.064-.64-.096-.608-.096-.608-.128-.576-.128-.576-.192-.544-.16-.512-.224-.544-.224-.512-.256-.512-.288-.512-.32-.48-.32-.512-.352-.48-.384-.512-.192 1.024-.224 1.024-.192 1.056-.224 1.024-.288 1.056-.319 1.024-.192.512-.192.512-.224.48-.256.512-.288-.032-.288-.032-.32-.032-.288-.032-.32-.032-.288-.032-.32-.032h-.288l-.064-.672-.064-.64-.064-.608-.096-.576-.128-.576-.16-.576-.16-.544-.192-.544-.192-.512-.224-.544-.256-.48-.288-.512-.32-.512-.32-.48-.352-.512-.384-.48-.224 1.024-.192 1.024-.192 1.056-.256 1.056-.256 1.024-.32 1.056-.192.512-.224.512-.224.48-.256.512-.352-.032-.352-.032-.352-.032-.352-.032-.352-.032-.352-.032-.352-.032-.352-.032-.032-.64-.064-.64-.096-.608-.096-.608-.128-.576-.128-.576-.16-.544-.192-.544-.224-.512-.224-.544-.256-.512-.288-.512-.288-.48-.352-.512-.352-.48-.384-.512-.192 1.024-.224 1.056-.192 1.056-.224 1.088-.287 1.056-.32 1.056-.192.512-.192.512-.256.512-.224.48-2.368-.16-.032-.672-.064-.608-.096-.64-.096-.576-.128-.608-.16-.544-.16-.576-.192-.544-.224-.512-.224-.544-.256-.512-.288-.512-.288-.48-.352-.512-.352-.512-.384-.48-.192 1.024-.224 1.056-.224 1.056-.224 1.088-.288 1.088-.32 1.056-.192.512-.224.512-.224.512-.256.512-2.56-.192-.064-.672-.064-.608-.064-.608-.096-.608-.128-.576-.16-.544-.16-.544-.192-.544-.192-.512-.224-.544-.256-.48-.288-.512-.32-.512-.32-.48-.352-.512-.384-.48-.192 1.024-.223 1.024-.193 1.056-.224 1.056-.287 1.056-.32 1.024-.192.544-.224.48-.224.512-.256.512-4.128-.192-.064-.64-.064-.608-.096-.608-.096-.576-.128-.544-.128-.544-.16-.544-.192-.512-.224-.512-.224-.512-.256-.512-.288-.48-.288-.48-.32-.48-.352-.512-.384-.48-.192 1.024-.192 1.024-.224 1.024-.224 1.056-.256 1.024-.32 1.024-.192.512-.192.512-.224.512-.256.48-.576-.032-.544-.032-.576-.032-.544-.032-.544-.032-.544-.032-.512-.032-.544-.032-.191-.512-.16-.512-.128-.512-.128-.512-.192-1.056-.16-1.056-.128-1.056-.064-1.056-.096-1.024-.096-1.024-.416.448-.384.448-.384.448-.352.48-.32.48-.288.448-.288.512-.256.48-.224.512-.224.512-.192.544-.16.576-.16.576-.16.576-.128.608-.096.64-.64.032-.608.032-.608.032-.64.032-.608.032-.64.064-.64.032-.672.032-.224-.48-.224-.512-.224-.512-.16-.512-.32-1.024-.288-1.024-.224-1.056-.192-1.024-.224-1.024-.192-1.024-.384.48-.352.48-.32.512-.288.48-.288.48-.256.512-.224.512-.192.512-.192.512-.16.544-.16.544-.128.544-.096.576-.096.608-.064.608-.032.64-4.159.192-.256-.512-.224-.512-.192-.512-.192-.512-.352-1.024-.256-1.056-.256-1.056-.192-1.056-.192-1.024-.224-1.024-.384.48-.352.512-.32.48-.32.512-.256.512-.256.48-.256.544-.192.512-.192.544-.16.544-.16.544-.096.576-.128.608-.064.608-.064.608-.064.672-2.56.192-.256-.512-.224-.512-.224-.512-.16-.512-.352-1.056-.288-1.088-.224-1.088-.224-1.056-.192-1.056-.224-1.024-.384.48-.352.512-.32.512-.32.48-.288.512-.255.512-.224.544-.224.512-.192.544-.16.576-.16.544-.096.608-.128.576-.064.64-.064.608-.064.672-2.336.16-.256-.48-.224-.512-.224-.512-.192-.512-.32-1.056-.256-1.056-.256-1.088-.192-1.056-.192-1.056-.224-1.024-.384.512-.352.48-.32.512-.32.48-.288.512-.256.512-.224.512-.224.544-.16.544-.192.544-.128.576-.128.576-.096.608-.064.608-.064.64-.064.64-.352.032-.352.032-.352.032-.352.032-.352.032-.352.032-.352.032-.352.032-.256-.512-.224-.48-.224-.512-.16-.512-.352-1.056-.256-1.024-.224-1.056-.224-1.056-.192-1.024-.224-1.024-.384.48-.352.512-.32.48-.32.512-.255.512-.256.48-.256.544-.192.512-.192.544-.16.544-.16.576-.096.576-.128.576-.064.608-.064.64-.032.64-.32.032-.288.032-.32.032-.288.032-.32.032-.288.032-.32.032-.288.032-.256-.512-.224-.48-.192-.512-.192-.512-.32-1.024-.256-1.056-.256-1.024-.192-1.056-.192-1.024-.224-1.024-.384.512-.352.48-.32.512-.32.48-.288.512-.224.512-.256.512-.192.544-.192.512-.16.544-.16.576-.128.576-.096.608-.064.608-.064.64-.064.64-.352.031-.352.032-.352.064-.384.033-.352.031-.352.033-.384.031-.352.032-.256-.479-.192-.48-.224-.512-.16-.512-.32-1.024-.256-1.024-.256-1.024-.192-1.056-.192-1.024-.192-.992-.384.512-.383.48-.321.48-.319.512-.256.512-.256.512-.256.512-.192.512-.192.544-.16.544-.128.576-.128.576-.096.576-.096.64-.064.607-.032.672-.416.032-.416.064-.416.032-.384.064-.416.032-.416.064-.416.032-.384.064-.288-.48-.224-.511-.224-.48-.224-.512-.352-1.024-.288-1.024-.288-1.056-.256-1.024-.224-1.024-.224-.992-.384.512-.32.48-.32.512-.288.512-.256.512-.256.512-.192.512-.192.544-.16.544-.16.544-.128.576-.096.576-.064.576-.064.607-.032.64-.032.64-.512.064-.512.064-.512.064-.48.064-.512.096-.512.064-.512.064-.48.064-.288-.48-.224-.512-.224-.48-.223-.512-.352-1.023-.32-1.024-.256-1.056-.256-1.024-.224-1.024-.256-1.024-.352.512-.352.512-.32.512-.288.512-.256.512-.224.544-.224.512-.192.544-.16.544-.16.544-.096.575-.128.608-.064.576-.064.64-.032.64-.032.64-2.72.416-.288-.48-.256-.48-.224-.48-.224-.48-.384-.992-.32-1.023-.32-.992-.288-1.024-.256-.992-.288-.992-.32.512-.32.512-.288.512-.256.512-.256.512-.224.512-.192.512-.16.544-.16.511-.096.544-.128.576-.064.576-.064.576-.032.608-.032.608v.64l-.32.064-.32.032-.288.064-.32.064-.32.032-.288.064-.32.032-.32.064-.288-.48-.255-.448-.224-.48-.224-.48-.416-.992-.352-.992-.32-1.024-.288-.991-.288-.992-.288-.96-.352.512-.288.512-.288.512-.256.512-.224.512-.192.511-.192.512-.16.544-.128.512-.128.576-.096.544-.064.576-.064.576-.032.608v1.248l-.16.032-.128.032h-.16l-.16.032-.16.032-.16.032-.16.032-.16.032-.288-.48-.256-.48-.224-.48-.224-.48-.416-.992-.352-.992-.32-.992-.288-1.024-.288-.991-.288-.96-.352.512-.288.512-.288.512-.256.511-.224.544-.224.512-.192.512-.128.544-.16.544-.096.544-.096.576-.064.576-.064.576-.032.608v1.28l-.224.032-.224.032-.224.064-.224.032-.224.032-.224.064-.224.032-.224.064-.288-.48-.256-.48-.256-.48-.224-.48-.416-1.024-.352-.992-.32-1.024-.288-.992-.32-1.024-.287-.959-.32.511-.32.512-.288.544-.256.512-.224.544-.224.512-.16.544-.16.544-.16.544-.096.576-.096.576-.064.576-.064.608v1.888l-.096.032-.064.032h-.096l-.064.032h-.096l-.096.032h-.064l-.096.032-.32-.448-.32-.48-.288-.48-.256-.48-.512-.96-.448-.992-.384-.992-.384-1.024-.384-.992-.352-.992-.288.544-.288.544-.224.544-.224.512-.192.544-.16.512-.16.544-.128.544-.096.544-.064.576-.064.544v.576l-.032.608.032.608.032.608.064.64-.096.032h-.096l-.096.032h-.064l-.096.032-.096.032h-.096l-.096.032-28.19-57.021-1.408-2.623-1.44-2.752-.704-1.408-.768-1.376-.768-1.376-.8-1.344-.416-.672-.416-.64-.448-.64-.448-.608-.448-.608-.48-.576-.48-.576-.512-.544-.512-.512-.543-.512-.544-.479-.576-.448-.576-.416-.608-.384-.608-.352-.64-.32 2.144-1.856 2.143-1.6 2.176-1.408 2.176-1.152 2.208-.992 2.176-.768 2.208-.576 2.176-.384 2.208-.224 2.175-.032 2.144.128 2.144.288 2.144.448 2.08.608 2.08.736 2.016.864 2.015 1.024 1.952 1.12 1.888 1.248 1.888 1.344 1.792 1.44 1.76 1.568 1.696 1.631 1.632 1.728 1.536 1.824 1.503 1.856 1.408 1.952 1.344 1.984 1.248 2.048 1.184 2.08 1.056 2.143.992 2.176-.224-6.687.096-6.048.416-5.44.704-4.799.992-4.256 1.28-3.68 1.472-3.136 1.728-2.623 1.92-2.144 2.079-1.664 2.272-1.248 2.432-.8 2.56-.416 2.656-.032 2.752.352 2.815.64 2.88.992 2.944 1.248 2.944 1.536 2.944 1.76 2.911 1.983 2.88 2.208 2.848 2.368 2.752 2.496 2.688 2.656 2.56 2.752 2.431 2.848 2.272 2.911 2.144 2.976 1.92 2.944 1.76 2.976 1.504 2.944v-2.528l.128-2.464.192-2.368.32-2.272.416-2.24.512-2.112.608-2.079.704-1.952.768-1.92.832-1.824.928-1.728.991-1.664 1.056-1.568 1.12-1.504 1.184-1.44 1.248-1.343 1.28-1.248 1.344-1.184 1.376-1.12 1.408-1.024 1.472-.96 1.472-.864 1.536-.8 1.535-.704 1.568-.64 1.6-.544 1.6-.48 1.6-.384 1.6-.32 1.632-.224 1.632-.16 1.6-.096h.48l1.6.096 1.631.16 1.6.224 1.632.32 1.6.384 1.6.48 1.6.544 1.568.64 1.536.704 1.536.8 1.472.864 1.471.96 1.408 1.024 1.376 1.12 1.344 1.184 1.312 1.248 1.216 1.343 1.184 1.44 1.12 1.504 1.056 1.568.992 1.664.928 1.728.864 1.824.768 1.92.672 1.952.608 2.079.512 2.112.415 2.24.32 2.272.224 2.368.096 2.464v2.528l1.536-2.944 1.728-2.976 1.952-2.944 2.112-2.976 2.272-2.911 2.464-2.848 2.56-2.752 2.655-2.656 2.752-2.496 2.848-2.368 2.88-2.208 2.944-1.983 2.943-1.76 2.944-1.536 2.912-1.248 2.88-.992 2.848-.64 2.752-.352 2.655.032 2.528.416 2.432.8 2.272 1.248 2.112 1.664 1.92 2.144 1.696 2.623 1.504 3.136 1.247 3.68.992 4.256.704 4.799.416 5.44.128 6.048-.224 6.687.96-2.176 1.088-2.111 1.152-2.112 1.248-2.048 1.344-1.984 1.408-1.952 1.504-1.856 1.568-1.824 1.632-1.728 1.663-1.631 1.76-1.568 1.824-1.44 1.856-1.344 1.92-1.248 1.952-1.12 1.984-1.024 2.048-.864 2.048-.736 2.111-.608 2.112-.448 2.144-.288 2.144-.128 2.176.032 2.208.224 2.176.384 2.207.576 2.208.768 2.176.992 2.208 1.152 2.144 1.408 2.176 1.6 2.144 1.856-.672.32-.608.352-.608.384-.576.416-.576.448-.544.479-.544.512-.512.512-.48.544-.512.576-.448.576-.48.608-.448.608-.416.64-.448.64-.416.672-.8 1.344-.768 1.376-.736 1.376-.736 1.408-1.408 2.752-1.439 2.623z" style="fill:#ffd83d;fill-opacity:1;fill-rule:evenodd" transform="scale(.58594)"/><path d="m258.56 212.707 2.016-.064 2.112-.032 2.143.032 2.176.064 2.208.128 2.24.16 2.272.224 2.272.288 2.272.32 2.271.384 2.304.448 2.24.48 2.24.544 2.208.607 2.176.64 2.144.736 2.08.768 2.015.832 1.952.928 1.888.96 1.824 1.024 1.728 1.088 1.632 1.152 1.536 1.216 1.408 1.28 1.312 1.376 1.215 1.408 1.056 1.504.928 1.535.8 1.664.64 1.696.48 1.76.256 1.344.224 1.44.16 1.472.128 1.536.064 1.6v1.664l-.032 1.663-.096 1.728-.128 1.728-.192 1.76-.256 1.76-.288 1.792-.352 1.76-.416 1.76-.448 1.728-.512 1.727-.576 1.696-.608 1.632-.672 1.632-.735 1.536-.768 1.504-.832 1.44-.864 1.344-.96 1.312-.992 1.184-1.056 1.12-1.088.992-1.184.895-1.216.8-1.248.64-1.344.544-1.376.416-1.184-.16-1.184-.256-1.183-.288-1.184-.384-1.184-.416-1.216-.48-1.184-.544-1.216-.543-1.216-.608-1.248-.64-1.216-.672-1.216-.704-2.496-1.408-2.463-1.44-2.528-1.44-2.496-1.408-1.28-.64-1.248-.64-1.28-.608-1.248-.544-1.28-.512-1.248-.48-1.28-.384-1.28-.352-1.279-.288-1.248-.224-1.28-.16-1.28-.064-.864.064-.896.16-.928.224-.928.288-.928.384-.96.416-.96.48-.96.512-.96.576-.96.608-.992.608-.959.672-1.952 1.344-1.888 1.408-1.888 1.344-1.792 1.312-.896.608-.864.544-.864.544-.8.48-.8.448-.768.352-.736.319-.736.224-.672.16-.64.096h-.608l-.575-.128-1.248-.991-1.184-1.056-1.184-1.088-1.184-1.152-1.12-1.184-1.12-1.248-1.056-1.312-1.056-1.344-.992-1.376-.928-1.408-.928-1.472-.832-1.504-.8-1.567-.736-1.568-.672-1.632-.607-1.632-.544-1.696-.48-1.728-.384-1.728-.32-1.792-.256-1.824-.128-1.824-.064-1.855.032-1.888.128-1.92.224-1.92.32-1.952.448-1.984.544-1.984.671-2.016.768-2.015.896-2.048.64-1.088.704-1.088.768-1.024.864-.96.896-.96.96-.896.992-.864 1.056-.832 1.12-.8 1.152-.736 1.184-.704 1.248-.672 1.28-.64 1.312-.608 1.343-.544 1.376-.544 1.408-.479 1.44-.448 1.44-.384 1.472-.384 1.504-.352 1.504-.288 1.504-.256 1.536-.224 1.504-.192 1.535-.16 1.536-.128 1.536-.096 1.504-.032 1.504-.032 1.504.032zm165.526 0-2.016-.064-2.08-.032-2.144.032-2.176.064-2.24.128-2.24.16-2.24.224-2.303.288-2.272.32-2.272.384-2.272.448-2.272.48-2.24.544-2.208.607-2.175.64-2.112.736-2.08.768-2.048.832-1.952.928-1.888.96-1.824 1.024-1.728 1.088-1.631 1.152-1.536 1.216-1.408 1.28-1.312 1.376-1.216 1.408-1.056 1.504-.928 1.535-.8 1.664-.64 1.696-.48 1.76-.256 1.344-.224 1.44-.16 1.472-.096 1.536-.064 1.6-.032 1.664.032 1.663.096 1.728.16 1.728.192 1.76.224 1.76.32 1.792.352 1.76.384 1.76.48 1.728.48 1.727.576 1.696.608 1.632.672 1.632.736 1.536.768 1.504.832 1.44.896 1.344.928 1.312.992 1.184 1.056 1.12 1.119.992 1.152.895 1.216.8 1.28.64 1.312.544 1.376.416 1.184-.16 1.184-.256 1.184-.288 1.184-.384 1.184-.416 1.216-.48 1.216-.544 1.215-.543 1.216-.608 1.216-.64 1.216-.672 1.248-.704 2.464-1.408 2.496-1.44 2.496-1.44 2.495-1.408 1.28-.64 1.248-.64 1.28-.608 1.248-.544 1.28-.512 1.28-.48 1.248-.384 1.28-.352 1.28-.288 1.28-.224 1.248-.16 1.28-.064.896.064.895.16.896.224.928.288.928.384.96.416.96.48.96.512.96.576.992.608.96.608.96.672 1.952 1.344 1.92 1.408 1.855 1.344 1.824 1.312.864.608.864.544.864.544.8.48.8.448.768.352.768.319.704.224.672.16.672.096h.608l.576-.128 1.216-.991 1.216-1.056 1.184-1.088 1.152-1.152 1.119-1.184 1.12-1.248 1.088-1.312 1.024-1.344.992-1.376.96-1.408.896-1.472.832-1.504.8-1.567.736-1.568.672-1.632.64-1.632.544-1.696.448-1.728.416-1.728.32-1.792.224-1.824.16-1.824.064-1.855-.032-1.888-.128-1.92-.256-1.92-.32-1.952-.448-1.984-.544-1.984-.64-2.016-.8-2.015-.896-2.048-.64-1.088-.704-1.088-.768-1.024-.832-.96-.896-.96-.96-.896-1.024-.864-1.056-.832-1.12-.8-1.151-.736-1.184-.704-1.248-.672-1.28-.64-1.312-.608-1.344-.544-1.376-.544-1.408-.479-1.44-.448-1.44-.384-1.472-.384-1.504-.352-1.471-.288-1.536-.256-1.504-.224-1.536-.192-1.536-.16-1.536-.128-1.504-.096-1.536-.032-1.504-.032-1.504.032z" style="fill:#ffd83d;fill-opacity:1;fill-rule:evenodd" transform="scale(.58594)"/><use xlink:href="#a" transform="translate(121.427)"/><path d="m341.339 253.28-.544.032-.544.096-.512.128-.48.16-.48.224-.448.288-.416.288-.352.352-.352.384-.32.416-.256.448-.224.448-.192.512-.128.48-.096.544v1.088l.096.544.128.512.192.48.224.448.256.448.32.416.352.384.352.352.416.288.448.288.48.224.48.16.512.16.544.064.544.031.544-.031.512-.064.512-.16.512-.16.448-.224.447-.288.416-.288.384-.352.352-.384.288-.416.288-.448.224-.448.16-.48.128-.512.096-.544.032-.544-.032-.544-.096-.544-.128-.48-.16-.512-.224-.448-.288-.448-.288-.416-.352-.384-.384-.352-.416-.288-.447-.288-.448-.224-.512-.16-.512-.128-.512-.096zm0-15.359-.544.032-.48.064-.512.128-.448.16-.448.224-.416.256-.416.288-.352.352-.32.352-.32.384-.256.416-.192.448-.192.48-.128.48-.064.512-.032.512.032.512.064.512.128.512.192.448.192.448.256.416.32.384.32.384.352.32.416.288.416.256.448.224.448.16.512.128.48.095.544.033.512-.033.512-.095.48-.128.48-.16.448-.224.415-.256.384-.288.352-.32.352-.384.288-.384.256-.416.224-.448.16-.448.128-.512.064-.512.032-.512-.032-.512-.064-.512-.128-.48-.16-.48-.224-.448-.256-.416-.288-.384-.352-.352-.352-.352-.384-.288-.415-.256-.448-.224-.48-.16-.48-.128-.512-.064zm0-14.591-.512.032-.48.064-.448.128-.448.16-.448.192-.384.256-.384.288-.352.288-.32.352-.256.384-.256.384-.192.448-.16.448-.128.448-.096.48v.992l.096.48.128.48.16.448.192.416.256.384.256.384.32.352.352.32.384.255.384.256.448.192.448.192.448.096.48.096h.992l.48-.096.48-.096.448-.192.416-.192.416-.256.351-.255.352-.32.32-.352.288-.384.224-.384.224-.416.16-.448.128-.48.064-.48.032-.48-.032-.512-.064-.48-.128-.448-.16-.448-.224-.448-.224-.384-.288-.384-.32-.352-.352-.288-.351-.288-.416-.256-.416-.192-.448-.16-.48-.128-.48-.064zm0-13.215-.448.032-.384.032-.416.128-.384.128-.352.16-.32.224-.32.224-.32.288-.256.288-.224.32-.224.32-.16.384-.16.384-.096.384-.064.416v.832l.064.416.096.384.16.384.16.351.224.352.224.32.256.288.32.256.32.256.32.192.352.192.384.128.416.096.384.064.448.032.416-.032.416-.064.384-.096.384-.128.352-.192.352-.192.319-.256.288-.256.256-.288.256-.32.192-.352.192-.351.128-.384.096-.384.064-.416.032-.416-.032-.416-.064-.416-.096-.384-.128-.384-.192-.384-.192-.32-.256-.32-.256-.288-.288-.288-.319-.224-.352-.224-.352-.16-.384-.128-.384-.128-.416-.032zm0-11.167-.352.032-.32.032-.32.096-.288.096-.288.128-.288.192-.256.16-.224.224-.192.223-.192.256-.192.288-.128.288-.096.288-.096.32-.032.32-.032.32.032.352.032.32.096.32.096.288.128.288.192.288.192.256.192.224.224.192.256.192.288.16.288.16.288.096.32.096.32.032.352.032.32-.032.32-.032.32-.096.32-.096.256-.16.288-.16.256-.192.224-.192.224-.224.192-.256.16-.288.127-.288.128-.288.064-.32.064-.32v-.672l-.064-.32-.064-.32-.128-.288-.127-.288-.16-.288-.192-.256-.224-.223-.224-.224-.256-.16-.288-.192-.256-.128-.32-.096-.32-.096-.32-.032z" style="fill:#ffd83d;fill-opacity:1;fill-rule:evenodd" transform="scale(.58594)"/><path id="b" d="m256.768 313.852.928.992.864.992.896.992.864 1.024.832 1.056.832 1.056.832 1.056.832 1.088 1.567 2.176 1.568 2.24 1.504 2.239 1.504 2.304 1.44 2.304 1.44 2.336 1.44 2.336 1.376 2.368 2.784 4.703 2.751 4.704.224-5.344.16-5.343.096-5.408.096-5.376v-10.815l-.032-5.344-.032-5.343-.704.864-.704.832-.703.736-.704.704-.704.672-.704.64-.704.608-.704.576-1.248-1.76-1.216-1.824-1.28-1.824-1.312-1.856-.672-.896-.704-.896-.704-.896-.736-.896-.768-.832-.8-.864-.832-.8-.832-.8.256 1.984.224 2.016.192 2.016.192 2.016.128 1.984.096 2.016.096 2.015v1.984l-.608.064-.576.032-.576.032h-.575l-1.152-.032-1.12-.096-1.12-.128-1.12-.128-1.152-.128z" style="fill:#000;fill-opacity:1;fill-rule:evenodd" transform="scale(.58594)"/><use xlink:href="#b" transform="matrix(-1 0 0 1 399.987 0)"/><path id="c" d="m203.523 323.74.544.128.576.128.544.128.576.064 1.152.16 1.216.096 1.184.064 1.248.064 1.248.064 1.28.128-.448-1.76-.512-1.792-.576-1.792-.608-1.824-.64-1.824-.672-1.792-.672-1.792-.64-1.759 1.184.48 1.152.512 1.152.544 1.088.575 1.088.64 1.056.672 1.023.704.992.704.96.768.928.8.928.832.896.832.832.864.832.864.8.896.768.896.352-.096.352-.16.352-.192.32-.288.352-.32.32-.352.32-.384.32-.416.64-.928.608-.992.608-1.024.576-.96.128 2.4.128 2.432.16 2.4.16 2.4.384 4.767.416 4.768.448 4.768.48 4.767.48 4.8.479 4.832-1.663-2.016-1.696-2.016-1.728-1.984-1.728-1.952-1.76-1.92-1.76-1.951-1.792-1.888-1.792-1.92-1.824-1.888-1.823-1.856-1.856-1.856-1.856-1.856-3.776-3.711z" style="fill:#000;fill-opacity:1;fill-rule:evenodd" transform="scale(.58594)"/><use xlink:href="#c" transform="matrix(-1 0 0 1 399.997 0)"/><path d="m360.09 299.453-.896.128-.864.128-.896.192-.864.192-.864.224-.864.256-.864.288-.832.288-.8.32-.832.32-.8.352-.768.384-.768.384-.768.416-.736.416-.704.416-.032-.48-.032-.448-.064-.48-.096-.448-.192-.928-.224-.896-.32-.928-.32-.896-.384-.864-.384-.896-.863-1.727-.928-1.696-.928-1.664-.864-1.632-.896 1.632-.896 1.664-.928 1.696-.864 1.727-.416.896-.384.864-.32.896-.288.896-.256.928-.192.928-.064.448-.064.48-.064.448v.48l-.736-.416-.736-.416-.768-.416-.768-.384-.768-.352-.8-.352-.8-.352-.832-.32-.832-.288-.863-.288-.832-.224-.864-.256-.896-.192-.864-.16-.896-.16-.896-.128.8 1.344.8 1.376.8 1.376.736 1.376.768 1.408.736 1.376.704 1.408.703 1.408.672 1.44.672 1.407.672 1.44.64 1.44 1.248 2.912 1.184 2.944 1.12 2.944 1.088 2.976 1.024 2.975.96 3.008.928 3.008.896 3.04.832 3.04.8 3.039.8-3.039.832-3.04.864-3.04.927-3.008.992-3.008 1.024-2.975 1.056-2.976 1.152-2.944 1.184-2.944 1.216-2.88.64-1.44.672-1.44.672-1.439.672-1.408.704-1.44.704-1.408.736-1.376.768-1.408.768-1.376.768-1.376.8-1.376zM238.785 180.357h-.512l-.544.064-.48.064-.512.064-.512.128-.48.128-.448.16-.48.192-.448.224-.448.224-.416.224-.416.288-.416.256-.384.32-.351.32-.352.32-.352.384-.32.351-.32.384-.256.416-.288.416-.224.416-.256.448-.192.448-.192.448-.16.48-.128.48-.128.512-.064.48-.064.512-.064.512v1.056l.064.512.064.512.064.512.128.48.128.48.16.48.192.448.192.48.256.416.224.448.288.416.256.384.32.384.32.384.352.352.352.32.351.32.384.32.416.288.416.256.416.256.448.224.448.192.48.191.448.16.48.128.512.128.512.096.48.064.544.032h1.024l.544-.032.512-.064.48-.096.512-.128.48-.128.48-.16.448-.191.448-.192.448-.224.416-.256.416-.256.416-.288.384-.32.352-.32.384-.32.32-.352.32-.384.32-.384.288-.384.256-.416.256-.448.224-.416.191-.48.192-.448.16-.48.128-.48.128-.48.064-.512.064-.512.064-.512v-1.056l-.064-.512-.064-.512-.064-.48-.128-.512-.128-.48-.16-.48-.192-.448-.191-.448-.224-.448-.256-.416-.256-.416-.288-.416-.32-.384-.32-.351-.32-.384-.384-.32-.352-.32-.384-.32-.416-.256-.416-.288-.416-.224-.448-.224-.448-.224-.448-.192-.48-.16-.48-.128-.512-.128-.48-.064-.512-.064-.544-.064z" style="fill:#000;fill-opacity:1;fill-rule:evenodd" transform="scale(.58594)"/><path d="m238.785 184.484-.608.032-.608.096-.576.16-.576.192-.512.256-.512.288-.48.352-.416.416-.384.416-.352.48-.32.48-.256.544-.192.544-.16.576-.096.608-.032.64.032.608.096.608.16.576.192.544.256.544.32.512.352.448.384.448.416.384.48.352.512.288.512.256.576.224.576.128.608.096.608.032.608-.032.608-.096.576-.128.576-.224.512-.256.512-.288.48-.352.416-.384.416-.448.32-.448.32-.512.256-.544.192-.544.16-.576.096-.608.032-.608-.032-.64-.096-.608-.16-.576-.192-.544-.256-.544-.32-.48-.32-.48-.416-.416-.416-.416-.48-.352-.512-.288-.512-.256-.576-.192-.576-.16-.608-.096z" style="fill:#ffd83d;fill-opacity:1;fill-rule:evenodd" transform="scale(.58594)"/><path d="M220.386 184.676h-.512l-.512.032-.512.064-.512.096-.48.128-.512.128-.448.16-.48.192-.447.192-.448.224-.416.256-.416.256-.416.288-.384.32-.352.32-.352.32-.352.352-.32.384-.288.384-.288.384-.288.416-.224.448-.224.416-.224.48-.192.448-.16.48-.128.48-.096.48-.096.512-.064.512-.032.512-.032.512.032.544.032.512.064.512.096.48.096.512.128.48.16.48.192.448.224.448.224.448.224.415.288.416.288.416.288.384.32.352.352.352.352.352.352.32.384.32.416.256.416.288.416.224.448.224.447.224.48.192.448.16.512.128.48.096.512.096.512.064.512.064h1.056l.512-.064.512-.064.48-.096.512-.096.48-.128.48-.16.448-.192.448-.224.448-.224.416-.224.416-.288.416-.256.384-.32.384-.32.352-.352.32-.352.32-.352.32-.384.288-.416.256-.416.256-.415.224-.448.192-.448.192-.448.16-.48.128-.48.128-.512.096-.48.064-.512.032-.512v-1.056l-.032-.512-.064-.512-.096-.512-.128-.48-.128-.48-.16-.48-.192-.448-.192-.48-.224-.416-.256-.448-.256-.416-.288-.384-.32-.384-.32-.384-.32-.352-.352-.32-.384-.32-.384-.32-.416-.288-.416-.256-.416-.256-.448-.224-.448-.192-.448-.192-.48-.16-.48-.128-.512-.128-.48-.096-.512-.064-.512-.032z" style="fill:#000;fill-opacity:1;fill-rule:evenodd" transform="scale(.58594)"/><path d="m220.386 188.804-.608.032-.608.096-.576.128-.576.224-.512.256-.512.288-.48.352-.416.384-.383.448-.352.448-.32.512-.256.544-.192.544-.16.576-.096.608-.032.608.032.64.096.576.16.608.192.544.256.544.32.48.352.48.383.416.416.416.48.352.512.287.512.256.576.192.576.16.608.096.608.032.64-.032.576-.096.608-.16.544-.192.544-.256.48-.287.48-.352.416-.416.416-.416.352-.48.288-.48.256-.544.224-.544.128-.608.096-.576.032-.64-.032-.608-.096-.608-.128-.576-.224-.544-.256-.544-.288-.512-.352-.448-.416-.448-.416-.384-.48-.352-.48-.288-.544-.256-.544-.224-.608-.128-.576-.096z" style="fill:#ffd83d;fill-opacity:1;fill-rule:evenodd" transform="scale(.58594)"/><path d="M204.323 195.044h-.512l-.512.064-.512.064-.512.064-.48.128-.48.128-.48.16-.48.192-.447.192-.448.224-.416.256-.416.256-.384.288-.384.32-.384.32-.352.32-.352.352-.32.384-.288.384-.288.416-.256.416-.256.415-.224.448-.224.448-.16.448-.16.48-.16.48-.096.48-.096.512-.064.512-.032.512-.032.512.032.544.032.512.064.512.096.512.096.48.16.48.16.48.16.448.224.448.224.448.256.448.256.384.288.416.288.384.32.384.352.352.352.32.384.32.384.32.384.288.416.256.416.256.448.224.447.192.48.192.48.16.48.128.48.128.512.064.512.064.512.064h1.056l.512-.064.512-.064.512-.064.48-.128.48-.128.48-.16.448-.192.448-.192.448-.224.448-.256.416-.256.384-.288.384-.32.384-.32.352-.32.32-.352.32-.384.32-.384.288-.416.256-.384.256-.448.224-.448.192-.448.192-.448.16-.48.128-.48.128-.48.096-.512.064-.512.032-.512v-1.056l-.032-.512-.064-.512-.096-.512-.128-.48-.128-.48-.16-.48-.192-.448-.192-.448-.224-.448-.256-.415-.256-.416-.288-.416-.32-.384-.32-.384-.32-.352-.352-.32-.384-.32-.384-.32-.384-.288-.416-.256-.448-.256-.448-.224-.448-.192-.448-.192-.48-.16-.48-.128-.48-.128-.512-.064-.512-.064-.512-.064z" style="fill:#000;fill-opacity:1;fill-rule:evenodd" transform="scale(.58594)"/><path d="m204.323 199.172-.608.032-.608.096-.576.128-.544.224-.544.256-.512.287-.448.352-.448.384-.383.448-.352.48-.32.48-.256.544-.192.544-.16.576-.096.608-.032.608.032.64.096.608.16.576.192.544.256.544.32.48.352.48.383.416.448.416.448.352.512.288.544.256.544.224.576.128.608.096.608.032.64-.032.608-.096.576-.128.544-.224.544-.256.48-.288.48-.352.448-.416.384-.416.352-.48.288-.48.256-.544.224-.544.128-.576.096-.608.032-.64-.032-.608-.096-.608-.128-.576-.224-.544-.256-.544-.288-.48-.352-.48-.384-.448-.448-.384-.48-.352-.48-.287-.544-.256-.544-.224-.576-.128-.608-.096z" style="fill:#ffd83d;fill-opacity:1;fill-rule:evenodd" transform="scale(.58594)"/><path d="m194.628 209.699-.544.032-.512.032-.512.064-.48.096-.512.096-.48.16-.48.16-.448.16-.448.224-.448.224-.416.256-.416.256-.416.288-.384.288-.384.32-.352.352-.32.352-.32.384-.32.384-.288.384-.256.416-.256.416-.224.448-.192.448-.192.479-.16.448-.128.512-.128.48-.096.512-.064.48-.032.544v1.024l.032.512.064.512.096.512.128.48.128.512.16.448.192.48.192.448.224.448.256.416.256.416.288.384.32.384.32.384.32.352.352.352.384.32.384.288.416.288.416.256.416.256.448.224.448.192.448.192.48.16.48.16.512.096.48.096.512.064.512.032.544.032.512-.032.512-.032.512-.064.512-.096.48-.096.512-.16.448-.16.48-.192.448-.192.448-.224.416-.256.415-.256.416-.288.384-.288.352-.32.352-.352.352-.352.32-.384.288-.384.288-.384.288-.416.224-.416.224-.448.224-.448.192-.48.16-.448.128-.512.096-.48.096-.512.064-.512.064-.512v-1.024l-.064-.544-.064-.48-.096-.512-.096-.48-.128-.512-.16-.448-.192-.479-.224-.448-.224-.448-.224-.416-.288-.416-.288-.384-.288-.384-.32-.384-.352-.352-.352-.352-.352-.32-.384-.288-.416-.288-.415-.256-.416-.256-.448-.224-.448-.224-.48-.16-.448-.16-.512-.16-.48-.096-.512-.096-.512-.064-.512-.032z" style="fill:#000;fill-opacity:1;fill-rule:evenodd" transform="scale(.58594)"/><path d="m194.628 213.827-.608.032-.608.096-.608.16-.544.192-.544.256-.48.32-.48.352-.416.384-.416.416-.352.479-.288.512-.256.512-.224.576-.128.576-.096.608-.032.608.032.608.096.608.128.576.224.576.256.512.288.512.352.48.416.416.416.384.48.352.48.32.544.256.544.192.608.16.608.096.608.032.608-.032.608-.096.576-.16.576-.192.512-.256.512-.32.48-.352.416-.384.384-.416.352-.48.32-.512.255-.512.192-.576.16-.576.096-.608.032-.608-.032-.608-.096-.608-.16-.576-.192-.576-.255-.512-.32-.512-.352-.479-.384-.416-.416-.384-.48-.352-.512-.32-.512-.256-.576-.192-.576-.16-.608-.096z" style="fill:#ffd83d;fill-opacity:1;fill-rule:evenodd" transform="scale(.58594)"/><path d="M189.956 228.226h-.544l-.512.064-.512.064-.48.064-.512.128-.48.128-.48.16-.448.192-.448.192-.448.224-.416.256-.416.256-.415.288-.384.32-.384.32-.352.32-.32.384-.32.352-.32.383-.288.416-.256.416-.256.416-.224.448-.192.448-.192.448-.16.48-.128.48-.128.48-.096.512-.064.512-.032.512v1.056l.032.512.064.512.096.512.128.48.128.48.16.48.192.448.192.448.224.448.256.448.256.384.288.416.32.384.32.384.32.352.352.32.384.32.384.32.415.288.416.256.416.256.448.224.448.192.448.192.48.159.48.128.512.128.48.064.512.096.512.032h1.056l.512-.032.512-.096.512-.064.48-.128.48-.128.48-.159.48-.192.448-.192.448-.224.416-.256.416-.256.384-.288.416-.32.352-.32.352-.32.352-.352.32-.384.288-.384.288-.416.288-.384.224-.448.224-.448.224-.448.16-.448.16-.48.16-.48.096-.48.095-.512.064-.512.032-.512.032-.512-.032-.544-.032-.512-.064-.512-.095-.512-.096-.48-.16-.48-.16-.48-.16-.448-.224-.448-.224-.448-.224-.416-.288-.416-.288-.416-.288-.383-.32-.352-.352-.384-.352-.32-.352-.32-.416-.32-.384-.288-.416-.256-.416-.256-.448-.224-.448-.192-.48-.192-.48-.16-.48-.128-.48-.128-.512-.064-.512-.064-.512-.064z" style="fill:#000;fill-opacity:1;fill-rule:evenodd" transform="scale(.58594)"/><path d="m189.956 232.353-.64.032-.576.096-.608.128-.544.224-.544.256-.48.288-.48.352-.416.416-.416.416-.352.48-.288.48-.256.544-.223.544-.128.576-.096.608-.032.64.032.608.096.608.128.576.223.544.256.544.288.48.352.48.416.448.416.384.48.352.48.288.544.256.544.224.608.128.576.096.64.032.608-.032.608-.096.576-.128.576-.224.512-.256.512-.288.448-.352.448-.384.384-.448.352-.48.32-.48.256-.544.192-.544.16-.576.096-.608.032-.608-.032-.64-.096-.608-.16-.576-.192-.544-.256-.544-.32-.48-.352-.48-.384-.416-.448-.416-.448-.352-.512-.288-.512-.256-.576-.224-.576-.128-.608-.096z" style="fill:#ffd83d;fill-opacity:1;fill-rule:evenodd" transform="scale(.58594)"/><path d="M190.052 246.593h-.512l-.544.064-.512.064-.48.064-.512.128-.48.128-.48.16-.448.192-.448.192-.448.224-.416.255-.416.256-.415.288-.384.32-.352.32-.352.32-.352.384-.32.352-.32.384-.288.416-.256.416-.256.416-.224.448-.192.448-.192.448-.16.48-.128.48-.128.48-.064.512-.064.512-.064.512v1.056l.064.512.064.512.064.512.128.48.128.48.16.48.192.448.192.48.224.416.256.448.256.416.288.384.32.384.32.384.352.352.352.319.352.32.384.32.415.288.416.256.416.256.448.224.448.192.448.192.48.16.48.128.512.128.48.064.512.096.544.032h1.024l.544-.032.48-.096.512-.064.512-.128.48-.128.448-.16.48-.192.448-.192.448-.224.416-.256.416-.256.416-.288.384-.32.352-.32.352-.319.352-.352.32-.384.32-.384.256-.384.288-.416.224-.448.224-.416.224-.48.192-.448.16-.48.128-.48.127-.48.064-.512.064-.512.064-.512v-1.056l-.064-.512-.064-.512-.064-.512-.127-.48-.128-.48-.16-.48-.192-.448-.224-.448-.224-.448-.224-.416-.288-.416-.256-.416-.32-.384-.32-.352-.352-.384-.352-.32-.352-.32-.384-.32-.416-.288-.416-.256-.416-.255-.448-.224-.448-.192-.48-.192-.448-.16-.48-.128-.512-.128-.512-.064-.48-.064-.544-.064z" style="fill:#000;fill-opacity:1;fill-rule:evenodd" transform="scale(.58594)"/><path d="m190.052 250.72-.608.032-.608.096-.576.128-.576.224-.512.256-.512.288-.48.352-.416.416-.416.416-.32.48-.32.48-.256.544-.192.544-.16.576-.095.608-.032.64.032.608.095.608.16.576.192.544.256.544.32.48.32.48.416.448.416.384.48.352.512.288.512.256.576.224.576.128.608.096.608.032.608-.032.608-.096.576-.128.576-.224.512-.256.512-.288.48-.352.416-.384.384-.448.352-.48.32-.48.256-.544.192-.544.16-.576.096-.608.032-.608-.032-.64-.096-.608-.16-.576-.192-.544-.256-.544-.32-.48-.352-.48-.384-.416-.416-.416-.48-.352-.512-.288-.512-.256-.576-.224-.576-.128-.608-.096z" style="fill:#ffd83d;fill-opacity:1;fill-rule:evenodd" transform="scale(.58594)"/><path d="M193.764 263.967h-.512l-.512.033-.512.064-.512.095-.48.128-.48.128-.48.16-.48.192-.448.192-.416.224-.448.256-.416.256-.384.288-.384.288-.384.32-.352.352-.352.352-.32.384-.288.384-.288.384-.256.416-.256.448-.224.416-.224.448-.16.48-.16.48-.159.48-.096.48-.096.512-.064.512-.032.512-.032.512.032.544.032.512.064.512.096.48.096.512.159.48.16.48.16.448.224.448.224.448.256.416.256.416.288.415.288.384.32.352.352.352.352.352.384.32.384.288.384.288.416.288.448.224.416.224.448.224.48.16.48.16.48.16.48.096.512.096.512.064.512.032.512.032.544-.032.512-.032.512-.064.512-.096.48-.096.48-.16.48-.16.448-.16.48-.224.416-.224.448-.224.416-.288.384-.288.383-.288.384-.32.352-.352.32-.352.32-.352.32-.384.288-.415.256-.416.256-.416.224-.448.192-.448.192-.448.16-.48.128-.48.128-.512.096-.48.064-.512.032-.512.032-.544-.032-.512-.032-.512-.064-.512-.096-.512-.128-.48-.128-.48-.16-.48-.192-.48-.192-.448-.224-.416-.256-.448-.256-.416-.288-.384-.32-.384-.32-.384-.32-.352-.352-.352-.384-.32-.383-.288-.384-.288-.416-.256-.448-.256-.416-.224-.48-.192-.448-.192-.48-.16-.48-.128-.48-.128-.512-.095-.512-.064-.512-.033z" style="fill:#000;fill-opacity:1;fill-rule:evenodd" transform="scale(.58594)"/><path d="m193.764 268.095-.608.032-.608.064-.576.16-.544.192-.544.256-.512.32-.448.352-.448.384-.384.448-.352.448-.32.512-.256.512-.192.576-.16.576-.096.608-.032.608.032.64.096.576.16.576.192.576.256.512.32.512.352.48.384.416.448.384.448.352.512.32.544.256.544.192.576.16.608.095.608.033.64-.033.608-.095.576-.16.544-.192.544-.256.48-.32.48-.352.448-.384.384-.416.352-.48.288-.512.256-.512.224-.576.128-.576.096-.576.032-.64-.032-.608-.096-.608-.128-.576-.224-.576-.256-.512-.288-.512-.352-.448-.384-.448-.448-.384-.48-.352-.48-.32-.544-.256-.544-.192-.576-.16-.608-.064z" style="fill:#ffd83d;fill-opacity:1;fill-rule:evenodd" transform="scale(.58594)"/><path d="m256.832 179.141-.512.032-.512.032-.512.064-.512.096-.48.096-.48.16-.48.16-.48.16-.448.224-.448.224-.416.224-.416.288-.384.288-.416.288-.352.32-.352.352-.352.352-.32.352-.288.384-.288.416-.288.415-.223.416-.224.448-.224.448-.16.448-.16.48-.16.48-.096.512-.096.48-.064.512-.032.512-.032.544.032.512.032.512.064.512.096.512.096.48.16.48.16.48.16.48.224.448.224.416.223.448.288.416.288.384.288.384.32.384.352.352.352.32.352.352.416.288.384.288.416.256.416.256.448.224.448.192.48.192.48.16.48.128.48.128.512.096.512.064.512.032h1.056l.512-.032.512-.064.48-.096.512-.128.48-.128.48-.16.448-.192.448-.192.448-.224.448-.256.384-.256.416-.288.384-.288.384-.352.352-.32.319-.352.32-.384.32-.384.288-.384.256-.416.256-.448.224-.416.192-.448.192-.48.16-.48.128-.48.128-.48.096-.512.064-.512.032-.512v-1.056l-.032-.512-.064-.512-.096-.48-.128-.512-.128-.48-.16-.48-.192-.448-.192-.448-.224-.448-.256-.416-.256-.415-.288-.416-.32-.384-.32-.352-.319-.352-.352-.352-.384-.32-.384-.288-.416-.288-.384-.288-.448-.224-.448-.224-.448-.224-.448-.16-.48-.16-.48-.16-.512-.096-.48-.096-.512-.064-.512-.032z" style="fill:#000;fill-opacity:1;fill-rule:evenodd" transform="scale(.58594)"/><path d="m256.832 183.269-.608.032-.608.096-.576.16-.576.192-.512.256-.512.319-.448.352-.448.384-.384.416-.352.48-.32.512-.256.512-.192.576-.16.576-.096.576-.032.64.032.608.096.608.16.576.192.544.256.544.32.512.352.448.384.448.448.384.448.352.512.32.512.224.576.224.576.16.608.064.608.032.64-.032.576-.064.608-.16.544-.224.544-.224.48-.32.48-.352.416-.384.416-.448.352-.448.288-.512.256-.544.224-.544.128-.576.096-.608.032-.608-.032-.64-.096-.576-.128-.576-.224-.576-.256-.512-.288-.512-.352-.48-.416-.416-.416-.384-.48-.352-.48-.319-.544-.256-.544-.192-.608-.16-.576-.096z" style="fill:#ffd83d;fill-opacity:1;fill-rule:evenodd" transform="scale(.58594)"/><path d="M274.399 180.709h-.544l-.512.032-.512.064-.48.096-.512.128-.48.128-.48.16-.448.192-.448.192-.448.224-.416.256-.416.256-.416.288-.384.32-.384.32-.352.32-.32.351-.32.384-.32.384-.288.384-.256.416-.256.448-.224.416-.192.448-.192.48-.16.48-.128.48-.128.48-.096.512-.064.512-.032.512v1.056l.032.512.064.512.096.48.128.512.128.48.16.48.192.448.192.448.224.448.256.416.256.416.288.416.32.384.32.352.32.352.352.352.384.32.384.288.416.288.416.288.416.224.448.223.448.224.448.16.48.192.48.128.512.096.48.096.512.064.512.032.544.032.512-.032.512-.032.512-.064.512-.096.48-.096.512-.128.448-.192.48-.16.448-.224.448-.223.416-.224.416-.288.415-.288.384-.288.352-.32.352-.352.352-.352.32-.352.288-.384.288-.416.288-.416.224-.416.224-.448.224-.448.16-.448.192-.48.128-.48.096-.512.096-.48.064-.512.032-.512.032-.544-.032-.512-.032-.512-.064-.512-.096-.512-.096-.48-.128-.48-.192-.48-.16-.48-.224-.448-.224-.416-.224-.448-.288-.416-.288-.384-.288-.384-.32-.384-.352-.351-.352-.32-.352-.32-.384-.32-.415-.288-.416-.256-.416-.256-.448-.224-.448-.192-.48-.192-.448-.16-.512-.128-.48-.128-.512-.096-.512-.064-.512-.032z" style="fill:#000;fill-opacity:1;fill-rule:evenodd" transform="scale(.58594)"/><path d="m274.399 184.836-.64.032-.576.064-.608.16-.544.224-.544.256-.48.288-.48.352-.416.384-.416.448-.352.448-.288.512-.256.544-.224.544-.128.576-.096.608-.032.608.032.64.096.576.128.608.224.544.256.544.288.48.352.48.416.416.416.384.48.352.48.32.544.256.544.192.608.16.576.096.64.032.608-.032.608-.096.576-.16.576-.192.512-.256.512-.32.448-.352.448-.384.384-.416.352-.48.32-.48.256-.544.191-.544.16-.608.096-.576.032-.64-.032-.608-.096-.608-.16-.576-.191-.544-.256-.544-.32-.512-.352-.448-.384-.448-.448-.384-.448-.352-.512-.288-.512-.256-.576-.224-.576-.16-.608-.064z" style="fill:#ffd83d;fill-opacity:1;fill-rule:evenodd" transform="scale(.58594)"/><path d="m293.214 183.749-.544.032-.512.032-.512.064-.512.096-.48.095-.48.128-.48.192-.448.16-.48.224-.416.224-.448.224-.416.288-.384.288-.384.288-.384.32-.352.352-.32.352-.32.352-.32.384-.288.416-.256.416-.256.416-.224.448-.192.448-.192.448-.16.48-.128.48-.128.512-.096.48-.064.512-.032.512v1.056l.032.512.064.512.096.512.128.48.128.48.16.48.192.48.192.448.224.416.256.448.256.416.288.383.32.384.32.384.32.352.352.32.384.32.384.32.384.288.416.256.448.256.416.224.48.192.448.192.48.16.48.128.48.128.512.096.512.064.512.032h1.056l.512-.032.512-.064.512-.096.48-.128.479-.128.48-.16.48-.192.448-.192.416-.224.448-.256.416-.256.384-.288.384-.32.384-.32.352-.32.352-.352.32-.384.288-.384.288-.383.256-.416.256-.448.224-.416.224-.448.16-.48.16-.48.16-.48.096-.48.096-.512.064-.512.032-.512.032-.512-.032-.544-.032-.512-.064-.512-.096-.48-.096-.512-.16-.48-.16-.48-.16-.448-.224-.448-.224-.448-.256-.416-.256-.416-.288-.416-.288-.384-.32-.352-.352-.352-.352-.352-.384-.32-.384-.288-.384-.288-.416-.288-.448-.224-.416-.224-.448-.224-.48-.16-.48-.192-.479-.128-.48-.095-.512-.096-.512-.064-.512-.032z" style="fill:#000;fill-opacity:1;fill-rule:evenodd" transform="scale(.58594)"/><path d="m293.214 187.876-.64.032-.608.096-.576.16-.544.192-.544.256-.48.32-.48.32-.448.416-.384.416-.352.48-.288.48-.256.544-.224.544-.128.608-.096.576-.032.64.032.608.096.608.128.576.224.544.256.544.288.512.352.448.384.448.448.384.48.352.48.288.544.256.544.224.576.16.608.064.64.032.608-.032.608-.064.576-.16.544-.224.544-.256.511-.288.448-.352.448-.384.384-.448.352-.448.32-.512.256-.544.192-.544.16-.576.096-.608.032-.608-.032-.64-.096-.576-.16-.608-.192-.544-.256-.544-.32-.48-.352-.48-.384-.416-.448-.416-.448-.32-.511-.32-.544-.256-.544-.192-.576-.16-.608-.096z" style="fill:#ffd83d;fill-opacity:1;fill-rule:evenodd" transform="scale(.58594)"/><path d="M310.237 186.308h-.512l-.512.064-.512.064-.512.064-.48.128-.48.128-.48.16-.48.192-.448.192-.416.256-.448.224-.416.256-.384.288-.384.32-.384.32-.352.32-.352.384-.32.352-.288.384-.288.416-.256.416-.256.416-.224.448-.224.448-.16.448-.16.48-.16.48-.096.48-.096.512-.064.512-.032.512-.032.544.032.512.032.512.064.512.096.512.096.48.16.48.16.48.16.447.224.48.224.416.256.448.256.416.288.384.288.384.32.384.352.352.352.32.384.32.384.32.384.288.416.256.448.256.416.224.448.192.48.192.48.16.48.128.48.128.512.096.512.064.512.032h1.056l.512-.032.512-.064.511-.096.48-.128.48-.128.48-.16.448-.192.48-.192.416-.224.448-.256.416-.256.384-.288.384-.32.384-.32.352-.32.32-.352.32-.384.32-.384.288-.384.256-.416.256-.448.224-.416.192-.48.192-.447.16-.48.128-.48.128-.48.096-.512.064-.512.032-.512.032-.512-.032-.544-.032-.512-.064-.512-.096-.512-.128-.48-.128-.48-.16-.48-.192-.448-.192-.448-.224-.448-.256-.416-.256-.416-.288-.416-.32-.384-.32-.352-.32-.384-.352-.32-.384-.32-.384-.32-.384-.288-.416-.256-.448-.224-.416-.256-.48-.192-.448-.192-.48-.16-.48-.128-.48-.128-.511-.064-.512-.064-.512-.064z" style="fill:#000;fill-opacity:1;fill-rule:evenodd" transform="scale(.58594)"/><path d="m310.237 190.436-.608.032-.608.096-.576.128-.544.224-.544.256-.512.288-.448.352-.448.416-.384.416-.352.48-.32.48-.256.544-.192.544-.16.576-.096.608-.032.64.032.608.096.608.16.576.192.544.256.544.32.48.352.479.384.448.448.384.448.352.512.288.544.256.544.224.576.128.608.096.608.032.64-.032.608-.096.575-.128.544-.224.544-.256.48-.288.48-.352.448-.384.384-.448.352-.479.288-.48.256-.544.224-.544.128-.576.096-.608.032-.608-.032-.64-.096-.608-.128-.576-.224-.544-.256-.544-.288-.48-.352-.48-.384-.416-.448-.416-.48-.352-.48-.288-.544-.256-.544-.224-.575-.128-.608-.096z" style="fill:#ffd83d;fill-opacity:1;fill-rule:evenodd" transform="scale(.58594)"/><path d="m326.044 189.86-.512.032-.544.032-.512.064-.48.096-.512.096-.48.16-.48.16-.448.16-.448.224-.448.224-.416.224-.416.288-.416.288-.384.288-.352.32-.352.352-.352.352-.32.352-.32.384-.288.416-.256.416-.256.416-.224.448-.192.448-.192.448-.16.48-.128.48-.128.512-.064.48-.064.512-.064.512v1.055l.064.512.064.512.064.512.128.48.128.48.16.48.192.48.192.448.224.416.256.448.256.416.288.384.32.384.32.384.352.352.352.32.352.32.384.32.416.288.416.256.416.256.448.224.448.192.448.192.48.16.48.128.512.128.48.096.512.064.544.032h1.024l.544-.032.48-.064.512-.096.511-.128.48-.128.448-.16.48-.192.448-.192.448-.224.416-.256.416-.256.416-.288.384-.32.352-.32.352-.32.352-.352.32-.384.288-.384.288-.384.288-.416.224-.448.224-.416.224-.448.192-.48.16-.48.128-.48.128-.48.064-.512.064-.512.064-.512v-1.055l-.064-.512-.064-.512-.064-.48-.128-.512-.128-.48-.16-.48-.192-.448-.224-.448-.224-.448-.224-.416-.288-.416-.288-.416-.288-.384-.32-.352-.352-.352-.352-.352-.352-.32-.384-.288-.416-.288-.416-.288-.416-.224-.448-.224-.448-.224-.48-.16-.448-.16-.48-.16-.511-.096-.512-.096-.48-.064-.544-.032z" style="fill:#000;fill-opacity:1;fill-rule:evenodd" transform="scale(.58594)"/><path d="m326.044 193.988-.608.032-.608.096-.576.16-.576.192-.512.256-.512.32-.48.352-.416.384-.416.416-.32.48-.32.48-.256.544-.192.544-.16.608-.096.576-.032.639.032.608.096.608.16.576.192.544.256.544.32.512.32.448.416.448.416.384.48.352.512.288.512.256.576.224.576.16.608.064.608.032.608-.032.608-.064.576-.16.575-.224.512-.256.512-.288.48-.352.416-.384.384-.448.352-.448.32-.512.256-.544.192-.544.16-.576.096-.608.032-.608-.032-.639-.096-.576-.16-.608-.192-.544-.256-.544-.32-.48-.352-.48-.384-.416-.416-.384-.48-.352-.512-.32-.512-.256-.575-.192-.576-.16-.608-.096zm-119.321 85.563-1.12-2.688-1.024-2.688-.928-2.688-.832-2.688-.704-2.656-.64-2.655-.512-2.656-.416-2.592-.352-2.592-.255-2.56-.16-2.56-.064-2.495.032-2.432.096-2.432.16-2.368.255-2.336.352-2.24.416-2.208.48-2.175.544-2.08.64-2.016.704-1.952.768-1.856.832-1.792.864-1.728.96-1.6 1.024-1.536 1.056-1.471 1.12-1.344 1.184-1.248 1.248-1.152 1.28-1.024 1.12-.768 1.184-.768 1.215-.704 1.248-.704 1.28-.64 1.312-.608 1.376-.608 1.376-.576 1.408-.512 1.408-.512 1.472-.48 1.472-.448 1.472-.448 1.503-.384 1.536-.384 1.504-.32 1.536-.32 1.536-.288 1.536-.288 1.536-.224 1.536-.224 1.536-.192 1.536-.192 1.504-.128 1.503-.128 1.504-.096 1.472-.095 1.472-.064 1.44-.032h2.784l1.344.032 2.016.127 1.984.128 1.983.16 1.984.192 3.936.416 3.968.48 3.936.512 3.903.608 3.904.608 3.904.672 3.904.704 3.871.704 3.872.768 3.872.736 7.679 1.536 7.648 1.504-1.248 7.423-7.424-1.599-7.455-1.6-3.712-.768-3.744-.736-3.743-.704-3.776-.672-3.808-.608-3.84-.576-1.92-.256-1.919-.256-1.952-.224-1.952-.192-1.952-.192-1.984-.16-1.984-.16-1.984-.128-2.016-.096-2.015-.064-2.048-.064-2.048-.032-2.688.032-2.688.096-1.376.064-1.344.096-1.344.096-1.376.128-1.343.16-1.344.16-1.344.224-1.344.192-1.344.256-1.344.288-1.344.288-1.312.32-1.312.352-1.312.384-1.312.416-1.28.448-1.279.48-1.28.512-1.248.544-1.248.608-1.216.608-1.216.64-1.216.703-1.184.736-1.152.768-1.152.832-1.12.832-1.12.896-1.088.96-.991.992-.928 1.12-.896 1.184-.8 1.28-.736 1.344-.672 1.408-.576 1.504-.544 1.568-.48 1.631-.384 1.696-.352 1.76-.256 1.856-.224 1.888-.128 1.952-.064 1.984v2.08l.064 2.111.128 2.144.224 2.208.256 2.272.352 2.272.384 2.336.48 2.4.544 2.399.608 2.432.672 2.496.736 2.496.832 2.528.864 2.56.96 2.592.991 2.591zm112.441-9.12.704-3.616.672-3.647.672-3.648.608-3.68.608-3.68.576-3.712.544-3.711.512-3.712.448-3.744.416-3.712.352-3.743.288-3.744.256-3.712.16-3.744.064-1.856.032-1.855.032-1.856.032-1.856h5.087l-.032 3.52-.032 3.519-.128 3.52-.128 3.52-.192 3.52-.224 3.519-.256 3.52-.288 3.488-.32 3.52-.352 3.52-.384 3.519-.416 3.52-.415 3.52-.448 3.52-.48 3.519-.48 3.52zm156.758 9.12 1.12-2.688 1.056-2.688.896-2.688.832-2.688.704-2.656.64-2.655.512-2.656.448-2.592.32-2.592.256-2.592.16-2.528.064-2.495v-2.464l-.096-2.4-.192-2.368-.256-2.336-.32-2.24-.416-2.208-.512-2.175-.544-2.08-.64-2.016-.672-1.952-.768-1.856-.832-1.792-.896-1.728-.96-1.632-1.024-1.536-1.056-1.439-1.12-1.344-1.183-1.248-1.216-1.152-1.28-1.024-1.152-.768-1.152-.768-1.216-.704-1.248-.704-1.312-.64-1.312-.64-1.344-.576-1.376-.576-1.408-.512-1.439-.512-1.44-.48-1.472-.448-1.504-.448-1.504-.384-1.504-.384-1.536-.32-1.536-.32-1.536-.288-1.536-.288-1.536-.224-1.535-.224-1.536-.192-1.536-.192-1.504-.128-1.504-.128-1.504-.096-1.472-.095-1.44-.064-1.44-.032h-4.159l-1.984.127-1.984.16-1.984.16-1.984.192-3.968.416-3.935.48-3.936.512-3.936.608-3.904.608-3.903.672-3.904.704-3.872.704-3.872.736-3.872.768-7.679 1.536-7.648 1.504 1.248 7.423 7.456-1.599 7.423-1.6 3.744-.768 3.712-.736 3.776-.704 3.776-.672 3.775-.608 3.84-.576 1.92-.256 1.952-.256 1.92-.224 1.952-.192 1.983-.192 1.952-.16 1.984-.16 2.016-.128 2.016-.096 2.016-.064 2.016-.064 2.08-.032 2.655.032 2.72.096 1.344.064 1.344.096 1.376.096 1.344.128 1.344.16 1.376.16 1.344.224 1.344.192 1.343.256 1.312.288 1.344.288 1.312.32 1.344.352 1.28.384 1.312.416 1.28.448 1.28.48 1.28.512 1.248.544 1.248.576 1.247.64 1.184.64 1.216.703 1.184.736 1.152.768 1.152.832 1.152.832 1.12.896 1.056.96.992.992.96 1.12.864 1.184.8 1.28.736 1.344.672 1.408.608 1.504.544 1.568.447 1.631.416 1.696.32 1.76.288 1.856.192 1.888.128 1.952.064 1.984v2.08l-.064 2.111-.128 2.144-.192 2.208-.288 2.272-.32 2.272-.416 2.336-.479 2.4-.544 2.399-.608 2.432-.672 2.496-.736 2.496-.8 2.528-.896 2.56-.928 2.592-1.024 2.591zm-112.441-9.12-.672-3.616-.704-3.647-.64-3.648-.64-3.68-.608-3.68-.575-3.712-.544-3.711-.48-3.712-.48-3.744-.384-3.712-.352-3.743-.32-3.744-.224-3.744-.192-3.712-.064-1.856-.032-1.855-.032-1.856v-1.856h-5.088v3.52l.064 3.519.096 3.52.128 3.52.192 3.52.224 3.519.256 3.488.288 3.52.352 3.52.352 3.52.384 3.519.384 3.52.448 3.52.448 3.52.448 3.519.48 3.52z" style="fill:#ffd83d;fill-opacity:1;fill-rule:evenodd" transform="scale(.58594)"/><path d="M443.86 180.357h.544l.512.064.512.064.48.064.512.128.48.128.48.16.448.192.448.192.448.256.448.224.384.256.416.288.384.32.384.32.352.32.32.384.32.351.32.384.288.416.256.416.256.416.224.448.192.448.192.448.16.48.128.48.128.48.096.512.064.512.032.512v1.056l-.032.512-.064.512-.096.512-.128.48-.128.48-.16.48-.192.448-.192.48-.224.416-.256.448-.256.416-.288.384-.32.384-.32.384-.32.352-.352.32-.384.32-.384.32-.416.288-.384.256-.448.256-.448.224-.448.192-.448.191-.48.16-.48.128-.512.128-.48.096-.512.064-.512.032h-1.056l-.512-.032-.512-.064-.512-.096-.48-.128-.48-.128-.48-.16-.479-.191-.448-.192-.448-.224-.416-.256-.416-.256-.384-.288-.384-.32-.384-.32-.352-.32-.352-.352-.32-.384-.288-.384-.288-.384-.288-.416-.224-.448-.224-.416-.224-.48-.16-.448-.16-.48-.16-.48-.096-.48-.096-.512-.064-.512-.032-.512-.032-.512.032-.544.032-.512.064-.512.096-.512.096-.48.16-.48.16-.48.16-.448.224-.448.224-.448.224-.416.288-.416.288-.416.288-.384.32-.351.352-.384.352-.32.384-.32.384-.32.384-.288.416-.256.416-.224.448-.256.448-.192.479-.192.48-.16.48-.128.48-.128.512-.064.512-.064.512-.064z" style="fill:#000;fill-opacity:1;fill-rule:evenodd" transform="scale(.58594)"/><path d="m443.86 184.484.64.032.576.096.608.128.544.224.544.256.48.288.48.352.416.416.416.416.352.48.288.48.256.544.224.544.128.576.096.608.032.64-.032.608-.096.608-.128.576-.224.544-.256.544-.288.48-.352.48-.416.448-.416.384-.48.352-.48.288-.544.256-.544.224-.608.128-.576.096-.64.032-.608-.032-.608-.096-.576-.128-.576-.224-.512-.256-.512-.288-.447-.352-.448-.384-.384-.448-.352-.48-.32-.48-.256-.544-.192-.544-.16-.576-.096-.608-.032-.608.032-.64.096-.608.16-.576.192-.544.256-.544.32-.48.352-.48.384-.416.448-.416.447-.352.512-.288.512-.256.576-.224.576-.128.608-.096z" style="fill:#ffd83d;fill-opacity:1;fill-rule:evenodd" transform="scale(.58594)"/><path d="M462.259 184.676h.544l.512.032.512.064.48.096.512.128.48.128.48.16.448.192.448.192.448.224.416.256.416.256.416.288.384.32.384.32.352.32.32.352.32.384.32.384.288.384.256.416.256.448.224.416.192.448.192.48.16.48.128.48.127.48.096.512.064.512.032.512v1.056l-.032.512-.064.512-.096.48-.127.512-.128.48-.16.48-.192.448-.192.448-.224.448-.256.415-.256.416-.288.416-.32.384-.32.352-.32.352-.352.352-.384.32-.384.288-.416.288-.416.288-.416.224-.448.224-.448.224-.448.192-.48.16-.48.128-.512.096-.48.096-.512.064-.512.032-.544.032-.512-.032-.512-.032-.512-.064-.512-.096-.48-.096-.512-.128-.448-.16-.48-.192-.448-.224-.448-.224-.416-.224-.416-.288-.416-.288-.383-.288-.352-.32-.352-.352-.352-.352-.32-.352-.288-.384-.288-.416-.288-.416-.224-.415-.224-.448-.224-.448-.192-.448-.16-.48-.128-.48-.096-.512-.096-.48-.064-.512-.064-.512v-1.056l.064-.512.064-.512.096-.512.096-.48.128-.48.16-.48.192-.48.224-.448.224-.416.224-.448.288-.416.288-.384.288-.384.32-.384.352-.352.352-.32.352-.32.383-.32.416-.288.416-.256.416-.256.448-.224.448-.192.48-.192.448-.16.512-.128.48-.128.512-.096.512-.064.512-.032z" style="fill:#000;fill-opacity:1;fill-rule:evenodd" transform="scale(.58594)"/><path d="m462.259 188.804.64.032.576.096.608.128.544.224.544.256.48.288.48.352.416.384.416.448.352.448.288.512.256.544.224.544.128.576.096.608.032.608-.032.64-.096.576-.128.608-.224.544-.256.544-.288.48-.352.48-.416.416-.416.416-.48.32-.48.319-.544.256-.544.192-.608.16-.576.096-.64.032-.608-.032-.608-.096-.576-.16-.576-.192-.512-.256-.512-.319-.48-.32-.416-.416-.384-.416-.352-.48-.32-.48-.256-.544-.192-.544-.16-.608-.096-.576-.032-.64.032-.608.096-.608.16-.576.192-.544.256-.544.32-.512.352-.448.384-.448.416-.384.48-.352.512-.288.512-.256.576-.224.576-.128.608-.096z" style="fill:#ffd83d;fill-opacity:1;fill-rule:evenodd" transform="scale(.58594)"/><path d="M478.322 195.044h.512l.544.032.48.096.512.064.512.128.48.128.48.16.448.192.448.192.448.224.416.256.416.256.416.288.384.32.352.32.352.32.352.352.32.384.32.384.256.416.288.384.224.447.256.448.192.448.192.448.16.48.128.48.127.48.064.512.064.512.064.512v1.056l-.064.512-.064.512-.064.512-.127.48-.128.48-.16.48-.192.448-.192.448-.256.448-.224.416-.288.416-.256.416-.32.384-.32.384-.352.352-.352.32-.352.32-.384.32-.416.288-.416.256-.416.256-.448.224-.448.192-.448.192-.48.16-.48.128-.512.128-.512.064-.48.064-.544.064h-1.024l-.544-.064-.512-.064-.48-.064-.512-.128-.48-.128-.48-.16-.448-.192-.448-.192-.448-.224-.416-.256-.416-.256-.416-.288-.383-.32-.352-.32-.352-.32-.352-.352-.32-.384-.32-.384-.256-.416-.288-.416-.256-.416-.224-.448-.192-.448-.192-.448-.16-.48-.128-.48-.128-.48-.064-.512-.064-.512-.064-.512v-1.056l.064-.512.064-.512.064-.512.128-.48.128-.48.16-.48.192-.448.192-.448.224-.448.256-.447.288-.384.256-.416.32-.384.32-.384.352-.352.352-.32.352-.32.383-.32.416-.288.416-.256.416-.256.448-.224.448-.192.448-.192.48-.16.48-.128.512-.128.48-.064.512-.096.544-.032z" style="fill:#000;fill-opacity:1;fill-rule:evenodd" transform="scale(.58594)"/><path d="m478.322 199.172.608.032.608.096.576.128.576.224.512.256.512.287.48.352.416.384.384.448.352.48.32.48.256.544.192.544.16.576.096.608.032.608-.032.64-.096.608-.16.576-.192.544-.256.544-.32.48-.352.48-.384.416-.416.416-.48.352-.512.288-.512.256-.576.224-.576.128-.608.096-.608.032-.608-.032-.608-.096-.576-.128-.576-.224-.512-.256-.512-.288-.48-.352-.416-.416-.384-.416-.352-.48-.32-.48-.256-.544-.192-.544-.16-.576-.096-.608-.032-.64.032-.608.096-.608.16-.576.192-.544.256-.544.32-.48.352-.48.384-.448.416-.384.48-.352.512-.287.512-.256.576-.224.576-.128.608-.096z" style="fill:#ffd83d;fill-opacity:1;fill-rule:evenodd" transform="scale(.58594)"/><path d="m488.018 209.699.543.032.512.032.512.064.512.096.48.096.48.16.48.16.448.16.48.224.416.224.448.256.416.256.384.288.384.288.384.32.352.352.32.352.352.352.288.416.288.384.256.416.256.416.224.448.192.448.192.479.16.448.128.48.128.512.096.512.064.48.032.544.032.512-.032.512-.032.512-.064.512-.096.512-.128.48-.128.48-.16.48-.192.48-.192.448-.224.448-.256.416-.256.416-.288.384-.288.384-.352.384-.32.352-.352.352-.384.32-.384.288-.384.288-.416.256-.448.256-.416.224-.48.192-.448.192-.48.16-.48.16-.48.096-.512.096-.512.064-.512.032-.543.032-.512-.032-.512-.032-.512-.064-.512-.096-.48-.096-.48-.16-.48-.16-.48-.192-.448-.192-.416-.224-.448-.256-.416-.256-.384-.288-.384-.288-.384-.32-.352-.352-.352-.352-.32-.384-.288-.384-.288-.384-.256-.416-.256-.416-.224-.448-.192-.448-.192-.48-.16-.48-.16-.48-.096-.48-.096-.512-.064-.512-.032-.512-.032-.512.032-.512.032-.544.064-.48.096-.512.096-.512.16-.48.16-.448.192-.479.192-.448.224-.448.256-.416.256-.416.288-.384.288-.416.32-.352.352-.352.352-.352.384-.32.384-.288.384-.288.416-.256.448-.256.416-.224.448-.224.48-.16.48-.16.48-.16.48-.096.512-.096.512-.064.512-.032z" style="fill:#000;fill-opacity:1;fill-rule:evenodd" transform="scale(.58594)"/><path d="m488.018 213.827.639.032.608.096.576.16.544.192.544.256.512.32.448.352.448.384.384.416.352.479.288.512.256.512.224.576.16.576.064.608.032.608-.032.608-.064.608-.16.576-.224.576-.256.512-.288.512-.352.448-.384.448-.448.384-.448.352-.512.32-.544.256-.544.192-.576.16-.608.096-.639.032-.608-.032-.608-.096-.576-.16-.544-.192-.544-.256-.512-.32-.448-.352-.448-.384-.384-.448-.352-.448-.288-.512-.256-.512-.224-.576-.16-.576-.064-.608-.032-.608.032-.608.064-.608.16-.576.224-.576.256-.512.288-.512.352-.479.384-.416.448-.384.448-.352.512-.32.544-.256.544-.192.576-.16.608-.096z" style="fill:#ffd83d;fill-opacity:1;fill-rule:evenodd" transform="scale(.58594)"/><path d="M492.721 228.226h.512l.512.064.512.064.512.064.48.128.48.128.48.16.48.192.448.192.416.224.448.256.416.256.384.288.384.32.384.32.352.32.352.352.32.384.288.383.288.416.256.384.256.448.224.448.224.448.16.448.16.48.16.48.096.48.096.512.064.512.032.512.032.512-.032.544-.032.512-.064.512-.096.512-.096.48-.16.48-.16.48-.16.448-.224.448-.224.448-.256.448-.256.384-.288.416-.288.384-.32.384-.352.352-.352.32-.384.32-.384.32-.384.288-.416.256-.448.256-.416.224-.448.192-.48.192-.48.159-.48.128-.48.128-.512.064-.512.064-.512.064h-1.056l-.512-.064-.512-.064-.512-.064-.48-.128-.48-.128-.48-.159-.448-.192-.48-.192-.415-.224-.448-.256-.416-.256-.384-.288-.384-.32-.384-.32-.352-.32-.32-.352-.352-.384-.288-.384-.288-.416-.256-.384-.256-.448-.224-.448-.192-.448-.192-.448-.16-.48-.128-.48-.128-.48-.096-.512-.064-.512-.032-.512-.032-.544.032-.512.032-.512.064-.512.096-.512.128-.48.128-.48.16-.48.192-.448.192-.448.224-.448.256-.448.256-.384.288-.416.288-.383.352-.384.32-.352.352-.32.384-.32.384-.32.384-.288.416-.256.448-.256.415-.224.48-.192.448-.192.48-.16.48-.128.48-.128.512-.064.512-.064.512-.064z" style="fill:#000;fill-opacity:1;fill-rule:evenodd" transform="scale(.58594)"/><path d="m492.721 232.353.608.032.608.096.576.128.544.224.544.256.512.288.448.352.448.384.384.448.352.48.32.48.256.544.192.544.16.576.096.608.032.608-.032.64-.096.608-.16.576-.192.544-.256.544-.32.48-.352.48-.384.416-.448.416-.448.352-.512.288-.544.256-.544.224-.576.128-.608.096-.608.032-.64-.032-.608-.096-.576-.128-.544-.224-.544-.256-.512-.288-.448-.352-.448-.416-.383-.416-.352-.48-.288-.48-.256-.544-.224-.544-.16-.576-.064-.608-.032-.64.032-.608.064-.608.16-.576.224-.544.256-.544.288-.48.352-.48.383-.448.448-.384.448-.352.512-.288.544-.256.544-.224.576-.128.608-.096z" style="fill:#ffd83d;fill-opacity:1;fill-rule:evenodd" transform="scale(.58594)"/><path d="M492.593 246.593h.544l.512.064.512.064.512.064.48.128.48.128.48.16.448.192.448.192.448.224.448.255.416.256.384.288.384.32.384.32.352.32.32.352.32.384.32.384.288.416.256.384.256.448.224.448.192.448.192.448.16.48.128.48.128.48.096.512.064.512.032.512v1.056l-.032.512-.064.512-.096.512-.128.48-.128.48-.16.48-.192.448-.192.448-.224.448-.256.448-.256.384-.288.416-.32.384-.32.384-.32.352-.352.319-.384.32-.384.32-.384.288-.416.256-.448.256-.448.224-.448.192-.448.192-.48.16-.48.128-.48.128-.512.064-.512.064-.512.064h-1.056l-.512-.064-.512-.064-.512-.064-.48-.128-.48-.128-.48-.16-.48-.192-.448-.192-.447-.224-.416-.256-.416-.256-.384-.288-.384-.32-.384-.32-.352-.319-.352-.352-.32-.384-.288-.384-.288-.416-.256-.384-.256-.448-.224-.448-.224-.448-.16-.448-.16-.48-.16-.48-.096-.48-.096-.512-.064-.512-.032-.512-.032-.544.032-.512.032-.512.064-.512.096-.512.096-.48.16-.48.16-.48.16-.448.224-.448.224-.448.256-.448.256-.384.288-.416.288-.384.32-.384.352-.352.352-.32.384-.32.384-.32.384-.288.416-.256.416-.255.447-.224.448-.192.48-.192.48-.16.48-.128.48-.128.512-.064.512-.064.512-.064z" style="fill:#000;fill-opacity:1;fill-rule:evenodd" transform="scale(.58594)"/><path d="m492.593 250.72.64.032.608.096.576.128.544.224.544.256.48.288.48.352.448.384.384.448.352.48.288.48.256.544.224.544.128.576.096.608.032.608-.032.64-.096.608-.128.576-.224.544-.256.544-.288.48-.352.48-.384.416-.448.416-.48.352-.48.288-.544.256-.544.224-.576.128-.608.096-.64.032-.608-.032-.608-.096-.576-.128-.544-.224-.544-.256-.512-.288-.448-.352-.447-.416-.384-.416-.352-.48-.32-.48-.256-.544-.192-.544-.16-.576-.096-.608-.032-.64.032-.608.096-.608.16-.576.192-.544.256-.544.32-.48.352-.48.384-.448.447-.384.448-.352.512-.288.544-.256.544-.224.576-.128.608-.096z" style="fill:#ffd83d;fill-opacity:1;fill-rule:evenodd" transform="scale(.58594)"/><path d="m488.881 263.936.512.031.512.033.512.064.512.095.48.128.512.128.448.16.48.192.448.192.448.224.416.256.416.256.416.288.384.288.352.32.352.352.352.352.32.384.288.384.288.384.288.416.224.416.224.448.224.448.192.48.16.48.128.48.128.48.064.512.064.512.064.512v1.024l-.064.544-.064.512-.064.48-.128.512-.128.48-.16.48-.192.448-.224.448-.224.448-.224.416-.288.416-.288.415-.288.384-.32.352-.352.352-.352.352-.352.32-.384.288-.416.288-.416.288-.416.224-.448.224-.448.224-.48.16-.448.16-.512.16-.48.096-.512.096-.512.064-.512.032-.512.032-.512-.032-.544-.032-.511-.064-.48-.096-.512-.096-.48-.16-.48-.16-.448-.16-.448-.224-.448-.224-.416-.224-.416-.288-.416-.288-.384-.288-.352-.32-.384-.352-.32-.352-.32-.352-.32-.384-.288-.415-.256-.416-.256-.416-.224-.448-.192-.448-.192-.448-.16-.48-.128-.48-.128-.512-.064-.48-.096-.512-.032-.544v-1.024l.032-.512.096-.512.064-.512.128-.48.128-.48.16-.48.192-.48.192-.448.224-.448.256-.416.256-.416.288-.384.32-.384.32-.384.32-.352.384-.352.352-.32.384-.288.416-.288.416-.256.416-.256.448-.224.448-.192.448-.192.48-.16.48-.128.512-.128.48-.095.511-.064.544-.033z" style="fill:#000;fill-opacity:1;fill-rule:evenodd" transform="scale(.58594)"/><path d="m488.881 268.063.608.032.608.096.576.16.576.192.512.256.512.32.48.352.416.384.384.448.352.448.32.512.256.512.192.576.16.576.096.608.032.608-.032.608-.096.608-.16.576-.192.576-.256.512-.32.512-.352.48-.384.416-.416.384-.48.352-.512.32-.512.256-.576.192-.576.16-.608.095-.608.033-.608-.033-.607-.095-.576-.16-.576-.192-.544-.256-.48-.32-.48-.352-.416-.384-.416-.416-.352-.48-.288-.512-.256-.512-.192-.576-.16-.576-.096-.608-.032-.608.032-.608.096-.608.16-.576.192-.576.256-.512.288-.512.352-.448.416-.448.416-.384.48-.352.48-.32.544-.256.576-.192.576-.16.607-.096z" style="fill:#ffd83d;fill-opacity:1;fill-rule:evenodd" transform="scale(.58594)"/><path d="m425.813 179.141.512.032.544.032.512.064.48.096.512.096.48.128.48.16.448.192.448.224.448.224.416.224.416.288.416.288.384.288.352.32.384.352.32.352.32.352.32.384.288.416.256.415.256.416.224.448.192.448.192.448.16.48.128.48.128.512.064.48.096.512.032.512v1.056l-.032.512-.096.512-.064.512-.128.48-.128.48-.16.48-.192.48-.192.448-.224.416-.256.448-.256.416-.288.384-.32.384-.32.384-.32.352-.384.32-.352.32-.384.32-.416.288-.416.256-.416.256-.448.224-.448.192-.448.192-.48.16-.48.128-.512.128-.48.096-.512.064-.544.032h-1.024l-.512-.032-.512-.064-.511-.096-.512-.128-.48-.128-.448-.16-.48-.192-.448-.192-.448-.224-.416-.256-.416-.256-.416-.288-.384-.32-.352-.32-.352-.32-.352-.352-.32-.384-.32-.384-.256-.384-.288-.416-.224-.448-.256-.416-.192-.448-.192-.48-.16-.48-.128-.48-.128-.48-.064-.512-.064-.512-.064-.512v-1.056l.064-.512.064-.512.064-.48.128-.512.128-.48.16-.48.192-.448.192-.448.256-.448.224-.416.288-.415.256-.416.32-.384.32-.352.352-.352.352-.352.352-.32.384-.288.416-.288.416-.288.416-.224.448-.224.448-.224.48-.192.448-.16.48-.128.512-.096.511-.096.512-.064.512-.032z" style="fill:#000;fill-opacity:1;fill-rule:evenodd" transform="scale(.58594)"/><path d="m425.813 183.269.608.032.608.096.576.16.576.192.512.256.512.319.48.32.416.416.416.416.32.48.32.48.256.544.192.544.16.608.096.576.032.64-.032.608-.096.608-.16.576-.192.544-.256.544-.32.512-.32.448-.416.448-.416.384-.48.352-.512.288-.512.256-.576.224-.576.16-.608.064-.608.032-.608-.032-.608-.064-.575-.16-.576-.224-.512-.256-.512-.288-.48-.352-.416-.384-.384-.448-.352-.448-.32-.512-.256-.544-.192-.544-.16-.576-.096-.608-.032-.608.032-.64.096-.576.16-.608.192-.544.256-.544.32-.48.352-.48.384-.416.416-.416.48-.32.512-.319.512-.256.576-.192.575-.16.608-.096z" style="fill:#ffd83d;fill-opacity:1;fill-rule:evenodd" transform="scale(.58594)"/><path d="M408.278 180.709h.512l.512.032.512.064.512.096.48.128.48.128.48.16.48.192.448.192.416.224.448.256.416.256.384.288.384.288.384.32.352.352.352.351.32.384.288.384.288.384.256.416.256.448.224.416.192.448.192.48.16.48.16.48.096.48.096.512.064.512.032.512.032.512-.032.544-.032.512-.064.512-.096.48-.096.512-.16.48-.16.48-.192.448-.192.448-.224.448-.256.416-.256.416-.288.416-.288.384-.32.352-.352.352-.352.352-.384.32-.384.288-.384.288-.416.288-.448.224-.416.223-.448.224-.48.16-.48.16-.48.16-.48.096-.512.096-.512.064-.512.032-.512.032-.544-.032-.511-.032-.512-.064-.512-.096-.48-.096-.48-.16-.48-.16-.448-.16-.48-.224-.416-.223-.448-.224-.416-.288-.384-.288-.384-.288-.384-.32-.352-.352-.352-.352-.32-.352-.288-.384-.288-.416-.256-.416-.256-.416-.224-.448-.192-.448-.192-.448-.16-.48-.16-.48-.096-.512-.096-.48-.064-.512-.032-.512-.032-.544.032-.512.032-.512.064-.512.096-.512.096-.48.16-.48.16-.48.192-.48.192-.448.224-.416.256-.448.256-.416.288-.384.288-.384.32-.384.352-.351.352-.352.384-.32.384-.288.384-.288.416-.256.448-.256.416-.224.48-.192.448-.192.48-.16.48-.128.48-.128.512-.096.512-.064.511-.032z" style="fill:#000;fill-opacity:1;fill-rule:evenodd" transform="scale(.58594)"/><path d="m408.278 184.836.608.032.608.064.576.16.544.192.544.256.512.32.448.352.448.384.384.448.352.448.288.512.288.512.192.576.16.576.064.608.032.608-.032.64-.064.576-.16.576-.192.576-.288.512-.288.512-.352.48-.384.416-.448.384-.448.352-.512.32-.544.256-.544.192-.576.16-.608.096-.608.032-.639-.032-.608-.096-.576-.16-.544-.192-.544-.256-.512-.32-.448-.352-.448-.384-.384-.416-.352-.48-.288-.512-.256-.512-.224-.576-.16-.576-.064-.576-.032-.64.032-.608.064-.608.16-.576.224-.576.256-.512.288-.512.352-.448.384-.448.448-.384.448-.352.512-.32.544-.256.544-.192.576-.16.608-.064z" style="fill:#ffd83d;fill-opacity:1;fill-rule:evenodd" transform="scale(.58594)"/><path d="M389.464 183.749h.512l.512.064.512.064.512.096.48.095.479.128.48.16.48.192.448.224.448.224.416.224.416.288.384.288.416.288.352.32.352.352.352.352.32.352.288.384.288.416.256.416.256.416.224.448.224.448.16.448.16.48.16.48.096.512.096.48.064.512.032.512.032.544-.032.512-.032.512-.064.512-.096.512-.096.48-.16.48-.16.48-.16.48-.224.448-.224.416-.256.448-.256.416-.288.383-.288.384-.32.384-.352.352-.352.32-.352.32-.416.32-.384.288-.416.256-.416.256-.448.224-.448.192-.48.192-.48.16-.479.128-.48.128-.512.096-.512.064-.512.032h-1.056l-.512-.032-.512-.064-.48-.096-.512-.128-.48-.128-.48-.16-.448-.192-.448-.192-.448-.224-.448-.256-.384-.256-.416-.288-.384-.32-.384-.32-.352-.32-.32-.352-.32-.384-.32-.384-.288-.383-.256-.416-.256-.448-.224-.416-.192-.448-.192-.48-.16-.48-.128-.48-.128-.48-.096-.512-.064-.512-.032-.512v-1.056l.032-.512.064-.512.096-.48.128-.512.128-.48.16-.48.192-.448.192-.448.224-.448.256-.416.256-.416.288-.416.32-.384.32-.352.32-.352.352-.352.384-.32.384-.288.416-.288.384-.288.448-.224.448-.224.448-.224.448-.192.48-.16.48-.128.512-.095.48-.096.512-.064.512-.064z" style="fill:#000;fill-opacity:1;fill-rule:evenodd" transform="scale(.58594)"/><path d="m389.464 187.876.608.032.608.096.576.16.576.192.511.256.512.288.448.352.448.416.384.416.352.48.32.48.256.544.192.544.16.608.096.576.032.64-.032.608-.096.608-.16.576-.192.544-.256.544-.32.512-.352.448-.384.448-.448.384-.448.352-.512.288-.511.256-.576.224-.576.128-.608.096-.608.032-.64-.032-.576-.096-.608-.128-.544-.224-.544-.256-.48-.288-.48-.352-.416-.384-.416-.448-.352-.448-.288-.512-.256-.544-.224-.544-.128-.576-.096-.608-.032-.608.032-.64.096-.576.128-.608.224-.544.256-.544.288-.48.352-.48.416-.416.416-.416.48-.352.48-.288.544-.256.544-.192.608-.16.576-.096z" style="fill:#ffd83d;fill-opacity:1;fill-rule:evenodd" transform="scale(.58594)"/><path d="M372.409 186.308h.512l.512.064.512.064.512.064.48.128.512.128.448.16.479.192.448.192.448.224.416.256.416.256.416.288.384.32.352.32.352.32.352.352.32.384.288.384.288.416.288.416.224.416.224.448.224.448.192.448.16.48.128.48.128.48.064.512.064.512.064.512v1.056l-.064.512-.064.512-.064.512-.128.48-.128.48-.16.48-.192.447-.224.448-.224.448-.224.448-.288.384-.288.416-.288.384-.32.384-.352.352-.352.32-.352.32-.384.32-.416.288-.416.256-.416.256-.448.224-.448.192-.479.192-.448.16-.512.128-.48.128-.512.064-.512.064-.512.064h-1.024l-.544-.064-.512-.064-.48-.064-.512-.128-.48-.128-.48-.16-.448-.192-.448-.192-.448-.224-.416-.256-.416-.256-.416-.288-.384-.32-.352-.32-.384-.32-.32-.352-.32-.384-.32-.384-.288-.416-.256-.384-.256-.448-.224-.448-.192-.448-.192-.447-.16-.48-.128-.48-.128-.48-.064-.512-.096-.512-.032-.512v-1.056l.032-.512.096-.512.064-.512.128-.48.128-.48.16-.48.192-.448.192-.448.224-.448.256-.416.256-.416.288-.416.32-.384.32-.384.32-.352.384-.32.352-.32.384-.32.416-.288.416-.256.416-.256.448-.224.448-.192.448-.192.48-.16.48-.128.512-.128.48-.064.512-.064.544-.064z" style="fill:#000;fill-opacity:1;fill-rule:evenodd" transform="scale(.58594)"/><path d="m372.409 190.436.608.032.608.096.576.128.576.224.512.256.512.288.479.352.416.384.384.448.352.48.32.48.256.544.192.544.16.576.096.608.032.608-.032.64-.096.608-.16.576-.192.544-.256.544-.32.48-.352.479-.384.416-.416.416-.479.352-.512.288-.512.256-.576.224-.576.128-.608.096-.608.032-.608-.032-.608-.096-.576-.128-.576-.224-.544-.256-.48-.288-.48-.352-.416-.416-.416-.416-.352-.479-.288-.48-.256-.544-.192-.544-.16-.576-.096-.608-.032-.64.032-.608.096-.608.16-.576.192-.544.256-.544.288-.48.352-.48.416-.448.416-.384.48-.352.48-.288.544-.256.576-.224.576-.128.608-.096z" style="fill:#ffd83d;fill-opacity:1;fill-rule:evenodd" transform="scale(.58594)"/><path d="M356.602 189.86h.544l.512.064.512.064.512.096.48.096.48.128.479.16.448.192.48.224.416.224.448.224.416.288.384.288.384.288.384.32.352.352.32.352.32.352.32.384.288.416.256.416.256.416.224.448.192.448.192.448.16.48.128.48.128.512.096.48.064.512.032.512v1.055l-.032.512-.064.512-.096.512-.128.48-.128.48-.16.48-.192.48-.192.448-.224.416-.256.448-.256.416-.288.384-.32.384-.32.384-.32.352-.352.32-.384.32-.384.32-.384.288-.416.256-.448.256-.416.224-.48.192-.448.192-.479.16-.48.128-.48.128-.512.096-.512.064-.512.032h-1.056l-.512-.032-.512-.064-.512-.096-.48-.128-.48-.128-.48-.16-.48-.192-.448-.192-.448-.224-.416-.256-.416-.256-.384-.288-.384-.32-.384-.32-.352-.32-.352-.352-.32-.384-.288-.384-.288-.384-.256-.416-.256-.448-.224-.416-.224-.448-.16-.48-.16-.48-.16-.48-.096-.48-.096-.512-.064-.512-.032-.512-.032-.512.032-.543.032-.512.064-.512.096-.48.096-.512.16-.48.16-.48.16-.448.224-.448.224-.448.256-.416.256-.416.288-.416.288-.384.32-.352.352-.352.352-.352.384-.32.384-.288.384-.288.416-.288.416-.224.448-.224.448-.224.48-.192.48-.16.48-.128.48-.096.512-.096.512-.064.512-.064z" style="fill:#000;fill-opacity:1;fill-rule:evenodd" transform="scale(.58594)"/><path d="m356.602 193.988.64.032.608.096.576.16.544.192.544.256.479.32.48.32.448.416.384.416.352.48.288.48.256.544.224.544.128.608.096.576.032.639-.032.608-.096.608-.128.576-.224.544-.256.544-.288.512-.352.448-.384.448-.448.384-.48.352-.479.288-.544.256-.544.224-.576.128-.608.096-.64.032-.608-.032-.608-.096-.576-.128-.544-.224-.544-.256-.512-.288-.448-.352-.448-.384-.384-.448-.352-.448-.32-.512-.256-.544-.192-.544-.16-.576-.096-.608-.032-.608.032-.639.096-.576.16-.608.192-.544.256-.544.32-.48.352-.48.384-.416.448-.416.448-.32.512-.32.544-.256.544-.192.576-.16.608-.096z" style="fill:#ffd83d;fill-opacity:1;fill-rule:evenodd" transform="scale(.58594)"/><path d="m341.339 102.41-10.624 16.639 6.656 11.039-3.2 4.864-10.239-6.112-16.799 10.303 16.511 9.888 9.951-6.656 3.488 3.232-6.368 9.919 4.576 7.456 6.048-.608 5.823.704 4.8-7.552-6.4-9.919 3.488-3.232 9.952 6.656 16.511-9.888-16.799-10.303-10.24 6.112-3.2-4.864 6.688-11.039z" style="fill:#000;fill-opacity:1;fill-rule:evenodd" transform="scale(.58594)"/><path d="m315.196 138.759 8.512-5.279 6.559 3.071v3.392l-6.879 3.872zm52.285 0-8.511-5.279-6.56 3.071v3.392l6.848 3.872zm-26.142-29.022-.064.064-.032-.064v.128l-5.632 8.064 4.096 8.063 1.536.16h.096l1.504-.16 4.127-8.063-5.631-8.064zm-1.024 22.623-4.448 5.759.032 1.664 4.16 4.064 1.28-.096 1.248.096 4.191-4.064v-1.664l-4.351-5.759zm-.64 15.551-4.896 7.007 3.168 6.304 3.392-.32 3.359.32 3.104-6.304-4.831-7.007zm1.664 17.503-.768.032-.736.032-.736.096-.704.128-.704.16-.704.192-.672.256-.64.256-.672.288-.608.32-.608.352-.608.384-.576.415-.544.416-.544.448-.48.48-.512.512-.448.544-.416.544-.416.576-.384.576-.352.608-.32.64-.287.64-.256.672-.256.672-.192.704-.16.704-.128.704-.096.736-.064.736v1.472l.064.768.096.704.128.736.16.704.192.671.256.672.256.672.287.64.32.64.352.608.384.576.416.576.416.544.448.544.512.512.48.48.544.448.544.448.576.384.608.384.608.352.608.32.672.288.64.288.672.224.704.192.704.16.704.128.736.096.736.064h1.504l.736-.064.736-.096.703-.128.704-.16.704-.192.672-.224.672-.288.64-.288.64-.32.608-.352.576-.384.576-.384.544-.448.544-.448.512-.48.48-.512.448-.544.448-.544.384-.576.384-.576.352-.608.32-.64.32-.64.256-.672.224-.672.192-.671.16-.704.128-.736.096-.704.064-.768.032-.736-.032-.736-.064-.736-.096-.736-.128-.704-.16-.704-.192-.704-.224-.672-.256-.672-.32-.64-.32-.64-.352-.608-.384-.576-.384-.576-.448-.544-.448-.544-.48-.512-.512-.48-.544-.448-.544-.416-.576-.415-.576-.384-.608-.352-.64-.32-.64-.288-.672-.256-.672-.256-.704-.192-.704-.16-.703-.128-.736-.096-.736-.032z" style="fill:#ffd83d;fill-opacity:1;fill-rule:evenodd" transform="scale(.58594)"/><path d="M326.588 181.349h29.182v3.871h-29.182zm-.352-9.184h7.711v-8.319h3.872v12.191h-11.583zm22.494 0h7.68v3.872h-11.584v-12.191h3.904z" style="fill:#000;fill-opacity:1;fill-rule:evenodd" transform="scale(.58594)"/><path d="m200.003 94.278-.581.02-.563.037-.562.075-.544.093-.543.132-.544.15-.506.168-.507.207-.506.225-.487.243-.469.263-.45.3-.431.319-.431.318-.413.357-.375.375-.375.393-.356.394-.338.431-.3.431-.3.45-.262.47-.244.487-.225.487-.206.506-.187.525-.15.525-.113.544-.112.544-.057.562-.056.563v1.162l.056.562.057.563.112.544.113.543.15.525.187.525.206.507.225.487.244.487.262.47.3.45.3.43.338.432.356.412.375.375.375.375.413.356.43.338.432.3.45.3.469.262.487.244.506.225.507.206.506.169.544.169.543.112.544.094.562.075.563.056h1.144l.58-.056.545-.075.562-.094.544-.112.525-.17.525-.168.506-.206.487-.225.488-.244.469-.262.45-.3.45-.3.412-.338.412-.356.394-.375.356-.375.357-.412.337-.432.319-.43.281-.45.281-.47.244-.487.225-.487.187-.507.188-.525.15-.525.131-.543.094-.544.075-.563.037-.562.02-.581-.02-.581-.037-.563-.075-.562-.094-.544-.131-.544-.15-.525-.188-.525-.187-.506-.225-.487-.244-.488-.281-.469-.281-.45-.319-.43-.337-.432-.357-.394-.356-.393-.394-.375-.412-.357-.413-.318-.45-.32-.45-.3-.468-.262-.488-.243-.487-.225-.506-.207-.525-.168-.525-.15-.544-.132-.562-.093-.544-.075-.581-.038zm0 2.644-.45.019-.431.019-.431.056-.413.075-.412.094-.413.112-.393.15-.375.15-.394.169-.356.187-.357.206-.356.225-.337.244-.319.244-.319.262-.281.282-.3.3-.262.318-.244.32-.244.337-.225.337-.206.356-.188.375-.168.375-.15.394-.15.394-.113.412-.094.413-.075.412-.056.431-.037.432v.862l.037.45.056.412.075.432.094.412.113.394.15.394.15.393.168.375.188.375.206.357.225.337.244.337.244.32.262.318.3.3.281.281.319.263.319.262.337.225.356.225.357.206.356.188.394.169.375.168.393.132.413.112.412.094.413.075.43.056.432.038h.881l.432-.038.43-.056.413-.075.413-.094.412-.112.394-.132.394-.168.375-.17.375-.187.356-.206.337-.225.338-.225.319-.262.318-.263.3-.281.281-.3.263-.319.262-.319.225-.337.225-.337.207-.357.187-.375.188-.375.15-.393.13-.394.113-.394.094-.412.075-.432.056-.412.038-.45.019-.431-.02-.431-.037-.432-.056-.43-.075-.413-.094-.413-.112-.412-.131-.394-.15-.394-.188-.375-.187-.375-.207-.356-.225-.337-.225-.338-.262-.319-.263-.318-.28-.3-.3-.282-.32-.262-.318-.244-.338-.244-.337-.225-.356-.206-.375-.187-.375-.169-.394-.15-.394-.15-.412-.112-.413-.094-.412-.075-.431-.056-.432-.02z" style="fill:#000;fill-opacity:1;fill-rule:evenodd"/><path id="d" d="M211.651 231.618h4v30.654h-4z" style="fill:#000;fill-opacity:1;fill-rule:evenodd" transform="scale(.58594)"/><path id="e" d="M219.682 221.154h4v54.973h-4z" style="fill:#000;fill-opacity:1;fill-rule:evenodd" transform="scale(.58594)"/><path id="f" d="M227.682 216.418h4v67.1h-4z" style="fill:#000;fill-opacity:1;fill-rule:evenodd" transform="scale(.58594)"/><path id="g" d="M243.713 212.323h4v63.324h-4z" style="fill:#000;fill-opacity:1;fill-rule:evenodd" transform="scale(.58594)"/><path id="h" d="M251.712 211.395h4.032v59.356h-4.032z" style="fill:#000;fill-opacity:1;fill-rule:evenodd" transform="scale(.58594)"/><path id="i" d="M259.744 211.235h3.999v57.628h-3.999z" style="fill:#000;fill-opacity:1;fill-rule:evenodd" transform="scale(.58594)"/><path id="j" d="M267.743 211.395h4.032v60.316h-4.032z" style="fill:#000;fill-opacity:1;fill-rule:evenodd" transform="scale(.58594)"/><path id="k" d="M275.775 212.323h4v63.164h-4z" style="fill:#000;fill-opacity:1;fill-rule:evenodd" transform="scale(.58594)"/><path id="l" d="M283.774 213.603h4.032v66.14h-4.032z" style="fill:#000;fill-opacity:1;fill-rule:evenodd" transform="scale(.58594)"/><path id="m" d="M291.806 215.971h4v67.387h-4z" style="fill:#000;fill-opacity:1;fill-rule:evenodd" transform="scale(.58594)"/><path id="n" d="M299.805 218.018h4.032v66.14h-4.032z" style="fill:#000;fill-opacity:1;fill-rule:evenodd" transform="scale(.58594)"/><path id="o" d="M307.837 223.362h4v54.973h-4z" style="fill:#000;fill-opacity:1;fill-rule:evenodd" transform="scale(.58594)"/><path id="p" d="M315.836 233.761h4v27.551h-4z" style="fill:#000;fill-opacity:1;fill-rule:evenodd" transform="scale(.58594)"/><use xlink:href="#d" transform="translate(149.616)"/><use xlink:href="#e" transform="translate(140.213)"/><use xlink:href="#f" transform="translate(130.83)"/><use xlink:href="#g" transform="translate(112.043)"/><use xlink:href="#h" transform="translate(102.66)"/><use xlink:href="#i" transform="translate(93.257)"/><use xlink:href="#j" transform="translate(83.873)"/><use xlink:href="#k" transform="translate(74.47)"/><use xlink:href="#l" transform="translate(65.087)"/><use xlink:href="#m" transform="translate(55.684)"/><use xlink:href="#n" transform="translate(46.3)"/><use xlink:href="#o" transform="translate(36.898)"/><use xlink:href="#p" transform="translate(27.523)"/><path id="a" d="M235.713 213.763h4v67.227h-4z" style="fill:#000;fill-opacity:1;fill-rule:evenodd" transform="scale(.58594)"/></svg>