<svg xmlns="http://www.w3.org/2000/svg" xml:space="preserve" id="Слой_1" x="0" y="0" viewBox="0 0 8267.7 4133.8"><style>.st0{fill:#dc161d}.st0,.st1,.st2{fill-rule:evenodd;clip-rule:evenodd}.st1{fill:#fff}.st2{fill:#197b30}.st3{fill:none}.st4{fill-rule:evenodd;clip-rule:evenodd;fill:#f7bf00}</style><g id="Слой_x0020_1"><g id="_1759493418608"><path d="M499.3 71.3h7269.1v1038.4H499.3z" class="st0"/><path d="M0 1181.1h8267.7v1771.6H0z" class="st1"/><path d="M0 0h8267.7v1181.1H0z" class="st0"/><path d="M0 2952.7h8267.7v1181.1H0z" class="st2"/><path d="M4667 2670.5q-533.4-128.25-1065.3 0l-86.5-116.1c129 6.6 218-26.1 267-97.9" class="st3"/><path d="m3465.4 2357.2-31.8-96.5 81.6-61.5h-101.7l-30.1-87-30.7 87h-104l81.6 61.5-29.5 94.3 82.6-57.3zm328.6-651.6-31.9-96.5 81.6-61.4H3742l-30-87-30.8 87h-104l81.6 61.4-29.5 94.3 82.7-57.3z" class="st4"/><path d="M4133 1794.9v973.2" class="st3"/><path d="M4729.9 2688.2c-35.3 51.6-52.9 77.4-52.9 77.4q-543.9-139.5-1087.8 0l-43.6-79.9c396.6-107.3 786.4-105.1 1184.3 2.5m-1385.2-851.4 100.9-.3 32-96.1 31.4 96.4h101.5l-82 59.4 31.3 96.6-82.2-59.7-82.1 59.7 31.4-96.3zm232.5-287.2 101.1-.4 32.2-96.1 31.4 96.4h101.8l-82.2 59.5 31.4 96.6-82.4-59.7-82.3 59.7 31.4-96.3zM3248 2199.2l101.1-.3 32.1-96.1 31.5 96.4h101.8l-82.2 59.5 31.4 96.6-82.5-59.7-82.3 59.7 31.5-96.4z" class="st4"/><path d="m3589.2 2765.5-207.3-309m722.1-475.9h59.2v319.5H4104zm205.7 20.8c-34.1-93.4-146.5-62.5-146.5 16" class="st3"/><path d="m3381.2 2456.5 207 309.3c352.6-93 717.4-93.1 1089.3-.2l206.2-309.1c-178.8 83.5-312.3 53.6-344.9-119.2-111.4 139.2-314.4 116.7-375.5-71.4v-248.7c10.2-73.4 117.1-73.4 145.3-18.4 21.3-268.8-361-271.3-351.3.1 30.4-55.1 136.2-55.1 146.3 18.3l1.2 248.7c-53.1 190.7-290.9 214.2-378.6 69.3-18.9 179.2-200.2 207.5-345 121.3" class="st4"/><path d="M3603.6 2670.5c335.4-79.5 702.6-83.5 1049.7 0l89.8-112.6c-76 34.1-185.9-18.1-241.4-95.1-93 60.5-305.7 28.2-368-84.4-58.8 115-240.2 146.1-375.9 86.3-46 59.8-143.9 107.3-231.7 93z" class="st1"/><path d="M4133.1 2453.5c15.8 11.2 45.6 48.8 17.6 84 23.7-30.9 42.1-33.1 84.8-24.3-13 42.2-41.7 65.6-102 68.5-58.3-3-93.4-29.8-98-66.2 20.8-9.2 58.1-11 81.5 22.3-30.8-31.8.7-72.7 16.1-84.3m361.6 38.5c12.9 14.2 33.5 57-1.9 85.7 30.1-25.4 48.6-23.7 88.2-6.4-22.3 38.6-55.6 55.6-115.1 46.1-56.1-14.9-84.4-48.2-80.6-84.7 22.4-4.7 59.2 1.1 74.4 38.5-22.6-37.6 17.5-71.1 35-79.2m-728.5 1.5c-12.9 14.1-33.5 57 1.9 85.7-30.1-25.4-48.6-23.7-88.2-6.4 22.3 38.6 55.6 55.6 115.1 46.1 56.1-14.9 84.3-48.2 80.6-84.7-22.3-4.7-59.2 1.1-74.4 38.5 22.6-37.5-17.5-71.1-35-79.2m1036-136.3 31.9-96.5-81.6-61.5h101.7l30-87 30.7 87h104l-81.5 61.5 29.5 94.3-82.7-57.3zm-328.5-651.6 31.8-96.5-81.5-61.4h101.7l30-87 30.7 87h104l-81.6 61.4 29.6 94.3-82.7-57.3zm449.9 131.2-101.1-.3-32.1-96.1-31.5 96.4h-101.7l82.1 59.4-31.4 96.6 82.5-59.7 82.3 59.7-31.4-96.3z" class="st4"/><path d="m4690.4 1549.6-101.1-.4-32.1-96.1-31.5 96.4H4424l82.1 59.5-31.4 96.6 82.5-59.7 82.3 59.7-31.4-96.3zm329.2 649.6-101.1-.3-32.1-96.1-31.4 96.4h-101.8l82.2 59.5-31.4 96.6 82.4-59.7 82.3 59.7-31.4-96.4z" class="st4"/><ellipse cx="4133.4" cy="1955.3" class="st3" rx="118.4" ry="118"/><path d="M4247.2 1921.3c-39.5-7.6-100.9 6.7-114.2 49-20.6-42.1-82.3-56.7-113.5-48.6 38.7-110.3 185.7-115.3 227.7-.4" class="st1"/><path d="m4000.1 1447.2 101.1-.3 32.2-96.1 31.4 96.4h101.8l-82.2 59.4 31.4 96.6-82.4-59.7-82.4 59.7 31.5-96.3z" class="st4"/></g><path d="M3249.2 1351.2h1771.6v1417.3H3249.2zm884.6 445.3h1201M4961 1351.2h490" style="fill:none;stroke:#373435;stroke-width:.9;stroke-miterlimit:10"/><g id="_1759493470864"><path d="M499.3 71.3h7269.1v1038.4H499.3z" class="st0"/><path d="M0 1181.1h8267.7v1771.6H0z" class="st1"/><path d="M0 0h8267.7v1181.1H0z" class="st0"/><path d="M0 2952.7h8267.7v1181.1H0z" class="st2"/><path d="M4667 2670.5q-533.4-128.25-1065.3 0l-86.5-116.1c129 6.6 218-26.1 267-97.9" class="st3"/><path d="m3465.4 2357.2-31.8-96.5 81.6-61.5h-101.7l-30.1-87-30.7 87h-104l81.6 61.5-29.5 94.3 82.6-57.3zm328.6-651.6-31.9-96.5 81.6-61.4H3742l-30-87-30.8 87h-104l81.6 61.4-29.5 94.3 82.7-57.3z" class="st4"/><path d="M4133 1794.9v973.2" class="st3"/><path d="M4729.9 2688.2c-35.3 51.6-52.9 77.4-52.9 77.4q-543.9-139.5-1087.8 0l-43.6-79.9c396.6-107.3 786.4-105.1 1184.3 2.5m-1385.2-851.4 100.9-.3 32-96.1 31.4 96.4h101.5l-82 59.4 31.3 96.6-82.2-59.7-82.1 59.7 31.4-96.3zm232.5-287.2 101.1-.4 32.2-96.1 31.4 96.4h101.8l-82.2 59.5 31.4 96.6-82.4-59.7-82.3 59.7 31.4-96.3zM3248 2199.2l101.1-.3 32.1-96.1 31.5 96.4h101.8l-82.2 59.5 31.4 96.6-82.5-59.7-82.3 59.7 31.5-96.4z" class="st4"/><path d="m3589.2 2765.5-207.3-309m722.1-475.9h59.2v319.5H4104zm205.7 20.8c-34.1-93.4-146.5-62.5-146.5 16" class="st3"/><path d="m3381.2 2456.5 207 309.3c352.6-93 717.4-93.1 1089.3-.2l206.2-309.1c-146.5 85.6-332.7 51.3-360.7-82-141.6 87.1-279.9 75.3-359.8-108.7v-248.7c10.2-73.4 117.1-73.4 145.3-18.4 21.3-268.8-361-271.3-351.3.1 30.4-55.1 136.2-55.1 146.3 18.3l1.2 248.7c-53.1 190.7-254.2 187.1-359.6 105.7-39.2 164.8-241 160.7-363.9 85" class="st4"/><path d="M3603.6 2670.5c335.4-79.5 702.6-83.5 1049.7 0l93.4-105.3c-46.9 17.1-198.1 6.2-244.2-138.9-108 138.3-345.8 82.6-367.3-111.8-15.9 166.7-226.4 264.1-367.1 115.2-52.8 124.9-155.7 153.6-241.4 137.2z" class="st1"/><path d="M4133.1 2453.5c15.8 11.2 45.6 48.8 17.6 84 23.7-30.9 42.1-33.1 84.8-24.3-13 42.2-41.7 65.6-102 68.5-58.3-3-93.4-29.8-98-66.2 20.8-9.2 58.1-11 81.5 22.3-30.8-31.8.7-72.7 16.1-84.3m351 38.5c12.9 14.2 33.5 57-1.9 85.7 30.1-25.4 48.6-23.7 88.2-6.4-22.3 38.6-55.6 55.6-115.1 46.1-56.1-14.9-84.4-48.2-80.6-84.7 22.4-4.7 59.2 1.1 74.4 38.5-22.6-37.6 17.4-71.1 35-79.2m-697.9 1.5c-12.9 14.1-33.5 57 1.9 85.7-30.1-25.4-48.6-23.7-88.2-6.4 22.3 38.6 55.6 55.6 115.1 46.1 56.2-14.9 84.4-48.2 80.6-84.7-22.3-4.7-59.2 1.1-74.4 38.5 22.7-37.5-17.4-71.1-35-79.2m1016-136.3 31.9-96.5-81.6-61.5h101.7l30-87 30.7 87h104l-81.5 61.5 29.5 94.3-82.7-57.3zm-328.5-651.6 31.8-96.5-81.5-61.4h101.7l30-87 30.7 87h104l-81.6 61.4 29.6 94.3-82.7-57.3zm449.9 131.2-101.1-.3-32.1-96.1-31.5 96.4h-101.7l82.1 59.4-31.4 96.6 82.5-59.7 82.3 59.7-31.4-96.3z" class="st4"/><path d="m4690.4 1549.6-101.1-.4-32.1-96.1-31.5 96.4H4424l82.1 59.5-31.4 96.6 82.5-59.7 82.3 59.7-31.4-96.3zm329.2 649.6-101.1-.3-32.1-96.1-31.4 96.4h-101.8l82.2 59.5-31.4 96.6 82.4-59.7 82.3 59.7-31.4-96.4z" class="st4"/><ellipse cx="4133.4" cy="1955.3" class="st3" rx="118.4" ry="118"/><path d="M4247.2 1921.3c-39.5-7.6-100.9 6.7-114.2 49-20.6-42.1-82.3-56.7-113.5-48.6 38.7-110.3 185.7-115.3 227.7-.4" class="st1"/><path d="m4000.1 1447.2 101.1-.3 32.2-96.1 31.4 96.4h101.8l-82.2 59.4 31.4 96.6-82.4-59.7-82.4 59.7 31.5-96.3z" class="st4"/></g></g></svg>