<svg xmlns="http://www.w3.org/2000/svg" width="1365.333" height="1365.333" viewBox="0 0 1024 1024"><path d="M969.5 123.3c-6.6 14.9-17.8 36.4-20.1 38.8s-2.5 3.1-1.4 4.4c1 1.2.6 2.2-2.6 5.7a22 22 0 0 1-5.8 5q-6.6 2.2-1.8-2.5 3.1-3.2 3.8-7.7l.7-4.5-10.2 9.5c-10.7 9.9-13.4 12-16.4 12-.9 0-9.9 6.9-19.9 15.2l-20.7 17.5c-2.5 2-2.5 2.2-.9 4 3.2 3.5 1.3 5.9-7.4 9.3l-8.4 3c-.3 0 .3-1.4 1.1-3 1.5-2.8 1.4-3.1-.2-3.7l-2.5-1c-.4-.2-2 1.6-3.6 3.9a30 30 0 0 1-9.1 7.8c-6.9 4-8 5.7-5.1 7.7 2 1.4 2 1.5-1.1 5.4a24 24 0 0 0-3.8 6.5l-.7 2.6-2.3-2-2.4-1.9-2.8 3.1q-2.7 3.1-3.4 8.1c-1.1 6.8-6.5 11.3-8 6.5q-.6-1.8-1.3-2a97 97 0 0 0-14 18.9c-.3 1.7-.9 1.9-5.6 1.4l-5.2-.5-4.8 5.6a84 84 0 0 1-11.5 10.5 246 246 0 0 0-32.5 32.6c-.5 1.6-2.9 2.7-10.3 5a32 32 0 0 0-16.8 9 222 222 0 0 1-17.2 13.4c-9.9 7-12 9.5-8.8 10.7 1.6.6 2 5.1.7 7-.4.6-2 1.5-3.7 2.1-2.6.8-3 1.5-3.3 5.2-.3 3.3-.7 4.1-1.8 3.7l-2-.6c-.2 0-.4-1.5-.4-3.4 0-2.8-.5-3.6-3-4.6-2.7-1.1-3.7-.9-9.3 1.5-8.2 3.6-10.7 5.2-10.7 7q0 1.5 3.5 1.5c4.2 0 4.4.8 1 4-1.4 1.3-2.5 2.9-2.5 3.5s-.9 2-2 3c-2.4 2.1-2.6 5.8-.5 7.5 1.9 1.6 1 3-2.1 3-2 0-2.4.5-2.4 3s-.6 3.2-3.6 4.5c-3.3 1.3-3.6 1.8-3.1 4.4.5 2.2-.1 3.8-2.3 6.7a15 15 0 0 0-3 6.6c0 2.6-.3 2.8-4 2.8-4.6 0-4.9.9-1.5 5.3l2.4 3.3-3.7 6.2c-2 3.4-4.2 6.2-4.9 6.2s-1.3.7-1.3 1.5q0 1.5-3.1 1.5a11 11 0 0 0-4.8 1q-3.6 1.7-13.3-6.4c-5.5-4.6-6.4-7.9-5.6-19.6.3-2.9 0-3.5-1.7-3.5-2.3 0-8.5 9.6-8.5 13.2 0 1.8-.6 2.3-2.6 2.3-4 0-6.4 1.8-6.4 4.7 0 2.5.2 2.5 4.9 2.1 4.9-.5 5.1-.4 9.8 4.4 2.9 3 7.9 6.6 12.6 8.9 6 3.1 7.7 4.4 7.7 6.1 0 1.2.7 2.9 1.6 3.9 2.1 2.4 0 5.9-3.6 5.9q-2.7-.1-5.5 3.9l-3 3.9-10.1.4c-9 .3-10.6.6-14.2 3.1-4.6 3-11.2 3.6-17.3 1.6-4.8-1.6-13.9-10.7-13.9-13.8 0-1.3-.7-3.2-1.6-4.2-1.5-1.7-1.8-1.7-6 .4-5.1 2.5-6 5.4-1.6 5.9 2.1.2 2.8.9 3 3q.4 2.6 1.7 2.8c.7 0 2 1.1 2.9 2.5 2.2 3.4.4 6.5-4 6.5-1.8 0-4.6 1.2-7 3-2.1 1.6-5 3-6.3 3s-4.5 1.2-7 2.7c-3.3 2-6.6 3-11.6 3.4-7.6.8-15.4 2.8-17.6 4.5-1 .8-3.7.9-9.3.2q-8-1-8.9.1c-.6.6-4.4 1.1-8.4 1.1-6.5 0-7.7-.3-9.6-2.4l-2.2-2.3-20 1.3-19.9 1.3-4.3-2.5a16 16 0 0 1-5.4-4.7l-1.4-2.5c-.1-.1-3.9.7-8.4 1.8l-8.1 2.1-4.1-2.3c-3.2-1.8-4.2-2-4.8-.9-.7 1.1-2.5 1.1-9.7.2-14.9-1.8-18.3-3.3-22.3-9.4-5.7-9-14.2-12.7-14.9-6.5-.3 2.3-1.3 3-7.3 5.3-7.7 3-9.9 2.8-9.9-.8 0-3.3-2.2-4.9-8.1-5.8-3.9-.6-5.8-.4-8.4.8-3 1.4-3.9 1.5-7.7.3-2.4-.8-5.4-1.3-6.8-1.2-1.9.2-3-.5-4.4-2.8-1-1.7-2.3-2.9-2.9-2.6q-7.4 3.1-12.9 2.2c-3.7-.6-4.6-1.1-5.5-3.6-1.5-4.1-6-4.1-10.5-.1-3.5 3-5.8 3.1-5.8.1 0-1.1-1.9-3.2-4.7-5.1a74 74 0 0 1-8.4-6.6c-3.1-3-4.2-3.4-6.7-2.8-2.6.5-3.3 1.4-5.4 7.3l-2.3 6.7-8.1 2.9c-7.6 2.7-8.3 3.2-10.3 7.3-1.9 4-2.4 4.3-5.9 4.3-3.2 0-5.4 1.1-12.7 6.6-4.8 3.7-9 7.5-9.2 8.5q-.5 2-3.4 1.9a28 28 0 0 0-9 3.1c-5.8 2.9-6.6 3-14.3 2.4a158 158 0 0 0-26.8-.1c-3.3.5-3.8.3-5.7-2.9-2-3.5-2.1-3.5-9.1-3.5-4.5 0-8.2-.6-10.2-1.6a9 9 0 0 0-6-1c-4.3.9-9.4-1.4-18.8-8.3l-8.5-6.2-1.7-14.2-1.7-14.2 2.1-2.2c1.9-2 2-2.6.9-5-1.1-2.3-1-2.9.3-3.9 1.2-.8 1.6-2.9 1.6-8.4 0-7.1-.1-7.3-4-11.2-2.1-2.2-4.4-3.7-4.9-3.4s-1.3 4.2-1.7 8.6c-.6 6.9-.9 8-2.5 8q-2 .1-1.9-2.5c0-1.4-1.2-5.4-2.6-9.1q-4.9-11.7-4.9 1.6c0 3.2-.2 6-.5 6.3s-2.2.8-4.4 1.1l-3.8.7.8-6.8c1.3-10.3.6-24.1-1.5-28.1l-1.8-3.4-1.3 3.1c-1 2.4-1 3.4-.1 4.5s.9 2.1-.3 4.5c-.9 1.6-1.6 4.8-1.6 7 0 3.8-.3 4.2-4.8 6.5l-4.8 2.4-4.3 13.9-4.3 13.8 88.2 154c48.6 84.7 88.5 154.3 88.9 154.7.3.4 109.6 28.2 242.8 61.9l242.2 61.1 27.5-17.3c23.5-14.7 27.7-17.7 28.5-20.3.6-1.7 1.3-11.4 1.6-21.6l.6-18.5 7.5-30.5 7.5-30.5 13.3-14c12.9-13.7 13.5-14.4 25.4-35.5l12.2-21.6 7-2.3c9-2.9 9.4-3.7 8.4-19.3l-.6-11.7 3.7-4.5 3.7-4.5.9-14.1a63 63 0 0 1 4.9-24c0-.4-3.6-3.4-8-6.6-8.5-6.1-8.9-6.8-7.4-14.1.6-3 1.1-3.2 29.1-12.8l28.6-9.8 11.4 5.7 11.4 5.6 6.2-1.6c4.3-1.1 8.1-1.4 12.3-1l6.2.6 5.2-6.5 5.1-6.5-3.6-5.9c-2.3-3.7-4.8-6.4-6.6-7.1-3.5-1.5-4.5-4.4-2.6-7.4.8-1.2 1.7-3.3 1.9-4.7.3-2.7.6-2.7-17.7-.8-8.4.8-9.2.7-12-1.3a67 67 0 0 1-11.5-8.9c0-.3 4.3-5.4 9.6-11.3l9.6-10.7 1-8c.9-7.7.9-8-2-13.2-2.8-4.9-3-6-3.6-20.1l-.6-14.8 6.2-14.4 6.1-14.4-5.6-21.7-5.7-21.8 6.7-6.1 6.8-6.2 17.4-4.6c9.5-2.6 17.6-4.5 17.9-4.2.4.5 9.2 20.7 9.2 21.3 0 .3-7.3 2.3-8.5 2.3-.6 0-1.9-1.3-2.8-3-1.6-2.6-2-2.8-4.2-1.8l-2.5 1.1 8.2 16 8.2 16-5.6 5.1-5.6 5.1 1.7 6c1.7 5.8 1.9 6 5.7 6.7 8.5 1.5 10.6 1 14.9-3.2l4-3.9 4.6 2.9 4.6 2.8 5.6-4.6c5.1-4.2 5.8-5.3 6.7-10.2l1.6-7.1c.3-.9 4.4-4.3 9.2-7.4 7.8-5.2 9.2-6.5 12.4-12.4 3.4-6.4 3.5-6.8 2.6-12.2s-.8-5.9 1.9-9.8c2.7-4.1 2.9-4.2 7.6-3.8 2.6.2 4.7.1 4.7-.3s-1.1-3.2-2.4-6.1l-2.3-5.4 3.4-15c2.9-12.7 3.5-17.2 3.7-29.1l.2-14.2 4.6-7.3c5.1-8.1 5.2-11.1.4-11.7-1.4-.2-2.6-.6-2.6-1 0-1.4 3.9-6.6 6.5-8.6l2.7-2.2-2.1-4.2-2.2-4.3 2.1-10.7c2-10.5 2.5-19.7 1.4-23.8-.7-2.7-9.5-5.6-14.5-4.8-3.2.5-3.8.2-6.2-3l-2.8-3.5-4.7 1.8c-4 1.6-4.7 2.3-5 5q-.3 3-4 6.1c-2 1.6-4 3-4.4 3a20 20 0 0 1-4.7-2.4l-3.9-2.5-.7-8.5-.7-8.5 5.6-10.8c6.7-13.1 8.2-20.3 9.2-44.6l.7-16.8-7.7-7.9-7.7-7.9z"/><path d="M223.8 449.4c-2.3 3.2-2.3 6.3.3 13.9 2.4 7.3 3.5 8.7 4.4 5.8q.6-2.2 3.5-2.1 2.8 0 5.4-3.1c3-3.6 2.9-4.9-1.3-11.9-2.4-4-3.2-4.5-6.7-4.8-3.2-.2-4.2.3-5.6 2.2M473 487.5c-1.3 1.4-3.3 2.5-4.4 2.5-1.2.1-3.2.7-4.6 1.5s-5.2 1.4-8.7 1.5c-5.2 0-7.6.7-15 4.3-11.4 5.5-11.3 5.5-10.6 7.2.4 1.1 2.3 1.5 7.9 1.5 7 0 7.3.1 9.1 3 2 3.4 2.5 3.6 11 4.5q11.4 1.3 11.1-5.7 0-3 1.7-4.4c2.5-1.9 3.9-1.8 5.9.5 1.5 1.6 1.5 1.9.1 3.1-2.4 2-1.8 4 1.3 4 1.6 0 3.7.7 4.8 1.5 2.6 2 3.4 1.9 3.4-.5 0-1.9.1-1.9 3.3-.4s3.5 1.5 7-.6 3.8-2.6 3.5-6.3c-.3-4-.3-4.1-5.7-5.3-10.7-2.4-19.7-8.4-12.6-8.4q4.7.2.2-3.8-4.5-4.4-8.7.3"/></svg>