<svg xmlns="http://www.w3.org/2000/svg" width="1365.333" height="1365.333" viewBox="0 0 1024 1024"><path d="m735 128.3-7.5 3.3-4.2 7.9A41 41 0 0 0 719 150q0 2.5-5.1 6.4c-3.5 2.8-5.3 5.1-6.1 7.9-.9 3-2.3 4.6-6.5 7.3-6.2 3.9-6.6 5.9-3.3 14.6 1.1 3 2 7.7 2 10.9 0 5.3-.1 5.6-3.4 7.2q-3.5 1.5-4.1 4.6c-.4 1.7-1 3.1-1.4 3.1s-3.3-1.8-6.4-3.9l-5.6-4-9.3.9c-5.1.5-12.1 1-15.5 1h-6.2l-5.6 8-5.7 8 1.6 6.8 1.5 6.7-3.4 3.4-3.3 3.4-8.8-5.6a58 58 0 0 0-9.8-5.7l-11.4 1.9c-8.3 1.4-10.9 2.3-14 4.8a55 55 0 0 1-19 9.3c-5.2 1.8-12 5-15.3 7.2-3.3 2.1-6.3 3.8-6.7 3.8s-4.7-2.4-9.5-5.3c-6.6-4-9.4-6.3-11-9.3-1.8-3.1-3.9-4.8-10.5-8.2l-8.2-4.3-10.8 2-10.7 2-6.1-6.3-6.1-6.3-10.9-1.3a72 72 0 0 0-26.5.9c-14.7 2.1-15.9 2.2-21 .7a16 16 0 0 1-9.2-6.1c-3.6-4.3-4-4.5-9.1-4.5-3.8 0-7.6-.9-12.6-3.1-4-1.7-7.3-2.9-7.5-2.7l-5.8 11.4a52 52 0 0 1-7.2 11.8c-.9.3-8.6.6-17.1.6H333l-10.9 6.2-10.8 6.2-.6 7.1c-.5 6-1.4 8.6-5.7 16.6-4.7 9-5 9.8-5 17.3s-.2 8.3-4.7 16.3a36 36 0 0 1-13.5 14.9l-8.7 6.6-5.4-.7-5.5-.7-3.3 6.2-3.4 6.2-4-.9c-2.2-.4-7.9-.8-12.7-.7-7.3.1-9.8.6-16 3.2-4 1.7-12.9 4.3-19.8 5.8s-12.7 2.8-12.9 3 .9 3.4 2.4 7l2.8 6.7-3 2.6c-2.5 2.2-3.2 3.7-4.1 9.5-.6 3.7-1.2 7-1.4 7.1l-19.7 10c-18.8 9.4-19.6 9.7-22.1 8.2-2.4-1.5-2.8-1.4-8 1.9-3 1.8-5.8 3.4-6.1 3.4-.4 0-.3-1.8.1-4.1.8-4 .7-4.1-8.1-14.4l-8.9-10.4-6.6 2.2c-6.4 2.2-6.9 2.2-18.3.9l-11.7-1.5-5.8-8.8c-5-7.8-6-8.9-8.6-8.9-6.5 0-7.4 1-10.4 12.1-1.6 5.7-3.9 13-5.2 16.1s-2.4 7.5-2.4 9.7-1.1 7-2.4 10.7a30 30 0 0 0-1.9 15.9l.6 9.4-5.3 7c-4.8 6.2-6 7.2-12.2 9.6-3.7 1.5-6.8 3-6.8 3.3 0 1.9 4.3 7.3 8.3 10.6 3.9 3.2 4.4 4 3.8 6.4-.7 2.6-.9 2.7-10 3.2l-9.4.5-4.3 5C.5 479 .4 479.8 2 494c.8 6.9.7 9.5-.6 14.2-1.6 5.5-1.6 5.9.6 11.1l2.3 5.5 9.1 2.6Q25.9 531 26 535c0 .5-2.6 2.9-5.9 5.5a22 22 0 0 0-7.5 8.8c-.9 2.4-3.9 6.5-6.6 9.2-4.4 4.3-5 5.4-5 9 0 2.2 3.9 20 8.6 39.5 9.1 38.2 9 37.1 5.8 51.7l-1.7 7.1 3 5.5 3 5.6-2.8 2.7c-2.8 2.7-2.9 3-2.9 13.4v10.7l26.7 8.2c29.5 9.1 35.5 12.1 36.8 18.3.4 1.7 2 5.2 3.6 7.8l2.8 4.6-1.5 10.9c-1.4 10.1-1.8 11.1-5.2 15L54 794.4l-19.5 21.8-2 7.9c-1.9 7.4-2.4 8.2-8.9 14.9a32 32 0 0 0-6.5 7.4c.2.2 24.6 10.1 54.1 22.1l53.7 21.7 28.8-1.1a733 733 0 0 0 37.9-2.2c8.3-1.1 10.4-1 27 1.6 16.3 2.6 18.2 3.1 21.3 5.7 3.1 2.8 7.1 4.8 9.2 4.8.5 0 .9-1.5.9-3.4 0-2.6 1-4.4 4.2-7.9 4.5-4.7 10-7.2 22.6-10l6.2-1.4 19.1 5.3 19.1 5.4 44.9-14.2 45-14.2 2.5-4.3 2.5-4.3-4.5-5.4-4.6-5.3 4-13.3a223 223 0 0 0 4-14.3c0-.6-1.1-2.5-2.5-4.3s-2.5-3.9-2.5-4.6 2.3-8.1 5-16.4l5.1-15.2 5.9-1.6c5.2-1.5 6-2 7-5.1a13 13 0 0 1 2.7-4.7c.9-.7 3.3-3.6 5.4-6.4 5.2-7.1 17-14.4 23.2-14.4h4.5l1.1 4.6c1.1 4.2 1.4 4.5 3.9 4 1.5-.3 8.3-1.3 15.2-2.1 12.4-1.6 31.4-6.6 33.7-8.8a8 8 0 0 0 1.5-3.2c.3-1.7-.6-2.1-7-3.1-7.3-1.1-9.2-2.2-9.2-5.5 0-1.6 12.7-7.5 22.6-10.5a38 38 0 0 0 16.7-16.5c.7-2.7 1.1-2.9 5.7-2.9 4.3 0 5.2.4 7.1 2.9 1.5 2.1 3.8 3.4 8.2 4.6l7.4 2.2q1.4.7 1.1-2.7c-.3-3 0-3.4 3.6-4.6l3.9-1.4 3.6 4.2 7.6 8.6 4 4.3 7.1-.7 7-.7 9.7-17.4 9.7-17.4v-39.7l7.9-7.4 8-7.4-2.4-4.1-2.3-4.2 3.3-4.3 3.4-4.3-1.8-7.2-1.9-7.1 4.8-2.6c3.3-1.8 6.8-2.7 12.1-3.1a164 164 0 0 0 21.5-4.3l14.2-3.7 4.1-8.2c2.3-4.6 4.1-8.6 4.1-8.9s-2.7-3.4-6-6.8c-6.9-7.2-7.9-11.1-4.2-16.3 2.9-4 2.8-4.3-1-4.3-1.8 0-6.2-1.3-9.7-2.8l-6.4-2.7-2.8-7.5c-3.1-8-3.1-9.1.5-13.2 1.9-2.2 3.4-2.7 7.3-2.9 4.2-.1 6.2.7 15.5 5.8l10.8 5.9 12.7-1.3c11-1.1 30.4-5.3 33-7.2.5-.3 3.1-3.8 6-7.6 4.2-5.8 5.2-8.2 6.2-13.8l1.2-6.9-4.1-5.4c-3.5-4.6-4-6-4-10.5s.5-5.8 3.3-9.3c2-2.5 4.2-7 5.5-11.5l2.4-7.7 13.6-6.8a80 80 0 0 0 13.2-7.4l-.9-4.9c-.7-3.8-.6-4.4 2-6.9l2.9-2.8-2.7-2.8c-2.6-2.7-2.6-2.9-1.3-8.1 1.2-5.2 1.1-5.9-1.8-14.8a89 89 0 0 1-3.8-18.1l-.6-8.7-5.7-4c-3.1-2.1-8-6.4-11-9.4l-5.3-5.5 12.1-16.9a297 297 0 0 1 13.8-18.5c1.7-1.5 2.6-1.4 11.2 1.3 5.2 1.6 9.6 2.8 9.7 2.6.2-.2 1.4-4 2.7-8.5s2.7-8.5 3-8.8 4.1-1.1 8.4-1.6c9.2-1.3 10.8-2.2 22.8-13.9l9-8.7 28.1-1.5c15.4-.8 29.8-1.2 32.1-.8 3.2.6 5.6.2 11.4-1.9l7.4-2.7 14.7 5 14.6 5 4.2-3.3a28 28 0 0 1 12.6-5.2c8.7-1.9 15.4-5.1 15.4-7.4 0-.7-1.4-5.1-3-9.6-2.2-5.8-2.9-9.3-2.5-11.5.7-4 1.7-4.6 5-3.1 2.3 1 2.9.8 5.8-1.9l3.2-3.1 3.8 1.9 3.7 2 1.2-2.6c1-2.2.8-2.9-1.1-4.9-3.1-3.3-10.4-5.3-13.6-3.6-2 1.1-2.7.9-5.8-1.4-2.9-2.2-4.4-2.6-10.2-2.6-5.9 0-7.3.4-9.4 2.4A34 34 0 0 1 972 215a194 194 0 0 0-16.3 5.1c-9.5 3.5-10.7 3.6-7.9.6 1.9-2.1 2.1-2.8 1.1-5.5-1-2.9-1.5-3.2-5-3.2-2.1 0-5.7-.7-7.8-1.6-3.8-1.5-4.6-1.5-15.3 1.1l-13 3.1c-.9.3-2.3 2.4-3.1 4.7l-1.3 4.2-6.6.9c-6.3.9-6.5 1-9.9 5.9a112 112 0 0 1-9.2 11.3l-5.7 6.2-8.3 1.2c-4.5.7-9.1 1.6-10.2 2s-9 6.5-17.5 13.5c-18.4 15.2-17.9 14.9-25.4 16.5l-5.8 1.2-4.5-4.4a85 85 0 0 1-15.9-26.5c-2.5-7-2.6-7.6-1.5-15.5a90 90 0 0 1 3.8-15.1l2.7-6.8-2.1-4.2a27 27 0 0 1 1.8-22.6c2.1-3.2 2.9-5.8 2.9-8.9 0-4-.2-4.3-2.2-3.6-1.3.3-3.5 1.3-5 2-1.5.8-5 1.4-7.7 1.4-4.8 0-5-.1-5.9-3.3q-1-3.4.4-10.8c.7-4.1 1.3-10.1 1.3-13.5l.1-6-7.5-4.3c-4.2-2.3-10.8-6.7-14.7-9.7s-7.4-5.4-7.7-5.4-4 1.5-8.1 3.3"/></svg>