<svg xmlns="http://www.w3.org/2000/svg" width="1365.333" height="1365.333" viewBox="0 0 1024 1024"><path d="M1003.5 211.7c-1 1.5-1.9 3.9-1.9 5.3q-.1 2.4-2.1 2.8c-1.1.2-3.2 1.5-4.6 2.9-2.3 2.1-2.8 3.7-3.4 9.9l-.7 7.4h-3.7c-3.1 0-4 .5-4.9 2.5-.7 1.4-2 2.5-3.1 2.5s-2.2.4-2.6.9-2 1.3-3.8 1.7a64 64 0 0 0-18.9 12.2c-4 3.6-5.3 8.7-2.4 9.8 1.2.5 1.3 1.1.4 3-1.5 3.2-6.3 4-16.1 2.5-5.1-.8-11.9-1-19.4-.5l-11.5.7-9.4 7.3c-8 6.3-10 7.4-13.3 7.4-2.1 0-4.4.6-5 1.4a27 27 0 0 1-7.9 3.6c-3.6 1.2-8 3.4-9.7 4.9s-5.8 3.8-9 5.1c-5.2 2.1-6.2 2.2-10.4 1.1-6.4-1.6-10-6-9.1-11a37 37 0 0 1 2-6.4c1.8-3.8.3-5.2-3.6-3.2q-2.8 1.5-7 .9a39 39 0 0 0-19.4 5.1 36 36 0 0 1-13.7 5.5c-9.5 2.1-12.3 3.1-12.3 4.3 0 1.4-12.8 8.5-21 11.7-3 1.2-7.6 3.5-10.1 5.1a18 18 0 0 1-7.8 2.9c-3.7 0-9.1-3.6-9.1-6.1 0-1-1.8-3.9-4-6.4s-4-5.6-4-6.9c0-3.2-1.2-4-2.4-1.7-.6 1.1-5.1 5.3-10 9.5a76 76 0 0 1-35.1 17.6c-4.9 1-13 3.5-18 5.5a71 71 0 0 1-19.2 5l-10.2 1.3-9 8.1c-8.3 7.4-9.4 8.1-13.3 8.1a69 69 0 0 0-27.2 11.3c-4.4 3.1-6.2 5.1-6.8 7.4q-.8 3.4-2.9 3.3c-2.2 0-9.5 3.4-12.1 5.7-.9.8-4 2.7-7 4.2-4.5 2.3-5.3 3.2-5.6 5.8-.3 3-.5 3.1-7.4 4.1a27 27 0 0 0-9.7 3c-2.2 1.6-2.5 2.5-2.2 6.5q.4 8.1-5 4.3-4.8-3.5-7.5 6c-2 7.1-7.3 11.4-14.1 11.4-2.3 0-4.3.4-4.3.9s-1.1 2.3-2.5 3.9l-2.5 3 4.1 2.6c2.2 1.5 7.6 6.1 11.8 10.2l7.8 7.4.1 7.6q0 7.5 1.6 9.9 3 4.6.1 5.9c-2.2.8-1.8 2.4 1.5 6.3 2.7 3.1 3 4 3 10.4 0 6.9-.1 7-5.1 13.4-4.4 5.4-7.5 7.8-20 15.6a74 74 0 0 0-14.9 10.5c0 2-3.7 3.9-10.1 5.3-3.1.6-7.1 2.3-9 3.6-2 1.6-4.6 2.5-6.8 2.5-2 0-6 1.1-8.9 2.5a52 52 0 0 1-20.7 5.5c-7.9 0-16.5 5.5-31.6 20.1l-12.4 12 11.1-.4 11.2-.4 1.1 3.7c2.6 8.7-.4 29.3-4.8 32.7-10.5 8.1-14.6 9-30.6 6.1-13.2-2.4-22-2-31.5 1.6a96 96 0 0 1-14.5 3.6 58 58 0 0 0-18.5 6.2c-12 5.8-12.2 5.8-39.4 3.3l-15.1-1.4-3.1 3-3.1 3-14.4-.3-14.4-.2-7.5 3.8c-4.1 2.1-10.1 5.6-13.2 7.8-5.7 3.8-5.8 3.9-5.8 8.7 0 3.7-1 6.7-4.1 12.7-3.5 6.8-5.8 9.5-16.2 19.3l-12.2 11.3-8.1-.5c-5.7-.3-8.8-.1-10.5.9-1.3.7-3.4 1.3-4.6 1.4-1.8 0-2.5.9-3.4 4.4-1 4-2.2 5.4-11.7 13a68 68 0 0 1-12.3 8.6c-2.5 0-9.9 5.4-16.4 11.9-5.4 5.5-6.3 6.1-10.1 6.1-3 0-4.8-.6-6.5-2.4-2.1-2.1-3-2.3-6.5-1.7-2.2.4-6.5 2.1-9.4 3.7-5.5 2.9-5.5 2.9-6 8.4-.6 6.9-2.1 9-8.7 12.4q-5.5 2.6-5.3 4.7-.1 4.8-5 7.4a18 18 0 0 0-5.5 5.5c-2 3.1-3.1 4-5.4 4-3.5 0-9.1 1.9-9.1 3.1 0 .4-1.8 3.4-4.1 6.6l-4 5.8 7 .3c4.5.2 8.7-.3 11.6-1.3 2.5-.8 6-1.5 7.7-1.5q4.6 0 13.3-8.1c4.3-4 11.6-5 14.1-2 2.6 3 4.1 2.6 5.9-1.3 2.3-4.8 8.8-8.9 15.5-9.7 5-.6 6.1-.3 12.1 2.9 4.7 2.5 7.1 4.6 8.5 7.1 1.8 3.3 2.3 3.6 7.2 3.9q5.4.2 5.2 1.8c0 2.3 5 1.7 8.7-1.2q3.3-2.4 3.3-5.2c.1-2 1.7-4.1 6.5-8.4 7.1-6.3 11.6-7.7 19.6-6.1l4.4.9-.4 8.5c-.3 8.3-.2 8.5 2.2 9.6 2.5 1.2 2.6 1.1 4.1-4.1 3.4-11.6 6.1-15.7 17.8-27.2a129 129 0 0 1 13.6-12.3c1.9-1 4.3-1 11.4 0l9.1 1.2 3 4.4c1.7 2.4 3.6 4.2 4.2 4 .5-.3 3.6-1.3 6.7-2.3 5.2-1.6 5.8-2.1 6.4-5.1.6-3.1.9-3.3 4.5-3.3 3.2 0 4.1-.4 4.8-2.4 1-2.3 12.2-10.1 21.8-15q5.2-2.6 10-8.6c4.3-5.3 5.5-6.3 11.3-8.1 4.7-1.6 10-2.3 19.2-2.6l12.7-.5 11.6 6.3 11.5 6.2v4.5c0 3.3.7 5.4 2.5 7.8 3 4 3.2 8.9.5 12.4-2.4 3-2.5 6.7-.4 9.1 1.5 1.6 2.1 1.5 11-2.8a32 32 0 0 1 20.1-4.7l10.6-.1 4.3-4.5c4.2-4.4 4.3-4.5 11.8-4.8 7.6-.4 7.6-.4 11.6 3.2 2.2 2 4.6 3.6 5.3 3.6 2 0 4.7-3.3 4.7-5.7q.1-2 1.4-2.6c1.3-.6 1.6-1.6 1.8-2.9.3-2.1 1-2.4 8-3 8.7-.8 13.8-2.9 13.8-5.7q0-2 3.1-2.6c1.7-.4 3.3-1.3 3.5-2 .4-.9 3.1-1.6 7.2-2 9-.9 12.1-2.1 11.5-4.5-.4-1.5.7-2.7 4.4-5q8.2-5 9.9-17c.8-5.9 5.2-14 8.1-15.1a30 30 0 0 0 12.6-10.6c.9-1.7 1.9-7 2.3-11.7l.7-8.6h4.2c3.8 0 7.3 1.9 6 3.2-.7.7-.9 9.7-.2 10.5 2.1 2 13.3-6.6 15.4-11.8 1.8-4.6 4.7-5.2 7.8-1.5 1.6 1.9 3.3 2.5 8.6 2.9l6.6.6 2.5-5.8 2.6-5.9 11 .6 11 .5 4.5-3.5q4.6-3.5 10.6-4.7c5.9-1.2 6.1-1.3 7.1-5.1l2-8c.9-3.3 1.5-4 3.5-4q5.6-.1 6.9-8.8c.6-4.8.8-5.1 4.9-6.5s4.6-1.3 11.7 1.4c6.6 2.6 7.6 2.7 9 1.4q1.8-1.5 7.7-1.5c5 0 7.2-.6 12.8-3.6 3.7-2 7.6-3.4 8.6-3.1 4.6 1.2 8.4-13.4 3.9-14.8q-3.8-1.3-.2-7.4a9 9 0 0 1 10.6-4.1c4.3 1.6 16.5.1 17.7-2.1q1-1.9 4-1.9c2.2 0 5.9-1.9 12.4-6.5 8.5-5.9 9.8-6.5 16.1-7.1 6.4-.7 7.3-1.1 12.5-5.6 5.4-4.6 5.8-4.8 11.8-4.8 4.8 0 7.4-.6 11.9-2.9 4.3-2.1 6.4-2.6 8.5-2q2.7.7 5.7-.8c3.4-1.7 3.6-2.1 1.5-3.7-1.3-1-1.3-1.5.4-4.7q4-7.4-2.5-9.8c-4-1.4-4.1-1.9-1.3-5.5 1.9-2.5 2-2.6.2-3.3q-4.2-1.3-1.6-4.9c1.2-1.8 2.1-2.2 4.8-1.7 3.1.5 3.6.3 5.1-3 1.5-3.1 2.2-3.5 6.5-4.1 4.7-.6 4.9-.8 4.9-3.8q0-3 2.6-5.5c2.2-2 2.5-3.1 2.3-7.1a33 33 0 0 1 .5-8c.7-3.1 1-3.2 5.7-3.2 4.6 0 5 .2 7.4 4 1.4 2.2 3.2 4 4.1 4s3.8 1.8 6.4 4c5.4 4.5 7 4.7 21 2.9 9.7-1.3 13.5-3.8 14.6-9.6.3-1.8 1.6-4 2.7-4.8 3-2.1 9.6-1.9 13.2.5 4 2.6 8.2 2.6 9 0 .7-2.1 5.3-5 7.8-5 3 0 2.8-4.8-.4-10.4l-3-5.5 2.1-2.9c1.9-2.5 3.1-3 8.2-3.6 5.6-.5 6.2-.4 8 1.9 2.2 2.9 5 3.2 6.9.9 2.1-2.6 2.3-22.4.2-24.6-1.4-1.5-1.4-2.4-.4-5.9.7-2.2 1.4-7.4 1.6-11.4s.6-7.9.9-8.4 2.3-1.2 4.3-1.6c2.1-.3 5.4-1.7 7.4-3q3.5-2.3 5-1.4c2.5 1.6 2.9 1 2.9-3.9 0-3.7.4-5 2.1-6a12 12 0 0 0 3.5-4.7c1.3-3.2 1.2-3.8-1.4-9.2-1.5-3.2-3.5-5.9-4.5-6.1s-3.1 1-4.8 2.7-3.3 3.1-3.5 3.1-3.3-2.1-6.7-4.8-7.3-5.4-8.7-6.3c-2.1-1.4-2.5-2.5-2.8-8.5-.3-5.3.1-8 1.6-11.6 2.3-5.3 4.8-7 11.2-7.8l4.5-.5.7-5c.5-3.7 1.4-5.4 3.2-6.8 1.5-1 2.6-2.6 2.6-3.5 0-2.3 4.7-7.2 6.8-7.2.9 0 3.2-.9 5.1-2.1 1.9-1.1 6-2.3 9-2.6 3.1-.3 6.3-1.1 7.1-1.9s2.7-1.6 4.3-1.9q2.9-.6 2.7-3c0-4.1 1.8-7.2 4.4-7.9 2.2-.5 2.5-1.1 2-3-.7-3.1 1.8-7.9 5.5-10.5a20 20 0 0 0 7.6-12.9l.7-4.2h8.4c5.1 0 8.4-.4 8.4-1s1.1-1.5 2.5-2c2.9-1.1 3.4-4 .7-4-1 0-2.8-.7-4.1-1.6-2-1.4-2.2-2.2-1.6-6q.7-4.5-.6-4.4c-1.3.1-1-1.7-.6-6.3.6-5.5 1.1-6.6 4.1-9.2 1.9-1.7 3.8-4.4 4.2-6 .4-1.7 1.8-4.4 3.1-6.1 1.2-1.7 2.3-3.6 2.3-4.2 0-1.3-.4-1.4-7.5-1.7-2.7-.2-6.4-.6-8.1-1-2.6-.6-3.3-.3-4.9 2.2"/></svg>