<svg xmlns="http://www.w3.org/2000/svg" width="1365.333" height="1365.333" viewBox="0 0 1024 1024"><path d="M439.1 7.9c-1.9 6.7-2.9 8.3-6.4 11.3a80 80 0 0 0-9.9 11.5l-5.6 8.1 2.6 3.7 2.6 3.6-5 15.2-5 15.2-14.3 7.5c-12.7 6.7-14.5 7.9-16.7 11.9-1.3 2.3-2.4 4.5-2.4 4.7s1.4 1.9 3.1 3.9c2.6 3 2.9 3.6 1.4 4.1-1.2.5-1.4 1.4-.9 3.7.5 2.5.2 3.3-2.2 5.2l-2.8 2.2 4.3 10.4 4.3 10.3-3.2 2.9c-4.9 4.4-5.1 8.5-.6 14.5q6.3 8.7 1.4 11.3a9 9 0 0 0-3.1 2.5c-.6 1-1.3 1.1-3.3.2-3.7-1.7-6 1.2-8.7 11.4a39 39 0 0 1-7.7 15.9 150 150 0 0 1-8.3 10.6c-2.5 2.7-2.9 3.7-2.5 7.5.4 3.6-.2 5.7-3.5 12.3l-4 8 1.2 8.2c.9 6.2.9 8.7 0 10.7s-.9 3.2-.1 5.1c1.6 3.4-1.6 10.2-5 10.7-2.1.3-2.4 1.1-3.3 8.9a34 34 0 0 1-2.5 10.5l-1.7 2.3q-.3.2-1.7-.8c-1.6-1.3-1.8-.9-3.1 5.7-.9 4.6 3.9 19 6.9 20.2l2.1.9-2.2.6-2.1.7 2 4.6c3.4 8 6.6 20.5 6.6 25.8 0 6.2 1.1 10.3 2.2 8.4.7-1.1 1.3-1 3.4.4q4.4 2.9 1.1 5.6c-2 1.6-2 13.5 0 17 2.2 3.8 1.8 5.4-1.7 7.3-8.1 4.5-9.6 6.7-11.7 16.7a36 36 0 0 1-2.9 9.8c-.5.1-1.8.9-2.8 1.7-1.8 1.5-1.8 1.6.4 3.4 1.9 1.6 2.4 3.3 2.9 9.9.6 8.7-.2 15.2-1.9 15.2-.6 0-3.2 1.9-5.7 4.3s-5.3 4.8-6.2 5.3c-.8.5-2.5 2.3-3.6 4-1.8 2.6-2.2 4.6-2.3 13.5-.1 5.7.2 11.7.8 13.4.7 2.4.6 3.4-1 5.1-1.8 2-1.8 2.2.5 8.5 1.4 3.5 2.7 8.9 3.1 11.9s1.4 6.2 2.3 7.2c2.5 2.7.7 5.1-6.2 8.2l-6.5 2.9v5.9c0 7.3-3.3 16-5.8 15.1-1.3-.6-1.4.2-.9 5.8.6 5.6.5 6.6-1.2 7.9-2.3 1.7-3.9 7-2.2 7 1.9 0 1.2 4.5-1.4 9.4-2 3.8-2.3 5.1-1.4 7.3.6 1.8.8 6.7.4 13.3-.7 9.7-.6 10.8 1.4 14.2 1.6 2.7 2.1 4.9 1.9 8.5-.3 4.8-.3 4.8-4.5 5.7-3.6.7-4.3 1.3-4.3 3.3 0 1.3.5 3.3 1 4.3.8 1.5.6 2.1-1 3-1.5.8-2 2.1-2 5.5a14 14 0 0 0 7.2 12.6c4.4 2.7 4.5 3.2 1.8 5.9a8 8 0 0 0-2 5.3c0 3 .4 3.5 4.8 5.3l4.7 2-3.3 1.9c-2.9 1.7-3.3 2.4-2.9 5 .3 1.6-.2 5.1-1 7.7s-1.3 5.4-1 6.2q.6 1.3 8.1 2.1c4.1.3 8 1.2 8.5 1.9s.8 2.7.5 4.5c-.5 2.5-1.1 3.1-3.3 3.1-1.5 0-3.1-.4-3.6-.9s-4.2-.4-8.2.2c-6.7 1-7.3 1.3-7.3 3.4s.4 2.3 5.8 2.3l5.7.1 3.4 4.9c3.1 4.6 3.2 5.2 2.1 8a7 7 0 0 1-4.7 4.1c-1.9.6-3.6 1.6-3.9 2.3s.4 3.7 1.5 6.9l2 5.8-4.5 2.2-4.6 2.2 2.9 1.1c2.4 1 3 2.2 4.4 8l1.7 6.9-4.5 2-4.5 1.9.4 5.1c.3 2.7.8 5.7 1.2 6.6.5 1.2-.5 2.4-4.2 4.7-6.9 4.5-8.8 7-10 13.4-1 5.1-.9 6.2 1.2 11.4l2.3 5.6-5.4 8.7a60 60 0 0 1-8.1 10.8c-1.6 1.4-5.9 3-10.4 4l-7.7 1.6-.9 4.1c-.4 2.3-.4 6.4 0 9.3q.8 5.2-.6 14l-1.4 8.7 6.2 6.4 6.1 6.4 5.3-.6 10.5-1.2c4.9-.6 5.3-.5 6.4 1.8 1.5 3.2.5 7.5-2 9.3-2 1.4-2 1.5-.2 3.5s1.8 2.3.2 8.3l-1.6 6.2 4.7 4.8 4.8 4.7 27.4 1c25.4.9 28.1 1.1 34.9 3.5 4.1 1.4 9.1 2.5 11.1 2.5s6.1.8 9.1 1.9c6.2 2.1 14.9 3.6 14.9 2.5 0-.4-2.6-4.4-5.9-8.8-9.8-13.6-14.1-23.9-14.1-34.1 0-5.4.4-6.9 3.3-11 2.7-3.9 4.5-5.3 11.2-8.2 4.4-1.9 10.1-4.3 12.7-5.2s5.5-2.7 6.6-4.1c3-3.9 5.4-12.3 4.7-16.3-.6-2.8-.1-4.5 2-8.1 1.5-2.5 3.9-5.6 5.5-6.9 1.5-1.3 4-4.3 5.4-6.5 1.9-3.1 3.3-4.2 5.1-4.2 3.1 0 15.6-6.3 21-10.6 2.2-1.7 5-3.4 6.3-3.8s2.2-1.5 2.2-2.7c0-1.1.7-2.2 1.5-2.5 1.1-.5 1.2-1 .3-2.4s-.7-3.3.6-8.3c2.1-7.5 1.5-11.9-1.7-14-1.3-.8-6.3-1.8-11.3-2.2l-9.1-.7-9.8-7.8c-5.3-4.2-11-9.7-12.6-12.1-2.8-4.4-2.8-4.5-1.4-9.4.9-2.8 2.8-6.8 4.4-9s4-6.3 5.5-9.2c2.3-4.6 3.1-5.3 6.8-6.3 10.1-2.5 11.7-3.1 12.3-5 .8-2.4 5.3-3.4 15.5-3.5 6.4 0 7.5-.3 7.8-1.8.2-1-.4-2.7-1.4-3.8-1.7-1.8-1.6-2 .5-4.3a17 17 0 0 1 5.1-3.6c5.2-2.2 5.8-6.5 3.4-26-.5-4.2-.4-4.6 2.5-6.3 1.8-1.1 3.1-2.6 3.1-3.8 0-1.6 2.2-3 10-6.6 5.5-2.6 10-4.9 10-5.3s-1.7-1.2-3.9-1.8c-6.7-2-13.1-5.2-13.1-6.5 0-1.9 8.5-5.7 12.8-5.7s6.2 1.4 6.2 4.6 4.3 4.4 11.1 3.2a28 28 0 0 0 5.7-1.3c1.5-1.5 1.9-8.3.6-12.4-2.4-8.3-2.7-8.5-11.4-5.7-6 1.9-6.9 2.4-4.2 2.5 2.4.1 3.2.5 3.2 2 0 2.2-3.8 3.2-9.7 2.4-3.2-.4-4-.9-3.6-2.3s-.6-2-4.7-3c-4.5-1.1-5.4-1.7-6.6-4.6-.8-2-1.4-6.8-1.4-11.8 0-4.7-.4-9.5-.9-10.8s-1.1-5-1.5-8.4c-.6-5.7-.5-6.1 1.9-7.4 2.2-1.2 3.7-1 13.2 1.9a78 78 0 0 1 15.3 6.3l4.4 3.1 10.8-.7a43 43 0 0 0 19-4.4 83 83 0 0 0 10.6-5.3c2.1-1.5 2.1-1.7.6-6.2-.9-2.6-2-4.9-2.5-5.3-1.2-.7-1.1-7.1.1-7.9.6-.3 1-2 1-3.6 0-4.6 1.7-7.2 4.4-6.5 2.1.5 2.4.1 3.3-5.2 1-5.5.9-5.9-1.7-9.2-4.3-5.5-5-7.5-5-13.4 0-6.4 1.3-7.2 5.3-3.2 1.4 1.3 4.2 2.9 6.3 3.5 12.5 3.5 49.6-1.6 83.6-11.4 15.2-4.4 30.1-13 31.9-18.5.6-1.9 3.3-6 5.8-9 2.6-3 7.4-9.1 10.6-13.5 4.9-6.6 6-8.9 6.5-13.2.8-6.9-1.3-14.3-4-14.3-1.1 0-4.3-1.2-7-2.8-4.1-2.2-5.2-3.4-6.1-6.6a18 18 0 0 1 2.2-14.2c2.6-4.3 2.4-5.2-2.1-10.9-3.2-4.1-6.1-6.2-16.2-11.5-15-7.9-16.3-9.6-14.3-19 1.1-5.3 1.1-6.2-.6-9-2.2-3.6-2.3-5.1-.7-13.5 1-5.8 1.5-6.6 6.1-10.1l4.9-3.9-.5-8.4c-.3-4.8-.1-9.4.5-10.7.8-1.6.6-3.3-.7-6.6-1.6-4.3-1.6-4.7.5-10.4 1.2-3.2 2.5-7.6 3-9.6.4-2.1 1.2-4.3 1.8-5a55 55 0 0 0 2-22c-1.2-3.5-.4-4.9 8.1-13.6 3.4-3.5 6.8-7.9 7.5-9.7s2.4-3.9 3.7-4.5a31 31 0 0 0 12.9-15c1.4-3.7 2.9-6.2 4.1-6.5 1.1-.4 2.6-2.1 3.5-3.8.9-1.8 4.5-5.9 8-9.2 3.6-3.3 8.6-9.2 11.2-13 4.3-6.3 5.2-7.2 10-8.7 3-.9 7-3.2 9-5s8.5-5.8 14.4-8.8l10.7-5.5 4.2-7.3c3.5-6.2 4-8 3.5-11-.3-2 0-5.1.6-6.8.9-2.7.7-4.6-1.4-12-2.2-8-2.9-9.2-7.1-12.7l-4.6-4-4.8 1.3-6.5 1.6c-1.3.4-1.7 2.4-2.3 11.2-.5 8.2-1.3 12-3.2 16.4-2.2 5-3.4 6.2-10.6 11-4.5 3-9.1 5.9-10.1 6.4a8 8 0 0 0-3 4.1c-1.5 4.4-1.7 4.5-7.2 2.8-2.7-.8-5.4-1.5-6-1.5s-2.5 2-4.3 4.5l-3.2 4.5-2.8-1.9c-2.5-1.8-3-1.9-4.9-.5s-2.8 1.2-8.4-.3a39 39 0 0 1-10.5-4.5c-4-2.7-4.8-2.8-16.7-3.1-6.8-.1-12.7-.5-13.1-.9s1.3-3.3 3.9-6.5c3.5-4.6 4.8-7.3 5.9-12.5 1.4-6.5 6.5-17 11-22.5 1.3-1.5 3.3-4.4 4.5-6.4l2.2-3.6-4.4-6A51 51 0 0 0 641.5 99c-9.5-2.6-9.3-2.4-22.3-13.4L608.8 77h-6c-5.7 0-6.2-.2-15.6-6.9-5.3-3.8-10.8-8.1-12.2-9.6s-6.5-5.7-11.5-9.4c-9-6.7-9-6.8-10.9-13.5-1.8-6.4-2.2-7-7.2-10.2a46 46 0 0 1-9-7.9c-5.2-6.4-8.3-7.5-21.2-7.2-5.9.1-11.3-.1-12.1-.3q-1.3-.7-3.6 6c-1.2 3.6-3 8-3.9 9.7a21 21 0 0 0-1.6 7.9v4.8l-6-10.2c-7.5-12.6-8.4-13.2-22.3-13.2h-10.3l-3-3.3a90 90 0 0 1-6.8-8.5l-4-5.2zM378 986.4v32.5l9.3-.5c10.7-.7 23.8.6 38 3.8l10 2.2 6.6-1.9c4.6-1.4 9-1.9 14.7-1.7l8.1.2 2.6-3.9 2.6-3.9-6.7-.7c-3.7-.4-11.6-1.6-17.5-2.7-9.9-1.9-11.4-2.5-16.5-6.6-3.1-2.4-10.2-6.5-15.7-9.1a36 36 0 0 1-16.8-12.9c-5.8-7.1-7.3-8.3-10.7-8.8s-3.9-1.1-4.2-3.3c-.2-1.5.4-3.5 1.5-4.8 1.9-2.1 1.9-2.2-.1-5.1-5.4-7.4-5.2-8.3-5.2 27.2"/></svg>