<svg xmlns="http://www.w3.org/2000/svg" width="1365.333" height="1365.333" viewBox="0 0 1024 1024"><path d="M625.2 259.5c-1.9.8-8.3 6-14.3 11.5-11.7 10.7-14.7 12.1-18.4 8-1-1.1-2.2-2-2.6-2-1.3 0-4.2 6.2-4.3 9-.1 2.5-.3 2.5-8.2 2.5-7.3 0-8.4.3-11.7 2.8-4.3 3.3-4.6 5.5-1.3 9.4a15 15 0 0 1 2.8 7.5l.6 4.8h-3.6c-2.7 0-4.9-1.1-9.3-4.5-6.1-4.8-8.3-5-9.3-.9-.8 3.1-6.8 5.8-14.8 6.7-8.2 1-8.8 1.4-8.8 5.7 0 3-.6 4.4-3 6.3q-3 2.6-3 5.2c0 2.2-2.3 6.1-9.2 16-.5.6-2.3-.8-4.6-3.5l-3.9-4.4-7.2 1.4c-6.1 1.3-7.5 2-8.9 4.3s-1.4 3.1-.4 4.7q2.8 4.4-1.3 6.2c-1.4.6-2.5 1.9-2.5 2.9q0 1.9-2.7 2.5-5.4 1.2-5.3 4.4-.1 1.7-2.6 2.4c-2.5.7-2.4 1.3-2.3 2.4q.8 4.6-4.8 8.8c-2.9 2.2-4.6 2.7-7.9 2.5-6.7-.4-7.8 2.1-7.7 17.5.1 6.8-.3 12.6-.8 13a13 13 0 0 0-2.5 3.6c-1.4 2.7-1.4 3.1.2 4.9.9 1 2.2 1.9 2.9 1.9s2.4 1.3 3.8 2.8c2.5 2.6 2.7 3.4 2.1 7.2-.9 5.3-6.6 12.3-9.8 11.8-1.6-.2-2.2-1.3-2.9-5.3-.4-2.7-1.3-5.5-1.9-6.2a35 35 0 0 0-7.7-4.3 39 39 0 0 1-9.6-6.5l-3-3.5-3.2 3.1c-1.8 1.6-3.3 3.6-3.3 4.3 0 .8-1.7 2.1-3.7 3a77 77 0 0 0-18.5 10.4c-3 2.8-3.8 7.2-1.3 7.2 1.6 0 1.9 2.8.9 6.7-.7 2.7-6.4 4-9.4 2.1-1.6-1-2.4-1-4 0-1.1.6-3.4 1.2-5.2 1.2-1.7 0-4 .8-5 1.7-1.7 1.5-2 1.5-4.6-1-1.6-1.5-4-2.7-5.4-2.7-2 0-2.8.8-4.1 4-.8 2.2-2.4 4.3-3.4 4.6-3.6 1.1-4.5 2-5.8 5.7-1.6 4.6-1.8 4.9-3.6 4.2-2.4-.9-4.3-4.8-4.9-10l-.5-5-5.4-1.9c-5.1-1.9-5.6-1.9-8.3-.3-3.8 2.2-7.6 1.3-8.9-2.1-.8-2-.6-2.9 1.2-4.8s1.9-2.6 1-4.3-2.1-2.1-5.6-2.1c-3.9 0-4.6.4-6.6 3.6-2.2 3.5-2.3 3.6-7 3.1-3.7-.5-6.2 0-11.1 1.9-3.5 1.4-6.8 3.2-7.4 4s-1.7 1.4-2.3 1.4-2.9.9-5.1 2c-5 2.6-5.8 2.5-7.2-.5q-2.1-4.5-5-.6c-.8 1-2.5 2.1-3.8 2.3-1.8.2-3.1 1.5-4.6 4.8-1.6 3.2-3 4.6-5 5.2-1.6.4-3.1.4-3.5 0s-1.2-5-1.9-10.2c-1-7.4-1.8-10.1-3.6-12.3a12 12 0 0 1-2.4-3.8c0-2.5-3.7-.2-10.1 6.1-3.9 3.8-7.7 7-8.4 7-1.5 0-4.1-2.3-4.7-4.1q-.4-1.2-3.7-.4c-3 .6-3.1.8-1.7 2.4s1.2 1.9-1.9 4.4c-3.3 2.6-3.7 2.7-7.7 1.6-2.4-.7-5-2-5.8-2.9-.9-.9-2.7-2-4.2-2.3a4 4 0 0 1-3.2-3.2c-1-4-3.7-3-9.1 3.5-5.3 6.3-8 7.7-10.5 5.7-.9-.8-2.7-1.1-4.5-.7-4.8 1-15.5 6.3-15.5 7.8 0 2.1-4.4 3.6-6.9 2.3-3-1.7-2.8.9.4 4.7 1.4 1.7 2.5 3.5 2.5 4.1 0 1.4-3.4 3.1-6.4 3.1q-2.5 0-5.3 3.5-2.8 3.6-5.5 3.5c-3.6 0-6 3.6-5.2 7.6.4 2.2.1 3.4-1.1 4.4-1.5 1.3-2.3.8-7.6-4.8a28 28 0 0 0-7.4-6.2c-.9 0-2.7 2-4.2 4.4q-2.7 4.5-5.5 5c-2.8.5-3.3 1.5-4.3 3.8a39 39 0 0 1-15.7 16c-3.3 1.7-7.6 4.9-9.6 7S51 531 50.3 531c-1.8 0-2.9 3.1-3.7 10.5q-.7 5.9-2.6 8c-1.9 2.1-2 3.5-2 5.6 0 3.2-.4 3.7-4.5 5.7a22 22 0 0 1-7.1 2.2c-1.3 0-4.7 1.2-7.5 2.6a19 19 0 0 1-9 2.3c-3-.3-4.5.2-6.6 2.3A31 31 0 0 1 2 574l-2.5 1.3 3.5 1.3c5.2 1.9 7 1.7 7-.6 0-2.8 3.2-2.6 7.8.5 2 1.4 5.1 2.5 6.8 2.5q3 0 5.5 2.6c2.4 2.6 2.5 2.6 13.1 1.9l10.7-.7 4.1 3.3c4 3.2 4 3.3 4 9.9 0 3.7.3 6.9.6 7.3s3.5-.5 7-1.9c3.6-1.3 7.4-2.4 8.6-2.4s4.6 1.9 7.6 4.1c4.8 3.7 5.8 4.1 9.3 3.5 3.1-.5 4.8-.1 7.9 1.6l3.9 2.3 4.7-4.5c2.5-2.5 6.1-6.8 8-9.6 2-3.1 5.3-6.4 8.5-8.5l5.2-3.3 3.6 2.1c3.4 2 3.6 2.4 4.3 8.6.9 9 1.4 10.3 5.3 12.7 2.9 1.8 4.4 2 8.7 1.5 6.5-.8 10.2.5 12.6 4.4l1.8 3 4-2.6c2.1-1.4 4.4-3.2 5.1-4.1q1.2-1.5 3.9-.8c2 .5 2.5 1.1 2.1 2.8-.3 1.1.1 3.5 1 5.3 1.5 3.1 1.7 3.2 5 2.3 4.1-1.1 11.8-.7 11.7.7l-.7 4.2-.6 3.2 7.1-.2q7.2-.2 7.5 1c.3 1.2-.3 1.3-1.4 1.3-4.2.1-4.4 1.5-.7 5.8 3.6 4.2 3.6 4.2 1.6 6-2.1 1.7-4.2 9.6-4.2 15.5 0 1.8.8 6.3 1.7 10.1 1.5 5.8 2.3 7.3 5 9 3.2 2.1 3.3 2.3 3.3 9.4q0 7.4-1.6 10.8c-1.6 3.4-1.6 3.6.7 6a81 81 0 0 0 20.8 13.4c3 1.1 7.1 3.4 9.2 5.1 2.8 2.2 4.7 2.9 8.2 2.9 2.6 0 4.9.6 5.6 1.4s3.1 1.9 5.4 2.4c3.1.8 4.7 2 6.1 4.3l1.9 3.2 2.1-2.6c1.2-1.4 4.3-4.2 7.1-6.1 4.7-3.4 5.5-3.6 12.5-3.6 5.7 0 8.3.5 10.7 2 2.9 1.7 3.1 2.2 2.6 5.7-.6 4.3-2.5 6.8-6.5 8.9q-5.2 2.7-.4 8.8c1.4 1.9 2.6 5.2 3 8.6 1.2 9.3 1.2 9.3 5.1 6.7 2.7-1.7 3.5-2.9 3.5-5.3 0-2.5.6-3.4 2.8-4.3 1.5-.7 4.5-2.9 6.8-4.9 3.5-3.1 4.4-4.9 6-11 1.8-7 1.8-7.5.1-10.3-2.4-4.2-2.2-5.4 1.3-7.9 2.5-1.8 3-2.8 3-6.1 0-3.7 1.2-5.1 2.5-2.9.3.5 3 1 5.9 1 5.7 0 8 1.6 10.4 7.2.6 1.6 1.6 2.8 2.1 2.8s1.1 1.3 1.4 2.9c.7 3.4 8.1 8.4 13.9 9.4 5.2.8 7.9-1.7 12.7-11.6s7.5-13.1 14.4-16.3c4.7-2.1 5.6-3 6.8-6.6a48 48 0 0 1 6.4-11 240 240 0 0 0 9-13.3l4-6.5h5.6c4.9 0 5.7-.3 6.9-2.4.7-1.3 3.7-4.2 6.6-6.3s5.4-4.2 5.4-4.6c0-.5-.9-2.1-1.9-3.6-1.9-2.6-1.9-3-.4-8.4.9-3.1 2.2-5.7 2.9-5.7s2.6-1.1 4.2-2.5 4.2-2.5 5.7-2.5q2.8 0 7.1-4 4.3-3.9 7-4c2.9 0 7.2-3 8.8-6.2 1.3-2.6 9.3-5.5 10.8-4q1.1 1.2 4-.4c2.4-1.3 2.7-1.8 1.7-3q-1-1.4-.8-1.8c.2-.4 5.8-3.6 12.4-7.6 13.9-8.4 15-9.3 13.9-11.2-.5-.7-.7-2.2-.5-3.2s-.3-2.9-.9-4.1l-1.2-2.3-3.4 2c-2.8 1.6-5.8 2.1-15.7 2.5-19.1.8-24-1.4-25.8-11.5-.9-4.9-1.5-6.1-4.1-7.6-6.2-3.7-9.9-7.7-9.2-10l.8-2.3c.1-.1 2.4.4 5.1 1.2 2.7.9 5.7 1.3 6.7.9 1.6-.5 1.5-.7-.6-2.7a11 11 0 0 1-3.1-6.7l-.7-4.5 4.9 5.2c5.3 5.7 6 6 8.7 4 1.7-1.3 1.7-1.5.2-4.5-2.6-5.1-2.2-6.2 2.7-6.2 5.7 0 11.1-3 11.5-6.3l.3-2.6 3.7 2.4c2 1.3 5 2.7 6.5 3.1s3.4 1.8 4.1 3.3c2 3.7 2.3 9.6.7 11.5-.8.9-1.9 4.4-2.5 7.8l-1.1 6.1-4.8 1.6-4.9 1.7 1.9 2.3c1.7 2.1 2.5 2.3 6.6 1.7 4.3-.7 4.7-1 5.7-4.5.5-2 2.1-4.8 3.5-6.1s2.5-3.2 2.5-4.2c0-1.1 2-6.7 4.6-12.6 3.7-8.7 5.3-11.4 9-14.5 2.4-2.1 4.4-4.4 4.4-5 0-.7 1.2-3.8 2.7-6.9 2.3-4.7 3.2-5.7 5.4-5.7 3-.1 11.8-4.5 13.7-6.9.6-.9 1.2-3.1 1.2-4.9 0-2.6.6-3.6 3-4.8 1.6-.8 4.6-1.5 6.8-1.5q6.1 0 6.2-3.9c0-2.7 4.3-6.9 7.6-7.4 2.6-.5 3.6-.1 6 2.4l2.8 2.9 2.9-2.7 6.9-7.5 4-4.8-2.4-3-4.6-6c-1.3-1.7-3.3-3-4.4-3-1.7 0-4.3-1-13.6-5.6-.7-.4 3.7-6.6 5.5-7.9 1-.7 4.1-1.6 6.8-2.1 7.8-1.1 16.6-9.5 15-14.3-.8-2.4-9.2-7.1-13.9-7.7q-8.2-1.2-9.3-13.5c-.5-5.5-.4-5.9 2.7-8.8l3.3-3-3.4-.5c-11.6-1.8-16-1.5-22.6 1.5l-6.6 2.9-4.8-4.5c-3.9-3.7-5.5-4.5-8.6-4.5-2.1 0-6.7-1.3-10.2-2.9-3.6-1.6-7-2.7-7.7-2.4s-2.7-.9-4.4-2.5l-2.9-3 2.4-.6c1.4-.4 3.2-2 4-3.6.9-1.7 2-2.8 2.4-2.5.5.3 4.4 1 8.7 1.6q8 1 10 3c1.8 1.7 2.7 1.8 7.4.9a82 82 0 0 1 11.5-1c5.6 0 6.3-.2 7.3-2.4 1.3-2.8 6.6-7.1 10.2-8.1 1.4-.4 3.9-1.5 5.6-2.5 2.8-1.6 3.9-1.7 9.5-.6a61 61 0 0 1 12.6 4.4c4.9 2.5 8.5 3.5 16.2 4.3a34 34 0 0 1 15.1 4.1c5 2.8 5.2 3.1 4.7 6.6-.3 2-1.3 5.8-2.2 8.4-1.6 4.5-1.6 4.8.2 7.5 1.7 2.4 1.9 4.5 1.8 14.3s.3 12.4 2.3 18l2.4 6.5-2.1 1.4a5 5 0 0 0-2.1 4.1c0 2.2.6 3 3 3.9 2.6.9 3.7.6 8-2.1l4.9-3 6 2c6.6 2.2 9.9 1.9 17.5-2 3.1-1.6 4.3-1.8 6.6-.8s3.9.7 9.1-1c3.5-1.2 7.1-2.8 7.9-3.5a50 50 0 0 1 19.3-3.5c4.1 0 5.2-.5 7.7-3.3 2.9-3.1 3-3.4 2.4-10.2-.7-7.9.6-10.2 4.8-9.2 7.9 2 12 3.1 17.6 4.9l6.4 2.1 4.7-4.7c3.9-3.8 5.2-6.1 7.2-12.3 1.9-6.1 2.8-7.7 4.9-8.4 5.6-1.9 7.3-3.5 8.4-7.3.9-3.3 1.8-4.1 5.6-5.6 2.5-1 8-2.1 12.2-2.5 7.4-.6 7.7-.8 8.3-3.5.7-3.3 4.8-6.1 11.2-7.7 4.7-1.2 4.9-1 7.6 4.3l1.6 3.2 4.6-1.6c4.5-1.4 4.7-1.4 6.8.6 2.1 2.2 2.1 2.2.2 3.7-2.3 1.7-2.3 1.7 5.9 6 3.3 1.6 4.5 3.2 6.8 8.5l2.8 6.5-7.2 6.6-7.1 6.6 2.9 2.7 5.4 4.8c1.3 1.3 4.2 3.5 6.4 5l4.1 2.8 3-2.8c4.2-3.9 8.1-6.2 10.5-6.2s8-2.7 8-3.9c0-.5 1.9-1.1 4.3-1.4 10.6-1.3 13.7-2.7 16.2-7.3 1.5-2.8 2.4-3.4 5.2-3.4q7.8-.1 6.9-4.6c-.8-3.1.9-6.4 3.3-6.4 1 0 2.6-.9 3.7-2.1 1.6-1.7 2.6-2 6.2-1.5 2.4.3 5.6 1.2 7 2.1 1.5.8 4.5 1.9 6.6 2.4 4.6 1.2 7.1-.2 14.9-8.2l4.9-5 8.9.6c8.2.5 9.3.4 13.2-1.9 2.3-1.3 5.7-2.4 7.5-2.4 3.2 0 3.2 0 3.2-4.9q0-4.9 1.4-5.4c1.2-.5 1.8-3 3.3-15.7q.4-4.5 3.9-8.7c2.7-3.3 3.4-5 3.4-8.6 0-4.1-.4-4.8-4.6-8.3l-4.5-3.9v-7.1c0-3.9.5-8.3 1.2-9.7.9-2.1.9-3.4-.5-6.7-2-5.1-2-5 .4-5 1.1 0 2.8-1.2 3.7-2.8a28 28 0 0 1 3.8-4.4c2.6-2.1 2.1-2.4-4.3-3-4.9-.5-5.4-.3-7.2 2.2a9 9 0 0 1-5.5 3.4q-3.3.8-3.5 2.1-.1 1.4-2.5 1.5a14 14 0 0 0-4.8 1.1c-4.3 1.9-22.7-2.6-22.7-5.6q.1-1.6-3.9-1.5c-3.4 0-4 .3-4.6 2.7-.3 1.5-2.4 4.3-4.7 6.2a36 36 0 0 0-6.4 7.2c-1.3 2.2-2.9 3.9-3.5 3.9s-2.3-1.3-3.7-3l-2.6-2.9-4.3 8c-3.6 6.9-4.3 9-4.3 13.8 0 4.5.4 6.2 2 7.6 2.9 2.6 2.6 7.6-.6 11.4-2.3 2.8-3.2 3.1-8 3.1-3 0-6.8-.7-8.4-1.5-2.5-1.3-3-2.2-3-5.3q0-8-2.8-8.2a56 56 0 0 1-8.6-2.1q-7.1-2-9.3-4.7c-2-2.6-2.2-2.6-4-.9q-4 3.5-9-.6a17 17 0 0 0-5.5-3.1 6 6 0 0 1-3.9-2.8l-1.1-2.1-1.4 2.4c-.7 1.3-1.4 5.5-1.4 9.4-.1 9.8-1.1 11-5.5 6.1q-3.4-4-3.5-6.7.1-2.9-2.2-3.5a8 8 0 0 1-3.4-2.2c-.8-1.2-1.5-1.2-3.2-.3-1.6.9-3.3.9-6.2.1-5.1-1.4-6.6-4.2-5.2-9.3.6-2.1.8-3.7.6-3.7-1.5 0-6.4 3.3-9.3 6.3a11 11 0 0 1-8.3 4.2c-4.1.6-6 1.6-10.3 5.5-4.4 4-6.3 5-12.5 6.4-8 1.8-10.5 1.9-17.4 1-4.2-.6-4.7-.9-5.6-4.3-.5-2-1-5.2-1-7.2 0-4.1 1.3-4.9 8.2-4.9 3.4 0 3.9-.4 5.6-4.3 2.3-5 1.6-6.8-3.9-10q-7-4-6.9 2.8c0 1.9-.5 3.5-1.1 3.5-2.1 0-7.8-4.1-8.4-6-.3-1-2.2-3.3-4.2-5l-3.5-3.1-1.9 3.1q-1.9 3.4-3.8 2.5-1.9-.4-2.4.9c-.8 2.2-5.6.4-9.2-3.4-1.6-1.7-3.2-3-3.7-3s-.8 3.5-.8 7.8c0 7.5-.1 7.9-3 10-3.4 2.6-3.9 2.6-6.4.7-1.9-1.5-1.9-1.5.3-3.9l2.2-2.3-3.6-3.2q-3.5-3-6.5-3.1c-2.7 0-3 .3-3 3 0 1.7.8 5.4 1.8 8.3 2.2 6.6 1.8 9-1.9 12.2s-7.5 3.3-8.2.5q-.5-2.1-3.6-2c-2.9 0-3.1.2-3.1 3.5 0 7.6-4 11.2-9.2 8.4-2-1.1-2-1.6-1.4-12.7.4-6.3 1.1-12.3 1.7-13.3s.9-3.2.9-4.9c0-4.2-2.6-5-5.3-1.7a12 12 0 0 1-10.1 4.7c-3.3 0-3.6.2-3.6 3 0 2.5-.4 3-2.4 3-1.4 0-2.8-.4-3.1-1-.9-1.5-3.5-17.1-3.5-21.3 0-4-1.3-4.8-2.9-1.8-1.5 2.7-9.8 6.6-11.4 5.3-.6-.5-2.9-1.5-5-2-3.5-1-3.7-.9-4.3 1.3-.3 1.4-2.6 3.7-5.5 5.5a28 28 0 0 0-7 6.6c-1.8 2.9-2.6 3.4-4.8 3l-6.8-1.1-4.3-.7v-5.2c0-4.9.4-5.6 6.6-13.6 7-8.8 8.3-12.1 8.4-20.8 0-5.9-.8-6.3-6.8-3.7"/></svg>