<svg xmlns="http://www.w3.org/2000/svg" width="1980" height="1013" viewBox="0 0 1980 1013"><title>austria</title><path fill-rule="evenodd" d="m874.1 402.5-2-12.7-21-22.4-3.4-18.7 4.7-2.1 10.9-9 10.1-5.4 4.6-14 12.3-1.6 10.4-4.6 13.2-14.7 28.6-8.4 7.6-6.9 28-1.5 20.7-12.7 14-15.4 10-26.9v-12.7l2-14.2-1.6-16.2 17-10.9 14 5.7 12.3 2.5 5.6 5 7.2 8.1 11.6 3.5 7.4-14.3 7-2.4 5.8-5 2-10.3 6.2-6.4-3-26.6 3.4-4.1-7.5-8.2 9.6-15.8 17.2 4.4 12.4 8 10.1 6.8 3.5 6 6.2 9.2-4.5 15.4 14.4 11.8 39.8 1 32 14.8 11.9-13 8.3.5 7.8-22.4 13.3 6.7 10.8 5 12.6-5 5.4 4.7 7.6 1 5.2 10.2 7.4-1 1.6-39.2 3.6-9.2 17.5-7.6 8.3-20.1 30.6 4 .4-27.9 9.7-25-6-25.7 8-15.7 35.3 3.2 1.6 11.8 4.8 10.7 15-4.5h9.7l5.2-16 3.8 5 12.4-.4 17.7 10.9 15.4-.5 6.9 10.3 17.7 8 14.5 1.7 10.2 13.4 24.4 1.4 6.5-8.7 11.5 2.3 63.4 46 57 .1 12.6-1.5 15.9-3.8 4.8-21.5 15 .4 6.8-2.5 22.6 11.3 9.7-1.6 8 7.5.8 7.6h12l12 4.2 14.8-.6 13.3 2.3 6.2 10.4 7.8 32.5 3.7 16.3.3 7.3-13 17.4-8.1 14.4-2.8 10.7.5 9.2-1 10.4 3.1 8.1 11.6 13 3.6 12.4 10.2 8.7 1.6 10.7 4.8 14.7 2.3 11.4 9.3 4.3 14.9 13.6 7.6 10v10.8l.7 15.3 15 1.2 3.1 9-9.9 11.2-1 6.2-3.6 14.7.8 10.8-8.4 7-7.3 3.6 5.4 11.2 3.1 8.7-.5 7.2 1.5 3.3 1.8 10v7.8l4.7 9.9-10.6 2.7-26.4 8.5-11.6.5-7-3.8-12.5 10-17.6-1.1-5.7-15.8-10.5-4.1-8.5-1.8-6.5-3.5-9.3 2-8.7 1-4.8 7-5.8 4.1-9.7 11.3-9.7 2.7-2.4 7.7 12.4 8.4 12.9-3 16.5 7.8 9.5-1.9 10 6.4 1 16.1 10.4 11.1v4.7l-4.3 6.6-6 3.1.6 12.1-7.8 9.2-8.5 9-4.3 7.1h-15l-5 4-10.7-7.1-1.3 14.9-5 11.2 8.7 5.2 4.2 11.2.5 7.3 1.1 10.8-9.7 5.3-.5 9-3.9 4.8 2.4 9.1 5.1 7.7 1.6 12.2 14-8.1 3.3 9.5-4.1 7.1-7.6 3.1-.9 6.2 4.3 8.2h9l-.2 7-14 6v5.2l7.8 4.9-6.2 4.4-42.2.5-14.4 11.9-14.5 20.2-15.8 16.3-11.4 10-12.7 10-10.2.6-.5 36.6 3.6 6.5 5.7 3.1 3.6 6.2 1 13.5-12.1-10-7.5-3-10.4-5.2-14.9-4.9-15.6 3.1-10 3.3-9 4.9h-10.5l-7.2-1.4-11 7-15.6 3.6-6.5 4.8v10l-12.9 2.8-5.8 3-8.3-7.3-7.3-3.3-18.5 3.5-16.1-1.2-11 4.2-14.1-3-14.9-1.5-18.7 2.2-8.1.9-10.4 13-9-6.4-8.9 5-17.2 6.3-6 16-6.1 18.4-22 9-11 11.4-11 7.9-10.1 4-.7 7-6.6 9.3-6.5-2.4-9.5-10.6-7 .6-15.2-2.5-4-6.2-27.2 6.2-40.8-3.2-18-15.8-15-.9-10.7 1-21.6-13-15.4 4h-15.4l-14.4-6.7h-20.3l-14.6-8.7-13.5 1-7-3.8-13.6-.5H1022l-9.4-5.4-18.2 6.3-11.4.5-12.8-3.1-19.2-7.3-12.6-6.2-30.7-1.6-42.7-2-6.4-9.8-11.9-6.2-7.9 6.4-12.5-10.4-31.6 1.7-10.6-7.1-18.4-4.2-12.4-8.1-5-8.7-6.2-13.2-9.9-4-8.3-4.4-2.3-6.9v-7.5l4.9-6-12-21.6-11.6 5.6-6.4-8.2-12.4-5.9 3.4-10.2-5.7-8.3-1.4-24.4 19.7-2.3L706 752l-5-5-23 2-16.6 8.4-16 4.6-16.2 2.6-10.5 9.3-16.2 6-15.6 2-2.7 9.4-6.5-2-13.4-7.8-16.1-2-7.2-2.7-18.7 5.7-11.6-10.5-15.4 18-21.6-9.7-43.4 9-11 11-11.8 10.5-.6 11.1-6 11.9-3.7 9.5-11.2 17.5-8.8-1h-18.7l-11.8.5-15-4.5-11.3-7.1-9.9 1 9.6-15.7-13 1.2-9.1-13.5-11.6 1.6-17.5 5.9-21.7-4-6.8-14.5 8.1-15.5-10.2-9.5-10-9-4.8-3.7-8-4-15.5 22.2-7.6 5.1H184l-3 10-6.4 7.8-23.1 9.9-13.3-4-9.1-7.9-8.3-9.3-9.5-4.3-9.2-1.4-11-6-2.7-9 4.5-12v-4.7l-4.8-8.8-8.9-.5-12.9-9-9.9-1.1-19.5-8.8-15.4 3 6-31.8-13.2-13.1-3.4-17.7-6.4-6.2 9.9-7.5-13.5-8.1 19.6-20 3.9-18.3 12 2.3 7.8-6.8-6.8-17.2-1.4-9.2-15.2-6.8-2.6-8.5 11-4.6 11 1.7 12.2-4.7 8-11.2 13-12.4h7l2.5 9.7 4.5 3 7.4 4 13.4-2 8.5 8.3 6.8 6.2 1.8 9.9 10.8 1 5.9 9.3 10.7 4.7-.5 9.9-7.2 3.8 3 7 .4 11.2 16.8-3.1 18.2-3.1v6l-6 13.7V650l-7.9 7.2-.5 8 17.3-.6 38.6-30.9 4-8.6 11.4-10 11.8-13.7-1.6-11-10.8-19.6 4.4-11-6.3-8.7 17.1-4v12.5l20 7.3 13.8-12.5 9.9 2.8 11.9-1 4 5.6 10.1 3 1.9 8.4 8.8-1 24.5-7 2.5 8-9.4 12.1 15 1.6 14.2 18.7-5.3 15.1 39.4 1.4 18.4-13.3 15.3 1-4.6 11.5 17-.3 16.6-20.2h16.8l-5.1-6.5 11.4-14 35.2-2.7 1.5-15.8 17.7-12.9 8.8 4.2 25.8-1 16.1 4.6 5.4-10.1 34.5-4.3 53 3.7-2.5-8.8-2-26.3 20.9-10.7-2.6 14.6 20-3.4 19 3.6 11.7-2v10l14.8 16.3 15.3-6.5L808 520l34 1.4 7.5 8.8 11 13.1-5 10.2-.6 9.2 3 6.7 12 .5 25.3 29.1 10.7-2.7 4.8 3.6 13.3-9.7-8-10.9 7.4-11.2-3-9.1 6.2-6 .5-8.2 7.3-7.4.5-16-21.7-16.2-7.6 3.1-20.3 1.6-2.6-10.7 11.2-14v-8l17.8-20.3-1.4-9.7-9.1-9.6-9.3-19.7-8.1-7-7.6-2zm0 0"/></svg>