<svg xmlns="http://www.w3.org/2000/svg" width="1365.333" height="1365.333" viewBox="0 0 1024 1024"><path d="M591.1 1.1c-2.5.5-5.6 2-7.2 3.5-2.3 2.2-3.1 2.5-4.3 1.5s-2.1-.4-5.3 3.9c-3.1 4.1-4.2 5-6 4.5-1.3-.3-3.1 0-4.1.6-1.5.9-2.7.9-5.2 0-3-1-3.6-.9-5.6 1-2.1 1.9-2.8 2.1-6.5 1.1-3.5-.9-4.8-.8-7.3.5a54 54 0 0 1-10.1 3.3c-8.2 2-7.9-.2-3 20.9 3.2 13.9 4.2 16.1 7.6 16.1q1.6.2 2.7 3.9c1.6 5.3 1.6 5.7-1.5 9.7-2.3 2.8-3.5 3.4-6.6 3.4h-3.8l.6 5.4c.6 4.8.5 5.5-1.3 6.5q-1.9 1-2.6 5.7c-.5 3.9-1.3 5.3-5.4 9-4.7 4.1-4.9 4.6-5.5 10.9a49 49 0 0 1-1.2 7.6c-.4.5-3 2.1-5.8 3.5-6.3 3.3-14.7 10-30.2 24.3-11.9 11-12 11.1-17 11.1-2.7 0-6.7-.5-8.7-1-2.7-.8-6.4-.7-13.9.5a151 151 0 0 1-16.6 1.5c-4.8 0-7.6.6-11.3 2.5a23 23 0 0 1-8.7 2.5c-3.4 0-4.1-.5-6.7-4.6-3.5-5.6-5.5-6.4-15.9-6.4-7.2 0-8.7.3-12 2.5-3 2.1-3.7 3.2-3.7 5.8s-.7 3.6-2.9 4.9c-4.5 2.5-6.6 6.3-5.2 9.4 1.7 3.8 1.4 4.5-1.5 3.4-1.5-.6-4.2-.7-6.1-.4-3.4.6-3.5.8-3 4.5.4 3.3.2 3.8-1.8 4.3a15 15 0 0 1-6.5-.9c-4.5-1.6-14-2.1-14-.7q0 .8.9 1.7c.5.6 1.2 4.1 1.6 8l.8 7-2.1-1.9c-2.1-1.8-2.2-1.8-5.7 1.3-2 1.7-3.9 3.1-4.3 3.1s-1.3.4-2 .9c-1.1.6-.6 2.3 2.2 7.9 2 3.9 3.6 7.3 3.6 7.5 0 1.3-10.7-1.6-15.9-4.2L291 215l-1 2.5a12 12 0 0 0 .1 9.7c1.5 2.8.8 3.1-3.4 1.3l-3.6-1.5-2 5.6c-1.2 3-2.1 7.1-2.1 9.2s-.6 7.7-1.4 12.5l-1.3 8.9-7.7 7.7-7.7 7.8.7 13.6c.6 12.1.5 13.9-1 15.6-1.4 1.5-1.7 4.2-1.9 13.9l-.2 12 48.5 31.9 48.5 31.8.7 32 .8 32-2.6 4.9-2.5 5 2.2 5.3q2.2 5.3 3.7 5.1c1.3-.2 2 2 3.8 12a71 71 0 0 0 3.6 14c13.2 16 16.6 19.6 20.2 21.4a37 37 0 0 1 7.9 5.6c3.3 3.2 3.7 4.1 3.7 8.7 0 2.7.7 10.4 1.5 17 1 8.1 1.5 22.4 1.5 43.9v31.9l3.1 5.3 3 5.4-2.5 3.3a12 12 0 0 0-2.6 6.9c0 2-.7 4.1-1.5 4.8-2 1.6-1.9 2.6.4 5.8 1.7 2.5 1.9 7 3.2 58.7.8 30.8 1.4 68.4 1.4 83.5.1 15.1.5 40.7.9 56.7l.9 29.3-8.3-.7c-7-.5-8.2-.4-7.8.8l2.4 7.2q1.9 5.8 4.9 8.6c3 2.6 3.1 2.8 2.9 11.6a40 40 0 0 1-5.3 20.9c-1.7 2.7-1.8 3.3-.5 5a9 9 0 0 1 1.4 4.6c0 3.1 3.7 6.9 9.6 9.8 6 3 7.6 6 6.8 12.7l-.7 5.5h4.3c3.8 0 4.8.5 8.1 4.1 4 4.3 4.4 5.9 5.5 18.5l.6 8.1-2.9 1.1c-1.7.5-7.6 1.8-13.2 2.8-9.3 1.6-10.1 1.9-10.1 4 0 3.3 1.5 3.7 6.8 2 6-2 25.5-4.6 34.7-4.6 4.4 0 18-2.1 36.5-5.6 24.2-4.6 31.8-5.7 42-6 6.9-.1 15.4-.7 19-1.3s8.8-1.1 11.6-1.1 10.6-1.1 17.4-2.5l12.5-2.5c.1 0 .5-3.5.8-7.8s1.7-11.9 3.2-17.1c2.7-8.9 2.7-9.5 1.2-12.1-2.5-4.1-1.2-8.5 3.5-12.3 3.6-2.9 3.9-3.4 3.6-7.7-.3-3.9-.6-4.5-2.6-4.8q-2.4-.3-4.3-4.6c-1.7-3.9-1.7-4.6-.4-9.1.8-2.6 1.5-6.9 1.5-9.4 0-3.7-.6-5.1-3.1-7.7l-3-3.1 1.7-4.1c1.2-3.3 2.8-4.8 7-7.3a35 35 0 0 0 5.4-3.4c0-.3-1.3-1.1-2.8-1.9-1.7-.9-3.5-3-4.4-5.3-1.4-3.7-1.4-4.1.7-7.1l2.2-3.2-1.9-10.3a92 92 0 0 1-2-26.9l.2-10.7 3.4.6 3.4.5.7-6.2c.7-5.7.5-6.3-1.5-7.7-10.7-7.5-12-11.2-12-33.9v-17l-3.6-3.5c-2-1.8-4.4-4.6-5.5-6l-1.9-2.7 3.5-4.5a17 17 0 0 0 3.5-6.9c-.1-7.1 3.4-28.8 5.2-32.5 2.4-5 1.9-9.3-1.7-16.3-1.3-2.5-3-7-3.8-10.1-1.3-5.1-1.3-5.9.4-9 1-1.9 1.8-4.6 1.9-6a7 7 0 0 1 1.8-4.3c2.9-2.5 4.5-8.7 3.8-13.7a308 308 0 0 1-1.4-20.9c-.5-9.6-1.3-17.8-2-19.5-1.2-2.8-1.1-3.1 1.2-5a6 6 0 0 0 2.6-4.9c0-1.5.7-5.3 1.6-8.4 1.6-5.5 1.6-5.6-.4-7-1.7-1.1-1.9-1.8-1.2-3.2 1.3-2.4 4-15.3 4-19 0-1.6.3-3.1.8-3.3.4-.3 3.5 0 7 .6 5.8.9 6.4.8 8.5-1.2 3.4-3.1 12.9-3 15.1.1l1.5 2.1 8.9-3.8 8.9-3.8 3.8-11.6a135 135 0 0 1 6.1-16.2l2.3-4.7-2.1-12.4c-2.4-14.1-1.9-17.7 3.3-20.3a47 47 0 0 0 12.4-19.7c.9-5 3.6-7.4 6.5-5.8 2 1.1 2.7.7 6.9-3.4l4.6-4.7-3.3-6-3.3-6 1.5-4.7 1.6-4.8 11.5-3.8 11.5-3.7 3.5 2.1c4.1 2.5 5.1 2.1 8.6-3.9 1.2-2 3.7-5 5.5-6.6 3.1-2.8 3.4-3.7 4.4-12.2 1.3-11.9 2.2-14 5.8-14.8 2.5-.5 3.1-1.2 3.6-4.3 1.3-8.3.8-10.3-3.6-14.7a52 52 0 0 1-7.7-10.6l-3.4-6.5 3.7-7.8c2-4.3 3.6-9.4 3.6-11.3 0-3.1.4-3.6 4.6-5.3a24 24 0 0 1 6.1-2c.8 0 4.5 1.8 8.3 4s7.1 4 7.3 4c.9 0 3-6.4 3.8-11.5.4-2.8 1.4-7.4 2.3-10.2.8-2.9 1.8-10.7 2.2-17.3l.7-12H758l-4.1-8.8c-3.9-8.4-4-8.8-2.5-11.5 3.2-5.7 1.2-22.3-3.1-26.9-2.6-2.7-2.6-2.8-1.3-10l1.4-8.2c.1-.5-1.8-1.5-4.1-2.3-3.7-1.3-5.9-3.7-20.4-22.5a424 424 0 0 1-18.7-25.5l-2.4-4.4 2.2-8.4c1.2-4.6 1.9-8.8 1.6-9.4-.4-.6 1-1.5 3.2-2.2 3.6-1 4-1.5 5.1-6.2.6-2.8 2.3-7.7 3.8-10.9l2.6-5.9-2.6-2.7a12 12 0 0 1-2.9-6.2c-.2-2.8-.8-3.6-2.6-3.8-1.8-.3-2.3-.9-2-2.7.2-1.7-1-3.3-5.4-6.9a23 23 0 0 0-7.7-4.6c-1.2 0-3.9-1.6-6.1-3.6-3.8-3.4-4.4-3.6-9.1-3.2-2.9.3-6.6.1-8.5-.5-2.9-.9-3.6-1.9-7.3-10.8-2.2-5.4-4.3-10.9-4.7-12.4-.9-3.7-10.8-11.5-14.5-11.5-2.4 0-3.2-.6-4-2.9q-1-2.8-6-5.5c-4.3-2.4-5.4-3.7-8.9-10.6-3.9-7.8-4-7.9-8.6-8.6-3.8-.5-5-1.3-7.3-4.5C609 8.4 599.5 0 597.4.1c-1.1.1-3.9.5-6.3 1"/></svg>