<svg xmlns="http://www.w3.org/2000/svg" width="1365.333" height="1365.333" viewBox="0 0 1024 1024"><path d="M116.2 220.6c-3 1.3-9.4 3-14.3 3.8-8.1 1.2-9.3 1.6-12.7 4.9-2 2-6.3 4.7-9.4 6.1-6.1 2.7-6.1 2.8-5.2 6.3.6 2.2 1 2.3 12.4 2.3 12.6 0 17.1 1 21 4.5 1.4 1.3 3.5 2.6 4.7 2.9 1.7.5 2.3 1.9 3.2 7 1.5 8.8 1.4 11.4-.8 14.5a29 29 0 0 0-3.2 8.9c-1.1 5.2-1.9 6.7-5 9.1-3.6 2.9-3.9 3-17.5 3.4a56 56 0 0 0-18.4 2.1c-2.5 1-8 2.1-12.3 2.4-7.1.4-7.8.6-8.3 2.8q-.7 2.4 2.1 6c2.2 2.8 3.1 3.3 4.8 2.7 1.2-.4 6-.7 10.7-.5 6.9.3 9.4.8 13.5 3 4.3 2.4 5.2 3.5 7.3 8.7 1.4 3.3 2.8 9.1 3.2 13a61 61 0 0 0 4.4 15.6l3.7 8.6 5.2 1.5c2.8.9 7.9 2.2 11.2 2.8 9.1 1.7 9.2 1.8 10.8 5.8 1.3 3.1 1.3 4.2.2 6.9-1.3 3-1.2 3.5 1.6 7.2 2.4 3.5 3.5 4.1 6.4 4.1 3.1 0 3.9.6 6.5 4.7 1.6 2.6 3.2 5.4 3.5 6.3s2.9 2.7 5.8 4c10 4.5 15.2 8.7 17.8 14.3a91 91 0 0 0 6.9 11.8l4.5 6.7 9.5.4c11.4.5 20.8-1.2 25.4-4.7 3.2-2.4 3.4-2.4 11.9-1.3 8.2 1.1 8.8 1.3 12.8 5.4 4.2 4.2 4.2 4.5 4.4 11.6 0 4.1.5 7.9.9 8.6s5.1 3.3 10.4 5.8c22.5 10.5 22.2 10.3 25.3 16.9 3.4 7.1 3.8 13 1 13.8q-1.8.6-2.6 3.6c-.7 3.4-3.5 4.3-3.5 1.1q.2-2.1-2.9-2c-2.4 0-2.9.5-3.3 3-.4 2.4 0 3.1 2.2 4 2.1.9 3.4 2.8 5.4 8 2.6 6.4 3.2 7.2 8.4 10.2 3.1 1.8 9.7 7.1 14.5 11.9 8.4 8.3 8.8 8.8 9.9 14.8 1.1 5.7 1.6 6.5 5.2 9.1 2.3 1.5 5.6 5.3 7.5 8.4l3.4 5.7-1.9 4.1c-1.5 3.4-2.8 4.5-7.2 6.5-3 1.3-5.5 2.3-5.6 2.1l-3.7-4.8c-2-2.5-5.3-7.1-7.3-10.3-3.2-5.1-3.6-6.1-2.8-9.1 1.2-4.2-.1-6.7-5.8-11.2-3.9-3.1-4.9-3.4-10.8-3.4-5.4 0-7.2.4-10.3 2.6-6.6 4.5-9.3 14.6-6.8 25.4 1.1 5 15.5 24.8 20.7 28.7a139 139 0 0 1 8.8 7.6l5.9 5.4 13.3.1c14.9.2 17.1.9 22.1 6.9 2.8 3.4 3.1 4.3 2.5 8.3-.4 2.5-1.3 5.2-2 6.1-2.1 2.4-1.7 3.9 2.6 10.4a34 34 0 0 1 4.5 8.6c.7 3.2 7 9.3 10.9 10.6 2.4.7 3.4 2.2 6.2 9.3 4.4 10.8 11.3 18.3 18.9 20.6 3.9 1.1 7 3.2 13.6 9.3 8.5 7.9 8.6 8 11.9 17.9 2.9 8.6 3.8 10.2 6.6 11.7 1.7.9 6.6 4.9 10.8 8.8l7.8 7.2 2.4 10c1.3 5.5 2.4 13 2.4 16.7 0 7.5 2.5 13.2 6.3 14.4 1.2.4 3.5 1.6 5.1 2.7s5.3 2.6 8.2 3.3q5.3 1.2 10.1 5.2a16 16 0 0 0 11.3 4.6l6.6.7 1.2-4.6c.6-2.5 1.2-6 1.2-7.8 0-3.3 2.7-11.1 6.1-17.9q2-3.9 5.4-5.4c3.5-1.4 3.6-1.6 5.5-10.4a114 114 0 0 1 6.9-20.4c2-4.5 2.3-4.8 3.5-3.1 1.3 1.8 1.4 1.8 2-.3.7-2 .2-10-1-16.4-.5-2.3-.1-2.8 3-3.8 1.9-.6 8.2-4.3 14-8.1l10.5-7 4 2.7c3 1.9 4.2 3.5 4.7 6 .5 2.9 1.2 3.5 6.1 5.1l5.4 1.8 4.9 11.9c6.2 14.8 8.6 18.2 14 19.1q4 .7 4.1 2.3l1.2 12.7 1.2 11 3 .6c1.7.4 4.6.7 6.5.8 3.5.1 3.6 0 8-8.8l4.3-8.9-.6-14.5c-.7-19-.8-18.7 5.9-18.7 3 0 5.4.4 5.4.9s2.3 3.5 5.1 6.5l5.1 5.6H642l-2.1-4c-3.4-6.6-3.2-23.8.5-40.4 3.2-14.5 3.6-15.2 14.1-20.7 3.3-1.7 9.8-5.4 14.4-8.2l8.3-5 9.2.6q22.8 1.5 25.7 12.1A56 56 0 0 0 721 689c.5 0 3.4-.9 6.4-2 3.9-1.5 5.6-2.7 6-4.4.5-2.2 3.8-3.6 8.1-3.6 2.3 0 4.7 8.6 6 21.8.7 7.4 1.5 13.6 1.7 13.8.3.2 1.8 0 3.5-.5 3-.9 3.5-.5 13.1 9.2 5.4 5.6 11.2 12.4 12.7 15.1l2.8 4.9 4.5-5.2c3.4-4 5-5.1 7.3-5.1q2.9 0 6.9-3.6c3.6-3.3 4.3-3.5 9.2-3.2l5.2.3.8-4.8c.5-2.6.5-5.5 0-6.3-1.4-2.4-.2-6.4 1.8-6.4q1.8.2 2.9-4.6c1.1-4.2.9-5-1.9-10.8-1.6-3.5-3-8-3-10s-.7-5.3-1.6-7.4c-.8-2-2.2-8.8-3-15.1-1.2-10-1.2-12.1.1-17.1.8-3.2 1.5-7 1.5-8.6s.5-6.8 1.1-11.6l1.2-8.9 11.6-9.5c19.4-15.8 30-20.4 47.5-20.4h9.3l6.8-4.9c4-2.9 8.7-5.4 11.5-6.1l4.8-1.1 3.9-9.2c2.2-5.1 4.6-10.6 5.2-12.4a46 46 0 0 1 15.8-13.7c1.8-.9 5.1-1.6 7.4-1.6 3.6 0 4.7-.5 7.3-3.6 2.4-2.8 4.4-3.9 9.1-5 8.6-2 9.1-1.9 12.5 3.1 2.5 3.6 4 4.8 7.6 5.7 5.9 1.6 13 9.8 13.9 16.2.8 5.2 4.2 8.2 16.2 14.2l8.3 4.2 2.9-5.1a36 36 0 0 0 5.2-18.2c-.2-5.6-13.6-45.7-17.7-53.1-4.4-7.9-4.8-15-.9-16a10 10 0 0 0 4.6-3.5q2-2.8 4.4-2.9c3 0 8-7.8 8.9-14 .4-2.5 1.4-6.6 2.2-9.3 1.5-4.5 1.5-5-.7-10.3a24 24 0 0 0-7-9.5c-3.4-2.9-5-5-5.9-8.4l-1.3-4.6 4.7-4.7c4.4-4.5 4.6-5 4.6-10.5 0-4.8-.5-6.5-3.8-11.5a47 47 0 0 1-5.2-11.6c-1.3-5.4-1.4-5.6-4.7-5.6s-3.3 0-3.3 5c0 4.8-.2 5.1-5.1 8.7a34 34 0 0 0-8.4 9.8c-3 5.5-4 6.3-10.2 9.2a76 76 0 0 1-11 4.3c-2.4.6-4.3 1.3-4.3 1.5s.8 1.9 1.9 3.7c1.1 2 2.1 6.3 2.5 11l.6 7.7-8.6-.6c-4.7-.3-11.7-1.3-15.6-2.2l-7.1-1.6-2.3-6.7c-2-5.9-2.1-7.6-1.3-13.5s.7-7.3-1.4-12.8a53 53 0 0 1-3.1-12.2c-.6-5.3-1.5-7.6-5.9-14.2-5-7.7-5.4-8-10.3-9.1q-5.1-1.1-7.8 0c-6.4 2.4-8 1.6-12.6-6.3-2.4-3.9-5.9-9.2-8-11.7s-5.2-7.3-6.9-10.8c-4-7.9-4.1-15.1-.2-27.2l2.7-8.5 15.2-.3c13.9-.2 15.2-.4 16.2-2.2 1.9-3.5-.1-6.8-9.2-15.1l-9-8.3-4.5 2.5c-2.4 1.3-7.4 4.6-11.1 7.4-8.4 6.3-8.5 7-7.9 32.1.5 19.1.5 19.1 3.7 25.5 1.8 3.5 5.4 8.9 8 11.9s7.2 8.8 10.3 12.9c5.6 7.2 5.7 7.4 5.7 14-.1 4.9-.8 8.2-2.8 13-2.7 6.2-2.9 6.4-9.2 8.8-7.7 2.9-9.8 2.6-22.2-2.4l-8.7-3.6-2.5-5.9a30 30 0 0 1-2.6-14.6c0-4.8.4-9.2.8-9.9s3.3-2.4 6.5-3.8c6.1-2.7 6-2.4 4-9.8q-.9-2.7-11.5-1.1c-2.8.5-3.8 1.1-3.8 2.6q-.1 3.8-10.9 3.8c-5.1 0-6.3.4-12 4.4-8.7 6.2-12.9 11.3-13.6 16.7-1.6 11.6-1.2 10.9-5.3 10.9a91 91 0 0 1-21.2-3.7c-1.3-1.5-3-7.6-3-10.9 0-2.5.7-3.9 3-5.6 2.4-1.7 3-2.9 3-5.9 0-3.3.3-3.8 2.8-4.4 1.6-.3 5.6-3.3 9.2-7l6.3-6.4-3.8-4.3a34 34 0 0 0-8.1-6.5l-4.2-2.2-.7-7.8-.8-10.3c-.2-2.3-.6-2.5-4.7-2.5h-4.5l-.5 5.9-.5 5.9-4.8 1.2c-2.7.7-6.9 2.7-9.5 4.5l-4.6 3.2-7.1-3.5c-3.8-1.9-9-3.8-11.5-4.2s-6.9-1.3-9.8-2.2c-4.5-1.2-5.4-2-6.7-5-.8-1.9-1.5-6-1.5-8.9 0-4.7-.3-5.6-2.7-7.1a19 19 0 0 1-4.1-3.5c-.7-1-2.6-1.8-4.2-1.8-2.2 0-3.4.9-5.6 4.4a46 46 0 0 1-18.3 13.7l-3.3 1.2.7 6.1c.3 3.3 1.5 8.3 2.4 11.1l4.1 11.2 2.2 6.3-3.7 6.5c-2 3.6-5 7.5-6.7 8.8a52 52 0 0 0-11.4 18.4c-.4 2.1-1.9 3.6-5.5 5.6-3 1.7-5.1 3.7-5.3 5l-2.2 12.1c-1.5 9.1-2 10.2-5.6 14.2-3 3.3-5.5 4.8-10.6 6.5-3.7 1.2-8.9 3.3-11.6 4.6-4.4 2.2-5.8 2.4-12.5 1.9l-18.6-1.3c-9.4-.7-11.7-1.2-15.8-3.6-5.6-3.3-6.2-6.5-2.1-10.8 2.1-2.2 2.4-3.2 1.9-6.2-.4-2-1.6-4.4-2.6-5.3-1.8-1.6-2.5-1.7-7.7-.4-3.1.7-8.3 1.5-11.4 1.7-5.5.5-5.8.6-9.7 5.8q-6.1 8.2-11.1 5.5c-2.3-1.2-4-1.3-4-.1 0 .5-1.6 4.7-3.6 9.4l-3.5 8.6-7.2 2.9c-4 1.6-8.4 3.2-9.8 3.6-1.9.4-3 1.7-4.2 4.8-1.6 4-1.6 4.3.7 9.4 1.8 4 3.6 6 7.1 8.2l4.6 2.8-3.3 4.2c-1.8 2.3-6 6.4-9.3 9.2-5.3 4.5-6.4 5-10.6 5a28 28 0 0 0-6.3.6q-1.7.9-1.6-1.9c0-3.8-4.9-4.5-11.3-1.8l-4.7 2-11.3-4.8c-6.1-2.7-14.5-5.9-18.6-7.2-6.8-2.2-7.7-2.8-10-6.8l-7.3-11.6c-4-6.4-4.6-7.8-4.1-11.2.5-3.8.8-4.1 6-5.8 4.6-1.6 5.8-2.5 7-5.3 1.1-2.7 1.2-4.1.3-6.6a54 54 0 0 1-2-9.6c-.4-3.6-1.3-8.4-1.9-10.8-1.1-4.1-1.3-4.2-5.4-4.2-3.1 0-5.5.9-9.3 3.4-4.8 3.3-5.2 3.4-10.5 2.4-4.1-.7-6.3-1.8-9.1-4.6-2.1-2-4.1-4.5-4.4-5.6-.4-1.2-2.8-4.6-5.4-7.6-5.2-6-12-18-12-21.1 0-1.1.7-3.3 1.5-4.9 1.4-2.7 2-3 6.4-3s5-.2 6.1-3c1-2.3 1-4 .1-7.3a51 51 0 0 1-1.3-9.2l-.3-4.9-6.9-2-6.9-2-3.6 2.1c-2.8 1.6-5.7 2.2-12.1 2.4a25 25 0 0 1-15-2.8 33 33 0 0 1-8.2-5c-2.2-2.4-5.8-19.6-5.8-27.7 0-6.1 0-6.1-4.6-9.9-2.6-2-5.1-3.7-5.6-3.7l-14.1 2.4c-7.3 1.3-16.3 2.8-20 3.1s-7.4 1.4-8.2 2.2-2.2 3.6-3.2 6.3c-1.7 4.7-2.1 5.1-9.3 8.3-13 5.9-13.7 6-32.4 5.3-9.4-.3-18.6-.9-20.4-1.2-3.5-.7-3.7-1-4.7-10.7-.6-5.3-.9-5.9-5-8.7a16 16 0 0 0-6.7-3c-3.8 0-6.8 2.7-6.9 6.3q-.3 7.8-3.4 8.6c-1 .2-5.1 1.8-9.1 3.6l-7.2 3.3-3-3.2c-1.6-1.7-5.5-7.5-8.6-12.8-5.5-9.4-5.6-9.9-5.4-16.6.1-3.7-.1-7.3-.5-7.9s-5.3-2.7-10.9-4.8a95 95 0 0 1-11.5-4.8q-3.4-2.6 2.6-2.7c3.8 0 3.9-.1 7-7 1.7-3.9 3.1-7.9 3.1-9 0-5.6-11.9-23.2-15.5-22.9-.5 0-3.4 1.2-6.3 2.5M18 303.9c-2.4 1.9-2.4 2-.8 5.5 2.1 4.3 10.3 8.9 15.1 8.4l3.2-.3-.3-6c-.3-4.8-.8-6.4-2.5-7.7-3.1-2.4-11.4-2.4-14.7.1m-18 7.7c0 4.5 0 4.5 3.3 4.2 3-.3 3.2-.6 3.5-4.6l.3-4.2H3.6C0 307 0 307 0 311.6"/></svg>