<svg xmlns="http://www.w3.org/2000/svg" width="1365.333" height="1365.333" viewBox="0 0 1024 1024"><path d="M224.3 7a33 33 0 0 1-12.2 10.6c-6.1 3.3-7.2 4.4-8.9 8.3-1.8 4.4-2.2 4.7-10 7.6l-8.2 2.9v4.3c0 4-.2 4.3-2.8 4.3q-2.9 0-5 2.9c-2.1 2.9-4.1 3.6-8.7 5.1-5.8 1.9-6.5 2.4-6.5 4.8 0 2.1-.9 3.2-3.8 4.9-3.6 2-4.1 2.9-6.6 11.5a84 84 0 0 1-5.7 14.4c-2.7 4.8-2.9 5.8-2.9 16.5 0 8.7-.4 12-1.5 13.7-1.4 1.9-1.4 2.5 0 5.3 1.7 3.1 1.7 3.1-1.9 6.1l-3.6 2.9 2.4 4.8c2.2 4.2 10.2 32 9.4 32.5L137 174c-9.1 3-10.7 4-12.8 7s-2.3 4.2-1.7 9l1.5 15c.4 5.2 1.1 10.4 1.6 11.5s5.6 7.7 11.6 14.7L148 244v8c0 4.5.5 12.3 1.1 17.3a37 37 0 0 1-.9 17.6l-2 8.3 4.7 7.8 4.6 7.8 9.5 2.7c5.2 1.5 14 4.4 19.5 6.6a182 182 0 0 0 16.6 5.4c6 1.3 7.1 1.3 11.9-.1 4.6-1.4 6.4-1.4 13.9-.2 5.4.8 15 1.2 26.1 1 9.6-.2 27.6.2 40 .8 21.6 1.1 22.9 1.1 33-1 18.7-3.8 18.9-3.8 26.7 1.3 4.9 3.1 11.6 6 22.8 9.7 8.8 2.9 18.9 6.6 22.5 8.2a91 91 0 0 0 24.7 6.8c1.6 0 7.7 2 13.5 4.5a39 39 0 0 0 16.5 4.5c5.6 0 6.1.2 13.3 6 4.1 3.3 10.7 7.9 14.5 10.2 7.7 4.5 9.6 6.1 20.8 16.1l7.6 6.9 10.7 2.1 10.7 2.2 3.1 8.6c2.8 7.9 3.6 9.1 8.7 13.2 5.3 4.4 5.8 5.2 9.3 14.9 1.9 5.7 4.4 13.4 5.5 17.3 3 11.3 8.9 24.6 13.6 30.7a58 58 0 0 1 12 25.6c.7 6.1.9 6.5 5.5 9.8 2.6 1.9 7.8 6.8 11.4 10.9l6.7 7.4 6.8 21 6.8 21-2.4 16.8-2.4 16.8-11.7 12c-10.4 10.6-12.2 13-15.7 20.5a56 56 0 0 1-8.5 13.6c-3.6 3.8-4.9 6.1-5.5 9.4-.8 4.6-1.8 5.9-11.7 14.6a18 18 0 0 0-5.9 8.2c-1.1 3.7-.9 4.8 1.5 11.4a65 65 0 0 0 15.6 24.3l6.6 7 12.3 37.9c13 40.1 15 49 15.1 65.1 0 6.9-.6 11.3-2.6 18-2.4 8.3-2.6 10.4-2.5 26l.2 17 6.2 6.3c4.4 4.5 8.7 7.6 14.7 10.7 17.2 8.8 31.6 27.6 41.6 54.3l3.9 10.4 8 5.8c15.2 11 21.5 16.6 26.1 23 5.8 8.1 6.5 8.6 12 9.5 3.5.5 6.5 0 14.2-2.4 5.3-1.7 12.7-3.3 16.3-3.7l6.7-.5 3.7-5.5a75 75 0 0 1 12-12c12.1-9.6 16.5-16.2 25.3-38.9l7.5-19 .4-19.5c.4-16.2.2-21.5-1.5-31.6a46 46 0 0 0-8.5-23.3 75 75 0 0 1-9.7-22.4c-3.2-11.2-3.2-11.2-2.5-28.7.4-9.6 1.1-19.5 1.6-21.9 1.2-5.4.4-6.1-6.8-6.1a25 25 0 0 1-8.8-1.7c-3.5-1.7-3.8-1.7-6.7 0-2.1 1.2-5.2 1.7-10.7 1.7h-7.8l-1-4.5-1-4.5 3.3-.6c3.8-.7 3.9-1 2.3-5.1A51 51 0 0 1 741 762c-.8-8.2-.7-8.7 2-13 4.9-7.9 5.6-13.1 3.7-26.7a65 65 0 0 1 .5-30.5c1.8-8.5 2.8-11.1 5.6-14.6 3.4-4.1 3.6-4.2 8.1-3.7 3.3.5 6.3 0 10.6-1.5 5.4-1.8 6.7-1.9 13.5-.9 7 1 8.1 1.5 15.4 7.2 7.6 5.9 8.1 6.5 9.9 12.5 1.7 5.9 2.1 6.4 6.1 8.1s4.3 2.3 5.5 7.3c1 4.3 2 5.8 4.6 7.5 2.7 1.8 3.4 3 3.9 7l.7 4.8-6 6.3-6 6.3-4.2-2.6c-2.2-1.5-4.2-2.5-4.4-2.3l-1.4 2.5c-1 2-.7 2.7 2.2 5.9l3.3 3.6 7.8-2.4c7.4-2.2 8-2.6 11.1-7.3 2.9-4.5 4.3-5.6 15.1-10.9l11.9-5.8 10.2-15.2c5.6-8.3 14.7-22.7 20.3-32 11.7-19.5 12.8-23.2 9-30.6-2.4-4.6-2.3-3.9-.4-22.2.6-5.1.2-6.8-4.9-20-3.1-7.8-6.1-16.6-6.8-19.3-.7-2.8-3.8-11.5-6.9-19.5q-5.7-14.5-6.5-20.8c-.8-6.3-2.8-12-7-22.7a81 81 0 0 1-7-24.8c-.6-7-1.3-9.5-4.9-16.2l-4.1-8-7 .3c-5.1.2-8.1.9-11.3 2.7l-4.3 2.4.6-3.2 1.1-4.8q.8-2.8 12.9-6.4c7.3-2.1 8.5-3 8.5-6.4a44 44 0 0 1 6.2-12.5c7.4-11.8 8.8-17.6 7.4-29.6l-.9-7.9 3.7-4.9c2-2.7 4.1-7.2 4.8-10.1l1.1-5.1 5.9-1.6c5.5-1.6 6.1-2 8.4-6.5a182 182 0 0 0 5.4-13c2.8-7.7 3-9.2 3-22.3v-14.1l-6-3.3c-3.3-1.8-12-5.6-19.3-8.3l-13.2-5.1-11.8.5a42 42 0 0 1-15-.8c-2.8-1.1-4.2-1-11.6 1.2l-8.4 2.4-13.9-1.6a49 49 0 0 1-20.9-5 24 24 0 0 0-14.1-3.5c-10.8 0-31.4-2.8-48.4-6.5a89 89 0 0 1-25.5-8.6c-10.1-5.1-10.7-5.2-20.4-5.7a352 352 0 0 0-25.8.6c-15.8 1-15.9 1-22.8-1.5-6.3-2.4-7.1-3-8.8-6.8-1-2.4-6.3-9.4-11.6-15.6l-9.8-11.4-20.4-10.3c-11.3-5.6-21.2-10.2-22.1-10.2s-8.6-3.6-17.2-7.9-18.9-9.3-23.2-11a100 100 0 0 1-13.5-6.7 29 29 0 0 0-10.8-4.5c-3.7-.6-5.7-1.6-7.5-3.7-1.4-1.6-5-4.7-8-6.9-4-2.9-6.2-5.4-7.9-9.1-1.9-4.1-3.7-6-8.6-9.2a225 225 0 0 0-33-15.1c-3-1.1-4.9-2.8-7.7-7.1-2.1-3.1-5.8-7-8.2-8.7q-4.3-3-4.9-6c-.5-2.4-2-3.7-8-7a29 29 0 0 0-10.9-4.1c-4.3 0-6.8-3.8-6.8-10.4 0-4.3-.5-5.1-7.3-12.8-4.1-4.6-8.2-9.9-9.2-11.8s-3.9-6.7-6.6-10.6-7.5-13.6-10.9-21.6l-6.2-14.5-6.3-2.2a66 66 0 0 1-12.6-6.5l-6.4-4.3-4.2 2-4.2 2-4.5-4.1a23 23 0 0 0-8.8-5.2c-19.1-5-22.4-6.2-27.4-9.7C245.6.7 244 0 236.5.1h-7z"/><path d="M482 514.8a32 32 0 0 1-14.5 5.2l-5.9.5-6.3 10c-11.5 18.4-20.6 36.5-21.3 42.2l-.6 5.3h4.5c2.6-.1 11.1-.9 18.9-1.9 14.1-1.8 14.6-1.8 24 .2 7.4 1.5 11.5 3 17.3 6.3l7.6 4.4h10.6c9.8 0 11.5-.3 19.9-3.5 8.4-3.1 9.8-4.1 14.9-9.7a44 44 0 0 0 10.9-29v-6.5l-15.2-11.9-16.5-12.7c-2.6-1.6-19.7-3.7-29.8-3.6h-10z"/></svg>