<svg xmlns="http://www.w3.org/2000/svg" width="1365.333" height="1365.333" viewBox="0 0 1024 1024"><path d="M325.5 30.4c-3.8 1.3-11.2 4.4-16.2 6.9-7 3.6-10.4 4.7-13.8 4.7-2.9 0-6 .8-8.4 2.2-3.2 1.8-4 3-4.7 6.5l-.9 4.4-5.7-3.6c-5.3-3.4-6.4-3.7-14-3.8a43 43 0 0 0-10 .6c-1.3.7-2 .1-3.3-2.2l-1.6-3.1h-18.2l8.4 6 8.4 6-.4 8c-.3 7.5-.1 8.4 2.4 12 2.3 3.2 2.6 4.5 2 7.8-.7 4.4-1.1 4.2 11 5.7l6.3 1c1.9.7-7 8.3-11.4 9.9-2.9 1-4 2-4.4 4-.3 1.4-1.8 4.2-3.4 6.2l-2.8 3.6-2.5-2.4-2.5-2.3-3 3.7a32 32 0 0 1-8.8 6.9c-4 2.1-6.9 4.7-9.6 8.4-4.1 5.6-5.4 6-5.4 1.9 0-3.1-.4-3-8.5.6-7.6 3.4-6.3 3.8-15.9-4.7-5.2-4.7-6.5-5.3-10.3-5.3H174v-5.6c0-5.1-.4-6.1-4.6-11.5-5.1-6.7-4.7-6.7-13.7-.1l-4.9 3.5-3.6-1.9-4.4-2.2q-.8-.2-.8 1.6c0 2.8-7.7 3.6-24.7 2.7l-13.3-.7-2 4.6c-1 2.5-2.2 6.9-2.6 9.6l-.7 5 4.4.1c2.4 0 6.4.8 8.9 1.7 3.8 1.5 4.6 2.3 5.3 5.5.5 2.1.7 4.1.4 4.4s-2.1-.4-3.9-1.5l-3.3-2-7.2 3.3-7.3 3.4v19.2l5.9 5.4c5.2 4.9 6.2 6.5 9.1 14.6l3.3 9.1-2.2 6.2a88 88 0 0 0-3.3 25.1l-1 19L103 251q-4.8 12.5-6.2 12.2c-.7-.2-3.7-.6-6.7-.9-4.2-.5-5.7-.3-6.5.9a32 32 0 0 1-14 6.8c-7.5 0-25.4 5.8-29.6 9.6-1.4 1.2-5.7 4.3-9.7 6.8-7.7 4.9-8.7 7-8.2 15.6q.3 3.5-2.5 7.7l-2.8 4.2 1.7 5.8 1.7 5.8-2.4 1.4c-1.2.8-4.4 3.7-7 6.3-3.7 3.6-4.8 5.5-4.8 7.9q-.1 3.1 2 3.6 4.1 1-.8 3.1c-6.7 2.9-9.9 9.7-5 10.4q2.4.1 2.8 3.8c.7 4.3 13.9 24.3 18.8 28.6l3.6 3.1-2.7 4.6c-1.5 2.5-2.7 4.8-2.7 5.1s3.1.6 6.9.6 9.2.5 12 1.2c4.6 1 5.1 1.4 5.1 3.8 0 1.5.7 3.4 1.6 4.1s2 2.3 2.4 3.5c.9 2.3 5.1 3.4 13.5 3.4 4.7-.1 5.6-.5 15.5-8 5.7-4.4 11-8 11.6-8s1.7.7 2.4 1.5c1 1.2.8 2.5-1 6.9-2.1 5-2.2 5.9-1.1 13 .6 4.2 1.1 9.7 1.1 12.1 0 3.9.4 4.6 3 6 4 2.1 6 1.9 10.2-1 3.5-2.4 4.4-2.5 17.5-2.5 7.6 0 15.2.4 16.8.8 4.8 1.4 11-.7 14-4.7 1.4-2.1 4.3-4.2 6.8-5.1 2.3-.9 7.1-3.7 10.6-6.3s7.4-4.7 8.7-4.7q2.3-.1 4.1-2.6c2.3-3.6 8.3-7.2 16.6-10 5.5-1.9 9.2-2.4 16.8-2.4 11.3 0 11.7.4 9.3 9.3-1.9 7-1.8 13.7.2 16.6 1.2 1.7 1.5 3.5 1 6.8-.3 2.5-.2 6.2.4 8.2l1.5 6.3c.4 2.1 1.5 3 5.4 4.3q5 1.6 7.6 5.1t5 3.4c2 0 2.5.7 3.1 3.5.6 3.1.9 3.5 5.1 4.1 2.5.4 7.6.4 11.4.1 5.3-.4 7-.2 8 .9 2.3 2.8 6.8 4.5 8.8 3.5 1.4-.8 2.4-.4 4.6 1.9 1.6 1.7 3.6 3 4.5 3s3.1 1.1 5 2.5c2.5 1.8 4.6 2.5 8.2 2.5 4.3 0 4.8.3 5.4 2.5.3 1.4 2 3.6 3.8 4.9 2.7 2 4.7 2.4 14.6 3 14.6.8 16.2 1.1 20.5 5 2.9 2.5 3.6 4.1 4.3 8.6.6 4 2 7.3 5 11.7q4.2 6.3 4.2 9.5c0 3.3 0 3.3-4.5 3-4.1-.4-4.5-.2-5.1 2.3-.5 2 0 3.4 2.3 6.3 2.2 2.7 3.1 5.2 3.5 9.2.4 3 1.4 7.4 2.3 9.7l1.7 4.3 15.7.1c8.6.1 18.3 0 21.7-.1 7.2-.2 8.3 1 5.9 6.7-.9 2-1.5 6.6-1.5 10.7v7.1l7.3 4.7c3.9 2.6 8.4 5.2 10 5.9 3.8 1.7 5 6.9 4.9 20.6V634l-4 4.7a46 46 0 0 0-8.2 21c0 3.5 4.1 17.8 6.1 20.9 2.4 3.9 2.5 10.5.2 18.9-1.4 5.4-1.5 6.8-.4 8.8 1 1.8 1 3 .2 4.5-1.9 3.5-1.3 4 5.8 5.2 5.9 1.1 7.5 1.1 11.6-.4 4.5-1.5 5-1.5 6.6 0 1.7 1.5 2 1.5 4.5-.5q4.2-3.3 4.4.5c0 1 1.4 1.4 5.6 1.4 4.8 0 6.2.5 9.5 3.1 2.2 1.7 4.4 4.1 5.1 5.2a85 85 0 0 1 5.4 24.5c.7 7.8.9 8.4 3.6 9.8 2.5 1.3 3.6 1.3 10.8-.4l8.1-1.9 1.8 2.3c5 6.4 4.8 16.4-.8 31.1-3 8-3 8.3-1.1 9.3 1 .5 3.2 1 4.8 1s5 .9 7.4 2c6.5 2.9 7.8 6.8 7.7 23.5 0 12.9 0 13-2.7 15.1a49 49 0 0 1-8.7 4.4 50 50 0 0 0-12.4 7.9c-3.4 3.1-8.8 7.7-12 10.2-11.8 9.7-22.8 21.3-24.1 25.4-.7 2.2-3.5 6.6-6.1 9.8-2.7 3.2-5.6 7.2-6.6 8.8s-2.6 3.2-3.8 3.5c-1.1.4-3.6 1.9-5.6 3.5-3 2.3-3.5 3.3-3.1 5.8.3 2.4 1 3.1 3.5 3.7 2.6.5 3.4.2 5.4-2.2 2.9-3.7 7.8-3.5 10.8.4 1.1 1.5 4.8 5.5 8.2 9 3.5 3.4 6.3 7.1 6.3 8.1s.8 2.5 1.9 3.5c1.6 1.5 1.9 1.5 3.1.1.7-.9 2.2-2.1 3.3-2.7 1.8-.9 2.8-.2 8.2 5.6 5.1 5.5 6.7 6.6 9.4 6.6s4.4 1.2 10.7 7.8l8.1 8.4 10.2 9.8c8.2 7.9 16.9 14 20 14 .5 0 2-1.7 3.2-3.8s6.4-8 11.4-13.2 10.7-11.8 12.5-14.5c1.9-2.8 6.5-8.8 10.4-13.5 11.4-13.6 12.7-15.6 14.3-21.6q2.8-11 18.4-25.9c8.8-8.4 20.9-22.8 20.9-24.8a51 51 0 0 1 3.5-8.5c3.3-6.9 3.4-7.5 2-10.2-.8-1.6-1.5-4.6-1.5-6.6 0-2.1-.7-6-1.6-8.8-1.6-5.1-1.5-5.2 2.1-17.1 5.4-17.8 8.2-22.4 17.4-28.9 4.2-3 11-8.7 15.1-12.8a58 58 0 0 1 25.6-16.5l8.2-2.6 6.2 2.6c3.4 1.5 6.6 2.7 7.1 2.7s1.8-1.4 2.8-3.1c1.5-2.4 1.7-3.8 1-5.7-.5-1.4-.8-2.7-.5-2.9.2-.3 3.6-1.5 7.5-2.7 7-2.2 7.1-2.3 5.1-4.1q-4.2-3.6 3.7-3.5 4.7 0 5.9 1.7c1.2 1.7 1.7 1.4 6.3-3.2l5.1-4.9v7.2l16.3.6 22.7.9 6.5.2 1-6.1c1.3-7.8 3.6-10.5 11.5-13.3q13-4.6 13-14.2c0-3.8.5-5 3.4-7.8q3.4-3.3 4-7.1c.5-3.2 1.7-4.7 8.5-10.1 7.1-5.8 8.1-6.9 9.6-12.1 1.4-4.5 2.4-6 5.1-7.4 2.8-1.5 4-3.4 7.3-11.4a49 49 0 0 0 4.4-16c.8-11.6 3.5-18.9 8.8-24.1l4.7-4.6 1.6-13.4c.9-8.1 2.8-17.6 4.7-23.9a86 86 0 0 0 3.9-29c.6-15.7 1.2-20.6 3.9-32.5 1.8-7.7 4.3-16.5 5.5-19.5l2.2-5.5 5.6-.5 5.7-.5 6.3-8.5c6.6-8.7 14.6-21.6 19.1-30.6 1.5-2.9 4.8-7 8-9.7 3.1-2.6 7.2-6.9 9.1-9.6 3.1-4.1 4.5-5.1 8.7-6.2 4.4-1.2 5.8-2.3 12.7-10.1 20.4-23.4 23.3-27.3 29.4-39.3 11.7-23 13.4-30.3 9.3-40.4a38 38 0 0 1-2.5-10.7c0-7.7-2.2-19.8-4.2-23.3-1-1.9-2.2-6.3-2.5-9.9-.6-6.3-.8-6.7-6.5-12.4l-5.8-5.8h-10.7a65 65 0 0 1-56-27.7c-3.8-5.4-5.7-7-11.7-9.9q-7-3.7-14.1-10.5a33 33 0 0 0-17.3-10.4c-10.2-3.5-10.9-3.6-32-4.5-13-.5-24.1-1.5-27.7-2.4-3.3-.8-8.4-1.5-11.3-1.6-4 0-7-.9-12.4-3.6-3.9-2-10.1-4.2-13.8-5s-7.4-1.6-8.2-1.9-2.3.7-3.6 2.5c-1.9 2.5-2.9 3-6.6 3-4 0-4.7.4-8.1 4.6l-3.8 4.6-1.3-2.3c-1.2-2.2-.9-2.7 2.7-6.4 2.1-2.3 3.9-4.8 3.9-5.6s-2-3-4.4-4.8c-3.7-2.8-4.6-4.1-5.3-8s-1.4-4.9-4.3-6.3a12 12 0 0 0-7.2-1.3c-3.2.4-4.7-.1-10.2-3.9a52 52 0 0 0-10.3-5.6c-2.1-.7-9.2-3.7-15.8-6.8l-12-5.6-13.3-.4-13.3-.4-3 2.8a78 78 0 0 0-7.7 9.8c-5 7.3-9.8 10.6-15.2 10.6h-3l7.5-10.4c9.3-12.7 10.3-15.7 7.2-20.3-2.6-3.9-5.9-5.2-14.7-6-7.6-.6-16.7-5.3-17.2-8.7-.3-1.8-1.1-2.1-6-2.4-5.3-.3-5.7-.5-7.2-3.6-2.2-4.7-2-6.6.7-6.6 4.2 0 4.8-1.1 3.7-7.1q-1-5.5 0-10.9c1-5.4 1-5.6-1.7-7.7a11 11 0 0 0-5.9-2.3c-2.9 0-3.2-.3-3.7-3.8a17 17 0 0 0-2.1-5.7c-1.3-1.8-1.5-1.8-4.1-.1-1.5 1-2.9 1.6-3.1 1.3-.3-.2-.9-3.2-1.5-6.6a35 35 0 0 0-3.9-11c-2.3-3.7-3-6-3-10.2-.1-14.3-5.8-25.9-12.7-25.9-2.7 0-4.5 1-8.5 4.7a94 94 0 0 0-18.3 35.1c-.6 4.4-1.4 5.9-4.7 9l-3.9 3.7-11.1-.9c-7.9-.7-12.6-.6-16.7.2-3.2.7-8.3 1.2-11.5 1.2-5.1 0-6.4-.4-10.7-3.5l-4.8-3.6-6.7 1.2c-3.7.6-9.4.9-12.7.5-4.8-.5-6.4-.3-7.9 1.1-2.2 2-2.3 6.4-.2 10.5 2.3 4.4.8 5-12.2 4.5-9-.2-11.7-.7-14.6-2.4l-3.6-2.1-5.8 4.8a60 60 0 0 1-19.9 9.9c-16.7 6.1-19.9 6.3-26.9 1.8-2.8-1.9-6.5-4.2-8.3-5.2-3.5-2-4.3-3.9-4.3-10.5 0-2.5-.7-7-1.5-10s-1.4-7.8-1.3-10.6c.1-3.9-.4-5.9-2-8.2l-2.2-3 5-4.2c4.8-4.1 5-4.3 5-9.5 0-5-.2-5.5-3.9-8.4-3-2.4-4.9-3.1-8.1-3.1-3.3 0-5-.7-7.7-3-4.2-3.7-9.5-3.9-19.8-.6"/></svg>