<svg xmlns="http://www.w3.org/2000/svg" width="1365.333" height="1365.333" viewBox="0 0 1024 1024"><path d="M203 1.6a20 20 0 0 0-10.1 9.6A14 14 0 0 1 187 17a16 16 0 0 0-4.7 3.3 12 12 0 0 1-8.5 4.7c-1.6 0-4.1 1.2-6.1 3l-3.5 3h-16c-8.8 0-16.7.3-17.6.6q-3.7 1.1 1.7 7.1c1.8 2.1 4 5 4.9 6.4 1.3 2.1 3 2.9 7.9 3.8a30 30 0 0 1 19.6 13.3c3.2 5.1 3.3 5.5 3.2 15.8a93 93 0 0 1-.8 13q-.8 2.5 1.3 5.6l2 3.2L178 96c7-3.5 13.6-5.9 22-7.8q3.6-.8 3.5-2.8c0-1.5-1.7-2.5-8-4.6-9.9-3.3-9.5-3.2-9.5-.6 0 3.2-1.1 4.5-4.2 5.3-2.3.6-2.8.3-3.3-1.7-.3-1.3.1-3.9.9-5.8q1.3-3.4.9-8.8c-.7-5.9.9-8.1 5.7-8.2 4.5 0 5.5 1.4 4.2 5.6-.6 2-.9 4.1-.7 4.5s2.8 1 5.5 1.4c4.6.6 5.1 1 5.7 3.6.6 3 4.5 6.9 6.8 6.9s6.5 6 6.5 9.1a5 5 0 0 0 2.5 4.5c1.4.9 3.1 2.7 3.8 4s3.6 4.8 6.6 7.9c5.4 5.6 5.6 5.7 10 5.2 3.7-.4 5-.1 7.2 1.8a18 18 0 0 0 6.9 2.9c4.8.7 14.7 7 15.6 9.8.3 1 4.3 4.4 9 7.4a89 89 0 0 1 12.8 10.5c2.5 2.8 5.3 4.9 6.5 4.9 2.2 0 5.7 4.1 9 10.7 1.2 2.3 3 4.7 4.1 5.3 3.2 1.7 9.6 11 11.4 16.5.9 2.7 3.9 8.5 6.6 12.8l5.1 7.9-.5 17c-.4 13.7-.8 17.3-2.1 18.7-1.2 1.5-1.4 3.2-.9 8.8.5 5.4.3 7.5-.9 9.4a22 22 0 0 0-2.2 7.2c-.8 4.9-1.9 6.6-6.1 9.4-1.9 1.2-2.4 2.4-2.4 5.7.1 2.2.6 5.1 1.3 6.3l1.3 2.3 3.4-2c1.9-1.1 6.4-3.4 10-5.1 6.3-3 6.8-3.1 16.5-2.5 16.6 1.1 25.2 2.6 28.2 5l2.8 2.1-14 .7c-32.2 1.5-44.9 3-47.6 5.7-.4.3-1 1.6-1.4 2.8-.6 2.3-.6 2.3 8.7 1.7a72 72 0 0 0 14.3-2.2c3.9-1.3 8.5-1.7 21.3-1.6 9 .1 19.1.5 22.6.9 6.3.6 6.3.6 16.4 10.1a70 70 0 0 1 10.2 10.8c0 .6 1.5 4.3 3.4 8.2 3 6.2 4 7.4 9.2 10.5a21 21 0 0 1 11.1 17.1c.3 2.9 1.6 6.9 2.8 8.8 1.3 1.9 3.1 7.5 4.1 12.4l1.8 8.8 6.6 4.5c5.4 3.5 6.9 5.2 7.8 8.1a43 43 0 0 0 7.5 10.7 42 42 0 0 1 12.3 22.3c1 7.9 6.1 20.3 11.7 28.1q2.9 3.9 3.7 10.4c1 6.4 2.4 9.6 8.6 18.8 1.7 2.5 4.1 7.9 5.4 12s2.7 7.8 3.2 8.4c.4.5.8 2.3.8 4 0 2.3 1.3 4.5 5 8.7 4 4.5 5 6.3 5 9.2q0 3.6 1.9 4.6c2.4 1.3 5.7 6.6 6.4 10.6a120 120 0 0 0 14.4 25.5 21 21 0 0 0 6.1 4.3c2.9 1.3 4.7 3.4 8.2 9.4a166 166 0 0 0 24.2 31.6c2.6 1.9 5.5 5.8 9.4 13a40 40 0 0 0 8.1 11.7c3.5 1.9 5.3 5.7 4 8.6-1.5 3.3-4.4 2.9-5.2-.7-.5-2.3-1.2-3-3-3-2 0-2.3.6-2.7 4.1-.4 4-.1 4.4 4.3 7.8 2.7 2 5.3 5.2 6.2 7.2 1.3 3.2 1.2 3.9-.4 7-2.2 4.1-2.4 8.2-.5 9.8.8.7 1.7 2.9 2.1 4.9 1 5.9 1.8 6.5 8.5 7l6.3.5-.6 6.3-.5 6.2 5.7 2.1a52 52 0 0 0 12.1 2.4c3.6.3 7.2.8 8.1 1.2 1.3.5 2.3-.5 4.1-3.7l2.3-4.3 7.3-.3c7-.3 7.6-.1 18.5 5.2 6.1 3 13.9 7.6 17.2 10.3 5.5 4.4 6.6 6 13.8 20.3 7 14 7.9 16.3 8.6 23.5.9 8 3.3 13.6 11.7 26.5 1.2 1.9 3.7 8.2 5.4 14 3.4 11.7 3.4 16.4-.4 20.5a51 51 0 0 0-7.6 15.3c-.7 1.8-3 4.6-5.1 6.3-2.2 1.7-3.9 3.8-3.9 4.8 0 2.4-5.1 9.9-9.7 14.4-3.1 2.9-3.9 4.4-3.5 6.3.8 4.1 2.6 3.3 8.7-3.6.6-.6 3.3-2.6 6-4.3a22 22 0 0 0 7.8-8.5c1.6-2.8 3.2-5.2 3.8-5.2 1.2 0 1.1 3.7-.2 6.3a42 42 0 0 1-11.6 11.8 3 3 0 0 0-2.3 3.2c0 3.3-3 5.7-7.1 5.7-4.2 0-5.5.8-6.8 4.3-1 2.6-1.3 2.7-7.3 2.5-6.8-.3-8.2-1.2-6.7-4q.8-1.6.6-1.8l-19.7 4.5-19.7 4.5c-.2 0-.3 1.7-.1 3.8.3 3.3.1 3.7-2.3 4q-2.7.2-5.4-2.1l-2.8-2.3-4 4.3c-2.2 2.4-4.6 4.3-5.4 4.3s-5.6 1.4-10.6 3.2c-8.3 2.8-9.8 3.7-15.2 9.4a49 49 0 0 1-15.2 10.7 75 75 0 0 0-20.8 13.8 30 30 0 0 1-11 5.9c-9.4 3-17.9 7.7-19.9 11-2.3 3.9-9.5 4.8-16.5 2l-5.5-2c-.5 0 1.2 9.2 2.6 14 1.1 3.7 1.8 4.6 4.1 4.8q2.9.3 2.7 2.5.1 2.4 6.6 8.7c3.6 3.6 8.4 9.1 10.5 12.3a23 23 0 0 0 9.9 8.7 27 27 0 0 0 8.5 3c2 0 2.9.8 4.1 3.6 1.7 4.1 1.6 4.1 14.9.8 8.9-2.2 10.9-2.1 22.5 1l11.7 3.1c1.1.2 2.6 1.7 3.2 3.2a29 29 0 0 0 3.5 6l2.4 3.3 4.3-3.5c2.4-1.9 6.1-4 8.1-4.5 2.9-.8 3.8-1.7 4.3-4 .4-1.7 1.5-3.2 2.7-3.6 1.1-.3 2.8-2.4 3.8-4.7 3.3-7.4 8.4-14.6 11-15.5 1.4-.5 3.4-2.6 4.5-4.5a10 10 0 0 1 4.9-4.7c1.7-.6 4.4-2.4 6.1-4 3.6-3.5 10.1-5 21.4-5 5.3 0 8.9.6 11.7 1.9 3.1 1.4 4.5 1.6 5.3.8 3.3-3.3-1.3-6.1-9.9-5.9a34 34 0 0 1-14.2-2.2c-5.4-1.2-2.8-4.6 3.4-4.6 1.7 0 5-1.1 7.2-2.4 6-3.5 11.6-3.7 15.5-.4 1.8 1.6 5 3 7.5 3.3 4.2.7 4.4.8 4.9 4.8.5 3.5.2 4.6-1.9 6.8-1.3 1.4-2.2 3.2-1.9 4s-.9 2.3-3 3.7c-4.1 2.6-4.7 4.7-1 3.8q6.5-1.6 8.4-4c1.2-1.4 1.7-1.4 4.8-.1 3.3 1.4 3.6 1.3 6.8-1.1 1.8-1.4 3.6-3.1 3.9-3.9s3-3.1 6.1-5.1c4-2.7 5.9-3.4 6.7-2.6q1 1 5-.4c2.2-.8 6-1.4 8.4-1.4 3.8 0 4.5-.4 5.9-3 1.8-3.5 1.8-3.5 5.1-1.4 2.9 2 4.6 1.4 11.5-3.9 5.1-3.9 12.2-5.5 25.9-5.8 16.7-.5 17.4-.3 20.4 4.1q2.6 4 4.8 4c1.3 0 4.1 2.2 7.4 5.8 4.3 4.8 6.1 6 10.1 7 4.6 1.1 4.9 1 6.9-1.5 1.9-2.2 3.2-2.6 9.3-3.1 6.9-.5 7.1-.4 8 2.2.6 1.4.8 3.9.5 5.5-.5 2.2.1 3.6 2.6 6.5 2.6 3 3.9 3.6 7 3.6 3.5 0 3.9-.3 5-3.5 1.4-4.2.9-5.1-3-6-3.5-.8-3.4-.5-1.3-5 1.6-3.4 1.6-3.6-.5-5.8-2.6-2.7-3-8.2-.7-9.1.8-.3 1.5-1.5 1.5-2.6q0-2-2.3-2c-2.1 0-2.5-.8-4.1-8a29 29 0 0 0-6.2-13.6c-2.4-3.1-4.4-6.1-4.4-6.6s-2.5-7.5-5.5-15.4-5.9-17.3-6.5-20.7a159 159 0 0 0-23.6-43.9c-3-3.3-5.4-6.6-5.4-7.3 0-2.3-14.1-29.5-15.3-29.5-.7 0-3.5-1.1-6.3-2.4-4.3-2-5.7-3.5-10-10.2a99 99 0 0 1-12.4-35.9c0-7.5-.9-9.4-5.1-11.5q-6-3-5.9-7.9c0-1.1-1.7-3.5-3.7-5.3-11.9-10.5-15.3-14.2-15.3-16.7 0-5.4-3-15-6.4-20.7a67 67 0 0 0-23.3-22.3 43 43 0 0 1-14-10.9 44 44 0 0 0-11.8-9.6c-10.4-2.5-9.9-2.1-14.1-10.1-3.3-6.5-4.7-8-9.1-10.6a27 27 0 0 1-7.2-5.8q-2-2.6-11.2-6.5a66 66 0 0 1-23.9-15.1c-11.3-10.7-29.2-21.7-37.1-22.9-5.1-.7-6.8-2.5-11.3-11.3a62 62 0 0 0-7.9-11 86 86 0 0 1-14.2-20.9c-.8-1.9-3.1-5.6-5-8.2a274 274 0 0 1-10.5-15.5c-4.3-6.7-9.8-13.4-14.4-18-7.7-7.4-9.4-10.3-15.1-25.5-1.5-4-4.6-9.6-6.9-12.5-10.5-13-14.4-19.4-15.1-24.3-.4-2.7-2-8.2-3.5-12.2-2.3-5.8-4-8.4-8.3-12.5-4.8-4.5-6.1-6.7-10-16.2-2.5-6.1-5.5-14.2-6.7-18a129 129 0 0 0-5.1-12.7 27 27 0 0 1-2.9-8.2c0-1.3-4-10.5-8.9-20.4-6.8-13.7-9.1-19.3-9.6-23.8-1.4-10.6-7.6-17.9-21.3-24.8a27 27 0 0 1-13.2-16.4q-1.7-7.2-10.7-11.2c-3.1-1.4-4.8-3-6.4-6.2a105 105 0 0 0-15-20.3c-2.5-2.8-6.7-7.5-9.1-10.6-4.1-5.1-4.5-6.2-5.1-12.7-.4-4-.3-8.2.3-9.6.9-2.4.7-2.7-2.8-4.1-3.4-1.4-4.1-2.4-6.5-8.5a36 36 0 0 1-2.7-15.7 61 61 0 0 0-1.7-14.6c-1.4-5-1.5-6.9-.5-11.7.7-3.1 1.2-7.5 1.2-9.8s.9-5.6 2-7.4c1.4-2.4 2.1-6.1 2.6-13l.7-9.6-3.2-1.6c-1.7-.9-4.2-3.4-5.6-5.5-1.7-2.8-4-4.7-7.9-6.4a15 15 0 0 1-8.6-8 62 62 0 0 0-21.1-20.1 41 41 0 0 1-12.5-11.9 59 59 0 0 0-12.1-12.4c-8.3-6.3-10.9-9.2-11.8-13.4-.6-2.5-1.9-3.6-8.7-7a42 42 0 0 1-10.5-7L252.9 8l-2.8 2.1-2.7 2L227.8 6a449 449 0 0 0-20.4-6c-.5.1-2.5.8-4.4 1.6"/></svg>