<svg xmlns="http://www.w3.org/2000/svg" width="1365.333" height="1365.333" viewBox="0 0 1024 1024"><path d="M585 1c-2.5.4-11.4 1.6-19.8 2.5a81 81 0 0 0-21.5 4.3c-5.8 2.4-7.5 2.6-26.7 3l-20.5.4-18.9 12.2-18.8 12.1-4.1 10c-2.2 5.5-4.4 10.5-4.9 11.2s-4.1 3-8.1 5.3c-4 2.4-10 6.9-13.3 10.2-5.6 5.5-6.4 5.9-9.3 5.3-5.3-1.2-6.1-2.7-6.1-12.4v-8.8l-8-14.4c-4.4-7.9-8-15.5-8-16.9 0-5.7-1.3-10-2.9-10-.9 0-47.5 9.5-103.6 21.1l-102 21-26.8-1.1c-14.8-.6-27.1-.9-27.4-.7s-4.6 93.1-9.6 206.3l-9.2 205.7-52.1-.7-52.2-.8-.6 6.4c-.3 3.4-2.6 74.2-5.2 157.1L.8 780.1l2.1 5.1a32 32 0 0 1 2.1 9.5v4.4l6.5 2.9a81 81 0 0 1 14.7 9.6l8.3 6.6 4.1 11.7c2.2 6.4 5.7 15.1 7.6 19.5 3.3 7.2 4 8.1 8.8 10.7l5.7 3.3c.3.2-.1 2.2-.7 4.4-1 3.9-.8 4.4 3 10.4 3.6 5.6 4 7 4 12.6v6.3l6 5.7c3.3 3.2 6 6.3 6 6.9s.9 3.3 2.1 6c2.3 5.1 2.3 3.4-.7 29-.5 4.3-8.7 16.7-19.2 29.1l-4.5 5.4 1.3 11.6c.7 6.5 2.2 16 3.4 21.2 1.9 8.6 2.4 9.6 5.1 10.9 2.8 1.4 3 1.3 6.1-2.2 3-3.6 3.3-3.7 10-3.7 5.7.1 7.9.6 12.4 3 6.3 3.4 9.7 3.7 18.4 1.4a48 48 0 0 1 18.6-.8c16.5 1.2 28.4 1 34.7-.5 4.8-1.2 5.3-1.6 7.1-5.9 1.1-2.6 2.3-5.7 2.6-6.9s1.5-2.4 2.4-2.7l11.2-3.1 11.1-3.1c.8-.2 4.2-4 7.4-8.3 5.3-7.3 6.9-8.7 17.9-15.5a229 229 0 0 1 17.8-10c3-1.4 7.8-3.9 10.6-5.6 9-5.5 22.5-26.4 23.8-36.8.4-2.9 2.3-7.6 5-12.3 3.5-6.1 4.6-9.2 5.5-15.6 1.1-7.8 1.3-8.1 5.6-11.4 3.2-2.5 5.6-5.7 8.8-12 4.1-8.2 4.6-8.7 8.2-9.2 2.1-.4 5.4-.7 7.3-.7 2 0 9.6-2 17-4.5s16.4-4.8 20.1-5.1l6.6-.7 1.4 8.9 1.4 8.8 12.7 3.6c16.2 4.6 21.1 7.6 25.8 15.7 1.9 3.4 3.8 6.4 4 6.7s3.4-.2 7-.9c3.6-.8 9.6-1.4 13.5-1.5h7l7.1 7.1c6.9 6.8 7.3 7.1 13.5 7.9 3.5.5 10.9 2.2 16.5 3.9q20.8 6.4 33.4 2.8c6-1.7 8.1-1.7 27-.7l20.5 1.2 14.6-5.2 14.7-5.1 8.7-20.3a511 511 0 0 1 18.6-38.6l9.9-18.4V811h6.1c3.4 0 12.9-1.1 21.3-2.5l15.1-2.6 7.3-7.2a169 169 0 0 0 15.6-18.7c10.5-14.8 19.4-22 30-24.6 3.9-.9 7.6-2.2 8.2-2.8s1.8-4 2.7-7.6 5.2-17.1 9.4-30l7.8-23.5 10-10.1c9.5-9.6 10.2-10.1 15.2-10.8 4.9-.6 5.3-.9 8.9-6.5l3.8-5.8 8-.7c4.5-.4 9.8-1.1 11.9-1.6l7.6-2 3.9-1 .4-6.1c.4-5.3.9-6.4 4-9.6l3.5-3.5 4.5 2 4.5 1.9 8.4-6.2c6.7-4.9 9.1-7.4 11.9-12.4s6.1-8.3 17.1-17.5c7.5-6.3 16.9-15.2 21-19.8 4-4.5 8-8.4 8.8-8.6s6.3.4 12 1.1l10.5 1.4 24-12.3 24.1-12.3 5.2-8.8 5.2-8.8 7.7-3a58 58 0 0 0 12.3-6.7c4.5-3.7 4.6-3.8 11.2-3.2 4.1.4 8 .2 10.3-.6l3.6-1.2-2.7-3.3c-2.3-2.8-4-3.6-10.4-5.1l-7.6-1.7-3.8-7.6a104 104 0 0 1-6.1-16.5c-2.3-9-3.2-10.3-9.9-15.1a184 184 0 0 0-41.9-9.5c-3.9 0-10.5-.9-14.6-2-6.2-1.7-27.2-5-31.6-5-.7 0-2.8-2.1-4.7-4.8-2.8-3.8-3.6-6-4.2-11.4l-.7-6.8-12.7-14.6c-17-19.7-15.7-17.5-14.3-24.3.7-3.1 1.2-8.6 1.2-12.2s.9-9.3 2-12.9c2.3-7.4 2.8-27 .9-34.4l-1.1-4.3-13.1-1.1c-7.3-.7-16.9-1.2-21.3-1.2h-8.2l-.7-15.7-.8-15.7-5.4-10.6c-2.9-5.8-5.9-11.3-6.6-12.2-1-1.2-6.5-2.5-20.8-4.9-24.9-4.1-28.3-5.7-31.6-14.5l-2.4-6.1-7-2.4c-6.1-2-7.6-3-10.1-6.7q-2.9-4.3-5.2-4.2l-5.5-.6c-2.9-.6-3.1-.9-3.1-5 0-4.3-.1-4.4-3.2-4.4-2.5 0-4.5-1.1-8.4-4.8l-5.2-4.7-4-17.2c-3.9-16.5-4.2-17.4-9-23.7l-5-6.6 1.2-4.8c1.1-4.1 1-5.6-.7-11.2-1.7-5.8-2.8-7.3-9.2-13.5-8.7-8.4-9.9-11.8-6.4-18.6 2.5-5.1 3.2-4.3-10.8-12.2l-9.2-5.2-6.1-16.7c-3.3-9.1-6.5-19.1-7.1-22.2-1.1-5.3-1.5-5.8-7.4-9.8a45 45 0 0 1-9.9-9.5c-3.6-5.1-3.6-5.2-3.6-15.8V14.8l-4.6-5.9c-3.4-4.2-5.7-6.2-8.3-6.9-5.3-1.6-12-2-17.1-1"/></svg>