<svg xmlns="http://www.w3.org/2000/svg" width="1365.333" height="1365.333" viewBox="0 0 1024 1024"><path d="M251 .9c-1.9.4-4.9 1.7-6.7 2.7-2.5 1.6-4.2 1.9-7.5 1.4-4.9-.7-13.9.9-18.4 3.3-1.8.9-6.7 2.2-11 2.9l-7.9 1.4-1.3 3.9c-.7 2.2-1.1 5.4-.7 7.2.5 2.6 1.3 3.4 4.3 4.4q9.3 3 17.5 15.8c3.8 6 5.8 8.1 7.3 8.1s2.4-.8 2.8-2.6q.8-2.5 4.2-4c3.4-1.4 3.7-1.4 9.1 1.7q5.6 3.2 6.7 6.1 1 2.9 3.4 2.8c3.7 0 9 2.9 12.1 6.6 2.5 3.1 3.6 3.6 13 5.3a67 67 0 0 1 16.4 4.9c4.5 2.3 6.4 2.8 6.9 1.9.5-.7.8-5 .6-9.7-.1-6.1.3-9.4 1.4-11.5 1.5-2.8 1.5-3.3-.2-6.5a67 67 0 0 1-4.1-13c-2.4-10.7-4.5-13.7-13.6-19.5A27 27 0 0 1 279 9c-.6-1.2-4.4-3.7-8.3-5.6A27 27 0 0 0 251 .9m305.9 104.7a26 26 0 0 1-6.1 4.5c-3.3 1.7-3.8 2.4-3.8 5.4s-.6 3.8-3.9 5.7c-3.6 2-8.1 8.7-8.1 11.9 0 .6 2.9-.5 6.4-2.5 5.5-3.1 7.4-3.6 12.8-3.6 3.4 0 9-.5 12.4-1 5.5-.9 6.8-.7 14.9 2 7.8 2.7 9.6 3.7 15.9 9.7 6.8 6.5 7.1 7 7.9 12.8.4 3.2 1 6.1 1.2 6.4.3.2 2.3-.8 4.5-2.3 3.7-2.4 4-3 4-7.2 0-3.6-1.1-6.6-4.6-13.2a46 46 0 0 0-30-25.7c-5.6-1.7-9-2.2-12.5-1.8-4.1.5-4.9.3-6.1-1.6-1.6-2.7-1.9-2.6-4.9.5m61.8 148.6c-4.6 2-4.8 2.3-4.3 5.1.3 1.6.6 3.7.6 4.6 0 1 2.7 5 6.1 8.9 5.5 6.6 6.2 7.9 7.8 15.3 1.6 7.6 2 8.3 5.2 10 1.8 1.1 5.2 2.3 7.4 2.9 3.4.8 4.4 1.8 6.8 5.9 1.5 2.7 4 6 5.6 7.4 2.8 2.3 2.9 2.7 2.4 8.5-.4 4.6-.2 6.5 1.1 8.3s1.6 5 1.6 15.4c0 12.2.2 13.3 2.4 16.6 2.2 3.2 3.1 3.7 7.8 4.2 5.1.5 5.4.4 9.3-3.4 3.5-3.3 4.7-3.9 8.5-3.9 2.5 0 7.8-.9 11.9-2 6.2-1.6 8.2-1.7 12.2-.8 4.4 1 4.9 1.4 6.4 5.7a44 44 0 0 0 14.3 16.3c2.6 1.6 4.2 1.9 7.5 1.4 9.3-1.5 11.7-2.6 13.4-6.1l1.6-3.4-5-6.8c-2.7-3.7-6.7-9.6-8.8-13.1-3.2-5.2-4.2-6.2-6.6-6.2s-3.3-.9-6.1-6-3.7-6-6.1-6c-1.7 0-6.6-2.4-12.5-6.3-5.3-3.4-13.7-8.2-18.6-10.7-7.9-3.9-10.6-6.1-21.5-17.1-7-6.9-17-15.9-22.4-19.9-8.4-6.3-10.1-7.1-12-6.3-1.6.7-3.1.6-5.4-.5-3.9-1.9-5.4-7.3-2.7-10.3 1.5-1.7 1.5-2.2.1-5.6-.8-2-1.8-3.8-2.3-3.9s-3.1.7-5.7 1.8M755 400.6c-1.8 4.5-1.3 5.4 2.8 5.4 2-.1 4.8-.7 6.2-1.5 3.4-1.9 4-1.8 4 .4 0 1.1-.9 2.3-2.1 2.6-1.7.6-2 1.2-1.5 3.7.3 1.7.6 3.7.6 4.5q0 1.4 2 .8c1.6-.5 2-.2 2 1.9s.5 2.6 2.3 2.6q4.7 0 4.7-10.5c0-5.1-.2-5.5-4.4-8.9-3.8-3.2-5-3.6-10-3.6s-5.7.2-6.6 2.6m19.2 21.5c-2.9.9-3.1 1.2-2.1 3.1 1 1.8 1.7 2 5.7 1.4 5.5-.7 5.7-.9 4.2-3.5-1.2-2.3-2.7-2.4-7.8-1m4.8 10.4c0 2-.5 2.5-2.5 2.5-2.1 0-2.5.5-2.5 3 0 2.8.2 3 3.8 3 3 0 4.5-.7 7-3.3 1.8-1.8 3.2-4.3 3.2-5.5 0-1.9-.5-2.2-4.5-2.2s-4.5.2-4.5 2.5m4.7 19.4c-1.9 1.7-4.6 3.1-5.9 3.1s-3.3.9-4.3 2c-1.8 2-1.7 2 1.4 2s3.2.2 2.6 2.9c-.6 3-.6 3 2.7 2 1.8-.5 5-.9 7-.9 3 0 4.2-.6 6.4-3.5l2.6-3.5-1.9-3.2q-3.9-6.7-10.6-.9m14.3 16.5a8 8 0 0 1-3.5 3.8q-2.3 1-2.5 1.8c0 .3 1.9 1.6 4.3 2.8l7.7 4.2c1.9 1.1 4.7 2 6.2 2 2.3 0 2.8.5 2.8 2.3 0 1.3 1.2 3.4 2.6 4.8s3.3 4 4.1 6.1q1.4 3.5 3.9 4.2c3.3.9 3 1.9-1.3 5.5-2.7 2.3-4.8 3.1-7.5 3.1-3.2 0-3.8.3-3.8 2 0 3 4.9 7.3 7.5 6.6 1.1-.3 2.6-.6 3.4-.6q1.3 0 .7-2.5c-.5-2.1-.3-2.5 1.7-2.5 1.3 0 3.4 1.1 4.6 2.4 1.3 1.3 3.4 2.7 4.7 3 3 .8 3.2 3.8.4 7.3-2.6 3.3-2.5 4.5.4 7.2 2.1 2 3.1 2.2 6.3 1.6 2-.4 5-1.6 6.5-2.7 2.5-1.7 2.8-2.6 2.8-7.1 0-4.8-.3-5.4-3.5-7.5-2.7-1.7-3.5-2.9-3.5-5.2q0-3-2.1-4.1c-1.2-.6-6.3-4.9-11.5-9.6-7.9-7.1-9.4-8.9-9.4-11.5 0-2.3-1.5-4.6-6.1-9.6-6-6.6-8.2-8.3-12.6-9.6-1.9-.6-2.5-.2-3.3 1.8m-677 1.2c0 .3 1.4 2.3 3 4.4q6.6 8.4-.7 13.2c-3.3 2.2-4.2 3.6-6.5 10.9-1.5 4.6-4.1 11.5-5.7 15.4-2.8 6.5-3.2 7.1-6.8 7.9-2.1.4-5.5 1.5-7.5 2.4l-3.8 1.5v8.3c0 6.6.5 9.2 2.5 13.6 1.5 3.1 2.5 7.1 2.5 9.8s1 6.7 2.5 9.8c1.4 3 2.5 6.8 2.5 8.5 0 3.9 6.6 28.5 12.7 47.2 3.9 12 4.7 16.1 5.8 28.6 1 11.1 2.2 17.4 4.9 26.1l3.4 11.6-1.9 17.3c-2.4 21-2.6 21.8-7.9 30.9a26 26 0 0 1-8.6 9.9c-2.4 1.4-4.6 3.5-4.8 4.6l-1.8 11.5-1.5 9.5 3.3 11c1.9 6 4.7 14.6 6.5 19a62 62 0 0 1 3.8 16c1.3 13.4 2.1 14.4 20.5 24.1a183 183 0 0 1 43.6 30.7c8.2 7.7 10.3 10.4 15 19.2s7.7 12.6 21 26.9c13.6 14.7 16 17.8 19.7 25.5a68 68 0 0 0 16.2 21.3c10.2 10.6 12.3 13.4 14.1 18.4 1.5 4.2 3.4 7.1 6.7 10 5 4.7 5.5 4.9 27.4 13.4 18 7 23.3 7.6 33.2 3.8 5-2 6.5-3.2 10.3-8.5a34 34 0 0 1 26-13.8c4.5-.4 10.6-1.8 14.2-3.2 5.3-2.1 7.3-2.5 11.9-1.9 5.2.6 6.2.4 12.2-2.8 3.6-1.9 9.5-4.2 13-5.1s8.7-2.5 11.6-3.6l5.2-1.9 3.2-8.8a35 35 0 0 0 1.6-23.8c-.8-2.7-1.5-7.1-1.5-9.8 0-4.9-2.6-10.7-6-13.3-5.3-4.2-32-16.5-32-14.7l1.5 4.2c1.3 3.1 2.5 4.2 6.8 6.1l5.2 2.2-2.5 1.9-2.5 2h3.7c4.4 0 5.9 1.7 2.3 2.6q-6 1.5 3.2 3c4.3.7 5.9 1.4 6.1 2.7q.5 1.8-2.2 1.7c-2.1 0-2.6.5-2.6 2.5 0 3-.1 3-5 .5-2.2-1.1-4.2-2-4.5-2s.2 1.7 1.1 3.8l2.1 4.9c.3.7-1.9-.1-4.9-1.7a37 37 0 0 0-6.1-3c-.4 0 .2 1.8 1.3 4 2.5 4.8 2.5 5 .2 5q-5 .1-5.4-10l-.3-6.5-4.7-.3c-4.5-.3-6.2.8-3.8 2.3.6.3 1 1.7 1 3.1q.1 2.5-2 2.4c-3 0-4.7 4.3-3.3 8.1 1.1 2.7 1 2.9-1.5 2.9-1.5 0-3.8 1.2-5.4 2.7-2.5 2.3-2.8 3.4-2.8 8.7 0 8.3-.8 10.4-4.1 12.2-1.6.8-2.9 2.1-2.9 2.9q-.2 1.4-2.4 1.5-2.5.1-3-2.5c-.6-2.3-1.1-2.5-6.1-2.5H355v5.3c0 6.2-2.3 9.2-8 10.3-1.9.4-5.3 2.1-7.5 3.7l-4.4 3.4c-.2.2.1 1.5.8 3 1.5 3.3 1.2 3.5-9 5.8-7.3 1.7-8.1 1.7-11.6.2l-6-2.2c-1.3-.3-4.1-3.2-6.3-6.3-5.3-7.3-9.2-8.6-13-4.2-2.4 2.8-2.6 2.8-5.7 1.5a6 6 0 0 1-3.9-4.2l-1.9-7.6c-1.2-4.3-1.1-4.9.2-5.4q1.6-.6 4.6 3 4.9 6.4 4.7 1.3c0-2.2-6.6-11.6-14.2-20.4a10 10 0 0 1-2.8-7.3c0-3.5-.7-4.9-4.6-9.3-3-3.3-7.4-10.6-12.3-20.3-6.1-12.3-8.1-15.4-10.2-16.2-2.4-.8-3.3-2.7-8.5-18.3-6.9-20.8-9.4-25.2-18-31.3-6.1-4.4-6.4-4.8-6.4-8.7 0-3.5-1-5.4-7.4-13.7-6-7.9-7.6-10.7-8.6-15.4-.6-3.2-2.4-8.6-4-12l-3.5-8.2c-.6-1.5-1-.7-1.6 3.3-.8 6.3-2.2 8.2-5.9 8.2-2.1 0-3.3-.8-4.8-3.3-1-1.7-3.3-4-5.1-5l-3.1-1.8-1.6 3.6c-.8 2-1.9 5.8-2.4 8.5a27 27 0 0 1-8.6 15.9c-3 2.7-4.3 3.2-6.7 2.7l-4.3-.6c-.8 0-2.2-1.6-3.1-3.5-1.7-3.7-5.4-5.2-9.4-4-2.2.7-2.2.7-1.6-10.9.4-6.8.2-13.8-.4-16.9-1-4.9-.8-5.9 2.9-16.5a84 84 0 0 1 6.4-14.5c2.2-2.9 2.6-4.5 3.1-16 .6-10.6 1-13.3 2.7-15.7 1.5-2.1 1.9-4.2 1.8-8.1-.2-5.5.7-8 6.7-18.9 1.9-3.5 2.5-6 2.5-11.5 0-3.9.7-11.5 1.5-17 1.1-8.4 1.7-10.2 3.6-11.5 1.3-.8 4.1-3 6.2-4.8s4.1-3.1 4.3-3-.8 4.8-2.2 10.2-2.3 10-2.1 10.3c1.2 1.1 7.7-6.1 8.3-9.3q.5-3.6 2.6-3.4c1 0 3.2-.7 4.8-1.5 2.7-1.4 3-1.4 3 0 0 .9-.7 3-1.6 4.7-1.3 2.5-1.4 3.8-.5 7.4.6 2.3 1.1 6.1 1.1 8.3 0 4.4.2 4.6 3 3.1 1.4-.7 2.8-.6 5.3.6 3.3 1.6 3.4 1.8 2.6 5.3-1.5 6.5-1.2 8.1 1.7 8.1 2.2 0 2.5.3 2 2.2l-2.8 13.1-2.3 10.8-5.2-.7-5.3-.6-1.6 3.8a53 53 0 0 0-4.4 19c0 4.8.2 5.2 3 6.4 2.4 1 3.8.9 7.6-.4 2.6-.9 6-1.6 7.6-1.6 2.5 0 2.8.4 2.8 3.1 0 1.7-.5 3.9-1.1 5.1-1.6 2.9-.6 3.2 4.7 1.4 5.4-1.8 5.9-1.6 7.2 3.4l.9 3.5 2.5-5c3-6 4.9-17.8 4.1-25.7-.3-3.5.1-9.2 1.2-15.2l1.7-9.5-3.3-5.8c-1.8-3.2-5.1-8.6-7.3-12l-7.4-11.4c-1.8-2.8-4.8-9-6.7-13.8-1.8-4.8-5.9-14.8-9-22-3.1-7.3-7-17.8-8.6-23.3s-4.7-13.5-6.9-17.8c-4.2-8.3-10-29.2-10-35.8 0-2.1-.7-4.7-1.5-5.8q-1.4-1.8-1.5-10.1c0-7.9-.1-8.3-2.4-8.9-2-.5-2.4-1.3-3-6.5-.4-3.6-2.4-9.7-5.2-16.1-5.4-12.2-9.5-29-8.7-35.8.9-8.1-4.7-14-13.5-14-1.8 0-3.2.3-3.2.6m704.2 67a9 9 0 0 1-5.3 1.2c-3.2-.5-3.5.3-2 6.2l1.5 6.1c.8 3.9 6.1 4.6 9.6 1.3 2.1-1.9 4-2.4 11.8-3l9.2-.7v3.6c0 2-.8 5.2-1.7 7.2-1.6 3.3-1.6 3.8-.1 6.3.9 1.4 3 3.1 4.7 3.7 1.7.5 3.8 1.8 4.7 2.7 1.6 1.5 1.3 1.8-3.2 4s-5.4 2.3-9.6 1.4c-5.4-1.3-12.5-6.6-13.4-10.1-.8-3.2-5.4-3.6-5.4-.5 0 1.6-.7 2-3.2 2h-3.2l3.7 3.8c2 2.1 3.7 4.8 3.7 6 0 2 .5 2.2 6.3 2.3 3.4 0 9.6.6 13.7 1.3 7.2 1.3 7.6 1.3 13-1.1 7.3-3.3 9.7-6.4 11.1-15.1l1.2-7.1-6.8-9c-7.5-10.2-6.7-9.8-19.9-8.1-6.8.8-7 .8-12-2.6-5.9-4-5.5-3.9-8.4-1.8m-7.9 61.4c2.7 1.7 5.6 2.9 6.5 2.6q1.7-.6 4.5 2.9l2.8 3.5H828c-2.7 0-3.1.3-2.8 2.2s1 2.4 5.8 2.8c3.2.3 7 1.4 9.1 2.8 4.7 2.8 10.7 2.9 14.3.1 3.3-2.6 3.6-8.7.6-13-1.8-2.5-2.7-2.8-7.3-2.8-2.9 0-8.6-.7-12.7-1.6s-10.9-1.9-15-2.2l-7.5-.4zm4.9 20.7c-.6 2-.9 3.9-.7 4.2.3.2 2.9.6 5.8.9 4.1.3 6.3-.1 9.5-1.7 2.3-1.2 4.2-2.3 4.2-2.5s-1.5-1.4-3.4-2.5q-3.3-2.2-8.8-2.1c-5.4 0-5.5 0-6.6 3.7m27.8 5.1c0 2.9.1 3 3.8 2.2l5.7-1.3q2.7-.3-1-1.6a34 34 0 0 0-5.7-1.8c-2.6-.5-2.8-.3-2.8 2.5m-14 14.5c-1.9.7-4.3 1.8-5.3 2.3-1.7 1-1.7 1.1.1 2.7 1.7 1.5 2.6 1.6 7.1.6 2.9-.6 7.2-.8 9.6-.5q9.3 1.4 9.5-2.9c0-1.3-.7-2.6-1.6-2.9a53 53 0 0 0-19.4.7m15.1 11.5c-2.4.9-6.2 3.4-8.5 5.4-3.8 3.4-4 3.8-2.4 5.4 1.3 1.4 2.2 1.5 4.7.6 3.1-1.1 3.1-1.1 3.1 2.5 0 2.9.7 4.2 3.3 6.4l3.2 2.8-3.3.1c-2.6 0-3.5.5-3.9 2.1-.5 1.8-1.1 1.9-4.4 1.4-3.5-.6-3.9-.5-3.9 1.4q-.1 2-1.6 2.8c-2.6 1 3.3 6.2 8 7 2.4.4 4.9 1.6 6.3 3.1 2.3 2.5 2.4 2.5 5.9.9 1.9-.9 4.7-1.7 6.1-1.7h2.6l-2 2.2a20 20 0 0 0-4.3 7.2c0 .3 2.3.6 5 .6s5 .5 5 1c0 1.6-2.9 7-3.8 7q-.8 0-2 .9c-1.1.7-1 1.6.6 4.7 1.1 2.2 3 7.2 4.3 11.2 1.8 5.5 3.3 8.2 6 10.6 2.8 2.6 3.7 4.3 4.2 8 .6 4.2-.3 6-1.8 3.6-1-1.7-3.5-1.1-3.5.8 0 2.9 11.1 13.2 14.2 13.2 2.7 0 3.5 1.4 5.2 9.2q.6 2.9 2.9 2.8c2.5.1 7.7 6.8 7.7 9.9q0 1.9 2.5 2.5 2.6.6 2.5 3c0 1.4 1.2 3.9 2.7 5.6 2.6 3.1 2.6 3.3 1.6 11.3-.9 7.2-.8 8.6.7 11.2 2.7 4.7 1.4 11.3-2.6 13.7-2.9 1.7-3.4 1.7-6.7.3l-4.1-1.5c-.3 0-.6 2.2-.8 5l-.3 5-4.4-2.9c-5.2-3.5-6.6-3.4-18.3 1.1-6.8 2.6-7.8 3.3-7.8 5.4s.4 2.4 3.9 2.4c3.2 0 4.4.6 6.9 3.4 2.7 3.1 5 10.1 3.8 11.4-.3.3-1.7 0-3.1-.6-2.9-1.3-13.1-1.6-13.9-.4-.2.4.8 3.8 2.4 7.5l2.8 6.6-3 6.3c-1.6 3.5-4 7.4-5.2 8.8-3.3 3.5-5 10.9-3.1 13.1 2 2.1 1.9 2.8-.6 4.8-1.8 1.4-2 2.3-1.4 6.3.5 3.4 1.3 4.8 3 5.6 1.3.6 2.5 2.3 2.8 3.9 1.3 6.4-12.8 20.9-25.9 26.7-4.5 2-6.5 3.6-7.6 5.9l-1.5 3.1-2.8-4.3c-2.3-3.5-3.3-4.2-5.3-3.8-1.4.3-4.1-.5-6.6-1.9-4.3-2.4-4.3-2.4-6.1-.4q-1.9 2-5.4 2c-2 0-5.2.5-7.1 1-3.4 1-3.7.9-7.2-3.1-3.2-3.4-5.1-4.5-11.5-6.4l-7.8-2.2-2.2-5.4-2.6-6.4c-.2-.6-1.5 0-2.9 1.2a9 9 0 0 1-5.2 2.3c-4.5 0-10.6 2.2-11.7 4.1-.5 1-2.3 2-4 2.4q-3.3.6-2.4 2.3c.4 1 1.9 6.5 3.5 12.3 2.8 10.6 2.8 10.7.9 13.5-1.4 2.1-1.9 4.7-1.9 9.4-.1 10.8-3 21-6 21-.9 0-2.5.9-3.5 2s-2.4 2-3 2c-1.4 0-13.9-8.8-17.2-12.1-3.1-3-6.3-12-6.3-17.4s-.9-5.7-3.4-1.1c-1.4 2.6-2.9 3.7-6.1 4.6-4.9 1.4-10.7 6.9-14.8 14.2-1.5 2.6-2.7 4.9-2.7 5.2s1.8 1.7 4 3.1c3.2 2 4 3.1 4 5.6 0 2.9-.2 3-3.7 2.7-3.7-.3-3.8-.4-6.5-8.3-2-5.9-2.8-10-2.8-15.5 0-4.1-.3-8.5-.6-9.8-.7-2.3-.7-2.3-4 .9-2.5 2.4-3.4 4.2-3.4 6.6v3.4l-3-1.6q-4.6-2.4-2-4c.6-.3 1-1.7 1-3.1 0-2.4-.4-2.7-6.8-4.9-1-.4-.8-1.2.8-3.6a10 10 0 0 0-1.3-12.6c-3.1-3.1-4.7-2.3-9.1 4.2q-3.7 5.6-5.1 4.9-2.7-1-.4-3.1c.9-.9.4-1.8-1.7-3.6-3.3-2.8-4.5-2.4-6.4 2.4-1.1 2.6-1.7 2.9-3.9 2.4-4-1-7.1-4.4-7.1-7.8 0-1.7-.7-3.8-1.6-4.8-1.5-1.7-1.5-2 .4-4.3 2.7-3.5 4.4-15.7 2.6-18.7-.2-.4-2.2-.2-4.4.3-3.7 1-4.1 1.4-5.7 6.5-1.4 4.3-1.5 6-.6 8.4s.9 3.9-.3 7.1c-.9 2.5-1.4 8-1.4 14.5v10.5l3.6 4.4c2.7 3.2 4.4 4.4 6.3 4.4q2.7 0 5.7 3.1c3.6 3.8 7.6 5.6 18.5 8 10.4 2.2 20.1 6.7 23.1 10.4 1.2 1.6 2.5 5.1 2.9 7.9s1.2 7 1.8 9.3l1.1 4.1 6.8 1.2c6.6 1.1 7.1 1 22.4-3.4 8.5-2.6 20.9-5.7 27.5-7 10.4-2.2 14.5-3.7 31.4-11.6 10.6-5 21.3-10.2 23.8-11.5 2.4-1.4 5.4-2.5 6.6-2.5 2.1 0 25.1-9.2 44-17.7a68 68 0 0 0 14-8.8l13-10.6c3.9-3 9.6-8.2 12.8-11.5a37 37 0 0 0 9.6-17 249 249 0 0 1 23.2-51.6c4.5-7.3 11.6-20 15.6-28.1l7.3-14.8.6-12.7c1-18.4.2-22.6-5.1-30-2.5-3.4-4.9-8-5.4-10.2s-3.7-9.1-7.1-15.2c-3.4-6.2-7.5-14.6-9.2-18.8a119 119 0 0 0-5.5-12 197 197 0 0 1-16.3-35c0-1.7-.6-4.3-1.4-5.8s-1.7-4.5-2-6.6c-.4-2.2-1.9-5.4-3.2-7.2a68 68 0 0 1-5.9-11.2c-5.9-13.9-6.1-14.2-10.3-14.1-2 0-5.7.8-8.1 1.7"/><path d="M318.4 921.3c-10.4 5.6-10.7 5.8-6.4 5.3l14.5-1.7c5.5-.6 12.2-2 14.8-2.9 4.7-1.8 4.8-1.8 10.4.4 5.5 2.3 5.5 2.3 3.3 3.9-4.1 2.9.4 3.3 8.2.8 5.1-1.7 8.7-2.2 13.6-1.9 6.3.3 6.7.2 7-2 .3-2-.1-2.2-3.6-2.2-2.1 0-6.3-.8-9.3-1.8a24 24 0 0 0-9.9-1.2q-4.5.6-7.4-.8a35 35 0 0 0-13.6-1.6l-10.6-.2zM555 938c0 3.5.4 4.2 2.7 5.1 1.5.5 4.3.9 6.2.7 3.5-.3 3.6-.4 3.9-4.8l.3-4.5-2.5 2.4q-2.8 2.8-2.6.9c0-1.4-4.6-3.8-7.1-3.8-.5 0-.9 1.8-.9 4m-97.6 10.1-2.8 2.9 4.9 5q8.6 8.7 9.3 1.6.4-2.9-1.3-3.8c-.9-.5-2.9-2.7-4.4-4.8l-2.8-3.9zm101.8 14.7c-1.9 1.5-2.3 2.6-2 6.3.3 4.2.4 4.4 3.8 4.7 5.4.4 6.3-.7 4.5-5.1a21 21 0 0 1-1.5-5.7q0-3.7-4.8-.2"/></svg>