<svg xmlns="http://www.w3.org/2000/svg" width="1365.333" height="1365.333" viewBox="0 0 1024 1024"><path d="M590.6 189.5c.6 3.5.6 3.5-2.4 2.9-2.2-.5-3.9 0-6 1.5-1.7 1.1-4 2.1-5.1 2.1-2.6 0-12.1 8.6-12.1 10.9 0 .9-2 3.9-4.3 6.6-3.9 4.4-4.5 5.7-5 11.2-.6 5.8-.5 6.3 2 8.2 1.4 1.2 4.1 2.1 5.9 2.1 2.7 0 3.4.4 3.4 1.9 0 2.1 2.6 3.6 3.5 2.1.3-.5 2.8-1.2 5.5-1.6 4-.5 5-1 5-2.5q0-1.9 1.9-1.9c1 0 2.4-.7 3.1-1.5q1.2-1.5 7-1.5c6.4 0 9 1.8 9 6.3 0 3-1.5 4.4-2.4 2.1q-.6-1.3-1.7-.9-1 .8-.4 5.7c.9 6.6-.7 10.7-4.1 10-2-.4-2.4-1-2.4-3.8q0-3.5-1.7-4l-5.6-2.2c-3.8-1.5-3.8-1.5-6.5 1.4a25 25 0 0 1-6.9 4.8c-4.9 2.2-5.8 5.2-1.9 6.2q7 1.8-2.8 5.3c-5.6 2-6.5 2-9.5.8-2.5-1.1-4.1-1.2-6-.4-6.6 2.4-20.5-3.8-21.3-9.5-.2-1.8-1.2-2.4-4.3-3-6.9-1.2-9.9-2-12-3.4-3.2-2.3-5.3-1.6-8 2.6a10 10 0 0 1-6.4 5c-2.1.5-4.4 1.7-5.1 2.5s-2.7 1.7-4.5 2.1c-2.8.5-3.5 1.2-4.1 3.8-.9 4.5-1.1 4.6-4.7 3.1-2.9-1.2-3.4-1.2-5.3.6q-2 2-6 1.8c-14.4-.2-16.2-.1-18.7 1.6q-2.7 1.6-5.1 1.1c-1.9-.5-2.4-1.4-2.8-5.1-.8-6.9-1.7-7.5-11.9-7.5H421l-2.7 5.4-2.6 5.3-6.1.6c-3.4.3-8.3 1.4-10.9 2.6a27 27 0 0 1-9.2 2.1c-3.7 0-4.7-.5-6.5-3-2.6-3.7-2.1-7 1.2-8.5q2.3-1 2-3c-.3-2.3-.3-3 0-6.4.5-3.9-1.4-3.4-7.5 2l-5.8 5.2-6.4-.7c-6.4-.6-6.4-.6-8 2.4a64 64 0 0 1-6.5 8.6c-5.5 6-6 7.7-2.9 11 2.4 2.5 1.8 4.2-2.8 8.6l-2.8 2.7-4.9-3.1-4.9-3.2-1.8 2.3c-2.5 3.1-2.4 4.1.5 4.1 1.3 0 2.9.6 3.5 1.3.9 1.1-.1 2.6-4.7 6.8-7 6.7-10.9 8.5-15.2 7-3.8-1.3-19.8.4-22 2.4-1.3 1.2-1.9 1.1-4-.5-1.4-1.1-4.1-2-6.1-2-5.7 0-7.3-1.9-6.5-7.1 2-11.9 2.2-10.9-1.3-10.9-1.8 0-4.5-1-6.1-2.1-3-2.3-4.5-2.2-12.8.2-3.5 1.1-5 1.1-9-.1-2.6-.7-7.3-1.6-10.4-1.8-7.3-.5-8 .8-5 9.2 1.2 3.3 2.1 6 1.9 6.1l-5.7 2.8c-3 1.5-6.1 2.7-6.8 2.7s-1.2 1.3-1.2 3q0 2.9-2 4c-1.1.6-3.7 3.6-5.9 6.8-2.1 3.2-4.6 6.4-5.5 7.1s-1.6 2.6-1.6 4.2v2.9l3.9-2c3.4-1.7 4.7-1.8 9.4-1 4.5.9 6.4.7 11.6-.9 7.9-2.4 12.1-1.5 15.1 3.3q4.1 6.6-3.9 10.5c-2.1 1.1-5 3.4-6.3 5.1-1.8 2.3-3.6 3.2-7.7 4-3 .6-5.6 1.2-5.8 1.4s.3 1.8 1.1 3.5c3.4 6.5 2.4 9-7.1 18.5-17.9 17.6-17.7 17.3-15.3 18.6 2 1.1 1.8 1.4-4.1 6a57 57 0 0 1-10.9 6.6c-5.9 2.2-7.8 4-8.6 8-.5 2.6-1.1 3.3-3.2 3.6q-2.7.2-4.9 4.3c-1.2 2.1-3.1 4.3-4.2 4.7-2.4.9-2.8 4-.6 5.8s.9 3-3.4 3c-3.8 0-3.9.1-7 7-3 6.9-3.2 7-6.9 7-2.1 0-4.2.4-4.7.9a81 81 0 0 1-20.1 7.5c-2.4.1-4.3 1.4-8.7 6.2-7.2 7.8-7.9 10.5-3.8 16.1 2.6 3.6 3.1 5.2 3.1 10.1s-.4 6.3-2.8 9.2c-4 4.9-4.9 12.7-2.1 17.5l2.1 3.5-2.6 4.5c-2.5 4.2-2.9 4.5-7 4.5s-4.4.2-7 5.1c-1.6 2.8-3.5 5.3-4.5 5.6a82 82 0 0 0-20.8 13.8c-1.1 1.6-8.8 8.8-17 16a126 126 0 0 0-16.9 16.4l-1.9 3.4 3.4 2.7q3.3 2.8 4.2 7c.9 4 .8 4.4-2.8 8.4a92 92 0 0 0-8.1 10.8C25 626.6 24.9 627 26 631q1 4 .2 5.3c-.5.7-1.2 2.4-1.5 3.8q-1 4.8 9.1 9.8c3.6 1.8 4.9 3.3 7.2 8.3l2.9 6.1-4.5 5.8c-2.4 3.1-4.4 6.5-4.4 7.4s-.6 2.6-1.2 3.8-1.3 5.1-1.3 8.6v6.4l-5 1.4c-2.7.8-6 2.4-7.1 3.4q-2.1 2-4.6 1.4c-3.7-1-11.9 3.8-14.2 8.2-1.8 3.5-1.8 3.7 0 5 1 .7 2.4 1.3 3.1 1.3 1.8 0 1.7.9-1.2 7.4L1 730.5c0 .3 2.4.5 5.4.5s6.6.4 8 1c2.2.8 2.8.5 4.6-2s2.4-2.8 4.6-2c9.2 3.5 23.2-1.7 30.2-11.1 3.7-5.1 5.1-6 12.3-8.9 8.5-3.5 9.9-5 9.9-10.9 0-3.8-1.9-5.4-4.4-3.6-2.4 1.8-6.6 0-6.6-2.9-.1-3.3-3.6-10.3-5.9-11.6a4 4 0 0 1-2.1-3.2c0-4 7.6-14.2 14.2-19 3.5-2.5 7.4-5.8 8.7-7.2 1.4-1.4 3.4-2.6 4.5-2.6 3.4 0 16.8-4.1 22-6.7 2.8-1.4 7.3-4.3 10.1-6.4l5.2-3.9h19.9c21.5 0 19.1-.4 44.7 7.1l6.7 2v7.2c0 9.5-2.5 13.7-8.3 13.7-4.2 0-4.6 2.7-.8 5.7 1.7 1.3 3.1 3.2 3.1 4.2 0 1.5 2.5 3.9 13.3 13.2 1.8 1.5-.5 10.2-3.7 13.8-4.4 5-5.6 8.2-5.6 15.5 0 5.7-.3 6.5-3.3 9.4-2.7 2.6-3.3 3.9-2.9 6.2.6 4.2 5.5 7 12 7 2.9 0 7 .7 9.2 1.6l4 1.6v6.1c0 4.8-.4 6.5-2.1 8.3-2.6 2.8-1.9 7.1 1.4 8.4 1.8.7 2.7.3 5.2-2.4l3-3.3 3.6 3.6c1.9 2 4.8 5.7 6.2 8.3 1.5 2.5 3.8 5.5 5.1 6.5 4.8 3.8 6.4 9.2 4.1 14.5-.6 1.4.1 2 3.9 3 4.9 1.3 5.1 1.6 3.7 6.4-.8 2.9-.5 3.7 4 9 2.7 3.3 4.9 6.7 4.9 7.6s1.1 2.7 2.4 4 2.6 3.2 2.8 4.3c.6 3.5 4.3 3 7.3-1 3.1-4 5.7-4 8.8.1 2.6 3.3 7.7 3.4 7.7.1 0-3.4 4-6.7 7.9-6.7 3.5 0 8.4-4.1 9.6-8.1q.6-2.2 2.8-1.5c1.2.4 4.5 1.1 7.2 1.5 2.8.5 6.7 1.7 8.7 2.6 3.4 1.7 3.6 1.7 5.7-.4a8 8 0 0 1 4.5-2.1q2.5 0 5.1-3.4c1.6-2.2 3.7-3.6 5.3-3.8 2.1-.2 2.8-.9 3-3.1q.3-2.7 2.1-2.7c1 0 2.4-.7 3.1-1.5s2.5-1.5 3.9-1.5q5.5 0 6.9-5.5c1.1-4 3.9-4.4 6.7-.9 1.9 2.3 3.1 2.8 6.6 2.9 2.4 0 6.1-.4 8.1-.8 3.3-.7 4-.5 7.2 2.8 1.9 1.9 4.4 3.5 5.6 3.5 1.7 0 2 .6 2 4s.4 4.1 2.5 4.6q2.5.6 5.1-1.5c3.8-3 6.3-2.6 10.5 1.5 3 2.9 4 3.4 5.5 2.5a32 32 0 0 1 7.6-1.6c6.3-.7 5.9-.2 7.4-11 .5-3.7 1.5-5.7 3.6-7.7 2.7-2.5 3.7-2.8 12.6-3l9.7-.3 3.2-5.5 5.3-9c1.9-3 2.1-3.9 1.1-6.6-1.4-3.8 0-8.7 3.7-12.7 2-2.1 3.5-2.7 6.6-2.7q8.3 0 9.9-5.5c.5-1.7 2.3-3.9 4-5q3.3-2 3.5-5a40 40 0 0 1 1.4-7.3c.9-3.6.8-4.5-.6-6.1-.9-1-2.3-4-3.1-6.7q-1.4-5-5.5-8.9c-6.6-6.3-6.6-6.6-1.8-13.5 4-5.6 4.5-6 7.3-5.5 9.5 2 10.2 1.9 14.4-1.6 2.9-2.5 4.2-4.4 4.6-7.1.5-3 1.2-3.9 3.8-4.8a54 54 0 0 0 16.7-15.5c0-.8-1.1-2.5-2.5-3.7-4.9-4.2-3.6-5.8 9.4-12.3 9.4-4.6 13-5.9 16.7-5.9 4.6-.1 4.9.1 7.1 3.9 3.9 7 3 27-1.8 39.8l-2.9 7.8 2.5 6.7c4.4 11.8 5.2 12.8 13 16.3l7.1 3.2 8.8 15.4c8.4 14.8 8.8 15.3 12 15.3 1.9 0 4.6 1 6.7 2.6 1.9 1.4 5.1 3.4 7.1 4.5l3.8 1.9 4.7-2.4 4.8-2.4 3.5 2.9c3.9 3.3 5.6 3.6 8.7 1.4 2-1.4 2.4-1.2 7.1 4.1q7.8 9.1 2.1 10.7c-1.5.4-1.8 1.1-1.4 3.4.5 2.4 0 3.2-3.5 5.7-3.6 2.4-6 5.9-6 8.5 0 .4 1.7 1.3 3.9 1.9 2.4.8 5.6 3.1 8.5 6.2a20 20 0 0 0 7.7 5.7c2.6.5 2.9.9 2.9 4.6 0 3.3.7 4.8 3.5 7.7s3.6 4.7 4.7 10.7c1.1 7 1.1 7.3-1 9.6s-2.9 5.7-1.6 7c.3.3 2.3-.1 4.4-.8 3.6-1.3 3.9-1.2 6 1 1.7 1.9 2.7 2.2 4.5 1.5s2.4-.4 3.4 1.6q1.1 2.3 3.1 2.4c4.2 0 5.9-1.9 8.1-9.3 1.2-3.9 3.2-8.3 4.5-9.7s2.6-4 3-5.6c.5-2.8.1-3.5-3.8-6.7a28 28 0 0 0-6.8-4.2c-2-.5-2.9-1.9-4.7-7.4-2.8-8.4-2.8-9.3-.2-11.7 1.9-1.7 2-2.6 1.4-9.1s-.4-7.7 1.5-10.7c1.2-2.1 3.4-3.9 5.4-4.6 6.6-2.2 8.8-6.9 7-15.7-.6-3-.3-3.3 5.1-6.4 3.1-1.7 6.2-4.2 6.7-5.5s1.9-2.6 2.9-2.9 2.1-1.5 2.4-2.6a3 3 0 0 1 2.9-1.9c1.9 0 2.8-1.1 4.5-4.9 1.1-2.7 2.1-5.4 2.1-6s1.1-1.8 2.4-2.7a8 8 0 0 0 3.1-4.5q.7-3 2.6-2.9c1.5 0 1.9-.7 1.9-3.5 0-2.3 2-7.5 5.6-14.7 5.3-10.6 5.5-11.4 4.9-16.7l-1.1-13.6c-.5-7.6-.7-8.2-4.3-12-5.5-5.8-5.7-6.9-1.1-9 4-1.8 5-4 5-11.1 0-1.9.8-4.2 1.8-5.2 4.6-4.6 17.2-5.4 17.2-1.1 0 1.8 1.6 5.4 3.7 8.6.5.6 2.1 1.5 3.6 1.8 2.5.7 2.9.4 4.7-3.9 2.1-4.5 5.2-7.6 7.8-7.6 1.2 0 1.3 1.3.8 6.7-1.9 20.1-1.9 19.8.3 24.1 1.2 2.3 2.1 5.7 2.1 7.6q0 5.5 4.8 7c.9.3 3 3.1 4.6 6.1 3.9 7.6 10.9 14.3 15.5 15a39 39 0 0 1 7.8 2.5c4.1 1.9 4.3 1.9 9.9 0 3.1-1.1 7.1-2 8.8-2 3.9 0 6.6-3.9 6.6-9.7 0-2.1.4-4.3.8-4.9 1.3-2 4.6-2.1 7.8-.2 3.1 1.8 3.3 1.8 7.6-.1 2.5-1 5.4-3.1 6.5-4.5 1.5-1.9 3-2.6 5.6-2.6 1.9 0 5.4-.7 7.8-1.5s5.3-1.4 6.4-1.1 3.1-.1 4.4-.8c2.2-1.2 2.7-1 7.1 3.5l4.8 4.9.7 9.2.7 9.3 6.5 4.3 6.6 4.4-.5 6.3c-.6 6.3-.5 6.4 2.3 7.6 2.5 1 3.2.9 4.9-.6s2.7-1.6 6.8-.8c5.3 1 9.2.2 9.2-2 0-.8 1.1-3.1 2.5-5.2 2.3-3.3 2.4-3.9 1.2-5.4-.8-.9-4-6-7.1-11.3l-5.8-9.6 1.6-5.9 2.2-7.9c.3-1.2 2.1-3 4-4 2.8-1.5 3.4-2.4 3.4-5.1q0-3.3-2-4.3a4 4 0 0 1-2-3.5c0-2.9-.6-3-7.5-1.2-2.7.7-6 1.1-7.3.9-3-.5-6.5-7.3-5.7-11.1.3-1.5.1-3.9-.4-5.4-.8-1.9-.6-3.8.4-6.8.8-2.3 1.5-6.3 1.5-8.9 0-3.7.5-5.1 2.5-7 1.4-1.4 2.5-3.5 2.5-5s1.1-3.6 2.5-5 2.8-3.8 3.1-5.7c.6-3 1-3.3 4-3.3 1.9 0 5.7-1.1 8.4-2.5s6.4-2.5 8.1-2.5c1.9 0 4.6-1 6.5-2.5 4-3 4.4-2.3 4.4 7.6v7l4.3 1.8c3.2 1.4 5.1 3.1 7.1 6.6 2.1 3.4 3.2 4.5 4.4 4 1-.3 6.5-.8 12.3-1 8.2-.3 11-.1 12.5 1 2.4 1.8 6.8 1.9 8.2.2.5-.6 1.5-3.2 2.2-5.7.6-2.5 1.9-5.6 2.7-6.9q1.5-2.3 1.1-7.3c-.5-4.2-1.1-5.3-4.8-8.5-3.8-3.3-4.7-3.6-9.4-3.4l-5.1.2-1.4-5.3c-2.5-9.4-2.1-12.5 2.5-16.3 3.1-2.7 3.7-3.6 2.7-4.6-.7-.7-1.3-2.5-1.3-4 0-2.4 1-3.6 7.8-8.5.2-.1-.6-2-1.7-4.3-2.8-5.4-2.6-7.2.9-10.6 2.2-2.1 3-3.8 3-6.2 0-1.9.9-5.1 2-7.3a22 22 0 0 0 2-9.9c0-3.8.7-7.7 2-10.7s2-6.4 1.8-8.7c-.3-4.2-.3-4.2-11-9.2q-3.8-1.8-3.8-3.9c-.1-2.1-6.2-9.6-8-9.6-.5 0-3 1-5.4 2.2-3.3 1.6-4.9 3.1-6 5.7-.8 2-2.6 4.7-4 6a8 8 0 0 0-2.6 6.1c0 2.9-.5 3.9-2.5 5-2.2 1.2-3 1.1-6.3-.4l-3.7-1.8-2.7 3.3c-2.4 2.9-2.8 4.2-2.8 9.6v6.3h-3.3c-2 0-5.1 1.3-8.2 3.4a23 23 0 0 1-11 4c-5.8.7-6.1.6-8.9-2.3-1.7-1.7-4-3.1-5.1-3.1q-2.2.2-5.9-5.5c-2.7-4.1-4.2-5.5-6-5.5a10 10 0 0 1-5.4-2.5c-2.3-2-4.1-2.5-8.1-2.5-4.4 0-6.1-.6-11-3.9-5.7-3.9-5.8-4.1-6.5-9.5a18 18 0 0 1 1-9.5c1.4-3.7 1.4-4.2 0-6.3a10 10 0 0 1-1.6-5c0-3.3 0-3.3-4.9-.9l-3.8 2-6.3-3.9c-4.4-2.7-8-4.1-11.9-4.6-3-.4-9-2-13.3-3.5a44 44 0 0 0-26-1.6c-3.9.9-5 .8-7.2-.6-3.2-2.1-5.6-2.1-10.1 0-3.3 1.6-3.6 1.6-5.2 0s-1.4-2 4-7.5c7.1-7.1 7.3-9.8 2.2-20.9-2.4-5.3-3.5-9-3.5-12.3 0-6 3.8-17.1 8.8-25.7 2.3-3.8 4.8-8.9 5.8-11.3s3.2-5.7 5-7.2a19 19 0 0 0 4.5-6.6c.6-2 2.3-5.8 3.7-8.5 2.5-4.6 2.6-4.7 7.4-4.7 4.2 0 4.8-.3 4.8-2 0-1.2-.7-3.1-1.4-4.3-.8-1.2-1.8-5.2-2.2-8.8-.6-5.7-.4-6.7 1.1-7.3 1.7-.6 1.7-.7 0-2.6-1-1.1-2.5-2-3.3-2s-2.7-.9-4.3-2.1c-1.6-1.1-3.3-1.8-3.8-1.5-1.9 1.2-10.7-11.3-13.1-18.7-1.6-4.9-2.3-5.6-12.3-12.7a405 405 0 0 1-16-11.7c-3-2.4-9.9-6.3-15.6-8.7-5.6-2.5-11.3-5.4-12.8-6.5a22 22 0 0 0-16.3-3.6c-5.2.6-6.2.4-11.2-2.4a19 19 0 0 0-9.9-3.1c-2.4 0-7.8-.9-11.9-2.1-6.7-1.9-8.2-2-14-.9-3.6.7-9.4 2.8-13 4.6a23 23 0 0 1-11 3.4c-4.2 0-5-.4-7.7-3.8-1.6-2-3.5-4.7-4.1-5.9-1.1-1.9-.9-2.2 1-2.5q6.1-.9-3.9-5.8a72 72 0 0 1-8.5-4.8c-1.6-1.3-2.2-1.2-5.8 1.3-2.2 1.5-4 2.9-4 3l4 2.9c4.3 2.8 4.9 4.6 2.4 6.7-1.2 1-2 1-3.5.1-1-.7-2.7-1.2-3.7-1.2-2.4 0-4.9-2.7-5.8-6.5-.4-1.7-1.3-3.9-2-5-2.1-2.9-1.7-6.2.6-6.8q1.8-.6 2-2c0-1.9-3.4-3.1-7.7-2.8-2.7.2-3.2-.1-3.8-2.9-1.5-6.9-9.9-12.5-9.4-6.3.3 4.7 0 6.3-1.5 6.3q-1.4-.2-2.6-4.9c-1-4.4-1.5-4.9-4.9-6-2.1-.6-5-1.1-6.5-1.1-2.5 0-2.7.2-2 3.5"/></svg>