<svg xmlns="http://www.w3.org/2000/svg" width="1365.333" height="1365.333" viewBox="0 0 1024 1024"><path d="M539.4 1.5c-1 .8-3 1.5-4.3 1.5-2.2 0-2.3.3-1.6 3.7 1.2 5.9.8 7.4-2.5 10.7-2.7 2.7-3.7 3.1-8.1 2.9-4.4-.1-4.9.1-4.3 1.5.4 1 1 6.6 1.3 12.7s1 11.5 1.4 12.2a99 99 0 0 1 3.7 22.9c0 2.8-.5 7.6-1.1 10.8q-1 5.8 0 7c.6.6.8 2.1.5 3.3s.1 3.4 1 5.1c1.8 3.5 2.1 10.3.6 11.8-.6.6-1.7 7.3-2.5 15-2.5 23.5-2.6 23.9-5.5 23.8-3.3-.2-4 1.1-4 7.9 0 5.5.1 5.8 2.1 5.2 2-.7 2.1-.4 1.5 2.1-.4 1.6-1.3 8.7-2 15.9-1.2 11.4-1.2 13.3.1 15.4 2.3 3.6 1.4 14.2-1.6 18.1-2.6 3.6-3.8 9-2.4 11.4 1.7 3-2.3 30.2-4.8 33-.5.6-.9 3.8-.9 7.3 0 4.7-.4 6.5-1.5 6.9q-2.5 1-4 13.4c-.4 3-1.5 7-2.6 8.8-1 1.8-1.9 4.4-1.9 5.6 0 1.3-.9 3.5-2 4.9q-3.7 4.8 0 9.7c1.7 2.1 2 4.1 2 13.2 0 9.5-.2 11-2 12.8-1.2 1.2-2.5 1.8-3 1.5q-1-.6-1 .2l-.9 5.2q-.9 4.4.6 15c.8 5.8 1.8 15.5 2.2 21.6.5 6 1.4 12.5 2.2 14.2 1.5 3.8.4 9.8-3.3 16.8-2.2 4.3-2.7 12-.9 13.8 1.7 1.7 1.3 4.7-1 6.6-3.5 2.8-6.1 10.8-6.5 20q-.4 8.4-1.9 10.1c-.8.9-1.5 3.1-1.5 4.8q0 3-1.7 3.7c-3 1-10 17.5-11.3 26.5-.8 5.5-1.7 8.7-5.1 17a84 84 0 0 0-2.7 8c-1 4.1-4.2 5.2-7.2 2.5-1.7-1.5-1.8-1.5-2.5 1.4-.3 1.7-.2 3.8.3 4.7s.7 3.4.5 5.4q-.6 3.6 1.6 7.9c1.8 3.5 2.1 5.2 1.5 9.9-.5 5.1-.2 6.8 3.1 15.2 3.3 8.6 3.6 10.1 3.1 16.3q-.9 11.8-6 11.7c-2.3 0-2.4.3-3.1 9.7-.5 6.2-1.3 10.4-2.2 11.4-1.9 2.2-1.6 7.3 1.3 22.6.2 1.2 1.3 2.5 2.4 2.8 1.6.5 1.8 1 1 2.5q-1 2 .2 2.2c2 .7-.1 2.7-3.6 3.3-3 .6-3.3 1-4.4 6.4-.7 3.1-1.2 9-1.2 12.9 0 4.2-.6 8.8-1.5 10.9-2.4 5.8-2 6.9 3 8.7 6 2 9.5.9 8.8-2.8-.4-2.1-.2-2.6 1.6-2.6q3.4-.1 1.1-4-.9-1.4.3-2.2 1.4-.5-1.1-5-4.4-8.4.1-10.3c2.6-1.2 3.5-5.7 1.6-9.1-1.7-3.3-.5-5.4 3.2-5.4 2.5 0 3.3-.6 4.2-3q1.1-3 3.2-3c2.7 0 7.1 3 5.6 3.9-.6.4-1.3 2.1-1.7 3.8-.4 2.3-.2 3.2 1.1 3.7 1 .3 2.3.2 3-.4.9-.8 1.4.3 1.8 4.7.6 5.7.2 8.1-.8 4.9l-1-3.1c-.2-.8-1.6-1.5-2.9-1.5-2.3 0-2.5.2-1.6 2.6q1 2.5 0 4.4c-1.3 2.4-1.3 7.1 0 10.6.8 2 .7 3.2-.5 5-.8 1.3-1.5 3-1.5 3.7s-.7 2-1.5 2.7c-1.7 1.4-2 7.5-.5 8.5 1.8 1.1.4 6.8-1.9 7.9q-2.4.8-1.7 3.2c.4 1.3.2 2.6-.4 2.9-1.5.9-1.2 2.5.5 2.5q1.3.2 1.5 1.5c.2 1.3.5 1.5 1 1.5s2.4 1 4 2.1 3.5 1.9 4.2 1.6c1.1-.4 1.1.4-.1 4.2a12 12 0 0 1-5.9 7.4c-2.4 1.5-5 2.7-5.9 2.7q-1.6-.1-.9 2.2l.9 3.4c.2.7.8 1.9 1.5 2.7 1 1.2.7 1.8-1.5 3.3a19 19 0 0 1-4.8 2.4c-2.7.8-3 4.1-.5 6.7 2.2 2.4 2.6 4.8.9 5.8q-1 .4-1.6-1.4-.5-2.3-2.4-1.6c-2.2.7-2.5-1.7-1-5.8.8-2 .6-2.9-.8-4.1-1.6-1.4-2-1.5-3-.2-.7.8-1.1 3.2-.9 5.3.3 3.5.1 3.8-2.4 4.1-1.6.2-3 1.1-3.3 2.3-.6 1.7-.8 1.7-2.1.4-2-2-6.8-1.9-8.5.2a7 7 0 0 0-1.4 4c-.1 2.1.2 2.3 2.7 1.8 3.7-.9 3.9 2.2.2 3.1-2.3.6-4.6 2.6-9.1 7.8q-1.2 1.4-2.5 1.8-1.2.6-1.3 4.7 0 6.5 4.5 5.8c1.7-.3 2.7-4.7 1.1-4.7-2.6 0-.8-3.1 2.7-4.7l4.2-2c.3-.2.5 1.1.5 2.9 0 2.8.4 3.3 3.4 4.2 2.6.7 3.6.7 3.9-.2.6-2 3.9-1.3 5.5 1.2.9 1.3 1.9 3.6 2.3 5.1s1.3 2.9 2 3.2c2.4.9 1.5 2.6-.9 1.9-1.8-.4-2.7 0-3.7 1.9-.7 1.4-1.7 2.5-2.2 2.5s-.6.9-.3 2q.6 2-.8 2c-.7 0-2 1.1-2.7 2.4-1 1.9-2.2 2.6-5.4 2.8-3 .2-4.2.8-4.4 2.1q-.6 2 1.9 1.5c1.2-.2 2.4.3 2.6.9q.3 1.2-1.1 1.3c-1.4.1-1.6.8-1.6 1.9 0 2.8-2 3.7-2.7 1.2-.6-2.4-3.1-2.8-3.9-.6-.3.8-.1 3 .6 4.9.9 2.8.9 4.3-.1 7.1-1.1 3-1.1 3.8 0 4.4q1.5 1-.3 1.4-1.5.8-1.6 2.3c0 1.6 1.1 1.6 5.3-.1q1.9-.9 1.1.9c-.3.9-1.5 1.6-2.5 1.6-2.6 0-3.5 2.7-1.6 4.8q1.6 1.7.7 3.2c-1.3 2.1 0 3.3 1.8 1.7 2.6-2.3 5.6-2.5 6-.4.2 1-.2 2.5-.8 3.3-1.1 1.2-1.4 1.2-2.5-.3s-1.3-1.5-2 .7q-.8 2.3.9 3.2c2.6 1.5 2 4.8-.9 4.8q-2.3.1-2.5 1.2c0 2.2 1.7 4.1 2.9 3.4q1-.5 1.7.8c.8 2.1 6 2.1 6.8 0 .3-.9.6-3.2.6-5.2s.6-4.4 1.3-5.3c1-1.3 1.1-.1.9 6.1-.3 6.4-.1 7.8 1.2 8.3 3 1.2 4.4-.4 5.1-5.8.4-3.2 1.3-6 2.4-7q1.9-1.6 2.6-8c.6-6 2.5-9 4-6.5q.5 1-.6 1c-1.1 0-1 1.3-.7 3.5q.5 3.5-.9 3.5c-2.3 0-1.4 4.7 1.2 6.4 1.3.9 3 2.6 3.6 3.8l1.2 2.1-2.8-2.1c-3.6-2.8-7.5-2.9-7.5-.2q0 1.8 1.2 2 1.3 0 0 1.2c-1.9 1.9-1.5 2.6 1.8 3.3 1.7.4 3 1.3 3 2.2 0 1.3-.3 1.3-2.6-.2-1.4-.9-2.8-1.4-3.1-1.2-1.1 1.2 1.1 5 4 6.8 2.7 1.6 2.8 1.9 1.1 1.9-1.1 0-3-1.1-4.2-2.5-2.6-3-6.2-3.4-6.2-.7 0 2.1 3.7 6.5 5 5.7q.8-.4 1.4 1.1c.5 1.3.9 1.4 2.1.4s1.6-.9 2.2.5q.5 1.7-1 3c-1.9 1.3-2.3 3.5-.7 3.5q1 .1 1 1.4c0 1.9 3.1 2.9 4.3 1.4q.9-1.4.3.5l-.6 2.3c0 .2-1.3.1-2.9-.2-2.3-.5-3.2-.2-4 1.5-1.2 2.2-.4 7.4 1 6.5.5-.3.6.8.3 2.4q-.7 3 .9 3.5c1.8.7 5.3-2.8 3.8-3.8-2-1.2-1.1-2.2 1.4-1.7q2.4.4 2.5 2.2c0 1 .7 2.3 1.5 3 2.5 2.1 1.7 3-1.2 1.4-2.4-1.2-2.8-1.2-3.1.1-.2.7.2 2.3.7 3.4a10 10 0 0 1 1.1 3.9q-.1 2.2 1.9 1.5c1.6-.4 2.2.3 3 3.5 1.5 5.3 6.1 7.4 6.1 2.7 0-1.3.8-2.8 1.7-3.4 1.6-.8 1.5-1.2-1-3.1-1.5-1.2-2.7-2.7-2.7-3.3q0-1.2.8-.1c.8 1.2 7.5 4.4 9.1 4.4q1-.1 1.1-1.4c0-1.7-5.8-6.8-7-6.1q-.7.3-1.4-1c-.7-1.9-.2-1.9 3.2-.1 5.1 2.7 6.5 5.1 5.8 10.2-.3 2.6-.1 5.4.5 6.6 1.3 2.3.3 9.1-1.3 8.6-.5-.2-1.2-2.8-1.4-5.7s-.7-5.7-1-6.2c-1.2-2-2.4-.7-2.4 2.6 0 1.9-.5 3.5-1.1 3.5s-.9-.7-.5-1.5c.7-1.9-1.8-2-3.7 0-1.3 1.3-1.6 1.3-2.7 0-1.7-2-4.3 0-3.5 2.6.3.9 0 2.1-.7 2.6s-2.3 2.2-3.5 4c-1.8 2.5-2 3.3-.9 4.2 1.5 1.3 3.6-.4 3.6-3 0-1.8 1.7-3.5 2.6-2.6.3.3.1 1.4-.4 2.4-.6 1.1-.7 2.5-.2 3.3.7 1.2 1.2 1.1 2.8-.3 1-.9 2.1-1.5 2.4-1.2s.8-.5 1.2-1.8c.5-2.3.8-2.4 4.8-1.4 2.4.5 5 1.3 5.9 1.7.8.4 2.3.3 3.3-.2s4.1-.7 7.3-.3c4.4.5 5.2.9 4.3 2q-1.1 1.4-4.6.8c-2.8-.5-3.9-.1-5.9 2.1-2.4 2.6-5.5 2.7-5.5.1 0-1.6-2.9-4.1-5.8-5-1.9-.5-2.5-.1-3.7 2.9-.8 1.9-1.9 3.7-2.4 4q-.8.8.2 4.1c.9 3.1 1.4 3.5 4.4 3.5 1.8 0 3.3.4 3.3 1q.2.9 1.5 1c1.3.1 1.5.3 1.5.8s-1.8.6-4 .4-4-.2-4 .1c0 .2 2.8 2.3 6.1 4.6 6.1 4.2 8.7 4.8 5.6 1.3-2.4-2.7-2.1-5.1.9-6.2 2.3-.9 2.4-1.2 1.3-2.7-1.3-1.5-1.1-1.5 2.2-.9 2.9.5 3.9.2 5.5-1.5 2.3-2.6 9.1-6.2 10.3-5.4 1.5.9-2.6 8-5.3 9.3a5 5 0 0 0-2.9 3.9l-.4 2.8-.2-2.8c-.2-3.7-4.1-4-4.1-.3 0 1.4-.4 2.7-.9 3q-.8.5-.4-1.5c.5-1.7.2-2-1.3-1.7a3 3 0 0 0-2.2 2.2c-.8 3.7 2.2 6.8 10 10.6 7.1 3.4 7.8 3.5 10.3 2.2 2.7-1.4 2.7-1.6 2.1-7.6-.4-4.5-.2-6.7.8-8.2.8-1.1 1.6-4.8 1.8-8.2s.7-6.3 1.3-6.3l3.9-.5a10 10 0 0 0 4.5-1.6c4.6-3.7 10.1-5.1 10.1-2.5 0 .7-1.3 2.8-3 4.7-2.9 3.4-3 3.4-4.5 1.6-1.2-1.6-1.7-1.7-3-.6-1.9 1.6-1.9 3 0 3q2.5 0 .6 2.9-1 1.2-2.5.8c-1.3-.5-1.6.2-1.6 4.3 0 3.9.4 5.2 2.2 6.4 1.9 1.4 2.4 1.4 3.8.1 1-.9 3.6-1.5 6.3-1.5 4 0 4.7.3 4.7 1.9 0 2.1-3.6 5-8.8 7.1-3.1 1.2-3.3 1.5-3 5.9.3 4.6.3 4.6 7.8 8.9 4.1 2.3 7.6 4.6 7.8 5 .1.4-.4 1.7-1.3 2.7-1.4 2-1.4 2-1.5-.2 0-1.2-.9-2.7-2-3.3s-2-.8-2-.4q-.2.4-2.5-1c-2.2-1.4-2.5-1.5-2.5-.1q-.1 2.7-2.7.4c-1.4-1.4-12.5-1.8-14.2-.5-.7.5-4.3 1.2-7.9 1.4-7.3.3-8.7 1-9.7 4.9-.8 3.4 1 4.5 4.4 2.7 3-1.6 6.7-1.8 7.5-.5.3.5 1.8 1.2 3.3 1.6 3.9.9 8 4.3 6.1 5-.8.3-2.7.1-4.2-.5s-4.2-1-5.9-.9c-3.1 0-3.1.1-.8 1 1.3.5 3.9 2.2 5.7 3.8 4.2 3.7 9 4.9 11.2 2.7 1.4-1.4 1.4-1.6-.5-2.3-3.4-1.3-.4-4.4 4.9-5q4.4-.4 3 .5c-1.8 1.2-3.3 13.4-1.8 14.4.6.4 2.3.8 3.7.8s3.4.9 4.4 2c2.3 2.5 3.8.9 2.9-3.2-.3-1.4 0-2.9.6-3.3 1.6-1 4 1.4 4 4.1 0 2.1.5 2.4 3.4 2.4 3.6 0 6.6 2.1 6.6 4.6q.2 1.3 2 1.4c3.1 0 2.4-3.2-1.5-7.3q-3.5-3.6-2.1-3.7c2.9 0 2.7-2-.3-2.6q-5.9-1 0-3.5c2.8-1.1 3.3-1 4.5.6.8 1 1.4 2.7 1.4 3.8s.5 1.7 1.3 1.4c4.8-1.8 5.6-1.7 6.7.3.6 1.1 2.1 2 3.5 2 1.9 0 2.5-.6 3-3.4.8-4.2-1.7-8.6-4.9-8.6-1.1 0-5.6-.5-10-1.2l-7.8-1.2.7-29.6c.6-25.5.5-29.7-.7-30.8-1.2-1-2.1-.9-4.3.2-3.5 1.8-5.1 1.2-7-2.7-3.1-6.2-.7-9 5.6-6.4 6 2.5 9.9 3.5 10.4 2.7.6-.9-11.6-6-14.5-6a22 22 0 0 1-7-2.5c-4.6-2.3-5.9-2.5-20.5-2.5-12 0-15.5-.3-15.5-1.3 0-2.1-2.4-6.7-3.6-6.7-.5 0-1.8-.6-2.8-1.3-1.6-1.2-1.7-1.8-.5-5.5.9-3.2.9-4.5 0-5.6s-.9-2 0-3.9c1.6-3.5.3-11.4-2-12.7-1-.5-2.1-.7-2.4-.4s-1.7.7-3.1.8-3.5 1.1-4.6 2.1-2.1 1.6-2.3 1.4a22 22 0 0 1-2.7-8.7c0-1.5-.8-3.8-1.7-5.2-1.8-2.6-1.9-3-2.8-13-.7-8.6.1-12 2.6-11.7 1.5.1 2.4-.7 3.4-3.6q2.4-7 5-6.1c2.5 1 4.8-4.1 4.1-9-.6-3.9-.4-4.6 1.9-6.4a6.7 6.7 0 0 0 .5-10c-2-1.8-2-2.1-.6-6.3.9-2.4 1.6-5.2 1.6-6.2q.2-1.8 1.9-2.4c1.1-.3 2.5-1.8 3.1-3.4s1.8-2.9 2.4-2.9q1.3.1.8-5.9c-.4-5.3-.2-6 1.6-6.5a5 5 0 0 0 2.7-2.6c.7-2.3-1.3-9.9-3.1-11.9-1.1-1.2-.8-1.7 1.2-3.3 2.3-1.9 3.3-5.8 1.5-5.8-1.4 0-2.3-3.5-1.5-6.4.3-1.4 1.2-2.6 2-2.6s1.4-.6 1.4-1.4.7-1.6 1.5-2q1.4-.6 1.5-4c0-4.5-4.6-8.6-9.6-8.6-2.7 0-3.4-.4-3.4-2 0-1.8.7-2 8-2q8.3 0 8.4-1.3c2.4-7.7 1-9.7-7.1-9.7h-5.6l.6-4.1c.3-2.2 1.3-4.9 2.2-5.9 1.5-1.7 1.5-2.1.2-4-.8-1.2-1.3-2.9-1-3.9s-.2-3.2-1.1-4.9q-3-6 0-6.2 1.5 0 1.2-2.2-.1-2.5-3.5-2.6c-2.5-.2-3.4-.9-3.9-2.7-.7-2.8.1-21.9 1-23.3.3-.6 1.5-.8 2.6-.5q4.5 1.2 1.4-8.5A32 32 0 0 1 489 640l.4-8.2c.1-2.1.5-4 .9-4.4.3-.4-.1-2-1-3.7-1.2-2.4-1.3-3.5-.4-4.9.6-1 1.1-2.6 1.1-3.7 0-1 .7-2.4 1.5-3.1 1.9-1.6 1.9-3.6 0-4.4-2-.7-2-4.6 0-4.6 1.2 0 1.5-1.4 1.5-6.8q0-6.7 1-5.2.9 1.8 1.9-1.3c.6-1.6 1.1-3.4 1.1-4.1s.3-1.6.7-2 .6-2.6.4-5.1c-.3-5.9 1-8 6.4-10.1 5-1.9 6.8-5.2 4.2-7.8-.8-.8-1.8-4.1-2.2-7.2a51 51 0 0 0-1.7-8.3c-1-2.4-1.9-11.4-1.8-17.1l-.1-8.8q0-6.2 1.1-6.2t.8-3c-.4-2.3 0-3.1 1.6-3.7 1.2-.4 2.9-.6 3.9-.4q1.8.4 1.7-2.7c0-3.1 2.2-5.7 4.9-5.7q1.6.2 2.3-4.5a45 45 0 0 0-2.3-18.5q-2-2 .9-2.7c1.9-.5 4.5-8.7 3.6-11.3q-.4-1.3.5-1.5 1.2-.2 1.1-1.1c-.1-.9.9-2.2 2-3.6s2-3.4 2-4.4q-.1-2 2.3-1.6c2.1.2 2.2 0 2-8.3-.2-4.7.2-10.2.9-12.3.9-2.9.8-4.2-.2-6.2q-1.2-2.1-2.2-1.9c-1.3.8-3.8-1.6-3.8-3.7q0-1.8.9-1.9c2 0 2.1-3.4.1-5.2a8 8 0 0 1-2-5.3c0-1.9-.9-5-2-7-2.2-3.8-2.7-8.5-.9-8.5 2.2 0 .4-4.4-2-5-2-.4-2.8-1.6-3.8-5.5-1.6-6.2-.8-12.6 1.7-13.2 1.6-.4 3.4-3.6 3.1-5.6a42 42 0 0 1 3-11.2 4 4 0 0 0 .9-2.5q0-1.6 2.3-1.6c3 .1 6.5-6.4 4.2-7.7-1.2-.6-1.4-1.9-.9-5.6.4-2.9.2-5.1-.4-5.5-.6-.3-.8-1.5-.5-2.5s0-2.2-.6-2.5c-1.9-1.2-1.2-5.2 1.3-7.9a40 40 0 0 0 5.6-17.8c0-1.4 1.8-4.4 4.5-7.4l6.2-7c2.2-2.4 4.3-6.3 4.3-7.9a30 30 0 0 1 2.4-6.1 63 63 0 0 0 3-6.8q.5-2 3.3-1.6c1.6.2 3.3.1 3.8-.2s2.2-.9 3.8-1.3c3.5-.8 3.4-2.7-.3-9.5-3.4-6.2-3.8-11-1.2-13.4 1.6-1.4 1.7-2.5 1.1-7-.4-2.8-1.5-6.9-2.4-9.1q-2.7-6.3 2.6-12.1c1.8-2 1.8-2.2-.3-6.4s-2.1-4.4-.3-7.7c1-1.9 2.4-3.4 3.2-3.4q1.3-.1 1.9-1.4c.6-1.3 5.1-3.3 10.7-5.5s10.8-4.5 11.5-5 3.2-6.9 5.6-14.4l4.3-13.6-2.8-2.7-2.8-2.6-6.8 1.5c-6.7 1.5-6.8 1.5-8.5-.6q-1.7-2.2-1.1-4.2c.4-1.1.6-2.9.6-4q-.9-12.2-3.3-15.3a10 10 0 0 1-2-5.1c0-1.5-.7-3.7-1.6-4.9s-1.4-3.3-1.1-4.4c.7-2.5-3-10.1-6.8-14.2-2.4-2.6-2.5-3-1-4.6s1.4-1.9-1.3-4.1c-3.9-3.4-4.4-4.5-3-6.9 1-1.6 1-2.4 0-4-1.1-1.8-1-2 1.3-2s2.5-.4 2.5-3.7c0-2-.7-4.4-1.6-5.4-1.5-1.7-1.4-2.1 1.4-5.5l3-3.6-3.9-3.9a19 19 0 0 0-4.8-3.9c-1.5 0-3.8-4.3-4.5-8.5a90 90 0 0 0-3.7-15.8q-1-1.8.1-3.7c1-1.8.7-2-2-2-2.5 0-3-.4-3-2.4 0-1.3-.7-3-1.7-3.7s-2.1-2.6-2.8-4.1c-1-2.6-1.3-2.7-3.1-1.3m-77.1 882.2c-1.9.7-1.6 2.1.7 2.8q1.8.7 1.5 1.5-.6 1-2 .3-1.3-.4-1.5.6-.2 1.3-1 1.1c-1.6 0-1.2-4.2.7-6.2q1.5-1.6 2.2-1.2.4.7-.6 1.1m32.7 79.8q-.1 1.3-1.6 1.5-2 .1-.4-1.5 1.2-1.4 1.6-1.5c.4-.1.4.7.4 1.5"/><path d="M431.6 876.1q-1.1 6 2.9 5.9c1.3-.1 7.5-5.7 7.5-6.9 0-.5-1.2-1.1-2.7-1.4l-4.9-1.2c-1.9-.6-2.2-.2-2.8 3.6m12.3 7.7q2.2 4.1-.2 4.2c-.7 0-2.2.6-3.2 1.4-1.7 1.2-1.7 1.5-.2 3.6q2.8 4-1.4 10c-.9 1.4-2 4.4-2.3 6.7-.5 3.7-.4 4.1 1.3 3.6 1.1-.3 2.9-1.6 4.2-2.9 1.2-1.3 3.1-2.4 4.1-2.4s1.8-.7 1.8-1.5c0-1.2-.8-1.4-4-.9q-6.5 1-2.2-2.8c2.4-2.1 5-2.9 5.7-1.8 1.3 2.2 2.5.8 2.5-2.9 0-2.2.5-4.3 1-4.6 1.3-.8.3-7.5-1.4-9.2-.6-.6-2.4-1.5-4-1.9-2.6-.6-2.7-.5-1.7 1.4M432 886c0 .9-.5 2.1-1.1 2.7q-1.3 1.1 1.2 1.8c1.7.6 2.7.2 4-1.6 2.5-3.2 2.4-3.6-1.1-4.1-2.3-.3-3-.1-3 1.2m8.5 30.4c-1.8 1.3-1.8 1.5.3 6 1.2 2.5 2.2 5.5 2.2 6.5 0 2.7 4.1 5.6 5.2 3.7 1.3-2.3.1-9.2-2.4-13.5-2.6-4.6-2.7-4.6-5.3-2.7m8.6 29.5c-2 1.3-.5 4.7 2.7 6l8.5 3.2c6.2 2.2 6 1.9 4.1 7.9-.6 1.9 3.2 7 5.1 7 1.3 0 2.7 2.8 2.4 4.6v2.6c.1 2.3 2.7 1.3 3.4-1.3.7-2.5 3.7-2.5 3.7 0 0 1.1-.4 2.3-1 2.6q-3.5 2.3 5.1 2.2c4.4-.1 6.3.2 6.9 1.3 2.6 4.3 2.6 4.3 5.5 2.4 2.2-1.4 3.1-1.5 4.6-.6a9 9 0 0 0 4.4 1.2c5.2 0 1.3-7-4.8-8.5-1.5-.4-3-1.1-3.3-1.6-1-1.7-4.1-.9-5.4 1.6-1.7 3.1-3 2.3-3-1.9 0-3.6-3.7-7.9-8-9.1-1.4-.4-4.7-3-7.4-5.7s-8-6.5-12-8.5a32 32 0 0 1-7.9-4.9c-.9-1.6-1.7-1.7-3.6-.5m65.1 21.3a5 5 0 0 0-1.2 3.1c0 1.1-.6 2.5-1.4 3.1-1.6 1.2-2.4 7.4-1.2 9.4.4.7 2.7 1.2 5.4 1.2l4.7-.1-3.5-3c-3-2.6-3.2-3-1.2-2.6 2.2.5 2.2.3 1.6-4.6-.8-6.7-1.6-8.1-3.2-6.5"/></svg>