<svg xmlns="http://www.w3.org/2000/svg" width="1365.333" height="1365.333" viewBox="0 0 1024 1024"><path d="M710 3.8c-2.3 4.1-2.5 4.2-7.6 4.2q-5.2 0-6.4-1.5c-1.2-1.4-4-2.1-4-.9 0 2.3 2.8 4.6 7.5 6 3.1.8 5.3 2 5 2.5-1 1.4-6.3 1.1-9-.7-2.2-1.4-2.7-1.4-6 .1-4.4 2.2-5.3 3.5-3.2 5 1 .7 1.7 2 1.7 2.9a23 23 0 0 1-5.9 11c-2 1.8-2 1.9-.1 5.6 2.2 4.2 5.8 6.1 15.8 8 5.9 1.2 6.5 1.6 14.9 10.2l8.8 8.9-.4 8.2q-.3 8.2-2.2 11.9a21 21 0 0 0-1.9 8.5c0 3-.7 6-2 8-1.9 3.1-1.9 3.3-.1 4.5 2.8 2 4.1 7.8 2.9 13.1-.8 4.1-1.2 4.6-4.5 5.2-4.6.8-13.3 7.4-16.7 12.5-2 3.1-3.3 4-5.4 4-1.6 0-4.4 1.1-6.2 2.5a28 28 0 0 1-7.1 3.7c-3.3.9-4.1.8-6.7-1.1q-4.8-3.2-7.7-1.3a24 24 0 0 0-3.6 4.7c-1.5 2.2-4.5 6.2-6.8 9a21 21 0 0 0-4.1 6.7q0 1.8-2.4 1.8c-3 0-8.6 8.2-8.6 12.7q0 3-3 5.8t-3 6.1c0 2.4-.5 3.4-2 3.9q-5 1.6-7.5 20.7c-.4 2.9-1.6 5.9-3.1 7.7-1.8 2.1-2.4 4.1-2.4 7.4 0 2.5-.5 4.9-1 5.2-.6.4-.8 2.1-.4 4.1.5 3 .2 4-2.2 6.5-1.5 1.6-3.4 2.9-4.1 2.9-.8 0-3.9 2.3-6.9 5.1-4.4 4.2-5.4 5.8-5.4 8.4 0 1.8-.7 3.8-1.5 4.5-2.3 1.9-1.9 8 .7 10.7 2.1 2.2 2.1 2.4.5 5.8a24 24 0 0 0-1.7 8.3c0 4-.5 5.3-2.7 7.5-1.6 1.4-4.7 3-7 3.5-2.5.6-7.4 3.4-12.5 7.2l-9.8 7c-1.3.7-1.1 1.2.8 3.2 2.6 2.8 2.8 6.2.7 11.5-3.1 7.9-6.9 25.1-7.2 33l-.4 8.1-4 .7c-3.2.6-3.9 1.1-3.9 2.9 0 2.7-2.9 5.6-5.5 5.6-1.1 0-3.1 1.2-4.6 2.6-2.5 2.4-2.8 2.5-5.6 1.1-2.5-1.3-3.2-1.3-5.6-.1-2.4 1.3-2.7 2-2.7 6.4 0 4.6-.2 5-2.3 5-1.3 0-3.6 1.3-5.2 3s-3.7 3-4.6 3c-1 0-3.1 1.7-4.8 3.7-2.9 3.6-3.1 4.2-3.1 12.5 0 8-.2 8.8-2.5 10.6-2.4 1.9-2.4 2.1-1.1 5.9l1.4 3.9-6.5 12c-8.8 16-11.6 23.6-11 29.6.4 4.4.2 4.8-2.5 5.9-2.2.9-2.8 1.8-2.8 4.3-.1 4.7-8 19-10.7 19.4-2.5.4-2.7 1-1.4 4.5.5 1.3 1.1 5 1.2 8.3l.3 5.8-3.5.8c-1.9.5-5.9 2-8.9 3.4-4.6 2.1-6.1 3.5-9.2 8.7-2.6 4.3-3.4 6.5-2.8 7.7q1 1.5-2.1 6.3a17 17 0 0 0-2.9 8.6c0 3.7-.2 4-3.7 4.8-3 .7-3.8 1.4-4.5 4.1q-1 3.2-2.6 3.2a8 8 0 0 0-3.8 1.5c-2.5 1.9-3.2 1.9-3.9-.4-.5-1.8-1.3-1.9-9.3-1.4-8.6.6-8.8.5-10.5-2-1.2-1.8-3.7-15-3.7-19.4 0-.2-3.1-.3-7-.3h-7l-5.7-8.5a32 32 0 0 0-11.4-12.1c-3.2-1.9-6.8-4.7-8-6.2s-2.3-2.3-2.6-1.7l-4.6 8-4.2 7-15.1.3-15 .3-1.5-4.6-1.4-4.5-12.8 10.5c-9.2 7.5-13.6 10.5-15.5 10.5-1.5 0-4.3.3-6.4.6-3.6.6-3.6.6-4.3 6.8-.4 3.3-1.8 8.7-3.2 11.8-2.5 5.6-2.7 5.8-6.5 5.8-3.3 0-4.2.5-5.6 2.9q-2.2 4.2-9.7 4.1-3.6-.1-3.5 7.2c0 2.4-.4 2.8-2.9 2.8-2.6 0-3.4.8-7.1 7.5-3.9 7-4.4 7.5-8.1 8.1-3.4.6-5.3 2.2-14.5 12a55 55 0 0 1-12.5 11.4c-1 0-2.3.8-2.8 1.9s-2.4 2.4-4.1 3.1q-3 1.2-2.6 2.9c1.5 5.4 1.5 7.8.2 9.6-2 2.8-.9 7.4 2.7 11.2l3.1 3.3-2.1 2.2a43 43 0 0 0-4.7 7.5c-2.3 4.6-2.6 6.4-2.6 15.6 0 10.3 0 10.3-3.1 13.3-1.7 1.6-4.6 6-6.3 9.9q-3.3 6.9-5.8 8.4c-2.2 1.1-2.5 1.8-2.1 5s0 4.2-2.9 7.1l-3.4 3.5.1 11.4c.1 9.9.4 11.5 2 12.7 2.3 1.7 5.7 1.8 7.3.2.7-.7 1.2-3.4 1.2-6 0-4.8 1.3-6.4 2.4-3 .9 2.7 5.3 6.5 6.5 5.7.6-.3 1.1-1.4 1.1-2.3.1-1.5.2-1.5 1.5.1 1.3 1.8 1.4 1.8 2.3 0 .8-1.4.5-3-.9-6.3-1.7-3.8-1.8-4.5-.5-5.8s1.5-1 2.1 2.2c.4 2 1.5 4.6 2.5 5.9q1.8 2.1 3.4 14.5c1.2 9.8 2 12.9 4 15.5 3.6 4.8 5.3 8.7 6 13.9.6 3.7 1.1 4.8 2.5 4.8.9 0 3.6 1.6 5.8 3.5 2.3 1.9 4.9 3.5 5.8 3.5s3.4 1.3 5.4 2.9c3.3 2.6 3.8 2.8 5.6 1.5 2.7-2 3.3-1.8 5.6 2.1q2.1 3.5 4.4 3.5c4 0 7.5-1.8 7.5-3.9q0-2 2.2-2.3c3.6-.5 3.3-3.7-1-12.1q-.2-.7 1.5-.7c1.7 0 3.1 1.8 4.6 4q5.3 7.6 7.7 4.5c2.8-3.4 3.4-1.4 1.3 4.2q-.4 1.2 4.6 1.9c4.8.6 5 .8 3.7 2.3s-1.3 1.9-.2 3.2c1.1 1.1 1.1 2 .1 4.2l-1.2 2.9-3.1-2.7-3.1-2.6-.6 2.8c-1.2 5.4-1.3 5.5-3.5 4.1-1.5-.9-2.2-1-3.1-.1s-.3 2.2 2.5 5.4c3.2 3.7 3.6 4.9 3.6 9.6s.3 5.3 1.9 5.3q2 0 3.1 3.5c.6 1.9 1.6 3.5 2.2 3.5 1.2 0 6.9 6 14.3 15 4.2 5.2 5.4 7.5 6 11.5.4 2.7 1.3 6.2 2.1 7.7 2.1 4.1 1.7 8.1-1.1 10.8-2.4 2.2-2.5 2.9-2.5 13.4s-.2 11.7-3.6 20.1c-3.3 8.3-3.5 9.5-2.9 16.2a25 25 0 0 1-.4 9.1c-2.5 4.7 3.2 14.4 9.2 15.6a13 13 0 0 1 4.9 2.2c1.4 1.4 2.2 1.5 4.6.5 2.2-.9 3.6-.9 6.8.3 3.5 1.2 4.2 1.2 5.9-.1s9.5-1.5 56.5-1.2l54.5.4.3-4.7.3-4.7 5.2-.8c3-.6 6.1-.5 7.3 0s4.5.4 8.5-.3c7-1.3 10.1-1.4 16.9-.5 2.5.4 6.3.2 8.5-.3q4-.9 6.4.1 2.3 1.1 4.1-.1c2.7-1.7 18.2-.7 19.6 1.3q2.1 2.7 6.4.3c1.5-1 2.3-.9 4 .7 1.9 1.7 2.3 1.7 5.3.3 2.8-1.4 3.6-1.4 5.2-.2 2.4 1.7 4.9 1.7 10-.1 3.6-1.3 4.1-1.3 5.2.1q1.2 1.6 2.9 1c.9-.4 4.2.1 7.2.9 5.3 1.6 5.5 1.6 7.6-.4 2.7-2.5 3.4-2.6 5.7-.5 1.5 1.3 2.1 1.4 4.6.2a27 27 0 0 1 10.3-1.1 41 41 0 0 0 10.2-.9c2.1-.8 3.6-.7 6.2.6 1.9.9 4.3 1.6 5.3 1.6q2 0 3.1 3.4l1.3 3.5 50.9.3 50.8.3 2.7 2.5c2.2 2.1 2.8 2.2 3.5 1 .5-.8 1-1.8 1-2.2 0-1.2 3.2-2.5 7.5-3.2 3.6-.6 4.4-.3 8.2 2.9 3 2.5 5.1 3.5 7.6 3.5 1.9 0 5.1.7 7 1.5s4.8 1.5 6.2 1.5c2 0 2.5.5 2.5 2.3 0 1.3 1.1 3.4 2.4 4.6l2.4 2.2 2-2.5c1.7-2.2 2.1-2.4 3.2-1.1q1.2 1.6 3.1.4 2-1 4 .4c1.7 1.3 2.7 1.3 7 0l5-1.5 3.7 4c4.8 5.1 7.3 5.8 12.9 3.7a20 20 0 0 1 10.6-1.1l13 1.2c5.7.6 7.1 1.1 8.4 3a5 5 0 0 0 4.2 2.4q2.7 0 6.6 4c2.9 2.9 4.7 4 7 4 5.8 0 7.4 1 8.5 5.1 1.4 5 4.6 6.9 6.6 4.1a6 6 0 0 1 3.7-2.4c2-.3 2.2-.8 1.8-5.3-.4-5.9-1.1-7.3-5.8-12.6-2.9-3.2-3.4-4.4-2.9-6.7l1.1-5.3c.1-1.4.8-3.6 1.4-4.7s1.1-4.1 1.1-6.7c0-4.1.2-4.5 1.8-3.6a6 6 0 0 0 4 .4l2.1-.5-2-4.9c-1-2.8-1.9-6.4-1.9-8.2s-1.1-5.1-2.5-7.5c-1.7-3.1-2.3-5.1-1.8-7.3a13 13 0 0 0-1.2-6.9c-1.7-3.9-1.7-4.1 0-7.5 1.8-3.2 1.8-3.5.2-5.3-1.9-2.1-2.3-8.3-.6-11.4s-5-12.8-8.7-12.8q-4.1-.1-9.7-8.4c-1.1-1.6-2.5-2.5-3.3-2.2s-2 .3-2.8 0-7.7-7.4-15.3-15.7c-7.6-8.4-17.5-19.2-22.1-24-13.8-14.6-28.2-35.9-28.2-41.6 0-1.6 2.8-4.4 5.6-5.5q.3-.3.8-2.3c.6-1.8.2-2.4-1.7-2.8-3.4-.9-5.7-5.5-5.7-11.5 0-5-.2-5.3-6.9-12-3.8-3.9-7.5-7-8.3-7-.7 0-5-2.9-9.4-6.4l-8.1-6.4-2.1-11.3a209 209 0 0 1-3.9-24.2c-.4-4.3-.1-6.4 1.2-8.3 1.5-2.4 1.5-2.6-.8-5.4a16 16 0 0 1-3.1-6.4c-.6-2.9-1.2-3.6-3.9-4.1-4.4-1-7.7-4.2-7.7-7.7 0-2.3.6-3.1 3-3.9 2.7-1 3-1.6 3-5 0-2.2.7-5.3 1.5-6.8 1.2-2.5 1.2-3.1 0-4.7-2-2.6-1.8-8.2.4-12.3 1.7-3.1 1.7-3.8.4-6.9-1.1-2.6-1.2-4.5-.4-8 1.2-5.7.2-7.2-4.6-7.2-4.5 0-6.9-1.4-8.8-5-2.5-4.8-1.9-8.2 2.1-12.1a28 28 0 0 0 5-6.1c1.2-2.3 2.1-2.8 5-2.8a23 23 0 0 0 14-6.7c1.8-2 2.4-3.7 2.4-7.3s.5-5.1 2.4-7a11 11 0 0 0 3.1-5.4c.4-1.7 1.8-5 3.1-7.2s3.3-6.7 4.4-9.8c1.9-5 2.4-5.6 5-5.6 4.3 0 8.6-4.2 9.4-9 .8-5.1 8.9-21.5 11-22.3 1.2-.5 1.3-1.3.5-3.9-1.4-4.7-.2-10.6 2.4-11.9 4.3-2.2 20.7-19.3 20.7-21.6 0-1.2.9-2.8 2-3.6a29 29 0 0 0 5-5.3c2.5-3.3 2.9-4.8 3-9.9 0-5.8-.2-6.3-4.1-10a75 75 0 0 1-13.9-26.1c0-2.6-11.3-24.4-19.6-38a46 46 0 0 1-5-10.5c-1.2-6-2-6.8-7.6-7.1-5.2-.3-5.2-.3-6.3-4.3-.5-2.2-2-5.1-3.2-6.3s-2.3-2.5-2.3-3-3.3-.6-7.3-.4l-7.3.4-6.6-7a50 50 0 0 1-7.2-9c-.4-1.1-4.6-5-9.4-8.6-12.6-9.5-13.2-10.1-13.2-13.2 0-2.2-2.8-5.6-14.2-17.1-11.6-11.7-14.7-14.3-17-14.3-6.3 0-4.9-5.5 3.9-15.5 4.7-5.3 7.6-9.7 9.4-14.3l2.7-6.7 8.8-.3c11.8-.4 29.4 1.4 37.1 3.9 5.4 1.8 6.8 1.9 10 .8q3.6-1.2 13.6-.6c9.4.6 10.2.5 14.3-1.9s4.4-2.5 7.4-.9c2.3 1.2 4.5 1.5 7.9 1q4.6-.6 8.2.9c3 1.3 5.2 1.3 13.5.4 13.3-1.4 15-2.9 9.4-8.3a62 62 0 0 0-9.7-6.5c-5.1-2.7-6.9-4.2-7.7-6.6a32 32 0 0 0-11.7-13.4c-2.9-1.5-3.8-2.7-4.4-5.6-.3-2.1-2.4-5.8-4.5-8.3q-3.8-4.6-4.5-9.1c-.4-2.5-2.1-8.1-3.8-12.5-2.9-7.7-3-8.6-3.1-24.5q-.2-16.5-1.4-18.7a33 33 0 0 1-1.2-10.7c0-7.8.3-9 3-13.4 3.5-5.8 3.7-7.6 1-12-1.6-2.6-2-5-2-11.6 0-7-.3-8.6-2-10.1-1.8-1.6-2-2.6-1.4-9.5.6-6.6.4-8.1-1.5-11.8a11 11 0 0 0-5.5-5.6c-4.6-1.9-5.6-4.2-5.6-12.4 0-7.6-.9-11.3-4.6-18.3a22 22 0 0 1-2.4-7.4c0-4.2-5.8-11.4-9.2-11.5-2.2 0-2.7-.5-3-2.8s-.8-2.8-3.5-3q-3.2-.3-3.8-2.3-.7-1.9-3-1.9-2.5.2-4.3-3.7l-1.9-3.6zM174.2 837.3a40 40 0 0 0-3.9 10.4c-.3 2.4-1.2 4.8-1.9 5.4a4 4 0 0 0-1.4 2.9q.1 1.8-3.7 2.5c-2.2.4-5.2 2-7 3.8-4 3.7-4.4 9.1-1.3 14.2 2.1 3.5 1.4 3.3 18 5.1l5.5.6 2.1-4.3c1.2-2.4 4.5-8.4 7.3-13.3s5.1-9.9 5.1-11.2 1.6-4.1 3.5-6.3c2.8-3.1 3.5-4.7 3.5-7.9 0-5.5-3.3-8-8.1-6.3q-6.6 2.3-9.3-.4c-2.9-2.9-5-1.7-8.4 4.8"/></svg>