<svg xmlns="http://www.w3.org/2000/svg" width="1365.333" height="1365.333" viewBox="0 0 1024 1024"><path d="M587.1 3.3c-1 2.8-1.8 3.6-4.6 4.1q-3.3.7-2.9 1.9c.5 1.5-10.7 5.7-15.3 5.7-4 0-4.6.9-4.8 8.4q-.1 6.1-2.4 10.9c-2.5 5.4-5.5 7.3-18.6 11.7a131 131 0 0 0-36 21.7c-8.4 8.5-8.5 8.5-26.8 9.1l-16.3.5-5.5-3.2a20 20 0 0 0-15.5-2.5c-2.1.5-5.4 7.8-5.4 11.7a16 16 0 0 1-1.6 5.3c-1.3 2.8-2.6 3.7-6.7 4.9-5.1 1.5-5.2 1.5-17.4-2.6L395 86.8l-4.9 3.9c-2.7 2.1-5.7 5-6.7 6.4a26 26 0 0 1-7.6 5.8q-6 3.3-7.1 6.2t-6.7 5.7c-5.2 2.6-5.5 3-6.1 7.2-.3 2.6-1.9 6.6-3.7 9.4-1.7 2.7-3.6 6.4-4.2 8.2s-2.2 4-3.6 4.9c-2 1.3-2.3 1.9-1.3 3.1s1.8.8 5.3-2.3c4-3.6 4.1-3.7 4.4-1.4.2 1.2-.3 2.8-1.1 3.4-1.3 1.1-2.2 4.7-4.3 18.7a11 11 0 0 1-3.7 6.2l-3.1 2.6 4.7.7c5.2.8 5.4 1.4 4.1 9.6-.8 4.6-3.3 5.9-12 5.9-5.2 0-7.6.6-12.4 3-5.4 2.7-6.2 3.6-10.4 11.2-5.8 10.7-11 16.8-14.2 16.8q-2.5 0-2.4 2 0 1.9-6 6a29 29 0 0 0-7 6c-.8 1.4-2.6 2.1-7.1 2.6-5 .6-6.6 1.2-9 3.8l-2.9 3.1 4.1 2c5.1 2.6 7.9 6.9 7.9 12 0 2.2.7 6.5 1.5 9.5 1.6 6.1 1.9 11.8.6 13.8q-.8 1.3-3.7.7l-5.1-1.1c-2.8-.5-3.1-3.4-.4-3.4q2 .2 2.3-3.3c.3-1.7.9-4 1.3-5.1.7-1.6.5-1.7-2.3-1.1-2.9.6-3.2.3-5.2-3.4-1.1-2.3-2.7-4.1-3.5-4.1s-2.6-2.2-3.9-4.8c-1.9-3.8-3.3-5.2-6.5-6.4-2.3-.9-4.4-2.5-4.7-3.5-2.3-7.2-4.4-7.9-9.2-3-3.9 4-4 6-.7 9.9a18 18 0 0 1 3.2 5.6c.3 1.5 2.3 5.2 4.3 8.2s4.6 8.1 5.8 11.3l2.2 5.8-2.8 1-3.9 1.4c-.7.2-2 3.1-2.9 6.4-1.8 6.3-4.7 9.9-11.6 14l-3.7 2.2-1.2-2.3c-1.9-3.8-6.1-7.8-8.2-7.8-1.7 0-1.8.5-1.2 5.2s.5 5.4-1.8 7.2a20 20 0 0 0-4.5 8.8l-2 6.7 2.7 2.4c1.4 1.3 4.1 3.3 5.9 4.3 3.1 1.8 3.3 2.3 3.1 6.4-.5 9.3-.1 10.7 2.9 11.3 2.7.6 6.2 5.7 6.2 9.2q.1 1.4 2.5 1.5c2.4.1 2.5-.6 2.5-1.5 0-1.2.4-1.3 2.5-.3 1.4.6 2.5 1.6 2.5 2.1s1 2.1 2.3 3.5c2.1 2.2 2.1 2.4.5 3.6-1 .7-1.8 2-1.8 2.9s-.8 2-1.7 2.6c-1.7.9-1.7 1.1.1 2.4s1.8 1.7.6 4.7l-1.4 3.3-1.7-2.2c-.9-1.1-1.9-2.1-2.2-2.1-.2 0-.2 2.1 0 4.7.4 3.4 1.9 6.9 4.9 11.7s4.4 8.1 4.4 10.5c.1 2 .7 4.7 1.5 6.1 1.2 2.3 1.1 2.7-1.3 5.2a7 7 0 0 1-6.4 2.8c-3.3 0-4.1.5-6.3 4q-5.1 8.1.4 8c4.8 0 5.5 1.9 6.2 17.9.3 8.6 1.2 16.1 2 18.3 1.1 2.8 1.3 6.6.8 15.8-.7 13.1-1.1 14.1-7.6 18.1-2.8 1.8-3.3 2.6-3.3 6 0 3.1 1 5.3 5.1 10.9 2.8 3.9 5.4 7 5.8 7s1.8-2.3 3.1-5.1c2.3-4.7 2.5-4.9 3.4-2.9.8 1.7.6 2.4-.7 3.1-2.2 1.3-3.3 7.5-1.6 9.5 1.3 1.6 3.9 1.5 10.9-.2 2-.5 1.6 0-1.7 2.6-3.5 2.5-4.3 3.8-4.3 6.3 0 3.6-7.4 13.7-15.9 21.7a17 17 0 0 0-6 10.2c-1.1 5.1-1.5 5.8-3.6 5.8q-4.5 0-4.5 8c0 2.3-1 6.4-2.2 9.2-1.8 4.2-2.9 5.3-6.6 6.9a24 24 0 0 1-6.7 1.9q-2.3 0-3 2-.5 2-3.5 2c-2.2 0-3-.6-3.8-3l-1.1-3-3.3 1.9c-1.8 1-6.3 2.9-10 4.1a19 19 0 0 0-11.6 7.8 50 50 0 0 0-7.2 11.5c-2.1 5-2.2 6.2-1.2 9 .7 1.9 1.2 4.6 1.2 6.1 0 1.4.7 2.9 1.5 3.2q1.4.7 1.5 1.9c.1 1.2.7 1.5 1.5 1.9q2.7.9.4 6-1.2 2.7-2.8 1.7c-.9-.5-4.2-1.2-7.3-1.5-5.4-.7-6-.6-10.3 2.5s-8.5 8.4-8.5 10.6c0 .6 2.7 2 6 3.2s6 2.8 6 3.5c0 2 13.2 14.6 15.2 14.6q1.7.2 2.8 2 1.1 2 4 2c2.2 0 3.7 1.1 6.6 4.5q3.7 4.6 6.2 4.5c1.5 0 4.5 1.6 7.4 4.1s6.2 4.3 8.6 4.6c2 .4 5.8 1.6 8.5 2.8 3.6 1.7 5.6 2.1 8.6 1.5 4.4-.8 7.1.6 7.1 3.8 0 2.6 6 7.8 9.9 8.7 3 .6 3.1.9 3.1 5.9 0 5.2 0 5.2 4.5 7.4 2.6 1.3 6.5 2.2 9 2.2 3.8 0 4.6.4 6.1 2.9a7 7 0 0 0 4.8 3.5c7.7 1.3 35.1 2.6 37.4 1.8.6-.2 1.2-2.1 1.2-4.1 0-6.2 6.7-10.6 10-6.6.7.8 2.8 1.5 4.6 1.5 1.9 0 3.4.4 3.4 1q.2.9 2.3 1c1.6 0 3.2 1.6 6.1 6 2.1 3.3 5.7 7.4 8 9.1 3.7 2.8 4.6 3 9.4 2.5 5.1-.6 5.5-.5 9.8 3.2 5.3 4.7 11.6 6.8 15.7 5.3 3.7-1.4 8.4-1.4 9.3 0 .3.6 3.3 2.8 6.5 4.9 5.1 3.3 6.4 3.7 10.3 3.3l4.5-.5.3 4.3c.3 4 .6 4.4 3.7 5.2 8.2 2.1 20.1 14.8 20.1 21.4q-.1 3 3.1 5.2 3 2.3 2 3c-.8.6-.7 1.7.4 4.4 1.7 4 7.4 7.7 12 7.7 2.8 0 5.8 1.7 12.4 6.9q4.4 3.6 7 3.3c3.4-.4 12.1 4.4 12.1 6.7 0 .9 1.4 3.8 3 6.5 2.4 3.8 2.8 5.1 2 6.7-.6 1-.8 3.5-.4 5.4.9 5 8.1 10 13.1 9.2 4.5-.8 8.2 1 8.9 4.2l2.4 9.3 1.8 6.6-2.4 2.3c-4.4 4.1-2.1 10.9 3.6 10.9 1.4 0 3.9 1.4 5.7 3.2 3.3 3.1 3.6 3.3 10.6 3 5.8-.3 7.5-.7 9-2.4l1.7-2.1 6.1 2.8q6.2 2.8 9.2 2.2a56 56 0 0 0 14.4-3.5 15 15 0 0 1 6.1-1.2c3.5 0 4.5-.6 7.9-4.4 4.7-5.3 11.3-9.6 11.3-7.3 0 1.7 2.1 2.7 5.4 2.7 1.3 0 4.2 1.3 6.4 3s4.6 3 5.2 3q1 .2 2 2 1.5 3.2 12.2 1.4c2.8-.5 3.8-1.2 4-2.8s1.1-2.2 3.5-2.4c1.7-.2 3.7-1 4.3-1.8.7-.8 2.9-1.4 5-1.4 3.8 0 8.4 2.9 17.3 10.7 2.1 1.9 4.8 3.3 6.3 3.3 1.4 0 3.8.7 5.3 1.5 1.6.8 4.7 1.7 6.9 2.1 3.3.5 4.3 1.3 6.1 4.5 1.9 3.3 2.7 3.9 5.5 3.9q3.2 0 5.5 2.4l2.2 2.3-21.1 31.9-21 31.9 4.7 2.2c5 2.3 9.8 3 10.7 1.4.3-.5 2.7-1.2 5.2-1.6 4.6-.6 4.8-.6 9.6 4.2 2.8 2.7 5.3 6.4 6 8.5 1.4 4.9 7.8 11.1 10.9 10.6 2.2-.3 2.7-2.5 17-80.8 8.2-44.3 14.8-82.2 14.8-84.2.1-2.9.7-4.1 2.6-5.4 2.1-1.4 2.5-2.4 2.5-6.6q0-5.1-2-7.5a10 10 0 0 1-2-5.1c0-1.3-1.5-4.5-3.4-7.1-4.8-6.6-6.8-10.8-6.4-13.9a56 56 0 0 0-.5-8.3c-.8-5.3-1-5.7-3.9-6.3-1.7-.3-5.5-2.4-8.3-4.6s-5.6-4-6.1-4c-.5-.1-3-2-5.5-4.4l-4.7-4.2 1-21.5c.5-11.8 1.1-21.9 1.3-22.6s3.7-2.2 7.7-3.4 9.1-3.5 11.4-5c5.8-3.9 13.6-4.3 18.2-.9 2.6 1.9 4.8 2.5 10.4 2.8 6.6.4 7.1.3 6.4-1.4-.4-1-1.1-4.8-1.6-8.4s-1.5-8.2-2.4-10.3c-1.9-4.3-6-6.5-8.8-4.8q-1.6 1.1-6.9.1c-2.8-.6-7.3-1-9.8-1s-5.2-.5-5.7-1q-1-1.1-3.9 0c-1.5.6-2.9.9-3 .8-.1-.2 0-9.2.3-20l.5-19.7 4.6-.6 9.5-1.4c2.8-.5 6.2-.5 8 0a501 501 0 0 0 60 .2l19.7-.6-3.2-3.3c-3.1-3.2-3.2-3.5-1.8-6 .7-1.5 1.9-2.9 2.6-3.1 2.5-1 6 .7 7.1 3.3 1.6 3.4 7.4 10.4 8.7 10.4 4.2 0 8.5-2.4 11-6.1a80 80 0 0 1 14.7-16.1l3.9-3 4.4 1.7c4 1.5 4.5 2 4.5 4.7 0 2.2 1.5 4.9 5.3 9.7 3 3.6 6.4 9.3 7.6 12.6 2.1 5.5 2.2 7 1.6 18.4-.7 11.7-.6 12.3 1.1 11.8 1.1-.3 4-.8 6.7-1.2 5.2-.7 5.4-1.1 3.3-7a180 180 0 0 1-4-15.6 116 116 0 0 0-5.8-18 33 33 0 0 1-3-9.5c.1-2.3-.8-4-3.3-6.4-3.9-3.8-4.7-8.7-1.9-11 1.3-1.2.3-2.6-8.2-11.1a69 69 0 0 0-12.1-10.4c-1.5-.3-3-1.9-3.8-3.9-1.2-2.7-2.2-3.5-5.9-4.5a41 41 0 0 0-7.5-1.1c-1.7 0-3.1-.4-3.1-.8a187 187 0 0 1 25.3-24.2c2.1 0 7.6-5.8 8.4-8.9.5-1.9 0-3-2.3-4.9a38 38 0 0 1-6.4-9.6c-2.9-5.8-4-7.2-6.3-7.6s-3.2-1.5-5-6c-1.3-3-4.6-9.9-7.5-15.3-4.9-9.5-5.1-10-3.7-12.7q3.6-7-1.5-11.3c-3-2.5-3-2.6-1.4-6.3a95 95 0 0 0 1-36.2c-1.9-7.7-1.5-8.7 6.1-15.9l5.5-5.1-.7-5.7c-.9-7.6.5-10.7 7.7-17.5l5.8-5.5-3-4.8c-2.5-3.9-2.8-4.9-1.5-5.3q1.4-.8 1.5-2.9c0-1.9-1.2-2.8-7.4-5.4a27 27 0 0 0-21-1.6c-2.7.8-6.5 1.5-8.5 1.5s-5.6 1-8 2.1c-3.8 1.7-5.7 1.9-12.6 1.3s-8.6-.4-10.9 1.1c-2.6 1.7-3.1 1.7-12.4-.3-16.3-3.5-15.5-3.5-20 .3s-9 4.6-11.3 1.9q-1.2-1.6-4.4-1c-3 .6-3.6.1-19.9-19.9-9.2-11.3-17.1-20.5-17.6-20.5s-2.5-1.4-4.4-3.1c-3.3-2.9-3.9-3-9-2.4-6.6.9-18.1-2.4-19.1-5.4-.4-1.4-2-2-6.7-2.5-8.8-.9-14.6-.7-15.3.4-1.2 1.9-8.5 5.1-14.1 6.1-4.6.8-5.9.8-7.2-.4-1-.8-4.6-1.7-8.2-2-23.5-2.1-21.3-2.2-25.7.6l-4.1 2.6-5.9-2.5c-5.3-2.3-6.3-3.2-9.1-8.4a24 24 0 0 1-3.2-8.4c0-3.4-5-6.6-10.6-6.6-3.3 0-4.4-.5-6.2-3-2-2.6-2.2-4.1-2.2-15.4 0-10 .4-13.3 1.9-16.9a16 16 0 0 1 3-5.1c1.3-.8 1.3-7.9.2-14.9-.7-4.2-1.8-5.8-9.3-13.5l-8.4-8.7-3.3-12.3C522.4 211 522.9 212 517 212c-5 0-5 0-5-3.3 0-1.7-.3-4.2-.6-5.4-.6-2.2-.7-2.2-8.6 1.8-6.4 3.2-8.8 3.9-12.5 3.7l-4.5-.3 4.5-6c2.4-3.3 5.2-7.6 6-9.6s2.9-4.6 4.6-5.8c4.2-3 11.1-16.7 11.1-21.9 0-2.1.9-6.4 1.9-9.4a77 77 0 0 0 2.6-16.3c.8-10.7.8-10.9 6.2-20.4 3-5.2 6.2-11.4 7.3-13.7s2.8-4.7 3.9-5.3c1.2-.7 2.1-2 2.1-3 0-4.6 12.3-13.6 17.7-12.9 2.7.3 3.2-.4 11.1-16 7.6-15 8.5-16.2 11-16.2 1.5 0 9.5-1.9 17.7-4.2 14-4 15.3-4.5 19.2-8.5 2.2-2.4 5-4.3 6.1-4.3s3.1-.9 4.6-2.1c3.4-2.7 3.4-7.1.1-11.5a12 12 0 0 1-2.5-5.7c0-2-1-3-5.2-5.1a26 26 0 0 0-7.4-2.6c-1.3 0-2.9-.8-3.6-1.8-1.8-2.6-3.2-3.2-8.6-4.1-2.6-.5-5.4-1.2-6.3-1.5q-1.8-1-2.8 2.7"/></svg>