<svg xmlns="http://www.w3.org/2000/svg" width="1365.333" height="1365.333" viewBox="0 0 1024 1024"><path d="M86.8 46.5a67 67 0 0 0-18.6 7.8q-5 3.6-7.1 3c-3-.8-12.3 7.8-13.6 12.5-1 3.6-1.2 3.7-8 4.9a136 136 0 0 0-17.3 4.7 41 41 0 0 0-16.3 8.7L0 93.2v15.6l5.7 3.4 5.8 3.4 3.5 10 3.4 10.1-2.6 3.1c-2.3 2.8-2.5 3.5-1.7 7.9 1.3 6.8 1.4 7 5.8 9.3 4.8 2.4 6.7 2.5 13.8.4q5.5-1.5 9.1-.9c2.1.5 7.9.7 13.1.6l9.4-.3L83.7 137c16.8-17.3 18.7-18.9 21.2-18.4q5 1.2 21.6-10.3A49 49 0 0 0 143.6 91c3.7-5.4 4.4-7.3 4.4-11.2 0-4.4-.1-4.7-3.2-5.4-1.8-.3-5.9-2.7-9-5.1-5.6-4.4-5.7-4.6-6-10l-.3-5.5-5-2-14.5-5.7-9.5-3.8zm72.7 109-4.9 3.5-3.3-3.2-3.3-3.2-5.4 5.3a27 27 0 0 0-6.3 8.5c-.5 1.7-1.4 3-1.9 3l-9.4-.8-8.5-.7-1.8 4.4c-1.5 3.6-2.6 4.8-6.6 6.7-4.5 2.1-4.9 2.6-5.3 6.3s-.1 4.1 2.9 5.3c2.5 1.1 3.4 2.2 3.9 4.9.8 4.4 1.4 4.7 5.2 3.4 2.9-1 3.5-.7 9 3.9 4.7 3.8 7.2 5.1 12 6.2 5.9 1.2 6.5 1.2 11.9-1.3a52 52 0 0 1 20.2-5.1 44 44 0 0 0 13.2-3.2c5.4-2.5 5.7-2.8 6.6-7.4.7-3.6.6-5.4-.4-7.5-.8-1.5-1.2-3.8-.8-5.4.5-2.6.3-2.9-2.6-3.5a53 53 0 0 0-7.5-.6h-4.3l-1.6-5.5c-1.4-4.9-1.4-5.8-.1-8.4 1.4-2.6 1.4-3-.7-4.8-5.1-4.5-5-4.4-10.2-.8m763.9 24.6c-1.6 1-4.5 1.9-6.5 1.9-3 0-4.7 1-10.4 6.2l-6.7 6.2.4 8c.3 6.6.8 8.8 2.9 12.1 2.3 3.6 2.5 4.3 1.3 7-.8 1.6-1.3 5-1.2 7.4.2 3.8-.2 4.7-3 7.1a12 12 0 0 0-3.2 3.3c0 .4 2.4.7 5.3.8 2.8 0 7.4.6 10.2 1.2 4.4 1.1 5.1 1.6 6.3 4.9 1.4 3.6 1.3 3.8-1.7 7.6l-3.1 4 4.7 4.3 4.7 4.3.3 8c.3 4.5.6 8.6.8 9.3s2.7.4 8.2-1.3c4.2-1.4 7.9-2.7 8.1-2.9s-.6-2.5-1.6-5.2a46 46 0 0 1-2.6-8c-.4-2.7-.2-3.2 1.7-3.5q2.4-.1 2.5-3.5a8 8 0 0 1 2.8-5.2c1.3-1 2.4-2.6 2.4-3.5s-1.8-6-4-11.5c-2.1-5.5-4.6-12.8-5.4-16.3l-1.5-6.3 2.6-2.1 2.6-2-2.6-9c-2.2-7.7-2.5-9.6-1.6-12.9 1.1-3.8 1-4-2.7-7.3-6-5.1-6.7-5.3-10-3.1m-708.2 25c-2.1 4.8-2.1 5.2-.4 7.3.9 1.3 4.3 3.4 7.6 4.7q6 2.3 7.5 5.2c3.5 6.2 2.9 6 14 5.2 9.8-.7 10.2-.8 11.6-3.6.8-1.5 1.5-3 1.5-3.3 0-1.1-6.9-2.6-12.1-2.6s-5.8-.3-6.4-2.3c-.4-1.2-2-3.6-3.5-5.2-1.6-1.7-3-3.9-3.2-4.9-.2-1.4-2-2.4-6.8-3.8l-7.1-1.8c-.4 0-1.6 2.3-2.7 5.1m166.9 43c-1.9 1.6-3.7 1.9-8.2 1.8-5.6-.2-6 0-10.3 3.9-2.5 2.3-5.4 4.2-6.5 4.2-3.2 0-4.6 6.8-2.9 13.8l1.3 5.4 10.9 6.8 10.8 6.8 5.9 10.9a53 53 0 0 1 6.5 16.1c.6 4.8 1 5.5 4 7 3.1 1.4 3.5 1.4 5.3-.2 1.6-1.5 1.8-2.3.9-5.3s-.6-3.8 1-5.7a92 92 0 0 0 7.7-13.4l5.6-11.2h3.8c2.6 0 4.9-.9 7.7-3 3.6-2.7 4.5-2.9 12.4-3h8.5l11.5 6.6c13.8 7.9 17.2 8.6 36.5 7.8 17.5-.8 19.7-2.2 16-9.4-1.2-2.4-2.2-3-4.8-3s-4.3-1.1-8.6-5.4c-3.8-3.9-7-6-11.2-7.5-5.4-2-6.5-2.1-17-1-10.7 1-11.3 1-14-1a38 38 0 0 0-18.1-8.5l-8.7-1.8-3.4 2.1c-2.9 1.8-4 1.9-6.2 1.1-2.3-.9-3.2-.7-5 1-1.2 1.1-2.6 2-3.1 2-1.5 0-7.1-6.1-10.7-11.6-2.9-4.5-3.6-4.9-7.5-5.2q-4.1-.4-4.9-1.8-1-2.9-5.2.7M255 254.9c0 4.6.1 4.9 3.1 5.5 6 1.2 6.2.8 2.2-4.9-2.1-3-4.1-5.5-4.5-5.5s-.8 2.2-.8 4.9m33.5 15.1c-1.5 1.6-1.7 2.6-.9 4.8 1.4 4.1 4.7 4 7.3-.1 1.1-1.9 2.1-3.7 2.1-4a22 22 0 0 0-6.5-2.7zM972 424.9l-2.2 4.8-7.6 1.1c-14 2.2-17.3 1.8-26.1-3.3a58 58 0 0 0-8.8-4.5c-.6 0-1.5 1.8-2.1 3.9-.7 3.2-.6 4.2.6 5.5 1.4 1.3 1.3 1.7-.1 4-2.2 3.3-2.2 4 .9 11.3 2.3 5.4 2.6 7 2 12.6l-.7 6.5-6.7 4.5a30 30 0 0 0-10.1 10l-3.3 5.6 2.1 9.8 2.4 9.9a67 67 0 0 0 17.2 8.3c5.3 1.5 8 3 10.5 5.7l3.5 3.6 11-.6c8.7-.5 12-.3 15.4.9a27 27 0 0 0 4.6 1.3l3.3-5.8c3-5.2 3.8-5.9 17.4-13.4 23.2-12.9 24.8-14 24.8-17.8 0-1.8.9-4.1 2.1-5.4 2.1-2.2 2.1-2.3.5-14.5l-1.6-12.3-5.9-6.1c-4.7-4.8-6-6.8-6.4-10-.3-2.2-1-5.2-1.6-6.8-1-2.4-1.5-2.7-6.1-2.7-4.1 0-7-1-15.9-5.4l-10.8-5.5zM606.8 774.7c-4 4.1-4.7 5.4-4.9 9.3a29 29 0 0 0 6.7 19.1c3 2.9 3.1 3.3 2.2 6.7-.6 2-2.1 5-3.4 6.7a12 12 0 0 0-2.4 7.6c-.1 2.4-.9 5.9-1.9 7.7-1.4 2.8-1.6 4.2-.8 8.7 1.4 7.6-.3 19-3.6 24.1a25 25 0 0 0-3.1 9.1l-.7 5.3 4.3 2.1c3.3 1.6 4.8 3.1 6.4 6.8 2 4.4 2.3 4.7 5.5 4.4 3-.3 3.8.2 7.1 4.5l3.7 4.9-3.1 3.1-3.1 3 7.3 8.5 7.3 8.4 15.6 6.5a98 98 0 0 0 29.9 8.8c13.8 2.2 29.4 2.4 34.3.5q1.7-.5 2.4-6.3a16 16 0 0 1 4.6-10.4c3.4-4.1 3.8-5 2.9-7.3-1.5-3.9-1.4-4.1 3.8-6 2.6-1 5-2.1 5.5-2.4.8-.8-1.1-8-4.5-17.4-1.9-5.3-2.3-5.7-5.2-5.7-2.8 0-3.7-.9-8.7-8.3a30 30 0 0 1-6.3-13.2c-1.1-7.9-1.4-8.3-6.7-10a14 14 0 0 1-8-6.1c-2.9-4.3-3.2-4.4-8.2-4.4h-5.3l-8.3-14.6-8.3-14.5-3.8.2c-3.2.3-5-.5-10.8-4.4-3.8-2.7-8.6-7-10.6-9.7l-3.8-5 1.1-6.2 1.1-6.1-4.5-4.8c-2.5-2.7-4.7-5-5-5.1-.2-.2-1.5 1.2-2.9 3l-2.4 3.3-3.2-4.5-3.3-4.6c-.2 0-2.4 2.1-4.9 4.7m213.8 2.5a49 49 0 0 0-5.4 11.5c-1.4 4.9-1.8 5.4-5.3 6.3-3.4.9-3.7 1.3-4.1 5.1q-.4 4.2.9 4.5l2.8.9q1.6.3 1.5 5.4c0 4-.4 5.3-2.4 6.8-3 2.3-5.7 16-4.9 24.6.5 5.6.7 5.9 4.7 7.9 2.2 1.1 5.7 3.5 7.6 5.3 3.3 3.1 4.1 3.4 12 4l8.5.6 12.1-10.7 12-10.6-1.4-12.2c-.7-6.6-2.4-15.3-3.6-19.2-2.1-6.4-2.2-7.3-.9-9.9s1.3-3.2-1.8-9.1c-1.9-3.5-3.9-6.4-4.5-6.4s-2.8.7-4.7 1.5-4 1.5-4.5 1.5-2-2.5-3.5-5.5-3-5.5-3.5-5.5-1.5 1.2-2.4 2.7l-1.6 2.7-1.3-4.2c-.7-2.3-1.5-4.2-1.8-4.1-.3 0-2.4 2.8-4.5 6.1M368.4 885.4a45 45 0 0 0-9 4.3 59 59 0 0 1-10.8 4.8c-7.1 2.6-8.3 3.4-12.7 8.9a76 76 0 0 0-13.2 32.4l-2.1 10.3 10.2 10.2a51 51 0 0 0 22.1 15.4 45 45 0 0 0 16.3 5.3c6.3 0 17.6-5.4 26.1-12.3a46 46 0 0 1 8.7-6.2c1.9-.6 2-1.5 2-14.3 0-17-1.3-27.9-4.7-38.5-2.3-7.5-3.1-8.7-8.6-13.7s-12.7-8.8-16.7-8.9c-.8 0-4.2 1-7.6 2.3M248.5 944q-3 2-8.2 2c-5.5 0-5.4-.1-6.8 6.7q-.6 3.3-2.8 3.5c-1.8.3-2.4 1.4-3.6 7.6-.7 4-1.1 7.5-.8 7.9.4.3 2.4.1 4.7-.5l4-1 3.8 5.4c2 3 4.1 5.4 4.6 5.4s2.1-1.1 3.7-2.4c1.7-1.4 4.9-2.8 7.5-3.2l4.7-.7-.7-7.5c-.3-4.1-.6-10.8-.6-14.8 0-7.1-.1-7.4-3-8.9-3.5-1.8-2.9-1.9-6.5.5"/></svg>