<svg xmlns="http://www.w3.org/2000/svg" width="1365.333" height="1365.333" viewBox="0 0 1024 1024"><path d="M7.4 293.1q-2.6 4.1-2 6.4c.6 2.3.1 2.5-.9 2.9q-1.5.5-1.5 4.4c0 2.2-.7 5.5-1.5 7.4-1.4 3.4-1.3 3.6 1.3 6 1.5 1.4 4.5 3.5 6.7 4.6s6.2 4.6 8.8 7.8c4.3 5.1 4.8 6.3 4.3 9.1-2 10.9-2.5 9.3 5.8 16.9 8 7.2 9.2 9.9 6.4 14.4-1 1.6-.9 2.5.5 4.9.9 1.6 1.7 3.6 1.7 4.4q.1 1.5 1.8 2.1c1.3.5 1.7 1.8 1.8 6.3.1 4.3.6 6 2 6.9 1.1.7 2.4 1.8 2.9 2.5l4.3 4.3c2.6 2.6 3.2 4 3.2 7.4 0 2.2.4 4.3.9 4.6s1.1 1.8 1.4 3.3a35 35 0 0 0 7.5 16.3c1.6 1.4 3.8 4 4.8 5.7q1.8 3.3 4.1 3.3c2.8 0 3 1.6.3 3q-1.8 1.1-2 2.5c-.2 1.4-1.8 3.3-4 5.5s-4 4.8-4 5.6-.7 2.9-1.6 4.6c-1.9 3.6-1.3 6.5 2.1 10.2 1.4 1.5 3.2 4.1 4.1 5.7s2.2 3.3 3.1 3.6 3.7 2.8 6.3 5.5c4.1 4.2 5.2 4.8 8.9 4.8 5.9 0 10.8 2.8 16.7 9.7 4.6 5.3 5.7 6 11.1 7.2 5.3 1.1 6.4 1.1 9.1-.3 1.7-.9 4-1.6 5.2-1.6q2 0 2-2.1c0-1.2.7-3.6 1.6-5.5 1.5-3.2 1.5-3.5-.6-6.4-1.2-1.6-2.9-3-3.7-3-1.4 0-1.4-.2.1-1.9a4 4 0 0 0 1.2-3.9 3 3 0 0 1 .9-3.2q2-2 1 1.2c-.8 3 .9 6.8 2.9 6.8 1.9 0 2.5-5.6.9-8q-1.4-1.9-.2-2.6c1.2-.7 2.9 1.2 2.9 3.3q.1 1.3 4.4 1.3c2.4 0 4.8.6 5.5 1.3q2 2.6-2.5 2.7c-1.3 0-3.9 1.1-5.9 2.4-3.4 2.4-3.5 2.5-1.5 3.6 2.2 1.2 2 1.7-2.7 6.5-1.3 1.2-2.3 3.1-2.3 4.2 0 2.3 4 6.3 6.3 6.3.9 0 2.4 1.1 3.3 2.6 2.3 3.4 6.3 5.3 9.7 4.7 2-.4 4.2.3 7.8 2.6 2.8 1.7 6.1 3.1 7.4 3.1s5.2 1.3 8.7 3 7.3 3 8.6 3q2.2 0 2.2 2c0 1.6.7 2 3 2 4.5 0 6.6 2.8 7.4 9.6.5 4.4 1.3 6.7 3.2 8.7 2.9 3.2 2.3 3.1 6.4 1a22 22 0 0 1 14.3-.4c1.4.5 2.7 2.1 3.1 3.5.5 2.2 1.2 2.6 4 2.6 3.9 0 5.1 1.2 6.1 6 1.4 7.4.9 7 9.1 6.6l7.4-.5v6.6c0 5.6.3 6.6 2 7s2 1.4 2 4.4c0 2.1.5 4.1 1 4.4s1 1.4 1 2.5c0 2.1 6.4 5 11.1 5q4.8.1 9.7 8.2c1.4 2.4 2.3 2.8 6.2 2.8 2.5.1 6.5.5 9 1.1 2.5.5 9 1.4 14.5 1.9l10 .9 3.1-3.2a29 29 0 0 0 5.8-11.8c3.2-10.7 3.2-11.7.2-12.9-1.4-.5-3.2-2-4.1-3.4-3-4.6-10.5-5.4-10.5-1.1 0 .6-1.8 3.1-4.1 5.5q-4.2 4.4-3 5.3 3.7 3.7-3.9 3.7c-5.1 0-5.1 0-7-4.6-2.5-5.6-2.5-5.4.3-5.4 4.4-.1 12.2-2.7 12.5-4.2.2-.9-1.5-2.6-4.2-4.2q-9.3-5.4-1.9-4.2 7.9 1.3 4.8-4.8c-1.4-2.7-1.4-2.7 1.3-2.4q2.6.3 4.1 3.2a9 9 0 0 0 4.2 4c1.6.5 2.9 1.4 2.9 1.7s1.6 1.7 3.5 2.9q3.6 2.2 3.5 4.5c0 2.2.1 2.3 4.1 1.1 2.3-.7 4.9-2.3 5.9-3.6 1.6-2.2 2.8-2.4 14.9-3.2 10.6-.6 13.6-.5 15.4.6a24 24 0 0 0 7.6 2c3 .4 7 1.5 9 2.5s5.1 2.2 6.8 2.6c4.7 1 7.3 4.8 7.3 10.4 0 5.5 2.2 9.1 5.4 9.1q2.3.1 4.1 2.6a67 67 0 0 0 12.9 12.9 40 40 0 0 0 9.5 5c9.5 3.9 11.9 5.8 16.7 13.2 1.8 2.9 4.6 5.9 6.1 6.7q6.1 3.1 8.2 10.4a19 19 0 0 0 5.9 8.8c5.6 5.1 9.3 6 21.8 5l8.4-.7 3.3 3.6 3.3 3.6 11.5.3c8.8.2 12.2.7 14 1.9 3.1 2.2 3.9 2.1 3.9-.4 0-3.2-1.9-5.9-4-5.9q-2.1.2-2-2.9c0-1.7-.4-3.3-1-3.6s-1-1.6-1-2.7-1.2-3.6-2.6-5.5c-5.7-7.4 1-13.3 7.1-6.2q2.6 3.4 3.7 2.1c.6-.6 1.7-.8 2.5-.5 1.1.5 1.1.9-.5 2.7-2.3 2.4-4 14-2.2 15.1.5.3 1 3.2 1 6.4q-.1 9.3 5.8 9.1c1.2 0 4.5.9 7.3 2 5.6 2.1 7.8 1.8 5.7-.8q-1.7-2 .5-.9c1 .4 4.1.7 6.8.7 3.7 0 4.9.4 4.9 1.5q-.1 1.3-1.1 1.5c-1 .2-.9.5-.7 1.2s3.3 1.2 8.1 1.3c6.3.2 7.9-.1 9.3-1.6 1.8-2.1 4.9-2.5 5.9-.9s4.7 1.2 6-.7c1.2-1.6 1.8-1.6 5.9-.5 6.3 1.6 8.6 1.5 10.2-.5 1.3-1.7 1.5-1.6 3.5 1 1.9 2.4 2.3 2.6 3.8 1.4.9-.7 3.5-1.9 5.9-2.6 8.7-2.5 40.6.8 48.4 5 2.1 1.2 24.2 5.9 31.8 6.8a46 46 0 0 1 9.4 2.4c2.1.9 5.5 1.7 7.6 1.7 4.1 0 16.4 3.6 19.5 5.6 1.1.8 4.5 1.4 7.7 1.4 5.1 0 5.9-.3 7.7-2.9a11 11 0 0 0 2.1-4.1c0-.7.5-3 1.2-5.1 1-3.7 1.4-3.9 5-3.9 4.9 0 9 4.1 11.4 11.2.9 2.9 2.2 4.8 3.1 4.8s2.4 1.2 3.6 2.6c1.8 2.3 2.4 2.5 6.6 1.9 6.7-1 7.2-1.8 5.4-9.5a53 53 0 0 1-1.6-9.7c-.1-4-2.2-4.7-8.3-2.6-4.3 1.5-5.9 4.2-3.4 5.8 1.8 1.1 1.1 3.5-1 3.5-1.6 0-2-.7-2-3.8 0-4.8-2.3-8.3-4.1-6.5q-3 2.8-6.4-.7c-1-1.2-3.1-2-4.9-2-2.8-.1-2.9-.2-1.3-1.4.9-.7 1.7-2.5 1.7-4 0-3.6 1.7-6.6 3.6-6.6s5.3 3.9 5.4 6.2q.2 3.3 2.9 1.8 1.4-.8.8-3.8-1.2-6.7 3.1-.4c3.7 5.5 6.2 6.8 6.2 3.2 0-1-1.4-3.5-3.1-5.4l-3-3.5 3.3-1.4q6.3-2.7 7.4 4c.6 3.4 1.8 4 4.4 2.3q1.6-1 .5-2.3l-2.8-4c-1-1.4-1.9-3.8-2-5.3-.2-2.7 0-2.9 3.8-2.9 3.4 0 4-.3 4.3-2.3.4-2.6.3-2.6 4.4-.6 3.8 1.8 10.8 10.1 10.8 12.6q-.1 1.7-2 1.8c-2.6 0-4 4.8-1.8 6.4.9.7 1.5 2.5 1.4 4.4q-.2 5-2.1 2.2c-.3-.5-2.5-1-4.8-1s-5.1-.7-6.1-1.5c-2.3-1.7-5.6-2-5.6-.5 0 .6.9 1.8 1.9 2.7q2 1.7 1.1 3.3c-.5.9-.5 2.2 0 3s.7 2.4.5 3.5c-.9 3.5 2 9.9 5.1 11.4a38 38 0 0 0 11.1 1.9c7.5.4 8.6.7 12 3.7 2.1 1.8 5.3 4 7.2 5 4.1 2.1 15.8 3.4 14.7 1.7-.4-.7-1.8-1.2-3.1-1.2-2.3 0-4.2-1.6-3.2-2.7.3-.2 3.2.3 6.3 1.2 7 2 18.4 1.3 18.4-1.1s1.7-1.5 2.3 1.4a6 6 0 0 0 2.9 4q2.6 1.1.5 1.1a8 8 0 0 1-4.2-1.5c-2-1.3-3.8-1.5-9.2-.9-3.6.4-6.1 1-5.4 1.4.7.5 3.5.6 6.3.3 4.2-.4 5.4-.1 6.5 1.4 1.7 2.3 6 2.3 18.8 0 7.8-1.4 9.5-1.4 12.5-.2 1.9.7 5.9 1.9 8.7 2.6 4.8 1.1 5.5 1 7.9-.9s3.5-2.1 12-1.5c9 .7 9.4.6 12.8-1.9 5.7-4.4 8.6-15.3 3.9-14.5q-1.8.4-2.1-2c-.4-2.6 1.4-2.9 4.5-.7 1.9 1.4 2.2 1.3 3.7-1 .9-1.4 2.3-2.5 3-2.5s2.1-1.1 3-2.5c2.7-4.1 7.5-6.5 13-6.5a41 41 0 0 0 10.5-1.9c3.1-1 9.8-2.2 14.9-2.5s10.3-1.1 11.5-1.8 4.5-1.1 7.4-.9c4.4.2 5.4-.1 6.5-1.8.7-1.2 2-2.1 3-2.1 2.1 0 7.8-4.7 7.8-6.5q.1-1.2 1.5-1.9c3.3-1.2 1.5-4.2-4-6.9a32 32 0 0 0-6.8-2.7c-.8 0-4.8-1.8-9-3.9-4.2-2.2-9.3-4.3-11.4-4.6s-5.7-1.5-8.1-2.6c-2.3-1-5.6-1.9-7.3-1.9s-3.2-.6-3.5-1.5q-.8-1.4-2.9-1.5c-1.2 0-3-.9-3.9-1.9-1-1.1-4.3-3.2-7.4-4.7s-8.1-5-11.3-7.8a90 90 0 0 0-28.4-17.6c-3.3-1.1-8-3.4-10.4-5s-5.7-3-7.3-3q-2.8 0-7.2-4c-2.4-2.2-4.8-4-5.4-4q-.9-.1-1.5-1.4c-.6-1.3-2.7-2.9-5.4-4.7a317 317 0 0 1-12.8-9.7 84 84 0 0 0-11-7.9c-1.6-.8-5-4.2-7.5-7.5-7.6-10.2-10.4-13-12.1-12.3a23 23 0 0 0-4.7 7L830 577l2.5 3.6a18 18 0 0 1 2.5 4.5q.2.8 2 .9c1.8.1 2.9 1.3 4.2 3 1.2 1.6 2.8 3 3.5 3 2.8 0 .1 1.9-3.5 2.6-2 .4-4.2 1.1-4.9 1.6-.6.5-2.5.5-4.5 0-2.6-.6-3.4-1.4-3.6-3.5q-.4-2.5-1.9-2.7-1.6-.2-.9 2.5c.7 2.7-1.1 3.4-3.2 1.3q-1.3-1.4-1.2.3c0 .8-.9 2-2 2.7-1.1.6-1.7 1.8-1.4 2.6q.4 1.4-1.5 2.1c-2.7.8-4.5-.3-3.2-1.9 1.7-2-3.3-4-6.2-2.5-1.2.7-2.5 1.7-2.9 2.3q-.7 1.2-1.8 0c-1.9-1.9.8-7.2 4-7.9 6.4-1.4 5.3-5.4-2-7.2q-3.6-1-3.8-3.1-.3-2.2 1.1-2.2t.9-2.5c-.4-2.2-.1-2.5 2.8-2.5q3.2 0 3.7 1.8.3 1.9 3.9 1.8c2.9 0 3.4-.3 3.2-2.1-.4-2.7 3.7-3.3 6.4-.8q2.2 2 2.5.5.6-1 1.9-1.2c1.3-.2 1.4-.4 1.4-.9s1.3-2.4 2.9-4.2a13 13 0 0 0 3.3-6.5c.4-3.1-.2-4-4.9-8.7-3-2.8-7-7.4-9.1-10-4.8-6.2-19.6-15.7-24.5-15.7q-1.7-.1-2.3-1.4c-.6-1.3-1.9-1.4-3.7-1.4a90 90 0 0 1-19.1-3.1c-2.4-1.9-17.7-6.2-26.9-7.5a82 82 0 0 1-10.7-2.1c-.6-.3-3.1-1-5.8-1.5a56 56 0 0 1-10.1-2.9c-4-1.5-5.8-1.8-6.7-1a32 32 0 0 1-11.9 3.4l-4.7.3q-1.6.3-1.8 1.4c0 1.2-19.7 6.8-31.5 9l-10.5 1.9c-3 .6-7.7 1.5-10.5 1.9-6 1-11.4 2.8-13.5 4.5-1.5 1.3-2.8 1.6-16 3.5-9.3 1.4-28.9.1-32.5-2.2-.6-.3-5.1-.2-10 .3-7.8.9-10 1.6-16.7 5.3-16 9.1-17.2 9.3-53.8 10.4-28.3.9-33 .8-36.5-.5a19 19 0 0 1-5.5-3.2c-4.9-5.4-26-14.2-39.5-16.6a32 32 0 0 1-12-3.6c-1.1-1-4.7-3-8-4.4l-8.2-3.7c-1.1-.6-2.6-.7-3.2-.3s-3.7-.8-6.9-2.6c-7.7-4.4-20.6-9-26.7-9.6-5.7-.6-9.6-3.2-18.5-12.5-3.1-3.1-7.6-6.6-10.1-7.7s-5.4-2.9-6.4-4.1-2.3-2-2.8-2c-1 0-8.6-6.7-17.7-15.4a72 72 0 0 0-8.7-7c-2.3-1.4-5-3.8-5.9-5.3-4.7-7.7-9.5-15.1-11.3-17.4-1-1.4-2.7-4.9-3.7-7.8s-2.8-6.6-4-8.1-2.4-4.1-2.4-5.7-.4-3.3-.8-3.8a53 53 0 0 1-6.3-20.7c.3-3.8-3.6-6.3-7.3-4.7-1.4.7-2.6 2-2.6 3q0 3.8-3.4 1.4c-2.4-1.8-1.4-4.5 1.7-4.5 2.9 0 7.7-3.5 7.7-5.6q-.1-1.3-.8-1.4c-.5 0-.9-1.4-.9-3 0-4.5-2.9-7.8-11.8-13.8-10.2-6.7-11.8-7.1-14.7-3.8s-5.2 2.2-4.2-1.7q.6-2.8 2.9-2.7c2.5 0 3.6-2.4 2.5-5.6-.6-1.6-11.1-11.2-22.2-20.2-1.6-1.3-6.1-4-10.1-5.9-6.1-3-8.3-3.6-14.2-3.6-11.5-.1-25.6 1.4-32.8 3.5-6.5 1.8-7.1 1.8-11.8.3-2.8-1-9-2.1-13.7-2.6-18.8-1.9-20.7-2.2-22-3.2-.7-.5-4.5-1.2-8.4-1.5-5.6-.4-8.8-1.3-14.1-4a43 43 0 0 0-11.5-4c-2.6-.2-5.5-1.2-6.6-2.1-1.3-1.2-3.9-1.6-10-1.6-8-.1-8.9-.4-18.8-5.6a23 23 0 0 0-6-1.4l-6.5-1.1c-1.8-.3-2.8.5-4.9 3.7"/></svg>