<svg xmlns="http://www.w3.org/2000/svg" width="1365.333" height="1365.333" viewBox="0 0 1024 1024"><path d="M942 58c-5.2 1-17.4 4.6-27 8-9.6 3.3-25.7 8-35.7 10.4l-18.1 4.3-12.9-2.1a47 47 0 0 1-21.9-7.2 43 43 0 0 0-13.9-5.9l-5-.6-3.6 4.8c-3.1 4.1-4.1 6.7-6.3 17.3a49 49 0 0 1-6.3 17.9l-3.5 5.4 2 5.4 2 5.4-3.5 2.6-3.6 2.7.5 9.2.5 9.1-4.1 4.8a26 26 0 0 1-8.6 6.5c-4.3 1.7-4.6 1.7-10.4-.3-3.3-1.1-9-4.2-12.6-6.9l-6.7-4.8-5.1 1.5-5.1 1.5-.7 5.8c-1.1 8.1-1 11.7.5 29.7l1.4 16.1-3.9 8.8-3.9 8.8-17.5 13.6c-16.6 13.1-17.8 14.2-25.1 24.7a50 50 0 0 1-19.2 18.7c-13.5 9-33.3 19.1-48.2 24.8-14.8 5.5-28.7 14.2-31.3 19.6l-2 4-53.3 18.6-53.4 18.5-21 1.8-21 1.7-11.9 5c-11.4 4.8-12.1 5-16 3.8-2.2-.7-7.6-3.3-12-5.8a170 170 0 0 0-22.5-9.3 61 61 0 0 0-21.6-4.9c-3.8 0-9.9-.5-13.5-1s-13.9-1.4-23-2.1c-9.4-.6-21.1-2.1-27.2-3.4-10.4-2.3-11-2.7-26.5-12.7a176 176 0 0 0-34.5-18.2c-16.9-7.1-19.1-7.8-23.1-7.2-4.3.7-4.9.4-15.8-6.7l-11.4-7.5-9.8-16.6c-9.2-15.9-9.7-17-9.7-22.5v-5.7l-6.7-4.6c-3.8-2.5-10.2-6-14.3-7.8s-10.8-5-14.7-7.2c-9.5-5.2-13.4-4.8-18.9 1.8A81 81 0 0 0 88 261.4c0 3.2-1.3 9.1-3.6 15.9L80.8 288l2.2 14.3c3 19.5 6.9 28.7 15.9 38.1 4.9 5.1 8.4 7.7 13.7 10.1 3.9 1.8 9.2 5.4 12.1 8.1 5.1 4.9 5.2 5 12.2 26.4 6.7 20.2 7.1 22 7.1 30.5v9l-6 3.9a26 26 0 0 0-10.1 10.8A99 99 0 0 0 114 485c-1.7 19.2-2.5 22.9-6.3 26.9-1.8 2-3.8 4.8-4.4 6.2-.9 2.1-2.7 3-10.7 5.4-9.6 2.9-9.6 2.9-9.6 6.2 0 2.8-.4 3.3-2.4 3.3-2.1 0-2.7.9-4.6 6.5-1.6 4.9-3 7.2-5.8 9.4-3.5 2.7-4.2 2.9-10.2 2.4l-6.5-.5-5.8 4.9c-9.8 8.2-19.3 19.9-33.9 41.7l-14 20.8 2.8 11.2a88 88 0 0 0 3.6 12.3c2.3 2.9 12.9 7.7 24 10.7 11.4 3.1 12.3 3.2 18.6 2.1 9.6-1.7 26.9-9 31.6-13.4 2.1-2 7.9-9 12.9-15.6 18.8-24.8 26.9-33.2 38.5-39.8l4.1-2.3 24.8 3.4 24.8 3.4 12.5-1.6a841 841 0 0 1 41-4.4c3.9-.5 12.5.2 29.1 2.3l23.6 3 12.6 15c16 19.1 21.4 23.1 33.1 24.6 9.8 1.3 19.4.5 34.4-2.7 6.3-1.3 12.4-2.4 13.6-2.4s6.1 1.6 10.9 3.5c6.9 2.8 10 3.5 15.5 3.5 3.7 0 19.1 1.6 34.2 3.6 21.6 2.7 30.4 4.3 41 7.4l28.2 7.9c11.7 3.1 15.5 4.6 18.8 7.3 2.3 1.8 11.4 12.4 20.2 23.6 12.4 15.8 16 21.1 16.5 24a35 35 0 0 0 3.4 9.4c2.9 5.6 3 6.2 4.5 32.3l1.5 26.7 4.5 13.2c2.5 7.2 6.2 19.9 8.3 28.3l3.8 15.1-2.4 12.4-2.5 12.3 2.7 12c1.5 6.6 4.6 18.1 7 25.5s5.5 18.7 7.1 25a45 45 0 0 0 7.8 19c2.7 4.1 6.1 8.4 7.5 9.5s5.5 4.7 9.2 8.2q10.9 10.5 25.6 13.3c9.5 1.9 39.5.8 50.8-1.9a180 180 0 0 1 21-3.2c15.5-1.4 24.1-4.4 30.9-11l5-4.7-.1-13.3c-.1-10.4-.7-16.1-2.7-25.2a85 85 0 0 1-1.6-33.2 514 514 0 0 0 2.5-21 368 368 0 0 1 2.5-21c.5-3.3 1-10 1-14.8 0-5.7 1.2-15.4 3.4-27.5 1.9-10.3 4-22.3 4.6-26.7 1.1-6.8 2.1-9.5 7.3-18.5 3.3-5.8 8.2-13.7 10.8-17.7 3.5-5.4 4.8-8.5 5.3-12.7.6-4.8 1.2-5.8 3.9-7.5 1.8-1.1 6.9-5.8 11.5-10.4l8.2-8.5v-22l-7.5-15.7-7.5-15.8V574l7.6-13.4 7.7-13.3 9.2-4.9 9.3-4.9 1-7.7a43 43 0 0 1 13.9-26.4c5.1-4.4 6.9-5.3 15.1-7.4 5-1.3 9.2-2.9 9.2-3.5l1.5-12.8 1.4-11.8 12.7-19.9c10.2-16.2 14-21.3 19.8-26.6 3.9-3.7 8-7 9.1-7.4 3.4-1.2 30.2-3.3 34.3-2.7 3.5.6 4.1.4 6.1-2.3 1.8-2.6 2.8-3 6.7-3 3.7 0 6.4-1 13.3-4.9 4.7-2.6 12.3-6 16.9-7.5 7.8-2.6 8.2-2.9 8.2-5.7 0-2.3 1.4-4.2 6.6-9.2l6.7-6.3-21.2-15.7c-18.5-13.7-21.1-16-21.2-18.4 0-1.5-1-13-2.2-25.5l-2.3-22.8 2.4-4.7c1.3-2.7 5.2-7.7 8.7-11.3s6.7-7.4 7.3-8.5 1.3-5.6 1.7-10 1.3-11.9 2-16.7c1.3-8.3 1.3-9-.9-16.1a87 87 0 0 0-8.1-16.8c-9-14.5-15.5-29-15.5-34.7 0-2.6-.7-7.2-1.5-10.2s-1.5-8.5-1.5-12.2c0-6-.4-7.3-3.9-13a39 39 0 0 1-5.5-15.1c-1.7-8.9-1.7-8.9.8-18.5 2.4-9.5 3.2-18.9 2.8-32.3l-.2-6.7-6.9-3.6c-3.8-2-7.1-3.6-7.2-3.5z"/></svg>