<svg xmlns="http://www.w3.org/2000/svg" width="1365.333" height="1365.333" viewBox="0 0 1024 1024"><path d="M1018 202c-1.4.4-3.9.8-5.5.9q-3 .1-10.2 5.5c-6.6 5-7.5 5.4-11.3 4.9-3.6-.5-4.2-.3-4.7 1.5-.6 2.6-8.1 7.6-11 7.4-1.2-.1-3.5.3-5 .9s-6.1 1.5-10 1.9c-6.7.7-7.7 1.1-12.7 5.4-4 3.4-6.7 4.9-10.7 5.7-3 .6-9.1 3-13.6 5.2-7.7 3.9-8.4 4.5-9.8 8.7-1.4 4-2.6 5.2-10.8 10.8a35 35 0 0 1-11.9 6.2c-3.1 0-15.2 6.1-18.9 9.6-2.3 2.2-3.3 2.4-12.5 2.4-6.8 0-10.8-.5-12.8-1.5-3.8-2-4.1-1.9-5.5 1.2-.7 1.6-4.5 7.1-8.4 12.4a48 48 0 0 1-27.6 20.8 31 31 0 0 0-14.9 8.2 44 44 0 0 1-13.7 8.7c-4.3 1.9-11.2 5.6-15.3 8.4a34 34 0 0 1-11.6 5.6c-2.2.3-6.1 1.6-8.5 2.9a23 23 0 0 1-6.1 2.3c-1 0-2.9.9-4.2 2-1.4 1-10.1 4.1-19.4 6.7l-16.9 4.8h-36l-7 4.3c-3.8 2.3-7.6 4.2-8.3 4.2s-3.9 2.5-7.1 5.4a56 56 0 0 1-16.6 10.6l-11 5.2-9.3-.7c-9-.6-9.6-.5-13.3 2-6 3.9-15.3 6.5-23.8 6.5-6 0-9.2.7-15.9 3.2-7.8 2.9-8.8 3.1-12.8 2-6.2-1.7-12.9-1.5-14.4.3-.9 1.1-3.3 1.5-8.7 1.5-5.9 0-8.3-.5-12.5-2.6s-5.5-2.4-7.5-1.5a34 34 0 0 1-18.3-.4c-1.4-.8-5.2-1.4-8.7-1.5-3.4 0-7.4-.5-8.8-1-5.3-2-15.9-3.1-21-2.1-4.3.8-6.2.6-13.2-1.6-8-2.4-8.3-2.5-13.8-.8-6.2 1.8-8.1 1.6-19.5-2-12-3.7-14-3.8-18.5-.4-3.2 2.4-4.8 2.9-9.8 2.9-7.5 0-16.1-2.6-20.8-6.2-3.3-2.5-4.5-2.8-11.4-2.8s-8.1-.3-12.2-3.1a65 65 0 0 0-10.2-5.4 71 71 0 0 1-11.3-5.8l-5.5-3.5-.7 7.6c-.3 4.1-.6 10.3-.6 13.6 0 5.8.2 6.3 3 7.9 2.9 1.8 3 2.1 3.1 9.5.1 4.2.4 14 .8 21.7.5 11.8.4 14.9-1.1 20-1 3.3-2.3 9-2.9 12.7a64 64 0 0 1-10 27.6 44 44 0 0 1-14.9 12.5 61 61 0 0 1-14.5 7.2c-3.6.5-4.3.3-7-2.5-1.6-1.6-3.9-3-5.1-3s-3.5-1.1-5.1-2.4a26 26 0 0 0-8.3-3.7c-3-.7-8.6-3-12.5-5-3.8-2-8.8-4.2-11-4.9s-4.9-1.9-6-2.6-4.3-1.4-7.3-1.4c-2.9 0-6.2-.5-7.3-1.1-1.1-.5-4.7-1.5-8.1-2-5.2-.8-6.3-.7-7.9.7-1.3 1.2-2.9 1.5-5.8 1.1-3.6-.4-4.1-.3-4.9 2.3-.9 2.3-1.7 2.8-6.2 3.3a23 23 0 0 0-7.9 2.4c-1.9 1.2-4.2 1.6-8.8 1.4l-6.2-.2-2.2 4.3a55 55 0 0 1-7.5 10q-5.5 5.7-5.4 8.3c0 3-5.5 14.2-11.5 23.6-3.8 5.9-5.2 7.1-12.9 11.3a32 32 0 0 0-9.8 7c-1.4 3.1-13.8 7.1-19.4 6.3-2.1-.4-6.5-.9-9.6-1.3-5.4-.6-5.9-.9-11.3-7a45 45 0 0 0-8.8-8.1c-6-3.1-9.7-6.7-9.7-9.4q.2-2.7-3.8-5.3c-2.2-1.5-4.5-2.4-5.3-2.1s-2.6 2.3-4.2 4.4c-2.6 3.7-2.7 4.5-2.7 15 0 13 1.2 16.2 10.8 29l5.5 7.5.5 10.3c.4 10 .4 10.3-1.7 10.3-1.7 0-2.1.6-2.1 3.4s.6 3.8 3 5.3q2.9 1.7 2.5 3.3c-.3.8.4 2.8 1.5 4.5 2.8 4.2 2.6 9.3-.5 12.5l-2.5 2.6 3.5 4.9c1.8 2.8 4.5 7.2 5.9 10C29.2 656.9 39 665 42.8 665q2 0 4.8 4.7c2.3 4.1 2.8 6.1 3.2 14.8.4 9.5.6 10.3 3.9 14.9s3.4 5.1 2.8 10.6-.5 5.9 1.7 6.5a44 44 0 0 1 11.3 7.8c1.8 1.5 5.4 3.5 8 4.3 2.5.9 6.9 3.7 9.8 6.3 7.9 7.2 10.9 9 13.8 8.4 1.6-.3 4.5.5 7.7 2.1 2.8 1.4 6.6 2.6 8.4 2.6s6.8 1.2 11 2.6a22 22 0 0 1 12.5 7.9c4.3 4.8 5.4 5.4 10.7 6.4 3.2.6 9.2 2.9 13.3 5.1s8.7 4 10.3 4c1.5 0 5.3 1.1 8.4 2.5 7.2 3.2 12.2 3.3 13.1.4.7-2 1.1-2.1 8.9-1.5s8.3.6 10.5-1.8c1.3-1.4 3.8-2.8 5.5-3.2 1.7-.3 4.4-1.5 5.9-2.6 2.4-1.7 3.4-1.9 6.6-1 3.1.7 4.6.6 7.6-.9 3.4-1.7 4-1.7 5.4-.4s2.5 1.2 8.3-.1c7.6-1.7 9.6-1.1 17.6 5.3 4.9 4 15.2 18.8 18.9 27.1 2.5 5.7 2.6 9.1.8 17.9l-.7 3.3 8.3-.5 13.5-1c4.3-.6 6.3-.2 11.5 2 7.9 3.4 12.9 4.3 12.9 2.4 0-.8.3-2.3.6-3.4.3-1.4-.9-3.8-4.4-8.1-7.4-9.2-7.8-10.7-6.3-23.3 1.2-9.5 1.7-11.1 4.6-14.8 5-6.6 19-16.8 25.5-18.6q5.5-1.7 8.8-5 3.3-3.4 9.3-5.2c5.6-1.7 7.2-1.7 25.2-.4a194 194 0 0 0 37.5.4q3.3-.7 8.3-5.6c4.9-4.9 5-4.9 7.9-3.4 5.4 2.8 16.8 1 18.3-3 .5-1.1 2.1-1.5 5.7-1.5 4.4 0 6-.6 10.7-4 3.1-2.2 6.8-4 8.2-4a18 18 0 0 0 13-7.3c2.7-4.5 10.8-7.7 27-10.9l11.4-2.2 6.4-7.7c5.4-6.6 7.3-8.1 11.9-9.8 6.6-2.5 15.6-2.8 17.4-.6.7.8 2.3 1.5 3.5 1.5 2 0 2.7-1.1 5-7.9 2.7-8.2 7.9-15.1 12.3-16.5 2.3-.8 2.7-3.7 4.2-28 1.3-21.8 2.4-24.2 14.5-31.4 8.7-5.1 9-5.2 16.7-5.2 4.4 0 11.1-.5 14.9-1.2 9.9-1.6 19.5.2 26.9 5.1 3 2 6.7 4.2 8.2 4.9 1.6.6 4.8 3 7.2 5.2s5.3 4 6.4 4c3.4 0 15.4-4.9 17.9-7.2q2.3-2.1 2.3-5.9v-3.7l6.8-1.2 11.7-1.7c2.8-.3 5.5-1.2 6.1-2 1-1.2 2-1.2 7.2.1 3.3.9 8.1 1.6 10.6 1.6q4.7 0 9.7 2.6c3.7 1.8 5.9 2.3 8 1.9 2.5-.6 3.6-.1 7 3 3.2 2.9 4.3 3.4 5.4 2.5s1.9-.8 3.7.4c1.2.9 2.6 1.6 3 1.6 1.6 0 .7-4.8-1.2-6.5-1.5-1.3-2-3.1-2-6.6q0-4.8-2.5-9.5a25 25 0 0 1-2.5-5.9c0-.7-1.9-2.8-4.3-4.8s-5.8-6.4-8.1-10.5c-2.1-3.8-5-7.6-6.3-8.3-5-2.7-22.5-22.1-25.1-27.9s-6.8-11-8.7-11c-2.2 0-10.3-9.6-12-14.3q-2-4.8-4-5.7c-2.5-1-3.5-2.9-3.5-7.1 0-1.6-.7-4.7-1.6-6.9-1.5-3.6-1.5-5.4-.5-14.1.6-5.5 1.1-12.4 1.1-15.5 0-7.6 2.1-12.1 8.7-17.9 5.1-4.6 5.5-5.3 4.4-7.3-1.6-3-.5-4.7 7.6-12.2 6-5.5 7.1-6.1 10-5.7q3.2.6 5.6-1.3c2.2-1.7 2.6-1.8 4.6-.4q6.6 4.6 11.3 1.3c1.6-1.2 3.6-1.8 4.4-1.5 2.4.9 9.5-1.3 13-3.9 2.7-2.1 3.4-3.6 5-11.2 1.7-8.4 2.1-9 8.5-16.3 3.6-4.1 11.8-12.5 18.1-18.5 10.8-10.3 12-11.2 20.4-14.4a96 96 0 0 0 16.3-8.4c9-6 21.2-11.7 25.2-11.7s6.9-2.1 15-11.2c10.2-11.6 19.7-19.5 26.2-21.7 7-2.4 10.1-4.5 11.5-7.6.6-1.4 2-2.5 3-2.5q1.8.2 3.7-5.3c3.8-10.8 11.6-21.7 15.6-21.7 1.1 0 3.1-1.1 4.4-2.4s4.6-2.9 7.4-3.6c2.8-.6 7.5-2.9 10.5-5 4.2-2.9 6.6-3.9 10.8-4.3 9.2-.8 14.5-3.3 18.9-9.2 3.1-4.1 4.1-6.5 4.5-10.6.4-3.2 1.6-7 3.1-9.2q5.4-8.5-3.7-5.7"/></svg>