<svg xmlns="http://www.w3.org/2000/svg" width="1365.333" height="1365.333" viewBox="0 0 1024 1024"><path d="M546.4 1.9c-4.2 1.9-15 10.8-26.9 22.1-8.3 7.9-16.9 15-18.2 15-.5 0-3.1 1.4-5.9 3.2a70 70 0 0 1-42.8 10.7c-13.9-2.1-14.5-2-19.3 4.9-2.2 3.1-5.4 8.4-7.1 11.7s-6.5 9.6-10.6 14-8.3 9.8-9.2 12c-12.6 29.8-29.3 60-41.7 75.5a149 149 0 0 1-28.1 24.4c-1.2.5-4.5 1.2-7.4 1.6s-7.4 1.9-10 3.1c-4.1 2-6.3 2.3-17.2 2.4a62 62 0 0 1-15-1.1 30 30 0 0 0-6.5-1.8 20 20 0 0 1-6.4-2.3q-2.3-1.4-3.3-.5c-.5.5-2.7.8-4.8.5-3.3-.5-4.7.1-11.3 4.6q-24.8 17-39.3 11.6c-2.7-1-5.3-2.2-5.9-2.6-.5-.4-3.4-1.4-6.3-2.3-6.7-1.9-8.1-1.2-12.4 6.4-8.1 14.2-13.1 19.9-16.4 18.6q-1.3-.6-5.5 6.7c-4.6 8-12.6 19.7-14.5 21.2-1.8 1.4-11 17.7-15 26.3-9.3 20.3-15.3 48.6-11 52.1.9.7 1.6 2.4 1.6 3.7 0 2.8 1.5 3.2 2.5.6.4-.9 1-6.1 1.3-11.5.2-5.3.7-9.7.9-9.7s1.8.9 3.4 2.1c2.2 1.5 2.9 2.8 2.9 5.3 0 3.5 3.3 12.1 5 13.1 1.3.8 5 8.9 5 10.9q.1 1.6 2.3 1.6c5.9 0 10.2 2.3 16.3 8.7 4.7 5 6.3 7.4 6.8 10.4.3 2.1 1.1 3.9 1.6 3.9q1 .1 1 1.3c0 1.8 4.8 6.7 6.5 6.7 1.9 0 1.9 1.1-.1 5.4-.9 1.9-2.8 3.9-4.3 4.6-2.3 1-2.8.9-5.2-1.8a37 37 0 0 0-9.3-6.1c-6.5-3.1-10.3-3.4-21.8-2.2-.4.1-1.3 2-1.9 4.3l-1.2 4.3-.8-3c-1.2-5.4-1-8.5.6-8.5q1.3-.2 1.5-2c0-1.7-.7-2-4.4-2-5.3 0-9.9-3-7.8-5.1 2.2-2.3 1.3-3.7-3.8-5.5-2.7-1-5-2.1-5-2.5 0-1.9 1.4-3.9 2.7-3.9q1.6.1.9-2.5-.7-2.5 1.4-5.3c1.8-2.5 1.9-3.1.7-7.1l-1.4-4.4-1.9 2.9a50 50 0 0 0-8.3 17.9l-4.1 18-2.9 12 .3 39.5c.2 21.7.7 45.6 1.1 53 .6 12 .4 15.6-1.9 31.5-1.5 9.9-3 23.2-3.3 29.6a49 49 0 0 0 1.7 20c1.2 4.6 3 10.5 4 13a104 104 0 0 1 3.4 20c.8 8.5 2 17.7 2.5 20.4 4.1 20.9 1.1 42.7-10 72.4-2.8 7.4-5.4 14.2-5.9 15.1-1 1.9 1.3 6 3.4 6a68 68 0 0 1 20.1 11c1.7 1.8 5.6 5 8.8 7.1 3.1 2.2 5.7 4.4 5.7 4.9q.2 1 2 1c1.6 0 2-.7 2-3.3 0-3.3-1.2-5-6.4-9.5-2.6-2.2-2.7-2.5-1.2-4.1s1.4-1.9-1.3-3.9q-5.7-4-1.7-11.6c1.8-3.5 2.6-4.1 5.7-4.4 5-.4 6.8 1.9 3.8 4.7-2.2 2-2.2 2.2-.7 5.3 1.3 2.8 5.3 7.6 16.6 20.4 1 1.1 2.6 2.5 3.7 3.1 2.9 1.6 1.2 4.3-2.8 4.3-3.5 0-5.7 1.3-7.6 4.5q-1.6 2.8-.6-.7c.7-3.4-.8-3.6-2.9-.6-2.2 3-2.1 3.3 1.9 7.5a67 67 0 0 1 12.3 24.9c.6 5.3 3.6 8 7.7 7 2.8-.7 4.9-4.5 3.4-6a5 5 0 0 1-.9-2.8c0-.9-.8-3.3-1.7-5.3-1.4-2.9-1.4-3.9-.4-5.8 1-2 1-3.2-.2-6.8-1.5-4.5-4.2-6.3-5.3-3.4-1 2.6-3.4-.3-3.4-4.2q.1-6.3 5.6-2.8c2.3 1.5 2.8 1.5 4 .3 2.3-2.3 15-.3 19.4 3 1.9 1.5 4.5 3.2 5.9 3.7 2.1.9 3 3.2 6.8 16 5.2 18 5.1 20.6-.6 22.4-2.1.6-4.4 1.8-5.1 2.6s-2.9 1.5-5.4 1.5c-6.8 0-10.6 4.3-7.7 8.8 1.5 2.4 6 .3 7.6-3.4.8-1.9 1.9-3.4 2.4-3.4s2.7-1.1 4.7-2.5 4.2-2.5 4.8-2.5c1.3 0 1.5 7.9.2 9.9q-.7 1.3.2 2c2.2 1.3 3.1 5.7 2.1 10.1-.6 2.6-.6 4.6-.1 4.9.7.5 4.2 16.5 4.2 19.3q-.2.8-2 .8c-2.5 0-2.6 1.6-.3 2.9 1.7.9 1.7 1.3-.1 6.8a73 73 0 0 1-3.1 7.8c-.7 1.1-2 5.7-3 10.1l-1.7 8.1 2.6 8.9c3 10.2 3.1 12.8 1.1 20.4-.8 3-1.5 7-1.5 8.7 0 3.4.5 3.7 6 3.4 1.4-.1 4 .9 5.9 2.3 2.9 2.1 4.1 2.4 7.9 1.9 2.5-.3 5.7-1.2 7.2-2 3.4-1.7 7-1.6 9.1.3 1.5 1.4 2.2 1.4 6.1.1 7.3-2.5 21 .9 28.2 7 2.8 2.3 3.4 2.4 12 1.8s9.3-.5 12.7 1.8a24 24 0 0 0 7 3.2c4.8 1 5.9 2.2 5.3 5.4-.8 3.9 2 9.1 4.9 9.1 1.3 0 2.8.5 3.5 1.2s1.2.8 1.2.2c0-.5 1.5-.8 3.4-.6 4.9.6 9.3-2.1 11.2-6.8 1.4-3.4 2.1-4 4.5-4q2.9 0 2.9 1.5 0 1.4 2.5 1.5 2.3 0 2.5-.8c0-.4 1.4-1.3 3.2-2.1 3.4-1.5 7.7-5.8 7.8-7.7 0-1.4 6.7-4.7 7.9-4 1.1.7 7.7-2 8.6-3.5q.5-1-1.4-1.6c-3.3-.9-2.6-3 .9-2.5q3 .4 4.7 3.3c1 1.7 2.6 2.9 3.8 2.9 1.9.1 1.9.1.3 1.4-2.3 1.7-2.3 3.1.2 5.6a8 8 0 0 0 5.5 2q3.4 0 4.5 1.9c1.5 2.8 6.7 3.7 9.1 1.5s2.4-4.9-.1-7.4a7 7 0 0 1-2-4c0-2.1-2.7-4-4.7-3.3q-1.3.3-1.3-1.6c0-2.4.3-2.5 4.8-1.2q3.3.9 6.1 0c2.3-.8 3.5-.6 6.2 1 4.6 2.8 7 2.6 11.3-.8 4.1-3.3 6.3-3.2 11.3.5 1.7 1.3 3.6 2.4 4.2 2.4 1.5 0 5.1 4.1 6.5 7.3l1.2 2.8 2.6-2.1c1.5-1.1 3.7-2 5.1-2 6 0 7.1-2.2 3.8-7.5-1-1.7-2-5.3-2.3-8.1-.4-4-1.9-7.5-6.8-15.8-7.2-12.2-10.8-15.6-16.6-15.6-3.5 0-4.6-.7-10.9-7.1-9.1-9.3-15-12.4-22.2-11.5-5.3.6-13.3 4.6-13.3 6.6q-.2 1-1.5 1-1.5 0-1.5 3c0 2.7.3 3 3.1 3 1.7 0 3.9-.5 5.1-1.1q1.8-.9 2.5-.6c.3.3-1.3 1.5-3.6 2.7-2.3 1.1-4.1 2.4-4.1 2.8.1.4 1.7 1.7 3.6 3 3 1.8 4.9 2.2 12 2.2 8.5 0 9.6.4 6.8 2.4-2.6 1.9-.2 6.6 3.4 6.6s7.4 3.6 5.2 5q-1.8.9.4 1.6c1.8.7 1.7.8-.5 1.6-2 .8-2.8.4-4.9-2.2-1.4-1.6-3-3-3.6-3s-1.7-.7-2.4-1.5q-3.4-3.6-2.5 1.6A43 43 0 0 1 403 911c-.4 0-1-2.8-1.4-6.1-.3-3.4-1-6.7-1.5-7.3s-1.1-2.2-1.3-3.6c-.2-2-1.1-2.7-4.8-3.5-2.5-.5-5.6-1.8-7-2.7s-3.8-2.2-5.3-2.9c-1.6-.7-3.7-3-4.8-5.1-2.4-4.6-6.5-7-8.3-4.7-.6.8-3.5 2.7-6.4 4.2-8.3 4.2-17.5 3.4-18.8-1.8-1.1-4.3 1.1-5.8 7.7-5 5.6.7 5.7.7 9.8-3.5q6.4-6.4 2.8-10.6c-3.2-4.1-7.3-7.4-9.2-7.4-1.1 0-2.6-.4-3.4-.9-2.1-1.3.4-2.4 3.9-1.6 3.1.7 6-.3 4.3-1.4-1.5-1-4.1-6.8-3.4-7.7s2.4-2.1 7.5-5.2c1.6-.9 4.1-2.7 5.6-3.9q5.7-4.5 8.2.2c1.4 3.1 2.6 3.1 6.8 0 1.9-1.4 4.2-2.5 5.3-2.5 1.6 0 1.7-.5 1.1-4.6s-.4-4.8 2-7.3c2.2-2.3 2.7-3.6 2.4-6.6-.3-3.3-1-4.3-5.2-7.2-5.7-3.9-10.9-4.5-12.6-1.3q-1.1 1.8-2.5 2c-1.4.2-2 1.2-2.7 2.7q-1.3 2.8-3.8 3.1l-2.5.2 2.6-1.4c1.5-.9 2.9-2.4 3.2-3.6s1.3-2 2.6-2q2-.1 2.1-.8c0-.5 1-1.8 2.1-3.1q2.1-2.4 3.2-1.2c.6.6 2.1 1.1 3.4 1.1h2.3l-2.6-4c-1.5-2.2-3.2-4-3.8-4s-.3-.5.7-1.1q1.7-1 1.7-4.5c0-4.7-1.3-6.9-5-8.4-3.4-1.4-3.5-1.7-1.5-4.4 2.3-3 1.8-7.1-1.1-10.6-2.3-2.7-2.5-3.4-1.5-5.6q1-2.8 3.1-1.9c1 .3 3 .1 4.2-.6 2.9-1.5 8.8-7.5 8.8-8.9 0-.6-2.4-3.5-5.3-6.5-3.8-3.9-6.1-5.5-8-5.5-1.4 0-2.8.4-3.1.9-.7 1.1-12.6 1.1-12.6-.1 0-.4 2.3-.8 5-.8 4.4 0 5-.3 5-2.1a11 11 0 0 0-1.1-4.1c-.6-1.1-.9-2.2-.6-2.4 1-1 5.5.9 6 2.5.6 2.6 7.6 2.1 9.5-.7q1.4-2.2 4.8-2.2c4.4 0 5.3 1.8 1.2 2.2-3.3.3-3.3.3-3.3 5.6.1 5.9 2.5 9.6 4.7 7.4 1-1 1-1.7 0-3.3q-1.2-2-.9-2.5c1-1 5.6 2 6.1 4.1s4.3 4.5 7.1 4.5q1.2.2 1.7 2.2.4 2.3 3.6 3.7c3.8 1.7 4.2 4.1.6 4.1q-2.5 0-7.4-5c-2.7-2.8-5.6-5-6.4-5q-3.3-.1.6 4a7 7 0 0 1 2 4.6q-.4 2.2 2.3 2.8c1.5.4 3.5.4 4.6.1s3.2.2 4.9 1.2c3.5 2 4.1 4.8.9 4-2.4-.6-4.9.1-4.9 1.4q.1.8 1.6.9 2.2.3 4.5 1.7c4.6 2.7 3.7 6.3-2 8.3-2.4.8-4.6 2.1-4.9 2.8-.4 1.4 6.4 4.7 11.9 5.7 3.4.6 3.9 1.1 5.8 6.4a24 24 0 0 1-.2 17.9c-.9 1.9-.7 2.5 1.1 3.8 3 2.1 2.8 3.6-.4 2.8-4.2-1.1-2.5 1.8 2.4 4q4.1 2 4.2 3.7-.2 1.8 4.3 2.9c6.6 1.7 6.7 1.8 6.7 4.7 0 1.5.5 3.5 1 4.3.8 1.3 1.1 1.3 2.2.1 1-1.1 1-1.4.1-1.8q-1.2-.5-1.3-1.4c0-1.8 2.9.4 4 3.1 1.9 4.5 10.6 5.6 14.6 1.9l2.3-2.1 2 4.1c1.2 2.2 2.1 4.7 2.1 5.5s.3 1.6.8 1.8c1.5.7 5.3 6.9 4.7 7.8-.3.6-2.5 1.3-4.7 1.7-5.7.9-10.7 5.6-11.5 10.7-.6 3.5-.4 3.9 1.3 3.3 9.5-3 10.3-3.1 13.9-1.4 2 .9 4.2 1.7 4.9 1.7q1.3.2 1.9 2c.8 3.1 3.2 2.4 5-1.5 1.5-3.1 2.1-3.5 5.7-3.5q4.2 0 4 1.5c0 1.9 3.1 5.5 4.7 5.5.6 0 1.6.6 2 1.4 1.3 2.2 6.3 2.6 8.2.7 2.1-2.1 4.1-1.6 4.1 1 0 2.7 5 4.9 11.2 4.9 3.1.1 6.1.7 7.2 1.5 2.7 2.1 5.1 1.9 11-.9 5.2-2.4 11.6-4.2 11.6-3.2 0 .3-1.6 1.3-3.5 2.2s-3.5 2.3-3.5 3.1-1.5 2-3.2 2.8c-6.2 2.7-6.9 3.7-6.2 9.1.4 2.7 1.4 5.8 2.4 6.9s2 3.2 2.4 4.8c.6 2.4 1 2.6 3.4 2.1 1.5-.4 3-1.2 3.4-1.8q.6-1.2 2.8.2 4 2.3 4-.1c0-2.1 4.3-5.6 7.8-6.3q3.1-.7 3.2-2.3c0-.9.3-2.6.6-3.9 1-3.4-2.7-2.8-4.8.8-1.9 3.3-5.2 4-6.2 1.4-.4-.9 0-2.4.9-3.4s1.5-2.8 1.5-4.2.7-3.1 1.5-3.8q3-2.3-.2-4.6-3.7-2.5 3.2-1.3 3.5.5 1.7.8c-4.1.2-1.3 2 2.9 1.8 3.6-.1 4-.3 3.7-2.7q-.4-2.5-3.1-3.8-3-1.4-1.8-2.5c1.2-1.1 1.4-.8 2.2 0q.9 1.1 4.8-.8c3.2-1.5 4-2.6 5-6.3.6-2.5 1.7-4.9 2.5-5.3.8-.5 1.8-4.3 2.5-9.8.8-5.6 2-10.3 3.3-12.5 2.9-4.8 3.2-15.3.6-24-1-3.6-1.8-7.7-1.6-9.2q.3-2.7-1.7-4.1c-1.8-1.4-1.8-1.5.7-4.6 1.5-1.7 3-4 3.3-5.2 1-3.2-1.5-11-4.7-14.7a14 14 0 0 1-2.8-4.3c0-2-7.5-10.8-9.3-10.9-.9 0-2.3-1.2-2.9-2.8s-2.3-3.6-3.6-4.7c-4.3-3.7-.1-9.1 7.7-9.7 4.5-.4 6-2.8 3.7-5.9l-4.1-5.8c-1.5-2-2.5-4.8-2.5-6.8 0-1.9-.8-4.6-1.8-6.1-6.4-9.5-9.3-14.2-11.1-18.2-1.1-2.5-2.1-3.9-2.1-3.2q.2 1.5-3 .7c-3.5-.8-4.1.8-1 2.5 1.1.6 2 1.7 2 2.4q.2 1.4 1.5 2.6 1.5 1.3 1.5 5.9l-.1 4.6-2.5-4.5-2.5-4.5.6 3.5c.4 1.9 1 4.4 1.4 5.5a39 39 0 0 1 2.5 13.4c-.3.3-1.6-.6-2.8-2.2q-3.5-4.4-6.4-1.5c-1.7 1.7.3 4.5 4.1 5.7s6.3 5.1 4.4 7c-.6.6-2.7 1.1-4.7 1.1-1.9 0-4.4.7-5.4 1.5s-2.2 1.2-2.7 1q-.7-.4-1.4.5c-.3.5-2.7 1-5.2 1h-4.5l.6 3.1c.8 3.9-.9 5.6-6 6.1-3.1.2-3.8 0-3.5-1.2l.9-5c.5-4.3 2.8-7 5.9-7 1.2 0 2.3-.5 2.3-1.1q.1-1.2 1.8-2.5c1.6-1.3 1.6-1.5 0-2.8-1-.7-1.8-2-1.8-2.8s-.5-1.9-1.1-2.5q-1.1-1 .5-2.6 1.5-1.5 1.6-2.6c.1-1.1.6-1.1 1.3-1.1q2.1 0 6.8 6.2c2.2 3 3.9 3.6 3.9 1.5-.1-1.8-4-5.9-9-9.4-2.5-1.7-7.2-5.5-10.5-8.5a106 106 0 0 0-24.6-15.8c-2.7 0-4.4 1.7-3.2 3.2.6.7 1.3 3.1 1.5 5.3.2 3-.1 4-1.2 4q-1.5 0-1.8-3.9l-.3-3.8-5.1.6a25 25 0 0 0-7.2 1.9c-1.2.6-2.5 1-3 .9q-.9-.2-1.7.9c-.7 1.2-6.9 3.9-9.9 4.3-.9.1-2.7 1-4 1.9-1.4.9-3.2 1.7-4.1 1.7-1.7 0-10.7 5.8-19.2 12.3a25 25 0 0 1-15.9 5.7q-6.9 0-6.8-8.7c0-3.8-.3-4.3-2.7-4.9q-2.7-.8-6.4 1.4a16 16 0 0 1-5.8 2.2c-1.7 0-2 .5-1.4 3 .4 2.3.2 3-1 3-2.3 0-4.7-3.9-4.7-7.7 0-2.9.4-3.3 3.6-3.9 3.1-.6 3.8-1.3 5.9-6 1.3-3 2.8-5.4 3.4-5.4 1 0 9.4-6.8 9.9-8 .6-1.6-10.6-2.3-13.9-1-4 1.7-5.6.2-6.8-6.3-1-5.3-3.4-8.7-6.3-8.7-1 0-2.9-1.2-4.2-2.6-2-2.4-3.2-2.7-9.9-3.2-4.7-.3-8.1-1-8.8-1.8-1.5-1.8-.5-2.1 8.9-3.2 5.5-.6 8-.5 9.9.5 1.4.7 3 1.3 3.7 1.3.6 0 2.2 1.8 3.6 4 2.4 3.8 2.7 4 7.7 4q5 0 6.7 1.5c1.7 1.7 6.4 1.1 8.1-1 1.8-2.1 21.6-6.9 28.7-6.9 2 0 3.5-.4 3.2-.8s0-1.6.6-2.7c.9-1.8.6-2-2.2-2.3-5-.5-4.6-3 .7-5.1 2.5-1.1 4.5-2.3 4.5-2.9q.1-.8 1.8-.4c2.4.8 4.6-.9 3.9-2.8q-.6-1.6-4.6-1.6c-3 0-4.3-.5-5.1-1.9-1.7-3.3-1.1-5.4 2.8-10 3.5-4.1 3.8-4.8 2.8-7.3q-1-2.8-3.3-2.8c-2.4 0-2.7-.9-1.7-4.8.6-1.9 1.3-2.2 6.1-2.2 5.9 0 9.3-1.3 9.3-3.4 0-2.9-10.3-3.5-13.7-.8a16 16 0 0 0-3.7 5.5c-.8 2-2.2 4-3 4.3s-5.4-.4-10.3-1.6c-12.5-3.1-14.4-5-6.9-6.9q4.5-1.2 7.2-.1c3.1 1.2 2.8 1.4 4.1-2.5.9-2.9 1.2-3 8.9-3.8 11.3-1.1 15.3-1 16.8.2.7.6 2 .9 2.8.6q1.6-1 2.2 3.4c.7 4.4 4.7 8.1 8.6 8.1 1.8 0 2.1-.4 1.7-2.2-.4-1.2-.2-2.7.3-3.3q.9-1.2-.3-5c-.9-3.1-.9-3.9.2-4.3.7-.2 2.7-1.8 4.5-3.6 1.8-1.7 4-3.6 4.9-4.1 1.3-.8 1.6-2.8 1.7-9.5.1-4.7-.2-10.5-.5-12.8q-.7-4.3.4-5.5c.6-.6 1.1-1.9 1.1-2.9s.7-2.1 1.6-2.6c1.3-.7 1.4-1.3.5-3-.6-1.1-1.1-3.7-1.1-5.7s-.5-4.6-1.1-5.8c-.7-1.1-2-5.4-3-9.4s-2.8-9.1-3.9-11.3c-1.9-3.7-2-4.6-.9-10.3 1.2-6.3 4.3-11.1 8.1-12.3 1-.3 3-2.8 4.3-5.5q2.6-4.8 4.4-4.9 4 .2 4.9-7.7c.6-4.1 1.1-4.9 3.7-5.8 3.6-1.2 4.4-2.1 3.8-4.5-.4-1.4.4-1.8 3.6-2.3 5.6-.7 7.8 0 8.5 2.9.7 2.5 2.5 3.1 4.2 1.4q1-1 3.4 1.2l2.5 2.3-2.3.3c-1.2.2-2.2 1-2.2 1.8s-1.6 3.1-3.5 5.3c-4 4.4-4.2 5.1-1.6 5.1q1.8 0 2.5 3.2c.9 4.5-2.1 6.2-5.9 3.4-1.6-1.2-1.7-1.6-.6-3 2.3-2.8-2.8-2-5.5.9-1.3 1.4-3.3 2.6-4.6 2.7l-3.8.2c-2.3.2-2.4 3.3-.1 4.1q2 .6 2.7 4c.9 4.9 2.4 5.8 7.4 4.5 2.2-.6 4.3-1.7 4.6-2.5 1-2.5 4.3-2.7 7.9-.5 1.9 1.2 3.9 1.9 4.5 1.5 1.8-1.1 2.8.5 2.1 3.3-.5 2-1.5 2.8-3.7 3.2q-2.7.5-3.2 2.3a41 41 0 0 0 6.3 14.7c2.2 0 6.6-3.5 7.1-5.6a25 25 0 0 0-2.1-14.1q-3-4.3 2.9-11.8c1.8-2.2 3.9-5.2 4.8-6.6 3.1-5 14.8-4.1 14.8 1 0 1.1-1.4 3.3-3.1 5-3.4 3.4-3.3 5.5.5 10.3l3.9 5.3q1.9 2.7 4.4 2.3c2.2-.2 2.9-1.2 4.4-5.8 1-3 1.9-8.4 1.9-12 0-5.8.4-7 3-10.2 1.7-2.1 4.3-4.3 5.7-5s3.8-3.8 5.8-7.5c1.7-3.5 4.3-7.5 5.8-9l7-8.5 4.4-5.8.7-12.6c.8-13.6 1.6-17.1 4.3-18.1 5-1.8 3-6.7-5.6-13.7-5.6-4.6-7-6.3-8.2-10.3-1.3-4.4-1.9-5-7.4-7.7l-6-2.9-6.5 1.7c-3.6.9-9 1.6-12 1.6s-9.5 1.1-14.3 2.5c-10.7 2.9-17.2 3.3-21.2 1.3a28 28 0 0 0-7.5-2.1c-3.8-.5-5.2-1.3-9.4-5.9-6-6.6-8.6-10.6-8.6-13.5 0-2.6-3.6-6.3-6.2-6.3q-1.8 0-1.8 2.3c0 1.3-1.8 4.3-4 6.7s-4 4.9-4 5.5-1.1 2-2.5 3.3a11 11 0 0 0-2.8 6q-.4 4.1-.5-2.1c-.1-3.1.2-5.7.8-5.7.5 0 1.3-1.6 1.9-3.5 1.1-4 12.1-15.2 15.8-16.1 3.4-.9 6.6-6.7 5.8-10.4-.4-1.7-.2-3.6.3-4.3q.9-1.3-.6-6.5-2.5-9.6-9.7-5.9-3 1.4-5.3.6-3.8-1.4-10.3 3.2c-2.8 2-2.8 2-4.5.1-5.6-6.6-6.4-7.2-9.6-7.2-2.7 0-3.7.6-5.1 3-2.5 4.2-5 5.3-8.3 3.8-2.3-1.1-2.8-1-4 .7-.8 1-1.4 2.5-1.4 3.2s-.8 1.3-1.7 1.3c-2.7 0-8 3.6-8.7 5.8-.6 1.8-1.8 2.1-10.7 2.4-7.4.2-10.2.7-10.9 1.8q-.9 1.3-1.6.7c-1.5-1.5 1.3-2.7 9.9-4 7.5-1.2 9.3-1.9 12.1-4.6 1.7-1.7 4-3.1 5-3.1 1.1 0 3.5-1.6 5.4-3.6 3.1-3.2 3.9-3.5 7.3-3s4 .3 5.9-2.4c1.8-2.5 2.8-3 6.4-3 2.3 0 5.1.7 6.2 1.5 2.8 2.1 4.6 1.8 7-1.2 1.9-2.4 2.5-2.6 4.5-1.6 1.3.6 4.4 1.4 6.9 1.7s6 .8 7.8 1.2c2.9.6 3.2.5 3.2-1.9 0-1.4-1.1-4.2-2.4-6.2-3.9-5.7-6.5-15-8.1-28.9-1.9-16.1-1.4-36.6 1-40.2.9-1.4 1.3-3.3 1-4.3q-.5-1.9 1-2.5c.8-.3 1.5-1.7 1.5-3.1 0-2.4-.2-2.5-6.5-2.5-3.6 0-8.1-.6-9.9-1.4a69 69 0 0 1-15.6-10.5c0-.4-3.2-3.3-7.1-6.5s-7.8-7.4-8.7-9.2c-2.1-4.6-6.3-4.7-10.9-.2-1.8 1.7-3.5 2.9-3.8 2.6-1.2-1.1.9-4 5-6.8 4.7-3.3 4.8-3.2 11.9 3.4 2.1 2 5.5 4.5 7.5 5.5 2 1.1 5.5 3.9 7.7 6.3 12.7 13.2 18 16.7 23.1 15.2a46 46 0 0 1 8.7-.8l5.9-.1 3.3-10A67 67 0 0 0 513 230c0-4.2 6.9-26.9 10.2-33.3 3.3-6.7 9.6-14.7 11.4-14.7.6 0 2.8-1.8 4.8-4 3.3-3.7 3.6-4.5 3.6-10 0-3.3-1.3-14.5-3-25-2.1-13.9-2.7-19.7-2-21.6.6-1.4 1-4 1-5.9 0-3.3.8-5.8 3.4-10.3 1.5-2.7.4-8.8-1.9-10.7-.7-.5-2.1-2.5-3.1-4.4-1.1-1.9-4-6.4-6.6-9.9C523 69.7 520 59.5 522 50.8c1.3-5.3 7.9-16 16.4-26.3 2.3-2.8 5.7-7.1 7.6-9.7s4.6-5.2 6-5.7 3.9-2.2 5.5-3.6c2.9-2.5 2.9-2.6 1.1-4-2.7-2-7.2-1.8-12.2.4m-59.8 413.7q-.6 1.3-1.7 1.4t-.5-3.8q2-10.4 2.4-3.3c.2 2.4.1 5-.2 5.7m157.7-272.5c-3.5 1.6-5.2 1.8-9.7 1.1-4.8-.8-5.5-.7-5.9.9q-.3 1.7-5.3 2.4c-11.3 1.4-14.6 2.7-17.1 7q-5.8 9.7-4.8 12.4c.7 2.4 5.4 4.6 6.9 3.1.5-.5 1.7-1 2.6-1 2.1 0 8 6.1 8 8.3s.6 2.2 8.7-1.8c8.5-4.2 12.3-8.6 12.3-14.2 0-2.2-.5-4.4-1.2-5.1-1.8-1.8-.1-2.9 7.1-4.7 6-1.6 7.5-1.6 11.2 0q1.8 1 2.8-2.8c1.6-4.9.7-6.3-4.6-7.1-5.9-.8-6.1-.8-11 1.5m-19.5 36.5c-3.1 1.6-2.8 4.4.4 4.4 4.6 0 7.8-4 4.2-5.4-1.9-.7-1.3-.8-4.6 1m217.7 354.8c-7.3 2.3-12.1 5.6-35.5 24.1-15.1 12-23 17.3-30.8 20.6-5.2 2.1-6 2.8-4.4 3.3 1.1.4 2.6 2 3.2 3.7a7.6 7.6 0 0 0 8.9 4.4c1.3-.3 5.7-2.2 9.8-4.1a28 28 0 0 1 9-3.2c1.6.3 5 9.5 7.4 20.1.7 3.2 1.6 6 2.1 6.3 1.4.9.9 5.4-.7 6-2.1.8-1.9 2.5 1.5 12.3 1.6 4.7 3.4 11.1 3.9 14.1s1.5 7.5 2.1 10c1.3 5.2 1.2 5.1.7 11q-.9 7.8-2.7 8c-1.4 0-2 3.1-.9 5.1 1.2 2.3.2 6.2-1.4 5.6q-1-.5-1.7-2.8c-.8-3.1-4-3.9-4-.9q.2 2.3-2.2 1.8-2.4-.2-2.6-3.2c-.3-2.7-.2-2.9 2.8-2.3 2.3.5 3.2.3 3.7-.9.7-2-1.3-3.4-5-3.4-2.4 0-2.7-.3-2.2-2.1.6-1.7.3-2-1.2-1.7q-1.8.3-1.9 2.9c-.2 4.6-1.2 5.9-4.4 5.9-2.3 0-3 .4-3 1.9 0 2.6-1 5.1-2.1 5.1-1.7 0 .5-6.6 4.3-12.4 2.1-3.2 3.8-6.7 3.8-7.7 0-2.8 1.1-4.9 2.6-4.9.8 0 1.4.9 1.4 1.9 0 2.7 2.5 3.3 4.5 1.1a8 8 0 0 1 3.9-2.2q2-.4 1.7-1.8c-.2-.8-.4-6.3-.5-12.1a36 36 0 0 0-1.3-12c-.6-.8-1.5-3.8-1.9-6.7-.5-3.9-1.2-5.6-2.8-6.4a10 10 0 0 1-2.8-2.2c-1.3-2-.8-6.6 1.1-10.4q3.5-7-2.9-7.2-2.9 0-4-1.9c-1.1-2.1-2.3-2.6-8.6-3.6l-4.1-.6-.6 3.8c-.5 3.1-.2 4.2 1.8 6.3q2.5 2.5 2.5 6.3c0 3.8.4 3.7 1.5 3.7 2.5 0 4.5 4.2 3.9 8.2-.8 4.5-4.5 8.1-10.1 9.7q-4.5 1.1-4.3 3.1c0 1-.4 2.1-.9 2.4-.5.4-1.2 4.1-1.6 8.4-1.2 15.5-6.3 31.7-8.7 28-.4-.7-.8-2.3-.8-3.4q-.2-2-1.5-2.8c-.8-.3-1.5-1.6-1.5-2.8 0-4.8-1.1-5.3-9.7-4-4.3.7-9.3 1.2-11.1 1.2-5.2 0-3.4-2.4 2.4-3.1 2.7-.4 6.2-1.2 7.7-1.8a18 18 0 0 1 5.3-1.1c3.1 0 3.4-3.5.3-4.3-1.7-.5-2-1.1-1.5-3.1.6-2.5-1.9-10.6-3.4-10.6-.4 0-3.7 1.6-7.4 3.5q-10.7 5.7-13.7 1.9c-1-1.3-1-1.7.2-2.5q1.4-.8 2.6-.9c1.2-.1 1.8-1.8 2.4-3.9q2.1-6.9 5.9-3.6c2.4 2.1 6.7 1.9 8-.4 2.6-4.9-.6-13.8-7.2-20-3.6-3.3-3.8-8.3-.6-10.5 2.9-2.1 5-2 4.6.1q-.2 1.7 2.3 2.7c4.4 1.5 5.9.3 5.9-5.1.1-5.3 1.3-7.6 4.8-8.7 1.8-.6 2.2-1.5 2.2-5.1q0-4.4-1.6-4.9c-1.9-.7-2-.6-10.1 5.2-7.6 5.7-14.3 7.6-19.1 5.6-1.9-.7-3.6-2.3-3.9-3.4-.6-2.3-.9-2.4-6.7-.8-3.6.9-5.7.9-11.7-.5-4.1-.9-9.8-1.9-12.6-2.2a49 49 0 0 1-22.7-10.3c-2.1-2-3.5-3-3.1-2.2.5.8 1.1 3 1.5 5 .4 2.9 1.3 3.9 5.2 6l7.9 4.4c1.9 1.1 6 2.1 9.9 2.3 7.8.6 14.1 2.7 17 5.8 2 2.1 2.2 3.2 1.9 10.9-.4 8.1-.5 8.6-3.8 12-2.8 2.9-4.2 3.6-7.3 3.6-2.2 0-5.7.9-7.9 2.1-3.7 1.9-4.2 1.9-5.8.5-1-.9-2.6-1.6-3.6-1.6-1.7 0-1.7.1 0 2 2.3 2.5 3.2 14.3 1.5 19.4a10 10 0 0 1-9.3 6.6c-1.2 0-2.8.5-3.5 1.2s-1.2.8-1.2.3-.9.5-2 2.3c-1.8 2.9-2.5 3.3-4.8 2.8-1.5-.4-3.4-1.6-4.4-2.6-2.1-2.6-2.5-2.5-3.2.5-.8 3.2-3.4 3.2-4.6.1-1.6-4.4-12.7-4.8-16.5-.6-2.2 2.4-5.6 2.5-15.5.4a51 51 0 0 0-22 .1q-.9.8 1.4 2.6c1.8 1.4 4 1.9 8.6 1.9 6.4 0 10 1.2 10 3.3s9.2 10.4 13.3 12.1 4.7 3 1.6 4.7c-2.3 1.2-4.4 1-16.9-1.6-9.3-1.9-9-1.9-9 .4 0 2.7 1.5 3.4 8.3 4.2 9 1.1 23.7 9.2 26.6 14.7 2 3.8 4.1 12.1 4.1 16.3 0 4.6-1.7 6-7.4 6.2-3.6.2-4.6.6-4.6 1.9 0 .9-.3 2.3-.6 3.2q-.6 1.6 2.2 2.6c2.3.9 3.1.8 4.1-.5.6-.9.9-2.4.6-3.2s1.7.9 4.4 3.9c3.1 3.3 5.3 6.6 5.8 8.8.4 1.9 1.6 5.2 2.7 7.3 1.4 2.9 1.7 4.9 1.3 8.2-.4 2.6-.2 5.7.5 7.8.7 1.8 1 4.5.7 5.8-.7 2.8-7.8 6.9-12 6.9-7.2 0-9.3 6-3.6 10a13 13 0 0 1 3.9 4.5c.8 2.1 8.9 8.1 14.5 10.7 2.6 1.1 2.7 1.5 2.2 6-.3 2.6 0 7 .7 9.7.8 3.1.9 5.4.3 6-1.4 1.4 1 5 4.1 5.7 1.5.4 3.2 1 3.7 1.5a71 71 0 0 0 22.5 3q12.5 0 14.4-2.9c.7-1.1 4.4-.5 6.3 1.1.7.5 3.6 1.1 6.5 1.2 6.4.4 14.3 3.6 15.8 6.4 1.1 2.1 5 3 5 1.2 0-2.1-1.3-4.1-2.6-4.1q-1.3 0-1.4-.5c0-1.6 3.1-6.3 4.5-6.9 2.7-1 7.3-.7 8.1.5q.7 1.2-1.8.6c-2.1-.6-2.6-.2-3.6 2.6-1.6 4.5-1.6 4.7 1.3 4.7 1.4 0 2.5-.5 2.5-1q.1-1 1.5-1c2.1 0 1.9 1.3-.5 2.8-2.3 1.4-2.6 3.5-.7 5a20 20 0 0 0 7.2 1.5q9.5.8 9.5 2.7 0 3.8-3.8 3.2-2.8-.3-5.1 1.7-4 3.4-4.1 1.2c0-2.2-3.1-1.9-4.2.4-1 2.1-.7 3 2.4 6.7 1.9 2.4 4 5.3 4.7 6.5.6 1.3 1.9 2.3 2.8 2.3q1.9.2.3-1.5c-2.7-3.2 1-1.3 5.4 2.8 5.4 5 6.5 9.3 1.8 6.8-9.5-5-28.7-11.6-31.8-10.9q-2 .5 2.6 1.7c2.5.7 5.2 1.9 6 2.6s4.1 2.2 7.2 3.3c9.5 3.5 16.7 8.1 19.4 12.4 1.4 2.2 3.8 4.4 5.5 5q3 .9 2.9 3.3c0 1.3.6 2.5 1.3 2.8q1.3.5 1.2-2.2c0-2.1.5-2.7 2.9-2.9q6.8-1 9.1 3.8c1.8 3.4 9 7 14.1 7 2.5 0 4.5-1 7.4-3.6l4-3.6v5.7l2.6-3.2q4.2-5.6 7.7-1.5c2.2 2.4 2.1 3.2-.2 3.2-1.1 0-3.2 1-4.7 2.3-2.2 1.9-2.6 2.9-2 5q.8 2.5 2.4 2.8 1.5 0-1 1.1c-2.3.8-2.8 1.6-2.8 4.3q0 3.1-1.5 3.9c-3 1.1-1.4 2.6 2.8 2.6q4.3 0 2.8.9c-1.2.8-1.3 1.4-.3 3.6 1.2 2.6 1.6 2.7 6.7 2.3 2.9-.3 6.1-1.1 7-1.8.9-.8 4.5-5.3 8.1-10 4.8-6.5 7.7-9.4 11.5-11.4 4.7-2.6 5.6-2.8 12.7-2.1 4.7.4 9.8 1.6 13.1 3.1 6.6 3 12.6 3.2 14.1.5q2.5-4.8-1.7-13.1c-2.3-4.4-3.4-5.6-6.2-6.3-1.8-.4-4.4-1.5-5.7-2.4a50 50 0 0 0-16.2-2.5l-13.7-.9-4-4.5-4-4.5-2.4 2.5c-2.7 2.9-2.2 4.1 2.5 6.1 2.7 1.1 3.4 1.9 3.4 4.2 0 1.6-.5 3.4-1 3.9q-1.2 1 .1 3.8c1.4 3.1 1.8 2.8-5 4.8-4.7 1.5-5.7 1.5-8.1.3-4-2.1-6.2-4.5-5.6-6.2.3-.8-.5-4.1-1.9-7.3a34 34 0 0 1-2.5-7.5q-.1-1.4-1.4-1.5c-2.4 0-3.5-6-1.7-8.9q.7-1.5 2.8-.2c2.6 1.3 5.3-1.3 5.3-5.2 0-1.5.5-2.7 1-2.7q1-.1 1-1.8c0-3.9-8.7-8.6-11.5-6.2-2.2 1.8-13.5.3-14.2-1.9-.4-.9-1.2-2-2-2.4-1.7-1.1-1.6-3.8.3-6.5 1.2-1.8 2.5-2.2 6.4-2.2h5l-1.6 4.1c-2.1 5.2-1 8.1 2.5 6.8 2.2-.9 2.3-1.3 1.6-6.5l-.7-5.6 7.7-7.4c4.2-4.1 8.4-7.4 9.3-7.4s3.6-1.1 5.9-2.4c3.9-2.3 5-2.4 13.3-1.9 7.6.5 9 .4 9-.9 0-2.1 3.2-4.8 5.7-4.8 1.1 0 2.8-1 3.9-2.1a12 12 0 0 1 4.2-3c3-1.1 4.4-5.1 3.1-8.6-.5-1.4-.7-4.5-.4-6.7.8-5.4-.4-8.4-7-16.5-5.7-7-9.4-9.1-16.3-9.1-1.7 0-3.3-.4-3.6-.9a17 17 0 0 0-5-2.1c-2.5-.7-6.3-2.8-8.5-4.6-3.4-3-4-4-4.3-8.6a59 59 0 0 1 8.1-27.7 58 58 0 0 1 16.3-14.1c.5 0 2.9-1.9 5.3-4.1 4.3-3.9 4.8-4.1 9.5-3.7 2.8.3 5.8 1.2 6.8 2.2 1 .9 3 1.6 4.5 1.6 2.4 0 2.6-.4 2.5-3.4-.2-4.7 2.5-8.6 5.9-8.6h2.7l-2.8 2.9q-2.8 3-2.8 6.3c0 4.5 2.6 10.5 4.9 11.2 1 .3 2.3 1.6 2.8 2.8 1.5 3.4 8.2 2.9 11.1-.8 1.2-1.4 3.9-3.4 6.1-4.4 3.4-1.5 4.1-2.3 4.6-5.6 1.1-6.5.8-8-2.3-11-2.2-2.2-3-3.8-3-6.6 0-5.1-4.2-12.8-6.2-11.7-3.7 2.1-6.3-8.9-3.8-15.7 1.4-3.6 1.5-11.8.1-18.5l-2.2-11.9c-.6-3.5-3-10.6-5.4-15.6-4.1-8.7-4.3-9.6-3.8-16.1.8-9.5 4.7-17.7 10.6-22.3 4.6-3.6 5.7-5.4 5.7-10.2 0-2-1.5-4-6.4-8.3-6.6-5.8-11.3-7.8-27.9-12-3.8-1-8.1-2.8-9.6-4.1-1.6-1.3-4-2.8-5.5-3.4-4.4-1.6-13.5-1-21.1 1.4"/><path d="M541.7 576.2c-3.7 3.6-3.8 3.9-3.5 10l.3 6.3 3.5.5c1.9.3 5 1.6 6.8 2.9 3.7 2.8 4 5.1 1.7 12.8-1.2 4.2-2.1 5.4-5 6.7-6.6 3.2-8.1 10.5-4.7 24.3l1.7 7.3 5.3.2 6.9.2c2.5.1 5.8-11.8 4.3-16.1-.9-2.7-.8-3.9 1.1-7.5 1.2-2.4 3.5-5.9 5-7.9q5.7-7.3 0-6.3c-3.5.7-8.6-1.8-9.4-4.4q-1-3.6 3.1-4.6c3.3-1.1 2.7-2.3-2.5-4.8-5.9-2.8-8.9-7.8-10-16.8l-.9-6.5zm96.3 24.2c0 .8 1.8 2.8 3.9 4.6 2.2 1.7 4.3 4 4.6 5q.8 1.8 1.8 2c.7 0 3.9 1.4 7.1 3s6.3 2.7 6.8 2.4c1.4-.9.9-2.2-1.2-2.9-1.2-.4-4.2-2.6-6.8-5.1l-7.9-7.4c-3.4-3.1-8.3-4.1-8.3-1.6m-139.1 43.5c-1.9 3.5-2.7 4-6.2 4.3-3.9.3-7 2.8-5.4 4.5.5.4 2.8.8 5.2.8s4.7.3 5.1.7c1.9 2 4.1.6 5.2-3.1 1.5-4.9 1.5-7.2-.2-9.4-1.3-1.7-1.6-1.5-3.7 2.2M176.7 824c-2.7 2.1-3.7 5.4-4.2 13.3l-1 12.2c-.7 7.5-.6 8.4 1.9 13.3 1.5 2.9 3.3 5.5 4.2 5.9 1.9.7 7.4-1.6 7.4-3.1 0-.6.9-1.9 2-2.9 2.1-1.8 2.7-6.1 1-7.2-.6-.4-.7-2.3-.4-4.4.4-2.2.1-4.8-.6-6-.9-1.8-.9-2.6.3-3.9 2.5-2.9 5.8-11.6 5.3-13.7-.4-1.5-2.1-2.6-6.1-3.8-6.9-2.1-6.7-2.1-9.8.3m432.2 16.8a31 31 0 0 0-3.8 7.5c-.7 2-1.7 3.9-2.2 4.2s-.9 2.7-.9 5.2c0 3.4-1.1 6.8-4.3 13.2a91 91 0 0 0-5.6 13.3c-1 3.6-2.2 5.3-5.2 7.2a20 20 0 0 1-4.8 2.6c-.8 0-3.6 3-9.1 10.1-3.1 4-7 11.5-7 13.5q0 1.4 3 1.4t3.7 1.7 1.7 2.5c1.4.9-1.2 3.8-3.5 3.8-1 0-2.1-.5-2.4-1-1.4-2.2-3.3-.8-3.9 2.7-.4 2.1-1.2 5.3-1.8 7.2-1 3.3-1.1 3.3-5.4 2.7-2.6-.3-4.4-.2-4.4.4 0 1 .7 1.7 6.3 6.8 4.2 3.7 6 10.8 5.1 20.2l-.7 8h4q4 0 5.8-2c2-2.3 7.5-18 7.5-21.7 0-2.5 3.4-11.3 7.9-20.3q2.8-5.6 3.9-14a46 46 0 0 1 8.8-23.3q3.5-4.9 4.6-10.6c.5-3.1 2.1-9 3.4-13.1s2.4-8.9 2.4-10.7.9-5.3 2-7.9c1.6-3.7 1.9-5.6 1.2-8.8q-1.4-7.9-6.3-.8M713.5 892c-1.7 1.9-1.7 2.1-.2 3.3 1 .6 2.8 3 4.1 5.2l2.4 4 .7-2.8c.4-1.5 1.9-3.7 3.4-4.8l2.6-2.1-2.8-2.4c-3.4-2.9-7.8-3.1-10.2-.4M481 897.9c0 1.4 6 10.1 7 10.1q.9.1 1 1.8c0 3 8 13.2 11.8 15a9 9 0 0 1 4.6 4.9c1 2.7 14.2 16.2 15 15.2l2.4-3.5c1.9-2.7 2.9-3.2 8.2-3.7 7.2-.8 8-1.2 8-3.8 0-2.7-9.3-11.9-12.1-11.9h-2.2l2.3 2.5c1.9 2.1 2.1 2.5.7 2.5q-1.5 0-1.7 1c0 2.5-3 .7-4-2.4-.6-1.9-1.7-3.7-2.5-4s-1.5-1.2-1.5-1.9c0-.8-.9-2.2-1.9-3.1-1.9-1.7-1.9-1.7-1.4.3.3 1.1.3 2.8-.1 3.7-.5 1.4-.9 1.3-3.5-.5a11 11 0 0 0-4.4-2.1q-1.5-.1-2.1-1.8c-.3-.9-2.4-2.7-4.6-4q-3.9-2.2-4-4.2 0-2-1.9-2c-1.9 0-8.1-5.3-8.1-7 0-.4-1.1-1-2.5-1.2-1.4-.3-2.5-.2-2.5.1m215.4 2q-.7 2.7-1.4 2.6a15 15 0 0 0-4-.9c-2.9-.3-3.1-.2-2.5 2.1.5 2.1 6.1 8.3 7.5 8.2.3 0 1.4-1.4 2.5-3.2 1.6-2.5 2.8-3.3 5.8-3.5 2.8-.2 3.7-.8 3.7-2.1 0-2.5-3.6-5.5-5.5-4.7-.9.3-2.5.1-3.6-.4-1.7-1-2-.7-2.5 1.9"/><path d="M756.8 899.1c-1 .5-1.8 2.1-1.8 3.4 0 1.4-.6 2.5-1.3 2.5s-2.2.9-3.1 1.9c-1.7 1.9-1.7 2 2.1 2.3l3.8.3v6.1c0 3.4.6 6.7 1.2 7.6q2.7 2.9-3.4 2.8c-3.5 0-9.2-3.7-13.9-9-1.7-1.9-2.5-2.2-3.4-1.4q-1.2 1.2-.2 3c.5 1.1 1.2 4.2 1.6 7 .6 4.7.5 5.1-1.9 6.2a14 14 0 0 1-7 .5q-8-1.1-3.9 5.3l1.8 2.7-7.4-.7a28 28 0 0 1-8-1.5c-.3-.5-1.5-1.2-2.8-1.6-1.8-.5-2.2-1.3-2-3.3.3-2.3-.1-2.7-2.6-3-1.6-.2-3.8-1.3-5-2.4a22 22 0 0 0-5.2-3.4c-3.9-1.6-5.5-3.6-6.3-7.6-.5-2.3-1.7-3.7-4.6-5.3-2.2-1.3-5-3.8-6.3-5.6-2.8-4-4.9-4.7-16.3-5.4-7.7-.4-8.9-.3-11.3 1.6-1.4 1.1-2.6 1.6-2.6 1s-.7-.8-1.5-.5q-1.3.7-1.5 2 0 1.4-3.4 1.4c-2.6 0-4.5 1-8.5 4.6-4.8 4.3-5.1 4.9-5.1 9.3 0 5 2 8.1 5.2 8.1q1.6 0 1.1 1.9-.6 2 2.2 2.5c2.1.5 2.5 1.1 2 2.7-.9 2.6 1.2 5.1 3.6 4.4 2.6-.8 2.5 1.7-.1 4-1.7 1.5-2.2 1.6-3.6.4-1.5-1.2-1.6-1.1-1 1.9s.6 3.2-1.8 3.2q-2.6 0-2.6-1.5c0-1.7-3.8-3.5-7.2-3.5-1.8 0-1.9.2-.7 1.6s1 1.8-.6 3c-1 .8-2.4 1.4-3.1 1.4-1.4 0-3.6-7.8-2.3-8.6 1.7-1 .9-3.4-1.1-3.4-3.4 0-2.5 5.8 2.2 15 5 9.6 7.3 11.2 22.5 15.9 5.6 1.7 13.5 4.7 17.5 6.6s8 3.5 9 3.5 2.5 1.1 3.4 2.6c.9 1.4 2.9 3.1 4.5 3.9 1.5.8 3.7 3 4.9 4.9 1.2 2.1 4.5 4.9 7.8 6.7 3.1 1.8 7.4 4.7 9.5 6.6s4.1 3.3 4.6 3.3 2.5 1.3 4.6 3c2.7 2.1 4.8 3 7.4 2.9h3.6l-4.7-1.5c-7.3-2.2-6.1-7 2.7-10.9 2.9-1.3 5.5-2.7 5.6-3.2.2-.4 2.2-1.7 4.4-2.8 3.1-1.5 5.2-1.9 9.2-1.5 2.9.3 5.4.2 5.6-.3s2.9-.3 6.2.3l10 1.9c2.2.4 5 1.4 6.2 2.1 1.9 1.2 2.7 1.2 5.8-.3 2-1 3.5-2.3 3.3-2.9s.3-2.1 1.3-3.1c1-1.1 1.5-2.5 1.2-3.3s0-1.4.6-1.4c2.3 0 1-3-1.9-4.5-3.9-2-3.8-3.5.8-7.2l3.8-3 3.2 2.6 3.2 2.7-3 4.2q-3 4-3.6 8.9c-.6 4.3-.2 5.7 4 13.5 2.9 5.6 4.6 10 4.6 12.3 0 3.2.4 3.7 4.9 6 3.8 1.9 5 2.1 5.4 1.1.3-.7.1-8-.5-16.2-1.4-21.1-1.1-22.5 5.1-28.8q5.3-5.3 6.6-10a32 32 0 0 1 11.9-16.1q3.6-2 4.7-5.3 1.1-3.4 4-4.4c4.1-1.4 3.9-5.3-.6-10.2a23 23 0 0 1-4-5.5c-.9-2.9-6-5-13.6-5.7-9.6-.9-10.6-1.5-11.4-6.9-.8-5.2-2-6.4-6.9-7.2-3.1-.5-3.6-.3-3.6 1.4 0 2.5-2.2 4.5-4.2 3.8-.8-.3-2-2.1-2.7-4-1.1-3-7-8.5-9.2-8.5-.4 0-1.7 1.6-2.9 3.7l-2.1 3.6-4.2-4.1c-4.7-4.6-4.5-4.5-6.9-3.1"/><path d="M809 906c-.8.5-2.7 1-4.2 1q-3-.1-2.8 1.9c0 1.1.6 2.3 1.3 2.8 1.6 1 12 3.2 12.9 2.7 1.4-.9 2-6.5.8-7.9-1.4-1.7-5.8-1.9-8-.5"/></svg>