<svg xmlns="http://www.w3.org/2000/svg" width="1365.333" height="1365.333" viewBox="0 0 1024 1024"><path d="M258 171.5a13 13 0 0 1-8.5 2.5c-5.5 0-7.3 1.3-12.4 8.8a25 25 0 0 1-14.5 8.3c-3.3.6-4.5.3-7-1.6-6.4-4.7-14.2-4-14.8 1.3q-.2 2.8-3.9 4.6l-3.5 1.9-13-3.3c-7.1-1.8-15.4-3.5-18.4-3.9s-7.7-1.9-10.5-3.3-9.7-4.5-15.4-6.8c-11.4-4.7-12.5-4.8-36.1-3.2-8.4.6-9.5.9-9.9 2.7-.7 3.7-6.1 5.1-6.1 1.6q0-4.2-3.8-1.5a5 5 0 0 0-2.2 4.5c0 4.1-1.2 6.1-8.1 13.1-5.3 5.4-6.3 6-8.9 5.4-2.4-.4-3.3-.1-4.5 1.7-.8 1.2-3.7 4-6.5 6.1-3.9 3-5 4.4-5 6.7 0 2.6.2 2.8 2.6 1.9q6.3-2.6 8.8 4.5c1.5 3.8 1.5 4.7.3 7.8-.8 1.9-2.5 4.1-3.7 5-1.9 1.3-2.1 2.1-1.5 5.4.3 2.1 1.8 5 3.2 6.5 2.6 2.7 2.6 2.8 1 6.8-1.1 3-1.3 4.9-.6 7.3.5 1.7.9 5.2.9 7.6 0 3.3.6 4.9 2.6 7 1.4 1.4 4.2 4.8 6.1 7.5 3.3 4.5 3.6 5.6 4 13.5.2 5 1.1 9.9 2 11.8 1.3 2.7 1.4 4.1.4 8.9a82 82 0 0 0-1.1 12.6c0 6.8 0 6.8-2.5 6.2-1.9-.5-3.8.4-8.7 4a25 25 0 0 1-8.5 4.6c-2.8 0-2.8-.5-.1 8.6 1.8 6.4 2.5 7.5 4.7 8.1 1.4.3 5.3 2.9 8.6 5.8 9.6 8.3 13.4 10.5 18.2 10.5H86v4q0 3.9-1.7 4.8c-1.2.7-1.5 1.8-1 4.7q.6 3.8-1 6.9c-.9 1.7-1.9 4.4-2.3 6.1-.5 2.4-1.3 3.2-4.7 4.1q-9.3 2.7-9.3 7.3c0 6.6-14.1 22.6-24.7 27.9a19 19 0 0 0-4.8 3.2c-.3.5-.3 3.2.1 5.9l.6 4.9 4.7.9c4.5.8 4.6.9 6.1 6 1.2 4.4 1.9 5.3 4.3 5.9 2.4.5 3.6 2.1 7.5 10l4.7 9.4-2.2 13.1c-1.3 7.1-3 14.7-4 16.7s-5.7 7.6-10.5 12.3-8.8 9-8.8 9.3l1.5 4.3c1.5 3.4 1.4 3.8-.3 5.6-2.5 2.4-12.6 3-16 .9-2.1-1.4-2.4-1.3-3.8.6-1.2 1.7-2.1 2-5.2 1.5-2-.3-4.5-1.2-5.6-1.9-1.6-1.1-2.4-.9-5.7 1.8C.4 558 0 558.8 0 563s.8 6 6.5 14.6a53 53 0 0 1 6.5 12c0 1.2-.7 4.5-1.6 7.3-1.7 5-1.7 5.1.9 8.4q2.4 3.3 7.9 5.2c4.5 1.5 6 2.6 8.3 6.3 2 3.2 4.1 4.9 7.4 6.3 2.5 1.1 5.5 3 6.6 4.4 1.1 1.3 8 5.3 15.3 8.9a137 137 0 0 1 13.2 7c0 2.2-6.9 15.2-12.8 23.8a59 59 0 0 0-7.2 13c0 1.3-.9 2.9-2 3.6-1.5.9-2 2.3-2 5.2 0 4 0 4 3.8 4 3.3 0 4 .4 5.4 3.3a51 51 0 0 1 2.8 9.2c.7 3.3 1.8 7.2 2.6 8.7 1.5 2.8 1.1 4.8-1.6 8.8-1 1.4-2.1 3.9-2.4 5.6-.7 3-.3 3.5 6.1 8.9l13.2 11.6 6.3 5.8-.6 4.8-1.2 10.4-.6 5.7 4.1 2.8c5.1 3.7 8.1 9 8.1 14.3 0 3.8-.3 4.3-3.4 5.6a8 8 0 0 0-4.4 4.5c-.6 1.7-1.8 3.3-2.7 3.6-.8.3-1.5 1.7-1.5 3 0 3.2 3.3 3.9 11.3 2.6 15.5-2.7 17.1-2.6 22.9 1.1 2.9 1.9 8 5 11.3 6.8l6 3.5.3 6.4.3 6.5 6.8 7c3.8 3.8 7.4 8 8 9.2 2.7 5.2 10.4 1.7 14.6-6.7 1.3-2.6 3.6-6.1 5-7.8 1.8-2.1 3-5.3 3.9-10.4 1.2-6.5 4.3-14.8 10.8-28.6 1.1-2.4 3.2-4.9 4.9-5.7 1.6-.9 3.7-3 4.6-4.9 1-1.8 4.7-5.7 8.3-8.7 7.4-6.3 18.8-20.7 25.1-31.8 5.6-9.8 13.3-20.5 16.1-22.4 1.3-.8 4.6-4.7 7.3-8.8l5-7.3-.1-10.6a38 38 0 0 0-8.9-27c-4.8-4.9-5.3-8-2.2-13.2 1.4-2.4 3.9-5.6 5.6-7.2 2.9-2.8 3.3-2.8 10.8-2.4 7.2.4 8.3.8 13.1 4.3 2.8 2.1 5.6 5.1 6.1 6.7 1.7 4.7 4.7 4.5 16-.9l10.1-4.8 2.1-5.5c1.1-3 3.4-7.1 5.1-8.9l3.1-3.5 1.5 2.2 1.5 2.3 3.2-3.1c3.2-3.1 3.3-3.2 5.9-1.4 2.3 1.4 3.3 1.5 6.5.5 2.1-.6 5.6-1.1 7.8-1.1 3 0 4.5-.6 6.5-2.8 5-5.4 6.1-7.9 5.4-12.6-.7-4.3-.6-4.6 2.5-6.2 2.7-1.3 5.1-1.5 12.8-1.1 13.2.7 15.2 1.6 20.1 9 3.6 5.5 4 6.7 3.4 10.3a13 13 0 0 0 .5 6.2q1.2 2-.3 3.1a33 33 0 0 0-4.4 15.1q.1 2.4 4.3 3.7a22 22 0 0 1 7 4.3c1.7 1.7 4.1 3 5.3 3q2.2 0 2.2 2 .1 3.9-11.1 2.6c-5.8-.7-5.9-.7-5.9 1.9 0 3.8 3.5 4.7 15.4 3.9a62 62 0 0 0 26.1-6.2c4.5-2.3 6.6-2.6 22-3.2 12.9-.6 18.6-.4 23.7.6 5.9 1.2 7.9 1.2 19.1-.5a72 72 0 0 0 14.6-3.3c1.2-.7 2.6-2.7 3.2-4.5s1.9-3.9 2.9-4.6 3.5-3.7 5.5-6.7 5.2-6.9 7.1-8.7c2.7-2.6 3.4-4 3.4-7 0-4.3.8-5.6 9.1-15.9 5.5-6.8 6.1-7.2 10.6-7.6 6-.6 15.2-4.3 24.4-9.9 9.5-5.7 14.3-6.4 22.6-3.3 3.8 1.5 8.5 2.4 11.8 2.4 9.7 0 25.9 2.1 27.6 3.6.9.8 1.9 3.3 2.3 5.4.5 3.5 1 4 3.2 4 1.4 0 3.4.5 4.6 1.1s3.5.8 5.3.5c3.1-.6 3.3-.9 4-6.1.6-4.9.9-5.4 3.5-6 5-1.1 9.9.4 11.5 3.6a13 13 0 0 1 1.5 4.3c0 .9 1.9 2.5 4.1 3.7l4.2 2.1 10.6-3a89 89 0 0 1 28-3.6l17.3-.6 3.4-2.9c4-3.5 7.5-4.3 27.9-5.7l9-.6 1.8 3c2 3.5 5.7 4.9 20.9 8.1 12.8 2.7 36.9 3 42.2.5 3.3-1.6 3.8-1.6 11.9 1 4.7 1.4 9.9 2.6 11.6 2.6s4.8 1.1 6.9 2.4c2 1.4 5.5 3.2 7.7 4.1a59 59 0 0 1 19.4 24.3c.7 2.6 2.3 5.8 3.6 7.2s2.8 4.4 3.4 6.7c2.1 7.8 2.9 8.1 16.6 7.4 6.7-.4 12.6-1.1 13.3-1.5s1.2-3.2 1.2-7.2c0-5.7.5-7.5 5-16.5l5.1-10-.7-8.9-.7-8.9 3.7-.6c2.6-.5 4.3-.3 6.1.9a72 72 0 0 0 23.7 5.6c3.6 0 5.4-.6 7.8-2.6 4.9-4.2 6.3-7.7 5.5-14.5-.8-6.5-.1-7.9 8.6-17.4a17 17 0 0 0 4.4-8.2c.3-2.3 1.3-4.7 2.1-5.4.8-.6 1.4-2.2 1.4-3.4s.9-3.3 1.9-4.7c1.1-1.3 2.2-4 2.6-6 .6-2.9 1.2-3.7 3.4-4.1 3.5-.7 5.6-5.2 4.6-9.9-2.1-10.3-2.2-10.5-8.7-13.7-3.4-1.7-6.8-3.1-7.6-3.1s-6.2-4.6-12.1-10.3a75 75 0 0 0-18-14.1c-4-2.1-9.8-5.6-12.8-7.7s-7.1-4.3-9.2-5c-5-1.6-6.1-2.7-6.1-5.9 0-2.1-.7-3-3-4-1.7-.7-3.3-2.2-3.6-3.5s-3.4-4.5-6.7-7.1c-3.4-2.7-9.8-8-14.2-11.9s-9.3-8.1-11-9.2a72 72 0 0 0-19.5-6.8c-6.1-1.1-6.8-1.5-8-4.4-.9-2.3-2-3-5.1-3.5-2.2-.4-8.2-2-13.4-3.6a51 51 0 0 0-12.2-2.8c-1.5.1-4-.6-5.5-1.6-2.6-1.7-2.7-1.7-4.9 1.3-1.8 2.5-3 3.1-6.1 3.1-3.6 0-3.7.1-3.2 3l.6 3h-5.1c-2.9 0-7.4.7-10.2 1.6s-6 1.3-7.4 1q-3.6-.9-13.3-12.1c-3.6-4.3-5.1-4.1-3.2.5 1.7 4.1.6 5.1-6.8 6.7-8.4 1.7-10 1.6-13.8-1.4-2.6-1.9-5.1-2.8-9.2-3.1s-6.4-1.1-8.2-2.7c-3.9-3.5-11.4-5.7-15.7-4.6-2.6.7-4.1.7-5.7-.3-1.1-.8-3.3-1.6-4.8-2-2.5-.6-2.7-.9-1.7-3.3.9-2.5.6-3-2.8-6-7.3-6.4-7.8-6.6-12-5.2-2.1.7-6 1.3-8.7 1.4-5.7 0-8 2.5-2.4 2.6 1.8 0 4.1.4 5 .7 1.7.7 1.6.9-.2 4l-2.1 3.3-3-2.5c-2.3-2-4.2-2.6-7.7-2.6-2.6 0-6.5-.5-8.7-1.1-3.2-.9-5.5-.8-11.6.6-7.2 1.7-8 1.7-11.8.1-2.3-.9-5.7-1.6-7.6-1.6-3.4 0-3.5-.1-3.5-3.8 0-2 .9-5.1 2-6.7 1.7-2.5 2-4.7 2-13.3V376h16.8c14.5 0 17.9.4 26.1 2.5a85 85 0 0 0 34.9 1.3c7.8-1 8.8-1 14.8 1.2 5.6 1.9 7.5 2.1 14.9 1.5 7.9-.6 8.5-.8 8.5-2.9 0-2.9 4.8-10.4 10.2-15.8 3.7-3.7 9.5-14.5 8.4-15.6-.2-.2-3.8-.6-8-.9-7-.5-7.9-.4-10.1 1.7-2.1 2-2.8 2.2-5 1.2q-6.2-3-.3-10.5c5.5-6.6 6.1-8.2 3.9-10.1-.9-.9-2.1-1.6-2.5-1.6s-3.1 2.2-5.9 4.9c-3.2 3-7.4 5.8-10.7 7.1-7.3 2.7-9.8 5-10.2 9.1-.3 3.8-3.3 5.2-5.3 2.6-2.5-3.5-18.6-8.7-32.9-10.8-17.7-2.6-24-1.8-29.7 3.7-3.6 3.5-3.8 3.6-13.5 4.1-7.7.4-10.8 1-13.9 2.8a26 26 0 0 1-21.3 2.8c-6.6-1.5-7.7-2.1-9.7-5.3a57 57 0 0 0-6.9-7.7c-5.7-5.4-10.7-13.9-9.9-17 .4-1.9-.4-3.2-4.1-6.6s-4.6-5-4.6-7.5c0-1.7-1.4-5.9-3.2-9.2-2.9-5.6-3-6.1-1.5-7.8q4.2-4.4-2.3-8.7c-3.5-2.4-4-3.3-4-6.7 0-2.1.8-5.5 1.9-7.6 1.2-2.4 2-6.7 2.3-12l.5-8.3-5.8-5.3c-6.8-6.3-13.5-9.8-18.7-9.8-2 .1-8.3.5-14 1.1-12.3 1.2-15.6 2.9-17.5 8.6-1.3 3.8-1.7 4.1-7.3 5.4a67 67 0 0 1-32.5-1.1c-5.2-1.7-8.2-2.2-9.8-1.6q-4.2 1.5-22.3-5.9l-8.8-3.6-5.1-10.2c-5.7-11.5-7.1-13.1-14.9-17-5.2-2.6-5.9-2.7-15.2-2.1-9 .6-10.2.9-15.4 4.2-5.6 3.6-5.9 3.6-12.8 3-3.9-.4-7.5-1.1-8-1.6s-2.5-1-4.3-1c-4.4 0-8.6-2.2-15.2-8.1-8-7.1-15.7-10.9-22.3-10.9h-5.3l-8.2-8.3a53 53 0 0 1-8.8-10.7c-1-3.3-2.2-4-7.2-4-3.7 0-4.4.4-5.8 3l-1.6 3-3.9-2c-5.2-2.6-9.7-2.6-10.5 0-.8 2.5-3.5 2.6-4.2.2q-.4-1.8-7.2-4c-8.2-2.7-7.8-2.7-12.1.3"/><path d="M903 672c-5.2 1.2-4.8 10.3.5 11.6 1.3.3 2.6 1.9 3.4 3.9 1 2.8 2 3.7 5.4 4.6 2.3.6 6.6 2 9.4 3.1l5.3 2 2.6-3.1 2.6-3.1h12.7c12.3 0 12.8.1 15.1 2.5 1.2 1.3 2.7 2.2 3.1 1.9.5-.3.9-3 .9-6 0-5-.2-5.6-3.1-7.3q-6.7-4.2-13.9-1.6c-6.6 2.3-11.5 2-13.7-1-1.6-2.3-2.1-2.4-5.5-1.5-3.4 1-4.7.7-13-2.8q-9.3-3.8-11.8-3.2"/></svg>