<svg xmlns="http://www.w3.org/2000/svg" width="1365.333" height="1365.333" viewBox="0 0 1024 1024"><path d="M404.3.7c-1 .3-.9 1.2.2 3.9 1.4 3.5 1.4 3.5-2.5 7.1q-7.8 6.8-.6 9.8c4.9 2.1 5.3 3.4.8 2.8-2.9-.4-4-.1-4.5 1-.3.9-1.7 3.4-3.1 5.6-2.3 3.6-2.8 4-5.1 3.1-3.1-1.2-4 .3-4.9 8a17 17 0 0 1-3 8.5l-2.3 2.9-1.2-5.2c-.6-2.9-1.7-6.5-2.5-8-1.5-2.8-6.4-7.9-6.9-7.1l-4.2 5.9c-2.1 3-6 8-8.7 11.1l-4.9 5.7-12.2.6a328 328 0 0 0-31.5 2.2c-1.3.2-4.2 2.2-6.5 4.3-8.4 7.6-10.7 8.4-21.2 7.9-6.6-.4-9.9-.1-11.6.8-1.3.7-4.1 1.3-6.1 1.4-3.1 0-4 .5-5.8 3.5-3.1 5-16.1 13.5-20.8 13.5-1 0-4.9 1.6-8.8 3.5-7.6 3.9-9.9 4.2-13.1 2-2-1.4-2.4-1.2-6.6 4.1s-4.5 6.2-5.1 13a56 56 0 0 0-.1 10.8c.7 3.2.8 3.3 4.1 2.6s3.6-.6 4.5 1.7c.5 1.3.9 2.7.9 3.1s.9 1.5 1.9 2.6c2 2.2 1.9 4.7-1 15.8-1.6 6.2.2 12.1 4.3 14.6q5.5 3.1 2.2 9.3c-1.6 3.2-1.7 3.3-2.5 1.1-.5-1.2-1.5-2.2-2.3-2.2-2.1 0-2.9 7.5-2.1 20.9.6 10.2.4 12.3-1.4 17.5a38 38 0 0 0-2.1 7.6c0 1-1.3 2.3-2.9 3q-2.8 1.2-4.6 5.1c-1.9 4.2-8.6 10.9-10.8 10.9-.8 0-2.4 2.3-3.8 5.2-2.5 5.5-7.3 10.7-9.9 10.8-.9 0-2.6.7-3.9 1.6-1.8 1.3-2.8 1.4-4.7.5-3.3-1.5-3.4-1.4-3.4.9 0 1-1.3 3.4-2.9 5.2-3.7 4.4-5.1 7.1-5.1 10.3 0 3.4-9.2 12.2-13.8 13.1-4.2.8-4.4 1.3-3.6 7.4.6 4.6.9 5 3.4 5s3.1.8 6.5 8.7c2 4.9 5.3 11.4 7.2 14.5l3.4 5.8h8c6.4 0 7.9.3 7.9 1.5s-1.7 1.5-9.4 1.5c-8.7 0-9.6-.2-11-2.2a9 9 0 0 1-1.6-4.5c0-11.2-15.2 12.1-18.9 29a77 77 0 0 1-9.8 22.7c-.5.5-14.7 1.2-21.3 1.1-2.5-.1-5.5.4-6.7 1-1.7.9-3.5 1-6.8.2-4.6-1-4.6-1-7.1 2.6-1.3 2-2.7 5.2-3 7.2-.5 2.7-1.4 4-4 5.4-1.9 1-3.4 2.2-3.4 2.6 0 .5 1 4.4 2.1 8.6 1.9 6.9 3 8.9 9.9 17.3 4.2 5.2 9.2 11.9 11 14.9l3.3 5.3-1.7 5.2c-.9 2.9-1.6 6.7-1.6 8.3q0 3.1-3.6 7.4c-3.1 3.7-3.5 4.9-3.2 8.6.2 3.5 0 4.3-1.3 4.3q-1.7 0-3.3 4.7c-2.1 6.2-2 7 1 11 1.4 1.9 3.2 5.7 3.9 8.4a29 29 0 0 0 3.9 8.3c1.4 1.9 3 5.5 3.7 8.2s1.5 5.4 2 5.9a58 58 0 0 1 2.5 8.5c1.6 7.4 1.6 7.4-.6 9.2-2 1.6-2.1 2.1-1 7.4 1.2 5.6 1.2 5.7-3.2 14.3-3.4 6.8-4.7 8.5-6.2 8.3q-2-.2-5 3c-1.8 2-5.6 4.4-8.9 5.7-5.3 2.2-5.9 2.2-7.6.7-1-.9-2.5-1.6-3.5-1.6s-2.6-.5-3.8-1.1c-5.6-3-2.3 4.5 4.3 9.7 3.7 2.9 5.2 4.9 6 7.9 1.7 6.6 1.8 6.8 4.3 6.1 1.7-.4 2.9.1 4.7 2.1 3.8 4.1 12 7.3 19 7.3 3.3 0 7 .5 8.2 1.1 3.9 2.1 23.7 21 31.5 30.1 6.3 7.5 8 8.9 11.2 9.4 4.5.7 4.8.9 8.3 5.6 1.5 2.1 3.4 3.8 4.1 3.8s3.3 1.3 5.9 3c9 5.7 14.6 2.8 10.5-5.2-1.1-2.1-2.6-3.8-3.4-3.8-1.9 0-1.8-4.4.2-6.1 1.2-1 1.9-1 3.2-.1l2.9 1.8c1.3.6 6-2.8 11.6-8.3a75 75 0 0 0 12.7-18.2c0-.9 1.3-4.1 2.9-7.1s3.2-6.9 3.5-8.7c.9-3.7 1.6-4.4 7.6-6.6 5.5-2 7-2.1 7-.4 0 2.2-4.5 5.7-7.3 5.7-2.3 0-2.8.6-3.7 4.2l-2 7.2c-2.2 6.6-.7 9.2 3.4 6.1 2.8-2.1 6.3-1.9 7.6.6q1.2 1.9 2.6 1.5c1.4-.4 1.4-.1 1.4.4 0 1.9-2.1 2.1-4.9.4-2.8-1.6-3-1.6-6 .5a18 18 0 0 0-4.7 5.4c-.9 1.8-2.3 3.9-3 4.8-2.4 2.7-.2 6.9 3.5 6.9 1.6 0 3.1.5 3.3 1 .4 1.3 13.1-3.6 15.2-5.9.8-.9 2.8-6.2 4.3-11.6 2.5-9 2.8-11.5 2.7-24.8-.1-13.5-.3-15.1-2.2-17.7-1.7-2.3-2.2-4.3-2.2-9.3 0-10.8.6-12.4 5.5-14.3q4.3-1.6 4.9-3.9.5-2.4 4.2-3 6.7-1.3 2.5 2.2a6 6 0 0 0-2.1 3.8c0 1.5-1.1 2.4-4.2 3.5-4 1.4-4.3 1.8-5.1 6.3-.6 4.1-.4 5.4 1.3 8.3 2.2 3.4 2.6 10.4 1.8 26.6-.2 4.2.2 5.2 3 8.1q3.3 3.3 3.2 6.4c0 4.8.9 6.3 3.9 6.3 4.1 0 7.1 5.5 7.1 12.9 0 7.3-1.1 10.4-5.5 15.3-3 3.2-3.5 4.5-3.5 8.6s-.5 5.3-2.8 7.4a17 17 0 0 0-4.2 7.4 43 43 0 0 1-3.2 7.9c-1 1.6-1.8 4.4-1.8 6.1s-.7 5.1-1.5 7.4-1.5 5.5-1.5 7.1-1.8 7.3-3.9 12.6l-5.4 14.8c-1 3.6-2.9 6.5-6.6 10.1-3 3-5.1 6-5.1 7.3 0 1.1-.6 2.1-1.3 2.1q-1.3 0-.9-3.9c.4-4-1.1-8.1-2.9-8.1-.5 0-1.7 1.7-2.6 3.7-.8 2.1-3 6.3-4.9 9.5-3.1 5.1-3.8 5.7-7.7 6.3l-10.9 1.7c-5.3.9-7.1.8-8.2-.2-2.2-1.8-4.6-.5-4.6 2.5 0 3.8-1.8 3-2.2-.9l-.3-3.5-2.8 3.9-2.8 3.9 3.8 2.5a27 27 0 0 0 7.6 3.1c3.1.5 3.7.9 3.1 2.3-.4.9-.9 3.4-1.2 5.5-.4 3.4-.2 3.7 2.2 3.7 2.9 0 3.2 1.8 1.7 9.9-.8 3.8-.6 4.4 1 4.8 2.5.7 3.6 6.6 2 10.9a11 11 0 0 0-.1 7.4 11 11 0 0 1-.2 7.6c-1.2 3.4-1.1 3.7 1.4 5.8 2.9 2.3 4.8 6.3 4.8 10 0 1.3.9 3.5 2 4.9l2.1 2.6-2.8 1.8c-1.5.9-4.3 3-6.1 4.5s-4.1 2.8-5.1 2.8c-1.1 0-3.2 2-5.2 4.9-4.7 6.9-7.2 7.9-11.5 4.6-1.9-1.4-3.4-3-3.4-3.6 0-1.6-7.6-1-12.3 1-3.5 1.5-4.7 2.6-5.2 5a9 9 0 0 1-2.1 4.2c-2 1.7-1.7 6.9.6 10.4a14 14 0 0 1 2 7.2c0 5.6 2.7 11.3 5.5 11.3 1.1 0 3.8-.9 5.9-2.1 2.3-1.2 5.2-1.9 7.3-1.7l3.5.3-8.7 11.5c-4.8 6.3-9.8 12.6-11.1 14-2.1 2.3-2.3 3-1.5 7.8.4 2.9 1 5.4 1.2 5.5.2.2 2.9 1.3 5.9 2.5 5.4 2.1 5.7 2.2 10.4.6 2.8-1 6.6-3.4 8.7-5.5 2.2-2.2 4.4-3.9 5-3.9s2.3-1.3 3.7-2.8c1.5-1.6 3.4-3.3 4.3-3.8s3.5-3.5 5.8-6.7q4.4-5.7 6.5-5.7c2.7 0 15.7 6.2 17.4 8.3a42 42 0 0 0 7.8 5.2c6 3.4 6.7 3.5 9.9 2.4 3.4-1.2 3.6-1.2 7 2.1 1.9 1.9 4.5 4.9 5.8 6.7s3.7 3.9 5.6 4.6c3.1 1.3 4.1 1.2 8.8-.4 2.9-1.1 6.1-1.9 7.2-1.9s2.4-.6 2.8-1.4 2.1-1.6 3.8-1.9c2.5-.4 3.7.3 8.5 4.5 6 5.5 13.1 9.3 16.1 8.5s3.4 2.9.9 7.7l-2.3 4.2 5.7 12.8c4.6 10.4 5.5 13.4 5 16.1-.6 3.2-.4 3.6 5 7 4.1 2.6 5.8 4.4 6.4 6.7.6 2.4 1.9 3.7 5 5.3 2.2 1.1 4.1 2.3 4.2 2.8 0 .4 1.1 2.5 2.5 4.6l2.6 3.8 13.7.6a59 59 0 0 1 25.5 4.7c.4 0 2.8-1.9 5.2-4.1 3.2-3 4.5-4.9 4.5-6.9 0-1.5.5-4.1 1.1-5.9 1-2.7 1.5-3.1 4.3-2.9 4.6.3 9.5-2 10.2-4.7q.6-2.2-2-4.8c-3.1-3.1-3.3-6.8-.7-12.9 3.8-8.9 21.2-21.8 29.5-21.8 4.7 0 9.6-5.5 9.6-10.8 0-3.8 3.1-10.2 5-10.2.5 0 1-1.3 1-2.8 0-2.1-.7-3-2.9-3.9s-3.2-2.1-4-4.9c-1.8-6.4-1.3-10 1.9-15.1 1.6-2.6 3-5.3 3-6s1.2-3.6 2.6-6.3 2.8-6.7 3.1-8.9q.5-4 2.7-4.9c2-.9 2.5-2.5 4-13.3 2.7-19.6 2.9-20.2 11.9-29.9 10.5-11.3 13.4-15.6 14.3-21.5.4-2.7 1.3-6.5 2.1-8.4q1.5-3.5 1.5-13.9c0-7.6.5-11.8 1.9-15.9 1-3.1 1.9-6.4 1.9-7.3 0-2.2 2-3 7-3s6.4 1.9 7 8.9c.4 4.1.9 5.7 2.1 5.9 1.9.4 12.5-7.2 13.4-9.6q.4-1.6-2.8-5.1c-8.7-9.1-7.9-11.7 6.2-20.4 6-3.6 6.1-3.8 6.1-8.2s.1-4.4 2.9-3.9c2.6.5 3 .2 5.1-4.1 2.2-4.5 4.2-6.8 14.1-16.2l6.5-6.3c10.4-10.6 2.8-7.5 106.4-43.2l95.5-33 46.3-34.8 46.3-34.9 38.3-45.8a940 940 0 0 1 40.7-46.9c2.2-1 3.5-5.4 15.3-49.5 7-26.6 13-48.6 13.2-48.8s2.4 1.5 5 3.9c4.1 3.7 4.9 4.1 7.7 3.5 4.2-1 6.3-1.1 12-.2 5.3.8 5.8 0 2.7-4.4-1.2-1.5-2.4-5.2-2.7-8.1s-1.2-6.3-2-7.4-1.3-3.7-1.3-5.5a31 31 0 0 0-2.2-9.6c-2.1-5.9-2.2-6.2-.5-8.1 1.4-1.5 1.5-2.5.8-4.5-1-2.7-.1-4.5 3.4-6.4.7-.5 1.6-3.3 2-6.4l.7-5.6-4.6-4.7c-2.6-2.5-5.2-4.6-6-4.6s-1.9-1.1-2.6-2.5c-1-2-2.1-2.5-5-2.5-3.1 0-4.1-.6-7.3-4.8-4-5.3-6.7-11.8-6.7-16.3 0-1.6-1.4-6-3.1-9.8-2.9-6.4-3.5-7.2-10-11-5-3-7.9-4.1-10.9-4.1h-4v-11.9l3.3.6c1.8.3 5 0 7.2-.6 3.5-.9 4.1-.8 7.4 1.8 2 1.6 6.1 4.1 9.1 5.6l5.4 2.7 1.4-2.1c1.1-1.6 2.5-2.1 5.9-2.1 5 0 10.1-1.9 12.3-4.5 1.3-1.6 1.2-2-1.5-4-2.2-1.8-4.7-2.5-11.1-3-7.5-.7-8.9-1.1-13.3-4.4-2.7-2-6.9-4.8-9.3-6.4l-11.8-8-7.5-5.3-10 .7c-12.9 1-18.2-.5-21-5.7-1.9-3.6-4.3-5-13.8-8.1-2.7-.9-5-2.1-5.3-2.7-3.4-10.1-4.8-12.7-7.5-14.3-1.6-1-2.9-2.3-2.9-3s-1-3.2-2.2-5.7c-2.6-5.4-5.5-7-9.9-5.4-3.3 1.2-3.3 1.2-6.4-4.6-1.3-2.5-6.8-4.4-13-4.5-5.3-.2-8.4-1.9-10.4-5.9-1.6-3.1-6.3-3-8.5.2-.8 1.4-3.9 3.7-6.8 5.3l-5.3 2.8.4 11.7.3 11.7-4.8.7c-2.6.4-8.4.4-13 0-6.5-.5-9.2-.3-12.4 1-4 1.6-4.1 1.6-12.3-1.9-10.6-4.6-15.4-5.3-16.3-2.5-.5 1.8-1.2 2-4.9 1.5a19 19 0 0 0-7.6.4c-8.7 2.7-10.1 2.8-15.1.8-2.7-1-5.9-1.9-7.1-1.9s-3-.7-4.1-1.5c-1.4-1.1-2.2-1.1-3.6-.3-3 1.9-10-1.7-10.1-5.1-.1-4.8-1.5-6.5-7.8-9.1-5.2-2.2-7-2.6-10.4-1.9-11.2 2.2-24.5-.1-30.4-5.2-2.5-2.1-3.1-3.5-3.6-8.3-.3-3.1-1.5-7.3-2.7-9.3-1.8-3.1-1.9-4-.9-6.5 1.8-4.5.6-12.5-2.3-15.5-2.2-2.2-2.8-2.3-4.8-1.3-3.5 1.9-7.5.5-16-5.7-8.5-6.1-10.9-9.8-8.9-13.5.9-1.6.3-2.6-3.5-6.4l-4.5-4.5-3.1 1.6a15 15 0 0 1-6.5 1.4q-3.4-.3-5.5 1.6c-2.5 2.3-8 2.2-12.1-.2q-2.9-1.6-3.4-5.5c-.7-4-1.4-4.5-3.2-2.7-.9.9-2.9.3-7.9-2-6-2.8-7.4-3.1-12.4-2.5-5.7.6-5.8.6-13-4.5-4-2.8-8-5.1-8.8-5.1s-3.2-2-5.3-4.4-5.1-4.8-6.6-5.4l-7.7-2.7a80 80 0 0 1-24.2-21.3c-2.5-4.1-5.4-5.3-14.1-5.3q-3.3 0-3.8-2c-.4-1-1.5-1.9-2.6-1.9-1.5 0-1.9-.7-1.9-3.1 0-3-.1-3.1-3.4-2.5-3.9.8-8.3-.9-9.1-3.5-.8-2.4-9.1-9.9-11.1-9.9-1.3 0-1.5-.6-1.1-2.9.5-2.5.2-3.1-1.6-3.7-1.2-.4-3.8-2-5.8-3.5-3.7-2.9-4.4-3.2-6.6-2.2"/><path d="M389 14.5c-.7.8-2 1.5-3 1.5s-3.2 1.8-5 4.1c-3.2 4-3.2 4.2-1.7 7.4 1.7 3.5 6 5.4 8.2 3.5q1.4-1.2 2 0c1.3 2.1 4.4-2 5.1-6.6.9-6.2-.2-11.4-2.5-11.4-1 0-2.4.7-3.1 1.5m-18.3 15.2c-.4.4.4 1.8 1.7 3.2s3.6 5.1 5.2 8.1l3.1 6c1 1.1 2.3-2.9 2.3-7.1 0-4.7-1.4-6.9-5.2-8.2q-1.6-.7-1.8-1.7c0-1.1-4.3-1.4-5.3-.3M210 166c0 1.3 4.1 5 5.6 5q1.2-.1 1.9-1 .4-1-.9-1-1.8-.2-2.6-2c-1.1-2-4-2.8-4-1M45.7 425.8c-2.6.3-2.8.7-2.5 4 .3 3.7.4 3.7 5.1 4 2.6.2 4.7 0 4.7-.3 0-1.3-2.9-7.3-3.6-7.7a11 11 0 0 0-3.7 0m197 189.1c-.5 2.1 1.6 6.1 5.3 9.9 2.3 2.4 4.2 2.3 2.2-.1a25 25 0 0 1-2.3-6.5c-.8-3.9-1.5-5.2-2.9-5.2-1 0-2 .9-2.3 1.9m-3.1 15.3c-1 4.6-2.3 9.5-2.8 10.9s-.6 3.8-.2 5.2c.5 2.4 1.1 2.7 5.1 2.7 4.4 0 4.4 0 3.8-2.9-.3-1.5-.1-4.8.5-7.3 1.3-5.1.2-10.7-2.8-14.6-1.7-2.2-1.7-2.1-3.6 6m13.7 2c-2.2 2.1-2.2 2.1-.3 5.8 3.7 7.2 6.7 6 6.2-2.3-.4-6.4-2-7.4-5.9-3.5m-30.7 11.9c-2.1 1.7-2.4 2.4-1.5 3.5 1.2 1.4 4.6 1.8 7.2.8 1.2-.4 1.3-1.1.4-3.5-1.3-3.5-2.5-3.6-6.1-.8m-12.9 9.1c-2.7.5-6.1 1.8-7.6 2.9s-4.3 2.4-6.2 2.9c-8.4 2.2-10.9 3.5-10.9 5.6 0 1.1-1.7 4.5-3.8 7.5-4.4 6.3-6.2 14.4-6.2 28.3 0 7.6.2 8.6 2.2 10 3.4 2.4 10.7 2.1 13.5-.6 2-1.8 2.6-2 4.9-.9 3.4 1.5 4.7.4 6.2-5.7 1.1-4.1 1.1-5.3-.3-7.8-.8-1.6-1.8-4.4-2.1-6.2s-1.2-3.2-2-3.2-1.4-.9-1.4-2.1c0-4.1 10.7-6.4 16.4-3.4 3.8 2 4.3 1.9 5.2-.8q1.8-5.8 9.4-9.3 5-2.3 6-4.9c1.5-3.9 1.3-4.3-2.2-5a30 30 0 0 1-8.4-4.6c-5.4-4.2-5.4-4.2-12.7-2.7"/><path d="M203.2 682.2c-.7.7-1.2 2.2-1.2 3.5 0 3.4 5.7 4.8 8.8 2 2.8-2.6 2.8-2.9-.7-5-3.4-2-5.3-2.1-6.9-.5m-.8 8.9c-.9 1.6 1.2 3.3 3.1 2.5 1.4-.5 1.5-.9.5-2.1q-2.2-2.7-3.6-.4"/></svg>