<svg xmlns="http://www.w3.org/2000/svg" width="1365.333" height="1365.333" viewBox="0 0 1024 1024"><path d="M266 83.4c-3.6.7-9.1 2.6-12.3 4.2-5.3 2.6-6.2 3.6-10.3 10.9-3.9 6.9-5.4 8.6-10 11.4-5.8 3.5-6.8 5-7.9 12.5q-.8 4.6-2.6 5.6a10 10 0 0 1-9.6-.5c-1.9-1.3-2.6-1.3-6.7.2l-4.6 1.7V142h-7v-5.5c0-3-.3-5.5-.7-5.5-.5 0-3.2 1-6.1 2.2-5.2 2.3-5.3 2.4-5 6.3s.2 4-6.2 7.6l-6.5 3.7-1.9-3.7-2.2-4c-.3-.3-10.5 2.8-11.3 3.5-.2.2-.7 4-1.2 8.5s-1 8.3-1.2 8.6c-.3.2-5.8 1.4-12.2 2.6l-11.7 2.2-5.9 6.7-5.8 6.8.5 11.3.6 11.2-5 7.2a47 47 0 0 0-6.9 13.3c-.3 0-2.9-1.4-5.6-3.1l-5.1-3.1-12 3.5-12 3.5-3.1-2.4a17 17 0 0 0-9.4-3l-6.3-.7.7 6.9c.6 6.2.4 7.2-1.7 10.3l-2.4 3.4 4.5 13.4c4.4 12.7 4.5 13.5 2.8 14.8q-1.8 1.4-2.4 6.9c-.6 5.6-.6 5.6-6.1 8.7l-5.4 3.2.8 5.1c.5 2.8.7 9.3.6 14.3-.3 9.1-.3 9.3 2.9 13.2 1.8 2.3 4.4 4.3 6 4.6 1.6.4 3.1 1 3.3 1.4s-.4 3.6-1.4 7.1c-1.5 5.6-1.6 6.9-.4 9.1.7 1.5 1.8 4.6 2.3 7 1 4.3.9 4.5-2.9 8.4l-4 4-4.8 30.4c-4.7 29.2-5 30.5-7.6 32.6-2.1 1.7-3.4 4.6-6.2 14.6A446 446 0 0 0 18 501l-4.2 26.5-4.2 3.5-6.9 6-2.9 2.6 3.6 15.9c2 8.8 6.3 31.7 9.6 51 3.9 22.6 6.9 37.4 8.6 41.7 1.9 4.9 2.5 8.2 2.3 13a20 20 0 0 0 5.4 15.5c2.9 3.2 4.8 2.9 15.1-2.1l9.1-4.5 12-.2c14-.2 18.2.8 25.3 6.1l5 3.8 5.3-3.2c4.3-2.6 5.5-3.8 5.7-6.2 1-10 5.4-18.2 11.5-21.7a40 40 0 0 1 22.7-.2c3.1 1.6 9.3 11.6 10.6 17 .9 3.9 4 7.2 7.4 8 2.3.5 3.2 1.6 4.6 5.5q1.7 4.8 4.2 6 2.3 1 2.6.8l20.5-55.8a1189 1189 0 0 1 21.5-56.2c3.6-2.4 5.7-.7 15.7 12.6 3.4 4.5 7.5 8.9 9.3 9.8 6.1 3.2 13.8 5 18.9 4.4 2.6-.4 6.3-.4 8.1 0 3.2.5 3.5 1 5.2 7 1.8 6.3 2.4 6.9 16.7 20.9L301 643h6c5.1 0 7.7-.8 19-5.9 11.7-5.4 13.6-5.9 17.8-5.5 4 .5 5.9 0 13.2-3.4 6.7-3.1 9.8-5.3 14.8-10.5 3.8-4 6.2-7.4 6.3-8.9 0-1.2.5-3.8 1.2-5.7 1-2.9 2-3.6 7.2-5.2 7.3-2.4 10-2.5 14.7-1 3.9 1.3 8 6.8 9.4 12.7.4 1.6 1.8 4.2 3.1 5.7 2.6 3.2 3 7.9.8 9.7q-1.5 1.3-1.5 6.1c0 3.9.4 4.9 2 5.4 2.8.9 3.7.1 4.4-3.9.8-3.9 5.6-7.6 9.9-7.6 3.3 0 4.1-1.4 3.8-6.3-.2-3.5 0-3.8 2.1-3.5q2.4.2 2.6 3c.4 3.4 2.1 3.9 12.2 4.1 9.8.2 11.4-.9 7.6-5.3a18 18 0 0 1-2.6-3.8c0-3.2 2.6-8.6 5.2-10.7 3.8-3.2 7.4-2.9 12 1 1.6 1.4 3.9 2.5 5.1 2.5s3.6.9 5.4 1.9c1.7 1.1 5 2.5 7.2 3.1q4 1 6.7 4.5c1.9 2.5 3.4 3.5 5.4 3.5 1.5 0 3.3.7 4.1 1.6 2.3 2.8 10.3 6.2 13.2 5.7 1.5-.3 2.7-.9 2.7-1.4s2-2.2 4.5-3.9c3.8-2.6 4.5-3.6 4.5-6.4 0-3.9 3.1-7.6 6.5-7.6 1.3 0 3-.3 3.9-.6 1.1-.4 2.9 2.2 7.2 10.8l5.8 11.5c.1.2 1.6-.3 3.3-.9 2.9-1.1 6.1 0 47.3 16.7l44.2 17.9 34.7 42.3c34.3 41.9 34.7 42.3 40.8 45 6 2.6 6.3 2.9 11.7 12.3 7.8 13.5 19.2 24.4 40.6 38.8l16.5 11.1 24 26.4c18.5 20.3 25.3 27.1 29.7 29.7 4.1 2.4 8.6 6.7 15.7 15 9.4 10.8 10.5 11.8 17.1 14.5 6.1 2.6 9 4.8 20.6 15.8l13.4 12.9 4.8-4 4.8-4.1 8.4 4.6c4.6 2.5 12.4 7.8 17.4 11.8l8.9 7.2 8.1-3.5c4.5-1.9 8.7-3.9 9.3-4.4 2.3-1.8 2.6-7.4.7-10.7l-1.8-3 5.5-5.8a87 87 0 0 0 7.4-8.9c1.5-2.6 2.6-3.3 6.1-3.7a16 16 0 0 0 6.7-2.3c1.3-1.1 7.1-3.9 12.8-6.3 5.7-2.5 10.6-4.5 10.7-4.7.2-.1-.6-1.6-1.8-3.2-1.6-2.1-2.6-5.9-3.7-14.6-1.4-10.3-1.9-11.9-3.7-12.6-1.2-.4-4.3-2.6-6.9-4.8-4.5-3.6-5.1-3.9-7.8-2.8q-2.7 1-1.9 1.4c.5.2 1 1.6 1 3.1s.5 3.2 1.2 3.9c1.5 1.5-1.6 4.1-4.8 4.2-1.2 0-2.7.7-3.4 1.5-2 2.4-5.4 1.8-8.5-1.5-1.6-1.7-3.5-3-4.2-3s-1.3-.4-1.3-1c0-1.7-4.1-3.3-5.3-2.1-1.5 1.5-3.9 1.4-6.1-.2-1.3-1-2.3-4.4-3.6-12.7-2.4-14.5-3-15.6-8.9-16.5-6.2-.9-7.5-1.8-11-6.9a41 41 0 0 0-8.1-8q-5-3.5-5-5.7 0-2-2.1-2.6c-1.6-.4-1.9-1.1-1.5-2.9 1.1-4.2-2.9-3-5.5 1.6-1.7 2.9-2.7 3.9-3.9 3.4-.8-.4-4.5-.9-8.3-1.2-8.8-.6-10.6-2.7-11.2-13.8-.3-6.1-.9-8.2-2.8-10.8a25 25 0 0 1-3.7-8.7c-1-4.4-1.9-5.9-4.5-7.6-2.8-1.9-3.3-2.8-3.8-7.9q-.6-5.7-2.6-7.8l-7.3-7.9c-6.2-6.9-9.4-8.8-12.5-7.6q-5 2.1 1.6 3.3c6 .9 9.2 4.8 5 5.9-2.1.6-2 .8 1.5 4.8 2 2.4 3.6 4.7 3.6 5.2 0 1.6-7.4-5.5-9.1-8.7q-3.8-7.1-9.3-6.9c-3 .1-3.7-.5-8-7.2-5.5-8.6-16.1-19.1-20.2-20a47 47 0 0 1-19.4-9.3 18 18 0 0 0-10.5-5.2c-8.4-1.4-7.9-.9-18.9-17.1a73 73 0 0 0-11.3-12.4 38 38 0 0 1-9.7-11.4 390 390 0 0 0-33-40.6c-2-2.2-5.1-6.5-6.8-9.5-1.9-3-5.3-6.8-7.8-8.6s-6.6-5.1-9.1-7.3q-4.6-4.1-7.6-4.1c-1.6 0-3.8-.7-4.9-1.5s-4.2-1.4-7.7-1.5c-5.1 0-5.9-.3-6.9-2.5-2.1-4.7-8.2-6-27.4-5.9l-17.1.2-1.7-3.2c-1.3-2.4-1.6-5.1-1.4-10.6l.3-7.3-4.3-3.4c-4.7-3.6-9.1-4.3-11.2-1.8q-1.2 1.4-2.1 1.5c-1.4 0-2.1-4-1-5.4 2.3-2.7.2-4.6-5-4.6-4.7 0-5-.2-5.6-3-.7-3.8-3.2-3.9-5.7-.1a17 17 0 0 1-3.9 4c-1.6 1.1-2.3.9-4.3-1-1.3-1.2-2.4-3.1-2.4-4.1 0-2.1-.1-2.1-3.4-.7a5 5 0 0 0-2.8 3.8c-.4 3.3-3 3.8-4.3.9q-2.2-4.7-3.8.7L563 543c-1.1 2.3-6 4.3-10.3 4.2-5.3-.2-17.1-6.1-17.5-8.7-1-6.6-3.4-10.5-8.2-13.1-4.9-2.7-7-5.6-7-9.9a4 4 0 0 0-2-3.5q-1.8-1.1-2-2.2c0-.7-1-2.2-2.2-3.5-1.7-1.8-1.9-2.6-1-3.5 1.7-1.7 1.5-4.5-.3-5.6-1.4-.7-1.2-1.3 1-4.6 6.2-9.2.6-17.1-19.8-27.9-5.6-3-6.6-3.3-9.8-2.3a18 18 0 0 0-6.9 4.9c-3 3.5-3.4 4.6-3.8 11.6-.2 4.2.1 10.3.8 13.5 1 4.7 1.5 5.6 2.8 5.1 4.4-1.8 4.6-1.4 6.1 10.5 1.4 11 1.1 16.9-.8 19.9-.8 1.2-1.6 1.2-5.3-.3-2.3-.9-5.6-2.7-7.2-4-2.7-2.2-2.9-3.1-3.7-12.3a43 43 0 0 0-4.3-17.4 64 64 0 0 0-5.4-9.9c-1-1.4-2.9-5.9-4.2-10.1-2.7-9.3-8.1-16.3-13.9-18-3.3-1-4.7-.8-9.5 1L423 459l-1.5-3a24 24 0 0 1-1.5-9.2c0-3.5-.6-9.2-1.4-12.8s-1.7-9-2.1-12c-1-7.5-2.7-10.4-7.7-13.2-3.6-2-4.4-3.1-6.3-8.8a189 189 0 0 0-6-14.5 440 440 0 0 1-10-26c-6.3-17.7-9.7-32.8-16.9-74a300 300 0 0 0-18.8-60.1c-9.1-21.2-12-29.3-13.8-38.9-.8-4.2-2.1-6.9-4.1-9q-2.9-3-3.9-8.3c-.5-3-3.2-9.2-6.1-14.5l-9.4-17c-2.3-4.3-6.5-10.4-9.3-13.6s-7-9.1-9.4-13.2c-4.6-7.7-20.6-29-21.7-28.8z"/><path d="M499.1 355c-.9 2.8-.8 3.6.5 5.1 1.7 1.9 1.3 2.2-5.1 3.1-2.8.4-3.2 4.9-.6 7.2 1.6 1.5 2.2 1.5 4.1.4s2.4-1 4.3 1.4c2.1 2.6 4 3.3 8.1 3 1.5-.2 1.7-.7 1.1-3-.3-1.5-1.3-3-2-3.5-2.9-1.6-4.6-4-3.7-4.9 1.2-1.2 7.6-.5 11.9 1.3 2.9 1.2 3.5 1.1 5-.3 2.5-2.6.1-4.8-5.2-4.8-3.5 0-4.4-.4-4.8-2.1-.5-1.8-1-2-5.1-1.4-2.6.4-4.6.3-4.6-.2s-.6-1.7-1.3-2.8c-1.3-1.7-1.5-1.6-2.6 1.5m-89.4 1.7c-.4.3-.7 2.1-.7 4 0 2.9.3 3.3 2.5 3.3 3.5 0 4 1.9 2.1 8.2-.8 2.9-1.3 5.4-1.1 5.6.2.3 1.6-.3 3-1.2 3.1-2.1 3.4-7.9.6-13.4-2.1-4.2-5.4-7.5-6.4-6.5m83.6 35c-2.4.2-4.3.8-4.3 1.3 0 1.3 4.6 2.4 6 1.5 1.3-.8 7 4.2 7 6.2q-.2 1.2-2.5 1.3c-2.2 0-2.5.4-2.5 3.4q0 3.6 1.8 3.9 2.2.3-.8 1.5c-2.2.9-2.9.6-5.5-2.1l-3-3.1-.6 5.4c-.3 3-.4 5.8-.2 6.2.6 1.2 3.9 1 6.8-.4 2.5-1.1 3-.8 8.7 4.9 4.7 4.7 5.9 6.5 5.4 8.1-.9 2.7-5.3 3.8-7.6 1.7-.9-.8-2.4-1.3-3.2-1q-1.4.7-2.8-3.4c-.7-2.3-2.4-4.8-3.7-5.6-4.1-2.7-6 .6-2.3 4 1.1 1 2 2.8 2 4q.1 2.1 1.5 2.9 1.3.6 1.5 2.3c0 3.5 1.7 4.7 5.9 4.5 2.3-.2 5 .4 6.4 1.3 1.9 1.2 3 1.3 5.8.4 1.9-.7 3.8-1.6 4.4-2q2.6-2.4 7 2.1c1.6 1.6 3.3 3 3.8 3s.6-1.4.2-3l-.7-3h6.4c4.6 0 7.1.5 9.3 2 3.9 2.6 7.2 2.6 8 0 .7-2.1 3.5-2.6 6.3-1.1 1 .5 2.9.7 4.4.4 2.3-.4 2.6-.8 1.8-2.3-.6-1-1-3.4-1-5.4 0-4.6-1.8-5.6-4.4-2.4-2.2 2.7-6.6 5.4-6.6 4.1 0-.4 1.2-1.7 2.7-2.9l2.7-2.1-2.8-1.8c-2.3-1.6-2.9-1.6-3.7-.4q-1 1.7-.9-.7 0-5-9.8-6c-5.9-.7-6.2-.6-7.3 1.9-1.7 3.8.2 6.1 3.7 4.5q2.5-1.3 3.6 0 1.4 1.3-.8 1.2c-1 0-2.4 1-2.9 2.2-1.1 2.6-5.3 3.4-10.6 2.1-3.2-.9-3.4-1.3-5.4-9.4-2.5-9.7-3.6-12.2-6.8-14.4-1.7-1.2-2.2-2.5-2.2-5.8 0-4.1-.1-4.2-4.7-5.8-2.6-.8-5.6-2.3-6.6-3.2s-2-1.6-2.3-1.5zm129.3 50.2q-2.8 2.9-1.6 3.6 1 .6 1.4.4c4.3-6.5 4.4-8.4.2-4m-81.5 53c-1.7 1.1-.2 4.1 2 4.1q1.8 0 1.9-1.9c0-2.1-2.1-3.3-3.9-2.2m2.2 9.3c-4.2 2-2.4 10.8 2.2 10.8 2.2 0 2.4-.4 2.2-4.1q-.2-4.2 1.6-5.4c3.3-2.4-1.6-3.4-6-1.3m8.7 22.7c0 1.1-.4 2.3-1 2.6-1.5.9-1.2 6.1.5 7.5q3.2 2.5 6.9-2.3c2-2.7 2-2.8.2-6.2-2.2-4-6.6-5-6.6-1.6"/></svg>