<svg xmlns="http://www.w3.org/2000/svg" width="1365.333" height="1365.333" viewBox="0 0 1024 1024"><path d="M115.7 135.3a8 8 0 0 1-4.6 4.5c-3.3 1.2-3.8.8-5-3.3l-.6-2.4-4.4 3a16 16 0 0 1-6 2.7c-2.3-.4-4.1 1-4.1 3.2 0 1.2-1.6 3-4 4.5a21 21 0 0 0-5.5 4.9 8 8 0 0 1-5.5 3.1q-4 .7-3.8 2.3c0 .9-.3 3.4-.7 5.4-.6 3-.5 3.8.7 3.8q1.6.1 2.8 1.5c1.2 1.4 2.3 1.5 3.6 1.5 2.1 0 2.2.3 1.7 3.7-.3 2.1-.8 4-1 4.3s-2.1-1.5-4.1-3.7-4.6-4.3-5.8-4.5-3.8 1.2-6.5 3.6a32 32 0 0 1-18.2 8.3c-4.4.4-5.5.2-7.1-1.6-2.9-3.2-7.1-2.7-10.6 1.1q-2.8 3.3-2.4 5.3c.3 1.6-.6 2.5-4.4 4.3-2.6 1.2-5.7 2.2-6.9 2.2s-3.5 1.1-5 2.5c-2.6 2.3-2.7 2.6-1.1 3.9 1.9 1.4 1.4 2.6-1.2 2.6-.9 0-2.6 1-3.8 2.3-1.9 2-2.2 3.5-2.2 10.8q0 15 3.4 8c1.7-3.2 2.3-3.5 5-2.5 2.1.8 4.4 11 2.8 12.6-1.8 1.8-1.5 2.6 1.5 4.1 3.3 1.5 6.7 1.2 8.3-.9.7-.8 2.1-1.4 3.2-1.4 1.8 0 1.7.3-.9 2.7a21 21 0 0 0-4.2 6.3l-2.8 7.2c-1.3 3.1-1.4 4.2-.3 6.8 1.8 4.3 4.2 3.8 8.2-1.9 2.8-4 3.7-4.7 5.1-4q3.6 2 3.7-2.8c0-2.5 0-2.6 2-.8 1.1 1 2 2.3 2 2.9 0 1.1-3.6 10.9-5.1 13.9-.5.9-.6 3.5-.3 5.7.6 3.9.8 4 4.7 4h4l-2.7 2.5c-1.4 1.3-2.6 3.3-2.6 4.5 0 1.1-1.8 3.8-4 6-4.4 4.3-5.2 6-1.8 3.6 1.2-.9 3.2-1.6 4.4-1.6s4.3-.9 6.9-2c5.4-2.3 6.5-2.5 6.5-.8 0 .7-2.3 2.8-5 4.7s-5 3.8-5 4.3-1.1 1.4-2.5 2c-2 .9-2.3 1.4-1.3 2.5q1.4 1.5-.3 2.4c-.8.5-2 .9-2.6.9-1 0-1.3 2.7-1.3 10v10.1l2.8-1.5a18 18 0 0 0 4.6-3.5c1.1-1.2 3-2.1 4.2-2.1 1.4 0 3.6-1.4 5.4-3.4s4.4-3.6 6.3-3.9l7.7-1.6 9.3-2a16 16 0 0 0 6.6-2.5c1.8-1.7 2-1.7 4 .3 1.2 1.2 2.6 2.1 3.1 2.1 1.2 0 5 3.7 5 4.9 0 .5-1.3 1.4-2.9 2.1-2.7 1.1-8.1 7.7-8.1 9.9q.2 1 2 1.6c1.5.5 2 1.5 2 4 0 6.9 7.4 6.2 15.3-1.3l3.8-3.7 2 2.7 2 2.8 4-2.1c2.9-1.5 4.9-1.8 7.7-1.3 5 .9 9.2 3.1 9.2 4.9q.2 3.4 4.6-1.2l2.6-2.8 2.8 3.5c2.3 2.8 3.1 3.3 4.1 2.2.7-.6 3.4-1.2 6.1-1.2 3.8 0 5.4-.6 8.2-3 3.1-2.7 3.4-3.4 2.9-7l-.6-4h3.9q3.7 0 5.9 2c2.1 2 2.3 2 5.3.3 2.6-1.5 3.5-1.6 5.2-.6 2.7 1.8 6 1.6 8.1-.3 1.6-1.4 2-1.4 4.8.7 2.6 1.9 3.8 2.1 9 1.6l6.1-.7v3.4c0 2 .8 4 2 5.1 1.9 1.8 1.9 1.8.1 4.9-2.6 4.3-3.5 10.3-2 13.7l1.2 2.9 9.1-.6 9.1-.6 2.8 4.6 2.9 4.6-5.5 9.8a70 70 0 0 1-12 16c-6 5.7-6.9 6.2-11 6.2-4.2 0-4.8.3-8.6 5.1q-4 5.2-4.1 8.1c0 1.7-.9 4.3-2.1 5.9-1.7 2.4-2.8 2.9-6.1 2.9-3.9 0-4 .1-3.5 2.9.4 1.6 2.1 5.3 3.8 8.1 2.9 4.7 3.2 5.9 3 12.4-.1 4 .3 8.5 1 9.9 1 2.1 1 3.6 0 6.8s-1 4.4 0 5.5.9 2.4 0 5.3c-1.4 4.8-1.4 7.6 0 9.9q1.2 1.8.3 7.6l-.9 5.8-5.5 2.2c-4.4 1.8-6 3-7.8 6.4-2.9 5.2-2.3 7.8 2.1 8.6 4.8.9 7.4 7.5 6.9 17.8-.3 7.3-.5 7.7-3.2 8.8q-3 1.1-3.4 4.1l-1.1 5.8c-.5 2.2-1.4 3-4.3 3.9-8 2.4-17.8 3.5-22.8 2.5-2.7-.6-7.2-.8-10.1-.6l-5.1.5 1 3.1c.6 1.9 4.2 6.3 9 10.8l8.1 7.6-1.8 3.1c-1.9 3.1-1.8 3.2.5 8.2 1.3 2.8 3 5.6 3.7 6.2s1.3 2.6 1.3 4.5c0 2.7.9 4.4 4.8 8.3 4.5 4.5 4.9 4.7 7.2 3.5s2.8-1.1 5.3 1.3q5.5 5.3-.2 14.1c-2.3 3.5-2.8 4.9-2 6.8.8 2.2.1 2.9-8 8.9-9.5 6.9-10.4 8.3-10 16 .1 2.2-.8 5.8-2 8.4-2.6 5.6-2.6 8-.2 8.7 1.2.3 3.6 3.7 6.2 8.9 2.4 4.7 5.2 9.2 6.2 10.2 1.1.9 2.3 2.7 2.8 4 1 2.6 3.1 2.8 8.8.7l4.1-1.4-1.5 2.3c-.9 1.3-2 5.2-2.6 8.7s-1.5 6.7-2.1 7c-.6.4-2.4.2-4-.3-2.5-.9-3.3-.7-5.2 1.1a9 9 0 0 1-5.3 2.1c-2.9 0-3.1.2-4.3 6.2-1 5.4-1.9 6.9-7 12.2-5.1 5.4-5.9 6.7-6.5 11.5-.4 3-1.8 7.5-3.1 9.9-3.1 5.7-3 6.3.9 8.7l3.2 2 .3 13.3.3 13.2h4.5c2.5 0 5.9-.7 7.6-1.6 2.6-1.4 4.9-1.5 13.2-.9 10 .7 14 1.9 16.5 4.9.8.9 2.6 1.6 4.1 1.6s4.4 1.3 6.6 3.1a71 71 0 0 0 8.9 5.6c8.6 4.4 11.4 7.2 15.1 14.9 3.6 7.6 4.1 10.3 2.3 12.1-.9.9-.9 2.3.1 5.7 1.1 4.1 1.6 4.6 6.2 6.3a17 17 0 0 1 5.7 2.8c1.2 1.5 3.1 10 3.1 13.9 0 1.9.4 3.7.9 4.1s1.7 2.7 2.6 5.4q1.6 4.8 4 5.9 2.5 1.2 2.5 3.5c0 3.7 3.3 6.1 7.3 5.3 4.6-.9 6.3 0 8.8 4.3 1.6 3 3.2 4.1 8.3 5.9 3.4 1.2 9.1 2.5 12.7 2.8 10.8 1.1 14.6-2.1 23.6-19.3 4.5-8.7 6.8-11.9 10-14.2 2.2-1.6 4.4-3.4 4.7-4 .4-.5 2.8-1.3 5.4-1.7s5.6-1.2 6.7-1.8 6.3-1.1 11.5-1.1h9.5l.3-2.7c.3-2.3 1.1-2.9 5.5-4.3 3.9-1.3 6.4-3 9.8-6.8l4.5-5 12.5-2.1c15.8-2.5 42-2.7 48.8-.2q9.6 3.6 16.3-1c3.2-2.2 4.4-2.5 8.5-2 2.6.3 9.4.9 15.1 1.2 7.5.5 10.5 1 10.9 2s2.6 1.4 8.4 1.4c9.6 0 12.5-1.2 13.3-5.4.9-4.8 6.5-7.6 14.9-7.6 6.4 0 6.5 0 11.3 5s8.7 6.3 9.8 3.5q.6-1.4 1.9-1.5c1.8 0 6.4-5.6 9.1-11.1 1.2-2.4 3.2-4.8 4.4-5.4a4 4 0 0 0 2.2-3.3c0-1.2.8-3.9 1.8-6a33 33 0 0 0 3.9-15.3q-.6-2.3 1.4-2.6c1.1-.3 3.8-3.2 5.9-6.3 4.3-6.4 11.7-12 15.6-12 1.9 0 2.8-.7 3.5-3 .7-1.7 1.8-3 2.8-3s2.8-1.3 4.2-2.9c1.9-2.2 3.8-3 7.8-3.6 4-.5 5.6-.4 6.1.6.7 1 1.7 1 5.7 0 2.6-.7 9.3-1.6 14.8-2 10.5-.8 13.8-1.9 15.5-5.1.9-1.6.7-2.1-.7-2.6-4.8-1.5-6.5-2.6-8.2-5.5l-1.9-3.1 3.3-3.4c1.8-1.8 4.3-5.9 5.5-9 1.1-3.1 2.9-6.9 3.9-8.3 1.1-1.4 2.4-4.6 3.1-7.1 3-11.7 4-13.9 6.8-14.2q2.7-.3 3-2.3l1.4-7.3c.9-4.3 1.5-5.2 3.3-5.2q2.2.2 4.6-4.6c1.9-3.7 3.6-5.2 8.4-7.6 3.3-1.7 6.8-3.7 7.8-4.6s3.3-2.1 5-2.7q3.1-1 5.1-5c1.8-3.5 2.7-4.1 6.3-4.6q4-.5 7.7-3.7c2-1.8 4.3-3.2 5.1-3.2 2.1 0 2.9-1.9 1.7-4.3-.6-1.2-1.3-3.4-1.6-4.9-.5-2.4-1.5-3-7.9-4.8-10.8-3.2-12.1-3.8-16.5-8.3-4.3-4.4-7-11.7-9.1-24.3-.5-2.7-2.3-7.7-4.1-11-3-5.5-3.2-6.4-2.7-13.5.5-7.2 1-8.6 7.8-21.5 4-7.7 9-15.9 11.1-18.3 2.2-2.5 5.4-7.7 7.2-11.5q3.4-7.1 7.5-10.4c2.3-1.8 5-5 6.1-7a64 64 0 0 1 12.3-15.2c1.5-1.2 2.7-3 2.7-4.1 0-2.6 2.5-7.5 6.1-11.9 1.6-1.9 2.9-4.7 2.9-6.2 0-3.6 7.4-9.4 13.3-10.3 5.2-.9 8.5-2.6 11.6-5.9 2.6-2.8 2.3-5.6-.7-5.6-1 0-2.7-.9-3.7-2s-2.4-2-3.1-2c-5.1 0-1.1-6.2 11.4-17.6 11-10 15.6-12.2 19.3-8.8 1.8 1.6 2 1.6 4-1 2.9-3.6 4.1-4.2 19.7-8.6 7.5-2.1 16.4-4.9 19.7-6.1s9.4-2.4 13.5-2.9c11.7-1.1 16.5-3.9 21.8-12.8q4.4-7.2 9-10.4c2.6-1.7 6.3-4.4 8.2-5.9a57 57 0 0 1 18.6-7.9c2.3-.5 6.1-2.5 8.5-4.3s5.9-3.9 7.7-4.6c1.8-.8 3.7-2.2 4.2-3.1.5-1 2.7-2.7 4.7-3.7a13 13 0 0 0 5.1-4.7c.8-1.5 2.9-3.3 5-4.1a9.7 9.7 0 0 0 5.1-12.2 19 19 0 0 1-.4-7.4c.6-4.4.5-4.7-2.9-7.3-3.2-2.4-3.6-3.2-3.6-7.2 0-4.8.1-4.8 6.5-4.5 3.8.2 4.2 0 6.2-3.8l2.2-4-3.2-1.9a26 26 0 0 0-5.4-2.6q-2-.7-2.8-3.7t-2.1-2.5q-1.4.3-3.1-2.5c-2.6-4.4-5.3-4.6-13-1a48 48 0 0 1-12.5 3.8c-5.6.6-5.8.7-6.4 3.8-.5 3-1 3.3-4.7 3.8-3 .3-4.8-.1-6.2-1.3-2-1.7-12.5-7.3-15.7-8.4q-1.7-.4-2.7 1.3c-1 1.7-11 5.1-15.4 5.1q-2.3 0-6.1-4.6a26 26 0 0 0-7.2-6 26 26 0 0 0-18.6.7c-3.2 1.6-5.4 2-9.5 1.7-6.4-.6-8-1.7-6.4-4.6a28 28 0 0 0-.5-16.5c-3.5-6.9-4.8-7.6-12.9-7-6.5.5-7.4.4-8.3-1.4a18 18 0 0 0-12.5-7.3c-2 0-6.2-1.1-9.3-2.5-5.7-2.5-11.7-3.2-14.3-1.6-1.4.9-1.2 9.7.4 13.5.8 1.8.4 1.9-8.4 1.3q-9.4-.6-11-2.1c-1.6-1.4-2-1.4-5.1.9l-3.4 2.5-2.6-2.5c-3.4-3.3-10.3-3.4-15.5-.4q-8 4.6-12.4-3.1c-1.8-3.2-3.6-4.7-8.8-7-3.6-1.7-7.3-3-8.2-3s-2.8 1.4-4.2 3.1l-2.5 3.1-3.3-1.7c-3.6-1.8-6.1-1.4-6.1 1q0 1.3-.9 1.5a48 48 0 0 1-12-14.5c-2.9-6.2-3.9-6.7-10-5.3-4.6 1-5.6.9-9.4-.9-2.3-1.1-7.3-3.3-11.2-4.7-11.5-4.4-11.5-4.4-11.5-6.9 0-2-.4-2.3-3-1.9-2.4.3-3.1 1-3.6 3.8-.5 3-.9 3.4-2.8 2.8-2.7-.8-5.6-3.4-5.6-4.9 0-.6 1.6-2.6 3.5-4.5 3-2.9 3.5-4 3.5-7.9 0-2.6-.4-5.1-.8-5.8s-3.1-1.7-6-2.4c-4.5-.9-5.6-.8-7.9.6-2.1 1.4-2.7 1.5-3.4.4-.5-.8-.9-2-.9-2.7 0-1.5-.6-1.5-3.1-.1-1.7.9-2.6.4-5.7-3-2-2.2-4.9-4.4-6.4-5-2.3-.9-2.8-.7-3.3 1-.4 1-1.9 2.6-3.5 3.4a63 63 0 0 1-20.5 4.6 28 28 0 0 0-7 .8c-1.2.5-3 .3-4.5-.4-1.4-.7-4.2-1.6-6.2-2s-4.4-1.6-5.4-2.6-2.2-1.9-2.8-1.9c-.7 0-3-.9-5.1-2-3.5-1.8-4.1-1.9-5.1-.5q-2.2 2.8-2.4.1c0-.8-1.1-2.8-2.4-4.3-2.5-2.8-2.5-2.8-5.6-1.1-1.8 1-4.8 1.8-6.9 1.8-2 0-4.6.7-5.7 1.5-1 .8-2.9 1.5-4.1 1.5-2.8 0-2.8.4-.1 4.3l2.2 3-3.4-.7c-1.9-.3-4.1-1.3-5-2.1s-2.6-1.5-3.7-1.5-2.8-1.1-3.7-2.5c-1.6-2.4-2.1-2.5-11.4-2.5s-13.7-1-11.3-2.4c1.7-1.1 1.3-2-1.7-3.8-2.4-1.4-4.8-1.6-15-1.2a78 78 0 0 0-27.9 5.6c-3.7 2.2-4.6 2.3-25.7 2.1-20.3-.2-22.2-.3-26.5-2.4A38 38 0 0 0 325 165a57 57 0 0 1-12.3-1.9c-1.6-.6-4-1.1-5.4-1.1s-3.5-.7-4.4-1.6c-2.3-2-7-3.1-22.3-4.9-13.6-1.6-14.6-1.9-14.6-3.8 0-.8-1.8-2.8-3.9-4.5l-4-3.2-2 3.4q-4.4 7.1-9.3 5.4a9 9 0 0 0-5.5 0q-2.8 1-6.5-.5c-3.3-1.3-4.3-1.3-8.5 0-8.1 2.5-11 2.8-34.3 2.8-12.4 0-24.1.3-26 .7-6.6 1.5-10.7-.3-19.2-8.4-10.4-9.9-15.4-11.8-17.7-6.8l-1.2 2.7-2.4-3.4c-1.4-1.8-2.5-4.1-2.5-5.1s-.6-1.8-1.4-1.8-2.1-.3-3-.6q-1.5-.6-2.9 2.9m891.1 370.4c-.5 1.8-1.5 2.2-7.4 2.8l-8.9.8c-2.3.2-3.1 3.9-2 9.4l.6 3.4 5.5-.7c4.7-.5 5.8-.4 7.7 1.4a72 72 0 0 0 19.5 10.2c1.7 0 2.2-.6 2.2-2.8 0-4.8-2.6-11.9-5.9-16.1a14 14 0 0 1-3.1-5.5q.2-1.7-3.4-1.6c-3.6.1-3.6-.5-3.8-1.8q-.4-2.1-1 .5M937.9 518c-2.4 1.4-16.9 6-18.9 6-.9 0-3.4 1.3-5.5 3s-4.6 3-5.7 3-4.5 2.4-7.6 5.3c-3.1 3-7.1 5.9-8.9 6.6a18 18 0 0 0-5.4 3.7c-1.2 1.3-3 2.4-3.9 2.4s-2.9 1.3-4.5 3c-2.7 2.8-2.7 3-1.2 5.4.9 1.3 3.2 3 5.2 3.7q3.5 1.3 3.5 3.1c0 3.4 2.8 3.1 6.5-.6 3.6-3.6 4.6-4 10-3.6 3.9.3 4.5 1.3 4.5 8.1 0 7.6 2.4 9.9 10.1 9.9 5.9 0 7.5.9 10.2 5.2 2.2 3.5 3.6 3.5 8.9.2 5.5-3.5 7.4-5.7 10.5-12.4 1.4-3 4-7.5 5.8-10 7.5-10.5 9.4-18.1 5.5-22-2.4-2.4-3.9-2.5-6.6-.5-3.8 2.9-9.9.9-14.1-4.5-1-1.2-.7-1.6 1.8-2.3 2.4-.6 3-1.3 2.7-3-.3-1.9-.9-2.2-4.7-2.2-5.5 0-6.5-2-1.4-2.8 2.1-.4 4.8-1.4 6.1-2.2 3.5-2.5.9-4.8-2.9-2.5m-129.6 84.9c-5.3.9-11.3 4.9-11.3 7.7 0 1.1-1 2.6-2.3 3.3-2.4 1.3-4.6 7.1-3.9 10.4.3 1.6 1 1.8 4.7 1.3 2.6-.4 4.6-.3 5 .4.3.5 1.7 1 3 1q2.4 0 2.9-2.4c.7-3 9.4-12.1 12.4-13 1.7-.6 2.2-1.5 2.2-4 0-5.5-2.3-6.4-12.7-4.7m-2.6 32.2q-1.7.9-1.7 5.5c0 4.1.1 4.4 2 3.4q2-1 3.8.1c2.6 1.6 9.3.3 8.5-1.6-.3-.8-1.8-1.5-3.3-1.5-3 0-6-2.2-6-4.5q-.1-3-3.3-1.4"/></svg>