<svg xmlns="http://www.w3.org/2000/svg" width="1365.333" height="1365.333" viewBox="0 0 1024 1024"><path d="M314.1 107.2 304 131.6c-7.1 17.2-8.6 20-9.8 18.8a5 5 0 0 0-3.1-1.4q-1.8-.1-3.6-4.1c-2.3-4.9-6.4-7.3-11.1-6.5-3.8.8-8.4 5.7-8.4 9.1s-3.2 4.1-7.7 2c-2-1-6.4-2-9.8-2.3-9-.7-12.8 1.6-20.5 12.3l-6.1 8.5 1.7 2.8c1.6 2.9 1.5 3.4-8.6 35.2-11 34.7-10.8 33.8-8.4 47.7.8 4.3-1.5 5.2-5.7 2.2-3-2.1-3.5-2.1-9.8-1-15.7 2.9-16.1 3.1-16.7 6.1-.3 1.5-4.8 8-10 14.5a49 49 0 0 0-13.5 27c-1.1 4.4-2.4 6.1-10.2 13.7-8.2 7.9-8.9 8.9-8.2 11.5.4 1.5.9 6.7 1.2 11.4l.5 8.6-4.1 3.2c-5.1 4-5.3 7.3-1.2 15l2.8 5.4-3.4 5.8c-2.8 4.8-3.2 6.5-2.7 9.6.9 6.1-1.6 10.7-6.6 12.2a13 13 0 0 1-4.4.9c-7.4-10.4-9.9-12.8-13.1-12.8-3.3 0-3.6.4-11.6 13.6-7.2 12.1-8 13.9-7 16 .6 1.3.8 3.7.5 5.2q-.6 2.9 1.5 7 4 7.8-2.5 12.7C81 444.1 81 444.2 81 452s-.1 8.1-4.8 15.7l-4.9 7.8 1.2 35c.7 19.2 1 35.3.8 35.7s-1.4.8-2.7.8c-1.8 0-2.5 1-4 5.5-2 5.8-3.4 6.8-12 8.5-3.1.6-4.5.4-6.5-1a21 21 0 0 0-7.2-2.4c-3.7-.4-5.2-.1-7.9 1.8s-3.9 2.1-6.9 1.3q-3.6-1-7.8.2l-4.1 1.1-.7 7.5c-.7 7.4-.8 7.6-5.3 11.6-6.9 6-8.5 9.2-8 16.1.6 7.7 2.5 9.8 9.2 9.8 3.6 0 7 .9 11.4 3 4.8 2.3 6.8 2.7 8.2 2 2.8-1.5 3.6-1.3 7.3 2 3.1 2.7 3.6 2.8 4.8 1.4 1.7-2.1 6.5-1.1 9.9 2a25 25 0 0 0 5.2 3.7A52 52 0 0 1 71 641.9c1.5 5 2.1 5.9 6.8 8.6 2.8 1.6 5.4 3.9 5.8 5 2.1 7.4 5 10 12.9 11.9 4.4 1.1 7.5 4.4 7.5 8.1 0 4.4 2.5 7.6 5.8 7.3 3.1-.2 7.1 1.7 9 4.4a15 15 0 0 0 4.4 3.4q3.2 1.5 2.5 3.5c-.3 1.1.5 5.1 1.8 8.8 1.2 3.7 2.6 8.8 3 11.2.4 2.5 2.2 6.4 4.1 9 2.7 3.6 3.4 5.6 3.4 9 0 3 1.4 7.9 4.7 15.6 4.6 10.7 5 11.3 9.5 13.8 5.9 3.2 6.1 3.6 4.9 8.1-.8 2.8-.6 4.3.6 6.9l1.6 3.3 6.2-3 6.1-3.1 4.1 2.6c3.6 2.3 4.5 2.5 7.5 1.5 3.1-.9 4-.7 7.5 1.6s4.1 3.3 4.7 7.3c.5 4.1.3 5-1.8 7.2-2.3 2.5-2.4 2.9-1.9 14.6.5 11.4.7 12.2 3.5 15.7q3 3.8 2.3 5.8c-.7 2.3 2.8 8 5 8 .8 0 2.1 1.3 3 2.9 1.7 3.3 1.7 3.3 38.5 5l18.5.9 11.5 5.5c6.3 3.1 14.4 7.7 18 10.4s10.8 7.8 16 11.3c5.2 3.4 17 11.8 26.1 18.6l16.5 12.4 10.9 1.6a38 38 0 0 0 14.9.5c3.6-.9 4.8-.7 8.3 1 2.9 1.4 4.6 1.7 6.4 1s3.5-.3 6.9 1.4c3.8 1.9 6.8 2.3 20 2.9 14.4.7 15.7.9 18 3.1 1.8 1.7 4 2.4 8 2.7 3 .3 6.3.8 7.2 1.2 1.4.6 2.3-.2 4.5-3.8 1.5-2.5 3.5-4.6 4.3-4.6.9 0 4.1-4.6 7.6-10.8l6.1-10.7 23.8-12.3c21.9-11.4 24.6-12.5 33.8-14.3l9.9-1.9 2.2 2.8a52 52 0 0 0 14.9 13.8l6.2 3.8 24.1.4 24.1.4 2.4-6.7c2.7-7.8 5.7-10.5 11.7-10.5 2.1 0 14.4-.9 27.3-2 21-1.8 23.7-2.2 26.9-4.4q3.5-2.3 4.8-6.5c2.1-7.2 10.3-14.1 30.8-26.3a105 105 0 0 1 28.9-13.9L756 810h35.3l35.2-.1 8.4-9.2a27212 27212 0 0 0 188.9-221.1c-.2-.1-13.8.1-30.3.6l-30 .8L857 548.4l-106.6-32.7-10.9-12.2a63 63 0 0 0-17.5-15.6c-5.8-3-7.8-5-18.3-17.9a803 803 0 0 1-26.5-34.4c-3-3.8-6.9-10.1-8.5-14s-5.2-10.3-7.8-14.3c-2.7-4-4.9-7.7-4.9-8.3s3.8-6.7 8.5-13.5 8.5-12.5 8.5-12.8-2.5-.9-5.5-1.2c-4.2-.6-5.8-1.3-7-3.1q-1.5-2.5-4.8-2.4a11 11 0 0 1-4.6-.9c-1.9-1.2-7 .6-10.2 3.6-2.4 2.2-3.6 2.4-13.8 2.8q-11.3.3-13.4 1.8-5.5 3.6-15.1.4l-5.9-2 .7-14.9c.4-9.3.3-16.3-.4-18.7-.8-3-.7-4.8.5-8.1a29 29 0 0 0 1.5-7.6c0-1.9.4-3.4.9-3.4 2.5 0 11.7-11 19.7-23.5 4.9-7.7 10.4-15.3 12.2-16.9q3.1-2.8 3.2-5.3c0-1.4 1-4.1 2.1-6l2.2-3.5-4.4-4.5a41 41 0 0 0-8.3-6.5A236 236 0 0 1 600 232a223 223 0 0 0-27.1-24.5c-11.1-7.5-13.5-9.9-16.9-16.5-2-4-3.8-6-6.3-7.2q-3.4-1.6-19.4-21l-15.9-19.3-18.5-7.2c-10.1-4-19.4-7.1-20.7-6.9-1.9.3-2.8-.6-5.2-5.4-2.7-5.3-3.2-5.8-5.4-5.2-1.4.4-3.5 2.3-4.8 4.2-3.2 4.7-8.1 5.3-12.6 1.5A42 42 0 0 0 429 117c-2.8 0-3 .2-3 4q0 7.3-6.2 3.7c-2.2-1.3-2.8-1.3-2.8-.3 0 .8-1.1 1.7-2.5 2a7 7 0 0 0-3.7 3.2c-.6 1.3-1.6 2.3-2.2 2.1-1.2-.4-1.2-1.7-.2-5.7q.6-2.5-1.3-5.7c-2.8-4.5-5.9-6.2-10.3-5.6-3.1.4-3.9 1-4.5 3.4-1.2 4.2-11.5 11.9-16.2 11.9-2.2 0-5.8 1.3-9.5 3.4-5.2 3-6.2 3.2-9.2 2.3-2-.6-4.5-2.6-6.1-4.6-1.4-2-3.9-5-5.4-6.6a14 14 0 0 1-3.1-5.5c-.2-2-.9-2.6-3.3-2.7-5.6-.5-13.5-2.4-13.5-3.3 0-1.3-5.9-7.9-8.2-9.1-1.6-.9-2.1-.4-3.7 3.3"/></svg>