<svg xmlns="http://www.w3.org/2000/svg" width="1365.333" height="1365.333" viewBox="0 0 1024 1024"><path d="M671.3 152c-2.9 1.7-5.7 3-6.2 3s-4.8 1.8-9.4 4c-4.9 2.3-9.1 3.7-10.3 3.4s-2.6.1-3.3 1c-.8.9-1.9 1.6-2.5 1.6-2.2 0-5.6 4.5-5.6 7.4 0 1.5-.4 2.5-1 2.1s-1-1.5-1-2.6c0-1-.4-1.9-1-1.9q-.9.1-1 1.9t-2.7 2.4q-5.5 1-1.8-2.1c1.1-.9 2.9-2.7 3.9-4l1.9-2.2h-3.2q-3.4-.1-3.8 1.9c-.3 1.1-1.9 2.5-3.7 3.1-3 1.2-12.6 2.1-12.6 1.3s4.5-4.2 5.8-4.3c2 0 1.3-3-.7-3-1.1 0-2.3-.5-2.6-1-.9-1.4-4.5-1.2-4.3.2q.3 1.3-3.5 1.3c-2.8 0-4.4.6-5.7 2.2q-3.8 4.9-2.6-1.2c.7-3.4.6-3.5-1.4-2.3-1.2.7-2.6 3.2-3.2 5.5-1.1 4.6-2.7 5.6-3.5 2.3-.6-2.3-.8-2.4-3.5-.9q-2.2 1.1-.8 1.9c1.7 1.1.3 3.1-1.7 2.3q-1.5-.5-2.5 1.1c-.9 1.6-1.1 1.6-2.4-.1-.7-1-1.4-2.6-1.4-3.6s-.8-1.7-2-1.7c-2.4 0-2.5.7-.4 4.8 1.7 3.5.9 6.6-1 4a8 8 0 0 0-2.8-2.1c-1-.3-1.8-1.5-1.8-2.6s-.4-2.2-.9-2.6c-1.3-.8-1.8 8.6-.6 10.7 1.3 2.3-.1 3.4-2.1 1.7q-1.5-1.3-1.1-4.2.8-4.9-4.9-3.3c-2.6.7-2.6.7-.7 2.1 1.1.8 2.3 2.4 2.6 3.6.5 1.8.3 2-2.1 1.4a8 8 0 0 1-3.5-1.8q-.7-1.4-2 .4c-1.2 1.5-1.4 1.5-3.6-.2-2.8-2.3-4.5-1.5-3.8 1.7.3 1.8-.3 3.1-2.5 4.9-1.6 1.4-2.6 2.9-2.3 3.5 1.1 1.8-2.7 2.4-4 .6-1.1-1.5-1.3-1.2-2 2-.4 2.2-.2 4.1.4 4.7s1.1 2 1 3.1c0 2-.1 2-1.6-.2-.8-1.2-1.9-2.2-2.3-2.2s-1.1 1-1.4 2.2l-.7 2.3-1.1-2.3c-1.4-2.8-1.9-2.8-4.8.3l-2.3 2.4 3.7 4.1c2 2.2 3.6 4.2 3.6 4.5s-1.6.5-3.5.5c-2 0-3.4-.5-3.2-1.1q0-1.1-1.6-2.2c-1.4-1-2.1-.9-3 .3-2.3 2.9-6.4 4.3-11 3.7-2.5-.4-4.8-.2-5.4.4q-1.2 1.1-1.7 0c-.4-.6-1.6-1.1-2.7-1.1s-3.3-.6-4.8-1.4c-2.6-1.4-3.2-1.3-9.7 2.1-7.5 4-13.9 5.6-22.2 5.7-4.7.1-5.8.5-8.6 3.4-3 3-3.5 3.2-5.9 2.1s-6.8-.6-11.9 1.6q-1.9.8-1.8-.9c0-2.5-3.8-1.9-6.6 1.1-1.3 1.4-2.7 2.3-3.1 2-1-1.1-3.3 1.4-3.3 3.5a3 3 0 0 0 1.5 2.5c1.2.4.8 1.1-1.7 3-3.7 2.6-5.4 7.8-3.5 10.2q1.6 1.7-.8.7c-1.1-.5-2.8-1.1-3.7-1.3q-1.7-.6-1.8-1.4c0-1.2-5.1-1.1-6.9 0q-1.4.9-.9 4.5t-.9 3.6c-.7 0-1.8 1.9-2.4 4.2-.7 2.4-1.7 4.7-2.2 5.3q-.9.9-.3-1.1 1.7-5.5-4.5-5.4c-3.1 0-4.5.7-7.4 3.5-1.9 2-3.5 4.2-3.5 5s-2.5 2.6-5.5 4c-7.7 3.7-15.1 3.3-17.4-.9q-2.7-5-4.6-.7c-1.8 3.8-6.4 1.7-4.9-2.3.7-1.7-2.2-4.6-4.5-4.6-2.6 0-8.4 2.1-10 3.6-1.2 1.1-1.2 1.5.2 2.8.9.9 1.9 2.5 2.2 3.6.8 2.6 3.2 2.6 4 0a3 3 0 0 1 2.7-2q2.2 0 1.1 1.2c-.5.7-1.7 3.4-2.7 6-1.3 3.5-2.3 4.8-3.7 4.8q-2 0-1.9 2.4c0 1.3-.7 2.7-1.6 3q-3.6 1.4-1.3-1c1.1-1.4 1-1.8-.6-3-1.7-1.3-2.2-1.1-4.7 1.3-1.5 1.4-3 3.5-3.4 4.5q-.6 1.6-1.4 1.3c-1.5-.9-1.9 4-.5 6.2.8 1.2 1.7 4 2.1 6.2.5 3.4 1.1 4.1 3.5 4.6 3.2.7 9.5-1 12-3.2 3-2.5 13.3-1.4 14.9 1.7q1 1.8-.7 4.8c-1.6 2.8-1.6 3.2.1 7.1 1 2.2 2.7 4.8 3.7 5.6a73 73 0 0 1 6.3 13.3 79 79 0 0 0 7.5 15.1l2.9 3.5 7.8-1.2c4.3-.7 8.8-1.9 10.1-2.7 2.3-1.5 3.2-4.5 1.4-4.5-1.5 0-4.2-3.1-3.6-4.1q.8-.8 2.6-.9c2.3 0 3.9-3.5 3.2-7.2-.4-2.3-.1-2.7 2.6-3.3 1.7-.4 3.1-1.2 3.1-2 0-.7 1.1-1.6 2.5-1.9 1.4-.4 3-1.7 3.4-2.9 1.5-3.8 3.5-4.9 7.2-4 2.7.7 4.1 2 5.6 5.1 0 .2 1.1-.3 2.3-1 2.3-1.4 2.2-1.4 6.6 4.7q1.3 2 4.9 1.7 3.5-.3 5.5 1.8c2.5 2.5 4.5 2.5 9.3 0 2-1.1 4.8-2 6.1-2 2.6 0 3.9-2 3-4.5q-.7-1.5-4.4-1.5c-2.2 0-4.2-.5-4.5-1q-2-2.8-3.1 2.5c-.3 1.9-1 3.5-1.5 3.5-1.5 0-1.4-.3 6.5-17 1.7-3.6 7.4-7.1 11.1-6.8 2.7.3 3.3-.2 6-5.4q3-5.9 5.8-6.7c1.5-.6 3.6-2.6 4.8-4.5q4-7 13.9-8.1c4.7-.6 6.6-.3 12.1 2 3.7 1.4 7.9 3.9 9.4 5.6q2.9 2.8 5.6 2.9c3.1 0 4.8 1.8 2.9 3q-1.1.8-.7 1.7c.4.9-1.8 2.1-4.7 3.6s-6.8 4.3-8.6 6.2l-3.3 3.4 2.4 1q2.4 1 4-.5c.8-.8 2.6-1.4 4-1.4s6.4-.8 11.3-1.7c8.8-1.7 8.9-1.7 12.7.5q6.4 3.7 10.3.7c1.2-.9 4.2-1.5 7.4-1.5a20 20 0 0 0 7.2-1c2.5-1.3 5-.3 5 2.1q0 1.7.7 1.9c1 0 13.6-7.1 15.8-9 3.2-2.7 9-5.7 12.5-6.5q3.1-.8 3.7-2.6c.7-2.4 4.4-3.4 7.2-2 1.3.7 4 .9 7 .5 4.4-.6 5.4-.3 9.5 2.6q4.7 3.1 7.4 2.8c2.1-.2 2.8.2 3 1.9.4 2.4 4.7 5.7 6.3 4.8.5-.4 1.7-.1 2.6.6 1.4 1.2 1.5.9.8-2.9-.6-3.9-.5-4.2 1.5-4.2q2.2.1 2.7 2c.7 2.6 2.4 2.1 4-1.1 1.2-2.2 1-2.6-1.5-4.6l-5.9-4.8c-1.8-1.5-3-3.2-2.7-4s.1-2.3-.6-3.4c-.9-1.7-2-2.1-6-2.1-5.6 0-6.8-1.9-2.5-3.8 1.4-.6 2.5-2 2.5-3 0-1.1.9-2.7 2-3.7s2-2.4 2-3 1.1-2 2.5-2.9c1.5-1 2.5-2.6 2.5-4s.7-2.9 1.5-3.6 1.5-2.7 1.5-4.6q0-3.4 2.2-4.8c2.6-1.8 5-9.8 4.2-13.8-.5-2.4-.9-2.7-3.2-2.2-1.5.4-4.5 2.6-6.7 4.9-3 3.1-5.7 4.8-10.5 6.4a38 38 0 0 0-18.4 11.8c-3.3 3.2-7.3 6.6-8.7 7.5s-4 4.6-5.7 8.2-3.6 6.6-4.2 6.6q-.9.2-1 1.2c0 .7-2.1 2.1-4.6 3.2a20 20 0 0 0-8.6 7.2c-3 4-5 5.6-7.8 6.4a9 9 0 0 0-6 4.5c-2.5 4-2.7 4.1-5 2-1.5-1.3-2.8-1.4-8.1-.6-3.4.6-6.5.9-6.7.6-.3-.2.2-1.5 1-2.7 1.5-2.4 1.3-9.4-.3-10.4-1.4-.8-1.1-2.4.5-2.4.7 0 3.4-3.2 5.9-7q4.5-7.1 9.1-10c4.3-2.7 5.9-5 3.6-5-.5 0 .2-1.2 1.5-2.6 1.7-1.9 2.3-3.3 1.9-5.2-.6-2.8 2.5-7.2 4.9-7.2.7 0 2-.9 3-2s2.6-2 3.7-2c1 0 2.4-.9 3-2 1-1.8 10.7-7 13.1-7 2.7 0 10.4-7 12.6-11.5 1.3-2.8 3.3-6.4 4.3-8 1.1-1.7 2.4-4 3-5.3.5-1.2 2-2.7 3.4-3.3q2.3-1.2 3.6-5.2c.6-2.3 2.3-5.5 3.6-7.2s2.7-4.9 3.2-7.1q.7-4 2.7-4.2a31 31 0 0 0 7.8-6.3c6.2-6.3 8.5-7.9 11.4-7.9 1.1 0 3.2-1.4 4.9-3.1 1.6-1.8 6.1-4.7 9.9-6.5l8.5-4.3c.8-.5 2.3-1.2 3.3-1.5q1.5-.6 1.7-2.1c0-2.5-6-1.8-11.7 1.5m-213.6 15.8c-2 2.2-2.2 5.2-.3 5.2.7 0 2.5-.9 4-2.1 2.1-1.7 2.4-2.4 1.5-3.5q-2.4-2.9-5.2.4m221.5 60c-8 4.1-13.5 9.7-14.6 14.9q-1.1 5.5 3.7 1.8c2.1-1.6 4.7-1 4.7 1.1 0 1.7 2 1.8 7.2.2 5.2-1.5 6.3-3.7 4.3-8.5-1.6-3.8-1.6-3.9 2.6-6.3.9-.5 1.9-2.3 2.1-4 .6-4-.8-3.9-10 .8m-336.6 24.7c-1.1.8-2.8 1.5-3.8 1.5s-1.8.7-1.8 1.5c0 2.5 7.6 1.9 13.7-1.1 2.9-1.5 5.3-2.8 5.3-3 0-1.2-11.8-.1-13.4 1.1"/><path d="M653.4 267.5q-.6 1.5-2.8.9c-2.9-.7-5 1.8-4.1 4.7.6 1.9.4 2.1-1.3 1.6-2.3-.5-4.8 1.6-3.7 3.3.8 1.3 5.1 1.3 7.8-.1 4.3-2.2 7.7-6.2 7.7-9.1 0-3-2.6-4-3.6-1.3m-544.2 11.2c.6 4.4 1.1 3.8-16.8 20.8-8 7.5-9.2 8.3-9.7 6.6-.6-2.6-2.7-2.8-2.7-.3a5 5 0 0 1-1.2 3c-2.1 2.1 1.1 3.4 7.1 2.7s8.1-1.8 8.1-4.7c0-1 4.7-6.6 11-12.9a89 89 0 0 0 11-12.3c0-1.2-3.2-4.6-5.9-6.1-1.1-.7-1.3 0-.9 3.2m583 8.7c-2.9 1.7-6.7 4.8-8.5 6.7s-4.9 4.7-6.9 6.3a31 31 0 0 0-6.4 7.4c-1.5 2.6-4.2 6.4-6 8.4s-3.8 5.6-4.4 7.8c-.8 3.1-3.3 6.5-9.6 13-4.6 4.8-8.4 9.4-8.4 10.2s.9 2.7 2.1 4.2q2.1 2.6 1.5 5.1-.8 2.5 1.5 3.5c1.7 1 2.7.7 5.8-1.4 2-1.4 4.3-2.6 5-2.6 2.3 0 7.6-3.2 11.2-6.9 8.4-8.3 12.8-12.1 14.3-12.1.8 0 3-1.8 4.7-4 2.6-3.2 3.9-4 6.6-4 3.1 0 3.3-.2 3.3-3.4 0-4.1 3.3-10.2 5.9-10.9q2-.3 1.4-2.9c-.4-2.2 0-2.6 2.8-3.2l3.3-.6-4.2-4.3c-3.5-3.6-4.2-4.9-4.2-8.2 0-4.1-2.7-10.7-4.5-11.1-.5-.1-3.4 1.2-6.3 3m49.1 12.3c.3 5.8.6 6.8 2.3 7.1 1 .1 2.5-.2 3.3-.7 1.1-.7 1-1.3-.4-3.5a8 8 0 0 1-1.3-5c.4-2.1-1.6-4.6-3.7-4.6-.3 0-.4 3-.2 6.7m-22.7-.5c-1.8 1-1.8 1.2-.2 2.3 1.5 1.1 1.4 1.4-.9 2.9-1.4.9-2.5 2.3-2.5 3.1 0 1.9 4.2 4.8 5.1 3.4q.8-1 4.4-.3c3.7.7 3.8.6 3.2-1.9q-.8-2.6.9-3.1c2.4-.9 5.4-.7 5.4.4q.1.9 1 1 1-.2 1-1.9c0-1.1.5-2.3 1-2.6 1.3-.8 1.3-4.5 0-4.5-.6 0-2.6.7-4.5 1.4-3 1.3-3.8 1.3-6.2.1-3.3-1.8-5.1-1.8-7.7-.3M273 303.4c0 .7.6 1.9 1.4 2.6.8.6 1.3 1.7 1 2.3-.5 1.6 7.7 6 8.9 4.8.5-.5.6-2.8.2-5-.6-3.5-1-4.1-2.6-3.6-1.1.4-3.3-.1-5.1-.9-3.8-1.9-3.8-1.9-3.8-.2M76.9 315.6c-.7.9-1.9 3.1-2.4 4.8-.8 2.4-1.5 3-3.2 2.8s-2.3.3-2.8 3.2c-1 5 1.6 8.1 3 3.6.3-1.1 1.3-2 2.1-2 1.8 0 5.4-3.6 5.4-5.4 0-.8.5-1.8 1-2.1 1.4-.8 1.3-2.8-.3-4.9-1.2-1.7-1.4-1.7-2.8 0M55 338.4c-1.6 2-.9 6 1.3 6.4q1.8.4 1.7-1.8.1-2.1 2-2.7t2-1.9c0-1.9-5.4-1.8-7 0m-1.2 9.6c-2.3 1.4-6.1 7.7-5.3 9 1.2 1.9 3.5 1 5.1-2.3 1-1.7 2.4-3.7 3.2-4.3s1.2-1.6.8-2.2c-.9-1.4-1.6-1.5-3.8-.2m-22.1 21.9a41 41 0 0 0-5.5 8.4 17 17 0 0 1-3.1 5.1c-.6.4-1.1 1.6-1.1 2.6s-1.1 3.1-2.4 4.7c-2.1 2.5-4.1 9.4-2.7 9.2 1 0 9.1-11.9 9.1-13.3 0-.7.7-2 1.6-2.7 1.4-1.1 1.8-1 3 .5 1.2 1.7 1.3 1.7 2-.9q.6-2.7 5.6-5.7c5.2-3.2 9.8-10.1 7.6-11.4-1-.7-1.7 0-5.4 5.1-2 2.7-5 .8-4.6-2.9.2-1.4.1-2.6-.1-2.6s-2.1 1.8-4 3.9M895 388.4c0 .7.7 1.9 1.5 2.6s1.5 2.3 1.5 3.6c0 2 .5 2.4 2.9 2.4 1.6 0 4.3.3 6 .6 4.5.9 4.2 4.5-.8 9.9a15 15 0 0 0-4.6 8.9q-1.4 9.5 2.6 9.6c1.9 0 2.1-.4 1.5-4.4-.8-5 .2-6.4 6.4-9.6 11.3-5.8 8.7-17.1-4.3-18.6-4.9-.6-6.2-1.2-8-3.5-2.2-3.1-4.7-3.8-4.7-1.5m-371.8 22.9q-5.7 1.8-3.3 8.9 1.2 3.2.5 15.2l-.7 11.9 3.9-2.2c6.2-3.5 8-5.4 10.9-11.1 2.5-5 2.7-6.1 2.2-13.6-.2-4.5-.8-8.7-1.1-9.3-.9-1.4-8-1.3-12.4.2M.7 412.4c-.4 1-.7 4.4-.7 7.7 0 5.2.2 5.9 2 5.9 1 0 2.3-.7 2.8-1.7.9-1.5 1-1.4 1.6.4.4 1.1.2 3.2-.4 4.7-1.5 4.1-1.3 4.6 2.5 4.6 4 0 4.4-1.3 2.1-7.8-1.2-3.5-1.2-4.3 0-6.1a6 6 0 0 0 .8-4.8c-1.1-4.5-1.5-4.6-4.5-1.7-1.6 1.5-2.9 2.3-2.9 1.8q-.1-1.1-1.3-2.8c-1.3-1.8-1.4-1.8-2-.2M248 428.1c0 1.2-2 4.2-4.6 6.8-4.2 4.2-4.7 4.4-5.9 2.8-1-1.5-1.4-1.5-2.4-.3-.9 1-3.7 1.4-11.4 1.2-5.6-.1-10.8-.5-11.4-.9q-1.3-.9-1.3 1.4c0 3.4-4.9 9.8-8.7 11.4-1.8.8-3.3 1.9-3.3 2.4 0 1.5-6.6 1.4-10.8-.1-3.1-1.2-3.6-1.1-5.1.9-1.6 1.9-1.9 2-4.3.5-2.4-1.4-2.8-1.4-5.4.7q-2.8 2.2-3.8 1.1c-.5-.5-2.6-1-4.5-1l-3.6-.1 2.5-2.2c2-1.7 2.6-3.3 2.8-7.5.3-5.1.2-5.3-1.8-4.2a9 9 0 0 0-3.2 3.6c-1 2.2-1.7 2.5-4.3 2-4.4-.9-7.3 2.2-5.7 6 1.9 4 1.5 5.4-1.5 5.4-1.6 0-3.5-.4-4.3-.9-2.5-1.7-3.1 0-.9 2.7 2 2.6 2 2.7.2 3-2.3.5-6.3 4.1-6.3 5.8 0 2.4-2.2 2.7-4.9.7a19 19 0 0 0-7.5-2.7c-4.4-.7-5.1-.5-6.7 1.5-1.6 2.2-1.8 2.2-4.2.6-2.3-1.5-2.6-1.5-4.2.3a10 10 0 0 1-3.5 2.5c-.9.3-2.2 1.7-2.8 3-1.4 3.1-4.4 3.2-5.7.3-.6-1.2-1.5-2.3-2.2-2.5-1.5-.5-3.3 5.9-3.3 11.9 0 2.7-.5 5-1.2 5.5s-1.8 1.7-2.4 2.7-3 2.5-5.5 3.3c-4.7 1.4-9.1 4.7-10.2 7.7-.6 1.5-1.4 1.7-4.7 1.2-4.2-.7-4.8 0-3 3.5q1.3 2-.5 1.9c-1.9 0-2 2.4-.2 3.9.8.6 2.8 1.4 4.6 1.7q3.2.7 3.7 3t2.6 2.4c1.8 0 2 .5 1.4 3.1-.3 1.7-.6 4.3-.6 5.8 0 2.2-1.1 3.3-5.7 6.1-7.5 4.6-9.4 6.8-9.1 10.5.3 2.7-.1 3.1-3.3 3.9a8 8 0 0 0-5.2 3.9c-1.6 2.6-2.1 2.9-5.3 2.4-6.3-1-8.9.1-11.1 4.6s-2 7.9.3 7q1.3-.4 1.4 1.1-.1 1.5-1.6 1.6-1.3.1-.9 1c.4.6-.5 2.4-1.9 4.1-3 3.6-3.2 5.1-.9 7.4q1.8 1.8.4 2.4-1.5.7 2.8 5.5c2.3 2.6 4.1 5.6 4.1 6.7q-.1 2 3.1 2.6c5.1 1 6.8 8.3 1.9 8.3-2.5 0-2.8 3.8-.2 4.7.9.3 3.1 1.8 4.7 3.3 3.1 2.8 11.2 5 18.6 5q3.8 0 4.4 1.7c1 3.3 5.4 7.3 8.2 7.8l15.8 2c7.2.9 15.3 2.2 18 3 2.8.8 9.3 2.4 14.5 3.6s11.1 2.7 13 3.4a82 82 0 0 0 19.8 5.5q3.3 0 3.2 1.5.1 1.3 1 1.5c.6 0 1.6 1.2 2.2 2.6l1.2 2.5 1.8-2.3 1.8-2.3 1.9 2.3q1.9 2.2 5.5 2.2c2.9 0 3.8-.5 5.1-3 1.9-3.7 4.2-3.9 5.1-.5q.9 4.3 3.4 1c1.6-1.9 4-2 4-.1 0 1.6 2.4 2.8 3.5 1.8a28 28 0 0 1 7.8-.8c4 0 8.2-.6 9.4-1.2 3.6-2 10.6-1.5 12 .8 1.1 1.6 1.7 1.8 4.2.9a34 34 0 0 0 13.8-12.6c1.2-3 1.7-3.3 5.8-3.3 5.2 0 9-2.9 8.2-6.1q-.7-2 2-2.5c1.3-.4 3-.1 3.6.5 1.5 1.5 3.7 1.4 3.7-.2 0-1.7 7.3-9.7 8.8-9.7q1.1.2 2.5 2c2.5 3.6 9.4.2 8.5-4.2-.4-2 6.5-1.3 7.7.8.6.9 2.3 3.2 3.9 5.1l2.9 3.4 2.3-2.2c1.3-1.3 2.4-3 2.4-3.9 0-2.1 7.3-7.3 9.6-6.8.9.1 2.6 1.5 3.7 3 1.7 2.3 1.8 3 .7 4.3-.7.8-1 1.8-.7 2.1.6.6 13.2-2.3 15.8-3.6 1.5-.9 3.8-4.9 5.9-10.7q2.1-5.4 4.8.3c.7 1.3 1.5 2.4 1.9 2.4.5 0 2.3-1.9 4.2-4.1 2.5-3 3.1-4.3 2.2-5.2q-2.9-2.7 1.9-5.6c2.8-1.7 2.9-1.9 1.2-3.4s-1.9-1.3-5 2.3c-1.7 2.1-3.2 4.8-3.2 5.9 0 2.7-4 3-4 .3 0-.9-.7-2.6-1.5-3.6a6 6 0 0 1-.9-4.3c.5-1.7-.1-2.9-2.5-5q-5.2-4.5-1.5-5.7c1.5-.6 1.5-.8-.2-2.7a23 23 0 0 0-6.1-3.9c-4.7-2-4.8-2.2-3.4-4.8.6-.9 1.2-2.9 1.6-4.5.6-3 2.6-3.5 4.5-1.3.6.8 1.8 1.2 2.6.9q1.6-.6.5-1.6-3-3 2.5-7.2 3.7-2.7 2.5-3.8-1-1-3.6.1-4.3 1.9-.9-1.9 3.2-3.7-3.2-3.9c-3.8 0-4-.4-1.9-5.3 1.3-3.1 1.3-3.6-.1-4.1a9 9 0 0 0-4 0q-2.6.8-2.4-1 0-1.5-2.5-1.6c-2.3 0-2.4-.2-1.3-2.5.6-1.4 2.2-3.2 3.5-4q2.2-1.6 2.3-4.2a31 31 0 0 1 2.9-8.8c2.6-5.4 2.8-6.5 1.8-9.7-.9-2.7-2.2-4.1-6.1-6.1a56 56 0 0 0-7.3-3.2c-2.8-.8-7.3-6-7.3-8.6s-6.8-5.9-11.8-5.9q-3.8 0-7.2-2.5a13 13 0 0 0-5.8-2.5c-2.1 0-2.2-.2-1.2-1.5q1.6-1.6-.4-1.5-1.5-.1-1.6-1.6c-.1-1.5-.9-1.8-2-2.1-2-.5-2.8-2.3-1-2.3q1-.2 1-1.5c0-1.8-2.6-2-3.7-.3q-.8 1.1-1.3-3.2c-.5-4.1-1-4.8-5.4-7.8-6.2-4.1-9.2-3.9-12.4.8-3 4.5-4 4.8-5.2 1.5-1.8-4.8-1.2-9.1 1.5-10.9 3.2-2.1 3.2-5.1-.2-12-2.3-4.7-3-5.5-4.8-5s-2.2.1-2.1-1.8q.1-2.3-1.9-2.6c-1.1-.2-2.4-1-2.8-1.8-1.2-2.2-3.7-1.7-3.7.7m661.3 1.6c-.7.2-1.3 1.3-1.3 2.3q-.1 2 3.4 2.6 7.5 1.2 3.5-3.2c-2.2-2.4-3.3-2.7-5.6-1.7m-49.6 25.1c-1.6 1.7-1.5 2 1.3 4.7 2.9 2.8 3 2.8 5 1 1.1-1 2-3.1 2-4.7 0-2.5-.3-2.8-3.3-2.8-2 0-4.1.8-5 1.8m-432.3 1c-1.5.9-3.4 4.7-3.4 6.5 0 2.3 3.1 2.9 5.2 1 3.2-2.9 1.5-9.8-1.8-7.5m535.8 18.9q.5 1.6 1.8 1.8c1.3.2 1.6-.8 1.8-1.8q.4-1.7-1.8-1.7c-2.2 0-2 .5-1.8 1.7m-601.5 14c-.2.5-.1 1.9.2 3.2.6 2.1.8 2.2 2 .7.7-.8 1.1-2.3.7-3.1-.6-1.6-2.2-2-2.9-.8m72.7 5.8c-.5 1.9.4 4.1 3.2 8.7 4.1 6.5 7.2 9 5.9 4.7-1.4-4.4-7-15.9-7.7-15.9-.4 0-1 1.1-1.4 2.5m-50.9 8.2c-6.1 3-10 14-6 17.3.8.7 1.5 2 1.5 2.9 0 2.5 2.3 7 3.9 7.6.8.3 2.7-.3 4.2-1.4s3.5-1.8 4.6-1.5q2 .6 4.3-2.3c1.9-2.4 2.1-3.8 1.8-9.4s-.8-7.1-3.7-10.7c-3.5-4.5-5.5-5-10.6-2.5m554 3.6c-2.7 2.1-1.3 6.7 2 6.7 2.2 0 2.5-.4 2.5-4 0-4.3-1.2-5-4.5-2.7m-566.9 17.4c-1.1 1.1-.6 4 .9 5.3.8.7 1.5 2.2 1.5 3.4 0 2.8 5.2 7.9 7.6 7.4q5.2-1-2.5-8.3a21 21 0 0 1-5.1-6.1c0-1.5-1.5-2.6-2.4-1.7m452.2.9a6.7 6.7 0 0 0-2.9 9c.9 2 1.8 2.4 5.4 2.4 4.1 0 4.7-.3 7.1-4 3.1-4.7 3.1-5.2.8-7.3s-6.8-2.1-10.4-.1M469 536.1c-1.4 2.5-.4 7.5 1.6 8.3q1.3.3 1.4-.8 0-1.4 1.9-.9c3.1.8 3.8-3.3 1-6.3q-4-4.3-5.9-.3m57.9 1.6c-.2 3.1.2 4.7 2.7 10 2.1 4.6 2.8 5.3 5.4 5.3q5.2-.1 3-6.6c-.6-1.6-.9-4.3-.5-6 .5-2.9.3-3.2-2.6-3.8-5.5-1.1-7.9-.7-8 1.1m-31 39.8c-4.8 2.6-7.9 10.3-6.5 16 .5 2 1.3 2.5 3.6 2.5 2.7 0 3-.3 3-3 0-3 0-3 2.5-1.4 3.3 2.1 7.4 9.1 10.1 16.8 1.6 4.9 2.5 6.2 4.4 6.4 5.6.9 7.3-6.8 4.5-19.5-2.9-12.8-3.1-13.1-9.6-16.3s-8.2-3.6-12-1.5m385.7 2.5-2.8 1.8 2 2c1.1 1.1 2.5 3 3.2 4.1 1.4 2.7 4.6 2.7 6 .1 1.2-2.2-.3-9-2-9l-2.2-.4c-.7-.3-2.6.4-4.2 1.4m51.6 55.6c-2.8 1.9-2.8 2.5.3 5.8 1.4 1.5 2.5 3.1 2.5 3.6s1.3 1.3 2.9 1.8c2.4.9 3.4.6 6.5-1.6 7.6-5.3 5.1-11.2-4.8-11.2-3 0-6.1.6-7.4 1.6m26.9 29.8c-.7.8-.8 1.7-.4 1.9 1.3.8 7.4-.7 7.6-1.8.3-1.6-5.8-1.8-7.2-.1m-726.7 11.8c-1.2.6-2.9 2.8-3.8 5.1-1.5 3.7-1.5 4.2.1 5.9 1.5 1.7 1.5 1.8-.6 1.8q-2.1 0-1.9 1.2c.6 1.9 8.5 2.2 11.1.5 1.2-.8 3.4-1.7 5-2.1 1.5-.3 2.7-1.2 2.7-2 0-2.2-2.1-7.6-3-7.6-1.1 0-2.1 3-1.4 4.1q.3.8-1 .9c-1.1 0-1.3-.8-.9-3.3.4-2.8.1-3.5-1.9-4.4q-2.3-1-4.4-.1m779.3 16.2c-4.1 1.1-4.4 2.9-.6 3.4 1.5.2 3.2-.5 4.3-1.7q3.4-3.6-3.7-1.7m-897 16.4c-2.6 2.9-2 5.7 2.3 10.7q4 4.6 4 7.4c0 2.8 2.6 6.1 4.8 6.1q2.4 0-.2-4.8a42 42 0 0 1-2-9.7c-.9-10.4-1.4-11.5-4.6-11.5-1.5 0-3.4.8-4.3 1.8M639 721.5c-.7.8-2 1.5-2.9 1.5-2.1 0-4.1 1.9-4.1 3.8 0 2.2 8.1 20.2 9.1 20.2 1.7 0 8.9-11.3 8.9-14q0-1-4-.4c-2.2.4-4 .3-4 0 0-.4 1.3-2.1 3-3.9 3.1-3.3 3.4-4.4 2.4-7.1-.8-2.1-6.7-2.1-8.4-.1m362.6 22.2c-1.2 1.2-.6 3.3.9 3.3q1.3-.1 1.5-1.4c0-1.7-1.4-2.8-2.4-1.9m-32.9 44q-.7.6-.7 2c0 .9 1.8 1.3 6.5 1.3 6.5 0 7.5-.6 5.3-2.8-1.3-1.3-10-1.7-11.1-.5m-56.6 4.6c-3 1.5-3.8 3.5-1.7 4.3 1.7.7 6.5-2.5 6.6-4.4q-.1-2.3-4.9.1m-598.4 7.5c-3.7 3.9-3.7 8.5.1 9.8 2.4.8 3.1.5 6.4-2.6 2.1-1.9 3.8-4.4 3.8-5.6 0-5-6.1-6-10.3-1.6m381.7 10.7q-2.1 1.4-3.3 7.5c-1.4 7-.8 10 2 10 1.4 0 2.3-1.4 3.6-6 2.5-8.4 6.2-7.9 6.3.9 0 2.1 2.3 5 4.1 5.1 1.4 0 2.9-5.5 2.9-10.5s-.2-5.5-2.4-5.5c-1.3 0-3.7-.7-5.2-1.5-3.6-1.9-5.4-1.9-8 0m206.1 1.2c-4.8.9-6.5 2.6-6.5 6.1 0 3.6 2.1 6.1 5.2 6.2 1.6 0 5.8-6 5.8-8.4 0-2.2-2.4-4.3-4.5-3.9m-623.9 1.9q-1.8 1.3-4.3.3c-3.9-1.5-4.3-1.1-4.3 3.6 0 3.3-.4 4.5-1.5 4.5q-1.4-.1-1.5-1.6.1-1.7-2.7-1.1c-17.4 3.2-18 3.5-18.9 11.3-1 9-1.1 9.3-5.2 10-2 .4-4.8 1.5-6.1 2.5-1.7 1.4-4 1.9-8.1 1.9-8.1 0-14.3 2.4-17.6 6.8-3.6 4.8-4.4 5.3-7.1 4.7-3.4-.8-3.5.9-.3 4 2.5 2.4 4.1 2.9 14 4.1 11.1 1.4 11.1 1.4 15.8-1.1 2.6-1.4 5.6-3.5 6.7-4.7l2-2.3.3 5.2c.2 4.3.6 5.3 2.1 5.3 2.8 0 8.6-8.5 7.1-10.5-.4-.6-1.5-3.4-2.6-6.3-1.8-5.2-1.8-5.4-.1-6.7a19 19 0 0 1 6-2c3.6-.5 4.7-1.4 7.7-5.6 1.9-2.7 4.2-4.9 4.9-4.9s2.7-1.2 4.3-2.7q2.8-2.8 4-1.5c.7.6 2.9 1.2 4.8 1.4 3 .2 3.5.7 3.3 2.5s.2 2.3 2.2 2.3q4 0 1.4 5.2c-1.3 2.4-.5 3.5 1.5 1.9 1.1-.9 2.4-1 5.3-.2 3.1.9 4 .8 4.9-.4q1.1-1.6 4.3-.9c2.7.6 3.1.4 3.1-1.5 0-2.4.4-2.5 3-1.1 1.5.8 2.1.6 2.9-.9.6-1.1 2.5-2.2 4.2-2.6a5 5 0 0 0 4-3.2c1.8-4.7 1.1-6.3-3.3-8.3q-7.7-3.4-7.8-.6c0 .7-.7 1.9-1.5 2.6-1.3 1-1.9 1-3.5-.5-1.1-1-2-2.6-2-3.5 0-1.2-.9-1.6-3.6-1.6q-3.6 0-5.2-2.1c-2.1-2.6-10-3.7-12.6-1.7m701.5 38.3c-2.8 3.8-2.6 6.3.4 8.9 1.4 1.2 2.5 2.6 2.5 3.2 0 1.5 3.6 1.2 5-.5 1-1.2.7-1.7-1.4-2.6s-2.6-1.9-2.6-4.5c0-1.8.5-3.6 1-3.9s1-1.3 1-2.1c0-2.5-3.8-1.5-5.9 1.5m-375.4 3.8c-2.7.4-2.7.6-2.1 5.2.5 3.6.2 5.5-1 7.3-1.6 2.5-1.6 2.5 2.7 4.2 5.3 2 7.1 2 9.1.1q1.5-1.5.9-4.9c-.3-1.9-.1-3.6.6-4 2.1-1.4 1.1-4.5-2.3-6.5-1.8-1.2-3.7-2-4.2-2zm415.9 3.5c-1.5 3.8-1.2 4.8 1.5 4.8 1.6 0 1.9-.7 1.9-4 0-4.8-1.5-5.2-3.4-.8M231 868.5c-1.9 2.2-.7 4.1 1.3 2.1 1.8-1.9 2.2-3.6.8-3.6q-.9.2-2.1 1.5m787 4.9c0 1.7 1.8 2.5 4.2 1.8q1.5-.5 1.1-1.8c-.7-1.8-5.3-1.8-5.3 0"/></svg>