<svg xmlns="http://www.w3.org/2000/svg" width="1365.333" height="1365.333" viewBox="0 0 1024 1024"><path d="M27.2 187.3c-1.6 4.6-1.8 4.3 3.6 6.3 2.8 1.1 6.2 3.5 8.4 6q6.2 6.8 10.8 4.4c1.9-1 1.9-1.3.5-4-1.3-2.4-2.2-3-4.9-3q-3.4 0-4.9-2.3a42 42 0 0 0-11-10.7c-.7 0-1.8 1.5-2.5 3.3m35.5 4.8q-.5 2.1 1.5 5c1.2 1.6 2 3 1.7 3.2l-3.6 2.6c-3 2-3.1 2.4-2.1 4.9 1.8 4.2 2.4 4.5 5.9 3.3 2.6-.9 3.6-.8 4.8.3 1.8 1.6 9.8 4.2 10.6 3.4.9-.8-3.6-10-6.7-13.9q-2.7-3.5-2.2-5.2.7-1.5-3.5-3.6c-5-2.6-5.7-2.6-6.4 0m59.5 26.6c-2.1 1.8-2 1.9 4.1 8.5 5.5 5.8 6.5 6.5 8.5 5.7 2.3-.9 2.2-1-3.8-8.4a104 104 0 0 0-6.5-7.5zm46.1 16c-.7.2-1.3 1.6-1.3 3 0 2.1.3 2.3 2.3 1.7q3.6-1.1 3.7-4.2c0-1.2-2.4-1.5-4.7-.5m91.2 12.2-4 .6 3 1.2a31 31 0 0 0 13.7.7q1.6-.6 1.8-2c0-1.5-6.4-1.7-14.5-.5M138 248.6c0 .9-1.6 3.1-3.6 4.9l-3.5 3.3 4.7.7c4.4.6 4.8.5 8.5-3.1 3.6-3.5 3.8-3.9 2.2-5.6-2.1-2.3-8.3-2.5-8.3-.2m167.1 0q-5.2 4 2.4 4.1 7.7-.2 2.1-4c-2.1-1.4-2.6-1.4-4.5-.1M140.5 268c-.3.5-1.5 1-2.6 1s-5.6 1.2-10.1 2.7c-7.3 2.5-7.9 2.9-5.2 3.4a25 25 0 0 0 17.5-1.7c4.9-2.5 5-2.6 3.3-4.5-2-2.2-2.1-2.2-2.9-.9m259.9 8.4c-2.1 1.6-2 1.7 5 3.5l3.9 1-2.8-2.9c-3.3-3.4-3.5-3.5-6.1-1.6m271.1 13.4c-.6 2.9-.3 3.8 2.1 6.3 2.6 2.7 2.6 3 1.1 4.7-2.3 2.6-2.1 3.3 1.7 6.2a54 54 0 0 1 13.6 21.5c2.4 5.8 4.3 8.9 7.1 11.3 3.5 3 3.9 3.8 3.9 8.2 0 7.2-.6 7.4-18.8 7.1-8.6-.1-16.7-.5-17.9-.8-2.8-.6-3 1.4-.9 7.5l1.5 4.1-4 2.3c-2.1 1.2-3.9 2.9-3.9 3.8s-1.3 2.6-2.9 3.8l-3 2.2-3-2.6a67 67 0 0 0-8.3-5.4c-4.8-2.6-5.3-2.7-7.5-1.3q-2.4 1.5-2.3 4.7c0 2.6-.7 3.6-4.4 5.9-4.1 2.6-4.3 2.9-4.2 7.3s.3 4.6 5.6 8c4.8 3 5.6 3.3 6.6 1.9 1.3-1.8 4.4-1.9 7.9-.3q4.5 2 .6 3.3c-2.2.7-4.6 3.3-3.8 4.1.3.3 2.7-.4 5.3-1.5 5.3-2.4 4.9-2.5 12.9 5.1 4.9 4.6 5.4 4.8 12.4 5.6 5.3.5 7.7 1.2 8.5 2.4q2.4 3.9-4 1.2a15 15 0 0 0-8-1c-3.6.5-4.4.2-6.9-2.4q-5.8-6-12.1.1c-2.8 2.7-3.1 3.4-2.4 6.6a17 17 0 0 0 3.3 6.2c2.8 3.1 5.2 8.6 4.2 10-.3.6-1.4 1.1-2.3 1.1q-1.7-.1 2.2 3.9c3.4 3.4 3.6 4.1 2.5 5.9-1 1.7-1 2.3 0 3.6q1.6 1.8 0 1.6-6 0-5.9-4.1c0-2.6-.3-2.9-3.2-2.9h-3.3l-.2-7.8a31 31 0 0 0-3.7-15.2l-4.5-10.2c-1.1-3-5.5-6.3-7.1-5.3q-.8.8 2.1 4.5c4.4 5.4 3.5 8-6.8 20.6l-8.5 10.4.9 5.2c.8 4.9 1 5.3 4.2 5.9 1.8.4 6.9 3.1 11.2 6 6.2 4.2 8.4 6.3 9.9 9.6 1.1 2.6 2.6 4.3 3.5 4.3 1 0 3.9 1.2 6.5 2.7 4.8 2.7 4.8 2.7 2.6 4.4l-2.1 1.8 3.3 1.1q4.9 1.8 2.2 3.5c-.5.3-.7 1.8-.4 3.3s-.4 5.2-1.5 8.4c-1 3.1-1.7 5.9-1.4 6.2s2.1.6 4 .6c3.6 0 3.6-.2 3.7 9a37 37 0 0 0 4.2 14.6l4.1 9.1-2.3 4.4c-2 4.1-2.6 4.5-7.5 5.4-4.8.9-5.4 1.3-5.7 3.8-.3 2.3-.8 2.7-3.4 2.7-2.9 0-3-.1-1.6-2.3 4.2-6.4 4.2-6.4 3-10.5-1.8-5.8-1.5-6.7 2.3-8.1 3.2-1.1 3.5-1.6 3.5-5.1 0-3.1-.4-4-2.1-4.5s-2-1.2-1.5-3.7c.7-3.4-1.9-9.8-4-9.8q-3.6 0-.4-5.9l2-4-5.4-4.1-5.5-4.2-4.6 3.2c-2.5 1.7-5 2.8-5.6 2.5-.5-.4-2.1 0-3.4.9s-3.7 1.6-5.3 1.6c-2.6 0-3 .5-4.6 5.5-1.6 5.2-3.6 6.9-5.1 4.5-1-1.6-2.5-1.1-2.5.8 0 1-.7 2.7-1.6 3.8-1.5 1.9-1.5 1.9-1.1-.3q.5-2.1-1.9-4.4c-2.1-2-2.7-2.1-4.8-.9-1.4.7-4.1 3-6.2 5.1l-3.7 3.8 2.2 1.8c2 1.7 2.1 2.1 1 4.6l-1.3 2.8-1-3.2a11 11 0 0 0-3.3-4.7c-2.3-1.4-2.3-1.4-2.3 2.6 0 3.8-.1 4-4 4.6-4 .6-4 .7-4 5.1 0 3.6.5 4.8 2.4 6 2.1 1.4 2.2 1.9 1.2 4q-1 2.4-2.2 1.4-1.1-.9-2.4.5c-3.5 4.3-9.4 1.8-8.4-3.4.5-2.4.2-2.9-2.7-3.9l-3.7-1.1c-.2 0-.2 3.3 0 7.2.4 6.6.1 7.8-2.4 12.1a19 19 0 0 0-2.8 8.9v4.2l-2.8-2.7c-1.5-1.5-3.3-2.7-4-2.7-1.5 0-1.5-.6-.1-7 .6-2.8.9-5.4.6-5.6-.8-.8-6.7 4.7-9.8 9.2-1.6 2.4-3.6 4.4-4.4 4.4-2 0-1.9-.7.6-3.8 1.9-2.4 1.9-2.7.4-3-.9-.2-2.7.6-3.9 1.7a9 9 0 0 1-5.9 2.1c-3.4 0-3.9.4-6.2 4.9l-2.5 5 3.1 2.1q3 2.3 6.4 1.8l3.3-.4-1.7 2.6c-1 1.4-2.1 3.7-2.5 5.2-.5 2.4-.3 2.8 1.4 2.8q1.8 0 2 1c0 1.3-4.3 1.3-7.4-.1-2-1-2.4-1.7-1.9-3.9s0-3.1-1.7-4q-2-1-2.5-.8c-3 3.6-3.5 13.6-.7 16.1.9.8 3.9 2.4 6.7 3.4q4.8 1.9 5.3 3.7c.3 1.6 0 1.8-2.3 1.2s-2.8-.3-3.2 1.4c-.7 2.4-.6 2.4-7.3.1-3-1.1-7.2-2.2-9.3-2.6-3.4-.7-3.7-.9-2.3-2.4 1.3-1.5 1.1-1.9-2.6-4l-4.1-2.3-2.2 2.3c-1.6 1.7-2.7 4.9-3.8 10.9-1.4 7.7-1.4 8.5.1 9.6 2.1 1.5 8.9 1.6 12 .1 1.8-.9 2.6-.6 4.6 1.2 1.4 1.3 4 2.6 5.8 3 5.8 1.2 4 3.4-4.2 5.1-4.1.8-8.6 2.1-9.9 2.9-2.3 1.3-2.7 1.2-4.7-1.2l-3.6-4.6c-.7-1-3.1-2.3-5.3-2.7l-3.9-.7 6.4 7.3c3.6 4 8.8 8.5 11.7 10.2 9.9 5.6 9.3 8.8-.8 3.8-6-3.1-6.2-3.1-10-1.6-2.1.9-4.5 1.3-5.4 1-1.2-.5-1.5.2-1.5 3.5 0 2.3.1 4.1.3 4.1s2.7.8 5.6 1.9c4.4 1.5 5 2 3.3 2.5s-2 1.2-1.5 3.9c.7 4.1 2 5.7 4.5 5.7 1.1 0 3.5.7 5.4 1.6 3.1 1.5 3.4 2 3.4 6 0 3.7-.3 4.4-1.9 4.4-1 0-3.3 1.6-5.1 3.6-3.5 4-4.5 3.7-5.7-1.9q-.7-4.3-5.4-1.7c-1.8 1-1.8 1.2.7 6.2a87 87 0 0 1 3.9 8.9c1.3 3.5 1.2 3.8-.9 5.3-2.2 1.4-2.5 1.3-4.7-1l-2.3-2.4-2.2 2.1c-3.3 3.1-5.4 1.9-5.4-3.1 0-2.2-.5-4-1.1-4s-2.2-.9-3.6-2-4.3-2.3-6.5-2.6c-2.9-.5-3.7-1-3.4-2.3q3-10 2.1-14.7l-.6-3.6-2.5 2.3a7 7 0 0 0-2.4 5.7c0 1.9-.7 4.6-1.7 6.2-1.5 2.6-1.5 3 .7 6.5 1.3 2 3.6 4.2 5.2 4.7 2.7.9 2.8 1.2 1.5 3.2-4.5 6.9-4.5 6.2-.2 10.6 2.2 2.3 4.9 4 6.1 4q2.2 0 2.7 2.3c.4 1.2 2.4 4 4.6 6.1 3.9 3.9 4.1 3.9 4.9 1.7l.8-2.2 1.8 2a5 5 0 0 1 1.3 4.8q-.6 2.9 1.6 5.1c1.9 2 2 2.6.9 5.5s-1 3.3 1 4.9c3 2.3 10.5 2.4 13 .1q1.8-1.6 3.7-.7c1.8.8 1.7 1.3-2.1 7.9-4.6 8.1-5.4 11.3-3.3 13.9 1.3 1.7 1.6 1.8 3.8.3 2.2-1.4 2.7-1.4 4.6-.1 2 1.4 2.3 1.4 4.1-.8q1.8-2.1 2-3.1.2-.7 2.5-.7c2 0 2.5.5 2.5 2.4 0 1.3.7 2.9 1.5 3.6s1.3 2.1 1 3q-.7 1.8 2.7 3c1.8.8 3.4 1.4 3.6 1.6.2.1-.6 2-1.7 4.3a19 19 0 0 0-2.1 7.5v3.5l5.3-.5 7.1-.9c1-.2 4.1.7 6.7 2.1l4.9 2.4-1.5 3.7c-.8 2-1.4 3.7-1.3 3.8l6.6 1.5a28 28 0 0 1 6.2 1.7l-1.1 2.4c-.8 1.6-.6 2.3 1.3 3.9a9 9 0 0 0 4 2c2.4 0 11.6-3.7 15-6.1 3-2.1 3.4-3.5 1.8-5.9-.8-1.2-1.2-1.1-3.2.6-3.9 3.6-4.8 3.7-6.8 1.1-1-1.3-4.4-3.9-7.5-5.8-4.5-2.7-5.5-3.8-5.1-5.4.3-1.1.6-3 .6-4.3 0-1.8.5-2.2 3.3-2.2s3.7-.6 5.5-3.9q2.3-4 1.6-6.5l-.6-2.5-4.1 1.6c-2.3.9-5.8 2.7-7.9 3.9-3 1.9-3.8 2.1-4.8.9q-1.4-1.4 1.1-2c1.1-.4 5.4-3.5 9.5-6.9 5.9-4.9 7.4-6.7 7.4-8.8 0-2.5-.4-2.8-3.4-2.8a10 10 0 0 1-5.7-1.9c-1.9-1.6-2.1-2.1-1.1-3.4.7-.9 3-1.8 5-2.2 2-.3 4.8-1.5 6.2-2.5 2.3-1.8 2.4-2 .5-2-1.1 0-4.4-.6-7.3-1.4l-5.2-1.3-1.9 3.1c-1.1 1.7-4 5.1-6.5 7.6l-4.6 4.4v-3.3q0-3.3 2.5-6.3 5.2-6.5-1.1-2.9a14 14 0 0 1-5.5 2.1c-2 0-2 0 0-2.9 2.3-3.1 2.8-8.6 1-9.7-2.1-1.2 1.4-2.4 5.4-1.8 3.6.6 3.7.5 3.7-2.5q0-3.1-1.5-3.1c-.9 0-2.9-.7-4.5-1.5-2.5-1.3-3-2.2-3-5.1 0-1.9-.9-5.3-2-7.4s-1.8-4-1.5-4c2 0 7.5 4.9 8 7.2.9 3.9 2.9 5.1 7 4.4l3.5-.7-2.4-2.2c-1.8-1.6-2.5-3.6-3-7.7-.5-5-.4-5.3.9-3.6a9 9 0 0 1 1.5 2.8c0 1.6 5.2 2.9 6.7 1.7q2.9-2.7 4.1 5.2c.8 4.4.8 4.4 4.7 4.2q3.9-.3 7.8-3.4c2.3-1.9 4.4-2.8 5.4-2.4 1.3.4.4 1.9-4.6 6.9-5.4 5.4-6.1 6.6-5.6 8.9.4 1.5 1.1 2.7 1.6 2.7s2.7-1.8 4.9-4c3-3 4.6-3.9 7-3.7q3 .3 3.6 2 .5 2 1.9.7 2.4-1.7 2.5 4.9c0 1.5.9 5.5 2.1 8.8 1.6 4.9 2.6 6.3 5 7.3 2.6 1.1 3.2 1 4.4-.6a8 8 0 0 0 1.5-4.2c0-2.7.6-2.7 4.8-.2 1.8 1.1 4.1 2 5.1 2s2.4.7 3.1 1.5 3.8 2.4 7 3.6 6.9 3.2 8.1 4.5c1.9 2 2.4 2.1 3.3.9s1.6-1.3 4.3-.3c1.7.6 3.4 2 3.6 3q.5 1.8 3.5 1.8c1.8 0 4.4 1.2 6.7 3 3.5 2.8 4 2.9 5.4 1.5 1.5-1.5 1.3-1.9-2.3-4.9-2.9-2.5-3.7-3.8-3.2-5.3.6-1.7.3-2-1.9-1.5-2.1.3-2.5 0-2.5-1.8 0-1.2 1.2-3.7 2.7-5.6 2.2-3 2.4-3.7 1.2-4.5a34 34 0 0 0-15.1.5c-1.6.7-1.8.3-1.8-3.2 0-3.9 2.3-7.1 6.3-8.5q1.4-.3 0-2.5c-1.4-2.3-1.3-2.5 3.9-4.1 4.7-1.5 7-5 6.1-9.2-.6-3-.8-3.1-4.2-2.5-2 .3-4.3.6-5.2.6s-3.6 1.6-6 3.5c-4.8 3.8-5.9 3.3-5.9-2.3v-3.4l-5.5 4.7q-5.4 4.6-5.5 3.2c0-.8-.7-2-1.5-2.7-2.3-1.9-1.8-2.7 1.9-4 2.6-.8 3.8-2 5-5 1.4-3.4 1.8-3.8 3.8-3.1 3.7 1.3 9.7-1.6 10.7-5.3.4-1.7.7-3.2.6-3.4s-2.2.2-4.7.6c-3.4.7-5.3.5-7.3-.6q-2.9-1.4-7.1-.8c-3.8.5-4.4.3-5.9-2.1l-1.7-2.6 3.4.7c2.7.5 4.5 0 8.1-2 2.6-1.4 4.9-3 5.2-3.5s-1.3-3.6-3.6-7c-3.7-5.4-4-6.4-2.9-8.4.7-1.3.9-2.8.5-3.5s-2.5.8-5.8 4.4q-9.6 10-12.6 4c-1.5-3.4-1.4-4.2.9-7.1 1.6-2 1.7-2.8.7-4.5-1.5-2.5-11-7.3-16.2-8.1-3.6-.6-4.3-.3-7.7 3l-3.8 3.7V645a14 14 0 0 1 7.7-11.4c4.8-2.3 5.3-2.1 5.3 2.4v4h6.3q6.1 0 8.5 1.5c1.9 1.4 2.4 1.4 4.6 0 3.8-2.5 5.7-6.1 5-9.1q-.8-2.8.7-2.2c.8.3 2.2-.2 3.2-1 1.6-1.4 1.7-1.4 1.6.4-.6 5.6.1 6.1 5.2 4 1.4-.6 1.8.3 2.4 5 1.2 9.5 1.6 9.9 6.5 5.8 1.7-1.5 3.3-2.4 3.5-2.2a18 18 0 0 1 1.8 4.3c1.8 5.3 5.8 6.7 9.3 3.4l2.5-2.3 2.4 3.1q2.5 3 6 3.7l3.6.7-2.2 3-2.1 3 2.8 7.5c1.6 4.1 3.1 7.4 3.4 7.4s2.3-2.3 4.4-5 4-4.9 4.3-4.7 1.5 4.7 2.9 9.8c3.4 12.9 3.1 12.4 4.9 10.9.9-.7 3.4-4.1 5.6-7.6 4-6.1 6.2-8 8-6.8q.8.6.9 2c0 1.8 1.4 1.8 3-.1.9-1 .9-2.3.2-4.7-.6-1.8-1.3-5-1.7-7-.3-2.1-1.3-4.1-2.1-4.6s-1.4-1.8-1.2-2.8c.4-1.7.8-1.5 3.5 1.3 2.8 2.9 3.7 3.3 8.5 3.3 6.5 0 9.7-2.4 7.9-5.9-1.5-2.7-1.4-3.1 1-3.1 1.1 0 4 1.6 6.3 3.5 3.5 2.8 5 3.4 8.1 3.2 3.4-.2 3.9.1 4.5 2.3.4 1.4.1 3.7-.7 5.3-2.5 4.9.7 6.4 4.7 2.2 3.3-3.5 4.7-3.1 5.3 1.6.4 3 1.6 5.2 4.2 7.9l3.6 3.7-1.3 4.7c-1.2 4.5-1.2 4.7 1.4 6.9 1.4 1.2 3.2 3.3 3.9 4.7 1.2 2.5 1.2 2.5 2.8-2.1.9-2.6 2.3-5.4 3.1-6.4 1.3-1.5 1.2-1.9-.5-3.2-1.1-.8-1.8-2-1.6-2.6.8-2.7.3-11.8-.9-16.5-1.3-4.9-1.2-5.2 1.3-9.1 1.5-2.2 2.7-4.4 2.7-4.9s-1.7-1.7-3.7-2.7l-3.8-1.8 3.5-.8 11.4-2.3a86 86 0 0 0 8.1-1.8q.3-.5.9-2.5c.7-2.1.5-2.2-2.4-1.7q-3.1.6-7-1.1-5.9-2.5-3-4 1-.6 1-2.2.1-2.2 1.6-3.4c1.6-1.7 1.5-1.9-.7-2.8-1.3-.5-3.3-1.8-4.3-3a7 7 0 0 0-5-2.1q-7.5 0-13.8-5c-3.6-2.9-3.9-3-6.6-1.6-1.6.8-4.8 3.1-7.1 5-2.4 2-4.7 3.6-5.1 3.6-1.3 0-2.3-2-2.4-4.9q0-2.7-1.9-2.5c-1 .1-4.3-1.3-7.4-3.2a20 20 0 0 0-9.6-3.4c-3.4 0-3.8-.2-2.7-1.5 1.6-2 1.6-1.9-5.5-3.7-4.3-1-6.1-1.9-6.3-3.2-.3-1.6 0-1.8 3-1.1 1.8.4 5.5.8 8.3.8 4.6.2 5.1.5 7.8 4.5 1.6 2.3 4.2 4.9 5.9 5.8 2.9 1.5 3.2 1.5 5.5-.8l2.4-2.5-8.8-5.5c-4.8-3.1-12-7.2-16-9.2a28 28 0 0 1-11.9-9.7l-4.7-6.1-4.4.7c-3.9.6-4.7.4-6-1.4a5 5 0 0 0-3.7-2.1c-1.3 0-3-.7-3.7-1.6-1.2-1.4-1-1.9 1.4-3.8 2.2-1.8 2.6-2.7 2.1-5.6s.2-5 3.4-11.2l4.1-7.6 2 8.6c1.9 8.1 2.3 9 6.7 12.9q4.7 4.2 9.5 5.3c2.6.6 11.3 5 19.4 9.7l14.7 8.5 2.3-2.2 2.4-2.2 2.9 2.1c1.8 1.3 4.5 2.1 6.9 2.1q3.8 0 6.8 2.4l3 2.4 3.9-2.1c2.9-1.6 4-1.9 4.3-1 .6 1.7 4.1 1.6 9.2-.2 3.6-1.2 4.5-1.2 7.6 0 4.4 1.9 4.2 2 6-1.5q1.5-3.2 4.2-3c2.3 0 2.5.3 1.9 3.1-.8 4.1 2.7 8.9 6.5 8.9q5.3 0 2.2-6.4c-1.6-3.5-1.1-8.5.7-5.6.7 1.1 1.5 1.2 5 .1 5.6-1.7 7.4-.2 4 3.4-2.8 3-2.8 3 10.8 1.1 6.5-.9 9.2-1 9.2-.2-.1 3.4-5 6-9.9 5.2-2-.3-4.9-.2-6.6.2l-2.9.8 3.1 2.2c3.3 2.3 5.3 2.6 12.6 1.6 4.4-.6 4.7-.8 6.2-5.3.9-2.7 3.1-6.3 5.3-8.3 3.1-3 5-3.8 11.7-5.1q8-1.6 12.3-.8c3.1.6 4.2.5 4.2-.4q.1-1.2 1.6-1.9 1.8-.5.5-2c-1.3-1.5-1.8-1.1-5.6.3-3.2 1.1-4.7 1.3-5.5.5s.9-1.9 6.2-3.8c4-1.5 8.8-3.6 10.7-4.7q3.5-2 4.4-1 1.2 1-2.8 5.1l-3.9 4h3.1c2.3 0 3.8-.9 5.7-3.1 1.4-1.7 2.6-3.6 2.6-4.2s.3-2.1.6-3.3c.4-1.6-.3-2.4-3-3.9-2.1-1.1-3.6-2.7-3.6-3.7 0-1.6 1-1.8 7.3-1.8 6.5 0 7.6-.3 9.7-2.5l2.3-2.5h-6.4c-3.9 0-8.7-.8-12.4-2.1-5.6-1.9-6.2-2-9.7-.5-3 1.3-3.8 2.3-4.4 5.1-.5 2.7-1.1 3.5-2.7 3.5-1.2 0-3.2 1.1-4.6 2.4l-2.6 2.4-5.8-3.3c-6.4-3.6-6-4.5 2.1-4.5 6.9 0 8.6-.8 10.7-4.6 1.4-2.7 2.4-3.4 4.8-3.4 1.7 0 4.2-1.1 5.9-2.5 2.8-2.3 3.2-2.4 4.7-1.1q1.8 1.7 2.8.5c.6-.6 2.1-.8 3.4-.4 2.1.7 2.1.9.6 2-1.6 1.2-1.6 1.3.5 1.9 1.3.3 4.3.6 6.7.6 4.3 0 4.4 0 2.6-2-1-1.1-2.4-2-3.2-2q-1.2-.1-1.3-1.1.1-1 2.3-.5c6.2 1.8 14.4 1.8 17.6.2 1.8-1 3.1-1.9 2.9-2.1s-4.9-1.1-10.3-2c-13.9-2.2-15.6-2.5-15-3.5.7-1.1-7.5-6.2-15.4-9.6-3.5-1.6-5.9-3-5.3-3.2 1.9-.6 15.6 3.9 19.3 6.4q6.3 4.4 7.2.4c.8-2.9 5.6-2.6 12.6 1 5.6 2.8 6.4 2.9 14 2.3 4.5-.3 8.1-.9 8.1-1.2 0-1.3-2.4-3.1-4.2-3.1q-1.7-.1-1.8-1.1.1-1 2.9-.6 3 .6 4.2-.9c1-1.3 1.5-1.3 3.5.1 1.4.9 4.6 1.5 8.4 1.5 5 0 7.3-.7 13.8-3.9l7.7-3.9 9.5.8c9.9.9 11 .7 11-1.5 0-.9-2.2-1.4-7.7-1.7-9.1-.5-16.1-3.1-14.4-5.2 1-1.2 2.1-1.1 7 .2 5.3 1.4 6.6 1.4 15.7-.2 12.9-2.3 16-3.7 17.8-8 1.6-3.9 5.7-5.6 13.7-5.6 3.8 0 5-.5 7.8-3.3l3.2-3.4-7.7-.6c-4.2-.4-11.1-.7-15.3-.7l-7.6.1 2.9 2.3c6.1 5-1.4 7.9-9 3.4-3.1-1.8-3.4-2.3-1.9-2.8 1.4-.5.6-1.2-3.3-2.8a30 30 0 0 0-6.6-2.2q-1.5-.1-1.6-1.1 0-1.1 4.3-.5c5.6.9 20.2-3.1 18.6-5.1-.6-.7-.8-2-.5-3 .6-1.4 1.2-1 3.7 2 3.5 4.2 4 4.3 7.5 2q2.4-1.6 1.4-2.3c-1-.7.2-1.5 2.3-2.8 3.2-1.8 3.7-1.9 5.7-.5s2.3 1.4 3.8-.1c1.6-1.5 1.5-1.8-1.3-4.1q-3-2.3-5.2-1.8c-1.6.3-3.1-.5-5.6-3a14 14 0 0 0-7.4-4.1c-2.1-.4-7.4-1.9-11.8-3.2a297 297 0 0 0-38.3-9.4c-1.7 0-5.4.5-8.2 1.2-6.8 1.6-14.9-.9-18.1-5.7-1.5-2.2-5.4-4.7-13.3-8.6-6.1-3-11.2-5.9-11.4-6.6-.6-2.2 5.8-4.6 10.9-4 6.1.7 7.6-.7 5.3-5.2-2-4-1.1-5.1 1.9-2.4A60 60 0 0 0 937 425q2.5-.1-1.5-5.4a28 28 0 0 1-3.9-8.1l-1.5-4.8 3.3 3.2c3.4 3.3 8.1 4.2 10.4 1.9 1.6-1.6 3.9.5 4.7 4.3.4 1.6 2.6 4.5 5.1 6.8 3.9 3.4 4.9 3.8 8.2 3.4 2.1-.3 10 .4 17.5 1.6a94 94 0 0 0 22.2 1.5c8.9-.7 9.6-1.3 7.9-5.8a44 44 0 0 0-18.1-9.6c-1.7 0-5.2-1.2-7.8-2.7-4.1-2.2-4.5-2.8-2.9-3.4 1-.3 3.5 0 5.4.8 7.1 3 8.2 3.3 11.8 3.3 2.1 0 4.8.9 6.2 2s3 2 3.5 2c2.1 0 8.5-2.1 8.5-2.9 0-.4-2.7-3.1-6.1-5.9-4.9-4.2-6.8-5.2-9.7-5.2-4.1 0-9.2-4.1-9.2-7.4 0-1.1-.7-3.9-1.6-6.3-1.3-3.2-2.3-4.3-4.5-4.8-3.5-.8-3.7-3-.9-7.8 2.4-4.1 1.9-8.3-1.2-9.3-1-.3-3.5-1.9-5.4-3.6-2.5-2.2-3.4-3.8-3.4-6.2 0-2.8-.6-3.5-6.2-6.5-7.3-4-13.9-4.7-17.7-1.9-1.3 1-3.1 1.8-4 1.8s-2.9.7-4.4 1.5a11 11 0 0 1-11.7-.3l-3.6-2.1-4.4 2.9c-4.2 2.8-5 3-11 2.4-5.8-.5-7.2-.2-12.8 2.3l-6.4 2.9-7.8-1.5c-7.5-1.4-8-1.4-12.6.7-4.4 1.8-4.9 2.4-5.2 5.5-.2 2-1 4.1-1.8 4.7s-1.4 2.8-1.4 4.7c0 2.9-1 4.7-6.1 10.1-4.5 4.8-6 7-5.7 8.7.4 1.9-.4 2.6-5.7 4.9-5.6 2.4-6.2 3-6.4 5.9-.5 6.7.7 13.7 2.3 13.8l5.7.4 4.7.2 5.3-7.5 5.4-7.5.8 4.2c.8 3.8.5 4.8-2.2 8.9l-3.1 4.7 3.9.3c2.2.2 4.5 1 5.1 1.8 1.7 1.9 10.3 1.9 12-.1 1.1-1.4 7-2.2 7-1 0 1.6-4.7 7.4-5.7 7.1-.6-.3-2.8 1-4.9 2.8l-3.9 3.3 4.5 2.3c3.6 1.9 4.1 2.4 2.7 3.2-2.8 1.5-2 2.4 3.9 4.4 4.5 1.5 6 2.6 7.2 5.1q1.6 3.4 3.9 3.3c3.3 0 2.8 2.6-.6 3.3-2.4.5-4.5-.3-10.5-4l-7.6-4.6-1.9 2.4q-4 4.6.2 5.1 2.4.1 1.9 2.7-.4 4.5 5.9 7.1 2.7 1.3 2.2 2.4c-.4.6-1 2.9-1.3 5.1l-.6 4-2.7-5.3c-2.8-5.3-4.7-6.7-4.7-3.4a8 8 0 0 1-1.5 3.8c-1.3 1.7-1.4 1.4-1.2-4.1.3-7.9-2.6-12.5-7.9-12.5-1.9 0-3.4-.4-3.4-.9 0-1.1 2.5-2.1 5.1-2.1 2.3 0 4.2-4.1 3.3-7.5-.3-1.2-.1-2.6.5-2.9 1.6-1 1.4-2.6-.3-2.6s-2.9-4.1-2-6.4c.3-.9.1-2.3-.6-3.1-1-1.3-1.7-1-4.2 1.8l-3 3.2-3.4-3.9-3.3-3.9-1 2.5c-.5 1.4-1.9 2.8-3.1 3.1-1.9.5-2 .8-1 2.7 1.4 2.7.5 3.8-1.9 2.3-.9-.6-3.1-.8-4.7-.5-2.6.5-2.8.3-1.6-1.1s1.1-2-.1-3.7c-.8-1.2-1.3-2.9-1-3.9q.5-1.7-3.7-4.5c-2.3-1.5-4.4-2.6-4.6-2.3-.2.2-.9 3-1.5 6.3-1.8 10.2-1.6 10.1-5.5 6.3l-3.4-3.3 3.1-2.5c2.6-2.2 2.9-3 2.1-5-.6-1.8-.2-4.5 1.4-9.9l2.3-7.5-2.1-3a10 10 0 0 1-2-5.4c.2-2.9-.5-2.9-5.1.3-4.4 3-6.3 2.6-8.1-1.6l-1.2-3-2.3 4a24 24 0 0 1-5.2 6.1c-2.3 1.6-2.9 2.7-2.5 4.4.6 2.5-1.6 5.1-3.4 4-1.3-.8-1.3-7.2 0-8 .5-.3 1.5-1.5 2.1-2.6.9-1.8.8-1.9-.8-1.1-1.4.8-2.5.5-4.7-1.3l-2.8-2.2 3.1-1.1c1.8-.6 4.5-2.4 6.1-4 2.7-2.7 2.8-3.1 1.4-5.1-.8-1.1-2.1-2.1-2.8-2.1q-1.4 0-.9-2.4.7-2.5-1.7-3.1c-2-.6-2.1-1.1-1.5-5.3s7.1-17.1 8.6-17.2q.6.1 2.3 1.3c1.6 1.1 1.4 1.6-2 5.5-3.4 4-3.5 4.5-2.4 7.3 1.5 3.4 2.3 3 3.9-2.3s3.7-5.6 4.5-.5a57 57 0 0 0 6.1 18.7c1.2 1 2.5 1 6.2 0 2.7-.6 7.1-1.6 9.8-2l7.2-1.5c1.9-.6 2.3-.2 3.6 4.1 1.1 3.9 1.8 4.8 3.3 4.6 2.5-.5 3-1 4.9-5.5 1.5-3.7 1.5-3.9-.5-4.4-3.5-.9-2.3-2.6 1.5-2 3.4.6 3.5.5 3.5-2.7 0-1.9.7-3.9 1.5-4.6 1.2-1 1.1-1.8-1-6.1-2.2-4.3-2.9-4.9-5.6-4.9-3.3 0-6.9-1.5-6.9-3 0-.5 1.5-.4 3.5.1 1.9.6 4 .7 4.5.4 1.5-.9 1.1-7.7-.5-9.9a5 5 0 0 1-.8-4.4c.5-2.2.3-2.4-2-2-3.5.7-9.4-5.1-8.9-8.8.3-2.1-.1-2.4-2.5-2.4q-2.9 0-5.8-3-2.8-2.9-4.6-2.5c-2.5.8-10.8-3.5-10.2-5.3 1.1-2.7-2-3.1-6.6-.7l-4.6 2.3-4.4-3.1c-4.2-2.9-4.6-3-7.1-1.5q-2.7 1.4-4.7.7c-3.6-1.3-7.2.3-9.1 4.1-1.5 3.2-2.1 3.5-6.4 3.8-2.7.2-4.8.6-4.8 1 .1 2.3 3.8 12.6 4.7 12.9.6.2 2.4-.8 4.1-2.2 3.5-2.9 4.7-3.1 5.6-.9s1 2.1-3.1 3.4c-2.1.7-4.5 1.9-5.4 2.7-1.5 1.3-2 1-4.4-2.1-1.5-2-2.5-4.2-2.2-5 1-2.6-2.8-4.6-10.6-5.6-4.2-.5-9.5-1.9-11.8-3.1q-4-2-6.6-1.4c-3.5.8-19.5-4.5-20.1-6.7-.6-2.4-14.4-9.8-18.2-9.8-4.3 0-8-2.7-18.1-13.4l-8.6-9.1zM983 491.5c0 .2-2.5 1.2-5.5 2.1-4.4 1.2-5.9 1.3-7 .4q-1.3-1.2-.9-2.1c.5-.9 13.4-1.3 13.4-.4m-575.3-200c.9 1.9 2.3 3.5 3 3.5s2.6 1.3 4.1 2.9c2.6 2.7 2.9 2.8 6 1.5 1.7-.8 3.2-1.7 3.1-2.2 0-.4-2.3-2.6-5.2-5-4-3.3-5.9-4.2-8.9-4.2H406zm-196 5c.4 5.3 1.3 8.3 3.7 12.3 3 5.2 3.2 5.3 6.7 4.8 2.9-.5 4-.1 5.7 1.7 1.1 1.2 2.2 3.3 2.4 4.7q.3 2.5 2.4 2.8c3.1.4 4-5.1 1.9-12.3-1.5-5.2-1.8-5.5-4.8-5.5-2.6 0-4.5-1.4-10.9-7.7l-7.8-7.7zm230.1-2c-4.4 1.2-13.8 6.3-13.8 7.5 0 .5 6.7 4.2 21.2 11.9 5.9 3.1 6.8 4 6.8 6.3q0 2.6.6 2.8c.6.2 2.2-1.3 4.2-2.9 4.9-3.8 8.3-4.5 12.8-2.6 2 .8 6.1 1.8 9.1 2.2 4.8.5 5.8 1 7.4 3.7 1 1.7 1.9 3.9 1.9 4.9 0 .9 1.9 3.8 4.1 6.2l4.2 4.5 6.6-.5 13-1.6c5.2-.8 6.7-.7 8.7.6 2.9 1.9 3 1.1.4-3.7-1.5-2.9-1.8-4.6-1.2-7.5l.8-3.7 1.2 3c1.2 2.9 8.3 8.4 10.9 8.4 2 0 1.5-4.8-.6-5.9-2-1.1-9.7-10.7-14.4-17.9-1.5-2.3-3.4-4.2-4.1-4.2a10 10 0 0 1-2.9-.6q-1.5-.5-2.2 1.6-.6 2.3-2.6 1.6l-3.8-1.2c-1.5-.4-2.3.2-3.6 2.5-1.4 2.8-1.4 3.4-.1 5.3 1.4 1.9 1.3 2.2-.9 3.9-2.9 2.4-3.7 2.4-8.4-.1l-3.9-1.9 1.4-7.3c.8-4 1.4-7.8 1.4-8.3q0-1-14.5.4c-18.9 1.8-24.9.8-29.1-5-3.2-4.2-3.7-4.3-10.6-2.4m-143.7 5.9c-.7.8-2.6 1.8-4.2 2.1q-5.8 1.1-2.4 7.1c2.1 3.9 13.7 11.4 17.7 11.4 1.9 0 4 1.7 8.7 7.4 6.8 8.3 15.9 14.6 21 14.6q3 0 4.6 2.4c1.5 2.2 1.5 2.7 0 5.5-1.9 3.8-9.3 8-10.6 5.9-.5-.7-.9-2.2-.9-3.4 0-2.3-3.6-8-9-14.1-2.5-2.9-4.6-4.2-7.3-4.7l-3.9-.7.7 3c.4 1.7.4 4.4 0 6.1-.6 2.7-1 3-4.5 3s-3.9.3-5.4 4c-1 2.4-1.4 5.1-1 6.7.7 2.5.6 2.6-3.5 2-2.2-.3-4.1-.2-4.1.1a23 23 0 0 0 3.8 4.9c3.4 3.8 4.2 4.3 9.8 4.9 6 .6 6.1.6 10.8-3.5 5.3-4.6 5.2-4.6 7.1-2.7.8.8 4.5 1.9 8.2 2.6 6.3 1.1 7.1 1 11.6-1.1s4.7-2.5 4.2-5.1-.5-2.8 2.8-2.8c3.5 0 4.7-1.2 4.7-4.8 0-2.4 5.4-13.1 8.6-17l2.7-3.3-3.9.7c-3 .4-4.3.2-5.3-.9-1-1.3-.9-1.7.8-2.7a4 4 0 0 0 2.1-3.5c0-2.2-.4-2.5-3.5-2.5s-3.5-.3-3.5-2.5c0-2.4-.2-2.5-4.2-1.9-2.4.4-6.2 1.7-8.5 3-6.6 3.8-12.8 3.3-22.2-1.7-10.9-5.8-11.1-6-11.8-11.7-.5-4.8-.8-5.2-4.5-6.6-4.7-1.9-4.3-1.9-5.7-.2m83.6 12.9c-1.3 1.9-2.8 2.5-7.8 3.1-3.4.3-6.4.8-6.7 1.1-1.1 1 2.5 7.3 6.5 11.5l6.9 7.2c3 3.2 12 6.8 16.8 6.8 3.1 0 3.4-.3 3.9-3.7.5-2.9.2-4.2-1.4-5.9l-2.1-2.3 4.1-1.1c2.3-.6 4.5-1.8 4.8-2.6s-2.1-4.2-6.3-8.8c-6.8-7.3-7-7.4-12-7.5-4.4-.1-5.4.3-6.7 2.2m61.3 16c0 3.9 1.8 7.7 3.6 7.7q1.4.2 1.1 1.2-.5 1.3-3.5 1c-1.8-.2-5.6.2-8.6.9-4.4.9-6.1.9-8.6-.1-1.7-.7-3.3-1-3.6-.7-1.3 1.3 1.8 4.4 5.6 5.6q4.1 1.2 6 4.4l2 3.2V345h4.4c3.9 0 4.8.5 8.4 4.4l4.1 4.4 1.1-3.4c.7-1.9 2.2-4.7 3.6-6.3l2.3-2.8-3.8-3.1a18 18 0 0 1-5.1-6.7q-1.2-4-2.5-2.5c-1.3 1.5-2 .7-3.9-.5-2.6-1.7-2.6-1.7-2.6.8m-269.4.3c-1.3 3.4-.5 5.8 3.3 9 3.5 3 3.8 3.7 3.1 6.6-.9 4.5 1.3 9.3 3.8 7.8 3.7-2.2 6.2-4.9 6.2-7 0-1.2.5-3 1-4.1q1.3-2-.5-2.5-1.5-.6-1-2.5c.5-1.5-.7-2.5-6.4-5.4-8-4-8.7-4.1-9.5-1.9m287.1 4.6c-.5 1.6.3 3 3 5.6 3 2.8 4.1 3.3 6.7 2.8 1.7-.4 4-1.5 5.1-2.6 1.9-2 1.9-1.9 3 .8l1.2 2.7 1.2-3.8c.7-2.1 1.1-4 .9-4.2s-2.5-1-5.2-1.7c-4.4-1.2-4.9-1.1-6.2.6-.7 1-1.5 2.4-1.7 3-.6 1.7-3.7-1.3-3.7-3.5 0-2.7-3.6-2.5-4.3.3"/><path d="M550 334c0 .5-1.1 1-2.5 1-2.8 0-2.9.1-1.4 5.3.6 2.2.8 4.1.6 4.4-.3.2-2.8-.7-5.6-2.1l-5.4-2.6c-.2 0 .2 3 .9 6.7 1.9 9.7 1.8 10.5-2.6 13.8a19 19 0 0 0-4 3.7c0 .5 1.7.8 3.9.8s4.4.6 5.1 1.5 3.5 2.7 6.2 4.2c5.9 3.2 10.6 10.3 5.8 8.8q-2-.7-6.7 2.4a20 20 0 0 1-6.2 3.1c-.8 0-2.7 1.2-4.2 2.6-2.6 2.4-2.8 2.5-5.6 1-1.7-.8-3.9-1.3-5-1s-4.3-.6-7.1-2-5.4-2.6-5.8-2.6-.4 2.9-.1 6.5l.6 6.5-8.3-5.7a33 33 0 0 1-7.8-6.4c.4-.3 4.2-1.6 8.4-2.9a35 35 0 0 0 12.4-6.2q4.6-3.7 6.4-3.3 1.6.4 3.9-1.9l2.2-2.3-2.3-.6q-2.6-.6-1-1.9c1.7-1.7 1.5-2.6-.9-3.8-3-1.6-9.9-.3-9.9 1.9 0 2.7-17.2 14.9-22.2 15.7-4.8.8-5.8 1.7-5.8 5.6 0 1.4-.3 3.3-.6 4.2-1 2.7-2.4.7-2.4-3.5v-4l-6.2.7c-4.5.5-8 1.7-12.1 4-5.6 3.3-6.2 3.4-16 3.3-11.5-.1-15.2-.8-15.2-2.9 0-.8-1.3-2-3-2.6l-3-1.1 2.5-1.3c1.4-.7 4.8-1.4 7.7-1.6 3-.1 7.6-1.3 11.2-3l6.1-2.8-2.2-2.3c-1.7-1.8-2.8-2.2-5.7-1.7-2 .3-5.4-.1-7.6-.9-3.3-1.2-4.6-1.2-7.5-.1-4 1.4-9.9 1.7-11.8.6q-1.2-.9 4.8-2.7c4.4-1.3 6-2.3 6-3.6 0-1.7-.3-1.7-4.7-.3l-8.4 2.4a13 13 0 0 0-4.9 2.5q-3 3.8-3-2.4c0-3.6.3-4 3.6-5.1l3.6-1.2-3.1-3.2c-1.7-1.8-3.1-4-3.1-4.9 0-1.5-.5-1.4-4.6.6-4.3 2-4.5 2.4-4.1 5.4q.6 3.3-.6 2.8c-5.4-1.6-7.5-1.3-8.5 1.1-.7 1.3-3.2 3.4-5.6 4.6-4.5 2.1-4.5 2.1-3 5 .8 1.5 1.2 2.8 1 2.8-1.2 0-6.2-2.6-6.8-3.5-1.7-2.3-.8-6.6 1.9-8.9l2.7-2.4-5.9-1.2-7.8-1.7c-1.6-.4-1.7.1-1.1 4.9.3 2.9 1.3 6.3 2.1 7.6 1.4 2.3 1.4 2.3-1.4.9-1.6-.8-5-1.8-7.6-2.2l-4.7-.7v4.7c0 3.8-.5 5.1-2.5 6.7-3.2 2.5-3.1 3 .6 7.3l3.1 3.5h8.7c8.1 0 8.9.2 10.9 2.5 1.2 1.4 2.6 2.5 3.1 2.5s2.2.5 3.6 1c4.7 1.8 1.4 3.7-7.8 4.5-4.9.4-8.9 1.3-9.8 2.1-1.5 1.4-1.9 1.3-3.2-.7l-1.6-2.1-3 2.1a25 25 0 0 0-5.1 5.6c-2.5 4-3.1 4.2-6.7 1.8q-2.7-1.9-3.1-.5c-.5 1.5-5.6 1.6-8.4.1-2-1.1-2-1.1.3-3.5 2.1-2.3 2.2-2.5.6-4.1s-1.9-1.5-4.6 1.7l-2.9 3.5h-17.7l-16.6-10.2c-13.2-8.2-16.9-11-18.5-13.9-1-2-3.5-4.4-5.4-5.4s-6.5-4.5-10.2-7.8q-6.6-6-10.2-6.6-3.8-.6-4.6-3.1-1-2.4-9.2-6.9c-6.8-3.7-9-4.4-11.8-4-3.1.5-3.7.2-5.5-2.5-2.2-3.3-12.3-8.4-19-9.6-4.6-.8-4.3-.3 3.2 4.7 2.9 1.9 5 3.8 4.6 4.1-1.3 1.4-4.7.7-6.9-1.4-2.1-2-2.3-2-5.4-.4l-3.2 1.7 2.3 2.5c1.3 1.4 3.9 3.2 5.7 3.9 3 1.4 3.2 1.7 3.2 6.7 0 4.4-.4 5.8-2.5 7.7-2.9 2.8-3.4 6.3-.8 5.9 2.8-.5 5.9 1.7 7.3 5.1q1.2 3 3.9 3.5c1.4.3 6.9 1.8 12.1 3.4 12.8 3.9 18.3 4.6 20 2.6.7-.9 2.6-2.5 4.2-3.6 3.6-2.6 5.8-1.2 5.8 3.7 0 2.9.4 3.4 2.3 3.4q6.7 0 6.7 3.5 0 2.4 2.4 2.9c3.2.8 6.6 6.8 6.6 11.6v3.8l-4.2-.5a40 40 0 0 1-9.8-3 19 19 0 0 0-18.3 1c-3.8 2.2-3.8 2.2-3.2 7.1.8 6.8 5.6 12.7 9.5 11.9 4.7-.9 12.7 3.6 22.2 12.5 8.7 8.1 8.8 8.2 14.1 8.2 3.1 0 6.1-.6 7.5-1.6 2.1-1.5 2.2-1.4 2.8 1.4.4 2.2 2.3 4.2 6.9 7.6 5.7 4.1 6.8 4.6 11.8 4.6 4.5 0 5.6.3 6 1.9q.8 3.1-6.5 3.1-6.2.1 2.1 3.5c4 1.5 5.9 3.2 9.8 8.4 4.4 5.8 6 7.1 13.9 11 4.9 2.4 9.6 5 10.5 5.8 1.5 1.2 1.7.9 2.3-2.7.5-3.1 1.1-4 2.6-4 2.2 0 2.6 1.3 3.4 10.5.4 5.4.9 6.3 4.2 9.2 2 1.8 5.3 3.5 7.3 3.8 7.8 1.3 8.1 1.4 8.1 4 0 2.9-.8 3-7 1.1q-9.5-2.8-14.8-9.5c-2.5-3.2-4.4-4.3-10.2-6-6.7-2.1-7.6-2.7-16.2-11.7-10.8-11.2-12.1-11.5-15.7-3.7-1.5 3.2-3.2 5.4-4.5 5.7a50 50 0 0 1-20.5-1.4 47 47 0 0 0-11.5-1.4c-1.2.4-7.6 3.8-14.3 7.6s-14.5 7.6-17.4 8.4c-4.7 1.4-5.8 1.4-11.7-.1a31 31 0 0 1-13.9-7.6c-6.5-5.3-7.3-5.8-6.8-3.6q2 8-6-.9l-5.3-5.9-2.2 4.6-2.3 4.6 2.7 6.6c1.4 3.6 2.6 7.2 2.6 8s.9 2.2 1.9 3.1c1.1 1 2.2 2.9 2.6 4.3s3.3 5.9 6.7 10c5.6 6.9 6.2 7.4 9 6.7 3-.6 3.1-.6 2.4 2.9-.4 1.9-.4 5.3 0 7.6.6 3.8 1 4.1 5.6 5.7 4.4 1.4 5.2 1.5 6.5.2 1.9-2 .3-8-3.1-12.2l-2.4-2.9 3.4-2.4 3.5-2.3 3.9 2c5.9 3 16 1.7 22.9-3.1q5.1-3.4 4.6-5c-.7-2.2 2.6-3.5 4-1.5l2 3c.6.9 2.9 1.8 5.2 2.2l4.2.6-3.6-6.7c-1.9-3.6-4.4-7-5.4-7.3-1.8-.7-1.7-.9.8-3.9 2.3-2.6 3.7-3.2 8.2-3.6 4.1-.3 5.9-1 7.3-2.7 2.1-2.6 2-2.6 3.7 1.7a9 9 0 0 0 4.3 4.4c3 1.2 3.2 1.1 8.6-4.5l5.6-5.8 4.3 2.1c4 1.9 4.6 2 7.2.6 3.9-2 4.1-1.2 4.1 13.1 0 10.3-.3 12-2.5 16.2a21 21 0 0 0-2.5 6.5q-.2 1.8-1.2 1.4-1.3-.4-1.3-6.9c0-3.7-.2-6.9-.5-7.2s-1.6-.3-2.9.1c-1.8.5-2.1 1-1.6 3.1.4 1.8 0 3.1-1.6 4.8-3 3.2-3.6 3-4.3-1.1-.4-2-1.3-3.5-2.1-3.5q-1.4-.1-1.7-3.5l-.3-3.5-7.2 3.4c-7.1 3.4-8.5 4.8-6.2 6.2.6.3.9 1.9.5 3.5-.5 2.4-.2 2.9 1.4 2.9 1.9 0 1.8.3-.7 4.9l-2.7 4.8 3.7 3.5c2 2 3.7 4 3.7 4.6s.3 1.7.6 2.6c1 2.7-3 1.9-7.2-1.5l-3.9-3.1-.5 10.6c-.3 5.8-.8 10.8-1.1 11-.3.3-2.7-1.7-5.4-4.4l-4.8-4.9-3.9 4.2-3.8 4.2.6-3c1.1-5.4 1.4-6 5.9-9.5 2.5-1.9 4.5-4.3 4.5-5.3s.5-2.6 1.2-3.7c1-1.5.9-2.3-.6-3.9-2.3-2.6-3-2.6-6.4-.1-1.5 1-3.9 2.2-5.4 2.6-2.7.6-2.8.4-2.8-3 0-3.2.3-3.7 2.9-4.2 1.6-.3 4.5-1.9 6.5-3.6 3.5-2.8 4.2-4.9 3-8.2q-1.3-3-10 4.1c-3.4 2.7-4.8 3.3-5.6 2.5q-1.3-1.2 0-2.4 3.2-3.4-2.5-1.1c-5.9 2.4-6.9 3.8-8.3 11.9-1 5.9-1.8 7.9-3.6 9-1.7 1.2-2.8 1.3-4.3.5-2.9-1.6-2.9-1.5-2 3.5 1.3 6.8 3.1 12.4 4 12.4.5 0 2.1-1.8 3.6-4.1 2.6-4 2.6-4 4.6-2 2 1.9 2 1.9-.2 6.3-2.5 5.2-2.6 5.8-.7 5.8 2.9 0 2.4 1.8-2.4 9.4a107 107 0 0 0-9.5 18.4l-4.6 1.1c-3.8.7-5.2.3-10.9-2.4-3.6-1.8-8-3.5-9.9-3.9s-4.2-1.3-5.2-2.2c-1.6-1.4-2-1.4-4.9.1l-3.2 1.7 2.3 2.4c1.9 2.1 3.2 2.4 8.6 2.4 6 0 6.8.3 11.1 3.9a20 20 0 0 0 17.3 4.5c3.4-.6 4.1-1.1 4.6-3.7l.6-3 1.6 2.2 1.6 2.1 4-4c3.5-3.6 4.4-4 8.7-4 2.6 0 4.8-.5 4.8-1q.1-1 1.5-1c3.7 0 .7 6.6-6.2 13.1a30 30 0 0 1-23.8 9.9H230l-2.4 3.7a32 32 0 0 0-3.6 10.6c-.7 3.7-1.6 6.9-2 7.2s-1.5-.7-2.5-2.1l-1.7-2.6-2.4 2.3-2.4 2.2v-2.7c0-1.6 1.6-4.9 4-8.1l4-5.4-3.6-2.2c-3.1-1.8-4-2-5.6-1-1.7 1-2.6.7-6.5-2.5l-4.5-3.7-2.6 2c-2 1.5-2.7 2.9-2.7 5.5a10 10 0 0 1-1.5 5.3c-1.3 1.5-1.2 1.9.9 3.6 1.9 1.6 2.1 2.2 1.1 3.4s-1 2.1-.1 4.2q1.7 4-2.3 4.3c-.4 0-.5 1.2-.2 2.7l.6 2.8-2.5-2.8c-3.1-3.5-3.3-8.1-.4-16.6l2.1-6.2-2.3-2.5-2.4-2.6-.6 2.4c-.4 1.3-.7 4.4-.8 6.9-.1 3.8-.6 4.9-3 6.7l-3 2.2-.6-2.1q-.6-2 .9-3.8c.9-1 1.6-3.5 1.6-5.6s.7-4.6 1.5-5.5c1.3-1.4 1.3-1.9 0-3.7s-1.9-2-6.7-1.1c-4.4.8-5.4.7-6.4-.7s-1.6-1.4-3.4-.5q-2.3 1.3-2.9.1c-.7-1.1-3.5-1.5-15.9-2.6l-6.2-.5v4.3c0 3.8.6 4.8 4.5 8.7 3.6 3.5 4.3 4.8 3.8 6.8-.6 2.4-.5 2.4 2.5.8 4.5-2.3 10.2-2.1 10.9.4.6 2.2 1.8 2.6 2.8 1 .8-1.3 4.5-1.3 4.5-.1q-.1 1-1 1.6t0 2.5c1.3 2.4-1.1 4.4-4.6 3.7-2-.3-3.8.6-8.3 4.3-5 4.2-6.4 4.8-11.6 5.2-5.9.6-6.1.5-10-3.3-3-2.9-4.6-3.7-6.3-3.3-2.9.8-2.8 1.5.7 3.9 2.3 1.5 3.1 2.9 3.6 6.5.4 2.5 1.3 5.6 2.2 6.8 1.5 2.4 2.8 2.5 8 .5 2.2-.8-4.3 4.9-7.4 6.6-1.2.6-4.1 1.1-6.5 1q-3.8 0-2.8-.6 1.7-.8 3.8-1.4c2.2-.8 2.2-1 .6-3.4a5 5 0 0 0-4.2-2.5h-2.6l2.8-2.9c2.1-2.2 2.6-3.4 2-5.5-1-4.1-4-5-10.7-3.3a21 21 0 0 1-12.3.1c-3.7-.8-7-1.6-7.2-1.9s.5-1.6 1.6-3.2c2.9-4.1 1.4-7.5-2.8-6.6-2.3.4-3.6.1-5.4-1.6-2.2-2-2.4-2.1-6-.6a11 11 0 0 1-6.9.9c-2.8-.6-3-.5-1.9.9.8.9 3 2.1 5 2.8 5.2 1.7 5.5 1.9 3.9 3.7-2.3 2.7-3 9.8-1.2 13.2 1.4 2.7 1.4 3.3-.1 6.1l-1.6 3.2 3.4-.7q3.4-.6 5.6 1c2.2 1.5 2.2 1.5 2.2-2.6a12 12 0 0 0-2.1-6.9c-1.2-1.6-1.8-3.4-1.5-4 1-1.6 2.6-1.4 2.6.3 0 .8 1.5 2.6 3.3 4.1 1.9 1.7 3.4 4 3.7 5.9q.4 3.3 2.8 3.4 2.6.3 1.9 2.2c-.5 1.9 2.5 3 8 3 2.3 0 2.3.1.8 3.1-1.6 3-1.6 3.1 2 7.5l3.7 4.4 6.3-.6c5.7-.6 6.4-.5 7.4 1.5.7 1.1 2.1 2.1 3.1 2.1 1.9 0 2.1.5 2.4 6.4.1 1.5 1.4 2.2 5.4 3.1a27 27 0 0 1 5.7 1.7c.2.2.1 2.7-.4 5.6-.7 4.8-.6 5.3 1.9 7.7 2.4 2.3 3.2 2.5 12.8 2.5 6.4 0 11.5.5 13.5 1.4q3.2 1.3 5.7.4l2.5-.9-3-1.6c-1.6-.9-3.5-2.4-4.2-3.3s-3.8-2.7-7.1-3.8a16 16 0 0 1-9.6-7.6c-2.7-3.9-4.5-5.5-6.7-6-4-.8-11.8-6.2-12.9-8.9-.6-1.7-.2-2.8 1.8-4.9 2.2-2.4 2.8-2.6 4.1-1.4.9.7 6.1 2.4 11.6 3.6l12.1 2.7c1.5.3 2.3-.2 3.2-2.2 1.3-2.9 1-3 9.5 2.9l5.9 4.1-7.4.3c-5.8.2-7.7.7-9.6 2.4l-2.2 2.2 3.1 3.2c3.1 3.2 3.3 3.3 6.2 1.7 2.8-1.4 3-1.4 2.2.3-2.7 6.6-1.2 8.1 6 6 2.5-.8 4.5-1.2 4.5-.9s-1.3 2.1-3 4-3 3.7-3 4.1 1.2 1.5 2.7 2.5c5 3.1 11.4 9.5 10.3 10.2-.6.4-1.9 0-2.8-.8-3.2-2.8-6-3-9.9-.6l-3.7 2.3 3 1.3c1.6.6 3.5 1.2 4.2 1.3q2.7.2-.8 3.5c-2 1.8-2 1.9-.1 3.9 1 1.2 2.8 4 4 6.3 2 4 2.4 4.3 6.3 4.3 4.8 0 9.4-3.1 12.8-8.6 1.8-2.8 2.8-3.5 4.6-3.1q2.4.5 2.4-.9c0-.8 1.5-2.2 3.4-3.1 1.9-1 6-4.2 9.1-7.2 4.2-4 5.3-5.6 4.3-6.2q-1.2-.8-2-.9c-1.5 0-.8-2 .7-2q1.5-.1 2.2-1.6.6-1.6 2.9-1c2 .5 2.4.3 2.4-1.7 0-2.9-5.8-8.7-8.7-8.7q-2 0-3.2-2.8c-.6-1.5-2-3.8-3-5.2-1.6-2-2.1-2.2-3.5-1.1s-1.6 1.1-1.6-.2c0-.9-1.2-2.3-2.6-3l-2.6-1.4 4-3.1c4-3.2 5.2-3.2 5.2-.2 0 1.9 8.8 12 13.1 15.1 2.9 2.1 3.1 2.1 4.4.3 1.3-1.7 1.4-1.4 1.5 3.2 0 4.5.3 5.2 2.5 6.2 3.6 1.7 4 1.5 5.4-1.4 1.3-3 1.3-3-1.8-4.2-2.2-.8-2-1 3.4-5.1 3.1-2.3 6.1-4.1 6.8-3.8s1.2 2.6 1.2 6.2v5.8l4.4 1.3c3.8 1.1 4.7 1.1 6.7-.3 2.2-1.4 2.3-1.7 1-4.6-.7-1.8-2.3-4.8-3.4-6.7-2.4-3.8-2.7-5-1.3-5 .6 0 2.6 2.7 4.7 6 2 3.3 3.9 6 4.1 6 .3 0 1.8-.8 3.5-1.8 2.1-1.2 5.1-5.7 10.4-15.4a87 87 0 0 1 8.8-14.1c.8-.3 2.5-3.6 3.9-7.4 2-5.3 2.7-9 2.9-17.1.3-9.8.2-10.2-1.8-10.2s-2.2.8-3.3 11.2c-1.6 15-2 17.3-3.4 15.9q-1-.9.3-8.4c1.4-8.5.1-16.8-3-19-.9-.6-2-2.1-2.3-3.2-.5-1.7.9-2.7 10.4-7.3 10.5-5.1 19.9-7.6 19.9-5.5a36 36 0 0 1-9.9 9.3c-1.3.6-2.1 2.1-2.1 3.5s.1 2.5.3 2.5l7.3-2.3c7.6-2.6 28.4-4.6 28.4-2.7 0 2 1.9.9 4.6-2.5l2.7-3.6-2.1-2.2c-1.9-2.1-2-2.7-1.1-10.2 1.1-8.6 1.7-9.9 4.5-9.3 1.9.4 2.1 1.5.9 5.4-.5 1.6.1 2.4 2.9 3.9 3.1 1.7 4 1.8 6.8.7 1.7-.6 3.2-1.1 3.3-.9l2.8 6.2c2.7 6 2.7 6 .7 7.7q-1.8 1.5-2 2.1c0 .2 1.8 1 3.9 1.7 3.3 1.1 4.6 1.1 7.3 0 4.7-1.9 9.8-5.8 9.8-7.6 0-.8 1.4-3.2 3.1-5.3q5-6.3 8-1c.9 1.8 1.2 1.8 7.2-.5l6.2-2.3 1.6-12.4c2.2-16.3 4.2-20.7 13-28.8 5.3-4.8 6.8-6.8 6.4-8.2q-.6-1.9 3.8-7.6c5.9-7.7 6.6-10 3.3-10.9-4.5-1.1-3.1-3.1 3.1-4.4 2.6-.6 3.6-.5 4 .6.8 2.2 1.6 1.7 4.3-2.7 2-3.3 8.8-9.7 26.4-25q.8-.9-.8-2.8c-1.6-1.8-1.6-2 1.8-4 4.4-2.8 9.6-11.7 8.9-15.4-.4-2.2-.1-2.8 2.1-3.7 1.4-.5 2.6-1.5 2.6-2.1s1.4-2.4 3.1-4c2.7-2.5 3-3.4 2.7-7.5l-.3-4.7-7.1 7-7 7 .6-4.4c.4-2.4.9-4.4 1.1-4.6a137 137 0 0 0 14.6-12.6l3.2-3.6.1 5v4.9l5.1-4.9a93 93 0 0 0 9.1-10.8c6.6-9.7 9.8-12.9 11.4-11.6 1.2 1 1.2 1.4-.4 2.5a43 43 0 0 0-9.7 16.7l-.7 3.7h5.5c5.6 0 5.6 0 8.3-4.5 1.4-2.5 2.9-4.5 3.2-4.5s2.6-1.8 5-4c3.4-3.2 4.1-4.4 3.6-6.4-.4-1.7 1.1-6.1 5.5-15.4a137 137 0 0 0 6.1-14.1c0-1.9-3.8-1.2-4.5.8-.5 1.8-4.1 3.8-5 2.9-.3-.2.7-2.6 2-5.3 3.7-7.1 3.4-8.1-2.9-9.5l-3.1-.6 3-1.6q3-1.6 5.2-.7 2.2.8 2.7-.7c.3-.8 1.9-1.4 3.5-1.4 2.7 0 3 .2 2.2 2.2-2.1 5.8-2.2 7.8-.3 7.8 2.2 0 7.4-5.4 13.5-14.2 3.5-5 6.3-7.6 10.9-10.4 3.5-2 7.1-4.4 8.1-5.3 2-1.7 4.5-5.7 3-4.8l-7.6 4.6q-6.8 4.1-10.4 4.1c-3.4 0-3.5-.1-2-1.8a6 6 0 0 0-.3-8.7c-1.1-1-2-2.1-2-2.5 0-1 4.8-3 7.1-3s12.3-6.6 15.4-10l2-2.3-2.9.5c-2.2.5-7.7-1.8-25.1-10.2-21.8-10.6-22.2-10.8-23.8-14.9-1.5-3.7-3.7-5.6-3.7-3.1m-32 126.9c-1.2 2.3-2.9 3.5-3.7 2.7-.7-.7 2.6-4.6 3.9-4.6.5 0 .4.9-.2 1.9"/><path d="M265 340.5c0 .3 1.4 2.6 3 5.1 2.5 3.5 3.7 4.4 6 4.4 1.7 0 3-.3 3-.8 0-1.5-5.1-8.2-6.3-8.2-.7 0-2.2-.3-3.4-.6q-2.1-.5-2.3.1m204.3 7.2c2 1.6 3.6 3.5 3.7 4.4q-.1 1.7 3 1.1 2.9-.3 3 .7c0 .6-1.3 1.7-3 2.6-2.4 1.2-3 2.2-3 4.7v3.1l2.5-2.7c1.3-1.4 3-2.6 3.8-2.6s2.2-.8 3.1-1.9 3.5-2.1 5.7-2.4c5-.7 5.2-.8 4.3-4.1-.6-2.4-1-2.6-6.8-2.6a55 55 0 0 1-11.6-1.5c-7.9-2.1-8.8-1.9-4.7 1.2m-50 1q-3.6.8-1.5 4c.6 1 1.2 1 2.8-.1 1-.8 2.8-1.3 3.9-1q2 .5 3.3-1.6c1.1-1.9 1-2-2.5-1.9-2.1.1-4.8.4-6 .6"/><path d="M458.9 354.7c-2.4.4-2.7.9-3.2 6.9-.7 7 .4 11.4 2.7 11.4.8 0 2.1.3 2.9.6 2.3.9 7.5-8.4 6.9-12.4q-.5-3.4 1.3-5.2c1.8-2 1.7-2-3.1-1.9-2.7.1-6.1.4-7.5.6m-14.3 3.8c-1.9 1.4-1.8 1.5 1.2 1.5q3.4 0 2.6-1.5c-.7-1.8-1.4-1.8-3.8 0m44.9 5.5c-.3.5-2.5 1.4-4.8 2-6.6 1.7-8.7 2.8-8.1 4.3.4 1 1.8 1.3 5.3.9a14 14 0 0 1 7.9 1.2c2.9 1.5 6.2 1.3 6.2-.4 0-.4-.9-1.9-2-3.3s-2-3.2-2-4.1c0-1.8-1.5-2.2-2.5-.6m-152 5c-1.7 1.9-2 1.7 8.3 5.7q1.4.7.6-2.3c-.9-3.6-.6-3.3-4.2-4.3-2.4-.7-3.4-.5-4.7.9M175 392.6q0 2.4 3.3 4.4c4.4 2.8 6.4 2.5 7-.8l.4-2.8-5.4-1.7-5.3-1.6zm58.4 6.9c-.4.8-1.7 1.5-3.1 1.5q-2.7-.1-1.9 1.6c.3.9.6 2.2.6 3q0 1.4 3 1.4c1.7 0 3-.5 3-1s1.5-2 3.4-3.1q3.4-2 2.9-3.5c-.7-1.9-7.2-1.9-7.9.1m6 34q-.6 3.5.6 5c1.5 1.8 3 1 3-1.6q.1-1.9 1.5-2.5 3.3-1.3-1-3.2c-3.5-1.6-3.3-1.7-4.1 2.3M130 437.4c.8.8 3.4 1.9 5.8 2.4 3.7.9 4.2.8 4.2-.8 0-1.8-3.5-3-8.8-3-2.3 0-2.4.2-1.2 1.4m13 4.6c0 3.2.1 3.3 1.7 1.7s1.6-1.8 0-3.4-1.7-1.5-1.7 1.7m7.8-2.3c-4.1 1.1-1.5 3.6 6.7 6.5 8.7 3.1 16.5 4.3 16.5 2.5 0-.6.3-2.1.6-3.3.5-1.8-.2-2.2-4.9-3.5-3.3-1-6.3-1.2-7.6-.7q-2.2.8-5.1-.7c-3-1.5-3.3-1.6-6.2-.8m450.4 7.8c-1.7 3.6-1.6 3.7 2.4 1.3 3.2-1.9 3.5-2.3 1.8-2.9-2.9-1.1-3-1.1-4.2 1.6m-416.6 11.1q-.8 2.7 1.3 4.8c1.9 2 2.1 3.5 2.1 14.4 0 6.7.4 12.2.8 12.2s2.3-1.8 4.2-4.1l3.3-4.1-2.7-8.6a86 86 0 0 1-2.6-10.3c0-1.8-3.7-6.9-5-6.9-.4 0-1.1 1.2-1.4 2.6m67.4-.8c0 2.3 7.5 9.6 8.9 8.8q1.2-.7.1-2.6c-.5-1-1-3.3-1-5.1 0-2.6-.2-2.9-1.4-2s-2 .9-3.5.2c-2.7-1.5-3.1-1.4-3.1.7m28.5 11.2c-2 2.2-2 2.2 1.4 4 3.2 1.7 4.9 0 3.3-3.5-1.4-3-2.3-3.1-4.7-.5M23 492c0 3.4-1.5 4.4-7.8 5.5-3.3.5-4.7.3-6-.9q-1.8-1.5-3.2-.6c-1.2.8-1 1.8 1.3 6.6 2.5 5 2.8 6.7 2.6 13.4-.3 6.9 0 8 2.2 10.8 2.8 3.7 3.6 3.8 6.8 1.1 2.2-1.8 2.3-2.2 1.1-4.5a7 7 0 0 0-3.7-3c-3.7-1-2.7-8 1.3-9l2.4-.6-2.2-3c-2.1-3-2.1-3.1-.3-4.4 2.7-2 3.2-1.8 7.4 2.6 2.1 2.2 4.5 4 5.5 4 1.5 0 1.5-.3.2-3.5-1.5-3.4-1.4-3.5 1-4.1 1.4-.4 3.8-.4 5.4 0 2.9.5 3 .5 3-3.5v-4l-4.3.6c-4.8.7-7.7-1-7.7-4.6q.1-2-2.5-1.9c-2.1 0-2.5.5-2.5 3m491.8 26c-2 3.3-3.5 6-3.3 6 1.3 0 10.5-7.4 10.5-8.4 0-1.2-2-3.6-2.9-3.6-.4 0-2.3 2.7-4.3 6m-13.3 12.5q-3 4.6-5.3 4.5a16 16 0 0 0-6.7 3l-4.3 3 1.4 4.7c.8 2.5 1.6 4.9 1.9 5.1q.7.3 2.8-1.6c1.8-1.7 3.6-2.2 8-2.2h5.7v-6.7c0-5.5.4-7.2 2.5-9.9s2.2-3.3.9-3.8c-2.9-1.1-3.9-.6-6.9 3.9m-371.7 1.1c.4 2.5.3 2.6-2.3 2.2-2.7-.6-2.7-.5-2.1 3.6.4 2.2 2 6.5 3.6 9.3l3 5.3-2.1 5.2c-2.5 6.5-2.3 6.2-4.7 4.7-1.8-1.2-2.3-1-4.2 1.4q-2.2 2.8-4 2.2c-2.7-.9-4.5 2-3.2 5 1.1 2.5 1.1 2.5-3.3 2.5-3.5 0-4.5.4-5 2-.6 1.9-1.4 2.3-8.4 3.4-1.9.4-5 1.8-6.9 3.3l-3.5 2.6 2.8-5.4L93 572c.4-.8 2.2-1.9 4-2.5q3.3-1 5.8-4.8c2.5-3.8 4.1-4.5 6.4-5.4 3.6-1.4 3.8-1.7 2.3-3.3s-1.4-1.8.5-2.3q2-.4 2.9 1.1c.8 1.4 1.3 1 2.6-2.2 1.6-3.8 1.6-3.9-.9-6.4-2.1-2.2-2.7-2.3-4.1-1.2-.8.7-1.7 1.1-1.8.9q-4-5.5-3.2-8c1-2.9-2.1-3.6-4.9-1l-2.3 2.1-2.7-2.1c-2.3-1.8-3.1-2-5.3-1-2 .9-2.8.9-3.4 0q-.6-1.2-5.5-.5a25 25 0 0 0-5.2 1c-.5.5 1.7 7.6 2.4 7.6.3 0 1.7-.9 3.2-2s3.5-1.8 4.4-1.5c2.1.8 3.1 4.5 1.2 4.5q-1.5-.2-.7 3c.5 2.7.3 3-2 3q-6.2.1-3.4 6.6 3.4 6.7-.5 2.6c-3-2.7-7.6-4.4-10-3.7-1.7.6-1.8.3-1.2-3.6s.6-4.2-1.2-3.4c-1 .5-3.6 1-5.6 1.3-3.4.4-3.8.7-3.8 3.3 0 3.4-2.6 5.1-6.8 4.3-3.7-.8-4.8 1.5-2.6 5.8 1.4 2.8 1.9 3 5.4 2.4 2.3-.4 4-.2 4.2.5s1.2.7 3.3-.1c3.5-1.3 7.5-.5 7.5 1.5 0 2.2-2 2.9-3.8 1.2-1.3-1.4-1.8-1.4-4.4-.1-2.5 1.3-2.8 2-2.8 6.4s.3 5 2 5c1.9 0 2 .2.5 3-.8 1.6-1.5 3.8-1.5 4.8 0 2.4 3.5 5.6 5.1 4.6.9-.5 1.1.5.7 4-.5 3.9-.2 4.9 1.5 6.1 1.9 1.3 2.2 1.3 3 0 1-1.9 4.7-1.9 7.2-.1 1.6 1.1 1.7 1.7.7 2.9s-.6 2 2.3 4.6c3 2.6 3.4 3.4 2.5 5-1.4 2.7-1.4 2.7 3 4.5 2.1.8 6 3.5 8.5 5.9 4.2 4.1 4.6 4.3 6.1 2.6a14 14 0 0 1 4.5-2.9q3-1.2 2.9-3.5c0-1.8 1.1-2.9 4.5-4.5 2.6-1.3 5.3-1.9 6.5-1.5q2 .6 5.1-1.6l3-2.1-2.8-1.8c-1.5-.9-3.4-2.4-4.1-3.2-1.9-2.3.4-3.4 2.7-1.4 3.9 3.6 7 1.3 7.1-5.2q0-2.3 2.5-3.2c2.5-.9 2.5-1.7 2.5-3.1 0-1.8-.4-2.1-2.9-1.6-3.9.8-7.1-.2-7.1-2.3 0-1.3 1.5-2.2 5.3-3.2l5.2-1.5-3.7-1.2c-4.2-1.4-4.9-3-1.8-3.8 1.8-.5 2-1.1 1.4-5.4q-.6-4.8.5-6.3 1.5-1.5-1.1-1.9c-2.2-.6-2.2-.7 1-4 2.7-2.8 3.1-3.8 2.6-6.5-.5-2.3-.1-3.8 1.5-5.8 1.1-1.5 2.1-3.8 2.1-5.3 0-1.4.4-3.2.9-4s.5-2.7 0-4.4-.5-3.7.1-4.6q.8-1.7 0-3.1c-.7-1.2-1.3-1.2-3.4 0-2 1-3.1 1.1-5.1.2-3.4-1.6-3.3-1.6-2.7 1.4m350.3 2.3c-3.6 1.9-4.9 4-5 7.9-.1 2.2 0 2.2 2.8.7 3.6-1.8 7.1-6.1 7.1-8.6 0-2.3-.6-2.3-4.9 0M53 538.6c-.7 1.9-1 3.7-.8 3.8.1.2 2 .6 4.1.9 3.5.6 3.7.5 3.7-2.3q0-2.8-2.2-4.4c-3.1-2.2-3.5-2.1-4.8 2"/><path d="M68 537.8c0 1.6.8 3.7 1.9 4.6 1.7 1.5 1.9 1.6 2.5.1.5-1.5-2.7-7.5-4-7.5-.2 0-.4 1.3-.4 2.8m-3.8 5.7q-2.6 5.5.8 5.5c3 0 4.2-3.1 2.1-5.9l-1.7-2.2zm-33.5 1.9q-1.6 1.4-1.1 2.9c.5 1.3 0 1.4-3 .7-4.1-.9-4.1-.9-2.2 5.3 2 6.6.1 6.2-6.8-1.6l-5.6-6.2 1.5 4.4c1.9 5.4 1.9 5.2-.7 4.2s-9.4 1.5-11.6 4.2c-1.1 1.3-.8 1.9 2 4a21 21 0 0 0 5.4 3.1c1.2.4 2.7 1.9 3.3 3.5.7 1.5 2.7 3.5 4.4 4.3 3 1.4 3.4 1.4 5.7-.4l6-4.1c3.9-2.5 5-5.5 2.6-6.9a4 4 0 0 1-1.6-2.9c0-2.9 3.7-3.9 8.2-2.1 3.5 1.4 4 1.4 5.5-.1 1.4-1.3 1.4-1.9.3-3.2a3 3 0 0 0-3.1-1q-2 .8-1.9-1.5c0-2.2-3.5-8-4.8-8q-.8.2-2.5 1.4m12.6 21.7c-1.7 1.7-2.4 1.9-4.1 1-3.1-1.7-5.1-1.3-7.5 1.2a35 35 0 0 1-5.1 4.1l-2.8 1.8 3.1 1.9c1.8 1.1 3.4 2.6 3.7 3.4.9 2.3 1.7 1.8 4.7-2.9l2.8-4.5 3.6 1.6c3.2 1.3 3.8 1.3 4.7.1.6-.8 2.1-2 3.4-2.7 2.2-1.1 2.2-1.3.5-4.4-.9-1.8-1.8-2.7-2.1-1.9q-.4 1.4-1.6.3t-3.3 1m444.8 5q-1.8 3.3 2.3 6.8c1.2 1 2 .6 4.5-3 1.7-2.3 2.9-4.5 2.6-4.8s-2.3-.6-4.4-.7c-2.8-.1-4.1.3-5 1.7m-443.7 8.1c-.8 1.5-1.9 2.8-2.5 2.8s-.8.9-.4 2q.6 2-1.9 5.1A14 14 0 0 0 37 594c0 1.3 5.4 1.9 6.3.7q.9-1.4 1.4 0c.7 2 5.2 1.5 8.4-.8 3-2.1 3.9-4.9 1.7-4.9-2.1 0-3.9-4.9-2.7-7.1 1.3-2.6.5-3.6-3.1-4.1-2.6-.4-3.4 0-4.6 2.4m427.2 4.7c-2.1 3.9-.9 6.1 1.7 3.3 1.3-1.4 1.5-2.5.9-4.3-.9-2.3-.9-2.3-2.6 1m5 12.9c-.3.5 1 2.3 2.8 4.1 2.9 2.8 3.4 3 4 1.5q.8-1.8-2.1-4c-3.1-2.6-3.9-2.8-4.7-1.6m-14.5 12c-3.5 5.5-3.7 6.5-1.6 8.2 1.4 1.2 1.3 1.5-.5 3.2-2.8 2.6-2.5 3.5 1.5 4.2 2.7.5 3.8 1.4 4.8 3.8l1.3 3.1 3.1-2.9c1.7-1.6 3.4-4.3 3.7-6.1.5-3 .2-3.3-4-5.3l-4.5-2.2 2.3-2.5c2.1-2.2 2.1-2.6.8-5-2.3-4-3.5-3.8-6.9 1.5m350.2 2.9q-2.1.4-2.3 1.3c0 1.2 3.8 3.2 4.3 2.3 1-2 1.6-4.3.9-4.2zM133 623q-2.2 3-4.6 3-2.5-.1-2.4 2c.1 2.1-.7 2-2.7 2.1-1.6 0-4.6.9-6.8 1.9l-4 1.9h3.7c4.9.1 6.8 1 6.8 3 0 1 1.1 2.4 2.5 3.1 2 1.1 2.7 1.1 4 0s1.9-.9 3.8.9c3.1 2.8 6.8 2.7 9.7-.4l2.3-2.5h-2.2c-1.8 0-2.1-.4-1.6-2 1-3-1.3-13.1-3.2-14.6-2.5-1.9-2.9-1.8-5.3 1.6m673.1.4c-1 1.2-.7 1.8 1.8 3a15 15 0 0 0 6.2 1.6c3.9 0 10.7 3.7 11.5 6.3.7 2.2.6 2.2-2.3 3.1-1.8.6-2.5.2-3.4-1.8-.6-1.3-1.9-2.6-2.8-2.9l-5.4-2.1c-4-1.8-3.9-1.8-5.1 3.6-.5 2.1-1.5 3-4.7 4q-4 1.1-5.2 3.6a6 6 0 0 1-3.9 2.9q-5.9 1.3 1.3 5.8c3.5 2.3 4 3 3.8 5.9-.4 3.9 2.4 8.6 4.9 8.6 1 0 3.8 2 6.2 4.5s4.8 4.5 5.2 4.5 1.4-1.2 2.2-2.8l1.5-2.7.1 4.6c0 2.5-.5 5-1.1 5.6q-1.2 1 2 3.2l3.1 2.2 3.1-2.2 3.1-2.2-2.7-2.2c-2.8-2.1-2.8-2.2-1.7-8.4 1.1-5.8 1-6.6-1.2-10.9-1.3-2.6-3.4-5.2-4.7-5.7-3.3-1.5-3.6-3.5-.4-3.5 2.4 0 2.5-.2 1.9-3.5-.7-4.2 0-4.3 5.7-1.4 3.9 2 4.1 2 5.5.2 2.7-3.6 1.7-7.1-3.7-12.8a23 23 0 0 0-11.2-7.4c-7.2-2.5-8.1-2.5-9.6-.7M474 630.5c0 2 4.7 4.2 6.1 2.8.5-.5.7-1.7.3-2.6-.8-2.2-6.4-2.3-6.4-.2m364.3 6.2q1.5 2.8.7 4.3c-1.1 1.7.5 3 3.7 3q2.3 0 3.7-2.9c1.4-2.6 1.4-3-.3-4.5-1-.9-3.5-2-5.6-2.3l-3.7-.6zM468 645c0 2.6 4.9 4.8 6.2 2.8q.7-1.2-1.3-3.1c-2.8-2.3-4.9-2.2-4.9.3m-48.3 3.8c-1.9 2.1-.6 4.2 2.5 4.2 2.1 0 2.3-1.8.4-4.2-1.2-1.7-1.4-1.7-2.9 0m56-.2c-1 1.1-.8 4.4.2 4.4q1 0 1.6-1c.8-1.2-.9-4.3-1.8-3.4M635 669.8q.1.9 2.1 1.5t1.6-.6c-.5-1.5-3.7-2.2-3.7-.9m133.7 20.1c-.8 3.2.5 7.3 2.4 7.8q2 .5 1.9 3.4 0 2.9 1.5 2.9c2.4 0 1.8-6.2-1.1-11.4-2.8-5-3.9-5.6-4.7-2.7M421 694.5c-1 1.2-1 1.8 0 3 2.6 3.2 6 1 3.8-2.5-1.5-2.4-2.2-2.5-3.8-.5m319 .3c0 1.2 3 5.2 3.9 5.2.7 0 3.1-4.3 3.1-5.5 0-.3-1.6-.5-3.5-.5s-3.5.3-3.5.8m-576.3 3.8c-1.3 1.3-.7 2.4 1.4 2.4q1.8 0 1.7-1.2c-.5-1.4-2.2-2.1-3.1-1.2m496.6.1c-.7.2-1.3 1.6-1.3 2.9 0 3.5 4.7 3.4 6-.2.6-1.4 1-2.7 1-3 0-.5-4.2-.4-5.7.3m-222.3 7c-2.7 6-2.9 6.9-1.6 7.9.9.6 1.6 2.1 1.6 3.2q-.2 3.5 7.9 2.9c3.3-.2 3.6.1 6.2 5.2l2.7 5.3-2.5 4.8c-2.4 4.6-2.4 4.9-.9 7.9 1.3 2.4 1.4 3.6.6 5.1q-1.9 3.5-3.6.8c-1-1.5-2.2 2.1-2.3 7a28 28 0 0 0 6.3 14.1c1.6 1.3 1.4 1.9 3.1-9.4q.6-3.5 2.2-3.5c1.6 0 8.8-5.1 11.1-7.9.6-.8 1.2-2.7 1.2-4.2a6 6 0 0 1 1.5-3.9c2.2-1.8 1.9-3.6-1.2-6.4-2.6-2.5-2.7-2.6-1.4-7.6 1.1-4.1 1.1-6 .1-9.4l-1.2-4.3h-10.5c-12.1 0-12.3 0-12.3-8.6 0-4.9-.3-5.7-1.9-5.7-1.4 0-2.8 1.9-5.1 6.7m269.3 1.7c-3.7 6.9-4 7.9-3.9 14.8l.1 7.4-4 1.9c-2.2 1-5.2 1.8-6.7 1.6-2-.2-3.4.7-5.9 3.9-3 3.7-3.7 4.1-6.9 3.6l-8.7-1.1-5.2-.7-2.1 4.2c-1.2 2.3-2 4.4-1.8 4.5.2.2 2.1 0 4.3-.5s6.4-1 9.3-1 6.5-.6 8-1.4 4.2-1.6 6.1-2c5.4-1 18.9-9.4 20.7-12.8 1.4-2.7 1.4-3.3-.7-8.4l-2.3-5.4 3.1-3.8c2.7-3.4 3.1-4.5 2.6-8-.3-2.3-.9-4.2-1.3-4.2s-2.5 3.3-4.7 7.4M122 712.1c-3.2 2-3.3 2.2-1.5 3.5 3.8 2.8 7.6 1.3 6.8-2.9-.6-3.2-.8-3.3-5.3-.6m47.6 13.2c-.7 2.7-.6 2.8 2.8 1.9l2.9-.8-2.6-1.6c-2.4-1.6-2.5-1.6-3.1.5m84.4 7.3v3.4l4.5-2.2c2.4-1.2 4.3-2.4 4-2.6s-2.2-.8-4.5-1.2l-4-.7zm-9.2 6.2c-3.7 2.2-4.5 3.1-3.7 4.2s1.2 1.2 1.6.2c.2-.6 2-1.2 3.8-1.2 2.5 0 3.4-.5 3.9-2.3 1.2-4.6.8-4.7-5.6-.9m220 36.7a27 27 0 0 1-12.6 1.6c-2.5-1.4-7.2 2.4-7.2 5.8 0 1.5.5 3.2 1.2 3.9.9.9.8 1.7-.2 3.7-1.1 2-2.1 2.5-5.4 2.6-3.3 0-4.6.6-6.3 2.9-3.4 4.2-3.6 5.4-1.1 6.9q2.3 1.5 2.6.2.4-1 1.9-1.1 1.4 0 .8 1.9c-.5 1.5.2 2.2 3.8 3.4l4.3 1.4 4.3-3.9 4.2-4-1.9-2.2c-1.8-1.9-1.9-2.4-.8-5.1.8-1.7 2.4-3.8 3.8-4.7s3.1-3 3.8-4.7c1-2.5 1.8-3.1 4.1-3.1 2.6 0 2.9-.4 2.9-3q-.1-4.2-2.2-2.5m8.3 23.3a41 41 0 0 1-16.4 6.2q-1.6.1-2.2 2.5l-1 4.9c-.4 1.9.2 2.6 3.5 3.9 3.6 1.4 4.4 1.4 7.9 0 3-1.2 4.2-2.3 4.6-4.5.5-2 1.8-3.4 4.8-4.9l4.6-2.5c.6-.5-3.2-7.4-4.1-7.4q-.8.1-1.7 1.8m157.4 32.6a26 26 0 0 1-6.3 2.6c-2.3.7-4.2 1.6-4.2 2s1.9 1.5 4.3 2.7l4.2 2 7.6-3.7c4.1-2.1 9.3-4.2 11.5-4.6 3.2-.6 3.5-.8 1.9-1.5-3.5-1.4-16.9-1-19 .5m58.7 6.8q-2.5 2.7.6 2.8c1.9 0 4.2-1.8 4.2-3.2 0-1.2-3.5-.9-4.8.4"/></svg>