<svg xmlns="http://www.w3.org/2000/svg" width="1365.333" height="1365.333" viewBox="0 0 1024 1024"><path d="M692 3.8a17 17 0 0 1-5.6 5.6c-3 1.4-3.4 2-3.4 5.4q0 7.2 12.2 12.5a21 21 0 0 1 7.4 5.2c1.6 2.5 1.6 3.2.1 12l-1.7 9.3 5 15.3c2.7 8.4 4.7 15.5 4.6 15.7-.6.5-4.8-5.8-9.9-14.8-4.2-7.3-4.9-9.5-5.3-15.5-.8-10.1-2.8-15.1-6.6-16.4-1.7-.6-3.9-1.1-4.8-1.1-3 0-8 7.1-10.1 14.3-.7 2.4-.2 4.2 2.6 9.8 1.9 3.8 3.5 8.2 3.5 10 0 1.7 1.4 6.9 3 11.6 3 8.4 3 8.9 2.9 26.2-.2 17.1-.1 17.8 2.4 23.4 2.4 5.2 2.6 6.4 1.7 10.4-.6 2.4-2.1 6.6-3.4 9.2-2.3 4.5-2.4 4.9-1.1 11.2 1.8 8 1.8 9.2.3 8.7-.7-.3-1.7-2.7-2.3-5.4l-1-4.9-7 .4c-3.9.2-7.2.5-7.4.7s.4 2.1 1.3 4.4c1 2.5 1.6 6.9 1.6 11.5 0 6.9.3 7.8 3.3 11.8a149 149 0 0 1 9.1 14.7c3.3 5.8 7.7 12.5 9.9 15 2.1 2.4 5.5 7.3 7.4 10.8 3.3 6 7.4 9.5 9 7.8.4-.4.9-3.7 1.1-7.4.4-6.6.3-6.8-4.5-13.8-4.2-6-4.9-7.6-4.5-10.7q.4-3.7-1.2-6.2c-.9-1.4-1.6-4.5-1.6-7.2 0-3.4-.6-5.3-2.2-7-2-2.1-2-2.5-.7-3.9s1.8-1.2 4 1.8c4.5 6 6.7 10.2 7.4 14.3 1.1 5.9 6 13.9 10.3 16.7 2.2 1.5 4.6 4.3 5.6 6.7 2.3 4.9 5.4 6.1 16.8 6.1h7.7l2.6-3.7c3.1-4.6 3.1-4.8 0-9.3-2.5-3.6-2.5-3.7-1.4-14.3.9-8 .9-11 0-12.1a39 39 0 0 0-8.6-4.2 33 33 0 0 1-14.8-10.4 37 37 0 0 1-10.6-15.9c-1.7-4.6-3-8.5-2.8-8.7s1.7.1 3.3.8c1.8.7 4.8 3.5 7.4 7.3a69 69 0 0 0 10.2 10.7l5.7 4.5 9.3-1.6 9.3-1.6 1.3-4c.8-2.2 1.6-7.3 1.9-11.3.5-6.6.4-7.5-1.7-9.7a8 8 0 0 0-5.1-2.5c-2.2 0-3.2-.8-4.9-3.8-1.9-3.3-3.1-4.2-8.9-6-6.4-2.1-6.9-2.5-14.4-11.7-4.3-5.2-7.6-9.5-7.4-9.5l8.8 3.4a209 209 0 0 0 31.5 10.6c2.7 0 2.9-1.1 1.4-7.4-.8-3.8-.6-4.3 5.2-12.3l6-8.3-8-8.7c-10.1-11-12.9-13.7-13.5-12.6-.3.4-1 3.5-1.7 6.7-1.1 5.4-5.3 13.6-6.9 13.6-2.5 0-3-2.9-2.4-12.5.7-12.3-1-18.4-5.7-20.2-2-.7-4.1-3.4-7.4-8.9-4.5-7.7-4.6-8.1-4.6-16.7s-.1-8.9-5.4-19.5c-4.9-9.5-6-11.1-10.6-14a32 32 0 0 0-7.9-3.8c-2.5-.5-3.1-.1-5.1 3.4M582 29.1c0 7.8 7.3 36 14.1 54.8 6 16.3 16.9 36.1 24.7 44.6l5.4 6-.5 14.5-.5 14.6 10.9 8.7a125 125 0 0 0 11.6 8.7c.5 0 2-2.1 3.5-4.8 2.2-4 2.7-6.1 2.9-13.2l.2-8.4-4.9-3.3c-5.8-3.9-8-8.4-12-23.6-2.2-8.4-4.9-14.7-16.1-36.2l-13.5-26-1.6-12.2-1.6-12.3-3.6-2.4c-2-1.3-5.6-5.4-7.9-9-3.9-6-4.6-6.6-7.7-6.6H582z"/><path d="M637 36.1c-2.7 3.8-2.9 4.5-2.3 10.3.3 3.5.1 9.2-.6 12.7q-1.1 6.5-.1 9.8c.5 1.9 1.2 6.8 1.6 11 .5 6.7 1.2 8.7 5.9 17.1 2.9 5.2 6.7 13.9 8.5 19.4s5.9 14.4 9.3 20.3c5.3 9.2 6.6 10.7 10.6 12.7s5.1 2.2 9.1 1.1l4.5-1.1 1.1-6.9c1.1-6.5 1-7.1-1.6-12.9a93 93 0 0 1-5-16.6c-2-9.5-3.3-12.5-13-31l-10.8-20.5-.1-11c-.1-12.5-.2-12.6-9.4-16.4l-4.8-2zm167.9 11.5a45 45 0 0 0-2.3 17.7c.3 2.1 2.2 7.2 4.1 11.4 3 6.6 3.7 7.4 5.6 6.9 1.2-.3 5-.6 8.3-.6h6.1l1.7-4.5c1.7-4.4 1.9-4.5 6.2-4.5 2.4 0 4.4-.2 4.4-.5s-.9-2.4-2.1-4.6c-1.5-2.9-1.7-4.4-1-5.3.8-1 .6-2.6-.6-6-1.5-4-2.1-4.6-4.6-4.6-1.6 0-4 .9-5.4 2-4.1 3.2-5.9 2.6-6.7-2s-3.3-6.8-9-7.7c-3.2-.5-3.7-.3-4.7 2.3M503.1 61q-2.3 2-6.7 2c-4.3 0-4.4 0-5.5 4.5-.8 3.3-2.4 5.7-6.3 9.2a22 22 0 0 1-12.8 6.8l-7.7 1.9-4.3-3.4-5.5-4.3c-.9-.7-2.1.7-4.2 5.2l-2.9 6.1 1.8 5.8 1.8 5.7 5.3 1 5.3 1-.3 4.6c-.2 3.9.4 5.6 3.3 10.2s3.6 6.6 3.6 10.5c0 4.3.6 5.7 4.5 10.8 4.5 5.7 4.5 5.8 4.5 13.6 0 5.9.4 8 1.4 8.4a22 22 0 0 1 4.5 7 62 62 0 0 0 11.4 17.1c2.4 2.5 3.5 5.5 5.7 15.3 1.6 6.7 3 12.3 3.2 12.5s2.4 1.3 5 2.4c3.9 1.6 4.9 2.7 7.1 7.3 1.5 3.5 4.3 7 7.6 9.9 4.4 3.8 5.1 4.9 5 7.9q-.1 3.1-.6 1.4c-.6-3.2-12.5-13.1-25.5-21.4-9.3-5.9-11.8-8-11.8-9.8q-.1-2.3 2.3-2.2c3 0 4.4-1.1 5.5-4.1.9-2.3.1-3.9-8-15.5a144 144 0 0 1-23.7-48.4 67 67 0 0 0-9-22.7c-4.6-8-7.4-11.7-10.7-14.1l-4.5-3.3-4.2 3.1-4.2 3.1-.9-3.8c-.6-2.8-2.1-4.7-5.7-7.5-6.2-4.9-9.8-4.5-13.1 1.4-2 3.5-2.3 3.7-3 1.8-1.1-2.9-9.2-2.9-10.8 0q-1 1.8-2.3 2c-1.3.2-2.2 1.8-3.5 4-2 3.5-2.1 4.1-.7 4.6 1.1.5 1.5 2.1 1.5 6.4 0 3.3-.4 6.1-1 6.5-.5.3-.9 3.4-1 6.8l-.2 11.2c-.3 8.2.9 12.2 4.3 14.2 2.8 1.7 2.9 1.8 1 3.3-1.4 1.1-2.6 5-4.6 15.4a79 79 0 0 1-5.6 19.8c-2.8 5.5-2.9 5.9-1.3 8.3 1.5 2.3 1.5 2.6-.4 5.2a22 22 0 0 0-2.7 7.8c-.4 2.8-1.1 5.7-1.6 6.6-.6 1.2 0 2.4 2.3 4.5 1.6 1.6 5.2 6 7.8 9.9a52 52 0 0 0 21.8 20c2.8.9 5.2 2.2 5.2 2.8s1.1 4.8 2.5 9.4c2.6 8.3 2.6 8.4 10.2 14.4l7.5 6 9.7-.2c5.3 0 11.2.4 13.1 1s6.5 1.1 10.2 1.1h6.6l6.6 7.2q6.7 7.4 8 11.9c.8 2.5 2.4 6.5 3.6 8.8 1.9 3.9 2.1 5.6 1.9 21.4l-.2 17.1 2.7.9c2 .7 2.9 1.9 3.7 5.4 1.5 5.8 4 7 11.1 5.5 12.6-2.7 12.1-2.8 15.7 4.5 2.7 5.6 3.4 8.4 4.3 18.4l1.1 11.7 9.3 7.1c9.3 7.1 15.5 13.6 35.7 37.3a66 66 0 0 0 13.2 13.2c1.3.3 3.9 2.8 5.9 5.5 3.2 4.3 4 4.9 8.3 5.4 2.7.3 5.6.9 6.5 1.2q1.6.6 5.4-2.8l3.8-3.4-2.1-9.4c-1.8-7.9-2-10.6-1.3-16.4 1.5-11.4 1.7-10.9-6-16.7-5.5-4.2-7.1-6-7.6-8.7-.4-1.9-1.9-4.5-3.3-5.7l-2.6-2.2 2.7-5.6q2.8-5.5 5.8-7.1c3.4-1.8 3.6-2.6 1.5-8.4-1.4-4-1.4-4.1 1.1-4.7l2.5-.6-2-2.2a35 35 0 0 1-4.1-10.7l-2.2-8.6-5-1.2a15 15 0 0 1-6.3-2.7c-1.1-1.5-2-1.5-11 .5l-9.8 2.2-8.6-4.5q-8.6-4.5-11.1-3.9-2.6.5-4.8-2l-2.3-2.5 4.5-.6c3.8-.6 5.4-.2 10.5 2.3 3.3 1.7 6.8 3.1 7.6 3.1.9 0 5.5-3.2 10.3-7.2l9.1-7.5c.3-.2-3.6-8.6-8.5-18.7-8.8-18.2-8.9-18.4-12.9-19.6-2.2-.7-6.3-2.5-9-4.1-6.3-3.5-8.5-3.1-14.7 2.9-4.3 4.2-5 4.5-10.4 4.6-4.6.1-5.9-.2-6.2-1.5-.2-1.2.7-1.8 3.7-2.3 3.1-.5 4.8-1.6 7.7-5.1 2.8-3.5 4.3-4.5 6.7-4.5 1.6 0 4.9-1.2 7.3-2.8 3.9-2.4 4.4-3.1 4.4-6.5 0-2.9-.9-4.9-3.5-8.2-2-2.3-4.3-6.4-5.2-9q-1.6-4.8-4.5-6.4c-1.6-.9-5.3-3-8.1-4.8l-5.2-3.2 3-1.1c6.1-2.3 7.8-2.1 15 1.8 6.7 3.6 7.2 4.2 11.5 12.3a109 109 0 0 0 21.9 29.9c4.5 4 8.3 8.4 10.3 12.2 2.1 3.7 5 7.2 7.9 9.4l4.6 3.4.6-7.6c.6-6.1 1.2-8.3 3.7-11.9 3.6-5.2 3.6-5.5 1-20.4a63 63 0 0 0-8.5-24.3 75 75 0 0 0-17.1-23.7c-9.9-10.4-12.4-14.2-12.4-19.3q.1-1.7 1.8-1.8 2 0 7.5 8.4c4 6.1 7.3 9.6 12.1 13.1 6.3 4.6 6.8 5.4 15.1 21 7.3 13.9 8.5 16.9 8.5 21.1 0 2.7 1.1 9.2 2.5 14.4s2.5 9.8 2.5 10.2-1.4.8-3.2 1c-2.9.3-3.3.7-4.4 5-1 3.9-.9 4.9.2 5.9q1.4 1.4 1.3 5.3c-.2 3.4 1.3 7.2 8.5 21.3L635 348h3.9c2.2 0 4.3-.5 4.6-1 .4-.6.6-5 .6-9.8s.6-11 1.3-13.8c1.1-4.3 1.1-6.4 0-12.5-2-11.4-2-11.5 1.6-8.9 4.5 3.2 11.9 2 18-2.8l4.9-3.9c.8-.5-8.3-13.4-10.8-15.4a9 9 0 0 1-3.1-5.2c-.5-2.9-1.2-3.5-8.7-6.6-6.5-2.6-8.3-3.8-8.3-5.4 0-1.9.4-2 11.3-1.4 10.7.6 11.7.8 21.2 5.3 14.8 6.8 14.2 6.7 14.8 3.8.4-2.2-.4-2.9-8.7-7.1a65 65 0 0 1-16.6-11.9 32 32 0 0 0-14-9.3 25 25 0 0 1-11.9-7.5q-5.4-5.4-8.6-6c-4.8-.9-11.5-8.5-11.5-13 0-1.9.5-3.8 1-4.1s1-1.9 1-3.5v-2.8l11.3 3.5a238 238 0 0 1 24.2 9.4l13 5.8 1.8-2.2c1.3-1.6 1.6-3.3 1.3-6.2l-1.2-9.6-.6-5.6-16.9-6.8c-16.8-6.8-17.1-7-22.5-13.2-6.5-7.3-8-7.7-15.7-3.4-8.8 4.9-9.2 4.9-15-.5-4.7-4.3-9.5-11.3-9.7-13.8 0-.6 1.5.5 3.4 2.3 3.9 3.8 5.4 3.7 12.8-1.3 3.8-2.5 4.9-3.9 5.8-7.4.6-2.4.8-5.8.4-7.5-.9-5.1-7-11-15.9-15.6l-8.1-4.1-8.7 3.5c-4.8 1.9-9 3.5-9.3 3.5s-.4-1-.1-2.3l1.7-7.8c1.1-5.6 1.2-5.7 5.5-6.8 6.3-1.6 6.2-4.4-.6-9.6l-5-3.8-5.2 2.1a29 29 0 0 1-11.4 2.2c-5.6 0-6.3.2-8.2 2.9-1.7 2.4-3 2.9-7.8 3.5-3.2.4-6.3 1-6.9 1.4s-1.8 4.2-2.7 8.5c-1.5 7-4.3 13.4-5.4 12.3-.2-.2.4-4.4 1.3-9.3l1.7-9-2.7-7.3-2.7-7.3 7.1-6.5c4.2-3.8 10-7.8 14.1-9.8 3.8-1.8 6.9-3.6 6.9-3.9s-4.2-3.6-9.2-7.4c-5.1-3.8-12.1-9.7-15.5-13-6.1-5.9-6.4-6.1-11.5-6.1-3.8.1-6 .6-7.7 2m293.6 38.4c-2 1.8-4.6 5.5-5.7 8.1s-3 6-4.1 7.6c-1.8 2.6-2.6 2.9-7.9 2.9-5.6 0-6 .2-9.4 4.2-4.9 5.7-4.9 9.8-.1 16.2 2 2.5 4 4.6 4.5 4.6 2 0 3.8 5.8 4.3 13.9.5 7.3.9 8.7 3.1 11l2.6 2.5 6.5-3.2c3.6-1.8 8-3.2 9.9-3.2 1.8 0 4.7-.5 6.5-1.1l3.1-1.1v-8.9c0-6.5.4-9.6 1.6-11.4 2.2-3.3 1.1-5.7-4.4-10.1l-5.5-4.4c-.4-.4-.5-2-.1-3.5l.7-2.8 9.5.7c5.2.4 10.4 1.1 11.7 1.6 2.2.8 2.2.7 2.2-7.6 0-9.6-.8-10.8-7.4-11.7-4.6-.6-10.3-4-10.3-6.3q0-1.4-3.8-1.4c-2.9 0-4.7.8-7.5 3.4"/><path d="M368 252c-9.9 5-15 7.1-19.2 7.6-6.3.7-6.8 1.4-6.8 9.1 0 4.8-1.8 9.6-3.4 9l-10-3.3c-6.6-2.2-9.1-3.5-9.9-5.2s-1.8-2.2-4.9-2.2c-2.9 0-5.4-1-9.6-3.9-5.1-3.4-6.1-3.8-10.2-3.2l-4.5.6-.6 5.5c-.4 3-.4 7.2-.1 9.3.4 3.5 1 4.1 4.8 5.8 4.3 1.8 4.4 1.9 4.4 6.5 0 5.5 2.3 9.8 8.9 16.6 2.7 2.9 5.4 4.8 6.8 4.8 1.2 0 2.6.6 3 1.4 1.4 2.3 9 5.6 16.5 7.1 4 .7 9.8 2.2 12.8 3.3l5.5 1.9 1.7 6.1c.9 3.4 1.4 6.2 1.1 6.2s-2.7-1.3-5.3-2.9c-4.4-2.7-5-2.8-9.4-1.8-4.3 1-4.8.9-7.4-1.6-4.6-4.3-7.2-4.4-13.6-.1-4.5 3-5.4 3.9-4.2 4.6.9.5 1.6 2.2 1.6 3.7 0 2.3.5 3 2.9 3.4q3 .4 3.4 3.4c.9 4.2 11.4 10 20.7 11.3q7 1 9 0c1.5-.8 2.4-.3 5.3 3 3.2 3.7 3.5 3.9 6.8 3 4.7-1.4 4.4-1.5 8 3.5 1.8 2.5 4 4.5 5.1 4.5q1.7.1 1.8 1.3c.1 1.2 3.4 4.6 7.5 8.7 6.8 6.8 7.6 7.3 9.7 6.2 1.3-.6 5.4-1.6 9.2-2.2a50 50 0 0 0 10.7-3 19 19 0 0 1 7.3-2c5.1 0 10.6-5 10.6-9.6 0-3.7-1.9-5.1-10-7.5-8.4-2.4-9.5-4.9-2-4.9 4.8 0 5-.1 5-2.8.1-2.5.1-2.6 1.2-.7 1.8 3.2 2.8 3.5 13.2 3.5 9 0 10.2.2 13.2 2.5 4.3 3.3 5.8 3.2 8.7-.8 2-2.6 2.6-4.6 2.9-10.7.3-6.9.7-8 4.1-12.7 2-2.8 3.7-5.6 3.7-6.2a71 71 0 0 0-11.2-19.9c-3.2-3-4.2-3.4-13.8-4.5l-10.4-1.2-8.9-12.3-8.9-12.3-12.7-6.3c-16.4-8.3-16.9-8.7-17.7-15.8-.7-5.6-.6-5.7 2.1-6.4l2.8-.7-2.2-1.9c-4.5-3.6-10.2-2.4-25.1 5.2m-148.8 36.8c-2.3.9-4.5 2.4-4.8 3.4q-.6 1.7-2.9 1.8c-1.3 0-3.7 1.1-5.3 2.5s-5.8 3.8-9.3 5.4-7.7 4.2-9.3 6l-2.9 3 5.4-.6a15 15 0 0 0 7.5-2.4c2.9-2.7 8.2-2.4 12.6.6 3.5 2.4 4.5 2.5 16.8 2.5 9.3 0 14.1.4 16.6 1.5 2 .8 6.5 1.8 10.1 2.1 6 .6 6.6.6 6-1-.4-1-.7-3.1-.7-4.7 0-2.4-.4-2.9-2.3-2.9q-2.3 0-8.7-6.6a52 52 0 0 0-10-8.1 79 79 0 0 0-14-4.2zM641 387.4l3 8.9c2.3 6.7 3 10.4 3 16.4 0 13.7.9 18.2 3.9 19.8 3 1.5 10.3 13.7 12.2 20.3 1.1 3.8 5.7 9.2 7.8 9.2 1.7 0 4.9-4.8 5.9-9 1.1-4.4 1.1-4.6-3.8-11.7-4.8-6.8-5-7.4-5-13.8 0-5.8-.3-6.8-2-7.2q-2-.5-2-3.3c0-2-1.2-3.7-4.8-6.8-4.2-3.5-5.1-4.9-7-11.4-2-7-2.3-7.5-6.7-9.6-2.5-1.2-4.5-2-4.5-1.8m-144.6 16.4c-.9.5-.9 2.3-.2 6.5 1 5.7 1.1 5.8 9.7 12.4l11.3 9.1 2.7 2.4-2.5-7.6a69 69 0 0 1-2.4-9.2c0-.9-2.8-4.5-6.2-8-6-6.3-9.2-7.7-12.4-5.6m35 39.9 1.2 4.6a8 8 0 0 0 3.4 4.4c1.6.9 3.7 3.3 4.8 5.2 1.2 2 4.1 5.5 6.5 7.8s4.9 5.4 5.6 7c1.5 3.8 6.6 6.7 9.2 5.3 2.4-1.3 2.4-1.8-.1-7.1-1.1-2.4-2-5.3-2-6.5 0-4.4-5.2-12.5-11.2-17.5-5.6-4.7-6.2-4.9-11.9-4.9-5.3 0-6 .2-5.5 1.7m-9.9 51.3c-1.6 2.6.7 8.2 5.5 13.5 2.7 3 5.9 7.3 7.1 9.6 1.8 3.6 1.9 4.7 1 8.3-1.1 4.5.3 11.4 4 19.1 1 2.2 1.9 5.6 1.9 7.5 0 2.5.9 4.3 3.2 6.7l3.2 3.3h-3.2c-1.8 0-3.2.2-3.2.5 0 2 4.6 11.3 7.5 15 1.9 2.6 3.8 5.7 4.1 7.1.5 2.1 5.1 6.4 6.8 6.4.3 0 .6-1.5.6-3.3.1-4.7 4.5-9.1 11.3-11.1s6.7-2 6.7.8q-.1 2.4 5 6.6l5 4.2v-8.1c0-4.5.3-8.1.6-8.1s2.4 1.3 4.7 2.9 5.7 3.6 7.5 4.5c2.4 1.3 4.1 3.3 6 7.4 2.2 5 2.5 6.8 2.3 15.3l-.3 9.6 4.5 6.9c2.4 3.8 5.2 8.5 6.2 10.4s4.3 6.7 7.4 10.5c3.1 3.9 6.4 8.6 7.5 10.5s4.1 5 6.9 6.9l5.1 3.3 6.4-6.6c6.3-6.5 6.4-6.6 5.7-10.8-.5-2.5-2.3-6.4-4.6-9.5-2.2-2.9-3.9-5.6-3.9-6.1s1.6-2.2 3.5-3.6l3.5-2.7v-8.7c0-8.6 0-8.7-3.2-11.4-1.8-1.4-3.1-2.8-2.8-3l8.1-5.1c7.4-4.5 7.6-4.8 8.3-9.3.3-2.6.4-4.9.1-5.2-.2-.3-2.7 0-5.4.5-5.4 1.1-6.1.6-6.1-4 0-1.2-2.2-4.9-4.8-8.2s-6.7-9.2-9.1-13.1c-4-6.4-4.7-7.2-9-8.3l-8.3-2.2q-3.7-1-5.5-3.9c-1.4-2.5-2.4-3-5.4-3-5.2 0-14.6-6.5-18.7-12.9-6-9.2-15.1-14-26.5-14.1-3.3 0-4.9-.9-10-5.4-6-5.4-6.1-5.4-14.1-6.1a93 93 0 0 1-20.7-4q-1.6-.4-2.4.5m42.2 131.7a81 81 0 0 0-.7 11.4v7.5l8.5 10.1a155 155 0 0 0 9.2 10.6c1.4.8 13.3-1.6 13.3-2.7 0-2-6.9-27-8.9-32.1-1.7-4.5-2.2-5-5.2-5.3a74 74 0 0 1-14-2.7c-1.3-.5-1.8.2-2.2 3.2m41.3 90.6v8.3l6.8 2.2 7.5 2.2c.4 0-.1-1.7-1.1-3.8-1.1-2-2.7-6.1-3.7-9-1.4-4.5-2.3-5.6-5.1-6.8-1.8-.8-3.6-1.4-3.9-1.4s-.5 3.7-.5 8.3m-84.8 44.5-11.3 2.6.7 6.3c.6 6.2.6 6.3-1.8 6.3-3.5 0-5.3 1.9-7.2 7.4-2.1 6.4-1.3 12 2 13.5 1.9.8 2.4 1.8 2.4 4.9s-.5 4.1-2.5 5c-3.2 1.5-3.2 2.1.8 6.4 2.3 2.5 4.4 3.7 7.5 4.3l4.2.7-2.5 4.2c-3.2 5.4-3.2 8.6 0 14q2.5 4.4 6.4 5.8c3.1 1.3 4.7 2.9 8.1 8.8 2.3 4 5.3 9.7 6.5 12.7 1.2 3.1 4.3 7.7 7.1 10.6s5.4 6.1 6.1 7.2c1.9 3.1 1.6 13.5-.5 17.5-1.3 2.7-1.7 5.2-1.4 10.8.4 7.1.4 7.3 3.6 8.6 4.1 1.7 6.6 5.5 6.6 10q0 3.4 1.6 4.4c1.4.8 1.5 1.5.6 4-.9 2.6-.8 3.1 1.3 4 1.3.6 3.5 3.3 5 6.1 2.1 3.7 3.5 5.2 5.7 5.6 1.6.4 3.4 1.7 3.9 2.9a15 15 0 0 0 5.7 4.7c2.7 1.3 8.7 6.6 13.8 11.9l9.2 9.5 1.7 8c1.5 7.1 2.2 8.5 6.3 12.7 2.6 2.7 5 4.8 5.5 4.8 2.7 0 14 6.6 19 11 4.5 4.1 6 5 7.1 4.1 1-.8 2.1-.8 4.1-.1 3.4 1.3 4.1.5 5-6.1 1-7.4-1.9-18.8-6-23.6a25 25 0 0 1-6.5-19v-7.5l-2.7.6c-9.2 1.8-10.3 1.8-10.3.3 0-.8.9-4.3 2-7.8 1.8-5.9 1.8-6.3.2-7.6-2.3-1.8-9.7-1-16.2 1.8-4.1 1.8-5.6 3.1-7.5 6.8l-2.4 4.6-.1-4.7c0-4-.6-5.4-3.3-8.5-4.3-4.8-8-10.3-7.5-10.8.2-.3 4.6.3 9.7 1.1l9.3 1.6 4.7-4.6c3.9-3.9 5.3-4.6 8.5-4.6 3.1 0 4.5-.7 7.2-3.6 1.9-1.9 3.4-4.1 3.4-4.8 0-1.9-2.5-3.8-4.7-3.6-1 .1-3.7.2-6 .1-3.9-.1-4.4-.5-6.7-4.3a50 50 0 0 1-3.1-6.7c-.7-2.3-.7-2.3 6.4-1.9q7 .3 7.1-.7c0-.5-.9-2.8-1.8-5-1.4-3-1.6-4.6-.9-6.6.9-2.3.5-3.4-3.4-9-4.2-6.1-4.8-6.4-15-10.8a52 52 0 0 1-19.6-13.1c-5-4.7-9.6-9.5-10.2-10.7-1.1-2.1-.8-2.1 6.3 1 6.6 2.8 8 3.9 12 9.4 4.8 6.6 6.3 7.3 10.6 4.8 1.4-.8 4.3-1.5 6.5-1.5 5 0 5.5-.4 8.3-6.3l2.3-4.9-4.2-3.6c-3.7-3.4-4.1-4.2-4.3-8.9-.1-3.2-.7-5.8-1.6-6.7a52 52 0 0 0-23.2-5.6c-4 0-7.8-.4-8.3-.8a23 23 0 0 1-6.5-10.4c-.1-1.3-2-4.4-4.5-7.1l-4.3-4.7h-10.1a67 67 0 0 0-24.4 3.6c-4.7 1.8-5.7 1.8-5.7 0 0-.8 2.1-2.1 4.8-3 3.4-1.2 5.3-2.5 6.6-4.8a46 46 0 0 1 13.9-13.9l5.6-3.6q.3-.4-1-1.9c-1.1-1.3-2.6-1.5-9.1-.9-7.4.7-7.8.6-7.8-1.3q.1-2.2 4.3-5.2c2.4-1.7 5.1-4.4 6-5.9l1.7-2.9-7.2-5.1c-3.9-2.8-7.9-5-8.7-5-.9.1-6.7 1.3-12.9 2.7m106.5 11.9a28 28 0 0 0-1.2 5.5l-.7 4.8h6.6c6.6 0 6.6 0 6.6-2.8 0-3.6-4.6-8.2-8.2-8.2-1.5 0-2.9.3-3.1.7"/></svg>