<svg xmlns="http://www.w3.org/2000/svg" width="1365.333" height="1365.333" viewBox="0 0 1024 1024"><path d="M509.5 1.2c-4.4.5-9.9 1.3-12.3 1.8a54 54 0 0 1-15.8-.1c-13.5-1.2-15-.7-14 5 .4 2.5.1 4-1.1 5.3-1.4 1.6-1.5 10.8-1.1 102.8l.5 101h-23.6c-13 0-70.6-.5-128.1-1l-104.4-1-3.6-2.8c-5.9-4.8-7.9-5.5-13.6-4.9q-5.3.6-8.6 3.1a34 34 0 0 1-15 6.6c-2.5 0-2.7.2-1.7 2.4a8 8 0 0 0 3.4 3.4c1.9.9 2.3 2 2.9 9.9.3 4.8 1 8.9 1.5 9.1 3.7 1.2 4.2 2.9 5.1 15.2l1.9 22.4c.8 9.2.7 10.3-1.5 15.7a36 36 0 0 0-2.4 7.4q-.1 1.3-1 1.5c-1.9 0-3.1-5.3-2.4-11.1.4-3.2.4-6.6 0-7.5-.6-1.6-.8-1.6-2.5 0-1.8 1.7-2 1.7-3.1-.3-.6-1.2-2.1-2.1-3.4-2.1s-3.8-.3-5.7-.7c-2.8-.5-3-.7-1.4-1.4 1.1-.4 4.4-.8 7.3-.8l5.2-.1v-4.9c0-4.8-.1-4.9-3.4-5.5a15 15 0 0 0-11.9 2.7c-2.2 1.5-3.8 1.8-7 1.4-3.4-.5-4.6-.2-6.5 1.6q-2.3 2.1-7.5 2.7c-5.9.6-6.4 1.5-6.6 11.7-.1 5.8.1 6.3 2.1 6.3 1.2 0 2.9-.7 3.8-1.5 1.6-1.5 2.1-1.2 5.8 3.2q5.2 6.3 15.8 27.4c1.3 2.5 3.1 5.2 4 6 2.1 1.7 8.5 1.2 10-.7 1-1.3 1.6-.9 4 2.5 3.5 4.8 14 11.1 18.5 11.1q3.1 0 8 3.6l4.9 3.6 11-.4 11-.1-4.7 2.8a30 30 0 0 0-6.9 5.3q-2 2.6-2.8 1.4c-.4-.7-2.5-1.2-4.7-1.2-3.4 0-3.9.3-3.9 2.2 0 1.3 1.4 4.5 3 7.3s3 5.6 3 6.4c0 2.5-3.1-1-5.2-5.9-2.8-6.4-5.5-9-9.5-9-1.9 0-5-.7-7-1.5-4.5-1.9-7-1.9-10.7 0q-4.7 2.5-4.6-1.4c0-3.9-6.4-6.5-11.8-4.7-2.2.7-2.3 1.1-1.6 6.2s.5 5.4-1.4 5.4c-1.6 0-2.1-.9-2.7-5.5-.5-4.7-1.1-5.8-4.5-8.5q-6.8-5.4-11.7-.8-2.1 1.9-2.3 1.1c0-.5.9-1.8 2.1-2.9 1.9-1.7 2-2.8 1.7-11.5-.3-10.3-1.9-13.9-5.9-13.9-2.4 0-7.2 6.4-6.5 8.7.3 1 1.2 8.5 2.1 16.8.9 8.2 2.3 17.1 3.2 19.8q1.5 4.8.9 11c-.3 3.4-.5 9.6-.5 13.9 0 8.1-1.5 14.8-5.1 21.8-2 4-2.2 5.2-1.5 14.6l.7 10.3-5.1 7.3c-2.7 4-7.7 10.3-11 14s-6.2 7.6-6.6 8.7-2.8 3.6-5.4 5.5c-4.9 3.6-7.1 8-7.1 14.3q0 3-3 5.8c-2.3 2.2-3 3.6-2.5 5.3s-.3 3.3-2.5 6c-2.6 3.1-3 4.5-3 9.3q0 9-2.1 8.9c-.5 0-.9-2.9-.9-6.4 0-5.5-.3-6.7-2.3-8.3-3.5-2.8-6.7-7.9-6.7-10.7q0-2.5-2.5-4.2c-3.3-2.2-6-1.5-5.9 1.6q.3 4.1-4.3 4c-1.9 0-2.2.7-2.8 5.5-.4 3-1.1 5.5-1.6 5.5s-.9-.6-.9-1.3-1.3-2.3-2.8-3.4c-2.4-1.8-3.1-3.3-4-9.2-1.6-9.6-3.9-15.1-6.3-15.1-1 0-1.9-.4-1.9-.9s-1.1-1.2-2.5-1.5q-2.7-.6-2.5-3.2 0-2.5-1.2-2.1-1.3.4-1.1 6c.2 4.9.8 6.7 4.8 12.9 2.9 4.4 5 8.9 5.4 11.7s2.4 7.2 4.8 10.8a50 50 0 0 1 5.3 10.7q1.3 4.6 4 6.6c2.2 1.6 2.8 2.9 3.3 7.5.6 5.7.9 6.2 14.8 25.1 2.6 3.5 3.3 5.6 4.3 14.1.8 7.2 1.7 10.7 3.4 13a12 12 0 0 1 2.2 5.6q0 2.6 5.1 7.4c2.8 2.6 6.7 7.5 8.7 10.8s7.1 10.7 11.3 16.5c7 9.6 7.8 11.2 9.7 19.5a80 80 0 0 1 2.1 15.5c0 7.7 2.1 15.6 4.2 15.4l3.4-.5q1.9-.5 2.3 1.6c.6 3.4 6.2 6.4 6.2 3.3 0-1.6 5.1-6.8 6.6-6.8.7 0 2.7 2.1 4.5 4.7 3 4.3 3.3 4.5 4 2.5q.8-2.2 3.6-2.2c2.3 0 3.4 1 6.5 5.9 3.3 5.2 3.6 6.4 2.7 8.9-.9 2.6-.6 3.2 3.6 7.5 3.7 3.6 4.6 5.2 4.3 7.4-.5 4.3-3 3.8-6.1-1.2-2.4-3.7-3.4-4.5-5.9-4.5-2.9 0-3-.2-2.4-3.3 2-9.7 2.1-9.2-2.2-10.5-2.2-.7-5.1-1.2-6.4-1.2s-3.7-.9-5.2-2.1c-2.1-1.7-2.6-1.8-2.6-.5 0 2.6-4.8 1.9-10.8-1.5l-5.4-3.1 2 2.9a40 40 0 0 0 4.2 4.8c1.3 1.1 4.9 5.4 8 9.5 3.2 4.1 7.9 9.5 10.5 12s9.1 9.7 14.5 16.1l9.7 11.6.7 7.3q1.3 13.8 9.6 21.5 4.5 4.2 3 1.7c-.6-1.3 2.1 1.1 6.2 5.4 4 4.2 11.6 11.5 16.8 16.2s11.4 11.3 13.7 14.7c3 4.5 7.9 9.4 17 16.8 7 5.8 17.3 14.4 22.8 19.2a93 93 0 0 0 15.3 11c4.1 1.9 10.4 7.5 28.5 25.2a378 378 0 0 1 26.5 27.8c2.5 3.8 4.2 5.3 7.3 6.4 3.1 1 4.8 2.5 7 5.9 1.6 2.5 2.7 5.3 2.5 6.2l-1.1 7.2-.6 5.6 4.8 2.8a172 172 0 0 1 38 30.2c10.7 10.8 14.5 15.4 15.6 18.6a119 119 0 0 0 22.1 29.6c.2 0 4-7.3 8.5-16.3 5.8-11.7 10-18.6 15.1-24.9l7-8.8h6.6c9.9 0 14.3-3.4 15.9-12.3l.8-3.9 5.6.6c11.3 1.3 10.4.6 20.3 15.4 5 7.6 9.6 14 10.1 14.4a97 97 0 0 0 23.3 4.9c4.5.1 7.2-.5 11.3-2.4 8.9-4.2 9.1-6 1.5-11.2-10.8-7.4-11-12-1.7-32.1 3.6-8 7.5-15 8.5-15.5q1.7-1.1 1.8-3.7c0-2.5-.5-2.8-8.3-5-7-2-8.9-3-13.2-7.2a43 43 0 0 0-12.6-8.1c-6.8-2.9-7.8-3.6-8.7-6.7-.9-2.7-.8-4.1.4-6.3l1.4-2.9 3.7 1.8c3.5 1.6 3.6 1.6 4.7-.2.6-1.1 2.1-3 3.3-4.3a12 12 0 0 0 2.9-5.1 10 10 0 0 1 2.7-4.3c2-1.6 1.7-2.1-12.3-20.2l-14.4-18.6-2.3 3.8a14 14 0 0 1-5.4 5.1c-2.8 1.2-3.3 1.2-4.6-.6a10 10 0 0 1 4.2-15.1c3.8-1.8 10.6-15.4 11.3-22.5.4-4.3 0-5.4-3.8-11.3-4.2-6.4-4.2-6.7-3.4-11.8.7-4 .5-6.8-.8-11.7-2.4-9.4-2.3-11 .7-11 5.8 0 11.6 2.4 13.6 5.7 1.1 1.7 2.9 3.5 4 3.8 1 .4 2.6 2 3.4 3.6l1.6 2.9 5.6-5.5c4.7-4.6 6.1-5.4 9.2-5.4 4.7.1 14.7-2.3 16.3-3.9 2.7-2.7 6.1-1.3 12.4 4.9l6.2 6.2 34.4-8.3c18.9-4.5 34.9-8.8 35.7-9.4 3.1-2.4 5.2-9.5 5-16.4-.1-5.3.3-7.4 2-10.2q4.4-7-.6-9.2-6.4-3.2-7.1-17.3c-.3-4.7-1-8.8-1.9-10.2a7 7 0 0 1-.8-5.3c.7-3 .8-3.1 2.1-1.2a9 9 0 0 0 4.4 3c2.6.9 3.2.8 4.5-1.1a11 11 0 0 0 1.5-5.2c.1-2.5 1-3.7 5.9-7.2 7.6-5.6 9.5-5.5 12 .2 2.2 5 3.8 5.5 8.1 2.5l2.8-2 1 2.8c.6 1.5 1.4 3.7 1.7 4.9.6 2.3 3 2.9 9.7 2.4 3.8-.3 8.8 2.5 8.8 4.9 0 1.1 1.1 2.7 2.6 3.6 1.4 1 2.3 2.3 2 3.1s.1 3 .9 5c.8 1.9 1.5 4.8 1.5 6.4q-.2 2.8 3 4.6c2.5 1.4 3 2.3 2.5 4.2q-.6 2.3 1.1 4.2c.9 1 1.4 2.5 1 3.5s.1 2.5 1.3 3.8a10 10 0 0 1 2.3 4.6c.2 1.9 1 2.6 3.3 2.8 4.3.5 8.5 4.8 8.5 8.7 0 2.4.6 3.5 2.4 4.3l2.4 1.1-2.8 5.8a84 84 0 0 0-3.5 8.3c-.7 2.3-.4 2.2 4-1.4l4.7-3.9 5.2 1.8c2.8 1 7 2.8 9.3 4.2 4.1 2.3 4.4 2.3 6.8.7 2.9-1.9 2-2.1 20 4.4a59 59 0 0 0 22.6 4.6l11.6.5 1.8-4c1.4-2.9 2.6-4.2 4.6-4.6q2.8-.6 5.3-4.3 2.5-3.8 5.5-4.5c3-.7 3.3-1.6 4-3.4.7-1.5 4.8-6.3 9.1-10.6 6.9-6.9 8-8.4 8-11.5.1-2.5 1-4.6 3.4-7.3l3.4-3.8 3.4 4a35 35 0 0 1 6.8 16.9c0 1.2 1.3 3.6 3 5.5 1.7 2 3.2 5.1 3.6 7.5.6 3.9.9 4.2 3.9 4.2 2.4 0 3.4.6 4.3 2.5.9 2 .9 2.5-.2 2.5-.7 0-3.2 2.3-5.5 5-3.9 4.7-4.2 5.4-3.6 9.1.6 3.5 1.3 4.2 5.5 6.4l4.8 2.4 2.6-2c2.7-2.1 9.6-3.8 9.6-2.3.1 2.9 1.7 3.4 6.4 1.8 3.5-1.2 5.1-1.3 5.9-.5 1.8 1.8 6.7 1.3 7.4-.7.3-.9 1.6-2.8 2.8-4.2 1.3-1.4 2.5-4.1 2.9-6.1.9-4.8 2.7-6.2 11.8-8.9l7.6-2.2-3.4-3.5a14 14 0 0 1-3.4-4.3c0-.4-1.5-1.3-3.3-1.9-2.4-.8-3.9-2.3-5.4-5.4l-2.1-4.3 5.7-3.2c5.6-3.1 5.7-3.1 5.3-7.2-.4-3.5-.1-4.2 1.6-4.7s2.5-2 3.8-8c1.2-5.5 1.3-7.8.5-8.6-.6-.6-1.1-3.5-1.1-6.4V705h3.8q3.9 0 5.7-2c.9-1 4.8-3.1 8.5-4.5s7.8-3.7 9-5c2.3-2.4 2.3-2.6.8-5.8q-1.5-3.4-.7-4.8c1.1-1.7 1.1-7.6 0-10.4q-.8-2 1-5.5c1.1-1.9 1.9-4 1.9-4.8s.8-1 2.5-.6q2.6.7 2.5-.8c0-1.9-2-3.8-4.2-3.8-1 0-2.4-1.3-3.2-2.9s-2.7-4.2-4.1-5.9l-2.5-3 3.4-.6c2.9-.6 3.6-1.2 4.2-3.9.8-3.8 1.9-4.7 6-4.7 3.8 0 5.2-2.5 2.4-4-3.2-1.7-4.4-4.9-2.7-6.8.8-.9 1.7-2.8 1.9-4.2s1.3-2.9 2.5-3.5a6 6 0 0 0 2.8-3.5c.6-2.1-.1-3.2-4.4-7.2-5.7-5.2-6.5-8.6-3.2-12.2 1.1-1.2 2.4-4.6 2.9-7.6 1-5 .8-5.9-1.4-9.7q-2.3-4.1-2.4-8.6c-.1-4.5-.7-5.3-2-7-1.1-1.4-2-3.3-2-4.2s-.7-3-1.6-4.6c-1.2-2.4-1.4-4.7-.8-11 .7-7.9.8-8.1 5.4-12.9 6-6.2 6.6-8.3 3.3-12.6-2.2-3-2.4-4-1.8-8.1.4-3 2-6.8 4.2-9.9 2.1-3.1 3.7-6.9 4-9.5.3-2.4 1.3-5.2 2.1-6.2 1.4-1.6 1.2-2.1-3.1-6.5-2.6-2.6-4.7-5.6-4.7-6.5s-1.6-2.7-3.5-3.8q-3.6-2.1-3.5-4.4c0-1.8-.8-2.6-3.7-3.6-2.1-.7-5.8-2.3-8.2-3.6-4.9-2.6-11.5-3-16.7-1.1-2.9 1-3.6.9-5.4-.7-1.7-1.5-2.4-1.6-4.6-.7-1.3.7-2.6 1.2-2.8 1.2s-.6-3.3-.8-7.3c-.6-8.1-5-18.7-7.8-18.7-.9 0-3.5-1.4-5.8-3.1-3.8-2.8-4.5-3-7.6-1.9-2.9.9-4.7.8-10.4-.9-9.2-2.8-11.5-2.7-13.2.4l-1.3 2.5-1.9-2.7c-2.7-4.1-2.6-17.5.2-21 1.1-1.4 2-3.6 2-4.8s1.1-3.2 2.5-4.5a8 8 0 0 0 2.5-6.1c0-2.1-.5-4.1-1.1-4.5q-1.5-1 .7-6.7.7-1.6-2.6-2.2l-3.1-.7.2-6.6c.1-4.7-.5-8.5-2-12.6-2.7-7.7-2.7-8.7.8-12 1.6-1.5 4.4-6.1 6.2-10.2 3-7 3.7-7.8 10.8-12.7 8.4-5.8 10.5-8.9 10.6-15.7 0-4.5 0-4.5 6-7.4 5.7-2.7 6.1-2.8 11-1.6 2.7.7 7.2 1.3 9.9 1.2 4.3-.1 5.2-.5 8.2-4 1.8-2.1 6.3-5.8 9.9-8.2 6-3.9 6.4-4.4 5-6q-4-4.6 2.5-10.6c2.4-2.2 4-4.5 4-5.8 0-2.3 3.8-6.6 5.8-6.6.6 0 2.4-1.9 3.8-4.2 2.4-3.7 2.5-4.5 1.5-7.4-.7-1.8-1.1-5.2-1-7.6.3-5-.9-7.5-6.7-14.3-3.1-3.7-4.3-6.1-4.6-8.9-.3-3.7-.5-4-5.9-5.9a14 14 0 0 1-8.6-6.6c-4.8-7.2-5.6-10.9-4.8-22.3l.7-10-2.8-2.9c-1.5-1.6-3.3-2.9-4-2.9s-3.8-1.4-7-3.1l-5.8-3-8.8 1.1-8.8 1.2-3.6-3.1c-3.1-2.7-4.2-3.1-9.7-3.1-4.6-.1-7.1-.6-9.8-2.3-3.2-1.9-4.6-2.1-11.5-1.7l-7.9.5-2.8 5.2-2.8 5.3-3.1-1.6c-2.8-1.5-3.1-1.4-5.2.5a9 9 0 0 1-5.8 2.1c-2 0-4.1.7-4.8 1.5s-3.2 2-5.6 2.6q-4.4 1.1-6.9 4.5c-1.4 1.9-3.5 3.4-4.6 3.4s-3.3.9-4.8 2.1l-2.8 2.1-6.7-2.7q-6.6-2.7-8.8-1.9c-1.3.4-3.2.7-4.4.5-1.1-.1-2.8.7-3.9 1.9-1 1.1-2.4 2-3.1 2s-2.9 1.4-4.9 3.1c-3.5 3.1-6.5 3.7-14 3-1.1-.1-3.3.1-5 .4-2.7.6-3.1.3-4.1-2.8q-2.2-7.5 4.1-7.7c2.7 0 3.5-.5 4.6-3.2.7-1.7 1.2-4.1 1.1-5.2s.3-3.5.9-5.2c1.4-4.4-1.3-11.8-5.9-16.7-3-3.1-3.6-4.4-3.3-7.2.2-3.2 0-3.5-2.3-3.5-2 0-3-.9-4.6-4.1-1.3-2.4-1.8-4.8-1.4-5.7.7-1.8 2.4-15.4 2.7-21.5q.1-3.7 1.5-3.7c3.6 0 5.5-13.2 2.8-20.6-1.3-3.9-1.3-4 2-7.8q3.5-3.9 3.4-7.2c0-2.7.7-3.7 4.7-6.3 7.2-4.8 8.4-7.6 9.3-21.6.4-6.6.5-12.5.2-13l-3.5-4.7c-2.8-3.6-3-3.6-5.4-2.1-2.3 1.5-2.5 1.5-5.1-1.1-4-3.8-10.9-3.6-17.7.4-4.4 2.6-5.9 3-13 3-4.4 0-9.7-.4-11.7-.9-2.7-.6-4.2-.5-5.8.6-2.3 1.7-7.7 1.4-14.7-.8-3.9-1.2-4.6-1.1-9.3 1.1-5 2.3-5.2 2.3-9.8.7-2.7-1-7.6-1.7-11.8-1.7-4.1 0-8.7-.6-10.7-1.5S664.5 8 662.5 8s-5.8-1.1-8.5-2.5c-4.9-2.5-5.1-2.5-10.4-1l-5.4 1.6-5.2-3.2-5.1-3.1-8.7 3.6c-4.8 2-10.2 3.6-12 3.6s-4.2.5-5.3 1c-1.4.8-2.5.6-4.6-.8-2.7-1.8-4-1.9-28.3-1-29.6 1-33.2.7-41.1-3.3a24 24 0 0 0-8.1-2.7c-1.3 0-5.9.5-10.3 1m-270 348.5c4.5.6 4.6.7 2.4 1.9a12 12 0 0 1-10.8.1c-5.6-2.4-1.5-3.4 8.4-2"/></svg>