<svg xmlns="http://www.w3.org/2000/svg" width="1365.333" height="1365.333" viewBox="0 0 1024 1024"><path d="M519 2.5c0 2.4 2.5 4.5 5.4 4.5q1.5-.2 1.6-2 0-2-2-2c-1.1 0-2.3-.7-2.6-1.5-.9-2.4-2.4-1.8-2.4 1m-12.8 5.3c-1.4 1.4-2.1 4.1-2.6 11.2-.4 5.1-.5 9.4-.4 9.6.2.2 1.4.1 2.5-.2 1.8-.5 2-.9 1.1-2.8-.7-1.8-.5-3 1-5.5l2-3.3 1.7 2.6c1.5 2.2 1.5 3.1.5 5.5-1.7 4.2-1 7.5 1.8 7.9 1.2.2 4.7-.8 7.8-2.2l5.5-2.5 1 2.7c.8 2.2 6.6 7.2 8.4 7.2 1 0 .5-3.9-.6-4.6-.6-.3-.9-1.7-.6-3 .3-2 .1-2.2-1.4-1.4-3 1.6-3.9 1.1-3.9-2 0-2.9-.1-3-4.2-2.4-5.4.7-8.9-1.4-7.2-4.3.6-1 2.1-2.2 3.3-2.8 3.2-1.5 2.2-3.5-3.8-7.7s-9.2-4.7-11.9-2m-7.3 28.3c-.9 1.8-.8 2.4.4 3 .8.5 2.9 3.2 4.6 5.9a17 17 0 0 0 3.9 5c1.5 0 4.2-3.5 4.2-5.4 0-2.2-1.7-5.5-4.3-8.4-2.7-2.9-7.2-2.9-8.8-.1M526 48.8c0 1.6.7 3.7 1.5 4.8 1.4 1.8 1.4 1.7 1.5-1.3 0-1.7.3-3.8.6-4.7q.7-1.7-1.5-1.6c-1.6 0-2.1.6-2.1 2.8m-26 19.1q.1 1 1 1.6c.6.3 1 1.9 1 3.5v2.9l-4.2-1.9c-2.6-1.2-6.5-2-9.9-2-4.6 0-6.2.5-9.7 3.1-3.6 2.6-5.1 3.1-9.8 3-3.2 0-6.6-.7-7.9-1.5-2-1.3-2.4-1.3-2.9-.1-.3.8-1.4 1.5-2.4 1.5s-4 1.4-6.6 3.1c-3.5 2.4-5 2.9-5.9 2q-4.1-3.7-10.3 6.5c-2.1 3.4-2.8.4-1.1-4.2 1.6-4.3 1.6-4.5-.3-6.4a8 8 0 0 0-5-2c-2.5 0-3 .4-3 2.3 0 1.4-2 4.3-5.5 7.7-4 3.9-5.5 4.9-5.5 3.6 0-1 1.1-3.1 2.5-4.8s2.5-3.6 2.5-4.3c0-1.4-3.8-5.5-4.9-5.5-.3 0-1.3 1.7-2.3 3.8l-1.6 3.7-.1-3.1c-.1-3-3.9-8.4-6-8.4l-2.5-.6q-1.7-.8-1.6 1.9c0 1.4-1.7 4.5-4 7.3-4.6 5.6-4.8 6.4-1.9 8.9l2 1.9-2.3 1.8c-2.2 1.7-2.2 1.9-.5 3.2q3.6 3-.7 2.2c-3.6-.9-4.7 1.2-3.7 7.2.5 3.3 1.7 6.2 3.2 7.8q2.7 2.8.6 1.8c-1-.4-4.6.1-7.9 1.1-4.6 1.4-6.4 1.6-7.8.7-2.6-1.6-3.2-.3-1.1 2.7 6.9 9.7 8.2 19.1 2.7 19.1a8 8 0 0 1-4.5-2.1c-1.2-1.2-2.5-1.8-2.8-1.5-1.4 1.4 2.1 5.9 8.7 11.3 5.3 4.3 6.9 6.2 6.4 7.6q-.6 1.8 3.5 6.2c2.3 2.5 4.1 5.2 4.1 6.2q0 1.7-5.3-3.9c-4.3-4.5-6.1-5.6-9.3-6-2.1-.3-4-.4-4.1-.3-.2.1 1.7 1.7 4.2 3.5s4.5 4 4.5 4.7c0 2-1 1.6-6.6-2.1l-5.1-3.5-1.2 2.5c-.9 2.1-1.7 2.5-4.4 2.2-2.5-.2-3.5-1-4.6-3.6-.8-1.7-1.8-3.2-2.3-3.2-1.8 0-2 3.3-.4 6.6 1.8 3.8 2.2 11.4.6 11.4-1.9 0-5-4-5-6.4 0-4.3-.9-5.3-4-4.8-2.9.4-3 .6-3 6.1.1 5.4.2 5.7 4 8.3 2.2 1.5 4 3.5 4 4.3q-.2 2.7-2.9.2c-1-1-1.6-.7-3.2 1.2-2.7 3.3-2.4 4.6 1.8 9.7 3 3.5 4.4 4.4 6.9 4.4 2.7 0 6.4 2.5 6.4 4.3 0 .4-1.5.7-3.4.7q-3.4 0-4 1.6c-.5 1.3-1.1 1.2-3.7-1a37 37 0 0 0-5.9-4.1l-2.8-1.5-.7 6.3c-.5 4.7-.3 6.9.9 9.2.9 1.6 1.6 3.7 1.6 4.6s.6 2.4 1.4 3.4c1.3 1.9 1.5 1.8 5.5-.8l4.2-2.8 1.9 2.3 1.8 2.3 3.1-2.9c2.9-2.7 3.1-2.8 3.1-.9 0 2.5-1.8 4.1-8.3 7.3s-7.2 5-2 5c3.7 0 12.1 4.2 13.7 6.9 1 1.6.2 1.4-4.4-1-3.4-1.8-4.5-2-6.7-1-2 .9-2.3 1.4-1.3 2.6 1 1.1.8 2.1-.9 4.8l-2.1 3.4 6 2.9c3.3 1.6 6 3.3 6 3.7 0 1.4-3 1.9-5.8.9-6.3-2.4-8.1-2.4-10.8.3q-4.3 4.2.3 5.5c1.1.3 3.4 2.2 5.2 4.2 3.1 3.5 3.1 3.7 1 4.3q-2 .7-4.3-1.4a8 8 0 0 0-4.7-2.1c-2.1 0-2.7.9-4.6 6.8-1.1 3.7-2 6.8-1.9 7 .2.1 1.7-.3 3.5-.9 7.2-2.5 8.1 3.1 1.3 8.1-2.3 1.7-4.3 3.8-4.3 4.8-.1.9-.2 2.1-.4 2.7l-.3 1.9q-.4.7-2.2-.9c-1.6-1.5-3-1.7-8-1.2-3.4.4-7 1.1-8 1.7-2.4 1.3-2.6 5.5-.4 6.4 3.2 1.2 20.8.6 23.4-.9q4.9-2.9 11 .5l3.5 1.9-6 .1c-3.4 0-6.5.4-7.1 1s-3.4 1.4-6.4 2c-2.9.6-5.6 1.2-5.9 1.5-1.4 1.4 5.9 9.1 11.7 12.3 7.7 4.2 9.4 3.9 14.7-3 2.2-2.9 9.1-10.6 15.3-17.2 6.1-6.5 11.2-12.3 11.2-12.7 0-.5-1.9-1.3-4.2-1.9-6.6-1.7-7.7-2.3-4.6-2.7 2.8-.4 9.3 1 11.8 2.6 1.2.8.7 2-2.8 7.2-2.7 3.9-4.1 6.8-3.7 7.9q.7 1.9-2.5 3.6c-1.6 1-3 2.1-3 2.5s-1.3 2.6-3 5c-3.7 5.5-4 9-.7 8.1q2.9-1 .8 1.1c-.7.9-2.4 1.7-3.6 1.7-3 0-3.8 2.3-1.4 3.8q1.7 1.2 1.9 2c0 .5-2.5 2.6-5.5 4.7q-7.9 5.4-4.5 5.5c2.1 0 .9 3.4-2.5 7.1-4.6 5.1-4.6 6.9.1 6.9 3.6 0 3.6 0 2.9 3.2-.5 1.8-.7 5.8-.6 8.9.1 4.1-.3 6.1-1.7 8-5.5 7-8.5 16.3-6.3 19.8q.9 1.7 1.9-.5c2-3.6 2.5-.3.8 5.1s-1.7 5.6.3 8.9c2.7 4.4 2.6 7.2-.3 9.9-2.4 2.3-3.1 5.5-4.4 20.3-.6 6.5-1.2 8.9-3.4 12-5.1 7.3-3.1 15.2 3.2 13.4 8.8-2.5 12.3-7.6 8-11.5-1.9-1.7-1.9-1.8 0-4.4 1.9-2.8 6-17.5 6-21.9a19 19 0 0 1 8.4-15.7c1.6-.9 1.4-1.8-2.8-10.4-3.5-7.2-4.6-10.6-4.6-14.3 0-4.7 0-4.7 2.9-4.2 2.6.6 3.1.1 6.6-5.6a32 32 0 0 1 7.6-8.7c2.1-1.4 3.9-2.9 3.9-3.3s1.6-2.5 3.6-4.8c2.5-3 4.3-4.2 6.2-4.2h2.6l-2.4 1.7a17 17 0 0 0-3.9 3.6c-.7 1-4.2 5.1-7.6 9-7.2 8-10.6 14.2-11.2 20.1-.5 4.8 1.9 10.2 5.7 12.5q2.7 1.6 1.3.1-2.5-2.8.2-8 2.6-5 5.5-1.5c2.2 2.7 2.9 1.6 1.4-2.1-.8-2-1.3-3.9-1-4.2 1.2-1.1 4.2 2.9 6 7.8 1 2.7 2.1 5 2.6 5 1.2 0 4.2-9 3.7-11.1-.3-1-.1-1.9.4-1.9s.9-4.6.9-10.3c.1-10.1.1-10.2 1.9-8l1.9 2.3 1.8-2.7c2.4-3.7 3-1.3 1 3.8-.9 2.3-1.4 4.9-1.1 6 1 3 11.4 11.8 15.3 12.9 10.2 2.8 7.6 5-3.2 2.7-11.6-2.4-13.4-2.3-14.2.8-.3 1.4-.1 6.1.5 10.5 1 6.3.9 8.4-.1 10.2-1.9 3.5-1.2 4.7 5.9 11.8a42 42 0 0 1 7.8 10l2 5.3c.6 1.4-.3 2.8-3.7 6-5 4.7-9.8 12.7-9.8 16.4q0 4.3-6.4 13.3a38 38 0 0 0-5 11.2c-1.7 6.2-1.7 6.9-.2 11.4 2.3 6.7 2.1 8.4-.8 8.4-3.1 0-5.6-3.4-5.6-7.7q-.2-6.7-3.4.8c-1.6 3.8-1.5 4.3.4 8.7 1.2 2.6 4.1 6.7 6.5 9.2 4.7 4.8 6.5 8.4 6.5 12.9 0 2.6 1.6 5.1 3.2 5.1 1.5 0 .8-3.7-1.7-9.4-3.2-7.3-3.2-8.9.6-12 3.5-2.9 5.1-3.2 6.8-1.2a9 9 0 0 0 4.5 2c2.5.5 4.6 2.1 8.1 6.4 5.5 6.6 9 9.2 12.6 9.2 2.5 0 2.7-.4 3.2-5.7.5-4.7.2-6.4-1.5-9.5-3.1-5.5-1.3-6.8 4.1-3.2q4.3 2.8 5.2 1.7 1-1.2 4.6 2.8c2.8 3.1 3.8 3.7 4.9 2.8s1.9-.8 3.3.5c2.4 2.1 4.6 1.3 13.4-5.2 5.2-3.8 8-5.1 11.9-5.6l5-.7-.7-5.5-.7-5.6 2.9.6c4.6.9 24.6 1.2 27.8.3 2.6-.6 3.2-.4 4.2 1.8 1.6 3.5-1.3 5.1-6.3 3.5-4.2-1.4-9.3-.5-7.5 1.3 3 3-.2 6.7-4 4.6-1.7-.9-2.2-.5-4 3.6-1.1 2.6-1.8 5.3-1.5 6.1s-1.7 4.6-4.4 8.6c-3.9 5.8-5 8.1-5 11.3a20 20 0 0 1-2 7.9l-1.9 3.9 3.2 3.7a74 74 0 0 1 11.8 20.5c2.7 8.3 3.6 9.5 6.9 9.5 3.5 0 3.4-.2 1.6 4.1-1.3 3-1.2 3.7.4 6.9 3.4 6.7 4.6 6.8 7.4.7a29 29 0 0 1 4.6-7.2c1.9-1.7 2.1-1.7 3.9-.1 1.9 1.7 2.1 1.7 4.9-1.5l3-3.4 2.3 4.8 2.3 4.7-3.2 4.5c-3.3 4.7-3.8 6.4-2.3 8 1.7 1.8-.7 5.1-5.3 7.6l-4.6 2.4v8.1c0 9.9.8 10.9 8 9.9 2.7-.4 5-.4 5-.2s-2.5 2.9-5.5 5.8c-7 6.6-9.9 11.2-9.2 14.7.9 5 7.7 19.7 9.9 21.5 1.8 1.5 3.2 1.8 7.7 1.2l5.4-.7-2.2 3.1c-6.3 8.7-10.6 7.1-17.5-6.6a23 23 0 0 0-3.2-5.3c-1.2 0-6.4 3.5-6.4 4.2 0 .5 1.6 4 3.5 7.8s3.5 7.9 3.5 9c0 1.8-.3 1.9-2.2.9-1.3-.7-5.1-4-8.6-7.3l-6.3-6-10.8 3.7-10.8 3.8-5.9-2c-7.2-2.6-7.1-2.6-7.8.2-.4 1.7-1.9 2.7-5.9 4-7.5 2.4-8 2.3-7.2-1.3.6-2.9.5-3-3-3q-3.7 0-5.5-2.2c-7.7-8.9-8.8-9.8-12.2-9.7-6.4.2-8 1.2-9.3 5.7q-2.3 7.8-5.2 6.5c-1.3-.5-1.4-.3-.4 1.6a8 8 0 0 0 3.6 3.1c1.2.5 4 3 6.1 5.5 2.2 2.5 5.4 5.5 7.2 6.6 2.8 1.8 3.2 2.6 3.2 6.2 0 3.8-.5 4.6-5.3 8.8-2.9 2.6-7 5.6-9.2 6.7s-5.2 3.3-6.7 4.9c-2.7 2.8-6.3 10.1-5.5 11 .3.2 2.3-.5 4.6-1.6 5.2-2.7 7.8-2.7 8.7.1.7 2.1.8 2 1.7-1.2 1.5-6 5.6-9.2 13.4-10.5 2.9-.5 5-.2 7.3 1 3.7 1.9 5.9 6 4.2 7.7s-1.5 3.4 1.4 7.8q2.5 3.8 4 3.3c2.3-.8 1.6 1-1.6 4.5-1.6 1.8-3 4.4-3 5.8 0 3.9 2.8 8.4 5.2 8.4 1.9 0 2 .2.6 1.7-.8 1-2.1 3.8-2.9 6.3s-3.4 8.5-5.9 13.5c-4 7.9-5.1 9.3-9.1 11.5a55 55 0 0 0-9.1 6.6c-4.4 4.1-5.7 4.6-14.6 5.9-3.4.6-5 1.5-8 5.2-2 2.4-5.2 5.3-7 6.5-3 1.9-3.4 1.9-5.1.4-2.5-2.3-5-2-6.1.8s-4 5-8 6.1c-2.7.8-6 3.3-6 4.7q.2.7 2.5.8c3.8 0 7.5 2.1 9.1 5.1 1.7 3.4 1.2 4.9-2.6 7.1-3 1.7-3.9 4.1-1.9 5.4q1.1.4 2.2-.5c1.2-1.2 5.8-1.4 10.6-.5 2.5.5 2.9.9 2 2-.6.8-2.4 1.4-3.9 1.4-1.4 0-2.9.3-3.3.6-1.1 1.1 1.5 5.2 4 6.3 3.5 1.6 4.8 1.4 8.9-1.4 2-1.4 4.7-2.5 6-2.5s3.1-1.1 4.1-2.5c5.2-7.4 4.7-7.1 9.7-5.7 3.5.9 5.1.9 7.1 0 2.4-1.1 2.9-.9 5.1 2q2.5 3.3 5.5 3.2c2.4 0 2.9.4 2.9 2.3 0 1.3-.9 3.2-2 4.2-2.5 2.2-2.5 3.7-.2 5.8s5.1 2.1 7.6.2c1.1-.8 3.3-1.5 4.9-1.5s4.7-1 6.9-2.2c3.6-2.1 4.1-2.1 6.6-.7 1.5.8 4 3.8 5.7 6.7 1.6 2.8 5 6.7 7.3 8.4 10.7 8 10.2 7.8 16.6 7.8 8.3-.1 11.1-1.6 15.4-7.9l3.7-5.5 9.1-2.2c10-2.4 13.9-4.1 16.8-7.3 1.8-2 1.8-2.5.4-11.3-1.5-9.1-1.5-9.4.8-16.1 2.2-6.4 2.2-7.1.8-9.9-1.6-3-1.4-4.5.5-3.4 2 1.3 2.3 7.2.5 13.1-1.2 4.3-1.5 8-1.1 13.8.3 4.3.8 8.1 1.1 8.4q1 .8 11-7.9c3.6-3.1 3.8-3.6 2.5-5.5-1.7-2.8-.6-3.9 2.5-2.5 2.4 1.1 2.4 1.2 1 4.1-.8 1.7-4.7 6.5-8.6 10.8s-8 9.8-9.2 12.2a23 23 0 0 1-6.6 7.8c-2.5 1.8-6.8 5.3-9.5 7.7-4.7 4.1-5.1 4.8-6.2 11.1-1.4 8-3.3 10.6-6.3 8.7-1.7-1-3-.8-8.1 1.4l-6.1 2.5-5.2-2.5c-4.6-2.3-6.4-2.6-18.1-2.7-10.2-.2-15 .2-22.3 1.9-10.4 2.3-12.1 3.6-12.2 9.4 0 2.1-.7 5.6-1.6 7.8q-2.8 7-9.8 4.1c-6.5-2.6-6.4-2.7-8.1 3.3-1.2 4-1.4 7.2-1 11.2l.7 5.5-7.1 7.1a43 43 0 0 0-7.1 8.3c0 1.9-4.2 5.2-9.1 7.3q-7.8 3.5-7.9 9.3 0 2.5-4 6.2c-2.2 1.9-4 4.4-4 5.4 0 2.6-2.7 5.4-11.8 12-6 4.5-7.8 5.4-9.2 4.5-2-1.2-6.7.8-11.1 4.9-2.2 2-2.9 3.6-2.9 6.3 0 2 .4 3.6.9 3.6 2.7 0 7.1-2.5 9.1-5.1 1.9-2.6 2.7-3 5.2-2.5 4.8.9 10.6 5.7 13 10.6l2.3 4.8c.2.2 2.3-1.1 4.9-2.8 4.7-3.2 5.9-6.2 3.1-7.8-1.4-.7-1.3-1.3.4-5.3 1.1-2.4 2.1-5.2 2.1-6.2 0-2.9 2.4-1.4 3 1.9l.5 2.9 1.3-3.1c1.4-3.3 8-6.8 10.8-5.7q1.4.5 1.4-1.3c0-2.9 2.7-9.8 3.9-10.2.6-.2 1.8.4 2.7 1.3s2.4 1.3 3.3 1l10.3-2.4c8.5-1.8 8.7-1.8 13 .1s4.3 1.9 6-.1c1.9-2.4 3.8-2.7 3.8-.8 0 2.3 3.3 4.5 8 5.2 7.2 1.1 8 1.5 9.8 5.3 1.9 4 3.6 4.7 8.8 3.7 3.2-.6 3.4-.8 3.4-4.5 0-4.1 1-5.6 6.4-9.3 3.2-2.2 3.3-5 .4-7l-2.3-1.5 2.7-1.2c2.2-1 2.5-1.6 1.8-3.5-.6-1.6-.2-3.6 1.5-7.3 1.9-4.1 3-5.2 6.2-6.2 2.1-.7 5.6-2.5 7.8-4 2.4-1.7 6.5-3.2 10.5-3.9a60 60 0 0 0 10.2-2.8l3.8-1.6 9.2 4.6c5.1 2.5 11.2 5.7 13.4 7.1 4 2.5 4.2 2.5 4.7.6.4-1.7 1.4-2 5.5-2 7.3 0 15 1.7 17.9 4 2.5 2 2.7 2 5.7.2 4.3-2.5 4.5-5.4.5-7.3-1.8-.7-3.5-2-3.7-2.8-.4-1.1.4-1.3 3.8-.8q4.3.5 6.4-.8c3-1.8 14.9-2.8 17.9-1.4 2.3 1 3.5.6 10.6-3.6 4.5-2.6 8.1-5.2 8.1-5.6 0-.5-1.8-2.5-4-4.5-7.3-6.8-2.5-5.3 5.6 1.7 7.4 6.4 9.2 7.3 10.9 5.9 2.3-1.9 15.1.5 18.6 3.5l2.9 2.3 3.3-3.3c3.9-3.9 8.9-5.5 17.1-5.5 3.3 0 8.5-.5 11.7-1.2 5.5-1.1 5.9-1 19.7 3.7l14 4.9 4-3.6c3.9-3.5 5.7-4.3 15.5-6.8 2.8-.8 6.8-2.9 9.5-5.2 4.5-3.8 4.9-3.9 10.1-3.3 3 .4 6 .9 6.8 1.2 1 .4 1.3-.7 1.3-4.7 0-4.3.5-5.6 2.8-7.9 1.5-1.5 5-3.5 7.7-4.5 10.8-3.8 13.6-5.5 15.1-9.3 1.3-2.9 1.3-4.5.5-7.9-1.5-5.9-1.5-6.2 1.5-8.9 2.3-2.2 2.5-2.5.9-3.1-2.7-1.1-18.6.3-23.4 2-2.4.9-5.4 1.6-6.7 1.6-1.9 0-2.2-.5-2.1-2.7.2-2.4-.5-3.2-4.5-5.3l-4.7-2.5-2.9 3.5-2.9 3.4-2.8-1.8-2.7-1.8 3.8-2.6 3.9-2.6-4.4-.8c-3.4-.6-6.1-.3-10.9 1.2-6.9 2.2-11.3 1.7-15.9-1.5-3.4-2.4-2.8-3.8.9-1.9 6.9 3.6 8.6 3.6 12.4 0q6-5.6 20-5.6c4.7 0 5.5-.3 8.2-3.4 2.9-3.3 6.2-13.9 4.8-15.3-.3-.4-2.3.2-4.5 1.1-3.3 1.5-4.1 1.6-6 .5-1.1-.8-2.1-1.6-2.1-1.9s3.9-2.5 8.6-4.8c8-4 8.8-4.2 10.4-2.7q3.5 3.3 10.7-3.1c3.4-3 3.6-3.3 1.6-3.4-2.7 0-2.7-.2-.8-3.9 1.4-2.7 1.3-2.9-.8-3.5-1.2-.3-3.5-.6-5.1-.6-2.4 0-2.7-.2-1.6-1.5.7-.9 2.9-1.5 5.3-1.5 3.8 0 3.9-.1 2.4-1.8q-3-3.3-.4-3.2c.6 0 2.4 1.4 3.8 3.2l2.6 3.2 4-3.2a58 58 0 0 0 12-13.7c.6-1.1 1.4-4.9 1.8-8.5q1.1-11.5 6.2-20.9c1.7-3.2 2.3-6 2.3-10.5a92 92 0 0 0-3.2-22.6 79 79 0 0 0-18.8-20.5c-5.6-2.9-45.5-7.8-51.8-6.4-4.6 1-6.1 2.7-7.3 8-1.3 5.6-5.3 10.9-8.2 10.9-1.3 0-4.3-1.4-6.7-3l-8.7-5.8c-2.3-1.5-4.3-3.2-4.3-3.8a64 64 0 0 1 13.7-17c7.4-5.4 7.6-6.6 3.7-20-5.3-18.3-10.7-26.4-22.3-33.3a60 60 0 0 1-11.9-9.7l-5-5.7-7.1 1.9c-5.8 1.4-7.6 1.6-8.9.6q-7-5.1-8.3 3.2c-.9 5.5-1.9 5.5-1.9-.1 0-7.2 3.9-10 10.5-7.4 1.2.5 4.5.1 8.5-1 3.6-1.1 7.1-1.9 7.9-1.9.7 0 3.6 2.5 6.4 5.5 5 5.5 5 5.5 10.9 5.5 3.3 0 6.8.5 7.9 1.1 2 1 2 1 .3-2.3-.9-1.8-4.8-8.2-8.6-14.2-9.8-15.1-12-20.3-11.6-26.8.3-4.8.6-5.4 3.5-6.9 3-1.5 3.1-1.7 1.5-3.1a26 26 0 0 0-4.9-3.2c-1.8-.9-3.3-2-3.3-2.4 0-.5-2.2-3.3-4.8-6.3-2.7-2.9-5.4-7-6.1-8.9s-2.2-5.1-3.5-7-2.6-4.4-3-5.5a58 58 0 0 0-26-16.5c-11.9-4.1-15.9-6.6-16.4-10.1-.2-1.3-2.2-4.3-4.3-6.8q-6.8-7.8-6.9-20.1c0-4.5-.6-6.5-2.6-9.5a52 52 0 0 1-4.6-9.4c-3.1-8.2-7.1-28.7-7-35.6.3-12.2-8-27.6-17.6-33-1.8-1-4.7-3.4-6.3-5.3-2.7-3-3.3-3.3-5.4-2.4-2 .9-2.3.9-1.8-.3q.6-1.4 1.9-1.5c2.1 0 1.7-1.9-2-8.5-3.5-6.3-6.6-8.3-13.1-8.4a51 51 0 0 1-20.3-12.2c-2.1-2.6-2.9-2.9-8.2-2.9-5.1 0-6.1.3-7.9 2.6a10 10 0 0 0-2.1 4c0 1.8-7.3 6.4-10.1 6.4-1.2 0-3.8-1-5.8-2.2a12 12 0 0 0-5.7-2 141 141 0 0 1-27.2-5.4c-2.3-.9-4-2-3.6-2.5 1-1.6 9.4-.9 14.4 1.2l4.8 2.1 3-2.2c1.7-1.2 5-2.5 7.5-2.7 4-.5 4.7-.9 5.2-3.3.8-3.5 6.8-10.6 10.8-12.6 2.6-1.4 3.6-1.4 6.9-.3 3.1 1 4.3 1 6.4-.1a40 40 0 0 0 10.4-8.9c0-.4-2.7-1.9-5.9-3.3l-6-2.6-.3-5.9-.3-5.8-3.6-.3c-3.4-.3-8.1 1.7-19.6 8.4-4.7 2.7-5 1.1-.8-3.9 5.5-6.6 8.4-7.9 18-8.1 7.3-.1 8.6-.4 12.4-3.1 6.5-4.5 13.1-12.6 13.1-16.2 0-1.7.6-3.6 1.4-4.2s1.7-3.2 2-5.6c.6-3.6 1.6-5.2 5.2-8.3 5.4-4.8 11.6-14.8 11.2-18.2-.1-1.4 1.7-6.3 4-11 4-7.7 4.2-8.8 3.6-13.7-.5-4.5-.2-6.1 2.3-11.5 1.7-3.5 6-10.4 9.7-15.5s6.6-10.1 6.6-11.3-.7-5.2-1.5-8.9c-1.7-7.2-3.4-9.5-10.9-14.5-4.5-3-7.6-3.3-11.1-1-2.1 1.4-3 1.4-5.4.4s-3.5-.8-6.8.8l-3.9 2-14.2-2.3-14.3-2.3-5.7 2.3-5.7 2.3-6.5-2.5c-11.8-4.6-12.5-4.7-17.4-3.3-2.5.7-4.6 1.7-4.6 2.2 0 .4-1.2 1.4-2.7 2s-3.6 1.8-4.5 2.6q-1.8 1.5-1.8.4 0-3.2-8.6 2.5a19 19 0 0 1-12 4.1c-3.6.3-6.1.8-5.8 1.4s.3 2 0 3.3c-1.4 5.4-18.6 10.7-23.1 7.1-1.7-1.3-1.8-1.7-.5-2.6.8-.5 3.4-.7 5.7-.4 4 .6 4.2.5 6.7-3.4 1.4-2.3 3.1-4.4 3.9-4.9 1.5-1 7.7-9.4 7.7-10.5 0-.5-1.4-.1-3.1.7a9 9 0 0 1-5.9 1c-2.4-.5-3.8.2-9.4 5-5.9 5-6.6 5.3-6.6 3.3 0-5.4 7.5-12.8 13-12.8a25 25 0 0 0 7.9-3c3-1.7 5.6-3 5.9-3 .2 0 .2 1.3-.1 3q-1.7 8.3 6.4-4.8c6.7-10.8 6.8-11.1 3.5-8.4-2.3 1.7-3.1 1.9-5.2 1a5 5 0 0 0-4.8 0c-1.8.8-3.7.6-8.7-1.2-6.6-2.4-14.4-6.6-12.1-6.6.8 0 4.1.7 7.5 1.6 8.3 2.2 11.7 1 11.7-4.1 0-1.9-.4-3.5-1-3.5a1 1 0 0 1-1-1q0-1 1-1c1.7 0 10.7-6.9 12.4-9.5.9-1.4 6-5.7 11.3-9.7q9.6-7.3 13.7-13.1c3-4.2 6.2-7.1 11.9-10.7 11.3-7.3 14.6-13.4 10.9-20.4-2.8-5.3-2.8-7.2.3-11.2 1.4-1.8 2.9-4.4 3.5-5.8.8-2.1.6-2.7-1.1-3.7-1.6-.8-2.5-.7-4 .7-1.8 1.6-2 1.6-3.7.1-2-1.9-13.2-2.5-13.2-.8m-63 155.8c-3 5.3-15.3 21.3-15.9 20.8s11.3-18.8 14.3-22.3c3.1-3.5 4-2.6 1.6 1.5m-18.5 139a21 21 0 0 0 5 6.6q5.8 4.6 1.6 6.7c-3.3 1.7-4 1.2-4.7-3.8-.4-2.6-1.5-6.4-2.5-8.4-2-3.9-2.2-4.8-1.4-4.8.3 0 1.2 1.7 2 3.7M578 416.3q-.2.5-2.2 2.3l-2.3 1.9 1.9-2.3q2.6-3.1 2.6-1.9M312.8 88.1a76 76 0 0 1-23.1 18.2c-8.5 3.4-9.4 5.1-6.2 11 3 5.8 1.1 6.5-3.5 1.4l-3-3.2.6 2.7c.8 3.4-2.6 5.7-4.7 3.2-.7-.9-2.2-2-3.3-2.4-1.8-.6-2.5.1-4.8 4.8-3.4 6.7-3.8 12.8-.8 13.7 1.5.5 2 1.5 2 4.2 0 3.2-.2 3.5-2.5 3.1-3.2-.7-3.1-.1.3 3.2q3 2.8 7.4 3.4c2.5.4 5.3 1.3 6.3 2 2.2 1.6 1.4 4.6-1.3 4.6-1.8 0-12.2 9.8-12.2 11.5.1.6 1.7 2.8 3.6 5l3.5 4 1.7-2.5a33 33 0 0 1 9.2-9.2c1.2-.4 1.3-.9.3-2.7-3-4.9-.5-7.3 4.7-4.6 3.1 1.6 3.2 1.6 2.6-.3q-.5-1.9 1.3-3.6c1.6-1.4 2.3-1.5 3.9-.5 2.8 1.8 4.7.6 7.2-4.6q2.2-4.5 3.6-4.1c2.8 1.1 3.7-3.3 2-9.5-1.5-5.3-1.5-6.1-.1-8.2.8-1.3 1.3-3.2.9-4.1q-.7-1.7 1.4-2.3c1.7-.4 2-1.1 1.5-3.4-.4-2.4.3-3.7 4.5-8.5 4.5-5.1 4.9-5.8 3.6-7.2a4 4 0 0 1-1-3.6c1.8-6.5 1.8-9.5 0-12-2.4-3.3-2.9-3.2-5.6.5m-59.7 97.8c-2 1.5-2.9 1.7-4.9.8-1.8-.8-2.5-.8-3.2.3-.4.7-1.7 1.1-2.9.7-1.7-.4-2.5.3-4.2 3.5-2 4-2 4.1-.2 5.1 3 1.7 8.3 7.7 8.3 9.5-.1.9-.7 2.8-1.5 4.2-1.2 2.2-1.1 2.7.2 4.2 1.5 1.6 1.5 2-.2 3.8-1.4 1.5-1.6 2.9-1.1 6.2.4 2.4.2 6.2-.5 8.9-1 3.8-1 6.2 0 11.8l1.3 7.1h3.3c1.8 0 4 .3 4.9.6 1.3.5 1.4.1.2-3.3-3.6-10.3-3.6-9.7 0-14.4l3.3-4.4-2.4-4.1-2.5-4.2 2.5-1.6c2.1-1.4 2.3-1.9 1.4-4.5-.8-2.3-.7-3.5.5-5.3.9-1.3 2.5-5 3.6-8.3 1.5-4.4 1.7-6.1.8-7.2s-.5-2 1.5-4.1c3.6-3.7 3.4-4.7-1.2-6-4.7-1.5-4.1-1.5-7 .7"/><path d="M309.1 187.1c-2.3 3-2.3 3.1-.6 6.3 1.4 2.5 1.5 3.7.7 5.2-.9 1.6-.7 2.8.9 5.3 2.2 3.7 1.8 5.1-1 3.4a3 3 0 0 0-3.3-.2c-1.2.7-2.8-.5-6.8-5.1-2.9-3.3-5.6-5.7-6.1-5.4-1.7 1-.9 4 1.6 6.4 2.8 2.6 3.4 5.6 1 4.6q-1.6-.7-1.5 2.2 0 8.1-4.8.5c-2.8-4.3-3.2-4.5-3.2-2.3 0 1.5.5 3.1 1.2 3.8q1.4 1.3-1 1.2c-2.3 0-3 1.4-1.2 2.5.5.3 1.3 2 1.8 3.7.6 2.6 1.5 3.3 5.2 4.4l4.6 1.4-.4-2.9c-.5-3.3 1.2-4.8 3.3-3.1q1.4 1 2.5.5c1.1-.5 1 .4 1 1.9q.1 2.5 1.4 2.6c1.9 0 7.3 4.6 6.5 5.5-.4.3-1.8 0-3.3-.6-6.2-2.9-5.5 4.4 1.1 10.1a13 13 0 0 0 4.3 3q1 .1 1 1.5c0 1.4.4 1.5.9 1.5s2.5-.7 4.4-1.5 4.6-1.5 5.8-1.5c1.8 0 2.1.5 1.7 3.5-.2 1.9-.3 3.5-.1 3.5s1.4-2.1 2.7-4.8l2.4-4.7 1.3 2.7c1.1 2.5 1.6 2.7 5.1 2.2 2.1-.4 3.8-.4 3.8 0 0 .3-1.8 1.7-3.9 3.1q-3.9 2.6-4.5 5.6l-1.2 5.9q-1.4 7.2 8-3.2c5.6-6.1 6.5-8.1 4.6-9.3-1.6-1-.4-2.2 2.7-2.8 2.6-.5 6.3-5 6.3-7.5 0-1.8-5.2-2-9.7-.5-4.3 1.5-4.7 1.4-8.4-.6q-3.9-2.2-6.1-1.6-2.4 1-1.5-.9.7-1.7-1.8-4a11 11 0 0 1-3.1-5.7c-.4-1.9-1.1-4-1.7-4.7q-1-1.3.3-3.6 1.2-2.4.9-11.4l-.4-9.1-5-5.1c-2.7-2.7-5.2-5-5.5-4.9s-1.6 1.4-2.9 3m-1.1 74.6-3 2.8 4 4.1c3.5 3.8 4 4 5.3 2.5q3.6-4.3.9-6.1c-1.5-.8-1.5-1.1-.2-2s1.2-1.2-.4-2.5c-2.7-2-3.1-1.9-6.6 1.2m-70.9 5c-2.9 3.5-4.1 7.3-2.3 7.3 1.5 0 7.2-6.6 7.2-8.2q-.2-4.7-4.9.9m59.9 40.1q-4.1 3.7-3.9 5.5c.3 1.6 1 1.3 4.5-1.7 3.8-3.2 6.3-7.6 4.4-7.6-.4 0-2.7 1.7-5 3.8m24.3 2.2c-1.3.5-2.3 1.8-2.3 2.9 0 1.7-.4 1.9-2.3 1.2-2.1-.8-2.3-.7-2 1.4.3 1.2 0 2.6-.6 2.9-1.7 1.1-1.3 2.6.7 2.6.9 0 3.9 1.3 6.6 2.9 4.6 2.7 5.2 2.8 7.7 1.6 2.9-1.5 3.9-1.1 3.9 1.6 0 1-1.9 2.8-4.6 4.4-4.2 2.5-7.5 6.8-6.2 8.1.4.3 2.4-.4 4.7-1.5 5-2.6 6.1-2.6 6.1-.2q.1 1.9-6.9 5.5c-7.6 4-9.3 4.3-11.1 2.1-3.3-4-6.7-.2-3.6 4 1.4 1.9 1.5 1.9 5 .2 2-.9 5.3-1.7 7.4-1.7 5.4 0 10.7-1.7 14.1-4.5 3.6-3.1 4.1-3.1 4.1 0q-.2 5 6-.6 3.1-2.7 1.7-2.5-2.1.9-1.5-1.7.3-2.2 2.5-2.1c1.6 0 2.3-.7 2.7-3q1.5-6-10.6-9.3c-5.4-1.5-6.4-2.2-10-7.2-6-8.3-7-8.9-11.5-7.1M275 322.4c-5.1 1.4-6 3.9-2.2 6.3 2.1 1.5 2.2 1.4 2.2-.8 0-1.3 1.2-3.3 2.8-4.6q2.5-2 2.2-2.2zm66.5 52c-8.9 8.3-9 8.4-7.1 10.4 1.8 2.1 1.8 2.1-.7 2.7q-5.7 1.6-6.1 8.4c-.1 4.1 2.4 8.1 5.1 8.1 1.6 0 18.6-34.4 18.1-36.7-.2-.8-4 2.1-9.3 7.1m-23-2c-1.6 2.1-2.5 4.4-2.3 5.8.3 1.9.8 1.4 3.2-3 3.3-6.4 2.9-7.7-.9-2.8m-1.3 21.2a16 16 0 0 1-6.2 3.4c-3.8 0-6.8 2.2-7.4 5.3q-.6 2.9.5 3.7 1.1.7-1.1 4.9c-3.9 7.7-2 8.1 4.4.8 4.6-5.2 6.2-6.4 7.3-5.6 1.7 1.5 1.6 2.9-.3 5-1.5 1.7-1.5 2 .5 4.5 2.7 3.5 2.7 5-.4 7-3.7 2.4-3.1 7.3.8 5.8.8-.3 1.9-1.6 2.5-2.8q1.1-2.4 5.4-3.7c7.1-2.3 7.5-4.5 3.3-17.5a126 126 0 0 1-3.5-12c0-2.4-1.5-2.1-5.8 1.2m58.9 25.3-3.3 5 1.1 6.7c2.3 12.8 5 15.9 12.4 13.7 2.6-.7 3.3-1.4 3.5-4.1q.3-3.1-.8-3.2-1.2 0-.6-3.5c.5-2.7.3-3.7-.9-4.1q-1.5-.7-1.5-4.3c0-4.1-3-10.5-5.1-10.9-.8-.1-2.9 2-4.8 4.7m-83.5 53.7-9 4.6-5.3-1.5-5.4-1.4-3.3 7.2c-3.6 7.7-5.8 9.8-9.1 8.4a21 21 0 0 0-11.9.1c-3 1.1-3.9 3-5.7 11.5-1.4 6.9-2.4 9.1-5.1 12.2a14 14 0 0 0-2.7 5.5c-.6 3-1.3 3.5-8.1 6.1-6 2.4-7.8 2.7-9.3 1.7-1.5-.9-2.3-.8-3.8.6-2.7 2.5-2.4 3.9 1.7 6.4q3.5 2.4 6.5 1.6 3.1-.7 2.9.9 0 1.3-.9 1.5-1.5.5-4.8 3.7l-3.8 3.7 3 .6c2.4.4 2.9 1 2.7 2.8-.2 1.2.1 2.2.6 2.2 1.1 0 6.7 11.8 6 12.6-.4.3-3.2-1.5-6.3-4.1-6.4-5.1-9.2-6.5-13.6-6.5-4.2 0-3.6-1.8 1.3-4l4.2-1.8-3.9-.8c-3.8-.7-4.1-.5-8.8 4.6l-4.9 5.3 7.1 6.5c7 6.3 12.1 13.3 12.1 16.5 0 1.3 1 1.7 4.4 1.7 3.8 0 5.1.6 9.4 4.5 2.7 2.5 5.5 4.5 6 4.5s2.4-.8 4-1.7c2.8-1.6 3-1.6 5.8.6l2.9 2.3.5-2.3c.7-2.8 3-3.7 3.1-1.2q.1 1.3 1.3-2.2c.7-2.3 2.1-4.4 3.4-5.1 3.5-1.7 3.6-2.1 1.3-5.3-2.6-3.6-2-7.8 1.4-9.1a16 16 0 0 0 5-4.4c1.5-2 3.2-3.6 3.8-3.6s3.2 2.2 5.7 4.8c3.4 3.6 4.9 6 5.3 8.9.4 2.2 2 5.8 3.7 8.1 2.6 3.7 3.3 4.1 4.9 3 4.1-2.5 7.1 3.9 5.2 10.8q-1.6 6.3 2.9 4.8c.8-.3 4-.8 7.1-1.1 4.7-.5 5.9-1 6.7-2.8.9-2 1.6-2.2 5.9-1.7a15 15 0 0 1 7.6 2.8c1.6 1.3 3.3 2.4 3.9 2.4s1.6.7 2.2 1.6c1.1 1.4 1.8 1 6.2-2.9 4.8-4.4 4.9-4.6 4.9-10.3s0-5.8 4-7.6c4.7-2.1 8.6-2.3 10.4-.6 2.8 2.8 9.2-9.4 6.7-12.7-1-1.4-1.6-1.5-3.9-.4-1.5.7-2.9 1-3.2.7s-.1-2.7.5-5.3c1.2-5.3.5-10.9-1.6-12.6q-2.9-2.3.5-5.3c1.8-1.7 2.1-1.6 5.9 1.9 4.7 4.1 5.9 8 4.2 13.1-.9 2.7-.9 4.2 0 6.5 1.7 4.1 2.8 2.6 3.9-5.5.9-6.4.8-7.4-2.1-15.4-3.9-10.9-5.6-12.6-11.4-11.9-2.5.2-6.1 1.6-8.2 2.9-6.1 4-7.2 4.2-7.2.9 0-2.2 1.5-4.1 7.1-9.1 6.2-5.5 7-6.6 6.4-8.9-.9-3.7-2.4-4.9-1.7-1.4l.5 2.8-3.1-2.9c-1.7-1.5-3.3-4-3.7-5.5-.4-1.4-2.9-5.5-5.6-9.1-3.8-4.8-4.9-7-4.4-8.7.4-1.9 0-2.5-2.1-3.3-2.5-1-2.5-1.2-1.9-7.4.7-6 .6-6.5-1.7-8a40 40 0 0 0-18.6-5.1c-7.6-.5-7.8-.5-16.6 4.1"/></svg>