<svg xmlns="http://www.w3.org/2000/svg" width="1365.333" height="1365.333" viewBox="0 0 1024 1024"><path d="M696 1.7c-4 1.1-6 1.2-7.7.4a13 13 0 0 0-12.5 1.4c-2 1.4-5 2.5-6.7 2.5-2.7 0-3 .3-3.3 3.6s-.7 3.7-6.3 6.1a27 27 0 0 0-12.7 10c-.9 1.2-3.4 2.4-5.7 2.8-3.5.6-4.5 1.3-6.7 5.1-1.5 2.5-4 5.2-5.8 6-1.7.9-7 4.6-11.8 8.1-7.5 5.7-8.8 7.1-9.7 10.8-1 3.8-1.5 4.3-5.1 5.3q-4 1-6.8 0c-2.3-.9-3.6-.6-7.7 1.4a41 41 0 0 1-9 3.2c-7.1 1.3-11 4.7-15 13.3-2 4.3-4.1 9.9-4.7 12.5l-1.1 4.7-7.1 2.1a92 92 0 0 0-12.6 5l-5.5 2.8-1.8 8.3c-1.9 9-4.5 13.8-14.3 25.9-7.5 9.4-15.4 16.6-19.4 17.9q-3.6 1-7.2 5.9l-3.6 4.9-10.3 1.8c-5.7 1-12.4 2.7-14.9 3.9-6 2.8-12.7 8.1-13.6 10.9a37 37 0 0 1-14.9 18.1c-4 2.8-7.6 5.9-7.9 7-.3 1.2-.6 6.7-.6 12.3 0 9.6-.2 10.6-3 15.1-1.6 2.7-3 5.5-3 6.3s-1.7 6.4-3.7 12.5l-3.7 11.2-5 2.4c-3.6 1.6-6.3 4-9.4 8.1l-4.4 5.8 1.1 5.7c1.6 7.9-.9 20.3-6 29.7-2.1 3.8-5 11.3-6.5 16.5-2.2 7.8-3.3 10.1-6.3 13-2 1.9-4.5 5.3-5.4 7.5-2 4.5-9.4 10-16.1 11.9-3.2.9-4.2 1.7-4.5 3.6a12 12 0 0 1-2.1 5c-1.5 2.1-1.5 3-.5 6 .9 2.8.9 4.1-.2 6.7-.7 1.8-1.3 4.8-1.3 6.7s-.4 4.6-1 6c-.8 2.3-1.5 2.6-5.6 2.6-4.5 0-4.6 0-4.3 3.3q.6 6.4-5.9 14.6a15 15 0 0 0-4 9.5c-.4 4.1-1.2 5.9-4.3 9.5-3.7 4.1-3.9 4.8-3.9 10.7 0 6.3 0 6.4-4 9-2.2 1.5-4 3.1-4 3.6s3.6 4.4 8 8.6a55 55 0 0 1 8.9 10.4 65 65 0 0 1 1.7 11.9l.7 9.1 2.9-.6c2.5-.5 2.8-.3 2.8 2 0 1.4 1.1 4.5 2.5 6.8l2.5 4.3-2.7 1.2q-4.2 2-4.3-3.1 0-3.4-4.5-2.2c-1.9.5-3.4 2.3-5.7 6.8-1.7 3.3-4.7 7.9-6.8 10.2s-4.1 5.6-4.5 7.5-1.6 5.1-2.6 7.1c-1.9 3.6-1.8 3.8 0 7a43 43 0 0 1 3.9 14.3c-5.2 3.3-8.2 4.4-10.8 3.8l-3-.5v5.4c0 3.1-.3 7.6-.6 10.1-.6 4.4-.8 4.6-6.8 7.2a93 93 0 0 0-16 8c-2 1.5-1.8 3.4 1 14.2.5 2 .2 2.3-2 2.3-1.5 0-3.6-.5-4.8-1.1q-1.8-1-2.3-.7c-.5.3.3 3.2 1.2 6.6 1.5 6.2 1.6 6.2 5.2 6.2 3.2 0 4 .6 7.1 5.3 5.5 8.2 10.4 12.1 15.8 12.7 4 .4 4.7.9 5.5 3.5.5 1.6 2.4 5 4.1 7.5s3.9 7.1 4.9 10.2l1.8 5.8-4 5.7a58 58 0 0 1-7.6 9.3 44 44 0 0 0-6.6 8.8c-2.6 4.4-3 5.9-2.4 9.3.4 2.2 1.7 5.2 3 6.7 3.4 4 4.3 8.8 5 26.8.6 14.4.5 16.2-.9 16.7s-1.6 1.9-1.4 7.4c.3 6.2.5 6.8 2.6 7.1 1.2.2 3.8-.2 5.7-.8 2.9-1 4.1-2.4 8.1-10 4.1-7.7 4.9-8.7 6.7-8.1 3.4 1.3 3.9 4.5 1.1 7.2-2.7 2.5-3.4 7.9-1 7.9.8 0 2.7 1.5 4.3 3.3 1.5 1.9 4.9 4.8 7.5 6.5 4.5 3.1 4.6 3.4 3.6 6.2-1.2 3.7-1.2 3.6-6.9 4.5l-4.7.7-1.2-3.6c-1.9-5.9-5.5-6.6-12.6-2.4-2.7 1.6-3.2 2.5-3.6 6.8-.3 2.8-1.2 5.8-2.1 6.8-3.9 4.3-6.7 23.3-4.7 31.7 1.2 5.1 1.1 5.9-1.6 14.7l-3 9.2-9.4 6.6a76 76 0 0 1-13.8 7.9c-2.4.7-6.3 3-8.7 5.2l-4.2 3.9h-12.9c-12.8-.1-12.9-.1-16.4-3-3-2.6-4.2-3-9.5-3h-6l5 4.5a25 25 0 0 0 7.8 5c2.5.6 2.7 1.1 2.7 5.3s-.4 5-2.7 6.3c-2.4 1.5-3.1 1.5-7.9.2-6.4-1.9-8.4-1.3-8.4 2.5 0 4.1-4.6 8.2-9.2 8.2-3.2 0-3.7.3-4.3 3-1.1 4.8-5.1 8.9-9.6 9.6-3.3.6-3.9 1-3.9 3s-.5 2.4-3 2.4q-3 0-4.6 2.5c-.9 1.5-2.6 2.5-3.9 2.5s-6.4 2.1-11.5 4.6c-8.9 4.4-9.4 4.6-15.4 3.9-6.2-.6-6.3-.6-11.5 3.5s-5.3 4.1-7.9 2.4c-1.4-.9-2.8-1.3-2.9-.8-2.5 6.2-4 7.9-8.2 8.9q-4.4 1-7.2 4.5c-2.9 3.4-2.9 3.5-1 5.3 1.6 1.7 2.4 1.8 5 .9 2.7-1 4-.7 9.7 1.8q6.6 3 11.2 3a618 618 0 0 1 25.8 2.6c3.4.4 4.3 1 5.5 3.7 2.8 6.4 11.9 3.3 11.9-4.1q.1-7.4 7.8-8.7c5-.8 14.7 1.1 18.3 3.5q2.5 2 4 .9c2.1-1.3 6.5-1.1 7.8.5q1.2 1.3.1 4c-1.7 4.5-1.2 6.4 2.1 8.3 1.9 1.1 3.9 3.6 5.1 6.3l2 4.5 1.4-3.2c1.7-3.9 2.8-4.6 7.3-4.7l3.6-.1.3-6.2c.5-11.1 5.4-10.9 6.8.3.6 4.8.9 5.4 3 5.4 2.3 0 2.4.3 2.4 6.2 0 4.4-.5 6.7-1.7 8-1.6 1.8-1.5 2 .8 4.4l2.5 2.5 3.3-10.3a85 85 0 0 0 4.2-24.3c1.1-18.1 1.7-21.5 3.9-21.5 3.3 0 4.9 3.4 6.2 12.8 1.4 10.3 1.7 10.5 9.9 8.1 4.4-1.4 6-.5 8.5 4.2 1.3 2.5 1.2 3.1-1.1 7.1a18 18 0 0 0-2.5 7.1q0 2.8-2.7 5.2c-2.8 2.3-2.8 2.4-1 5.4 1.6 2.7 1.6 3.3.3 5.9-1.8 3.6-6.7 23.2-6 24.3 1.4 2.3 7.4.5 7.4-2.1 0-2.1 4.2-5.8 7.6-6.6a4 4 0 0 0 2.7-2.4q.4-2 2.6-1.3c1.8.5 2.1.1 2.1-2.6 0-2.4.4-3.1 1.9-3.1 2.7 0 4.2 2.2 4.9 7.7l.7 4.8 3.3-5.7c3.7-6.6 4.3-13.8 1.6-19-1.3-2.5-1.5-4.6-.9-10.1.3-3.8 1.1-8.1 1.7-9.6.7-1.5 1-7.3.9-13.6l-.3-11.1 3.5-1.6 3.5-1.7 1 2.9q2.4 6.2 8.1 3.5c3.4-1.7 6.7-2 7.6-.5a46 46 0 0 1-4.5 19.5c-1.7 1.5-1.7 1.9 0 7.3 1 3.1 2.4 5.8 3.1 6 2.1.4 6.8-6.1 8.8-12.1 1.3-3.9 2.3-5.3 3.9-5.5q2.1-.4 2.2-2.2c0-3.3 4.3-7.2 8.6-7.9 3.7-.6 3.9-.8 4.2-4.4.3-3.4.8-4 4.8-5.9l4.4-2.2v-5.9c0-5.1-.3-6.2-2.5-7.9a16 16 0 0 1-4-7c-1.7-5.8-2-15.8-.5-15.8 1.4 0 4.2 4.6 4.9 8.3.6 2.7 1.1 3.2 3.3 2.9 6-.7 16.3 7.4 20.4 16 2.7 5.7 3 5.9 5.9 5.4 1.6-.3 4-1.8 5.3-3.4l2.3-2.7 2.4 3c2 2.4 2.3 3.7 1.8 7-.4 3.4.1 5.3 3 11.1q3.5 6.8 6.5 8.6c2.9 1.7 3 1.7 3.6-.5.3-1.2.6-3.2.6-4.5q0-2.2 2.3-3.1c2.9-1.1 5.9.9 16 10.8l7.8 7.6-.2-9c-.2-8.1 0-9 1.7-9.3 3.2-.6 3.4-1.5 2-9.7-2.1-11.8-2.7-12.9-8.4-15.3-6.2-2.7-7.4-2.7-9.7-.2-1 1.1-2.4 2-3.1 2-2.5 0-5.1-5-6.7-13-.9-4.5-2.6-9.3-3.7-10.7q-4.4-5.5 3.2-.7c10.3 6.5 14.6 10.4 15.2 13.9.8 4.1 2.4 4.4 5.6 1 1.8-2 3.3-2.5 6.9-2.5 2.5 0 5.1.4 5.7.8 1.4 1 7 17.5 7.9 23.5.6 4.1 1.4 5.4 5.7 9 4.7 4.1 4.9 4.3 4.3 8.4-.5 3.7-.1 4.9 3.6 10.8 4.1 6.5 4.1 6.8 3.5 12.9-.4 3.7-.2 7.5.5 9.4.9 2.7 1.6 3.2 4.4 3.2q6-.2 3.4-6.4c-1-2.1-.9-2.9.4-4.4 1-1 1.7-3.2 1.7-4.9 0-3.7 3.6-7.3 7.3-7.3q4.4 0 1.4-4.5a17 17 0 0 1-2.1-5.4c-.5-3-.2-3.9 2.5-6.7l3.1-3.2-3.9-1.2c-4.9-1.6-8.9-5.4-16.9-15.9-5.7-7.4-6.4-8.9-6.4-12.9 0-3.8-.5-5-3.9-8.3-4.5-4.6-9.5-5.3-12.6-1.9-1.8 2-1.8 2-4-1.2-3.1-4.6-2.3-5.9 3.1-5.1 3.7.5 4.9.2 6.8-1.6 2-1.9 3-2.1 7.4-1.5l5 .6 1.2-3.6c1.4-4.4 4-4.8 4-.7 0 1.6.9 5.8 2 9.3l2 6.5q-.2.3-2.5.3c-2.3 0-2.5.4-2.5.8 0 1.5 9.6 10 14.5 12.7 3.6 2.1 7 3 12.5 3.5 7.4.7 7.5.7 12 5.8 3.9 4.4 4.8 4.9 6.5 4 2.6-1.5 3.5-2.8 3.5-5.5 0-1.2.8-3.5 1.7-5.1q3.2-6-4.4-6.2c-2.7 0-3.7-.6-5.1-3l-1.7-3h-11.6c-11.6 0-11.7 0-13.5-2.8-1.1-1.6-2-5.2-2.2-8.9l-.4-6.1 4-2.1 4.1-2.1 6.3 3q6.3 3 11.1 3c3.7 0 5.8.7 9.2 3 8.2 5.6 20 3.4 23.8-4.5q3-6.6 8.4-.5c2.5 2.8 3.1 3 9.8 3h7.1l5.1 7.8c2.8 4.2 5.6 8.8 6.3 10.2 1.2 2.3 1.4 2.4 2 .5 1-2.5.3-10.2-1.6-18.6-.9-3.6-1.4-8.3-1.2-10.5.2-3.2.8-4 3.1-4.9 2.3-.8 3.6-.5 6.7 1.3 2.1 1.2 4.1 1.9 4.3 1.4s.8-4.2 1.2-8.5c.5-4.9 1.3-8.4 2.3-9.4 1.4-1.4 1.8-1.2 4.3 1.8 1.5 1.9 4.4 6.3 6.3 9.8 3.4 6 3.6 6.9 3.6 15.7 0 8.2.2 9.5 1.9 10.4 2.9 1.5 2.9 1.4 1.8-3.3-.9-4-.7-4.6 2.8-10.2l4.1-6.3c.1-.2 1.6.4 3.3 1.2 1.6.9 3.4 1.6 3.9 1.6 3.6 0 .6-11.7-3.1-12.2q-2.1-.4-3.2-3.1c-.9-2.6-.6-3.2 2.5-5.8 4.2-3.4 9.1-3.8 12-.9 1.1 1.1 2 2.8 2 3.8s2 4 4.4 6.7l4.4 5 2.2-2c1.2-1.1 2.8-3.4 3.5-5.3l1.4-3.3 3.8 1.7c6.5 2.8 6.8 2.7 9.6-1a15 15 0 0 0 2.7-4.5c0-.6-2-4.9-4.5-9.5l-4.6-8.4 5.7-.4c5.4-.3 5.6-.2 6.9 2.7a18 18 0 0 0 3.9 5.4l2.6 2.4v-7.6l6.9.5c5.2.4 7.3.2 8.4-.9s1.9-1.2 4.9.3q3.5 1.6 5.1.7c1.4-.7.5-2.3-5.4-10.2-4.1-5.5-6.8-10-6.5-10.8s.6-1.8.6-2.3 1.3-1.1 2.9-1.5c2.3-.5 3.8 0 7 2.3 3.7 2.7 4.5 2.9 7.6 1.9 2.5-.7 4.2-.7 6 .1 2.4 1.1 2.5 1 2.5-2.4 0-4 2.1-5.4 5.2-3.5 1.8 1.1 2.4.9 4.9-1.5 3.3-3.1 3.3-3.4 1.8-10.2l-1-5-6.7-.7q-14.4-1.3-14.2-4.7c0-1.5.8-1.8 5.4-1.8 7.9 0 8.2-.2 7.8-6-.2-2.8-.1-5 .2-5s4.9 2.7 10.2 6a60 60 0 0 0 10.9 6q4 .1-.1-6.1l-2.6-4.2 3.2.6c2.6.6 3.3.3 3.7-1.2.9-3.7 5-3.5 10.4.5 3.9 2.9 5.3 3.4 6.2 2.4s.4-1.9-2.4-4.3c-3.4-3-3.5-3.4-2.5-6.5 1.7-4.9 5.9-7.2 13.6-7.2l6.5-.1-5.2-4.8c-5.1-4.6-5.3-5-5.3-9.9 0-4.2.4-5.3 2.1-6.3s3-.6 7 1.6q9 4.8 9.7-.6c.3-2.2-.2-2.9-2.8-3.7q-3.2-1-3.6-4.1c-.5-2.6-1.5-3.4-6.5-5.3-4.6-1.8-5.9-2.7-5.9-4.4 0-2.8 2.4-4.8 5-4.1 1.8.5 9.4-4 11.1-6.5.3-.5 2.3 0 4.5 1.1 8.4 4.5 9.9 1.2 2.9-5.9-4.9-5-6.3-9.1-5.1-15.5.5-2.7 1.4-3.9 3.4-4.6 2.4-.9 3-.7 5 1.8 6.9 8.2 7 8.3 10.6 8.3 3.2 0 3.6-.3 3.6-2.5q.1-2.6-1.9-2.5-5.2 0-5.1-3.6c0-2.1.5-2.4 4-2.4 2.1 0 5.1.5 6.5 1.2q5 2.4 2-3.2l-1.7-3.2 3.1.7c2.8.6 3 .5 2.3-1.4a17 17 0 0 0-4.9-5c-3.6-2.6-4.3-3.7-4.3-6.4q0-3.4 2.5-5.7c2.3-2.2 2.4-2.4.9-4.9-1.4-2.4-1.4-3.1 0-6.4s1.3-4.1 0-7.2c-2.2-5.4-1.7-8.1 2.6-14.6 3.6-5.2 4.4-5.9 7.4-5.9 2.7 0 4 .8 6.3 3.6s3.8 3.7 7 4.1c4 .5 4.2.4 5.7-3.1 1.3-3 2-3.6 4.5-3.6 4.6 0 4.1-3.3-1.1-7-6.9-4.9-7.8-5.9-7.8-8.1 0-1.2-1.1-3.4-2.4-5-2.8-3.3-4.3-11.7-2.7-14.7.8-1.4.7-2.4-.4-3.8-.8-1.1-1.5-3.5-1.5-5.4q0-3.5-3.5-8.8a48 48 0 0 1-4.5-7.6q-.9-2.4-3.9-3.1c-3.1-.7-3.1-.7-3.1-7.4 0-5.9.3-7 2.5-9.1a7 7 0 0 0 2.5-6c0-2.1.3-5.8.6-8.4.6-4.3.9-4.6 3.6-4.6 2.6 0 2.9-.3 2.6-2.7-.2-2.2-1-3-4.2-3.8-2.9-.9-4.3-2-5.8-4.8-1-2-2.5-3.7-3.3-3.7-1.2 0-1.5-2.2-1.5-12.8 0-16.8.5-19.3 4.9-24.4 3.3-3.8 3.6-4.7 3.6-10.4.1-4.5.6-6.8 1.8-8.2.9-1 1.7-3 1.7-4.4q0-2.5 2.5-3.6c2.5-1.1 2.5-2 2.5-3.6 0-1.3 1.8-5.1 4.1-8.5l4.1-6.1h5.1c2.9.1 6.3.7 7.7 1.5q2.6 1.3 10.9 1.5c7.2 0 8.8-.3 10.7-2.1 1.2-1.1 4.4-2.6 7.1-3.3l5-1.3 9.4 6.8a71 71 0 0 0 10.5 6.9c.7 0 1.4-1.7 1.6-3.8s1.2-5.4 2.2-7.5l1.6-3.7-2.7-1.1c-1.6-.7-5.5-1.1-8.8-1-3.3 0-6.6-.3-7.4-.8-2.1-1.3-8.1-20.9-8.1-26.6 0-2.8-.7-7.7-1.4-10.9-1.3-5.3-1.2-6.3.3-10 1.5-3.5 1.6-5 .8-10.4-.8-4.6-.8-7.8.1-12 3-14 8.2-45.7 8.2-50.1q0-4.8 3-10.7c2.3-4.6 2.8-6.7 2.4-9.9-.3-2.2.1-6.6 1-10 .9-3.2 1.6-8.5 1.6-11.7 0-8.4 1.8-10.8 8.1-10.8 4.9 0 4.9 0 4.9-3.3a10 10 0 0 0-1.5-5.1q-1.5-2.1-1.5-8.3c0-3.5-.7-8-1.5-9.9-1.1-2.6-1.3-5.5-.8-10.9.5-6.3.2-8.4-1.7-13.6-2.1-5.9-2.2-6.7-1-17.3a72 72 0 0 1 4.6-22.6c.6-1.4 1-3.8.7-5.3-.4-2.3-1-2.7-3.7-2.7-4.5 0-10.3-5.9-8.7-8.8q1-2 .1-5.3c-.6-1.9-1-8-1-13.7 0-11.9-1.5-15.9-7.9-21.7-5-4.5-7.9-11.5-9.3-22.1-1.3-10.2-.5-14.6 5.3-29.6 2.3-5.7 4.3-11.3 4.6-12.6q.6-2.2 2.8-2.2c5 0 5.5-.8 5.5-8.1V44l-5.4-2.4c-3-1.4-6-3.4-6.6-4.8-.7-1.2-2.4-3.5-3.8-5.1-2.2-2.3-3.4-2.7-7.9-2.7a21 21 0 0 1-15-5.4c-3.8-3.2-12.2-6.3-13.2-4.9a98 98 0 0 1-26 3c-2.5-.5-3.4-.1-5.3 2.2-1.6 1.9-4.2 3.3-8.8 4.5-3.6.9-10.5 3.6-15.5 5.9-8.1 3.8-9.7 4.2-16.6 4.2-5.9-.1-8.3-.6-11.3-2.3-4.6-2.7-6.8-2.8-9.1-.2-2.2 2.4-9.8 2.7-14.8.6-1.8-.7-9.9-6.4-18.2-12.6s-16-11.6-17.1-12.2q-2.2-.9-2.7-5.1c-.6-4.2-2.8-6.8-5.6-6.6-.9 0-4.1.7-7.1 1.6"/><path d="M364.3 953.8c-3.2 2.6-3.3 2.8-2.1 6.6 1.1 3.6 1.1 4-1.4 6.1l-4.8 3.8a10 10 0 0 0-3 5c-.7 3.4-.6 3.5 3 4.6a28 28 0 0 0 6.2 1.1c1.3 0 4 1.1 5.9 2.5l3.4 2.6 2.8-3.1c1.5-1.7 2.7-4.1 2.7-5.5q0-2.6 1.8-2.5c2.3 0 5.8-6.1 4.9-8.4-.7-1.8-3.2-2.2-4.2-.6-.3.5-2.7 1-5.3 1h-4.7l2.7-2.3c2.9-2.3 4.7-6.2 4.1-8.8-.3-1.4-6.2-4.9-8.1-4.9-.4 0-2.2 1.3-3.9 2.8m48.5 18.9c-3.5 2.2-5.1 5.8-3.8 8.3s1.3 6.3-.1 9.4c-1 2.1-.8 2.9 1.3 5.4 1.3 1.6 3 4.3 3.7 6 1 2.3 2.9 3.9 7.5 6.2 7.4 3.6 7.6 3.6 6.9.9-.3-1.1 0-3.9.8-6.1 1.7-5.2.6-6.8-5.9-9.2-4.8-1.7-5.2-2.1-5.2-5.1q0-3.1 2.5-5.5c3.3-3.1 3.3-7.2-.1-9.9-3.2-2.5-4.1-2.6-7.6-.4"/></svg>