<svg xmlns="http://www.w3.org/2000/svg" width="1365.333" height="1365.333" viewBox="0 0 1024 1024"><path d="M28.5 249.7c-1.1.2-4.3 1.3-7.1 2.4-5.7 2.2-7.9 5.3-11.5 15.6a41 41 0 0 1-3.5 8.1 73 73 0 0 0-6 16.9c.2.2 2.8.6 5.7 1 4.2.5 6.2 1.3 9.1 3.9 4.5 4 8.2 6 13.1 6.9 2.9.6 4.1 1.6 6.1 4.9a39 39 0 0 1 4.9 17.9c-.4 1.8.2 3 2.1 4.5 1.5 1.1 3.6 4.1 4.7 6.7l2.1 4.7 2.2-2.1c3.1-2.9 6.1-2.6 10.6.9 2.1 1.6 6.1 3.6 9 4.3 3.7 1 6.9 2.8 10.7 6.2 5 4.4 5.7 4.7 9.1 4 5.5-1.1 15.1-.6 20.6 1.1a36 36 0 0 0 7.8 1.4c4.5 0 9.3 4.3 10.8 9.6.7 2.5 2.1 5.1 3.2 5.7q1.7 1.2 1.8 2.1c0 .6 1.2 2.2 2.6 3.8l2.7 2.7 2.5-1.9c3.3-2.6 7.4-2.5 9.9.2a52 52 0 0 1 9.3 22.7c0 4.2.5 5.3 5.1 10.4 4.5 5 5.3 5.6 7.1 4.6 3.6-2 10.6-.5 14.2 3 2.5 2.4 4.1 3.1 7.1 3.1a26 26 0 0 1 15.9 4.8c1.6 1.5 4.6 6.4 6.6 10.9 4.5 9.7 8 28.7 8 43.7 0 10.4 2.1 17.6 7.1 25.1 1.4 2.2 3 6 3.4 8.5s1.4 5.3 2.3 6.3q1.6 1.9 1.3 5.7c-.1 2.4.4 4.9 1.5 6.4 1.3 2.1 1.6 4.7 1.5 12.9l-.2 10.2 5.1 8c10.2 15.9 11.1 18.9 12.6 43.7.7 10.6.6 10.6-2.4 16-1.7 3-3.4 7.3-3.8 9.7A46 46 0 0 1 238 658q-3 1.3-5.9 6.4c-1.7 2.8-5 8-7.5 11.5-2.6 3.6-4.6 6.8-4.6 7.2s2.5 1 5.6 1.4c4.1.5 6.4 1.4 9 3.7 3.1 2.7 4.2 3.1 8.8 2.9 4.1-.1 5.6.2 7 1.8 1 1.1 3.5 2.2 5.5 2.6 2.7.4 4.2 1.4 5.4 3.4 2.3 3.9 6.5 4.7 7.7 1.5a6 6 0 0 1 3.5-3c1.5-.4 3.6-2.2 4.9-4.3s4.2-5 6.6-6.6l4.2-2.9 3.2 1.8 7 3.9 3.9 2.1 3.8-2.2c3.2-1.9 4.2-2 6.3-1 2.2.9 2.9.8 4.5-.6 1.9-1.7 2.2-1.7 7.4 1.3 4 2.3 6.7 3.1 10.3 3.1q4.7 0 6.8 1.9c2.5 2.2 7.9 4.1 11.7 4.1q3 0 6.9 3.7l4.1 3.6 3.5-1.6c1.9-1 4.3-3.1 5.2-4.9.9-1.7 3.6-5.3 6-8 2.3-2.7 4.2-5.9 4.2-7.2 0-6.2 1.1-8.3 5.6-10.4 5.8-2.9 21.8-3.2 22.8-.6.5 1.3 1.5 1.5 5 1l4.5-.7-.6 5.8q-.6 5.8-2.5 7.3c-1.8 1.4-1.7 1.7 2.6 5.2l4.5 3.8 3.2-3.3 3.3-3.2 1.5 3.8c1.3 3.1 2 3.7 3.9 3.2 1.7-.4 2.4 0 3.1 1.7a16 16 0 0 0 3.5 4.7c1.4 1.4 2.6 3.2 2.6 4 .1 2.6 9.7 12.1 12.3 12.1 2.9 0 5.9 2.8 7.7 6.9q1.2 3.2 3.6 3.1c1.2 0 2.6.5 3 1.1s1.6.8 2.9.5q2.4-.6 2.9 1 1.5 4.2-.9 4.4c-2.8 0-7.2 2.9-7.8 5-.5 1.8 0 2 3.6 2 2.3 0 4.8.4 5.5.8.6.5 2.3 3.9 3.5 7.8 2.8 8 3.7 8.5 10.7 5.5a33 33 0 0 1 18.1-1.5c3.1.5 3.9 1.3 6.2 6a26 26 0 0 1 2.7 7.9c0 3.1 0 3.1 8.6.1 5.4-1.9 7.3-2.2 8.9-1.3 1.8 1 8.2 1.9 23.5 3.3l5.5.5 6.7-6 6.6-6.1h10.6c8.2 0 11.7-.5 16.1-2.1 4-1.5 6.8-1.9 9.3-1.5 10.8 1.9 10.8 1.9 12.5-.7.9-1.4 1.9-3.7 2.3-5.2s1.7-3 3.2-3.6c2.1-.8 3-.5 5.6 1.9 6.1 5.8 9.6 6.4 17.1 3.1l4.8-2.1 4.8 2.2c5.5 2.6 12.9 2.4 17.3-.6 2.5-1.6 2.7-1.5 5.6 1.5 2.5 2.7 3.2 3 4.9 2.1 1.2-.6 2.8-2.4 3.6-4 1.3-2.6 2.1-3 5.6-3 2.2 0 5.3.7 6.9 1.5 2.4 1.3 5.3 1.4 15.5.9 14.5-.8 14.8-1.1 8.9-9.3l-3.5-5 2.5-1.6c2.3-1.5 2.7-1.5 8.5 1.4 3.3 1.7 7.1 3.1 8.3 3.1q2.3 0 19.8-15.6c33.3-29.7 35.3-30.8 44.4-23.8l4.6 3.5 8.3-.6 8.2-.6 2.7 4.1c2.4 3.4 3.3 4 6.4 4 6 0 11.7 2.1 15.6 5.8 3.6 3.4 3.8 3.5 9.7 2.8 3.4-.4 6.1-.4 6.1 0s-1.6 2.4-3.5 4.5a20 20 0 0 0-3.5 4.8c0 1.3 11.4 11.1 18.5 15.8a77 77 0 0 0 14.4 6.8 36 36 0 0 0 28.6-1.4c4.7-2.1 7.4-2.8 9.8-2.4 1.8.3 5.1 0 7.2-.6l3.9-1.1 10.1 9.9c10.3 10.1 13.4 12.4 15.7 11.7 5.9-1.9 6.6-1.7 7.8 1.8q2.2 6.8 8.7 7c3.6.1 3.7-.1 5.8-5.4 1.9-5.1 2.4-5.5 5.5-5.8 6.5-.5 8-1.2 9.3-4.5a12 12 0 0 1 4-4.6c2.2-1.2 2.7-2.2 2.7-5 0-2 .6-4.5 1.3-5.6 1.4-2 1.5-12.7.2-21.1-.6-3.7-1.1-4.2-5.6-6.2-3.8-1.6-5.3-2.8-6.4-5.6-1.5-3.4-1.8-3.6-6.4-3.6q-4.8 0-6.1-1.5c-.7-.8-2-1.5-2.9-1.5-1 0-4-2-6.7-4.5s-5.7-4.5-6.7-4.5-2.2-1.1-2.7-2.4q-1-2.2-3.7-3.1c-1.5-.3-3.5-1.2-4.3-1.9-.8-.8-2.8-1.6-4.3-2q-3.1-.6-2.2-2.5.6-2-2-4.5a9 9 0 0 1-2.5-5.1c0-2.1.5-2.5 2.9-2.5 3.7 0 4.5-2.2 2-5.4-1.7-2.2-2.4-2.4-4.1-1.5-2.1 1.2-3.8-.1-3.8-2.9 0-1.6-.5-1.5-4.1.4-1.6.8-3.8 1.2-4.8.9-3.1-.9-6.1-9.5-6.1-17q0-11.5 5.5-15.1c2.2-1.4 3.2-1.5 6.4-.5 7 2 6.3 2.5 17.7-10.4a28 28 0 0 0 7.2-13.1l1.9-6.9-2.7-3.4c-2.7-3.1-3.4-3.4-11.2-4.2-7.8-.7-8.5-1-10.8-4-6.6-8.6-5.3-8.1-16.6-6.8-5.5.7-10.9.9-11.8.6s-2.3-2.2-3.1-4.1c-1.6-3.9-3.8-5.1-5.5-3.1-1.1 1.3-1.5 1.3-3.3 0a7 7 0 0 0-8.5.1c-2.1 1.4-2.2 1.4-2.2-.5 0-1.1-.9-2.5-2-3.1s-2-2.1-2-3.6c0-4.6-3.4-8.1-8.7-8.9-8.7-1.2-12-2.7-18.2-8-4.4-3.9-7.1-5.5-10.3-6a12 12 0 0 1-7.5-4.3c-2.9-3.1-3.2-4.1-2.7-7.2a37 37 0 0 1 3.5-8.6c4.4-7.8 8.5-18.3 10.3-26.4a83 83 0 0 1 3.2-10.8c1.4-3.5 1.4-3.6-1.7-6.8-4.4-4.6-16.9-9.3-30-11.4-6.4-1-7.1-.8-16.8 2.5a81 81 0 0 1-11.9 3.5q-1.8 0-3.2-3.8c-1.6-4.6-6.6-10.9-9.2-11.8-1.1-.3-2.8-2.5-3.8-4.9a20 20 0 0 0-5.7-7.1 64 64 0 0 1-7.4-6.6c-4.2-4.3-6.3-4.6-11.9-1.8-7.2 3.7-10 2.9-18.5-5.1s-9.9-8.3-17.4-3.4c-3.7 2.5-3.9 2.9-4.3 8.6-.3 4.6-1 6.5-3 8.7-2.5 2.5-2.6 2.9-1.2 5.5 1.3 2.4 1.3 2.8-.1 3.3-2.6 1-4.5-.4-4.5-3.3 0-3-7.5-16.7-10.6-19.5a60 60 0 0 0-22.2-4.8c-5.4 0-12.9 2.3-20.9 6.4-4.5 2.2-6.5 2.6-14.2 2.6h-9l-1.2 4.2c-1.6 6.1-6 13.6-8.4 14.3-1.1.3-6.8 1-12.8 1.5-11.9 1-15.5 2.5-20.1 8.5-3.5 4.6-6.2 4.5-12.2-.5-4.7-3.9-4.9-3.9-13.8-4.2l-9.1-.3-1.9-3.8-1.8-3.8 4.3-6.2c2.4-3.4 5.1-6.8 6.1-7.5s2.5-2.6 3.3-4.1l1.4-2.8-6.2-3.8q-6.2-3.6-12.2-4.6c-5-.8-6.4-1.5-8.5-4.2a44 44 0 0 0-25-16.2 14 14 0 0 1-5-2 40 40 0 0 0-15-3.5c-1.6 0-5-1.1-7.6-2.5-3-1.6-6.3-2.5-9.1-2.5-6 0-10.7-2.7-20-11.1l-12.5-11.6-4.8-4.4 1.5-4.1c1.8-5.3 1-6.4-6.3-7.8a22 22 0 0 1-14.4-8.3c-3.3-3.5-4.1-3.9-6-3-1.7.7-3.3.5-6.5-.9s-4.7-1.6-6.3-.8q-2 1.2-4 0-4.5-2.3-7.1 3.3c-2.2 5-6.3 4.9-15.2-.5-4-2.3-9-5.9-11.2-7.9-5.4-4.9-9.1-5.9-21-5.9-7.1 0-10.7-.4-12-1.4q-1.9-1.5-4.4-.4c-1.4.5-3.4.8-4.5.7-6.2-.4-8.5.3-14.8 5.1l-6.6 5-11.9-3.1c-16.9-4.5-17.5-4.5-21.9-1.5-5 3.4-8.7 3.3-14.3-.4-3.9-2.4-5.8-3-12.1-3.2-4.1-.2-9.1.1-11 .5-3.4.7-3.6.6-8.8-6.2-4.6-6-6.1-7.2-11.3-9.1-4.6-1.8-5.9-2.7-5.9-4.3 0-1.2-1.2-3.4-2.7-4.9-2.5-2.6-3.3-2.8-10.2-2.8s-8.4-.4-14.6-3.7c-6.6-3.4-7.7-3.6-19-4.2l-12.1-.6-5.4-4c-3-2.1-7.9-6.1-10.9-8.8a63 63 0 0 0-21.6-12.1 15 15 0 0 1-8.5-6.1l-3.5-4.6-6.1.4c-4.7.2-7.2.9-10.4 3.1-3.9 2.6-4.9 2.8-10.9 2.4-7.2-.5-10.9-2.1-18.7-7.8q-5-3.8-10.8-5c-3.3-.7-7.3-2.1-9-3.1-2.9-1.8-7.5-2.2-12.1-1.2"/></svg>