<svg xmlns="http://www.w3.org/2000/svg" width="1365.333" height="1365.333" viewBox="0 0 1024 1024"><path d="M920.6 89.6c-2.7 1.5-2.8 1.8-2.2 6.7 1.3 9.9 1.3 10-1.6 11.5q-3 1.3-2.8 4c0 1.5-.6 3.7-1.4 4.8s-2 5.7-2.7 10.2c-1.5 9.6-3.4 12.3-7.3 10.2-2.8-1.5-4.6-.5-9.1 4.9l-2.9 3.3-14-.7c-7.6-.4-15.6-1.3-17.7-2-2-.8-5.8-1.7-8.4-2.1-3.8-.5-5.8-1.7-10.6-6.1-7.6-7.1-7.9-9.8-1.4-15.5 2.7-2.4 5.8-6.6 8-11.1 2-3.9 4.4-8.1 5.4-9.2s2.2-3 2.6-4.3c.5-1.8.3-2.2-1.8-2.2-1.3 0-3.4 1.2-4.8 2.6s-4.4 3.7-6.9 5-6.3 3.7-8.5 5.3-5 3.2-6.2 3.6c-1.9.5-2.3.2-2.3-1.5 0-3.6-3.6-7.6-8.4-9.4l-4.5-1.7-4.5 3c-6.5 4.5-11.9 5.4-20.8 3.6l-9-2.1c-1.6-.5-1.8.2-1.8 4.5v4.9l-6.7.7c-4.2.3-10.4 2-16 4.2-8.9 3.5-9.3 3.7-9.3 6.7 0 1.7-.3 4.1-.6 5.3q-.9 2.5 1.3 2.3c2.4 0 4.3 1.9 4.3 4.2 0 1.7.8 1.8 11.5 1.1l11.6-.6 3.2 3.1c1.8 1.8 5.7 4 8.7 5l5.5 1.9.3 4.8c.2 2.6-.2 6-.7 7.4-.8 1.9-.7 4.8.3 10.8l1.5 8.3-3.1 6.5q-3 6.5-5.7 8c-1.5.7-3.3 2.1-4 2.9-.8.9-2.4 1.6-3.7 1.6-2.2 0-2.4.4-2.4 4.6 0 4.6 0 4.6 2.3 3 5.5-3.9 5.4-4 5 2.2-.2 3.1-1.3 9.6-2.4 14.3-2.5 11.1-2.4 12.3.6 14.3 4.3 2.8 4.6 4.7 1.8 10.8-3.2 7.2-6.8 9-16.7 8.6l-6.8-.3-1.9-7.5c-2.4-9.6-6.6-13.9-15.5-15.8l-5.9-1.2-5.4-9.6-5.4-9.7 1.7-4.6c1-2.5 2-8 2.3-12.3l.6-7.6-3.1-1.6c-2.6-1.4-4.2-1.4-11.2-.4s-8.4 1.5-10.5 4c-2 2.3-2.5 4.1-2.5 8.2 0 4.9-.3 5.5-4.7 9.8s-5.7 4.9-16.6 7.8c-6.6 1.7-12.5 2.9-13.3 2.6s-1.4-2-1.4-4.2-1-5.3-2.7-8c-2.4-3.8-3.3-4.4-6.3-4.4q-3.5 0-8.6 3.5l-5.2 3.6-3.7-2.6c-2.1-1.4-4.3-2.5-5-2.5s-1.8-.7-2.5-1.5c-1.4-1.7-5.6-2-6.5-.5-.4.6-3.3 2.4-6.6 4a22 22 0 0 0-5.9 3.8c0 1.8 4.8 5.2 7.2 5.2 3 0 3.8 1.5 3.8 7.6 0 5.9-3.3 10.9-9.1 13.9s-7.6 2-8.7-4.5c-.7-3.9-1.1-4.5-4-5.4-3.1-.9-3.6-.6-7.6 3.3-3.4 3.4-4.2 4.7-3.8 7 .3 2.6-.2 3.2-4.2 5.6-2.6 1.5-4.5 3.2-4.3 3.9s2.5 1.3 5.2 1.6c3.7.4 5.2 1.1 6.8 3.2 2 2.7 2 2.8.2 8.8l-1.8 6h-7.2c-6 0-7.6.4-10.5 2.5a34 34 0 0 1-6.7 3.6c-3.9 1.2-4.2 3.1-.9 4.8 4.6 2.5 4.8 5.1.8 11.5l-3.7 5.9-6.5-.6c-8.4-.7-9.2-1.1-11.5-5.3-1.1-2-3.5-4.7-5.5-6l-3.5-2.5-2.5 2.9a31 31 0 0 0-3.5 4.7c-1 1.6-1.4 1.5-6.1-1.4s-5.8-3.1-14-3.1q-8.9.2-11.4 1.5a18 18 0 0 1-6.7 1.5c-3.5 0-4.5-.5-6.3-2.9-1.8-2.7-2.3-2.9-5-2-4.8 1.7-7.3 13.2-5.4 24.9l.6 3.6 5.7-5.9 5.7-5.9 5.3 1.1c2.8.6 7.5 1.1 10.4 1.1s8.2.7 11.9 1.6c6 1.5 6.8 1.9 7.3 4.5 1 4.6-.5 10.8-3.5 14.2-2 2.4-2.9 4.7-3.3 9.2-.8 7.4-5.5 22-8.3 26a83 83 0 0 0-5.7 15.5l-4.5 15.1c-1.1 2.9-5.5 4.9-10.5 4.9a48 48 0 0 0-11.8 4c-8.7 3.9-9.1 4-20.3 4-6.6 0-11.7-.4-12.1-1q-1.9-3-3 3c-.4 2.2-1.1 4.2-1.6 4.5s-3-.6-5.6-2-5.6-2.5-6.6-2.5c-1.6 0-1.6.2-.3 2.8.8 1.6 2.2 3.4 3 4.1q1.6 1.3 1.6 7c0 5.2-.3 5.8-2.8 7.3-3.9 2.3-6.8 1.3-9.6-3.4a26 26 0 0 0-5.6-6.2c-3.3-2.2-3.4-2.4-3.1-8.5l.2-6.3-4.3.7c-6.3 1.1-7.5 2-8.2 6.4l-.6 4.1-6.3-.7c-4.7-.4-7.1-1.3-9.9-3.5-3.1-2.5-4.2-2.8-7.7-2.2-2.3.4-4.4 1.1-4.7 1.6-1.2 1.9.8 6.1 4.9 10.2 4 3.9 5 4.4 12.2 5.5 14.7 2.4 18.3 8 18.7 28.8l.3 12.8-3.7 6.6c-4 7-14.8 18.1-23.1 23.6a46 46 0 0 1-14.5 5.4c-5.3 1.2-11.3 3-13.3 4a64 64 0 0 1-25.1 3.9c-9.2 0-15.3-1.7-22.3-6.2-3.1-2-3.5-2.8-3.5-6.5 0-4-.2-4.3-4.6-6.2l-4.6-2.1.4-4.7.3-4.7-6.2-1.5c-3.4-.9-6.5-1.9-6.9-2.4s-1.9-.7-3.3-.7h-2.6l.3 8.7.4 8.8-6.7 3.9c-8.8 5.1-11 9.2-9.5 17.3 1.7 9.5 1.4 10.9-5.5 22.8-6.4 10.9-6.7 11.3-12.2 13.7-5.2 2.3-6.1 2.4-12.2 1.3a53 53 0 0 1-24.8-12.8l-5.3-4.9-5.5 2.1a35 35 0 0 1-11.7 2.1c-5.3 0-6.6.4-10.7 3.4a55 55 0 0 0-8.6 8.7c-5.4 6.9-18.8 16.9-22.9 16.9-1.7 0-4.7.3-6.6.6-3.1.5-3.7.3-4.7-1.9q-1.1-2.5-6.1-4.1a21 21 0 0 1-7.2-4.1c-3.6-3.9-10.5-3.2-9.4.9.3 1.3-.4 6.3-1.6 11.3-1.6 7.1-2.7 9.6-5.1 11.8-1.6 1.6-2.9 3.7-2.9 4.6 0 1.6 1.2 1.9 9.3 2.1 9 .3 9.2.4 9.5 2.8a10 10 0 0 0 2.3 4.6c1.7 1.8 2.8 2 10.4 1.6 6.8-.4 8.5-.2 8.5.9 0 .8.9 2 2.1 2.7 1.1.7 4.7 6.8 7.9 13.5l5.8 12.2 2.1 20.3c1.8 17.2 2 21.4 1 28.5q-1.2 8.2-.2 14.2c.8 5.4.6 6.6-1.8 12.5-7 17.2-9.5 21.4-14.7 25.3l-5 3.8-.4 8.7c-.3 8.3-.5 9-4.5 14.8a57 57 0 0 1-21.8 19l-7.4 3.9-5.2-1.8a22 22 0 0 0-11.2-1.2 24 24 0 0 1-8.4-.2c-1.3-.5-3.7-3.8-6-8.3-3.2-6.3-4.3-7.6-6.8-8.1-3.7-.7-6.5 1.4-6.5 4.9 0 2.4-.2 2.5-5.2 1.8-2.9-.3-7.2-.6-9.5-.6-4.1 0-4.4-.2-6.8-5.1q-2.6-5-1.9-7.1c.7-2.4-.1-2-6.2 2.9-3 2.4-5.1 3.3-7.8 3.3-4.1 0-4.1.1-2.1 3.9 1.4 2.7 1.2 3.3-3 12.1q-7.8 15.7-4.3 22.6a22 22 0 0 1 1.7 14.7c-1.2 4.5.3 7.9 6.5 14.1 2.3 2.4 5.5 6.8 7.1 9.9 2.7 5.1 3.1 5.4 5.3 4.6 1.4-.5 2.6-.8 2.7-.7l2.4 4c2 3.3 2.5 3.7 5.3 3.1 3.5-.7 5.8 1.4 5.8 5.3 0 1.2 2.1 6.4 4.6 11.5 4.3 8.7 4.7 9.2 6 7.4.8-1.1 1.6-2.9 1.8-4 1.5-8 2.2-9.8 4.3-10.6 1.8-.7 2.6-.2 4.3 2.7 1.2 1.8 2.7 3.4 3.3 3.4s.3.6-.7 1.3c-1.8 1.3-1.7 1.5.2 5.4 1.2 2.2 3.2 4.7 4.6 5.7C69 866 69 866 69 863c0-1.8.6-3.3 1.5-3.6 2.4-1 7.1 1.5 8.4 4.3 1.2 2.6 1.2 2.6 2.7.5.8-1.1 3-2.6 4.9-3.2s3.7-2 4-3.1c1-3 6.8-2.6 8.3.5.8 1.8 2.6 2.9 6.7 4 7 2.1 11.4 1 18.1-4.6 8.2-6.7 10.4-7 13.4-1.3 2 3.7 5.8 3 8.7-1.5 1.2-1.9 4.8-6.5 8-10.3 4.9-5.7 6.2-6.7 9-6.7 3.1 0 3.3.2 3.3 3.7 0 5.5 1.2 7 4.7 5.7 2.1-.7 3-1.9 3.7-4.7.9-3.5 1.2-3.7 4.8-3.7 5.5 0 9.8 4.7 9.8 10.7 0 4 .2 4.3 3.8 5.2 2 .6 5.3 1.1 7.3 1.1s5.1.3 6.8.6c2.9.6 3.1.9 3.1 5.1 0 4.4.1 4.5 2.9 4.1 2.3-.3 3.2.1 4.6 2.4 1.8 3.1 2.9 3.4 6.5 1.3 1.4-.8 4.3-1.5 6.5-1.5s5.1-.7 6.5-1.5c4.2-2.4 9.2-1.8 13.8 1.5 2.3 1.7 4.2 3.4 4.2 4 0 .5 1.4 1.7 3.2 2.6 2.7 1.4 3.9 1.5 8.3.4s5.6-1 8.1.3c4.2 2.2 5.4 3.8 6.2 8.8.7 4.1 1.1 4.6 6.7 7.6 7.1 3.8 7.9 4 6.5 1.2q-3.3-6 4.6-3c3.7 1.4 5.5 1.6 8.3.9 6.9-1.9 17 3.5 21.2 11.5l2 3.8 3.2-1.8q3.2-2 3.7-4.8l.5-3 2.4 3.5 2.9 4q.4.3 1.6-1.3a33 33 0 0 1 16-7.7c4.9 0 5.6 2.7 1.7 6.2q-3.2 2.8-3.1 5.8c0 2.7.6 3.4 4.2 5 2.4 1.1 6.2 2 8.5 2 3.8 0 4.5-.4 8.2-5.2q4.3-5.2 3.1-6.2c-1.6-1.6-1.2-2.4 1.8-3.9q7-3.6 15.8-1.6c5.2 1.2 6.7 2.3 9.9 7.2.9 1.4 1.9 1.2 8-1.8 5.9-2.9 7.3-3.3 9.3-2.3q2.2 1.1 2.3 4.2c0 1.7.6 4.6 1.3 6.5l1.2 3.4 2-2.7c1.5-2.1 3.2-2.8 8.3-3.7 3.5-.5 7.3-1.5 8.4-2.1 2.6-1.4 8-.4 11.6 2.1 2.8 2 2.8 2 4.6.1 3-3.3 5.9-2.5 10.2 2.7 2.1 2.7 4.4 6 5 7.4.7 1.6 3 3.5 5.7 4.9 4 1.9 5 2 8.3 1 5.7-1.8 6-2.6 2.7-6.1-2.4-2.5-2.9-3.9-2.9-8 0-3.8-.5-5.4-1.9-6.5s-2-2.7-2.1-6.4l-.2-5 3.4 2.1c2.9 1.8 4.3 2.1 9.1 1.4 3.1-.4 10.2-1 15.7-1.5s11-1.1 12.3-1.5l2.2-.7-2.5-3.4-2.5-3.3 2.6-2 2.6-2 3.3 3.4c3.4 3.7 5.5 4.5 5.5 2.1 0-.7.9-3.5 2.1-6.1l2.1-4.7-2.1-2.2c-2.2-2.3-2.7-6.1-1.1-8.6q.9-1.5 4.6-1.1l3.6.3-.7-4.4a42 42 0 0 0-2.6-8.6l-1.8-4.3 2.2-.8c2.2-.8 3.2-.2 13.3 8.2 3 2.6 3.3 3.4 3.6 9 .2 4.9.6 6.2 2.1 6.5s1.7-.5 1.7-5.7q0-6.2 1.3-6.1c7.5.1 25.5 2.3 28.3 3.5q6.7 2.9 11.4-2.5c4.7-5.4 6.1-4.4 8.6-2.5 1.9 1.5 1.9 1.5-.1 3-1.9 1.5-1.9 1.6.5 3.2 1.4 1 3.6 2.8 4.9 4.1q2.5 2.5 3.4 1.3c2.9-2.9 9.1-.1 11.2 5.1 1.5 3.8 1.5 3.9-1.1 6.1l-2.6 2.2 2.1 8.4q3.8 15.4 9.6 18c4.9 2.3 6.4 4.1 7.1 8.8.3 2.4 1.7 5.7 3 7.3 1.8 2 2.4 4 2.4 7.4 0 2.5.2 4.6.4 4.6 2.7 0 5.5-2.4 6.1-5.2q.9-3.3 5.1-7.1c2.4-2.1 4.4-4.5 4.4-5.2s1.6-2.5 3.6-4c3.4-2.6 3.5-2.7 1.9-5.2-1.6-2.3-1.6-2.8 0-6.9q2.6-7.2 4-.4c.7 3.3.9 3.5 4.6 4.3 2.1.5 2.8.2 3.8-1.9 1.1-2.5 1.2-2.5 3.6-1 2.5 1.6 2.5 1.6 3.1-2.3.5-3 1.2-4.1 2.7-4.3 3.8-.6 2.9-2.8-3.7-9.6-5.4-5.6-6.7-7.7-7.6-11.8-2-9.2 2.4-13.9 6.9-7.5a25 25 0 0 0 5.6 5.1c1.9 1.1 3.7 3 4 4q.5 2 3.6 2c2.4 0 3.2-.6 4-3 1.5-4 3.9-3.9 3.9.1 0 2.7.2 3 1.5 1.9 1.9-1.6 2-10.4.1-15.7q-1.4-4-.4-5.6c1.3-2.5 5.5-2.1 6.9.5 2.1 4.1 7 9.8 8.4 9.8.7 0 1.6-1.3 2-3s2.3-4.6 4.4-6.7c2.4-2.4 4.1-5.2 4.5-7.5.6-3 1.2-3.9 4.1-4.8 1.9-.6 4.6-2.5 6-4.2 2.5-3 2.8-3 6.5-1.9 2.2.6 4.6 2.1 5.5 3.3 1.2 1.8 2.3 2.2 5.6 1.9 3.5-.2 4.6.2 7.5 3 2.8 2.7 3.8 3.1 6.5 2.5 1.7-.3 3.7-1.3 4.3-2.2q1.3-1.6 7.4-2.1l6.3-.6-.7 2.9a45 45 0 0 1-7.9 17.3c-3 3.3-3.2 4-2.8 8.7a29 29 0 0 1-5.4 18.8c-2.3 2.7-2.3 2.9-.7 4.7 1.4 1.5 2.5 1.8 5.2 1.3 3.4-.7 3.5-.6 3 2.2-.3 1.6-.8 3.7-1.3 4.6q-.8 1.8 1.8 2.9c1.9.9 2.7 2.2 3.2 5.1.6 3.1 1 3.8 2.3 3.3 1-.4 4-1.1 6.7-1.7 4.5-.9 5.2-1.4 6.9-5 1.6-3.3 2.2-3.9 4.3-3.5q2.6.5 1.9-.9l-1.1-2.6c-.4-1.2 9.1-7.8 11.3-7.8.5 0 2.3 1.5 4 3.4s4.4 4.2 6.1 5l3.1 1.7v-5.6c0-3.1-.5-6.5-1-7.6-.8-1.4-.6-2.7.6-5.1 1-1.9 1.9-6.6 2.2-11.1.4-7.4.6-7.8 2.6-7.2l5.3 1.2q3.2.6 3.9 2.7c.3 1.1 1.2 2.8 1.9 3.6s1.5 2.4 1.8 3.5c.2 1.1.5-.4.6-3.3.1-3.2-.5-6.2-1.4-7.6-1.4-2.1-1.3-2.6 1-6.1 2.5-3.6 2.5-3.8.8-5.9-1-1.1-3.1-3.3-4.8-4.7-3-2.7-3-2.8-2.7-11.9.3-10.7-.3-12.1-7.4-17.2-2.5-1.8-5.5-5-6.5-7L843 812l3.4-3.8c3.2-3.5 3.4-4 1.9-5.4-1.2-1.2-2.2-1.4-4-.7-3.4 1.3-4.3.4-4.3-4.2 0-2.2-.6-5-1.4-6.2s-1.8-5.3-2.1-9l-.7-6.8-4.5-2.1c-2.5-1.2-6-3.6-7.9-5.3q-6.9-6.4-.4-15.3c1.7-2.3 3.2-4.2 3.4-4.2s2.4 1.1 4.9 2.5l4.5 2.6-.4-4.3c-.3-2.4-1-6.6-1.6-9.5a58 58 0 0 1 2.4-27c2-5.1 2.3-8.2 2.8-27 .3-11.6.7-21.3 1-21.5 2-1.6 9.6-2.9 14.8-2.6 3.4.1 6.2 0 6.2-.4s-1.4-2.3-3.1-4.3c-3-3.4-3.1-3.9-2.6-9.3.5-4.8.3-6.4-1.4-9.2-3.4-5.7-8-9.9-15.4-14.2-10.8-6.3-11.5-7.1-11.5-14 0-4.6.3-5.8 1.6-5.8.8 0 7.9-1.8 15.6-4.1 17.9-5.1 23.1-5.8 25.8-3.4 1.1 1 2.7 4.2 3.6 7.2.8 2.9 1.7 5.3 1.8 5.3l5-1.6c4.1-1.4 4.7-2 4.2-3.8l-2.3-8.8-1.7-6.8 4.4-4.5q4.4-4.4 3.4-5.5-1-.9-6.9 4.4a68 68 0 0 1-9.4 7.1l-3.4 1.7-3.1-3.5c-5-5.7-6.8-6.2-12.6-3.2-4.1 2.1-5.1 2.3-5.6 1.1-.4-1-1.4-1.2-4.2-.5l-4.4.9c-.4 0-1.6-2.1-2.7-4.6-1.9-4.1-1.9-4.8-.6-7.4 1.3-2.5 1.3-3.3-.1-6.6-1.9-4.7-1.4-11.7 1.1-14.4 2.3-2.5 3.2-2.5 4 0 .5 1.6 1.5 2 5.4 2 4.7 0 4.8.1 9.5 6.5 4.3 5.9 8.6 9.8 8.6 7.8l-1.5-6.3-1.5-5.8q0-.2 1.2-.2c1.2 0 3.4 2.1 6 4.6 4.5 4.5 4.8 4.7 7.7 3.4 1.7-.7 3.1-1.7 3.1-2.3s-2.5-4.6-5.5-9.1a46 46 0 0 1-7.9-18.1 130 130 0 0 0-4.6-14.8c-1.9-4.3-2.4-4.7-5.5-4.7-3 0-3.5-.3-3.5-2.3 0-1.3-1.4-3.6-3.1-5.3-2.5-2.4-3.9-2.9-7.8-2.9-4.6 0-4.9-.2-10.4-6.5l-5.7-6.5.1-8a50 50 0 0 1 7.3-29.9c3.7-5.9 5-9.2 5.8-14.4 2.1-13.1 2.3-13.6 11.2-22.6 4.6-4.6 9.2-8.7 10.4-9 1.1-.4 3.2-2.4 4.7-4.6s4.4-5.2 6.4-6.7c3.2-2.5 4.6-2.9 14.1-3.4 5.8-.3 11.9-1.1 13.5-1.7 1.7-.6 8.4-2.3 15-3.8 6.6-1.4 14.4-3.4 17.3-4.5a39 39 0 0 1 23.7.1c4.3 1.1 9.5 2 11.6 2 3.2 0 3.9-.4 5.1-3 .7-1.7 2.2-3.3 3.3-3.6 9.4-2.6 11.7-6.2 15.9-24.5.5-2.3.1-2.8-2.7-4-1.7-.7-4.4-2.1-5.9-3.1-2-1.4-4.5-1.8-11.6-1.8h-9l-.3-3.8q-.8-8 1.6-8.2c.8 0 2.1-1.5 3-3.3q1.5-3.3 5-4.6c3.9-1.4 7.5-5.4 7.5-8.3q0-1.9 3.3-3.3c1.7-.7 4.3-2.5 5.6-3.9 2.2-2.3 2.3-3.1 1.8-9.3a23 23 0 0 0-1.7-7.7c-2.1-2.1-1-5.8 2.7-9.2 3.2-3 3.7-4 3.4-7.2-.1-2-.8-4.6-1.5-5.7a47 47 0 0 1-3.6-12c0-.3 3-.2 6.7.1 5.4.6 7.1 1.2 9 3.3a10 10 0 0 1 2.3 5.3c0 3.3 2.5 3.8 3.5.7.7-2 .9-2 4.4 1.4 4.4 4.2 7.5 5.5 6.7 2.9l-1.1-4.2c-.4-1.4-1.7-3.5-2.8-4.7-2-2.2-2-2.7-.8-13.3 1.4-12.6 3-19.1 6.1-25.5 1.4-2.8 2-5.6 1.7-7.3-2.6-14-2.6-14.4-1.1-18 1.9-4.6 1.1-8.4-2.7-12.7a27 27 0 0 1-4.4-7.5c-1.3-3.7-1.3-4.6.1-7.8l1.5-3.7-3.5-3q-9.4-8-2-19.6l2.4-3.9-3.4-6.8q-6.6-13.2-4.7-17c.8-1.5.5-2.4-1.7-4.5-2.4-2.3-2.9-2.4-4.6-1.1-3.4 2.4-7 1.8-9-1.8l-1.9-3.1-1.6 4.1c-2 5-4.6 7.1-8.8 7.2-2.5 0-3.6.7-5 3-1.5 2.5-2.3 3-5.8 3-2.2 0-5.4-.8-7-1.8a60 60 0 0 0-16.7-5.7c-3.6-.6-3.8-.8-3.8-4.4 0-2.7-.7-4.4-2.5-6.1-1.4-1.3-2.5-2.8-2.5-3.3s-.9-2.2-2-3.8c-2-2.6-2-3-.5-5.3 1.6-2.4 1.5-2.5-2.2-5-4.3-3-5.7-3.1-9.7-1"/></svg>