<svg xmlns="http://www.w3.org/2000/svg" width="1365.333" height="1365.333" viewBox="0 0 1024 1024"><path d="M583 4.2a1334 1334 0 0 0-41.9 4.4c-.9.8 2.1 26.2 3.9 33.4 1 4.1 2.1 11.1 2.5 15.5l1.1 12.6.6 4.7-14.9.6-25.5 1.2c-10.1.5-10.6.5-11.3-1.5-.8-2.7-4.5-2.8-4.5-.2 0 1.8-1.4 1.9-23.7 2.5-13.1.3-28.2.9-33.5 1.2l-9.7.6.5-6.9c.4-5.2.1-7.3-1-8.7-1.5-1.8-1.7-1.8-3.5-.2-1.6 1.4-1.8 2.7-1.3 8.2.4 4.9.1 6.8-1.1 8.2-1.3 1.5-1.4 3.5-.5 15.2.5 7.4 1.1 13.7 1.4 13.9s24-.6 52.9-1.9 52.7-2.1 53-1.8c.3.2-2.2 10.1-5.5 21.9-6.3 22.7-6.2 21.6-1.4 24.5 1.7 1 1.4 1.9-4.3 10.5-3.4 5.2-7.4 12.1-8.8 15.4s-5.4 10.2-8.7 15.2c-5.3 8.1-6.3 9.1-7.9 8.2q-2-1-1.9-4.2c0-2.7-.6-3.7-3.4-5.3-1.8-1-12.4-12.5-23.6-25.4l-21-24.3a385 385 0 0 0-37.2-9.7q-1.6 0-2.8 3.6c-.7 1.9-1 3.7-.8 3.8.1.2 7.5 2.1 16.3 4.2 15.9 3.8 16 3.9 20.3 8.3 2.3 2.5 4.2 5.1 4.2 5.8 0 1.7-4.3 8.3-5.4 8.3-.4 0-3.5-.7-6.8-1.6-3.3-.8-7.2-1.2-8.8-.9q-2.7.6-10.7-2.3c-4.3-1.6-13.5-4.5-20.4-6.5l-12.4-3.5-40.8-.6c-22.4-.3-41.5-1-42.5-1.4-.9-.5-6.3-.7-11.9-.4l-10.3.4v98.1l5.2-.7c2.8-.4 5.4-.9 5.7-1.1s.2-19.1-.3-42-.6-41.8-.3-42.1 2.6-.2 5.1.1l4.6.7v8.4c0 7.6.2 8.4 1.9 8.4 2.7 0 2.9-.6 3.7-9.8l.7-8.2h9.6l.3 8.2c.3 8.1.4 8.3 2.8 8.3 2.5 0 2.5-.2 2.8-8.8l.3-8.7h4.8c5.8 0 6.1.5 6.1 10.1v6.9h6v-17h4.4c5.3 0 5.6.6 5.6 10.1v6.9h6v-16h5.4c6.3 0 6-.5 7.1 13.3.6 7.2.9 7.8 2.7 7.5 1.7-.2 2.7-2.1 4.9-9.3 2.6-8.3 2.7-9.1 1.2-10.3-1.6-1.1-1.6-1.4.2-3.2 2-1.9 2.1-1.9 15.5 1.4a284 284 0 0 0 21.5 4.5c7.5 1.2 17.5 5.3 17.5 7.2 0 .4-2.1 2.2-4.6 4a17 17 0 0 0-6.5 7.6l-1.9 4.5 7.2 6.8c7.3 6.9 9.9 8.1 13.7 6.1q1.8-1.2 5.1-12.5l3.4-11.5 4.5 4.1c15 13.6 14.1 12.3 13.8 17.9l-.2 5.1 4.5 1.8c5.4 2.1 6.2 4.6 2.6 8.5-2.3 2.5-2.6 3.6-2.6 10.7 0 11.7-.1 11.8-11.8 11.8-5.3 0-11.5.5-13.6 1-4.5 1-9 5.3-12.9 12.1-2.1 3.8-2.4 4.9-1.4 6.2 1.1 1.5 1.6 1.5 5.6-.3q7-3.1 7.1-1.3 0 1 .6 2.9c.4 1.6-.6 2.8-5 5.7L423 267l1.5 3.5 3.1 7.2c.9 2.1 3 5.7 4.6 7.9l3 4.1-2.6 14.1c-1.4 7.7-2.6 14.8-2.6 15.8a71 71 0 0 0 11.4 18.4c.4 0 3.5-1.6 6.8-3.6q5.8-3.5 7.6-2.9c1.4.6.2 2.1-6.2 8-6.7 6.3-7.8 7.7-7.4 9.9.3 1.5.1 2.9-.4 3.2s-.8 2-.6 3.6l.3 3-18.7 6.5-18.7 6.5 2.9 7.6c8.1 22 12.2 32.7 12.4 32.9.7.8 13.1-4.7 12.9-5.6l-6.4-17.7c-3.3-9.1-5.9-16.7-5.7-16.9a72 72 0 0 1 16-5.7c.4.4 3.6 8.3 7.2 17.7l6.5 17 4-.2 4-.2 1.8 5.5c1.6 5.2 1.6 5.5-.1 6.7s-1.3 2.7 6.3 23.9c4.4 12.4 8.1 23 8.1 23.6 0 .5-7.1 3.6-15.7 6.7l-19 7.1-3.1 1.2 2.3 6.4 3.4 9 1 2.8 3.5-2.1 3.4-2-1.5-4.5c-.8-2.5-1.4-4.6-1.2-4.8a163 163 0 0 1 16.4-5.3l3 7.7a68 68 0 0 0 3.5 8.2c.3.4 2.9.1 5.8-.7 4-1 5.4-1.1 5.7-.2l3.5 12.3c0 .1-7.7 2.8-17.1 5.9-13.8 4.6-16.9 6-16.4 7.3l2.7 10.1a784 784 0 0 0 16 45c11.7 30.9 13.6 36.6 12.3 37.3q-1.4 1-1.5 2.3c0 2.2-4.1 4.7-5.6 3.4-1.8-1.5-8.6 3.9-7.9 6.2.3.8-.3 2.3-1.3 3.3-1.7 1.4-2.1 1.5-3.1.2-1.1-1.3-1.9-1.1-6.2 1.5-4.1 2.6-4.7 3.4-3.9 4.9.8 1.4.4 2.1-1.5 3.4a10 10 0 0 1-4.5 1.6c-1.2 0-3.8 1.1-5.8 2.5-2.9 2-3.9 2.2-4.8 1.2-1.9-2-31.3-41.5-79.9-107.2a1206 1206 0 0 1-46.5-65q-.5-3-2.8-3.3c-3.8-.6-5.2 1.5-5.2 7.5v5.5l48.2 64.1c26.5 35.3 59.4 78.9 73.2 96.9 25 32.6 25.1 32.7 29.1 33 3.3.2 4 .7 4 2.4a30 30 0 0 0 6.1 9c3.4 3.8 7.3 9.2 8.7 12 1.4 2.7 3.3 5.6 4.1 6.3.9.8 1.6 2.8 1.6 4.7 0 1.8.5 3.6 1 3.9s1 2 1 3.7c0 1.6.9 4.1 2 5.5s2 3.4 2 4.5 1.3 2.5 3.5 3.5c3.5 1.6 3.5 1.6 6.3-1 1.5-1.5 3.5-2.7 4.4-2.7.8 0 2.1-.7 2.8-1.5 1.8-2.2 5-1.9 5 .4 0 3.4 1.1 5 4.4 6.1 4.6 1.5 6.3 6.4 4.1 11.6-2.9 6.9-4.1 7.6-11.5 6.9-4-.4-7.6-1.4-9.3-2.7-1.6-1.1-3.5-1.7-4.5-1.3-1.4.5-.5 1.8 4.5 6.6 5.8 5.6 6.4 5.9 11 5.9 6.8 0 8.8 2.2 7.9 8.5-.7 4.3-.5 4.8 3.5 9.5 3.9 4.6 4.6 5 8.6 5 3.5 0 4.3.3 4.3 1.9s1 2 4.5 2.5c3.3.5 5 1.4 6.5 3.6 2.7 3.8 2.7 10.6-.1 13.6-1.9 2-2 2.6-.9 9.5.6 4.1 1.4 10 1.7 13.3.4 4.6 1 6 2.4 6.3q1.8.6 1.9 2.9c0 1.4 1 3 2.5 4 1.4.9 2.5 2.4 2.5 3.3s.9 2.7 1.9 4.1c1.7 2.2 1.8 2.7.5 5.1-2 3.9.2 20.2 2.6 19.6q1.7-.6 3 3.2c.7 2 2.1 4.2 3.1 4.9 1.1.7 1.9 1.9 1.9 2.6s1.2 3.1 2.6 5.2c5.1 7.5 4.8 9.7-3.2 21.8a34 34 0 0 0-3.9 7.7 7 7 0 0 1-3.1 3.9 4 4 0 0 0-2.4 4c0 1.5-.5 4.2-1.1 5.9q-1 3.2-.2 4.2 1.1 1.4-.5 9.2c-1 6.1-1.1 9.2-.4 12.2.6 2.2.8 5.2.5 6.6-.3 1.6.6 5.3 2.1 9.1 1.4 3.5 2.6 7.8 2.6 9.4 0 2.2.8 3.3 3 4.6 1.7.9 4 3.7 5.2 6.3 1.4 2.8 3.1 4.8 4.5 5.1 1.2.3 2.5 1.5 2.9 2.6.3 1 2.6 4.3 5.2 7.1 3.5 4 5.5 5.4 8.4 5.9 2.2.4 7.2 2.3 11.3 4.3 4 1.9 8 3.5 8.8 3.5.7 0 2.2.9 3.2 2q1.8 2 5.6 2c2.1 0 5.3.9 7.1 2 3.3 2 10.2 2.7 12.5 1.2.6-.4 1.4-2.5 1.8-4.7 1.3-8.1 1.5-8.5 3.8-8.5 1.2-.1 3.3-.7 4.7-1.5s3.9-1.4 5.7-1.5c2.9 0 3.3-.4 4.4-4 1.1-3.7 1-4.2-.9-6.3-5.2-5.5-4.9-24.3.4-30.6 1.3-1.6 2.4-3.7 2.4-4.7 0-1.1 1.2-4.6 2.6-7.9l3.9-9.7c1.8-4.9 6-10.2 10.8-13.5 3.6-2.5 3.8-2.9 3.7-8.2a37 37 0 0 1 1.9-15.9c1-1.9.9-2.8-.8-5.6-2.5-4-2.7-8.6-.5-12.7 1.1-2.3 1.3-3.8.6-5.8-.8-2.2-.5-3.5 1.4-6.7 1.3-2.1 2.4-5.1 2.4-6.5s.7-3.2 1.5-3.9 1.7-2.8 2-4.9c1-6.1 2.1-7.8 5.5-8.5 2.8-.5 3.2-.9 2.8-3.1q-.6-2.5 1.2-3a61 61 0 0 0 14.8-14.6l2.2-3.7-4.5-4c-3.5-3.1-4.5-4.6-4.5-7.1 0-1.7-.9-4.5-1.9-6.2q-2-3.3-1.4-5.9c.3-1.5-.2-4-1-5.6s-1.9-5.7-2.6-9.1c-1.2-6.4-.6-9.3 2.4-11.8a24 24 0 0 0 1.9-9c.3-4.3 1.1-8.4 1.6-8.9s1-2.9 1-5.2q0-4.3 2.4-7.1c2-2.4 2.1-3 1-4.1-2.4-2.2-1.7-6.9 1.5-9.8a40 40 0 0 0 8.1-13.9 194 194 0 0 0 15-36.4c.7-2.7.5-4-.9-6-2-2.7-2.8-7.3-3.4-18.2l-.4-6.5 3.8-2.2c2.9-1.7 3.9-2.9 3.9-4.8 0-1.4.7-3.9 1.6-5.6s1.4-4.2 1.1-5.7c-1.9-9.3-2.7-11.5-4.1-12.3a61 61 0 0 1-13.6-21c-3.8-9.8-4.8-18.3-2.7-22.4 1.3-2.6 1.3-3.2.1-4.9-.8-1.1-1.3-2.8-1-3.7q.3-1.8-2-3.5l-2.4-1.8 2.5-16.8A230 230 0 0 0 715 521c0-7.4.4-10 1.5-11 .8-.7 1.5-2.7 1.5-4.4s.7-3.9 1.5-5q1.5-1.8.8-6.6c-.5-4-.2-5.3 1.6-7.6 1.1-1.5 2.1-3.1 2.1-3.6s.9-2.1 2-3.7c1.7-2.2 1.9-3.2 1.1-5.3-.5-1.4-1.7-2.8-2.5-3.1q-1.5-.8-1.6-2.8c0-1.8.4-2 2.6-1.5 2.7.7 2.6-.1-.2-3.5-1.2-1.3-1-1.9 1.5-4.3 2.2-2.2 2.8-3.3 2.2-4.9q-.8-2 1.1-3.9c1-1 1.8-2.9 1.8-4.2 0-1.9-.7-2.5-3.5-3-4.1-.8-4.2-1.7-2-13.6 1.4-7.5 1.4-7.5-1.1-9.7-3.2-3-3.2-8.5.1-13.8 3.8-6.2 3-14.6-2.3-22.9-2.3-3.7-2.5-5-2.3-12.6.1-4.7 1.3-15.3 2.7-23.5 2.1-12.3 2.9-15.4 4.9-17.5a69 69 0 0 0 6.6-12l4.2-9.5.5-19c.8-30.7.7-32.4-1.7-40.3-2-6.6-2.2-9.4-2.2-29.6 0-28.4 3.8-60.2 8.2-68.8 1.6-3.2 1.9-5.9 1.9-19 .1-14.5.2-15.5 2.5-19.3 2.3-3.7 2.5-5 2.5-15.7 0-6.6.7-14.8 1.5-19 1.7-8.1 1.1-27.6-.9-30.2a1141 1141 0 0 0-60.2-24C648 6 631.3 0 628.4.1 626.3.2 605.8 2 583 4.2"/></svg>