<svg xmlns="http://www.w3.org/2000/svg" width="1365.333" height="1365.333" viewBox="0 0 1024 1024"><path d="M235 155.5c-1.4.8-5.8 2.2-9.7 3.1l-7.3 1.6v6.4c0 4.7.7 8.1 2.6 12.7 2.4 5.6 2.8 8.3 4 27.7 2.2 37.7 2.2 39.6-1 46.9a57 57 0 0 1-5 9.5 48 48 0 0 0-4.5 8.3L212 277l3.1 6.2c1.8 3.5 3.3 7.4 3.4 8.8s1 6.4 2 11.2c1.4 6.7 2.2 8.7 3.6 9.1s1.9 1.4 1.9 3.8c0 1.8 1.9 11.9 4.2 22.4a102 102 0 0 1 3.4 21.8c-.3 1.4-2.9 5.5-5.6 9.1s-6.2 8.9-7.6 11.9a18 18 0 0 1-6.4 7.7 16 16 0 0 0-5.4 5.7c-.9 1.8-3.6 4.8-6.1 6.5s-4.5 3.5-4.5 4 2.5 1.5 5.5 2.3c4.1 1.2 5.5 2.1 5.5 3.5 0 1.7-.2 1.7-2.8.4-1.6-.7-3.9-1.5-5.2-1.6-2.4-.3-2.5 0-3.3 7.2-.7 6-1.6 8.9-4.8 14.5-2.2 3.8-4.8 7.9-5.7 9-3 3.5-8.9 7.5-14.4 9.6-5 1.9-5.6 2.5-9.3 9.5a33 33 0 0 1-13.1 14.2 6 6 0 0 0-2.8 3.7q-.8 2.3-2 2.5c-2.4 0-7.6 5-7.6 7.4q0 2.1-3.9 4.5l-3.9 2.5-.7 11.4-.8 11.4 4.7 4.7q8.4 8.6 1.4 7.5c-2.9-.5-3.8 0-7.4 3.8-3 3-4.7 6-5.9 10.2-.9 3.2-3.3 8.2-5.4 11a26 26 0 0 0-4.5 9.1c-.4 2.2-1.6 7.2-2.8 11.1l-2.2 7.2-5 .6c-6.1.7-5.9.4-9.1 12.3a110 110 0 0 1-21 15.6c-2.9 1.5-6 4.1-7.5 6.3a95 95 0 0 1-7.9 9.6c-6 6.6-6 5.9-1.2 18.3l3.1 8.4q-.2.3-1.9-.2c-2.2-.5-3.1 1.6-3.1 7.5 0 3-.6 4.2-3.3 6.2a14 14 0 0 1-4.2 2.6c-2.1 0-8.2 6.9-10 11.3-1.9 4.7-2.5 5.2-7.5 6.9-6.4 2.2-10.3 5.4-8.1 6.7 1.9 1.2 1 7.2-2.4 15.1-1.8 4.1-2.7 8-2.6 10.8 0 2.3-.3 4.2-.8 4.2s-1.5 1.7-2.2 3.7a35 35 0 0 1-3.5 7.3 15 15 0 0 0-2.4 4.5c0 .5-1.4 3-3 5.4-3.3 4.9-3.8 8.7-1.5 13.1q1.5 3.2 4.3 3c2.2 0 3.5 1.2 7.3 6.8 4.5 6.4 5 6.8 10.9 8.5l6.3 1.8 2.6-2.5c1.5-1.5 3.7-2.6 4.9-2.6 3.6 0 13.2-3.3 13.2-4.6 0-.7 1.5-1.5 3.3-1.9s4.8-1.9 6.7-3.5c3.4-2.6 3.7-2.7 7.9-1.4 3.9 1.1 4.8 1.1 7.1-.3 2.5-1.5 2.9-1.4 6.7 1.1 2.3 1.6 6.1 2.9 9.1 3.3l5.1.6 4.3 8c2.4 4.4 5.5 9.2 6.9 10.6a28 28 0 0 1 5.9 17.5q0 5.1 1.9 7.6l2 2.5 5.3-2.4c2.9-1.3 6.7-2.3 8.5-2.2 2.3.1 3.3-.4 3.8-1.8q.6-2.1 4.3-2.7c5-.9 6.9-2 7.7-4.4.3-1.1 1.4-2 2.3-2s3.8-1 6.4-2.2q5-2.3 4.1-3.8l-1.1-4.2c-.4-2.5-.1-2.8 2.2-2.8s2.8-.6 4.8-7.5c1.9-6.6 2.7-7.9 7-11.4a22 22 0 0 1 8.8-4.6q8.3-1.2-1-7.3c-4.1-2.8-5.2-3.2-6.9-2.2-1.2.6-2.1 1.8-2.1 2.6 0 2.7-2.5.9-2.8-2-.5-4.4.6-7.9 2.3-7.2l3 1.2q1.5.6 1.5-1c0-1.9.5-2 3.1-.6q1.8 1.1 1.9 3.9c0 2.2.7 3.1 2.9 4.1 2.5 1 3.5.8 6.9-.9 7-3.6 9.3-7.1 4.7-7.1q-2.3 0-2.6-.3l-.9-8.7c-.8-8.4-.8-8.5 2-11.5 2.7-2.8 6-10.7 6-14.2q-.2-1.8 1.5-.3c1.1.9 1.3 2.7 1.1 6.8-.4 4.6-.9 5.9-3 7.5-1.4 1-2.6 2.7-2.6 3.7s-.6 2.3-1.4 2.9c-2.4 2-2.6 6.2-.3 9.3 1.1 1.5 2.4 2.8 2.8 2.8 1.3 0 2-3.3.9-4.4-1.8-1.8-1.1-3.6 1.5-3.6 2.3 0 2.5.4 2.5 4.5 0 3.6.3 4.5 1.8 4.5.9 0 2.2-.4 2.8-.8A109 109 0 0 0 220 727c0-.7 4.5-3 6-3 1.9 0 1 2.2-2.2 5.5-6.7 6.8-8.5 9.1-9.7 12.1-1.3 3.3-4.6 5.4-8.6 5.4-4.2 0-5.5 1.1-6.1 5.2q-.6 4.2-2.2 3.3c-.9-.3-3.5 1.4-6.8 4.5-4.2 4-6 5-8.7 5-4.9 0-8.9 4.4-8.6 9.6a32 32 0 0 1-1 8.4l-1.1 5.2c0 .5 2.6.8 5.9.8 4.6 0 6.6-.5 9.5-2.5 4-2.7 9-3.2 17.3-1.6 11.1 2.2 11.3 2.2 11.3.2 0-1 .3-2.1.7-2.4 1.1-1.2 3.3 1.4 3.3 3.9 0 2.9 1.3 3.7 6.9 4 2.5.1 7.9.8 11.9 1.4 7.2 1.2 7.3 1.1 9.6-1.3 1.3-1.4 3.7-3.2 5.5-4.1s3.1-2.1 3.1-2.6 1.3-.7 2.9-.4 3.2.1 3.5-.5a43 43 0 0 0 1.8-8.8c1-6.6.9-8.2-.4-10.7-1.4-2.7-1.4-3.2.4-6.3 1.1-1.8 2.3-3.5 2.8-3.8s.7 3.2.7 7.8c-.1 4.5.3 10.1.7 12.5.8 3.7.6 4.8-1.5 7.5a21 21 0 0 0-2.9 6.7l-.5 3.5-6.5.6c-4.2.3-8.8 1.6-12.9 3.6l-6.3 3 3.6 2.1c2 1.2 3.6 2.7 3.6 3.4s.9.2 1.9-1.1c1.5-2 2.3-2.3 5.2-1.7 1.9.4 5.4.9 7.9 1.2 4.2.5 7 1.3 11.4 3.6 1 .5 3.5.7 5.6.3 4.2-.7 6 .6 4 3-1.6 1.9-5.8 1.9-10.5-.1-2.1-.8-4.6-1.3-5.6-1.1-1 .3-2.6-.1-3.6-.9-1-.7-2.8-1.4-3.9-1.4s-2.7-.7-3.4-1.5c-1.6-1.9-4-1.9-4-.1 0 .8-1.1 2.7-2.4 4.2-2.2 2.7-2.5 2.7-6.5 1.6q-6.5-2.1-2.6-3.8 1.4-.6 1.5-1.3c0-1.4-7.6-3.1-13.4-3.1-6.2 0-6.8.8-4.2 5.8.8 1.6 1.6 6.6 1.8 11.5.3 8.2.4 8.7 2.8 9.5 1.5.6 3.5.5 5 0 3.7-1.4 13.1.2 16.5 2.7 4.1 3.1 9 5.5 11.3 5.5 2 0 8.2 5.9 8.2 7.8 0 .7 1.1 3.5 2.5 6.2 2.3 4.6 3.2 5.2 13.7 10.6a119 119 0 0 1 13.1 7.2c1.5 1.4 2.4 1.4 9.5-.2 4.2-.9 10-1.7 12.7-1.9l5-.2.3-5c.2-2.7.8-5.5 1.3-6.1q.9-1.2-.6-4c-1.9-3.6-1.9-7.3 0-9.8a9 9 0 0 0 1.5-4.8V834l183.9-.2c173.3-.3 184-.4 185.8-2 1.6-1.5 4.7-1.9 18.4-2.4 15.8-.6 16.5-.7 19.1-3.1 2.4-2.3 4-2.7 13.5-3.5 5.9-.5 12.6-1.5 14.8-2.2 3.2-1 6.2-1 14.3-.1 9.7 1.1 10.5 1.4 14 4.7 2 1.9 5.3 4.7 7.4 6.2l3.6 2.7 73.9-.6c40.6-.3 87.8-.8 105-1.1l31.2-.6.3-282.2.3-282.1 5.8-11.2 5.7-11.6c0-.3-10.5-.7-23.2-1.1-12.8-.3-29.2-1.2-36.5-1.9-12.5-1.1-13.3-1.3-17.3-4.5-4.9-4-6.6-3.9-15.5 1.6l-6 3.7-252.5.5-252.5.5-6 2.7c-3.3 1.5-7.5 2.8-9.3 2.8s-5 .9-7.2 2c-5.4 2.8-7.4 2.5-11.7-1.4a18 18 0 0 0-7.3-3.9c-1.9-.3-5.3-1.1-7.6-1.8-3.5-1.1-4.9-1-10.4.7-5.1 1.5-6.4 2.4-7.2 4.6-1.3 3.5-4.5 3.7-5.8.4-1.5-4-4.9-5.5-14-6.1-10.8-.8-16.6-2.8-18.4-6.4-1.2-2.3-2.5-2.9-7.7-3.9q-6.3-1.2-7.3-.2c-1 1-2.2 1-3.7 1-2.1 0-2.9-.7-3.8-3q-1-2.9-2.8-3c-4.4 0-9.4-2.2-10.3-4.5a9 9 0 0 0-1.9-3c-.6-.3-1.1-1.3-1.1-2 0-2.7-8.3-10.3-12.5-11.3-8.3-2.2-10.2-1.9-14 1.8-2.8 2.7-3.5 3-3.5 1.6 0-1 1-3.6 2.2-5.8l2.2-3.9-2.2-6.2a39 39 0 0 1-2.2-10c0-4.2-.1-4.3-3.6-2.1-3.2 2.2-5.6.5-3.6-2.6 1.8-2.9 1.5-3.7-1.3-4.4l-2.6-.7 2.8-2.3c1.5-1.3 3.8-2.6 5.1-3 3.4-1.1 3-6.4-1-11.4-3.7-4.6-4.2-4.7-7.8-2.7"/></svg>