<svg xmlns="http://www.w3.org/2000/svg" width="1365.333" height="1365.333" viewBox="0 0 1024 1024"><path d="M756.8 2.8c-4.7 2.7-4.8 2.7-4.8 7.9 0 5.1.1 5.3 3.9 7.2 3.9 2.1 5.1 3.7 5.1 7.3 0 1.1.7 3.5 1.6 5.4 1.3 2.8 1.4 3.9.4 6.3s-.9 3.4.4 6c1.5 2.8 1.5 3.4.1 6.1-.8 1.6-1.5 3.6-1.5 4.4 0 2-7.9 6.6-11.4 6.6-1.5 0-4.1.7-5.9 1.7s-5.4 2.2-8.2 2.9c-4.7 1.3-5.2 1.2-7.9-.7-2.7-2-3-2.1-6.3-.5-1.8.9-4.3 1.6-5.5 1.6s-3 .7-3.9 1.6c-1.5 1.4-2.3 1.5-4.7.5a7 7 0 0 0-5.7-.1c-2.3.9-3.1.7-4.7-.7-1.9-1.7-2.1-1.7-4.3 1.1s-2.5 2.9-4.7 1.4-2.8-1.3-11.2 2.9c-8 4-9.3 4.4-13.6 3.8-3.6-.5-5.1-1.2-6.1-3.1A38 38 0 0 0 644.1 61a20 20 0 0 1-6.1-3c-2.7-1.8-5.8-3-7.8-3-1.8 0-4.7-.7-6.3-1.6a11 11 0 0 0-7.1-.9c-3.2.6-4.2 1.3-5 3.7-.9 2.5-1.4 2.9-3.7 2.3l-2.7-.8-2.4-4.6c-2-4-2.4-4.3-5.2-3.7-1.7.3-3.6.2-4.2-.3s-2.2-1.1-3.6-1.3c-2.2-.3-2.9-1.5-5.6-9.3-3-9-3-9-6.6-9.3-2.8-.2-4 .2-5.1 1.9-1.3 1.8-2.2 2.1-5.9 1.5-2.7-.4-6.1-.1-9 .9l-4.8 1.4v-3c0-2.2-.6-3.2-2.5-4.1-2.2-1-2.8-.9-4.1 1-.8 1.2-2.1 2.2-2.8 2.2q-1.4.1-2.5 1.4c-1.1 1.3-1.8 1.2-5.5-.4l-4.3-1.8-2.7 2.4c-2.1 2-2.6 3.4-2.6 6.9 0 4.6-.7 5.4-2.7 3.4-.9-.9-1.9-.7-3.9.8-2.7 2-2.8 2-6 .1l-3.3-1.9-1.6 2.4c-1.2 1.8-2.7 2.6-6.5 3-2.7.3-6.2 1.5-7.7 2.6-1.6 1-5 2.2-7.8 2.6a17 17 0 0 0-6.6 2.1c-1.3 1.2-2.3 1.1-7.2-.6-8.2-2.9-13.9-2.6-20.3 1l-5.3 3-2.6-2.6c-2.1-2.1-3.2-2.5-5.7-2l-4.4.6c-.8 0-1.9 2-2.5 4.6l-1.2 4.6-14.1-.6c-22.3-1-32.9-.7-34.7 1-1.1 1-1.8 4.1-2.3 10.7q-1 13.5-4.2 14.4c-.6.2-2.5-.8-4.2-2.2l-3.1-2.6-1.6 3.7c-2.4 5.8-3.1 6.1-19.3 5.7-14.2-.3-14.6-.3-17.3-2.9-2.3-2.2-3.7-2.7-8.2-2.6-4.7 0-5.8.4-8.5 3.2l-3.1 3.1-3.9-2.6-4-2.6-4.3 2.9c-2.4 1.6-6.3 4-8.6 5.3q-4.2 2.3-4.7 5.1c-.3 1.6-1.2 2.8-2.1 2.8q-1.4.2-2 2.3a8 8 0 0 1-3.5 4 7 7 0 0 0-3.4 5.1c-.9 4.9-2.7 6-9 5.3-5.2-.5-5.5-.4-9.2 3.5-5.8 5.9-7.8 6.4-12.3 2.9-3.1-2.5-4.4-2.9-9.1-2.7-4.3.1-6.3.7-9 2.8-2 1.5-5.4 3.1-7.7 3.6-3.6.8-4.6.7-7.5-1.3l-3.2-2.2-1.8 2.3a10 10 0 0 1-5.8 2.9c-2.3.4-4.6 1.5-5.4 2.7-1.3 1.9-1.3 2.3.5 3.7 1 .9 2.1 2.9 2.4 4.6.5 2.4 0 3.6-2.5 6.2-4.2 4.4-6.4 4.6-3.8.3 1-1.6 1-2.3-.4-3.6-1.6-1.6-1.6-1.9.2-4.4 1.9-2.7 1.9-2.7-.5-5l-2.4-2.3-3.5 2.9c-5.6 4.7-5.6 7.4-.1 15.6l4.7 7-.7 7.7c-.6 6.4-1.2 8.1-3.5 10.6a77 77 0 0 0-6 7.9l-3.3 4.9-5.3-.6c-4.9-.5-5.4-.4-5.4 1.4q0 1.7-.9 1.9c-1.9 0-4.5 5.6-4.2 9.3.2 3.3-.5 4.7-4.4 9.5-4.6 5.5-4.7 5.8-4 10.8.5 4.2.2 6-1.5 9.4-1.2 2.3-1.9 4.8-1.6 5.5s0 3.1-.6 5.3c-1 3.8-1.2 4-6.8 5.2-3.1.7-6.6.9-7.8.6-1.1-.4-3.1-.1-4.5.5a7 7 0 0 1-5.7.1l-3.1-1.1-3.1 6.4-3.2 6.5h-4.4c-3.8 0-4.3.2-3.7 1.7.5 1 1 3.4 1.3 5.3.2 2 2.1 5.8 4.3 8.7 3.9 5.2 5 9.8 2.9 11.9-.6.6-3.3.9-6 .6l-5-.5v3.2c0 1.8.5 4.1 1.1 5.2.8 1.6.5 2.6-1.9 5.4a25 25 0 0 0-3.5 4.7c-.4 1.1-.7 1.1-1.8 0-1.1-1-1.5-.8-2.4 1.7l-1 2.9-9-2.9a91 91 0 0 0-10.5-2.8c-1.9-.1 11 8.5 13.6 9.1 1.5.3 1.9 1.1 1.8 4.3-.1 2.3-.8 4.3-1.8 5s-1.6 2.3-1.6 3.7c0 2.7 4.2 4.8 9.8 4.8q3.3 0 3.2 1.5-.1 1.4-2.2 1.5c-2.1 0-2.1.1.5 2.8q4.4 4.3-.8 4.2c-2 0-2.2.4-1.6 2.9.3 1.6 1.8 3.9 3.3 5.1 1.6 1.2 2.8 3.1 2.8 4.2s1.1 4.1 2.5 6.4c2.7 4.5 2.6 4.5 13.7 5.9 4.7.6 5.8 1.7 5.8 5.8a91 91 0 0 0 19.7 21.7c.7 0 2.6 1.9 4.3 4.2a13 13 0 0 1 3 9.3q0 5.3 1.8 7.5c2.1 2.6 4.2 2 4.2-1.1 0-1.9.1-1.9 3.1-.4 1.7.9 3.3 1.4 3.6 1.1 1.1-1-.7-3.7-3.7-5.4-3.6-2-3.7-3.2-.7-6.8 2.3-2.7 2.4-2.7 4.3-.7 1 1.1 3.3 2.3 4.9 2.7s3.7 1.4 4.6 2.2c1.4 1.3 1.8 1.3 2.9-.1 1.6-1.9 3.7-1.9 4.7 0 .5.7 2.7 1.7 5 2.1 4.1.6 4.3.5 6.4-3 1.7-3 2.4-3.4 3.6-2.5 2.6 2.2 3.7 5.3 3.7 11.1.1 4.5.6 6.1 2.4 8.1q2.4 2.5 1.5 4c-.6 1.2-1.3.9-3.3-1.9-3.2-4.3-5.8-4.4-6.6-.4-.7 3.2-2.1 3.9-3 1.5q-.7-1.4-2-1.5-1.5.1-.8-2.6c.6-2.4.4-2.5-1.5-1.9q-2.2.6-3.4-.8c-1.4-1.9-7.5-2.6-8.5-1.1q-.7 1-2.4 1.7t-2.3-2.1l-.7-2.7-2.3 2.7c-2.6 3-6.2 3.7-7.1 1.3q-1.3-3.1-3.4.5c-.9 1.7-.7 2.8.9 5.4 2.6 4.1 2.6 4.2.1 4.9-1.1.3-2.5 1.9-3.1 3.6-1.2 3.5-2.9 3.2-2.9-.5 0-3.6-1.8-3-6.6 2.2a36 36 0 0 0-8.4 16.8q-.1 1.4-1.4 2.5c-1.1.9-1.4 3.5-1.4 9.7.1 8.3.8 10.1 2.7 6.6 2.7-4.6 2.8-4.6 6-1.1 2.8 3.2 3 3.2 3.1 1.1 0-1.2.6-2.2 1.4-2.2s1.9-.7 2.6-1.5q2.5-3.2 9.1 3.2c3.3 3.2 3.7 3.3 4.2 1.4q.4-2-1.9-4.2c-2.8-2.6-3-4.7-.9-7.5.8-1 1.5-2.2 1.5-2.6 0-1.2-3.9.4-5.6 2.3s-1.7 1.8-3-.6c-1.1-2.1-1.1-3.2 0-6.3.7-2.1 1-4.8.6-6.3q-1-2.7 1.1-3.7c1.6-1 1.9-.9 1.9.6 0 1 .3 2.1.6 2.4 1.1 1.2 6.9-1.2 9.1-3.7 1.2-1.4 2.4-2.5 2.6-2.5 1.1 0 3.7 8.4 3.7 11.8.1 5.3 3 8.6 7 7.7 2.7-.6 3-.4 3 1.7.1 1.3.7 3.4 1.5 4.8s1.5 5 1.6 8c0 3 .4 6.6.8 7.9l.7 2.4 3.8-3.4 3.9-3.4-.7 5.7c-.6 4.6-.3 6.9 1.4 11.7 1.8 4.8 2 6.3 1 8.1s-.9 3.2 0 6.5q2.3 8.5 8.2 2.4c1.6-1.6 3.6-2.9 4.3-2.9 2.3 0 7.5-3.4 8.1-5.3q.6-1.6 3-1.7c2.1 0 2.4-.5 2.4-3.6 0-2.8.3-3.5 1.8-3.2q1.6.4 2 3.2c.3 2.1 1.1 3.1 3.3 3.9 2.3.9 2.9 1.7 2.9 4.2 0 4.7 4.8 8.9 8.9 8 1.7-.4 4.5-1.8 6.2-3.2 3.3-2.8 7.6-3.3 17.1-1.9 5.6.8 5.7.8 6.4-1.8.7-2.9 6.2-6.2 7.7-4.7 1.4 1.4 6.6.2 10-2.2 2.3-1.5 3.3-1.7 5.5-.9 1.5.6 4.1 1.3 5.7 1.7 4.2.9 12.9 5.1 14.5 7 1.8 2.1 3 1.9 6.2-1.2 2.7-2.6 2.9-2.6 5.6-1.1a27 27 0 0 0 13 1.9q1.2-.2 1.1-3.9c-.2-2 .4-4.8 1.2-6.2l1.5-2.8c.1-.2 2 .9 4.2 2.5 4.9 3.5 8.2 8.4 8.2 12.1 0 3.3 2.7 6.2 5.7 6.2 1.7 0 2.2-.9 2.8-4.8.7-5 1.7-6.7 4.7-8.3 1.6-.9 2.1-.4 3.8 3.3q3.3 7.5 9.3 9.7 4.6 2 1.1 5.2c-1.4 1.1-1.3 1.4.8 2.5 1.3.8 4.4 1.3 6.9 1.4 4.1 0 4.8.3 5.3 2.5.7 2.8 4.6 3.6 4.6 1 0-1.2 1.3-1.5 5.5-1.5 5.2 0 5.5.1 5.5 2.5 0 3.4 4.2 4.4 8.2 2 2.5-1.5 3.2-1.5 3.9-.4.5.8.9 2 .9 2.7q0 1.2 2.5.6c3-.7 7.5 2.4 5.3 3.7q-1.3.7 0 2.2c1.3 1.5.6 1.9-1.6 3.9-5.8 5.4-7.7 6.1-15 5.3-3.7-.4-7.8-1.3-9.2-2-2-1-3-1-4.6-.2a37 37 0 0 0-8.4 6.7 31 31 0 0 0 5.9 4c5.3 3 5.8 3.5 4.9 5.4-2.9 6.6-10.4 5.8-18.6-2-8.9-8.6-19.1-16-27.2-20-6.8-3.3-7.9-3.5-12-2.7-3.9.7-4.9.6-7.5-1.4a28 28 0 0 0-9.4-3.2c-3.9-.6-7.2-1.8-8.6-3.1-1.2-1.1-2.7-2-3.3-2s-1.8-1.3-2.6-2.9c-1.9-3.5-5.2-5.7-10.9-7.2-4-1-4.6-1.5-5.1-4.4-.6-2.8-1.2-3.4-4.4-4-2-.4-5.7-.7-8.2-.8s-5.1-.6-5.8-1.1q-1.4-.8-3.6 1.3c-1.2 1.2-2.9 2.1-3.7 2.1-1.8 0-6.3 6.3-8.6 12.1-2.6 6.5-4.3 8.3-9.6 10.3-5.9 2.2-11.3 1.5-17.5-2.5-4.2-2.7-4.7-2.8-6.9-1.4-2.1 1.4-2.4 1.4-3.5-.5-2.2-3.4-2.8-2.3-2.8 4.9 0 3.9-.4 7.3-1 7.6s-1 1.4-1 2.3-.7 3-1.6 4.7c-.9 1.6-2 4.3-2.3 6-.4 1.7-1.7 3.5-3.1 4.2s-3.2 2-4 3a26 26 0 0 1-11 7.5c-2.1.2-2.7 1.1-3.7 5.3-1.8 8.1-1.9 8 5 9.9a38 38 0 0 1 13.9 7.7c2 1.3 3.6 10.8 2.7 15-1.3 5.5.3 7.5 3 4l1.8-2.4 4.4 3.1c2.4 1.7 7.1 4.7 10.5 6.7 5 3.1 6.6 4.7 8.7 9.1 1.5 3 4.9 9 7.6 13.4a65 65 0 0 1 6.7 14.1c1.7 6.1 1.7 6.2-.6 10.5a30 30 0 0 1-6.5 7.8c-5.3 4.4-6.5 8.5-5.5 19.5.4 4.5.9 8.4 1.1 8.6l3.7 4.2c11.8 13.6 11.6 13.3 9.9 14.6q-3 2-1.4 10.7c.6 3.6 1.5 5 4.2 6.9 3.4 2.3 3.6 2.3 7.5.7 3-1.2 4-1.3 4-.3 0 .7.9 2.9 2 5 1.1 2 2 4.4 2 5.2q-.2 3.5 4.6-1.8c4-4.2 5.8-8.5 4.4-10.2-.7-.8-1-5.9-.8-13.4l.3-12.2 4.8-3.1c5.4-3.4 13-4.8 16.6-2.9q3.5 1.7 1.1 11.6c-.8 3.5-.7 4.2 1.2 5.8 1.1.9 2.9 1.5 3.8 1.2 1.3-.4 3.2 1.4 7.4 6.8 3.1 4 5.6 8.3 5.6 9.5 0 3.8 6.2 15.2 8.3 15.2 1.7 0 1.7.2.3 2.2-1.9 2.7-2.1 7.9-.4 12.6 1.1 2.8 1 3.8-.5 6.4-2.2 3.8-2.2 8.2 0 9.9q1.5 1.3 1.7 1c.1-.2 1.7.6 3.7 1.8 2.7 1.6 3.9 3.1 4.3 5.5.6 3 3.6 7.2 3.6 5l1.1-7.4c.8-5.4.7-7-.6-10a21 21 0 0 1-1.3-9.5c.3-5.8.4-6 3-5.8l2.7.2-1.5-4.1-1.4-4 2.5.6q2.6.7 2.5-.8c0-.8-.5-1.8-1-2.1-1.8-1.1-1-5.1 1.5-7.5 1.4-1.3 2.5-3.4 2.5-4.7q0-2.2 3.9-4.9c3.6-2.4 4.3-2.5 7.6-1.4 2 .7 4.9 1 6.4.7 2.4-.5 3.1-.1 4.9 3.2 1.4 2.4 2.2 5.6 2.2 8.4 0 2.5.5 5.8 1.1 7.4l1.1 2.8 1.3-2.4 1.3-2.4.6 2.1q.8 2 2.2 2.2 1.4 0 1.4 3.4c0 2.9.5 3.6 3 4.5q3.1.9 3 3.4a6 6 0 0 0 1.9 4.1c1.8 1.6 1.8 1.8 0 5.4-2.8 5.4-2.5 6.9 1.1 6.4 2.4-.3 3-.9 3-2.8 0-3.4 3.6-5.1 6.1-2.8 1 .9 1.9 2.4 1.9 3.2 0 3 2.3 7.9 4.3 9.1 1.5 1 3 1 6.8.1 5.6-1.4 6.1-2.9 2.4-6.6-3.5-3.5-4.4-5.5-3.8-8.5.4-2.1-.1-3.1-2.2-4.5-10.6-7.5-12.5-11.4-8.4-18l2.1-3.4h-2.6q-2.8.1-2.6-2.1c0-2.9 2.9-5 5.2-3.8q1.9 1 1.8-.4c0-.8.6-2 1.4-2.6 1.5-1.3 1.7-.6-3.4-11.1-.9-1.9-2.3-6-3-9s-1.9-6.9-2.6-8.6c-.8-1.8-1.1-4.7-.7-6.7a8 8 0 0 0-1.6-6.6c-1.2-1.7-2-3.5-1.6-4.1s-.4-2.7-1.5-5c-1.7-3.4-2.5-4-5.2-4h-3.1l.7-5.4c.4-4.1.3-5.7-.7-6.3-.8-.4-1.7-2.3-2-4.1s-1.8-4.8-3.2-6.6-2.5-4-2.5-4.8q-.1-1.5-1.5-2.8c-1.4-1.3-1.5-2.5-1.5-4a5 5 0 0 0-2.3-4.3c-2.1-1.3-2.5-2.6-3-9.4-.3-4.4-1.2-10-1.9-12.6-1.3-5.1-.6-6.8 3.8-8.1 1.7-.5 2.3 0 3.2 3.2 1.3 4.1 7.2 10.8 7.2 8 0-2.4 2.4-2.8 8.5-1.5 5.3 1.1 5.5 1.2 5.5 4.3 0 4 1 4.7 4.4 3.4q2.8-1 2.6.4.2 2.5 5.5 2.6c1.3 0 3.1 1 3.9 2.2q3.2 4.5-.4 3.3c-1.6-.5-2-.2-2 1.9q.1 2.7-2 2.6c-3.6 0-2.3 4 3 9.1 2.8 2.7 5.4 4.9 5.9 4.9 1.7 0 3.2-2.9 2.6-5.2-.9-3.7 3-5.2 6.7-2.6q2.8 2 6.5 1.6c5-.4 4.9-2.2-.2-2.6-2.2-.2-4.8-1-5.7-1.9-1.6-1.4-1.6-1.7 0-3.9 1.3-1.9 2.3-2.2 4.5-1.8 1.5.3 3.3.1 4-.4s5.2-1.2 10.1-1.5c8.2-.5 10.5-1.3 10.6-3.9 0-.3-1.3-1.9-2.9-3.4-3.1-2.9-3.1-5.4-.1-5.4s3.2-1.6.8-6.1c-2-4-2.2-4.1-3.1-2.1-.6 1.2-1.8 2.4-2.8 2.7a3 3 0 0 0-1.9 2.6q0 2-1.7 1.7t-1.5-2.2c.2-1.8-.2-2.2-.8-2.6q-1.2-.6 1-5.9c2.5-6.5 2.5-7.7 0-8.4-1.8-.5-9 .9-9 1.7l1.5 3.9c.8 2 1.5 4.3 1.5 5.2 0 3.8-7.5 2.9-9-1q-1-2.5-3.2-2.5c-5.5-.1-8.6-5.9-8.8-16q0-3.5-2-4.8c-2.3-1.4-2.7-4.2-.6-4.2.8 0 2.2-.7 3.1-1.7 2.3-2.2 1.3-6.9-2.3-10.6-2.6-2.7-3-2.8-8.8-2.2l-6.2.6-.4-3.1c-.3-1.7-.1-3.3.4-3.6s.8-1.7.8-3.1c0-2.8-.7-2.7 8.9-.7 2.3.5 3.6 0 6.7-2.8 7.3-6.5 9.9-7.4 19.9-7.2 7.8.1 9 .3 8.9 1.8-.2 1.4.5 1.6 4.2 1 3.9-.6 4.4-.4 4.4 1.4 0 1.5-1 2.2-4.4 3.1-5.2 1.3-6.1 2.3-4.4 5q2.9 4.5 7.7.5c1.6-1.3 3.6-2.4 4.5-2.4s1.6-.5 1.6-1.2.7-1.9 1.6-2.9c1.4-1.6 1.4-1.8-.5-2.4-1.2-.3-2.1-1.2-2.1-1.9s-1.1-2.6-2.5-4.2c-1.9-2.2-2.7-2.6-3.7-1.6-1.8 1.8-5.2 1.6-4.4-.4l.6-2q.2-.3 2.8-.4a18 18 0 0 0 7.1-2c6-2.7 7.1-2.6 7.1 1q0 3-1.5 3-1.4.2-1.5 1.2c0 .7-.3 2.3-.6 3.5-.5 1.9-.2 2.3 1.8 2.3 1.4 0 3.5 1.1 4.8 2.5q2.4 2.6 3.4 1.5c.5-.5 1.7-1 2.5-1 1.8 0 6.9 8.5 8.8 14.6q2.5 8.4 6.1 5c2.4-2.1 2.6-2 6.7.7 3 1.9 3.5 2.8 3.5 6a8 8 0 0 0 2.5 6.3c1.4 1.4 2.5 3.5 2.5 4.8 0 3 1.5 4.2 6.6 5 3.6.6 4.3.4 5.7-1.8 1-1.4 1.7-4.4 1.7-6.6 0-2.3.7-5.4 1.5-7.1 1.4-2.6 1.4-3.3.1-6.2-.8-1.7-1.7-4.9-2.1-7.1q-.5-3.9-2.6-4.3c-2.3-.6-2.5-2.1-.4-2.9 2.1-.9 1.9-3.2-.5-3.9-2.6-.8-2.9-7.5-.4-7.5 1.3 0 1.5-.6.9-2.8-.3-1.5-1.1-2.9-1.6-3s-.9-1.9-.9-3.7-.5-4.5-1.1-5.8c-1.5-3.3.3-6.5 4.7-8.3 3.1-1.3 3.4-1.8 3.4-5.8 0-3.4-.5-4.9-2.3-6.3-1.2-1-3.6-3.6-5.2-5.9-3-4.2-7.1-6.2-16.8-8.3-2.1-.5-4.8-1.8-6.1-3-1.6-1.5-3.5-2.1-7.2-2.1-5.7 0-6.2-.3-9.3-5a39 39 0 0 0-4.6-5.5c-1.3-1.1-2.6-3-3-4.3-1.1-3.9 2.9-2.7 6 1.8 1.7 2.4 3.6 4 4.8 4s4.4.8 7.3 1.7c4.2 1.3 5.9 1.4 7.9.5q2.5-1.1 5.1-.2c4.1 1.6 11.5 1.2 13.6-.7 1.7-1.5 1.9-1.5 3.2.2.7 1 1.8 1.5 2.4 1.1 1.6-.9 1.6 6.6.1 8.1q-1.3 1.1 3.1 1.8c2.3.4 4.3 1.2 4.5 1.8l.9 4c.6 2.4.9 2.6 2.6 1.7 2.5-1.3 2.7.5.5 3.4q-3.4 4.6 1.3 4.6c5.2 0 8.2 5.5 5.1 9.4-2 2.5-2 2.5 0 6.5 1.9 3.6 2.5 4 6.3 4.3 3.4.2 4.5.8 5.5 2.8 1.1 2.3.9 2.6-3.2 5.3-3.3 2.2-4.5 3.6-4.5 5.4 0 2.1.4 2.4 3.3 2.1 2.7-.2 3.3-.8 3.5-3.1.4-3.6 4.2-3.9 4.2-.4q0 2.4 2.5 3.5 6.3 3 5.1-1.3c-1.4-5.6 5.9-3.5 8.4 2.4q1.2 3.2 3.5 3.1c2.6 0 5.5-2.4 5.5-4.4a8 8 0 0 1 1.9-3.7c1.4-1.9 1.9-4.5 2.2-11.9l.4-9.5-7-.1q-7 0-11-1.8c-3.1-1.4-4.6-1.6-6.7-.8q-2.8 1.1-3.8-.3-1.2-1.3 0-2c1.7-1.1 1.1-2.5-1.1-2.5s-6-1.8-7.1-3.4c-.4-.6-.8-3.3-.8-5.9q0-5-2-7.4-2-2.6-2-6.9 0-4.6-1.5-4.4-1.4-.2-1.5-2c-.1-1.8.5-2 1.2-2q1.4 0 0-1.2c-1.9-1.9-1.4-9.9.8-13.5l2-3.3-3.8-2.4c-6.7-4.2-8.6-9.7-4.9-14.4 1.2-1.5 1.3-1.4-4.8-4.3-5.3-2.5-14.5-3.3-14.5-1.3s-4.9 2.6-7.3.9a9 9 0 0 0-4.1-1.5c-3.9 0-13.6-4.4-13.6-6.2 0-1-1.3-3.2-2.9-5-2.7-3-3.1-3.2-5.4-1.9-2.8 1.5-9.9.9-10.5-.9-.5-1.3-9-7-10.6-7-1.7 0-5.2-3.9-6.5-7.3-.6-1.6-1.1-4.9-1.1-7.5 0-3.9-.4-4.9-2.2-5.7-1.3-.6-3-2.6-3.9-4.5-1-1.9-3.1-4.6-4.9-5.8-3.1-2.4-3.3-2.4-7.6-.7-2.4.9-4.6 2-4.9 2.5s-2.8.6-5.5.3q-5-.6-5 .6-.1 1-1.9 1.1c-1.3 0-2.2 1.2-3.1 4.4-1 3.6-1.5 4.3-3.2 3.8q-2-.6-2.5 1.6-.6 2.1-4.2 3.3a75 75 0 0 0-16.3 8.2c-3.7 2.8-3.8 5.2 0 4.3 1.5-.4 4.5-.9 6.7-1.2 8.3-1.1 8.8-1.3 8.2-3.9-.4-2.2-.1-2.5 2.3-2.5a5 5 0 0 1 4.4 2.5c2 3 5.6 4.1 8.5 2.6 3.1-1.7 9.1 1.8 13.6 7.9 2.1 2.8 4.8 5.3 6.2 5.6 1.3.4 4.5 2.8 7 5.5s5.3 4.9 6.2 4.9c2.4 0 4.1 2 4.1 4.7 0 1.3.7 2.6 1.6 3s2.4 2.5 3.5 4.9c1.5 3.7 2.3 4.4 4.6 4.4 5 0 7.1 1.1 8.8 4.6 3.6 7.7-.3 13.4-5.5 7.9q-4.1-4.5-4-.5c0 3-1.8 2.7-12.7-2.3-2.1-.9-3.8-.8-7.5.8q-1.6.6-1.8-.3c-.2-.9 1.4-1.3 3.1-1.7 4.1-.9 3.6-3.9-.9-4.3q-3-.4-3.2-1.7-.1-1.2-1.6-1.7c-1.4-.3-1.3-.7.5-3 1.7-2.1 1.9-3.2 1.2-5.1-1-2.6-4.2-4.3-7.3-3.8-.9.1-2.2-.7-2.8-1.8q-1-2.1-4.1-2.1c-2.6 0-2.9.3-2.4 2q.9 2.1-1.3 2c-1.1 0-2.5.7-3.2 1.5s-1.6 1.5-1.9 1.5c-1.2 0-5.1-7.7-5.1-10 0-1.2-.8-3.5-1.7-5.1-1.5-2.6-2.3-2.9-6.5-2.9-2.7 0-6.5-.7-8.5-1.5s-4.4-1.3-5.2-1-2.5-.5-3.8-1.7a7 7 0 0 0-5.7-2c-2.9.3-3.7-.2-6.4-3.9l-3.5-5.2c-.2-.7-1.8-.2-3.9 1.1a12 12 0 0 1-10.6 1.6c-1.9-.6-2.2-1.1-1.7-3.1.5-2.1.3-2.4-1.5-1.8-3.7 1.2-2-1.2 2.8-3.8 3.8-2.1 5.1-2.3 6.7-1.4 1.1.6 3.8 1.4 6 1.8l7.7 1.4q8 1.7 9.6-3.4c1-2.7 1.2-2.8 5.1-2.1 3.6.6 4.5.3 8.8-2.7q4.8-3.3 6.5-7.6 3.3-8.4.2-7.3l-4.2 1.3-2.6.6 2.3-3.1c2.2-3.1 2.2-3.2.5-6.8a10 10 0 0 0-4.6-4.8c-2.3-.8-2.8-1.6-2.8-4.3s-.5-3.4-2.7-3.9q-2.7-.8-3.9 1c-1.1 1.5-1.4 1-2.9-4-1.9-6.6-1.3-11.9 1.5-13.4 1-.5 3.6-1 5.8-1 4.7 0 5.5-.6 4.1-3.2q-1.1-2 .1-4.8c1.2-2.9 1.2-2.9 4.5-1.3 1.9.9 3.6 2.6 3.9 4 .6 2 1.2 2.3 5.9 2.3q9.3.2 11.1 7.5c.4 1.6 1.8 4.4 3.2 6.2 3.4 4.4 3 9.3-.7 9.3-1 0-2.8 1.3-4.1 3s-2.8 3-3.6 3q-1.7.2-.2-1.6c1.1-1.3.9-1.9-1.3-4.2-3.4-3.3-4.8-2.2-5.5 4.6-.4 4.8-.4 4.9 2.9 6.1 2.9 1 3.7.9 6.1-.9 1.5-1.1 4.1-2 5.7-2q3 0 3.6-2c.3-1.1 1.2-2 1.8-2s3.5-1.2 6.4-2.8c5.2-2.7 5.3-2.8 5.3-7.3 0-3.8-.6-5.4-3.5-9-1.9-2.4-3.5-5.5-3.5-6.9s-1.6-4-4-6.5c-2.2-2.2-4-4.5-4-5.1a25 25 0 0 0-4.3-6.6 137 137 0 0 1-7.5-10q-3.1-4.7-6.9-5.9c-5.3-1.7-11-5.5-12.4-8.1-.6-1.3-2-3.3-3.1-4.4-1.5-1.7-2.1-4.6-2.9-12.5-.5-5.7-1.1-11.4-1.4-12.5a38 38 0 0 0-7.8-9c-6.7-6.3-7.4-7.3-8-11.7-.9-6.2-.8-6.1-6.8-9.4-5.5-3-7.3-6-8.4-14-.3-2.6-1.3-6.7-2.1-9-1.4-3.9-1.4-4.4.5-8.2 1.2-2.2 2.1-5.4 2.1-7.1 0-3.6 4.5-12.9 7.1-14.8 2.9-2 2.5-7-.6-8.4a7 7 0 0 1-3.2-3.7c-.3-1.4-1.5-4.1-2.6-6l-2.1-3.4 4.2.6c3.5.6 4.3.4 5.2-1.2q1-2 0-2.6c-1.3-.8-1.3-6.5-.1-6.5q1 0 1.5.9c.5.9 2.2 1.1 4.1 1.3 3.2.4 3.5.2 3.5-2.3q-.2-4 5.3-3.9c1.2 0 4.1-.9 6.4-1.9 3.5-1.6 4.2-2.5 4.5-5.3.3-2.9.7-3.3 3.5-3.6s3.3.1 3.9 2.2c.3 1.3.3 3.4-.1 4.5q-.6 2.1 1.4 4.7c1.9 2.4 1.9 2.9.6 5.4-1.6 3.1-7.1 4.5-13.1 3.4-3-.5-3.4-.4-3.4 1.5 0 1.1.4 2.1.9 2.1 1.7 0 5.4 6.2 6 9.9.5 3.1 1 3.6 3.6 3.9q7.5.6 10.6 5.9a37 37 0 0 0 16.4 12.1c2.2.6 7.3 2.3 11.3 3.8l7.2 2.7v6.7c0 3.7-.7 8.4-1.5 10.4-1.5 3.5-1.5 3.6 1.3 5 3.6 1.8 5.7 4.3 7 8.5 1 2.9.9 3.7-.9 5.9l-2 2.6 2.3.9c1.3.5 4 .6 6.1.4 2.8-.4 5.5.2 10.2 2.4 5.8 2.6 7.5 2.9 16.6 2.9 7.6 0 10-.3 9.7-1.3-.3-.6-2-1.4-3.9-1.7-2.6-.4-3.5-1-3.7-2.7-.2-1.6-1.7-2.7-5.6-4.2a40 40 0 0 1-21.8-16.8 34 34 0 0 0-6.3-7.9q-7.7-5.8-1.5-15.4l3.2-4.9 4.1 1.6c2.3.9 5.8 3.1 7.7 4.9 3.4 3.1 3.7 3.2 10.6 2.7l7.1-.5 2.3 4.6c1.2 2.6 4.4 6.9 7.1 9.5 2.7 2.7 4.9 5.6 4.9 6.6 0 3.1 5.3 11.5 8.5 13.5 1.8 1.1 4 3.8 5 6q1.8 4 3.3 3.5c.7-.3 2.5-.5 3.9-.5 2.2 0 2.4-.3 1.8-3.1-.5-2.3-.2-3.6 1.3-5.2q4.7-5.3 1-6.6-2-.8-1-1.5 1.1-.5-.3-3.3t-.4-4.4c1.4-2.8 1.1-3.6-1.8-4.4a74 74 0 0 1-12.6-6.2c-7.2-4.1-10.5-6.6-12.2-9.4-1.4-2-2.9-4-3.4-4.3-.5-.4-1.5-2.2-2.1-4.1-1-3.1-.9-4 1-6.9 1.9-3.2 2.3-3.4 5-2.4 2.4.8 3.6.6 6.2-1 2.8-1.7 4.1-1.9 8.6-1.2 4.3.7 6.4 1.8 11.3 6.1 5.5 4.8 6.4 5.2 12.3 5.6 7.2.6 9.4 2.5 11.6 9.9q1.1 3.9 5.6 7.2c2.4 1.8 4.7 4.4 5 5.8q.7 2.4 1.9 2l5.4-1.7q4.3-1.3 3.6-2.7l-.5-2.1c0-.5-2.4-3.3-5.3-6.4-3-3-6.7-8.1-8.3-11.2-2.2-4.2-3.6-5.8-5.6-6.2-1.4-.3-2.8-1.3-3.1-2.3-.2-1-3.7-3.3-7.9-5.3-6.6-3.2-7.7-4.1-9.1-7.7q-1.5-4.2-3.6-4c-1.9 0-2.1.6-2.1 5.5 0 5.2-.1 5.5-2.5 5.5-4 0-9.4-3.2-11.6-6.8a39 39 0 0 1-3.3-9.2l-1.4-5.8 4.9-.6c3.8-.5 4.9-1.1 4.9-2.5q0-1.8-4.2-3.1c-6-1.7-7.9-3.3-11.4-9.3-2.5-4.3-3.6-5.3-6.2-5.5-4-.4-4.1-1.9-.2-8.6 2.8-5 3.2-5.2 10.5-7.4l7.6-2.2 4.5 3c5.3 3.7 14.4 7 19.2 7 2.8 0 4.5-.9 8.2-4.4 2.6-2.5 8-6.1 11.9-8l7.1-3.6v-4.5c0-3.8.4-4.7 2.8-6.2 1.5-.9 3.6-2.4 4.7-3.3 1.8-1.5 13.8-6 16.1-6 .5 0 1.8 1.5 2.8 3.2q6.3 10.8 10.5 10.8c1.5 0 3.6.7 4.7 1.5a9 9 0 0 0 4.7 1.5c1.6 0 3.7.5 4.7 1 1.6.9 2.5.4 5.2-2.6 9.3-10.4 9.3-10.4 14.2-10.4q4.7 0 4.6-1.4c0-.7.9-2.5 2-3.9s2-3.2 2-4.1c0-1.3 1.1-1.6 5.5-1.6 5 0 5.7.3 6.7 2.5 2.2 4.8 7.2 6.9 16.2 6.7 6.6 0 8.5.3 10.1 1.8a61 61 0 0 0 10.7 5.9c7.6 3.5 9.6 4 15.5 4 3.7 0 13.1.3 20.8.8 12.1.8 14.7 1.3 19.1 3.5 5.1 2.7 7.4 5.8 7.4 10.3 0 3 .2 3 6.5.6q5.2-2 5.3-4 .4-2.2 4.6-4.3c3.9-1.9 4.3-2.4 4.2-5.7-.1-2.9.3-3.6 1.7-3.6 1 0 2.5-.8 3.2-1.9q1.3-1.6 2.4-1.1t1.1-.9c0-.8 1.5-2.4 3.3-3.5 3.2-1.9 3.3-2.3 3.2-7.5-.1-3-.8-6.8-1.5-8.5-1-2.6-1-3.5.4-5.6 2.2-3.3 2-4.2-1-4.9-2.2-.6-2.4-.9-1.2-2.3.8-1 1.4-4.6 1.4-9.4.1-4.2.5-8.2.9-8.8.3-.6 2-1.1 3.8-1.1 2.5 0 4.4-1.2 8.7-5.4 6.6-6.4 10.3-7.9 14.9-6 3.1 1.3 3.2 1.2 4.3-1.4a28 28 0 0 0-.6-17.2c-.9-3-1.8-9.2-1.9-13.7l-.2-8.3h-3.1c-2.3 0-3.4-.6-4.2-2.4a51 51 0 0 0-15.5-12.4 25 25 0 0 0-8.2-1.2c-4.4 0-5.7-.4-7-2.2q-1.5-2.3-4.8-2.3c-1.7 0-4.1-.4-5.2-.7q-2-.6-6.7 2"/><path d="M589.3 142.8c-1.5 1.6-3.6 3.1-4.6 3.5s-2.9 3.2-4.3 6.2c-2 4.3-2.4 6.4-1.9 9.4.6 3.6.9 3.9 4.6 4.5 2.1.3 3.9 1 3.9 1.4s1.3 2.3 2.9 4.2l2.9 3.5 2.2-2a25 25 0 0 1 6.8-3.6l4.7-1.6.7-6.3q.7-6.3-.4-7.7c-.8-1-.6-1.8.7-3.3 1.6-1.8 1.6-2 .2-2-.9 0-2.4-1.1-3.3-2.5a5 5 0 0 0-4.4-2.5 7 7 0 0 1-4.5-2c-2.3-2.6-2.8-2.5-6.2.8M678.5 257c-.3.5-1.7 1-3.1 1q-2.5-.2-2.4 2.2c-.1 2.4-3.1 6.8-4.8 6.8q-1 .1-2.3 1.6c-1.1 1.4-1.5 1.3-3.1-.8-.9-1.3-1.8-2.8-1.8-3.4s-1.2-1.9-2.6-2.9c-2.2-1.4-3-1.5-5.5-.4-2.5 1-3.2.9-4.2-.4-1.1-1.4-1.7-1.4-6.4.1l-5.3 1.7v4.7q0 5 1.4 4.8c1.4-.2 1.2 1.5.8 7-.5 7.4 0 8.1 3.8 6a7 7 0 0 1 4.3-.5c1.9.5 2.2 1.1 1.9 3.9-.4 3.8.7 4.6 5.5 3.9 3.2-.5 3.2-.5 1.8-3.4-.8-1.5-1.5-4.9-1.5-7.4 0-3.8.4-4.7 2.3-5.4 3-1.2 3.7-.6 3.7 3.5q0 3.3-1 2.9c-1.7-1.1-1.1.5 1.5 3.9 1.4 1.8 2.5 3.7 2.5 4.3 0 1 4.3 3.3 6.3 3.3q1.3-.1 2.5-2.1c1.1-1.8 1.1-2.4-.2-3.8-.8-.9-1.8-3.5-2.2-5.7-.6-3.8-.4-4.3 2.5-6.3 1.7-1.2 3.1-2.9 3.1-3.7 0-2.6 3-7.4 4.6-7.4q1.8.1 1-2.3c-.3-1.2-.6-3.2-.6-4.5 0-2.3-1.4-3-2.5-1.2M49.8 290.6q-1.5 1.6-9.7 2.1c-7.5.5-8.3.8-10.2 3.4s-1.9 3-.4 5.9c.8 1.6 2 3 2.5 3s.7.6.4 1.4c-.8 2.1 1.4 5.6 3.5 5.6q2-.1 2.5 3.4.7 3.4 2.6 4.1 1.8.8 2 1.8c0 .7 1.6 2.3 3.5 3.6 2.9 2 3.6 3.2 4.6 8.1q2.2 11.2 8.2 13.3c1.8.7 7.5 3.3 12.7 5.9 5.5 2.8 9.8 4.4 10.3 3.9s-.3-3.4-2-7c-2.6-5.3-3.2-6-4.3-4.6-1.6 1.9-6 2-6 .1 0-.7-2-2.1-4.5-3-5-2-5.1-2.2-6.1-12.9-.5-6.7-.4-7.7 1-7.7 2.8 0 1.7-1.7-2.2-3.2-3-1.2-4-2.3-5.1-5.5-1.6-4.8-1.2-5.7 3.9-8.3 5.4-2.8 8-11 3.4-11-.7 0-1.9-.9-2.6-2-1.5-2.4-5.7-2.6-8-.4m580.4 38.6c-1.3 1.3-1.6 7.5-.6 10.3.6 1.4 1.2 1.1 4-1.6q5.6-5.5 1.7-8.5c-2.2-1.7-3.6-1.7-5.1-.2M780 353c-.8.6-3.1.9-5 .8s-5.2.4-7.2 1.1c-3.4 1.1-3.8 1.6-3.8 4.6 0 2.8-.5 3.5-3.2 4.4-1.8.7-5.9 1.4-9 1.8q-5.7.6-7.4 2.4-3 3.4-6.9.5c-1.8-1.2-2.3-1.1-4.8 1-1.6 1.4-2.7 3.3-2.7 4.9 0 1.4-.7 3.9-1.6 5.6-1.4 2.8-1.4 3.2.6 6.4 1.2 1.9 2.9 3.5 3.7 3.5s3.7 1.3 6.2 2.9c5.7 3.6 13 4.4 16 1.7 1-1 3.6-4.6 5.7-8.2l3.7-6.4h4.9c6.4 0 8.8 1.3 8.8 4.9 0 2.5-.6 3.1-5.4 5-2.9 1.2-6.4 3-7.7 3.9s-4 2.2-5.9 2.7c-3.6 1.1-5.5 4.5-2.6 4.5.9 0 2.8 2.1 4.3 4.7l2.6 4.8 6.1.2c4.5.1 7.5.8 11.6 3 4.4 2.3 6.8 2.8 12.2 2.8 6 0 7.1-.3 9.4-2.7l2.7-2.6-3.5-4.9c-5-6.8-5.9-8.9-5.2-11.7.5-2.2.9-2.3 2.9-1.4 1.9.9 2.5 2.1 3.1 6.5.8 6.5 2.7 8.9 7.7 9.7 3.4.6 3.7.5 3.7-1.7a18 18 0 0 0-3-7c-4.5-7.2-7.1-12.7-6.5-13.7q.3-.9-1.9-1.6-2.4-.5-4.1-4.9c-1.2-3.3-2.7-5-6.1-7-4.8-2.8-5.2-4-2.9-8.6 1.5-2.9 1.5-3-1.4-4.7-2.3-1.3-2.9-2.2-2.5-3.9q.6-2.2-1.4-3.2c-2.5-1.3-2.3-1.3-4.2-.1m-269 17.9c0 .4-1.6 2.8-3.5 5.2s-3.5 5.3-3.5 6.3c0 1.1-.7 2.7-1.5 3.6-.9 1-1.3 2.4-.9 3.3.5 1.4 1.2 1.2 5-1.5 2.4-1.7 4.4-3.9 4.4-4.7s1.1-3.4 2.5-5.6c3.2-5.3 3.2-7.5 0-7.5q-2.3 0-2.5.9M82 376c0 2.4 2.7 6.3 5.4 7.7s3.1 1.4 4.3-.3c1.1-1.5 1-2.1-.5-3.7-3.1-3.4-9.2-5.9-9.2-3.7m390 4.2c0 .7 1.6 4 3.6 7.2s3.3 6.7 3.1 7.8q-.7 2 1.9 1.8c1.4 0 3.6.7 4.9 1.6 3.3 2.1 5 1.3 7.5-3.6 1.8-3.6 1.9-4.1.5-4.7-.9-.3-2.1-.1-2.8.6-1.6 1.6-2.2 1.4-3.5-1.4-.6-1.4-1.7-2.5-2.4-2.5s-3.3-1.8-5.9-4c-4.9-4.1-6.9-4.9-6.9-2.8m-15 2.3c-.5 1.4-1.6 2.5-2.4 2.5-1.4 0-4.2 3.8-3.4 4.5.2.1 1.7.6 3.5.9 2.5.6 3.2.4 3.7-1.2.4-1 1.8-2.4 3.3-3.1l2.6-1.2-2.3-2.4c-2.9-3.1-3.8-3.1-5 0m114.6 34.7-1.1 5.3c-1.7 8.4-1.7 8.5-.3 8.5 1.9 0 6.1 5.7 4.8 6.5-.6.3-1 1.6-1 2.8.1 2 .4 1.8 3-1.3 2.4-2.9 3.2-3.3 4.6-2.4q4 2.6.5 3.9c-2 .6-2 .8-.4 3.8 1.5 3.1 1.6 3.1 2.4.9.9-2.3 3.9-2.1 3.9.3 0 .9 1 .9 4.4-.2 3.9-1.3 4.4-1.8 3.7-3.6-.4-1.2-3.3-4.1-6.5-6.5-5-3.9-5.6-4.7-5.6-8 0-2.9-.8-4.5-4.2-7.9q-7.1-7.2-8.2-2.1m122.1 53.7c-1.7.6-1.7.8-.3 2 .9.7 1.6 2.6 1.6 4.1q0 4 4.5 4c.7 0 1.5-1.7 1.8-3.7 1-5.7-2.4-8.5-7.6-6.4m42.8 1.8c-6.8.6-11.9 4.4-11 8.2.8 3.3 4.9 7.6 8.7 9.2 4.1 1.7 10.3 14.4 9.4 19.3-.8 4.2-2.7 6.3-6.4 7.3-3.1.7-7.1 3.4-7.2 4.7 0 1.6 10.8 14.1 13.8 15.9l3 1.7.7-3.2c.9-4.3 2.2-5.8 5.1-5.8q4 0 3.5-4.8c-.1-1.4.9-3.6 2.8-5.8 3.4-3.8 5.1-8.6 3.3-9.2q-1.2-.5-1.2-8.2c0-4.4-.5-9.1-1.2-10.5-1-2.3-1-2.8.5-3.6q1.7-1 1.7-4.9.2-6.6-4-4c-1.8.9-2.3.6-4-2.3q-3.1-5.2-10.4-4.5zm-48 6.3c-.7 1.2.2 3 1.6 3q.8-.2.9-2c0-2.1-1.5-2.7-2.5-1m77.5 1.9c0 2.4 2 4.1 4.8 4.1 1.3 0 3.2.5 4.3 1q2 1.2 1.9-.3c0-2.1-3.5-4.8-7.4-5.7-3-.7-3.6-.5-3.6.9m-623.7 7q.6 2.2-1 2.1c-1.2 0-1.4.8-.8 3.7.7 4 2.9 8.8 4.4 9.7.5.4 1.5-1 2.1-2.9q1.7-5-1.9-12.4c-1.2-2.5-3.5-2.7-2.8-.2m-12.6 5.7a55 55 0 0 0 .1 9c.4 6.1.3 6.7-2.3 9.4-1.6 1.7-3.4 3-4 3-1.8 0-4.3-3.1-5.1-6.4-.6-2.4-.8-2.6-1.6-1.2q-1 1.5-2.2 1.6c-.8 0-1.6 1.7-2 4.2a39 39 0 0 1-2 7.2c-.7 1.7-1.9 5.5-2.6 8.5-1.2 5.2-1.2 5.5 1.1 7.2 3 2.3 7.5 2.5 8.3.3a33 33 0 0 0-.6-15.2q-1.5-1.3.8-1.2c1.8 0 2.9 2 7 13.5q1.3 2.6-1.1.5c-1.7-1.3-1.8-1.3-1.3 0l1.8 6.1c1 3.2 2.2 5 4.3 6.3 2.9 1.6 3.1 1.6 5.2-.4 3.1-2.9 5.6-2.5 11 1.6 3.7 2.9 5.8 3.7 9.6 3.9 4.5.2 4.9.1 5.8-2.8 1.6-4.4 1.4-5.4-1.9-9a76 76 0 0 1-11.6-16.2c-1.3-3.1-1.7-3.4-3.4-2.5-1.1.6-2.4.8-2.9.5-1.4-.8-2.4-6.7-1.3-7.4 1.2-.7-1.7-15.2-3.8-19.1-2.4-4.6-4.5-5.1-5.3-1.4m18.3 12-2.8 1.9c-.9.6 3.1 7.5 4.6 7.9 3.7 1.2 7.1-2.1 4.1-3.9-.5-.4-.9-2.1-.7-3.8q.5-5.7-5.2-2.1m455 57c-5.5 3.6-7.1 5.4-6.6 7.2 2.8 10.9 2.9 11 5 10.2 3-1.1 7.6 2.4 7.6 5.6q0 2.6 5.3 7.8a42 42 0 0 1 7.1 9.4c2.1 4.6 3.5 5.2 5.8 2.4 3.8-4.5 4.9-13.2 1.3-10.2-1.3 1-1.5.9-1.5-1.1a9 9 0 0 1 1-3.9q1.1-1.5-1.8-3.7c-2.2-1.7-2.5-2.4-1.4-3.4.6-.7 1.2-2.5 1.2-4 0-2.3-.5-2.8-3.7-3.3-9.3-1.6-9.2-1.5-10.3-5.7-.6-2.2-1.8-4.3-2.6-4.6q-1.2-.6-1.4-2.3c0-2.8-1.2-2.9-5-.4m-460.1 11.1c-1.7.4-3.9 7.5-3.9 12.7 0 2.5.6 3.5 2.5 4.4 1.4.6 3.2 2.9 4.1 4.9 3.5 7.9 3.8 8.4 6.7 9 2.1.4 3.4 1.7 5.2 5.3 2.1 4.1 2.7 4.7 4.9 4.3 2.9-.6 4.1-3 2.5-4.9-1.3-1.6.1-4.6 3.2-6.8 2.5-1.7 6.2-.5 9.4 3.2l2 2.4 1.9-2.1c1.8-2 1.8-2.1-1.7-5.3-1.9-1.8-4.3-3.8-5.3-4.4s-2.3-2.6-2.9-4.4c-1-3-1.9-3.6-8.4-5.8s-7.6-3-11.3-7.8c-3.8-5.1-5.1-5.8-8.9-4.7M824 591q-.1.9-1.6 1-2.1.3-4.6 2.5c-1.6 1.4-3.5 2.5-4.2 2.5s-2.2 1.1-3.5 2.3c-1.9 2.2-2 2.5-.6 3.7q1.6 1.3 1 4.1c-.9 3.9.8 4.3 4 .9 3.6-3.8 8.6-4.8 12-2.6 1.4.9 2.5 2.3 2.5 3.1 0 2.1 7.1 7.5 9.8 7.5 1.5 0 3.9-1.5 6.3-4 2.2-2.2 4.7-4 5.8-4s2.4-.7 3.1-1.5 2.4-1.4 3.9-1.3c2.9.2 7.1-1.7 7.1-3.2q-.2-1-1.5-1c-2 0-1.9-2.9.2-5.2 1.7-1.9 1.6-1.9-.9-1.3-1.6.4-3.8.1-5.6-.9q-7-3.6-5.8.9c.4 1.4.4 2.5.2 2.5-1.2 0-10.6-5.4-10.6-6.1 0-.5-3.8-.9-8.5-.9-5 0-8.5.4-8.5 1m-367.2 5.1c-3.6 1.4-3.6 4.3-.2 6.6l2.6 1.7-2.2 1.8-2.2 1.8h2.5c1.4 0 2.7.5 2.9 1.1.6 1.8 5.8-1.2 5.8-3.4 0-1.1.9-3.4 2-5.3s1.7-3.5 1.1-3.8a23 23 0 0 0-12.3-.5m-12.4 10.3c-.3.9-.3 2.4.1 3.3.6 1.7.7 1.7 2.1-.2.8-1 1.3-2.4 1.1-2.9-.6-1.7-2.7-1.8-3.3-.2m332.1 2.6c-1.1.4-3.3 2.2-4.9 3.8-2.7 2.9-3.2 3-10.8 3-8.2 0-11.8 1.5-11.8 5 0 .8-1.8 3.2-4.1 5.4q-4 4-3.7 6.1c.3 2 .8 2.2 5.3 1.9a20 20 0 0 0 10-3.4c2.9-1.7 6.9-3.3 9.5-3.6 5.4-.6 6.6-1.5 14.2-11.5l5.9-7.7-3.8.1c-2.1 0-4.7.4-5.8.9M555 610.5q-.1 1.3-1.3 1.5c-.8 0-1.9 1.1-2.5 2.5a44 44 0 0 0-.5 17.9c.4.3 3.5-2.4 6.9-6 7.2-7.8 8.5-11.6 5.2-15.1-2.5-2.6-7.8-3.2-7.8-.8m74 .4c.1 2.3 1.9 4.3 7.1 7.9 2.6 1.7 5.8 4.5 7.2 6.2 1.4 1.6 3 3 3.6 3 .5 0 1.9 1.3 3 2.9 1.8 2.5 2.5 2.8 5.3 2.2s3.4-1.2 3.6-3.5a14 14 0 0 1 1.8-5.1c1.2-1.8 1.2-2.8.3-4.8-1-2.1-2.3-2.8-6.8-3.7-3.1-.6-6.6-1.5-7.9-2a8 8 0 0 0-4.7-.4c-1.9.5-2.4.1-2.7-1.7s-.9-2.2-5-2.4c-3.8-.1-4.8.2-4.8 1.4m-10.5 27.7c1.6 3.9 1.1 7.8-1.3 10.6q-1.2 1.6-.4 1.8 1.1.4 1.7 3c.8 3.7 1.4 3.7 4.8.2 2.2-2.2 2.7-3.8 2.7-7.6 0-5.8-1.2-8.1-5-10.1-4.1-2.1-4.2-2-2.5 2.1m49.4-1c-1 1.2-1 2-.1 3.5.7 1 1.2 3.5 1.2 5.4v3.5l6.7-2.5c3.6-1.4 7.2-3 8-3.6 1.9-1.7 1.6-3.9-.7-3.9-1 0-3.1-.6-4.6-1.2-2.2-1-2.8-1-3.2 0-.6 2-3.2 1.4-3.2-.8 0-2.4-2.2-2.6-4.1-.4m-102.5 3.2c-2.1 1.3-4.6 7.3-3.6 8.5q.9 1.4-.3 8.9c-1 6.2-1 7.8 0 7.8 1.9 0 7.5-6.8 7.5-9 0-1.1 1.3-3.2 3-4.6 2.7-2.5 2.8-2.8 1.2-4a7 7 0 0 0-3.4-1.4c-1.4 0-1.8-.8-1.8-3.5 0-3.5-.6-4.1-2.6-2.7M805 662.1c0 5.2.4 7.2 2 9l1.9 2.4.1-2.4c0-1.4-.5-4-1.2-5.8-1-2.9-1-3.6.2-4.3.8-.5 2.3-.7 3.3-.4q3.2 1 .2-3.4a5 5 0 0 0-4-2c-2.4.2-2.5.5-2.5 6.9m-340.5-5.5c-3.8.8-13.3 5.9-14.5 7.8-2 3.1.3 4.3 4.5 2.3 2-.9 4.7-1.7 6.1-1.7q2.6 0 3.1-1.9c.3-1.1 2.2-2.7 4.4-3.5 2.1-.9 3.9-2 3.9-2.6 0-1-3.6-1.2-7.5-.4m-45.6 16.5c3.1 3.3 6.3 3.6 6.9.6.4-1.9-3.2-3.7-7.3-3.7h-2.4zm152.1 8.2c-2.8 2.2-5 6.1-5 8.9q0 4.7 3 1.3 2.8-3.2 4.8 1c.6 1.4 1.5 2.5 2 2.5 1 0 3.2-6.8 3.2-10 0-4-4.8-6.3-8-3.7m264.4.1c-.3.9-1.4 1.6-2.4 1.6-3.2 0-3.2 1.8 0 3.6 1.6 1 3 2.3 3 2.9 0 1.9 4.9 5.5 7.5 5.5q4.5-.1.5-3.7a10 10 0 0 1-2.6-4.8 9 9 0 0 0-3-4.8c-2.1-1.6-2.5-1.6-3-.3m-147.6 2.1c-2 1.4-3.9 3.4-4.3 4.5s-1.4 2-2.4 2-2.4.6-3.1 1.4a6 6 0 0 1-3.3 1.8 3 3 0 0 0-2.5 2.5q-.4 2.1-1.4 2.3c-1 .2-.4.8.4 1.7a14 14 0 0 1 2.1 6.2q.5 4.4 3.5 7.5c1.7 1.7 3.2 4.4 3.4 6q.6 6.1 5.4.7c1.5-1.7 3.7-3.1 5-3.1 1.9 0 2.6-1.2 5.3-9.3 1.7-5 3.1-10.5 3.1-12.1 0-3.5-4.9-14.6-6.4-14.6-.6 0-2.8 1.1-4.8 2.5m-34.8 7.2c-5.6 3.3-6.4 4.5-4.4 6 1.4 1 1.3 1.4-1 2.8-2.2 1.5-2.6 2.5-2.6 6.6 0 4.6.2 5 3.8 6.8l3.9 2 5.2-5.3c4.5-4.6 5.1-5.5 4.3-7.7q-1-2.4.6-5.7c1.4-2.8 1.4-3.4.2-4.2-.8-.5-2.7-.6-4.3-.3-2.7.6-2.9.5-1.8-1.6 1.4-2.6 1.6-2.6-3.9.6m193.5 10.5q.7 2.1.9 2.3c5.5 2.2 5.8 2.4 3.9 4.9-1.4 1.9-2.1 2.2-3.2 1.3q-1.7-1.5-.8.5l1.3 5.5c1 5.8 2.1 7.3 5.4 7.3 2.3 0 3-.5 3-1.9s.8-2.1 2.8-2.3c3.1-.3 4-3.5 2.2-8.2-.8-2.3-1.3-2.6-2.5-1.6s-1.8.6-3.6-2.4a17 17 0 0 0-6.1-5.7l-4-2zm-254.1 5.9 1.6 7.2c.5 2.7 1.6 6.1 2.2 7.5 1.5 2.9 3.8 4.1 3.8 1.9 0-.9 1.1-2.4 2.5-3.5s2.5-2.3 2.5-2.6c0-1.6-6.3-10.4-7.8-10.9-.9-.2-2.6-.8-3.6-1.3-1.7-.6-1.8-.4-1.2 1.7m45.2 0q-4.6 3.5-.7 9.2l1.8 2.9.6-2.4a44 44 0 0 0 1.4-11.8c-.2 0-1.6.9-3.1 2.1m-7.2 8q-1.2 2.3 2.6 1.7c2.1-.3 2.1-.3.1-1.5q-2-1.3-2.7-.2M744 722q-.2.9-1.7 1c-1 .1-3 1.8-4.5 3.9a15 15 0 0 1-6.2 5.2q-3.4 1.3-4.1 3.6c-.4 1.7-1.2 2.3-3.2 2.3-1.5 0-3.7 1-5 2.2s-2.3 1.6-2.3 1q0-1.1-1-1.2c-2.1 0-.9 3.7 1.5 4.8q5.2 2.4 7.5-.3c.7-.8 2-1.5 3-1.5s4.3-2.9 7.5-6.5c6.5-7.4 9.8-9.5 15.1-9.5h3.7l-4.4-3c-4.7-3.2-5.9-3.6-5.9-2m136.1 4.6c-3.8.8-6.9 2-7.4 3s-2.4 2.2-4.2 3-5.3 3.8-7.7 6.7c-3.3 4.1-5.3 5.7-8.5 6.5-4.1 1.1-4.3 1.3-4.3 5.1 0 3.1.6 4.4 2.6 6 3.8 3 4.4 2.7 4.4-2 0-5.5 2.8-7.8 9.4-7.9 4.1 0 6.2-.8 12-4.4 3.9-2.4 9.8-5.5 13.1-6.8 4.5-1.8 6.1-3 6.3-4.6q.5-2.3-1.6-2.2c-1 0-2.7-.9-3.7-2-2.1-2.3-1.9-2.3-10.4-.4M579.9 736a15 15 0 0 0-2.7 6.4c-.3 5.3-4.8 7.8-7.8 4.5-1.9-2.2-4.4-2.5-4.4-.7q.2 4.8 3.2 6.3c3.5 1.6 3.4 3.5-.1 3.5q-3.2 0-3.8-1.7c-.7-1.8-5.3-6.2-6.5-6.3-.9 0-3.1 13.7-2.4 14.9q.7.9 3.9 0c1.7-.5 6-.9 9.4-.9s7.3-.4 8.7-1c2.3-.9 2.6-1.5 2.6-6.2q0-9.8 2.4-9.8c.7 0 1.8-1.7 2.6-3.8l1.8-4.5q.2-.7-1.6-.7-2-.2-2.4-1.7c-.3-1.4-.9-1-2.9 1.7m10.6 6.8q-5 1-2 4.2c2.8 3.1 5.5 2.6 5.5-.9 0-3.4-.6-3.9-3.5-3.3m71.8 1.4c-2.5 3.2-2.5 9.8.1 9.8.6 0 2.7 2.3 4.6 5 2.8 3.9 4 4.9 6 4.7 2.2-.2 2.6-.8 3.1-5.2.7-5.7.2-7.2-3.2-8.9-1.3-.6-3-2.4-3.7-3.9-1.4-2.9-5.2-3.7-6.9-1.5m-13.8 9.8c-3.2 1.3-10.5 8.5-10.5 10.3 0 2.1 1.1 2.1 5.8.1 4.9-2 9.2-6.2 9.2-9.1 0-2.4-1.1-2.7-4.5-1.3m-34.2 7.8c-1.6 1-.5 5.2 1.3 5.2.7 0 2.1.8 3.1 1.9s2.8 2.2 4.1 2.5c1.9.6 2.2.4 2.2-2.2 0-2.2-.9-3.4-4.1-5.5-4.4-2.9-4.8-3-6.6-1.9m336.1 1a32 32 0 0 0-4.3 5.5c-2.7 3.9-2.9 4.8-1.7 5.3q1.5.6 1.6 2c.1 1.4.9 1.4 2 1.4q2 0 2 2.4c0 1.3.7 2.9 1.5 3.6 1.8 1.5 2.1.8 3-7.8.6-5.7.5-6.2-1.4-6.2-2.7 0-3.8-2-1.7-3.2.9-.5 1.6-1.6 1.6-2.3q0-2.5-2.6-.7M786 765.9q.2.9 1.5 2.1c1.8 1.5 2 3.9.3 4.1-.7.1-4.4.1-8.2-.1-6.4-.2-6.8-.1-6.1 1.6l1.9 4.9c2.3 6.3 4.2 8.2 7.5 7.7s3.9-2 2-3.9c-.6-.6-.9-2.3-.5-3.6.5-2.1 1.3-2.5 6.6-3.1q5.8-.7 6-1.9c0-1.9-7.3-8.7-9.3-8.7q-1.5 0-1.7.9m86.5 5c-.3 1-.1 3.1.5 4.5.8 2.2 1.5 2.7 3.6 2.4q5.4-.7 3.5-6.1c-.8-2.1-1.7-2.7-4-2.7q-3 0-3.6 1.9m-197.8 19.2q-2.1 1-.6 2.5a4 4 0 0 0 2.9 1.4q1.7-.1 2.4 3.7c1.2 7.6 1 8.3-2.9 8.3q-6.9 0 .6 3.8c3.8 1.9 4.2 1.9 7.2.4l3.5-1.9c.2 0 0-2.3-.4-4.9-.5-3.8-1.6-5.8-5.2-9.6-4.9-5.2-4.9-5.2-7.5-3.7m220.8.1c-.4 1-1.5 1.8-2.5 1.8-2.1 0-3.4 3.8-1.9 5.6q1 1.2 3.2.5c1.8-.7 2.4-.3 3.9 3.1 1.7 3.8 1.7 3.8 5 2.5 2-.8 3.4-2.2 3.6-3.4.3-1.7-.1-1.9-2.9-1.5-2.9.4-3 .3-2-1.6 1.6-3 1.4-4-1.1-4.8a8 8 0 0 1-3.5-2.3c-1.1-1.5-1.2-1.4-1.8.1m-226.3 4.3c.1 1.6.9 3 1.6 3.3 1.8.6 1.5-3.3-.4-4.9-1.4-1.1-1.5-.9-1.2 1.6m322.8.5a17 17 0 0 1-6 2.5c-1.9.4-7.1 2.6-11.5 5s-9.1 4.6-10.5 5a20 20 0 0 0-10.1 8.2c-1.2 1.8-2.7 3.3-3.4 3.3-2.2 0-5.5 5-6.1 9.2-.6 3.7-4.4 7.8-7.2 7.8-3.5 0-.3 8.5 3.6 9.5 1.8.4 2.2 1.2 2.2 4.8a73 73 0 0 1-1.9 12.8c-1.8 8.4-1.8 8.6.1 12.2l1.9 3.7 3.7-1.5c4.3-1.8 9.4-7.1 12.8-13.5 3.2-6.1 5.1-8.3 10.3-11.5 3.3-2 4.6-2.4 5.1-1.5a2 2 0 0 0 2.3.7c1.8-.7 2.8-5.6 1.5-7.7-.8-1.2-.4-2.6 1.6-5.5 1.5-2.2 3.2-4.2 3.7-4.6s2.1-3.8 3.4-7.7 3.2-8.4 4.2-9.8 1.6-3.8 1.5-5 .4-3.6 1.2-5.3c1.7-3.1 2.2-11.6.8-12.5-.4-.2-1.9.4-3.2 1.4m-276.1 9.1c-1.9 2.6-2 3.3-.8 4.5 1.8 1.8 9.9 2.8 11.9 1.5 1.2-.8 1.2-1.3-.4-3-1-1.1-3.4-3-5.2-4l-3.3-2zm-318.1 1.1c-.9.7-2.1 3.1-2.7 5.2-.8 3.2-.8 4.3.4 5.6 1.6 1.8 2 8.5.6 9.4-.8.5 1 11.2 2 12 .2.2 2.9 1.3 6.1 2.6 7.4 3 8.8 2.4 8.8-3.9s.7-8.1 3.1-8.1c1 0 1.9-.4 1.9-.9s.3-1.6.6-2.5q.6-1.5-2-2.7c-1.4-.7-2.8-2-3.1-3.1q-.8-1.7-2.3-1.8c-3-.1-6.3-3.8-6.9-7.7q-1.4-7.8-6.5-4.1m519.5 21c-3.2 1.5-2.9 3.8.4 3.8 3.7 0 9.4-2.2 9-3.5-.5-1.4-6.7-1.6-9.4-.3m-34.8 49.6c-1.9 1.3-4.7 8.1-4.1 9.7.3 1-.2 2.7-1.3 4.1-1 1.3-2.2 4.9-2.6 8-.4 3.2-1.1 6.4-1.5 7.3s-1.3 3.5-1.9 5.8q-1.2 4.3-4.6 6.9c-3.7 2.8-3.6 4.2.5 8.9 2.4 2.7 3.4 12.5 1.6 15.1-1.6 2.2-.5 5.4 1.9 5.4q1.3.1 1.5 1.5c0 1.8.5 1.8 3 .5q1.8-1 1.3-3.1c-.7-2.4 2.9-5.8 6-5.9 2.4 0 2.2-3.5-.4-5.3-1.7-1.3-1.9-1.8-.8-3.5.9-1.5.9-2.3 0-3.3-.6-.8-2.3-3.1-3.7-5.3-2.2-3.4-2.4-4.2-1.4-7.2a9 9 0 0 1 2.1-3.9c.5-.4.9-1.7.9-3.1s.7-3.5 1.5-4.8a10 10 0 0 0 1.4-4.7c-.1-1.3.4-5.6 1.1-9.4 1.1-6 1.4-13.4.7-14.2q-.4-.1-1.2.5m-394.7 34.5a13 13 0 0 0-1.1 8.2c.3 2.7.6 7.5.7 10.5l.1 5.5-3.7.3c-6.3.5-7.4-.7-8.1-8.9q-1.5-15.8-3.6-.2l-1.7 11.8c-.3 1.6-.5 4.3-.5 6 0 1.6-.7 5.2-1.6 7.8-.8 2.7-1.3 6.5-1.1 8.5q.5 3.8-1.1 4.8c-1.4 1.1-1.4 1.5-.1 4 .8 1.5 2.2 2.9 3.1 3.1s2.1 1.5 2.7 2.8c1 2.2 1.4 2.2 12.4 1.9 6.3-.1 12.6-.8 14.2-1.4s3.3-.7 3.9-.3c2.5 1.6 10.2 3 13.7 2.6 3.4-.5 3.9-.2 5.6 2.5l1.8 3.1 8.4-.5c7.4-.4 8.7-.2 11.3 1.7s3.8 2 9.7 1.4a33 33 0 0 0 8.5-1.7q2-1.1 3 .5c2.3 2.7 6.2 4.7 9.3 4.7 2.5 0 3.9.8 6.1 3.5 2.7 3.2 3.5 3.6 10.8 4.5 4.4.6 8.7 1.2 9.6 1.5 1.9.6 4.1 5.3 4.1 8.7-.1 5.1-1.5 12.8-2.3 12.8q-.8.2-.9 2 0 3.9 7.3 0c3.2-1.7 4.6-1.9 9.2-1.2 3 .5 5.9.5 6.6.1s2-.2 3 .4q1.8 1.2 4.1-.1c1.3-.6 5.7-1.6 9.8-2.2a86 86 0 0 0 21.5-5.1 41 41 0 0 1 22.6-2c6.4 1 9.1 1 11.4.1 1.7-.7 8-1.2 15-1.1 10.6 0 12.8-.3 18.3-2.5 7.7-3.1 13.4-3.5 16-1.1 1 .9 3.5 1.7 5.5 1.7s3.7.4 3.7 1c0 1.5 3.6 1.2 9.3-.7a13 13 0 0 0 7.9-6.2c1.5-2.5 2.8-5.5 2.8-6.7s.7-2.7 1.5-3.4q1.4-1.3.9-3.5c-.4-1.7 0-2.6 1.5-3.5q3.7-2-1.5-4c-5.2-2-3.3-7.1.1-11.6 2.7-3.6 3.4-7.7 1.1-6.8-.7.3-1.8 1.6-2.4 2.9a6 6 0 0 1-3.7 3.1c-1.4.3-2.5 1.3-2.5 2.2 0 2.2-7.7 9.2-10.1 9.2q-2-.2-2.5-1.8c-.7-2.3-9.5-2.3-12.2.1-1 .9-2.3 1.7-2.9 1.7s-1.6.7-2.3 1.5-2 1.5-3 1.5c-3 0-10.6 4.9-11.9 7.6-1 2.2-1.6 2.5-4.1 2-1.7-.3-4.2-1.3-5.6-2.2-2.4-1.6-2.5-2.1-2-7.6l1.2-11.7c.3-3.3 1.2-6.5 2-7.2 2.9-2.4 1.5-3.6-5.2-4.2a36 36 0 0 0-20 3.5c-2.3 1-5.5 2-7.2 2-3.6.1-8.2-2.6-8.2-4.7 0-1.2-2-1.5-11.2-1.6a103 103 0 0 1-13.8-.8c-1.3-.4-4.6-.2-7.2.3-4.2.9-5 .8-6.2-.9-.9-1.2-1.2-3.2-.9-5.2.5-2.8.3-3.3-1.5-3.3-1.1 0-2.2-.6-2.4-1.2q-.4-1.4-3.1.5c-2.4 1.5-3 1.6-5.5.3-2-1-4.2-1.2-8.9-.5-3.9.5-7.2.5-8.8-.1-1.5-.6-5-1-8-1-4.1 0-6 .5-8.2 2.3-4.2 3.5-8.8 4.8-18.5 5.2-4.8.2-9.6.8-10.5 1.3s-4.1.7-6.9.4l-5.2-.4-1-8c-.5-4.3-1.2-8.2-1.5-8.4s-1.8.1-3.4.9c-2.5 1.3-3.4 1.3-8.8-.7q-6-2.1-6.3-3.9c-.3-1.7.1-1.8 5-1.3s5.4.5 7.1-1.9c1.7-2.3 1.7-3 .5-6.8-1-3.1-2.2-4.6-4.7-5.9-3.1-1.5-3.6-1.5-5.7-.1a5 5 0 0 0-2.4 4.3q-.2 2.6-1.5 3.4-1.4.6-1.5 2c-.1 1.4-.8 1.7-1.8 2-3.4 1.1-10.4.9-11.1-.3-.4-.6-1.5-.9-2.5-.5s-4.4.1-7.7-.6c-4.7-1-6-1.7-6.3-3.4a82 82 0 0 1-2.3-15.5c.1-1.4-.6-2.9-1.8-3.7-1.9-1.2-2.2-1.1-3.7 1.9M852.3 947c-6.1 1.8-11.3 6.3-11.3 9.7q.1 2.1 1 2.3c3.1 0 17-9.4 17-11.5 0-2.2-1.2-2.3-6.7-.5"/></svg>