<svg xmlns="http://www.w3.org/2000/svg" width="1365.333" height="1365.333" viewBox="0 0 1024 1024"><path d="M132.6 159.6c-.5 1.3-1.4 1.5-4.1 1.1-2.8-.5-3.3-.3-2.8 1q.5 1.6-1.8 3.4-3 2-.6 1.9 1.7 0 1.7 2.4.1 2.4 1.7 2.8c.9.2 1.8 1.4 1.9 2.8l1 5.9c.7 3.3.6 3.4-2.2 2.6-9-2.2-16.4-1.4-16.4 2 0 .7-.7 2.1-1.6 3-1.5 1.5-1.8 1.4-4.2-.1-2.4-1.6-2.8-1.5-8.1 1.1-11.6 5.8-11.2 5.6-12.8 4.3-.8-.6-2.1-2.4-2.9-4-.8-1.5-1.9-2.8-2.5-2.8s-3.7-1.5-6.8-3.4c-7.2-4.3-21.5-6.5-26.4-4.1-1.7.8-4 1.5-5.2 1.5-3.1 0-11.7 3-13.8 4.8-1.9 1.7-1.5 4.1 1.4 8.4 2.3 3.2 2.4 5.1.4 6.8-1.3 1.1-2 .9-4.2-1.1a20 20 0 0 1-4-5.8c-1.8-4.1-5-7-8-7.1-1.2 0-2.9-1-3.8-2.3l-1.6-2.2-3.4 4c-3.3 3.8-3.4 4-1.3 4.3 1.2.2 3.6 2 5.4 3.9 3.4 3.7 3.5 5.3.2 11.9-1.9 3.6-3 10.4-1.8 10.4q.8.2 0 2.6c-1.3 3.3-1.4 3.2 1.4 2.7q5.5-1 .6 5.2c-4.4 5.5-2 7.8 3 3 2.3-2.2 2.9-2.4 5.8-1.3 1.7.7 3.5.9 3.9.5 1.4-1.4.2-8.1-1.7-10-3.3-3-2.6-5.5 1.8-5.9l3.7-.3-.3-4.8c-.4-5.2.4-5.7 4.8-3.2a14 14 0 0 0 5.3 1.5c2.2 0 2.7.4 2.7 2.5 0 2.8.3 2.9 3 1.5q4.3-2.3 6.2 4.2c1.5 4.9 5.1 7.7 7.9 6 1-.7 2.6-1.2 3.4-1.2s1.5-.7 1.5-1.5c0-1.9 2.7-1.9 6 0 3.8 2.1 8.7 1.9 10-.5.6-1.1 2-2 3-2q2.1.1 2-2.5c0-2.2.3-2.4 3-1.9 2.5.6 3 .3 3-1.3 0-4.3 6.4-7 9-3.8 1.1 1.3.8 2-1.5 4.5-2.7 2.9-2.9 6.5-.2 5.5.7-.3 2.3.8 3.5 2.5 2.9 3.9 5.2 3.9 5.2 0q0-3 1.7-3c.9 0 2.5-.8 3.5-1.7 1.8-1.6 2.2-1.6 4.6-.2 2 1.1 2.7 2.3 2.8 4.5.2 6.8 2.7 7 9.7.9 5.4-4.7 8.6-5.6 10.7-3 1.8 2.1 7.7 1.9 8.9-.3.5-1 .7-3.7.4-6-.5-3.9-.4-4.2 1.8-4.2 1.3 0 3 .4 3.8.9q1.5.9 5.3-.6c2.1-.8 4.5-1.3 5.3-.9 1.7.6 2.1 6.1.5 7.1-.5.3-1 1.3-1 2.1q-.1 1.5 4.1 1.4c2.2 0 4.8.4 5.8.9 1.2.7 3.5.1 8.1-2 8.6-3.8 11-3.8 11 0 0 3.6-3.5 8.1-6.3 8.1-1.2 0-4 1.5-6.2 3.3-3.1 2.4-4 3.9-4 6.2 0 3-.1 3-7 3.8-13.8 1.6-13.6 1.5-20.2 8.2-3.4 3.4-7.1 6.9-8.3 7.8-1.8 1.2-2 1.9-1.1 3.5.8 1.5.7 2.3-.5 3.3-2.3 1.9-.5 2.8 7.2 3.2 3.9.3 8 1 9.3 1.6 2.3 1.3 4.1.7 4.1-1.3 0-.7.8-2.1 1.9-3 2.5-2.3 6.5-1.2 9.2 2.5a9 9 0 0 0 4.4 3.5c3.8.9 5.2 3.2 3.2 5.1-1.3 1.3-2.1 1.4-4.1.5s-3.3-.6-7.8 1.8c-2.9 1.6-8.2 4.3-11.8 6-7.7 3.6-15.8 9-16.5 10.8-.9 2.3.4 3.2 3.1 2.2 4.7-1.8 9.6-.2 12.9 4.2 2.8 3.7 3.3 3.9 6.5 3.3 5.7-1.1 7.3-1.1 7.7.2.2.7-1.1 1.8-2.9 2.6s-4.1 2.4-5.2 3.5c-1.6 1.9-1.7 2.5-.6 5.2q2.7 6.6 7.6 3.3c2.5-1.6 2.8-1.6 6.9.6 3.1 1.6 5.5 2.1 9.1 1.9l4.9-.3-.2 4c-.2 3.7-.1 3.9 1.2 2.1a8 8 0 0 0 1.5-3.9c0-1.7.5-1.9 3.1-1.3 1.8.3 3.8.1 4.5-.5s2.1-.9 2.9-.5q1.5.6 1.5-1.4c0-2.3.1-2.4 5.1-.8 3.5 1 4.2.9 6.2-.9a29 29 0 0 1 6.2-4c3.6-1.6 4-2.2 4.3-5.9q.3-7.2-5.2-7.4c-1.2 0-3.1-.6-4.1-1.4-1.8-1.3-1.8-1.5-.1-4.1 1.3-2 1.5-3 .7-3.8-1.6-1.6-1.3-4.4.5-5.1q5.4-2 7.1 2.3c1.7 4.3 1.1 2.9 9.1 2.8 7.4 0 8.1-.2 8.4-2.1q.2-2.2 2.8-2.1c2.2 0 2.5-.5 2.8-3.8.3-2.9.7-3.7 2.3-3.7 4.7 0 8 4.6 4.8 6.6-2.3 1.4 3.4 4.4 8.3 4.4 5.9 0 7.8.7 7.8 3 0 1 .7 2.3 1.5 3 2 1.6 14.4 4.2 15.8 3.3a43 43 0 0 1 10.2-.8 219 219 0 0 0 35.6-3.7c2.2-.6 4.3-.7 5-.2s2.3 1 3.4 1.1l6 .7c2.2.3 5.6.6 7.6.5 2.6 0 5 1.1 9.2 4.2 5.9 4.4 6.7 5.8 4.3 7.8-1 .8-3 .6-8.1-1-5.7-1.7-7.2-1.9-9.4-.9-1.4.7-5.1 1.5-8.1 1.9-4.7.5-5.5.9-6 3.1-.5 1.9-1.2 2.4-3.1 2.2-5.4-.7-11.7-.2-16.4 1.2a38 38 0 0 1-10 1.6c-5.3 0-13.9 3.4-16.4 6.3q-1.4 1.7-5.7 1.7c-2.4 0-4.4.2-4.4.5s1.5 2 3.4 3.8q5.7 5.4 5.6 9.7 0 2.2 2.1 2.7 2 .6 1.6 2.4c-.6 2.3 1.1 2.9 4.1 1.6 1.8-.8 3.1-.7 5.5.5 1.8.9 4.4 1.9 5.9 2.2 3.6.8 11 6.6 12.6 9.9 1.6 3.2 3.1 3.4 6.5.7q5.2-4.1 4.5.7c-.2 2.1-1.4 3.3-4.6 5a34 34 0 0 0-5.8 3.8c-.9.8-3 1.5-4.7 1.4-5.6 0-10.1.7-12.5 1.9-1.3.8-3.6 1-5.6.7s-3.6-.2-4 .4-2.2 1.1-3.9 1.1c-4.4 0-9.1 4.3-7.7 7 .6 1.1.8 4.3.4 7.5q-1 8.4 2.6 4c.7-.8 2.1-1.5 3.1-1.5s2.1-.5 2.4-1c1-1.7 3.9-1.1 5.3 1 1.2 2 1.2 2 4.4 0 3.9-2.4 10.8-2.7 10.8-.6 0 .8-1.6 2.4-3.5 3.6s-3.5 2.4-3.5 2.6 2.3.2 5.2 0c4.1-.3 5.3-.8 5.9-2.4a6 6 0 0 1 2.5-3c2.3-1.3 10.5-.3 12.6 1.5 2.3 2 4.8 1 4.8-1.9q-.2-5.6 4.8-4.3c4.3.9 7.2-.9 7.2-4.5 0-2.3.5-3 2-3 1.6 0 1.9-.5 1.4-2.9-.7-3.1 1-7.1 2.9-7.1.7 0 1.8.9 2.5 2 1.8 2.9 4.1 2.5 5.3-.9.8-2.3 1.7-3 4.7-3.3 5.1-.7 5.9-.2 6.7 3.8.4 2.6 1.6 4.1 4.7 6l4 2.6-3.1 3.2a17 17 0 0 0-3.1 3.8c0 .9 9.3 3.3 11.6 3a11 11 0 0 1 4.8.8c2.3.8 3.2.7 5.3-1 1.4-1.1 3-2 3.5-2 1.8 0 7.8 6.8 7.8 8.8 0 3.6 3.6 4.7 8.2 2.6 3.7-1.7 4.2-1.7 7.1-.1 1.8.9 4.3 1.7 5.7 1.9 3.2.4 3.9 4.9 1.5 9.4-1.6 3-1.6 3.4 0 6.4l1.7 3.3-3.8 3.4a40 40 0 0 1-7.1 4.9c-4.1 1.8-4.1 2.9-.3 4.9 1.7.9 3 2 3 2.5s2.8 1 6.3 1c5.7 0 6.6.3 9.2 3 1.6 1.6 3.7 3 4.7 3s2.2.8 2.5 1.7c1.1 2.8 5.5 6.2 9 6.9q3 .6 3.6 2.5a3 3 0 0 0 2.6 1.9c1.1 0 2.6.9 3.3 2a5 5 0 0 0 4.1 2c3.6 0 6.7 1.6 6.7 3.5 0 2.5 4.5 1.7 6.9-1.1 2.1-2.4 2.8-2.6 7.1-2 6.1.8 7.5-.6 6.6-6.7-.6-4.2-.5-4.4 2.8-6 4-1.9 12.4-1.1 15.4 1.5.9.9 3.9 1.8 6.6 2.1q5 .4 6.5 2.5c1.2 1.5 3 2.2 6.5 2.4 2.7.2 5.1.8 5.3 1.4.7 2.1-2.7 4.3-7.5 4.9-2.6.3-5.5 1-6.5 1.6q-1.7.8-2.8.3c-.6-.3-2.9.7-5.2 2.3s-4.8 2.8-5.6 2.8-1.6.6-1.9 1.4q-.7 1.6 2.4.7l6-1.3 3-.5-.1 6.4c-.1 3.4-.4 6.9-.6 7.6-.2.8.6 2.1 1.8 2.9 1.9 1.3 2.3 1.3 2.7.2 1.3-4.3 1.7-5 3.1-5.6.9-.3 2.8 0 4.3.8l3.5 1.7q.7.1.7-2.2c0-3.1 1.3-4 4.7-3.1 2.2.5 2.4 1 1.8 3.3-2 7.3.5 15 4.5 13.7.9-.3 3.6.2 6 1 3.9 1.4 4.5 1.4 6 0 2.4-2.2 3.8-1.9 5.5 1.5.9 1.7 2 2.8 2.5 2.5s1.8 0 3 .7c2.5 1.6 2.7 6.6.3 7.5-1 .3-2.5 1.2-3.3 1.9s-2.8 1.4-4.5 1.6c-2.7.3-3 .6-2.8 3.4.2 1.9-.4 3.7-1.2 4.4s-1.5 2.7-1.5 4.5q0 6.5-2.6 6.5c-1.5 0-1.8 1.2-.7 2.4.4.4.8 1.5.8 2.4q-.1 1.8 2.7 1.4c1.7-.2 4 .6 5.9 2 2.3 1.7 4.2 2.2 7.7 2.1 3.6-.1 5.4.4 8 2.3 2.9 2.3 3.5 2.4 6.6 1.3 4.1-1.5 6.6-.1 6.6 3.6q-.1 4 5.5 4.7c2.3.2 3 .8 3.1 2.6.1 1.2.4 2.5.7 2.8.8.8 4 .8 6.3 0q2.1-.6 4.4 1.2c2.3 1.8 2.4 1.8 4.2 0 2.7-2.7 11.7-2.5 14.7.3 1.3 1.2 2.1 3 1.9 4.2-.3 1.9-.9 2.2-3.8 1.9-3.5-.3-3.5-.3-3.7 4-.1 3.8.4 4.8 4.5 9l4.5 4.7 2.8-1.9c3.4-2.5 4.6-2.5 5.4 0 1.2 3.9 3.5 1.5 3.5-3.7 0-2.5.1-2.6 5-2 4 .5 5 .3 5-.9 0-2.1 2.4-2.7 6.2-1.6 8.3 2.5 8.6 2.5 9-1 .2-2.5.8-3.3 2.3-3.3q1.9.1 2.3 2c.7 4.6 1.3 5.1 2.8 3 1.3-1.8 1.7-1.8 4.7-.5 1.7.7 6.7 1.5 11 1.8 6.6.3 7.7.6 7.7 2.2q-.1 4.1-6.4 3.7c-2.7-.1-4.1.3-5 1.5q-3 4.8 7 5.9a52 52 0 0 1 11.2 2.5l5.2 1.9-.4 9-.4 9-5.4.1c-6.8.1-7.4.5-8.1 5.1-.3 2.1-.8 4.6-1.2 5.5-.5 1.4.6 2.3 5.8 4.8 3.5 1.6 6.9 3 7.6 3s1.7 1.1 2.3 2.5c.9 2 1.9 2.5 4.6 2.5q3.5 0 5.9 2.6c1.8 1.9 3.1 2.5 5.6 2.2 3.1-.3 3.2-.2 3.4 3.7.3 7.2 1.4 11.5 3 11.5q1.6-.1.9 2.7c-.5 2.4.3 3.7 4.9 8.7a24 24 0 0 1 5.5 7.7c0 2.4 3.8 8.7 6 9.9 1 .6 2.9 1 4.3 1 3 0 6.3 3.5 7.2 7.8.5 2.6.3 3.3-1.2 3.9-3.9 1.4-4.3 2.3-2.6 5.7a22 22 0 0 0 4.9 5.9q3.3 2.8 3.4 5.2c0 2.6 1.5 4.1 2.5 2.5 1-1.7 2.5-1.1 2.5.9 0 1.1.5 2.3 1.1 2.7.6.3.8 2 .5 3.8-.5 2.7-.1 3.8 2.5 6.7 2.8 3.1 3 3.8 2.4 8.4-.3 2.7-1.3 5.8-2.2 6.7-2 2.2-.9 3.8 2.7 3.8 3.7 0 4.5 2.5 2.1 6.3l-2 3.1 4.5 5.2c2.4 2.9 4.4 5.7 4.4 6.3s1.3 1.7 3 2.6 3 2 3 2.5q.2 1 1.9 1c2.9 0 7.1 5.6 7.1 9.4 0 2.7-.6 3.5-3.2 4.7-4.8 2.1-4.7 3.8.1 3.2 3.5-.5 4.1-.3 4.1 1.2 0 1-.7 2.7-1.7 3.7-2.4 2.7-.8 3.4 3.4 1.4s5.7-.9 4.9 3.6c-.5 2.5-.3 2.8 2.4 2.8 2.8 0 3 .3 3 3.5 0 4 .5 4.2 3.3 1.8 1.8-1.7 1.9-1.7 3.3.2.8 1 1.4 3.1 1.4 4.5s.6 3.4 1.3 4.4c1.2 1.7 1.4 1.6 2.5-.8 1.4-3 5.2-3.6 5.2-.8 0 2.9 5.4 7.3 10.1 8.3 5.8 1.3 10.9 6.8 10.9 11.6 0 3.4.1 3.5 3.5 3.1q3.6-.5 5.1 1.3c1.5 1.7 1.4 2-.5 4.5-1.6 2.1-1.8 3-1 4 1.6 2 3.9 1.7 3.9-.4 0-2.6 4.6-5 6.8-3.5.9.6 1.6 1.9 1.4 2.9l-.5 4.4c-.2 2-.8 2.6-3.5 2.8-2.4.2-3.6 1.1-4.7 3.2-1.9 3.7-1.9 5 0 5q1.4 0 1.5 2.4c0 2.9 3.5 4.1 7.4 2.6q2.6-1 5.3.1c4.3 1.6 5.6.5 4.8-4.1-.6-3.5-.5-4 1.3-4q3.2 0 3.2 5.1c0 2.9 5.1 2.5 8.9-.7 3.6-3 3.7-3.7 1.1-8.6-1.6-3.1-1.7-3.8-.5-4.8 1-.9 2-.8 4.3.4 4.6 2.4 5.7 4.2 4.3 7.2-.6 1.4-1.1 3.4-1.1 4.4 0 2.1 2.4 2.7 3.5.9q.7-1 2.7.7c1.6 1.6 2.1 1.6 2.8.4 1.2-1.9 1-14.9-.2-15.6q-.7-.6-.8-2-.1-1.6 2.8-1.2c2.4.3 2.7.7 3 4.7.2 2.5 1 5 1.8 5.5s2.2 2.6 3.2 4.5c2.3 4.7 3.8 4.9 5.6.6.9-2 2-3.4 2.5-3.1 1.2.8 2.1-4.5 1.1-6.5-.5-.9-2.5-2.8-4.5-4.3-3.3-2.5-5.1-7.5-2.2-6.3a70 70 0 0 0 15.2 5.7c2.9 0 6.7-2.9 5.8-4.3-.5-.7-.8-2.3-.8-3.7 0-2.2-.5-2.6-4-3-3.2-.4-4.1-1-4.3-2.7-.4-3-6-7.6-8.1-6.7-.9.4-2.5.6-3.6.6l-3.9-.2c-1.1-.1-3.8 1.7-6 3.9q-6.8 6.7-12.2 2.6a9 9 0 0 0-4.7-1.5c-3.4 0-4.8-2.8-2.3-4.6 1.5-1.1 2.6-1 6.5.5q7.8 3 9.7-2.1c.3-1.1 1.9-2.4 3.5-3 4-1.4 3.7-3.2-.3-2.4q-3.2.6-6.5-1.4c-2.7-1.6-4.6-1.9-12.2-1.5l-8.9.3-2.6-3.6c-1.4-2-2.2-4-1.7-4.5s4 .1 8 1.3c5.4 1.6 7.6 1.8 9.1 1 2.9-1.6 2.5-2.7-1.9-5a18 18 0 0 1-4.8-3.2c-1.5-2.4-7.2-5.8-9.6-5.8-1.2 0-2.7-.4-3.3-.9s-3.5-2.4-6.7-4.1c-4.4-2.3-6.6-3-8.8-2.5s-3.1.2-3.5-1q-1-2.3 3.1-3.9.9-.4-.2-1.7c-2-2.1-1.5-4.8 1-5.4 2.4-.6 12 3.8 19.7 9.1s10.8 6.6 12.9 5.4c4.5-2.3 9.6-.5 7.1 2.5-1.8 2.1.1 4 7.9 8 3.6 1.9 8 4.3 9.6 5.4 3.5 2.4 11 2.8 13.8.6q2.9-2.1 6.7 1.1c.8.7 2.6 1.2 4 1.1s3.4.2 4.5.6q2 .7 5-1.7c2.6-2.1 2.8-2.7 1.7-4.3-2.4-3.5-2.4-4.3-.2-7.8q4.7-7.2 7.1.5c1.4 4.5 3.4 5.2 4.3 1.5.9-3.6 2.8-4 7.5-1.6 3.1 1.6 4.6 1.9 6.5 1.1a8 8 0 0 1 3.8-.5c.7.3 3.8-.1 6.8-.8l5.5-1.3-.3-5.3-.3-5.3 4 .7c3.7.6 4.2.4 5.2-1.9 1-2 .9-2.9-.2-4.2-1.2-1.5-1.1-1.9.9-3.2a5 5 0 0 0 2.2-3.8c0-2.4-.8-2.8-4.4-2.4-1 .1-2.7-.8-3.7-1.9q-3.4-3.7-4.5-.6c-.8 2-4.2 2.9-5.9 1.5-.8-.7-1.5-2.8-1.5-4.7 0-4.1-2.2-5.3-5-2.8-1.7 1.5-2.4 1.6-4.6.7-2.4-1.2-2.5-1.5-1.8-7.2.5-5 .4-6-.9-6-.8 0-1.8-.7-2.1-1.6q-.5-1.6-3.4-.9-2.9.6-4.1-.9c-.7-.9-4.1-1.7-8.6-2.1-8.8-.9-11.6-2.9-9.7-7 1-2.1.7-2.8-2.1-5.7s-4-3.4-9.7-3.8c-6.4-.5-6.5-.5-6.5-3.5q-.1-3 2.5-4.2a32 32 0 0 1 16.6-.3c1.5.6 3.1.7 3.5.3 1.3-1.3-.7-12.9-3-17.7-2.5-5-2.5-6.4-.6-9q1.4-1.8.5-3.7c-.6-1-1-3-1-4.6 0-1.7-1.4-4.6-3.6-7.3-1.9-2.4-3.8-5.7-4.1-7.2s-1.2-2.9-2-3.2q-1.6-.6-.8-3.4c1-4 2.4-5.2 6.2-5.2h3.4l-.7-5c-.6-4.7-.5-5 2.1-6.2 2.8-1.3 2.9-2.7.9-9.6-.5-1.8-.3-2.2 1.8-2.2 1.3 0 2.9.5 3.6 1.2 1.9 1.9 2.2.4 1.1-5.6q-1-5.9 0-8.5c.5-1.4 1.1-3.7 1.3-5.1q.2-2.5 3.6-4c2.5-1.2 3.1-1.9 2.6-3.5-.3-1.1-.7-3.5-.8-5.3-.2-1.9-.9-3.8-1.7-4.3q-2.8-1.6-2.9 0-.1 1-2.1 1.6c-1.6.5-1.9 1.4-1.7 3.8.3 2.7-.1 3.3-2.2 3.5a16 16 0 0 0-5.8 3.3c-1.8 1.6-4.2 2.9-5.3 2.9s-3.6 1.7-5.7 3.8c-2 2.1-5.8 4.6-8.5 5.6-5 1.9-5.1 2-6.2 10.8-.8 6-2.2 6.9-5.2 3.4-2.7-3.1-3.1-8.7-.8-10.6 1.9-1.6 1.9-3 .1-3-.8 0-2.9-1.8-4.6-4l-3.2-4.1-3.5 2.1c-4.9 2.9-10 2.6-13.5-.7q-3-3-2.8-1.1c0 2.5-8.1 4.4-11.7 2.7-3.9-1.9-6.6-7.9-6.7-15.1-.1-6.6 1.5-8.8 6.5-8.8q5 0 2.8-6.7c-.6-1.9-.8-4.6-.4-6l.6-2.6 8.6.7 8.6.6 3.1-3.6c2.8-3.2 3.8-3.7 9.6-4.3a38 38 0 0 0 7.8-1.4c2.2-1.5.2-2.7-4.3-2.7-3.4 0-5.2-.7-7.7-2.8a31 31 0 0 0-5.9-3.9c-3.1-1.4-4.9-7.1-3.8-12.3 1.3-5.8-.9-8-8.1-8-5.1 0-6.1-.3-7.8-2.5q-2-2.4-3.5-1.9c-.9.3-2.7-.2-4.1-1.1-2.4-1.6-2.7-1.6-5.2.4-2 1.6-3 1.8-4.6 1-1-.6-2.2-1.7-2.5-2.5-.6-1.7-3.3-1.8-6.8-.2-2.2 1-2.8.9-4.1-1-.9-1.3-2.6-2.2-4.1-2.2s-4.5-1.6-7.4-4.1c-6.1-5.1-7.1-8.8-4-15.9 1.2-2.8 1.9-5.5 1.6-6s.4-2.7 1.7-4.8c2.2-3.9 2.2-4 .2-6.7-4.1-5.8-4.5-7-4-11.3.3-2.3 1.3-5.6 2.1-7.2 1.8-3.4.4-4.1-3.1-1.5-2.6 1.9-6.3 1.9-8.6-.2-1.7-1.5-2-1.5-4.8.5-1.6 1.2-4.3 2.2-6 2.2s-3.8.4-4.8.8l-4.9 2.5c-2.9 1.4-3.4 1.4-4.8.1-1.9-1.9-1.9-2.5 0-5 .8-1 1.5-3.3 1.5-4.9 0-2.4 1-3.8 5-7 2.8-2.2 5.3-4.8 5.6-5.8.3-1.1 2.2-3.7 4.1-5.8 3.4-3.8 3.5-4 1.8-5.3-1.9-1.4-6.8-.5-8.1 1.5-.3.5-1.4.9-2.5.9-1.9 0-2-.4-1.4-3.9.8-4.8-.4-5.7-4.6-3.5-2.6 1.3-3.3 1.4-4 .2-1.7-2.6-.8-3.9 4.9-6.6 4.7-2.2 5.8-3.2 6-5.5.3-2.1-.1-2.7-1.6-2.7-1.1 0-2.5.7-3.2 1.5-2.9 3.5-5.6-.4-3.1-4.4q1-1.6-.4-4.8-1.5-3.4-.5-5.8.9-2.5 0-5.1-1.8-4.5 1.9-4.4 4.2-.1 1.4-3.2-3-3.6-3.5.4c-.3 2.4-1.5 2.6-6.8 1.3-2-.5-2.7-.1-3.5 1.7-1.3 3-4.6 3.4-6.9.9q-3.6-4 3-8c3.4-2 3.8-4.1.9-4.1-1.3 0-2.7-2.8-2.4-4.6.4-2.4-.3-3.5-2.8-4.5-2.3-.9-2.9-.6-4.9 1.8-2 2.5-2.4 2.6-4.9 1.5-2.2-1-2.6-1.8-2.2-3.8.4-2.2-.1-2.8-3-4.1-3.2-1.3-3.7-1.3-5.5.4-1.9 1.7-2.2 1.6-8.2-1.5-3.5-1.8-8.2-4.8-10.4-6.7s-4.3-3.5-4.6-3.5c-1.4 0-.4 5.3 1.7 9.6l2.2 4.6-2.2 1.5c-3.6 2.4-3 6.2 1.7 10.6 2.9 2.7 4 4.5 4 6.6 0 1.6.7 3.4 1.5 4.1q1.6 1.3 1.3 5.4c-.3 3.9-.2 4.1 2.9 4.4 4.2.4 6.1 2.7 4.5 5.3-1.7 2.7-1.5 4.7.8 7.1 1.1 1.2 2 3.1 2 4.3s.9 3 2 4 2 3.1 2 4.7q0 2.8 1.4 2.8c2.1 0 5.7 5 5.4 7.4q-.3 2.1-3.3 2.6c-2.7.5-3 .8-2.7 3.8.4 3.7-1.4 9.2-3 9.2-.6 0-2.4-1-4.1-2.3a13 13 0 0 0-8.4-2.2c-6 0-6.9-.6-5.4-3.4 1-1.7.5-3.3-2.9-9.7-2.2-4.1-5.6-9.4-7.6-11.7s-4.4-6.5-5.3-9.2c-1.5-4.6-1.9-5-4.9-5.1-1.8-.1-3.8-.6-4.5-1.3q-3-2.8-2.5 1.9.3 2.8-1.4 4.2A39 39 0 0 0 710 443q0 1.8-.9 2c-1.2 0-7.2 9.7-7 11.3.6 4.5-2.5 5.5-8.1 2.7-4.2-2.1-4.9-4.5-1.4-4.5 2.1 0 4.9-6.4 6.4-14.7.5-2.7 1.2-5.3 1.5-5.9.8-1.2-1.4-6.9-2.6-6.9-.5 0-.9-1.1-.9-2.5 0-3 4-7.5 6.7-7.5 1.3-.1.8-.9-2.1-3.5-3.1-2.8-3.7-3.9-3.2-5.9s-.1-3.1-3.4-5.7c-4.3-3.5-4.8-5-2.5-6.9 1.3-1 2.3-1 5.5.5 3.1 1.4 4.3 1.5 5.4.6 2.4-2 4.7-10.6 5.1-18.7.3-6.9.2-7.6-1.8-8.3-1.2-.5-3.1-1.8-4.1-3-1.1-1.1-2.2-2.1-2.6-2.1s-1.7 2-2.9 4.5q-2.3 4.5-4.1 4.5c-2.6 0-4.3-3.5-3.6-7.1.5-2.7.3-2.9-2.3-2.9-1.6 0-3.4.7-4.1 1.5s-2 1.4-2.9 1.2c-2.9-.6-7.1 2.3-8.6 5.9q-1.5 3.4-2.8 3.1a14 14 0 0 0-5.5 1.2c-3.2 1.2-5.1 2.9-7.5 6.6-2.6 4-3.8 5.1-6.4 5.3s-3.4.9-4.5 4.4c-1.8 5.3-6 8.7-8.3 6.8-1.6-1.3-1.6-2.5-.1-6.1q.8-1.6-1.3-2.2c-1.4-.3-3.1.8-6 4q-4 4.3-5.5 4-1.4-.5-2 1.9c-.8 2.9-5.1 5.3-6.7 3.7q-1-1-.2-5.9c.8-4.6 1.1-4.9 5.3-6.5q9.3-3.3-.6-7.8c-3.7-1.7-6-3.6-7.9-6.7-1.6-2.6-3.7-4.5-5.3-4.9-3.8-.9-5.2-2.4-5.2-5.2 0-3.7 2.9-8.6 4.6-7.9.9.3 3.1.6 4.9.6q3.3 0 8.5 3.6c3.8 2.6 5.8 3.4 7.6 3q2.4-.7 2.2-2.4c-.2-1.3.5-1.7 3.2-1.7 2.1-.1 5-1 6.8-2.4 2.8-1.9 3.2-2.8 3.2-6.7 0-2.5.5-5.4 1-6.4.9-1.7 1.4-1.8 3.6-.8q2.5 1.2 3.2.2c.4-.5 1.9-1.7 3.4-2.6q5.1-3.3 2.5-8.3c-1-2.1-1.1-3.5-.3-6.1q2.3-7.5 8.8-1c6 6 12.2 6.2 11.6.4-.4-4.7 2-4.7 12.5.2 4.8 2.2 9.4 4 10.2 4 1.9 0 1.9-2 0-4.7-1.1-1.6-1.4-3.4-.9-6.4.7-4 .6-4.2-1.7-3.6-1.3.3-3.8 1.1-5.6 1.8-3 1.2-3.5 1.1-9.4-2.9-3.4-2.3-6.6-4.2-7.1-4.2s-.6-1.5-.2-3.4c.6-3.3.4-3.5-3.2-4.5-3.2-.9-4.4-.7-8.3 1.2-3.8 1.9-5.3 2.2-8.4 1.4-3.5-.9-3.9-.7-7.6 3-3.8 3.9-8.5 5.8-11.7 4.6q-1.5-.4-3 1.6c-.8 1.1-2.1 2.1-2.8 2.1s-2.1.9-3.2 2.1c-2.4 2.6-6.7 4.9-9.2 4.9a8 8 0 0 1-4.2-1.8c-1.8-1.4-3.5-1.8-6.9-1.4-4.3.4-4.8.2-5.9-2.2-.7-1.5-1.2-3.1-1.2-3.6 0-2.1 3.4-4 7.3-4 2.3 0 5.1-.7 6.1-1.5a9 9 0 0 1 4.5-1.5c2.8-.1 6.8-2.5 5.4-3.3-.4-.2-5.1-.8-10.3-1.2s-10.1-1.1-10.7-1.7c-.7-.6-1.3-2.3-1.3-3.9q0-4.8 8-3.7c2.6.4 3 .1 3-1.9 0-1.3-.7-3.7-1.5-5.4-.9-1.6-1.3-3.4-1-3.9 1.1-1.9 5.2-1 7.6 1.6q5.2 5.6 10.3 4.7c2.6-.5 2.8-.9 2.3-3.9q-1-5.4 5.6-6.9l2.8-.7-1.8-3.1c-1.6-2.6-2.5-3.1-6.3-3.3q-4.5-.3-7.2 1.8c-2.4 1.7-2.9 1.7-3.4.4-.3-.9.4-3.2 1.6-5.1q4.5-7.6-3.8-3.6c-4.5 2.3-7.5 1.8-10.9-1.8-1.6-1.7-2.3-1.8-6-.8q-7.1 1.8-7.3-3.4c0-3.2-1.9-3-4.2.5l-2.3 3.5-3.3-2.5c-2.8-2.2-3.7-2.4-6.5-1.5l-6.2 1.8c-2.5.7-3.1 1.5-3.7 5.3q-.9 4.6.4 6.7c.8 1.8.9 2.9 0 4.8-.7 1.4-1.2 5.5-1.2 9 0 5.5-.3 6.6-2.2 7.9-3.2 2.3-7.4 2-9.8-.6-2.1-2.3-2.3-3.3-2-8.1q.2-2.9-1.9-4.4a5 5 0 0 1-2.1-3.6c0-2.8 2.6-6.7 4.5-6.7q1.4-.2 2-3.8l1.1-5.9c.2-1.2 0-2.5-.6-2.8s-1-2.6-1-5c0-4.7-.3-5-7.5-6.1-2.6-.3-5.6-1.5-6.6-2.5-2.7-2.7-8.6-3.5-10.8-1.5-2.5 2.3-3 2.1-8.5-2.4s-5.1-4.4-7.6-3q-2 1.2-4-.2c-1.7-1.1-2.3-.9-4.5 1.5q-2.6 2.6-5.5 2.7c-3.5 0-6.6 3.6-4.8 5.7.6.7 1.9 1.3 2.9 1.3 2.2 0 2.3.4.9 3.1-.6 1.1-2.1 1.9-3.5 1.9s-3.4.9-4.4 1.9-3.7 2.2-5.9 2.6-4.8 1.5-5.8 2.6c-.9 1-2.3 1.9-3.1 1.9-4.7 0-9.9 5.8-7.4 8.3 2.2 2.2 1.2 3.8-2.1 3.5-2.5-.2-3.6.2-4.3 1.7-1.6 3.2-8.2 6-11.4 4.9-3-1.1-3.1-2.7-.7-9.4 2.4-6.5 3.8-9 5.1-9 1.6 0 5.2-4.1 5.7-6.5q.1-2 4.7-2.7c2.6-.4 5.5-1.8 7.1-3.3 1.4-1.4 3.1-2.5 3.8-2.5s1.2-.9 1.2-1.9c0-1.1.5-2.3 1-2.6 1.5-1 1.2-7.1-.5-8.5-1.9-1.6-1.9-4 0-4 2.5 0 3.8-4.1 2.5-7.5l-1.2-3-1.8 2.3c-2.4 2.9-4 2.1-4-1.8 0-2.8-.2-2.9-2.4-1.9-2.9 1.4-6 8.6-5.1 12.2s-1.1 6.9-3.8 6.5c-1.9-.3-2.2-.9-2.2-4.8v-4.5l-5.5.4c-6.9.4-9 1.5-9 4.7 0 2.4-.3 2.6-3.2 2.2-1.8-.3-4-.8-4.8-1.2q-1.6-.9-2.5 2.6a9 9 0 0 1-4 4.8 7 7 0 0 0-3.6 5c-.4 1.9-1.6 4.2-2.7 5.1s-2.7 3.2-3.5 5.2c-.9 2.1-2.8 4.2-4.6 5.2-3.8 1.9-4.1 5.1-.7 6.7 3 1.3 4.2 3.8 2.4 5s-7.5 1-9.7-.3c-1.4-1-2.6-.7-5.9 1.1q-7.8 4.3-7-3.9c.3-3.4.5-3.6 4.1-3.9 3.1-.3 3.7-.7 3.7-2.7 0-1.3-.4-2.7-1-3s-1-2.1-1-3.9-.9-4.5-2-5.9c-2.3-2.9-2.5-3.8-.8-5.5.6-.6 1.2-2.6 1.2-4.4.1-2.9.5-3.3 5.7-5q5.6-1.8 6.6-4c.5-1.1 2.5-2.6 4.3-3.2 1.9-.6 3.3-1.6 3-2.1-.7-1.4-9.7-1-11.5.5q-1.5 1-3.2.5c-1-.5-2.2-.7-2.6-.6-2 .4-4.8-2.2-4.5-4.2q.1-2.3 3.3-2.5c3.7-.4 5.9-2.2 2.6-2.2s-2.5-4.4.9-4.8c4.8-.6 5.1-.9 3.8-3.7-1-2.2-1.6-2.5-3.7-1.9-1.5.4-5.5.6-9 .6-7.8-.2-9.4.8-7.9 4.9.8 2.4.7 3.3-.6 4.7q-1.6 1.8-1 5.4c.5 3 .3 3.7-1.4 4.2-3 1-12.2-4.5-12.2-7.3 0-.4-1.5-1.2-3.2-1.8-3.2-.9-3.3-.9-3.5 2.1-.1 1.7.3 4.7.9 6.8.9 3.2.8 4-1.1 6.7-1.2 1.6-3 3.3-4.1 3.6-1.5.5-2 1.5-2 4.1 0 2.8-.4 3.5-1.7 3.2q-1.8-.1-2.5-5.3c-.6-4-1.4-5.6-4.2-8-3-2.6-3.5-3.7-3.8-8-.3-4.6-.5-5-3-5.3q-2.9-.4-2.8 1.2c0 2.2-3.9 2.9-12.5 2.4-6-.4-8.1-1-10.9-3.1-1.9-1.5-4.8-2.7-6.4-2.7s-3.5-.7-4.2-1.5c-1.5-1.7-2.5-1.1-4.4 2.7-1.4 2.7-6.2 4-15.4 4.2-5.5.1-6.5.4-8.5 2.8-2.2 2.7-2.2 2.7-6.2 1.1a49 49 0 0 0-21.6-1.7c-4.7.8-8.6-1.1-6.8-3.2.6-.8 1.8-1.4 2.5-1.4q1.4 0 1.4-3.4c0-4 1.7-5 6-3.5 2.3.9 3.9.7 7.4-.6 2.7-1 5.3-1.4 6.7-1l2.3.7-2.2-3.3c-1.2-2-3.4-3.8-5.2-4.3-5.4-1.6-2.9-6.4 3.8-7.3 4-.5 4.2-.7 2.6-2.4-.9-1-3.1-2.5-5-3.4-4-1.9-4.3-3.4-.9-6.5 1.8-1.7 3.1-2.1 5.3-1.7q3 .5 6.5-1.2c2.6-1.3 5-1.7 8.6-1.3 4.1.4 5.2.1 5.7-1.2q.8-1.5 3.5-1.6c3.4 0 5.2-2.8 4.3-6.5-.8-3.1-3.7-4-11-3.2-4.1.4-5.4.2-5.4-.7q-.1-1.4-1.4-2.5c-1-.8-1.9-.6-3.9.9-1.4 1.1-3 2-3.6 2s-1.1 1.3-1.1 2.8c0 5.6-4.3 6.8-9.2 2.7a11 11 0 0 0-3.9-2.5c-1.3 0-5.3 8.9-5.3 12-.1 2.6-.3 2.6-6.6 1.3-3.3-.6-5.7 2.1-6.2 6.7-.3 3.1-.6 3.5-3.5 3.8q-3.1.4-5.2-1.9c-2.1-2.3-3.4-2.3-6.5-2.5-5.3-.2-6.3.3-6.7 3.6-.5 3.1-4 3.4-5.3.4a7 7 0 0 0-3.7-3.1q-3-1-2.2-3.1.5-2-1.5-3.1a35 35 0 0 0-18.3-.1c-5.5 1.6-9.8.3-11.9-3.6q-2.5-5-5.3 1.2c-1.5 3-2.1 3.4-4 2.8-1.2-.5-3.1-.7-4.2-.6l-5 .4c-4 .4-4.4-2-1-6 2-2.4 2.4-3.5 1.6-5-.7-1.4-.5-2.6 1-4.8l1.9-2.9-4.8-.5c-2.6-.3-6.4 0-8.7.8-3.5 1.1-7.6.9-6.3-.4.8-.8-2.6-9.7-3.8-10.1q-1.1-.2-1.8 1.3"/><path d="M424.5 545.2c-1.7 1-3.8 1.8-4.8 1.8-1.4 0-1.6.5-1 2.7.4 1.6.7 4 .7 5.5-.1 2.2.3 2.8 2 2.8 2.3 0 7.9 1.9 11.3 3.8 1.2.7 2.9 1.2 3.7 1.2 2.2 0 2 3.7-.2 4.4-1 .4-3.1 2-4.7 3.6l-2.9 3h3.2c1.7 0 3.4-.5 3.8-1.1s1.7-.8 3.1-.4c3.8.9 9-.4 9.6-2.5.4-1.5 1.4-1.8 5.1-1.7q4.6.2 6.2-1.5c1.5-1.5 1.5-1.7-.7-2.8-1.3-.7-4.4-3.2-6.9-5.7s-8.9-6.7-14.5-9.7l-10.1-5.2zm583.9 256.9-2.8 1.8 3.7 1.6c3.6 1.5 4.8 3.7 2.7 5-.5.3-1 1.6-1 2.8 0 1.7.9 2.5 4.1 3.5 5.2 1.6 6.1.9 7-6 .4-2.9 1.1-6.5 1.4-7.9l.7-2.7h-6.5c-4.7 0-7.3.6-9.3 1.9"/></svg>