<svg xmlns="http://www.w3.org/2000/svg" width="1365.333" height="1365.333" viewBox="0 0 1024 1024"><path d="M576.4 122.4q-5 6.9-7.6 7.3-2.6.6-2.8 1.8c0 .8-1.1 2.7-2.5 4.3-3 3.6-3.2 6.2-.5 6.2 2.6 0 2.6.5-1.1 6.2-3.4 5.3-5.8 6.4-12 5.4l-7.9-1.2q-4-.7-7.4 1c-2 1-4.5 1.4-5.9 1q-4.3-1-17.3 8.2a50 50 0 0 1-8.7 5q-2.6.7-2.7 2.4c0 2.4-5.6 7-8.5 7q-2.4 0-5.2-4.2-4.9-7.6-7.1-2.3c-1.4 3-4.2 3.3-4.2.5 0-1.8-.4-2-4.1-1.4-3.4.6-5.1.2-9.3-2.1-6.3-3.4-8.9-3-14.5 2-6.1 5.5-7.4 9.2-6 16.4 1.2 5.8 1.2 6.1-1.5 10.2-3.8 5.7-8.6 9.9-11.2 9.9-1.2 0-3.8-1.1-5.8-2.5-4.9-3.3-9.9-3.2-16.6.2-6.4 3.4-8.9 6.6-10.1 12.8s-4.1 10-9.4 12c-4.4 1.7-4.6 1.7-13.2-1-10.8-3.3-14.5-3-21.9 2.1-6.6 4.6-6.8 4.8-5.3 7.2 1 1.6.7 3.2-1.5 8.8a32 32 0 0 0-2.7 11.9c0 6.8-2.4 10.6-8.7 13.7l-5.1 2.5 6.7 7.1c5.7 6.1 7.3 7.2 11.1 7.8 11.6 1.8 18.9 11.4 25.2 33.4 1.7 6.2 2.8 8.1 6.3 11.2 13.5 12.2 14.8 13.5 14.5 15.1-.3 1.3-2.9-.5-10.6-7.3-11.4-10-13.7-13.7-17.4-28-3-11.4-6.2-14.8-17.7-18.4l-8.8-2.6c-1.2 0-.1 5.7 2.1 11.2 2.5 6.2 3 10.7 1.5 14.3-.7 1.8-.8 1.7-1.5-1a65 65 0 0 0-4.1-13.2A35 35 0 0 1 333 292c0-5.5-2.7-10.6-8.8-16.3-3.6-3.4-4.5-3.1-11.7 4.2-4.8 5-7.1 6-9 4.2-.6-.6-3.1-.6-6.3 0-6.9 1.3-8.6.6-4.3-1.7 1.9-1.1 4.2-2.6 5.2-3.5 1.9-1.9 3.9-9.9 3.9-15.8v-3.8l-9.6-3.1c-13.3-4.2-15.4-3.2-18.9 9-1.5 5.2-2.5 6.6-11.5 14.8-10.9 10.1-13 13.7-15 25.6-2 12.5-4.8 15-20.8 19a66 66 0 0 0-12.7 4.4 80 80 0 0 0-20.7 31.8c-.4 2.4-1.8 5.8-3.2 7.6-6 7.9-22 14.7-39.9 17.1a40 40 0 0 0-13.7 3.3c-2.5 1.9-25 29.1-25 30.3 0 .4 3 1.2 6.7 1.9a38 38 0 0 1 17.9 7.1c1.7 1.9 1.7 2.2-.3 6.2-2.5 5.2-1.9 7.8 3.5 14.6 8.2 10.3 8.3 20 .4 26.9l-3.7 3.3 6 5.7a313 313 0 0 0 18 15l12 9.3.6-3.3c1.1-6.8 3.3-7.4 9.6-2.9 2.3 1.6 4.4 2.7 4.7 2.4s2 .6 3.6 2.2l3 2.9v-5.2c0-4.4.4-5.6 2.5-7.5l5.8-5.3c8.9-8.7 14-10 27.8-6.8 3.9.9 7.2 1.4 7.4 1.2s-.9-3-2.5-6.3-2.7-6.2-2.4-6.6c.2-.4 2.9-1.7 6-2.9l5.6-2 5.2 3.1c2.8 1.8 8.1 5.5 11.7 8.3 3.7 2.8 8.1 5.9 9.8 6.8 2.4 1.4 3.1 2.4 3.1 4.8 0 2.5 1.2 4.4 5.4 8.8l5.4 5.6 5.8-2.3c10.4-4 13.3-4.7 15.2-3.3.9.7 2.8 1.7 4.2 2.3 8.2 3.5 11.6 5.7 14.8 9.7 8.1 9.9 17.5 9.7 34.2-1 7.2-4.6 9.3-5.2 13.4-3.7 3.2 1.2 3.8 1 10.8-3.2 6.8-4.1 7.8-4.4 14.3-4.4 3.9 0 9.5.4 12.6.9 6.1.9 5.6 1.1 17.3-5.5l6-3.2 10 1.6c8.9 1.5 11 1.5 17.8.3 5.4-1 9.2-2.4 12.3-4.5 2.5-1.7 4.9-3.1 5.3-3.1s3.5 2.7 7 5.9c5.9 5.5 6.2 6.1 6.2 10.5 0 3.4 1.1 6.7 4.1 12.8 3.9 7.7 4 8.2 2.3 9.5-1.7 1.2-1.7 1.4.2 4a10 10 0 0 0 4.4 3.3c1.7.4 3.1 2.4 5.4 7.6 4.8 11 4.8 11 9 9.7 3-.9 3.9-.8 5.2.4 2.6 2.7 1.3 5.7-3.1 7.1-2.1.7-4.1 1.4-4.3 1.6-.1.2.2 2.5.9 5.1l1.2 4.8 7.9-.7c7.7-.6 7.8-.6 9 1.9 1 2.2.9 2.8-.3 3.6-1.2.7-13.4 5.8-21.8 9l-2.4 1 2.8 2.9c3.8 3.9 7.4 4.8 16.8 4.2 7.4-.4 8-.3 12.8 2.7a36 36 0 0 0 5.7 3.1c.8-.1 6.4-7.5 8.1-10.7s-.5-4-3.3-1.4-3.8 2.6-5.9.3-2.2-4.2-.2-4.2q3.2 0-.7-3c-1.8-1.5-2-2.1-1.1-3.1 1-.9 1.5-1 2.7 0s1.6.8 2.1-.8c.9-2.9 2-2.7 9.2 2 8.5 5.6 12.3 10 12.3 14.4 0 3 .3 3.5 2.3 3.5 1.2 0 3.3.7 4.5 1.6 2 1.4 2.2 2.3 2.2 11v9.5l-3.1 1.7c-1.8.9-4.3 2.6-5.7 3.8-2.3 1.9-2.4 2.3-1.3 5.7.7 2 1.8 3.7 2.4 3.7s4.1-1 7.7-2.1c8.8-2.9 11.5-2.2 14 3.4 2.6 5.7 2.5 6.7-.7 6.7-3.8.1-1.1 1.6 4.4 2.5 5 .8 6.2.2 13.3-6.7 5-4.9 6.3-5.6 14.3-7.7 13-3.4 13.7-4.5 11.1-20.4-1.1-6.7 4-18.7 7.9-18.7.6 0 8.6 7.4 17.7 16.5 15.4 15.3 19 18.2 19 15.4 0-.5-6.8-8-15.2-16.5-11.1-11.4-14.9-15.7-14-16.6.8-.8 2.8.3 7.6 4.1 3.6 2.9 7.6 6.6 9 8.2 2.4 2.8 2.7 2.9 4.7 1.5 1.2-.8 2.7-1.2 3.5-.9s6.3 6.2 12.4 13.3c12.5 14.5 17.2 19 20 19 1 0 3.1.5 4.5 1.2l2.5 1.1-2.2 2.4c-2 2.1-2 2.5-.7 5a10 10 0 0 0 4.2 3.7c2.3.9 2.7 1.5 2.2 3.7-.5 2.4-.1 3 4.1 5.3 2.5 1.4 5.2 2.6 5.8 2.5.9 0 20.9-24.6 23.5-28.8.8-1.2 8.4-3 12.9-3.1 3 0 3.2.2 2.1 2.1-.9 1.8-.6 2.8 2 6.3 1.8 2.2 3.6 5.3 4.2 6.8q1.1 2.6 2.5 2.1c1.6-.6 5.4 2.3 5.4 4 0 .6-1.8 4.1-3.9 7.7a53 53 0 0 0-5.5 13.4c-2.2 9.4-2.1 10.6.8 10.6q4.6.1 2.7 3.8c-1.1 2.1-.4 3.5 5.8 11.7l4.8 6.4c.4.6 11.8-8.7 14.6-11.9 2.4-2.8 3.2-3.2 6-2.6a54 54 0 0 1 20.4 14.5l6.2 6.3-.6-5.1c-.5-4.2-.3-5.2 1.1-5.7q1.7-.5 3.7 1.2c1.5 1.4 2.4 1.6 3.7.8 2.9-1.9 2.4-4.1-1.8-8.1-2.3-2.1-4.8-5-5.6-6.5-2.1-4.1-1.8-9.4.8-11.8q1.9-1.8 1.1-2c-.5 0-1.8.9-2.8 2-2.1 2.4-3.8 2.5-6.8.6-1.2-.8-4.4-1.7-7-2.1-7.8-1.1-11.3-6.5-6.5-9.9 1.7-1.2 2-1.8 1-2.8-1.9-1.9-1.4-5.3 1.1-7.6 3.1-3 4.8-2.8 12.1 1.3 3.5 1.9 6.8 3.5 7.4 3.5s2.3-1.9 3.8-4.1c1.8-3 4-4.7 7.5-6.2 5.2-2.2 6.9-4.5 4.4-6-1.4-.7-1.2-1.2 1-3.8 4.2-5 3.4-7.7-4.6-15.7a47 47 0 0 0-9-7.7c-1.2-.4-4 .5-7.5 2.5-4.4 2.6-6.3 3.1-9.1 2.7-4.7-.8-4.9-1.1-2.8-5 1.7-3.3 1.7-3.4-1.1-8.7-1.5-3-3-7.1-3.3-9-.6-3.5-.7-3.5-5.6-3.3-2.8.1-6.6.4-8.6.8-2.6.5-5 .1-8.8-1.5-7-3-9.1-5.9-9.1-12.4 0-7.8-3.2-18.2-6.8-21.9a40 40 0 0 1-8-16.1c-.8-2.8-.7-3.7.7-5 1-.9 2.5-1.6 3.4-1.6q1.6-.1 1.7-2c0-1.7-.3-1.9-1.9-1-3.8 2-6 1.1-9.3-3.4q-5.7-8.3-12.2-5.7c-5.7 2.3-6.1 2.1-6.1-3.4v-5l3.8.2c3.3.2 3.7 0 3.7-2.2 0-3.6 5.8-14.4 10.3-19.2 4.7-5 5.9-4.7 10.6 2.3 4.2 6.4 4.1 10-.4 14.4-3.6 3.5-4.6 7-2.1 7 .8 0 3.2-1 5.2-2.2l3.7-2.2-.6 3.8c-.6 4 .8 8.1 3.8 10.6 1.3 1.1 2 .9 4.4-1.6s2.7-3.1 1.7-5.3c-.8-1.9-.8-2.5.2-2.9 2.3-.7 1.2-2.9-4.3-9.1-5.1-5.7-5.5-6.5-5.5-11.2 0-2.7.7-6.6 1.5-8.6 2.1-5.1 1.9-7.3-1.2-10.6l-2.8-2.8 3.3-3c1.8-1.6 4.5-3.2 6-3.5 2.6-.5 2.7-.7 2.7-7.9 0-7 .2-7.6 3.4-10.9 1.8-1.9 5.3-4.5 7.7-5.7 3.8-2.1 4.5-2.2 6.8-.9 1.4.7 4.2 3.7 6.3 6.7q5.2 7.6 5.3 4.3.2-1 2.2-1c2 0 4 2 6.9 5.1 4.6 5 4.7 5.1 5.9 2.9 1.1-2 1.3-2 2.9-.6 1 .9 3.5 1.6 5.9 1.6h4.1l-.6-3.4c-1.1-6.9 5.4-11.8 17.2-13.2 3-.4 5.5-.3 5.5.2s-1.1 2-2.5 3.4l-2.6 2.7 2.2 2.8c1.8 2.2 2 3.1 1.1 4.6-1.4 2.2-1.6 7.9-.3 7.9q.9-.2 2.1-1.5c1.2-1.3 2.1-1.5 3.1-1.5q2-.2 1.9 2.9c0 2.5 1 3.7 6.6 7.7l6.7 4.8 3-1.8c3-1.7 3.2-1.7 4.5.1q1.3 1.8 1 8.5c-.2 6.1 0 7 2 8.3 2.6 1.9 2.9 3.5.6 3.5-2.6 0-7.2 3.2-8.4 5.8-1.5 3.5.7 6.4 9.8 12.5 4 2.6 7.6 5.7 8.2 6.8 1 1.7.7 2-2 2.5-1.6.4-3 1-3 1.4 0 1 6 8.5 6.8 8.5 2.4-.1 9.4-5 10.7-7.5 2.9-5.6 7.5-2.9 8.9 5.2.6 3.4.5 3.7-1.9 4l-2.6.3 5.6 11.4q5.6 11.4 6.6 10.4c.5-.5 1.8-3.2 2.8-5.9 1.7-4.4 1.8-5.2.4-8.6-1.1-2.7-1.2-4.5-.6-6.5q.9-2.7 0-5.4c-2.2-5.6 2-8 6.2-3.5 2.1 2.3 6.1 4.1 6.1 2.8 0-.3-1-1.6-2.1-2.8-2.5-2.7-1.9-5.4 1.1-5.4 1.2 0 3.8 1 6 2.2 3.7 2.2 3.9 2.2 5.8.5 1-.9 2.4-3.5 3.1-5.6.9-3.2 1.7-4.1 4.4-4.7l3.2-.8-4.5-.7c-2.5-.4-6.3-.8-8.6-.8q-4-.2-5.9-2.1c-1.4-1.5-2.6-1.9-5.4-1.5-4.6.7-12.4-4-17.2-10.4q-6-7.9-5.9-2.9c0 5.3-1.9 4.6-11-4.1-8.4-8.1-9-8.9-9-12.7 0-3.1-.6-4.6-2.6-6.5-3.9-3.6-4.6-5.4-3.3-8.3 1.1-2.3.8-3.2-2.5-8.2-4-5.9-4.1-7.3-.6-5.4 1.2.6 3.2.9 4.5.6 1.9-.5 3.1.3 6.6 4.5 4.2 5 4.2 5.1 5.5 2.8l1.2-2.4 1.9 3.5a31 31 0 0 0 4 5.6c1.9 2 2.5 2.2 5.8 1.3 2-.6 5.7-1.9 8.2-3 2.4-1 6.2-1.9 8.3-1.9h3.8l-1.6 4.9c-1.4 4.6-1.4 5.1.2 7.6 2.9 4.4 4.2 4.1 11.2-2.4q9.4-8.5 9.4-5.1a62 62 0 0 1-8 9.2l-7.9 8.2 2.7 4.3c2.2 3.4 3.6 4.5 8.1 6q5.6 1.8 7 4.5c1.7 2.9 8.3 7.8 10.5 7.8 1.4 0 2.6-2.1 2.6-4.4 0-.7-2-3.9-4.5-7.1-6-7.7-5.8-9.9.9-10.3 7.8-.5 8.9.1 11.9 6.6 1.5 3.3 3.9 7 5.3 8.3l2.6 2.4 2.4-3c1.3-1.7 2.4-3.5 2.4-4.2 0-.6-2-4.1-4.5-7.7a44 44 0 0 1-4.5-7.6c0-.6 1.5-1 3.4-1h3.3l-.4-5.3c-1.1-14.8-2.6-17.9-9.6-19.8a20 20 0 0 1-11.9-9.7c-1.6-2.7-2.6-3.2-5.6-3.2-6.7 0-13.7-6-9.6-8.3 4.3-2.4 6.2-5.5 6.9-11.1.5-4 1.4-6.1 2.9-7.4 1.2-.9 3.3-3.8 4.8-6.3 3.2-5.5 10.7-12.6 14.2-13.5 4.3-1 7.2.3 14.6 6.7 3.9 3.3 8.3 6.7 9.8 7.5 3.1 1.6 9.8 1.9 10.7.4 1.1-1.8-4.6-11.2-9.6-15.8-4.3-3.9-4.9-5-4.9-8.4 0-2.2-.5-4.8-1-5.8q-1-2 .1-2.5c.9-.6 4.9-8.8 4.9-10.1q-.1-.4-1.5-.4c-2.3 0-7.6-2.8-10.6-5.7-2.5-2.3-2.9-2.4-5.5-1-1.6.8-5.2 2.2-7.9 3-4.6 1.3-5.4 1.3-8-.1a22 22 0 0 0-9.7-1.4c-5.9.2-7-.1-9.9-2.5a22 22 0 0 1-6.9-13.7c0-1.6 1.1-4.1 2.5-5.8 3.2-3.8 3.6-12.7.6-15.7-2-2-10.8-5.7-11.7-4.9-.2.3 0 2.7.6 5.3 1.3 5.9 1 6.3-8.6 11.1-5.7 2.8-7.2 4-6.4 4.9q1 1.2-.1 3.8c-1 2.3-.8 3 1.5 5.7 3 3.6 3.3 7.1 1 12.6-1.3 3.2-1.5 5.8-.9 14.5.6 10.4.6 10.7-1.6 12.3-2.9 2-6.9 2.1-9.5.2-1.9-1.4-1.9-1.5.5-4 2-2.2 2.3-3.2 1.8-7.1-.4-2.5-1.7-7.1-2.9-10.3-2-4.8-2.7-5.7-4.8-5.7s-2.9.9-4.3 4c-3.9 8.8-5.3 11-6.8 11.3-2.1.4-4.4-4.6-5.4-11.3-.4-2.7-1.3-6.2-2.1-7.6-1.6-3.2-1.1-3.9 3.3-3.9 6.8 0 10-7.9 4.7-11.7a9 9 0 0 1-3.3-5.7c-.8-4.7.1-23.2 1.2-24.2.4-.5 2.8.2 5.2 1.5q7 3.8 9.6-1c.9-1.7.6-2.8-1.5-5.8a33 33 0 0 1-4.2-13.1c-2.4-13.8-2.3-13.7-6.2-9.9-1.7 1.7-3.1 3.4-2.9 3.8l1.7 3.4c1.3 2.5 1.1 3.2-1.2 8a40 40 0 0 0-3.3 8c-.9 3.4-1.1 3.5-8 4.8-4.7.9-6.1.8-8.1-.6-1.3-.8-2.4-2-2.4-2.5s2.1-4.3 4.6-8.4 4.3-7.9 4-8.5q-.7-.9-4.9.9c-5.4 2.5-8.2 2.5-10.8-.1-1.7-1.7-2-3.1-1.7-7.5.1-3 .1-5.4-.2-5.4s-1.4.7-2.4 1.5a8 8 0 0 1-4.1 1.5q-2.2.1-3.3 2.5c-.6 1.4-3.8 4.1-6.9 6.1-11.6 7.3-16.2 13.5-17.7 23.8l-1.1 7-5.7 1.5c-5.6 1.4-5.8 1.4-8.1-.7l-2.4-2.2-1.1 2.5c-.7 1.4-1.2 3.4-1.2 4.3s-.9 3.5-1.8 5.7l-1.8 3.9-2.4-3.2c-1.3-1.8-2.8-3.2-3.4-3.2a26 26 0 0 0-5.7 3.1q-7.2 4.7-9.4 11.7c-.6 2.1-.4 2.3 1.2 1.8 2.3-.7 8.8 3.3 8.8 5.4q-.2 1.4-2.2 1.8-2.6.3-1.4 2c.5.9 1.2 3.9 1.6 6.7q1.3 8.1 6.5 13c2.9 2.6 2.5 5.1-1 6.4a11 11 0 0 0-5.1 4.6c-1.2 2-3.8 4.4-5.9 5.5s-5.6 4-7.8 6.5-4.3 4.5-4.7 4.5-.5-2-.3-4.5c.8-6.3-.7-12.9-4.7-21.4-1.9-4-3.5-7.9-3.5-8.7 0-1.7-.7-1.7-6.2-.3-3.5 1-5.7.9-11.3-.4l-7-1.6-6.4 2.9c-7.1 3.4-8.4 3.6-10 1.7q-1.2-1.3.4-3.3c2-2.7 1.9-2.8-2.1-4.3a18 18 0 0 0-8.1-.6l-4.5.6.7 3.9c1.2 7.1-1.6 9.6-13.4 11.6-11 2-11.2 2.3-13.5 20-2 14.7-4 19.2-14.6 31.4-10.8 12.5-44.2 48-45.1 48-2.7 0 .8-4.6 22.7-30.3a859 859 0 0 0 24.4-29.2c0-.3-1.4-1.8-3.2-3.3-2.9-2.7-3-3.1-2-6.2.7-1.8 1.2-8.5 1.2-14.9v-11.6l-13.3-10.9c-17.2-14.2-20.9-16.1-35-19.1a88 88 0 0 1-15.5-4.4c-7.9-4-11.9-12.1-6.9-14 1.2-.5 3.3-2 4.6-3.4 3.2-3.6 6.4-4 14.9-2.2 4.1.8 8.4 1.5 9.7 1.5 3.8 0 6.6-3.1 7.6-8.4 1.5-8.3 3.7-9.2 13.1-5.6 6.9 2.6 7.4 2.5 4.9-.6a10 10 0 0 1-2.1-3.7c0-.9 10.8-17.5 14.4-22 1.4-1.8 1.6-1.8 4.4.3 2.7 2 3.8 2.2 9.4 1.6l13.1-1.2 6.7-.7v3.7c0 5.8 2.5 4.5 4.4-2.4 1-3.3 3.1-7.6 5-9.8s4.7-6.2 6.5-9l3.3-5.1-1.2-7.8c-.7-4.3-2.5-12-4.2-17.1q-6.2-20 3.5-.7c4.7 9.2 8 12.4 14.4 13.4 3.1.5 8.1 2.6 13 5.4 4.4 2.6 8.5 4.7 9 4.7s3-2.3 5.4-5.1l4.3-5.1 4.5.7c6.4 1.1 11.5.8 19.8-1.1 3.9-.9 7.9-1.4 8.7-1.1 2.2.9 2 4-.4 5.5-1.1.7-2 2.3-2 3.7q.2 4.7 3.4.3c1.3-1.8 2-2 4.2-1.2 5.6 1.9 5.3 3.5-2.7 13-8.7 10.4-13.6 13.4-21.6 13.4a19 19 0 0 0-9 2 17 17 0 0 1-5.5 2c-3.4 0-10.8 8.2-10.8 12 0 .5 1.4 1 3 1 3.6 0 3.7.8.9 6.1-1.1 2.3-1.9 4.2-1.7 4.4s3.5-2.4 7.3-5.7c3.9-3.3 10.2-8.4 14-11.3 6.3-4.7 7.6-5.3 13.1-5.7 7.5-.5 19.9-6.1 26.1-11.8 3.2-3 5.1-4 7.6-4 4.2 0 12.4-4.1 16.2-8 2.2-2.3 2.5-3 1.2-3q-4 .2 1.7-4.3 5.7-4.3 6.8-1.5c.9 2.5 8.2-4.3 16.8-15.7a116 116 0 0 1 14.3-13.6c5.9-5 10.7-9.8 10.7-10.6q0-1.6-1.7-.7c-5.6 2.4-25.3 8.4-27.7 8.4a84 84 0 0 0-14.7 4c-13.3 4.5-16.6 4.8-20.1 2-1.9-1.4-2.8-1.6-3.6-.8s-2.7-.4-7.2-5q-8.1-8.4-8-5.5 0 .9-.9 2.1c-.7 1.1-1.5 1.1-4.5-.2-2-.8-3.6-1.9-3.6-2.5 0-.5-1.6-1.9-3.5-3.1-3.4-2.1-3.7-2.1-8.9-.6-6.7 2-9 2-10.5.2-.9-1-.9-2 0-4s1-2.9.1-3.8c-1.7-1.7-1.5-4.8.5-7 1.6-1.8 1.8-1.7 5 1.4l3.3 3.2v-2.7c0-1.6 1-3.8 2.5-5.3 1.4-1.4 2.5-3.1 2.5-3.9s1.2-2.3 2.6-3.4c2.5-1.9 2.5-2.1.6-2.1-1.1 0-2.4.4-2.7 1-.9 1.4-4.1 1.2-5.3-.3-.9-1-.5-2.2 1.3-5 3.1-4.5 3.1-4.7-.2-4.8-1.6 0-3.7-.4-4.8-.8-1.6-.7-2.3-.2-3.5 2.2-2.3 4.7-4.3 5.4-8.3 3.2-3.2-1.7-4-1.7-7.5-.6-5.5 1.8-7.2 1-7.2-3.5 0-4.7 2.7-10.3 5.7-11.7 1.2-.5 2.3-1.9 2.3-2.9 0-1.8-.2-1.8-2.2-.4a9 9 0 0 1-4.2 1.6c-1.7 0-1.8-.5-1.2-5 .7-5.3.2-5.9-3-3.5q-4.2 3-6.5-.6c-.9-1.7-.7-2.5 1-4.3q3.5-3.7 1.1-6.2-1.1-1 .1-3.8c1-2 1-2.9.1-3.8s-1.9-.4-4.1 2.2c-2.8 3.4-2.8 3.4-4 1.2l-1.2-2.2-2.5 3c-1.4 1.6-3.2 3-3.9 3-1.9 0-5.5-4.8-5.5-7.4q0-2.5-2.2 1.8c-1.9 3.7-2.1 3.9-3.4 2.1q-1.3-1.7-1.8-1.4c-1 1-5.6 12.3-5.6 13.8 0 2.1-4.7 12.1-6.7 14.3s-3.7 2.3-5.8.2c-1.5-1.6-2-1.4-6.2 2.9-5.1 5.2-7.4 6.3-10.1 4.8-1.6-.8-2.1-.6-3.1 1.5-1.7 3.8-7.3 5.7-15.8 5.2q-12.8-.7-9.5-5.8c.6-1.1 1.2-3.1 1.2-4.4 0-3.4 6.8-13 14.7-20.8 7.2-7.1 12.9-10.3 15.4-8.7q4.9 3 4.9-2.9c0-4.7-.7-5.6-5.1-7.5-1.9-.8-5.1-2.8-7-4.4-2.5-2.2-5.7-3.5-12.4-5l-9-2.1-17.4 2.4c-14.1 1.9-18.2 2.1-21.8 1.3-3.2-.9-5-.8-7.2.1-4.2 1.7-6.7.5-8.5-4.1q-1.6-3.9-4.2-4.9c-3.4-1.3-17.4-1.3-17.4 0 0 1.9-4.8 1-6.2-1.2-1.4-2-1.5-1.9-6.4 4.6m239.3 8.3c-1.1 1-.8 5.2.4 7.5.9 1.7.7 2.4-.9 4.1l-2.1 2 4 5c2.1 2.7 3.9 5.7 3.9 6.7s-2.7 4.3-6 7.5c-3.4 3.1-6 5.9-5.8 6 .6.6 19.4-2.5 22.1-3.7 3.5-1.4 5 .2 3.6 3.9-.8 2.2-.6 2.4 1.3 2.1q2.2-.2 5.9-6.8a32 32 0 0 0 3.3-6.9c-.3-.3-1.7 1.1-3.3 2.9l-2.8 3.5-5.7-4.9a45 45 0 0 1-8.2-9.2c-2.5-4.3-2.6-4.6-.9-6.4 2.3-2.5 5.1-2.5 10 0 5.2 2.7 6.4 2.5 11.3-1.1 2.5-1.8 6.1-3.4 8.9-3.8l4.8-.7-4-1.2c-2.2-.7-9.5-1.2-16.3-1.2-12.6 0-17.3-1-20.1-4.3q-2-2.7-3.4-1m51.4 41c-3.5 9.5-3.5 9.5-8.9 3.5q-8.3-9.3-8.2-1.9c0 1.8.6 4 1.3 4.8a137 137 0 0 0 14.5 11.3c2.9 1.8 3.9-1.2 4-12.4.1-6 0-11-.2-11s-1.3 2.6-2.5 5.7"/><path d="M847.8 187.2c-.3.7.2 2.5 1 4.1 1.9 3.7.8 9.1-2.1 11-1.3.8-3.6 4.5-5.3 8.1-3.1 7.1-4.8 8.1-6.6 4-1.1-2.3-1.6-2.5-4.8-2-1.9.3-4.4.6-5.5.6q-2 0-.7.8c.7.5 1.7 3.5 2.2 6.7s1.3 6.2 1.7 6.6c1.6 1.4 9.2-3 11.5-6.5 2.6-4 3.2-4.2 7.9-2.2 3.1 1.3 3.3 1.2 5.7-1.5 1.3-1.6 2.9-2.9 3.4-2.9s3.7-2.4 6.8-5.4l5.7-5.4-3.9-1.6c-3.7-1.4-3.9-1.7-3.3-4.9s.5-3.6-5.1-7.1c-6.2-3.8-8-4.3-8.6-2.4m91.3 44.2-3.4 3.3 3.9 3.6 3.9 3.5 2-5.6 2.1-5.7-2.1-1.2c-2.7-1.6-2.5-1.7-6.4 2.1m-2.5 37.6-3.6 4 2.8 5.7a109 109 0 0 1 5.2 13.5q2.3 7.9 4.2 8.4c2.8.8 3.8-.4 3.8-4.5 0-2.7.7-4.4 2.4-6 4.1-3.9 3.9-5.8-1.1-11.2-3.6-3.8-4.4-5.4-3.9-7.2.6-2.7-1-5.2-4-6.1-1.6-.5-3 .3-5.8 3.4m-191.1 49.1a16 16 0 0 0-7.2 10.5l-.6 3.6 2.4-1.5a50 50 0 0 1 8.1-3.7c6.4-2.4 9.5-5 5.9-5q-2.2.1-2.7-3c-.8-3.6-1.9-3.7-5.9-.9m-39.2 1.1c-.6.7-2.3 3.7-3.8 6.7-2.1 4.3-2.4 5.5-1.3 6.2.7.5 1.8.7 2.3.6 1.6-.5 7.6-11 7.3-12.7-.4-1.9-3.2-2.4-4.5-.8M833 472.4c0 1.3.9 3.4 2 4.7 2 2.4 2 2.4 3.5.5 2.2-2.9 1.9-4.3-1.7-6-3.9-2-3.8-2-3.8.8m13.9 4a24 24 0 0 1-5.5 5.6c-1.1.7-3.1 3.2-4.3 5.7l-2.2 4.5 2.4 3.2c7 9.2 9.1 15.6 5.2 15.6q-1.3.2-1.5 1.7c0 1-.9 2.9-2 4.3s-2 3.9-2 5.5c0 4.1 5.7 13.4 10 16.3l3.4 2.3 1.9-2.5c1-1.5 2.2-2.6 2.7-2.6s2.7 1.6 5 3.5c3.4 2.8 5 3.5 8.6 3.5q6.8.1 3.5-4.9-.9-1.4 1.5-4.8c2.7-4 4.4-9.4 4.4-14q.2-5.4-8.9-8.3c-3.9-1.3-4.1-1.5-4.1-5.5 0-6.2-1.8-14.6-3.5-16.5q-1.5-1.7-1.5-7.8c0-3.4-.3-6.2-.7-6.2a22 22 0 0 0-4 4c-4.7 5.5-6.7 5.4-4.8-.1 2.9-8.1 1.4-9.1-3.6-2.5m22.9 1.3c-.2.5-.1 2.6.2 4.7.4 3.5.6 3.7 1.9 2.3.7-1 2.4-1.7 3.6-1.7 2 0 2.3.6 2.9 6 .9 7.9 2.6 8.8 2.6 1.2 0-5.1-.4-6.2-2.7-8.4a21 21 0 0 0-7.7-4.8q-.5 0-.8.7M812 489.4l-3.6 6.1 3.2 3.2c1.7 1.7 3.9 5.2 4.8 7.9 1.6 4.7 4.1 8.4 5.8 8.4.4 0 .8-4 .8-8.8 0-7.8-.3-9.1-2.1-10.8q-4.7-4.2-3-7.3c.8-1.4.6-2.2-.7-3.4-1.6-1.4-2-1-5.2 4.7m-347.1 16.2c-1 1.2-2.2 1.4-4.8.9-7.8-1.5-11.5-1-18.6 2.5-6.5 3.3-7 3.7-7.3 7-.2 2.6 1 6.2 4.6 13.6 4.7 9.5 5.2 10.1 9.1 11.2 4.8 1.5 6.1 3.5 6.8 10.6.4 3.7.1 6.1-1.1 8.4-2.2 4.3-2 7.3.9 11.2 3.5 4.8 5.5 5.7 7.2 3.4 1.2-1.6 3-1.8 17.1-1.9 17.1-.1 19.2-.6 21.1-5.3 1.1-2.7.8-3.9-3.7-13.8a151 151 0 0 1-12.1-40.7l-.6-7.2-4.5-.7q-12-1.8-14.1.8m-71.5 18.3c.5 3.5.3 4.2-2.1 6.1l-2.6 2 2.1 2.1a7 7 0 0 1 2.2 4.4c0 2.3 2.3 5.5 4 5.5 3.2 0 10-4.7 10-6.9 0-.5-1.5-1.8-3.4-2.9-4-2.4-5.4-7.3-3.2-10.7 1.4-2.2 1.3-2.3-1.6-2.9-5.8-1.2-6.1-1-5.4 3.3m-24.3 15.8a29 29 0 0 1-5.3 6.9 59 59 0 0 1-16.9 11.4c-3.4 0-4.9 1.3-11 9.6-8.4 11.4-11.7 10.8-6.4-1.1 1.6-3.7 1.6-3.8-.1-2.5q-1.8 1.8-2.1.2c-.8-2.2-3-1.3-5.7 2.3a23 23 0 0 1-7.1 5.4c-2.6 1.1-5 3-5.6 4.4s-3 3.3-5.3 4.3a498 498 0 0 0-58.6 41.1c-9.9 9.3-20.8 12.5-40.8 12.1-11.6-.2-13.3.1-17.6 2.1a53 53 0 0 0-18.1 17.5c-6.2 9.7-10.8 10-17.7.9-7.4-9.7-14.4-12.8-23.5-10.3-3.6 1.1-5.5 1-9.9 0a19 19 0 0 0-10.8-.1c-6.1 1.4-8.3 3.3-9.2 8.2-1 5.2-2.6 7.8-9.8 15.8-3.6 4-6.6 8-6.6 8.8s.9 2.8 2.1 4.4c2.5 3.6 2.1 6.3-1 6.7q-2.4.4-4.6-2.4l-2.3-2.8-5.1 2.7c-2.8 1.5-7 3.1-9.3 3.5-3.5.6-4.9 1.6-8.6 6.2l-7.6 9.5-3.3 4-4.4-2.1q-4.5-2.2-6.6-1.3c-3.3 1.2-10.5 8.8-10.1 10.7.5 2.6 5.6 2.7 10 .2 2.1-1.2 4.2-1.9 4.8-1.5 1.3.8 3 7.3 3 11.6 0 4.7-2.1 6.5-11.1 9.3l-7.4 2.2.3 7.5c.1 4.1 0 9.8-.3 12.6-.8 7-3 7.1-7.9.3-2-2.8-3.9-5-4.4-5-2.1 0-5.2 3.5-6.2 6.8-.5 2-1 8.9-1 15.3 0 10.7.2 11.7 2.5 14.9 2.8 3.9 3.1 5.7 1 8.4q-5.2 7 7.2 13.1a41 41 0 0 1 5.3 2.9l-1.5 3.2c-.8 1.6-1.5 4.2-1.5 5.8s-.7 3.8-1.7 4.8q-3.2 3.6 5.2-.4c3.7-1.8 4.6-2.8 5.1-5.6 1-5.1 6.2-7.1 18.1-7.2h9.1l2.6-4.4q5.6-9.7 12.8-9.6c3.3 0 3.9-.3 3.4-1.6-1-2.5 2.7-9.6 6.8-13.1 4.1-3.7 7.4-4.8 11.6-4 2.5.5 3.2.2 4.7-2.3 2-3.5 2.1-3.5 6.8-1.3 3.5 1.7 3.8 2.2 6 11.4.4 1.5 1.9 3.8 3.3 5.2 5.4 4.9 21.5 15.8 23 15.5.9-.2 2.7-2.1 3.9-4.3l3.3-5.5c.7-1.2 1.6-.7 4.5 2.8 2.1 2.4 4.5 4.2 5.7 4.2 1.1 0 4.7-1.4 8-3.2l6-3.2-.5-4.3c-.6-5.4-2.7-7.8-9.6-11.2-7.4-3.6-8.1-5-4.8-9.9s5.7-5.8 10.8-4.2c3.7 1.3 4.3 1.1 15.1-4 6.2-2.9 14.9-6.6 19.3-8.2 7.2-2.7 8.8-2.9 15.8-2.4l7.8.7 5.1-4.5c11.2-9.8 19.6-12.1 27.8-7.5 6.5 3.6 6.8 4.7 3.6 11.9l-2.8 6.2 4.5 6.7c6.3 9.1 6.3 9.3 2.8 13.2a16 16 0 0 0-3.1 4.1c0 .5 2 1.8 4.4 3a13 13 0 0 1 5.5 4.5c1.4 3.1 2.4 2.9 5.5-1.2q2.7-3.5 5.2-3.5a10 10 0 0 0 5.1-2c3.5-2.8 5.7-2.5 8.6 1 3.2 3.7 4.9 3.8 7.9.2 1.2-1.5 3.4-3.5 4.8-4.4s3.6-3.6 5-5.9c2-3.3 3.5-4.4 7.9-5.9 5.5-1.8 10.2-4.8 10.9-6.8.2-.6-1.6-1.6-4-2.2-6.6-1.7-11.8-4.2-13.4-6.4-1.4-2-1.4-2-4.3.2a14 14 0 0 1-3.9 2.2c-1.3 0-8.4-7.8-10.7-11.8a7 7 0 0 0-5.5-3.8c-6.8-1-8-1.4-8-2.7.1-3.6 15.3-16.2 20.6-17a24 24 0 0 0 8.2-3.8l4.3-3.2-3.9-4.1a28 28 0 0 1-8.7-17.3c-.1-4.4-.4-4.8-4.3-6.7a14 14 0 0 1-4.2-2.6c0-.9 6.7-4 8.6-4q3.9 0 13 8c6.1 5.3 7.8 5.9 11 3.5a10 10 0 0 1 5.3-1.5c2.6 0 3.2-.3 2.7-1.6-.4-.9-.2-2.2.4-2.9s.6-2.3 0-4.6c-1.7-5.7-1.5-11.7.3-13.7 1.6-1.7 1.6-2.3.2-7-1-3.1-2.2-5.2-3-5.2-3.3 0-4.6-7-2-10.7q1.5-2.1.5-2.8c-1.2-.7-1.3-2.5-.2-4.3.6-.9 2.2-.6 7 1.3 3.4 1.4 6.3 2.5 6.6 2.5.4 0-4.3-12.1-5-12.9q-.5-.2-1.7.7c-.7.7-3 1.8-5 2.7-3.4 1.4-3.7 1.4-6.6-1.1-4-3.4-3.9-5.6.5-8.9l3.6-2.7-3.1-1.5c-3.7-1.8-3.7-1.8-1.2-7.6 2.7-6.2 5.2-7.7 13.1-7.7q6.4 0 8.7-1.5c1.9-1.4 2.5-1.1 8.8 4.5 8.6 7.6 11.1 8.1 21.5 4.7a58 58 0 0 0 18.1-8.3c.9-1.1.6-3-1.5-9s-2.5-7.9-1.5-9c.6-.8 1.8-1.4 2.6-1.4q1.6.1-.8-2.9l-2.1-2.9 2.7-6c2.5-5.7 2.6-6.2 1.1-8.4-2.4-3.3-2-6.5.9-8l2.4-1.3-3.8-6.1a33 33 0 0 0-13.8-12.8l-3.2-1.6zm494.7 8.5c-2.1 1.2-3.8 2.5-3.8 2.8s1.7 5.7 3.8 11.9l3.8 11.3 3.4.3c1.9.1 4.5.5 5.6.9q2.2.8 5.2-1.9c4.8-4.1 4.8-5.5-.2-14.2a42 42 0 0 1-4.6-9.1c0-1.2-2.8-2.7-7.3-3.7-1.3-.3-3.8.4-5.9 1.7m80.9 7.2c-3.1 2.9-3.7 4-3.7 7.6 0 4.4 2.7 7.9 6.3 8 1.4 0 1.7-1 1.7-6.8 0-4.3.5-7.5 1.5-8.8q2.1-3.3-1-3.4c-.6 0-2.8 1.5-4.8 3.4m15.5 11.3c.2 2 1.2 2.9 4.3 4l4 1.4-4-4.1c-2.1-2.2-4.1-4-4.3-4s-.2 1.2 0 2.7m-141.1 2.6c-1.8 4.6-1.3 8.4 1.1 10.1 2.6 1.8 11.8 2.2 11.8.5 0-.6-2.7-3.9-5.9-7.2l-6-6.2zm99.5 16c-5.6 10-4.7 13.5 2.7 9.5 3.5-2 4.2-2.8 4.3-5.6 0-1.9 1-4.2 2.5-5.8l2.4-2.6-2.3.7q-2.3.6-4.2-1c-1.7-1.6-2-1.3-5.4 4.8"/><path d="m137.5 592.1-34.2 10.6c-2.9.9-6 2.4-6.9 3.4-2 2.2-1.5 3.5 4.1 11.3 1.9 2.6 3.5 5.4 3.5 6.1s-1.6 3.2-3.5 5.6q-6.3 8-1 9.5c1.3.3 8.2-.2 15.2-1.1a67 67 0 0 1 37.7 2.9c11.4 4.2 15.3 4.4 19.1 1.5 2.6-2.1 2.7-2.4 2-8.9-.5-5.3-.3-7.3.9-9.2.8-1.3 1.8-5 2.2-8.3q1.2-10.1 8.3-24.4a26 26 0 0 0 2.8-6.7c-.2-.3-2.8.5-5.7 1.6l-5.3 2.1-3.8-2.6c-2.1-1.4-4.4-2.5-5.1-2.4-.7 0-14.3 4.1-30.3 9m803.5-1.4a69 69 0 0 0 10.9 19.7l2.8-3.4 2.2-2.6-2.5-6.4c-3-7.7-4.5-9-9.6-9-3 0-3.8.4-3.8 1.7m-296.5 48c-3.6.9-6.8 4-11.9 11.4-6.3 9.1-8.4 9.9-28.6 10.6l-14.5.5-7.8-5c-7.5-4.8-8.5-5.1-24.3-8.2-9.1-1.7-17.3-2.9-18.2-2.5-1 .3-6.3 3.4-12 6.7s-13.1 7.1-16.5 8.3q-10.6 4-10.7 11.9c0 2.5 1.1 4.2 4.6 7.6 2.8 2.7 5.8 7.1 7.6 11 1.6 3.6 4.3 7.9 5.9 9.6s4.3 6.4 5.8 10.5c2.6 6.6 3.5 7.8 8.3 11.2 4.7 3.3 6.4 3.9 13.8 4.7 4.7.4 11 1.8 14 3 3.1 1.2 8.8 2.4 13 2.7q12.4.8 15.9 7.7c1.3 2.4 1.3 3-.2 5.5-1.5 2.6-1.5 2.8.3 4.4 1.1 1 2 2.9 2 4.6 0 2.1.9 3.6 3.5 5.6 4.6 3.4 6.8 3 7.6-1.6.3-2 2-5.9 3.7-8.7 1.7-2.9 3.5-7 3.8-9.2q1.1-7 8.1-7c4.8 0 8.2 1.7 9.3 4.5.5 1.4 2.4 4.6 4.2 7.3 3 4.3 3.7 4.7 7.2 4.7s4.4.5 7.3 4.3c3.7 4.9 4.3 9.5 1.6 11.1-1.5.8-1.6 1.3-.5 3q2.9 4.8-1.5 8l-2.8 2 4 1.6c4.8 2 8.5 5.3 8.5 7.5 0 .9-1.8 3.3-3.9 5.4-4.5 4.4-5.8 7.6-3.2 7.6.9 0 2.7-.7 3.9-1.6 2-1.4 2.7-1.4 7.7.1 4.8 1.4 9.1 1.3 11.8-.2.4-.3-.4-1.4-1.8-2.5-3.9-3-3.1-6.2 1.6-6.6 4-.3 3.5-1.1 5.5 8.9.5 2.5.1 3.6-2.5 6.3-3.1 3.2-3.1 3.3-1.6 6.9 1.2 3 1.3 4.5.4 8.2-1.3 5.1-.6 10.7 1.6 12.5 1.8 1.5 12.6-.2 16.2-2.5 2.9-2 2.6-3.3-2.9-12.7-4.4-7.4-4.4-8.5-1.2-17.1 2.3-5.8 1.6-7.2-5.1-10.7-5.7-3-7.4-6.4-5.5-11 1.4-3.4 5.5-7.9 9.3-10.3 1.5-1 3.9-3.5 5.3-5.7 1.5-2.2 3.1-4 3.7-4s2.6 1.5 4.5 3.2c3.2 3.1 3.4 3.1 2.7.9-.4-1.3-.7-4.1-.7-6.3.1-2.1-.3-3.8-.8-3.8-1.5 0-8-6.1-8-7.5q-.2-1.2-2.8-1.8c-4.4-.9-7.7-4.1-11.3-11.1-3.7-7.2-3.4-9.5.6-4.7 2.3 2.6 3 2.9 4.7 2s2.5-.6 4.8 1.6q2.7 2.6 3.4 1.6c1.4-2.3 3.7-1 5.7 3.3 1.9 3.8 2.8 4.5 7.8 6.1 3.1.9 7 2.6 8.8 3.6l3.2 2-2 3.4c-1.6 2.7-1.8 3.8-.9 5.5 1.6 3 4 11.1 4 13.7a26 26 0 0 0 5.5 13.9c3 2.7 6.1 8.9 7 13.7.6 3 .4 4.1-1 5.1-5.2 3.8 5.4 7.2 18.9 6.1 4.6-.4 8.9-1.1 9.6-1.5 1.2-.8.8-1.1-6.4-5.5-1.6-1-1.9-2.1-1.7-6.6.2-5.3-.2-6.7-6.7-23.7-1.5-3.7-1.5-4.4-.3-5.2q1.5-.8 3.2.1c2.1 1.1 5.9 1.2 5.9.1 0-.4-1.3-1.3-3-1.9-3.2-1.2-4-4.5-2-8.3.8-1.5-.3-3.7-5.6-11.7l-6.5-9.8 3.6-3.3c1.9-1.8 4.9-3.5 6.5-3.8 1.6-.4 3.3-1.1 3.8-1.8a40 40 0 0 0 2.8-17.1c-.6-2.8-.3-4 .9-4.9 1.3-1 .6-2-5.5-7.1-7.3-6.2-9.3-7.2-14.6-7.4-4.7-.2-6.1-2.4-3.5-5.7l2.1-2.7-2.6-4.6c-3.5-6-8.7-13.1-11.3-15.5-1.9-1.8-2.3-1.8-8.4-.1-9 2.4-12.9 1.1-16-5.3-2-4.4-3-5.1-13.3-10.4a62 62 0 0 0-17.5-6.7 55 55 0 0 0-17.4-.4m-285.2 8.5-5.3 1v4.3c0 2.4.5 4.7 1 5s1 1.7 1 3c0 3.3 5 5.9 9.7 5.2 6.4-1.1 8.2-4.8 4.2-8.8-1.9-1.9-2.2-1.9-4.4-.5-7 4.6-7.6-1.9-.7-7.1 4.9-3.7 4.3-3.9-5.5-2.1m66.9 9.5c-2.5.5-4.7 3.7-3.6 5.4.6 1.1 7.9.7 9.1-.5.3-.3.3-1.7-.1-3.1-.6-2.5-1-2.6-5.4-1.8M856.7 676c.3 1.1 1.2 2 1.9 2q1.3-.2 1.4-2 0-2-1.9-2-2-.1-1.4 2m63.5 16a12 12 0 0 0-2.2 5.7c0 2.7 0 2.7 1.9.8 1.6-1.7 3.9-9.5 2.8-9.5-.2 0-1.3 1.3-2.5 3M379 702.7c-3.9 3.6-4 3.9-2.5 6 2.3 3.3 4.8 2.8 8.9-1.8q6.4-7 .4-7.7c-2-.2-3.8.7-6.8 3.5m-34.5 8.5-4.2 1.4a2 2 0 0 0-1.3 1.8c0 1.4.8 1.8 6.2 3q2.6.6 5 4.9c1.8 3.1 3 4.1 4.6 4 1.7-.2 2.8 1.1 5.8 6.7 3.4 6.6 7.5 10.7 9.3 9.5 2.2-1.3 2.3-8.4.1-13.2-1.9-4.2-2-5.3-.9-9.6 1.5-6.4.6-7.3-9.4-8.6-9.1-1.3-11.1-1.3-15.2.1m579.3 1.4c-3.4 1.8-2.8 5.4.8 5.4 2.8 0 4.1-2.3 2.8-5-.8-1.7-1.2-1.7-3.6-.4m-104.9 3c-2.9 3-3.9 3.4-6.4 2.9-1.6-.4-4.5-.7-6.4-.8-3.4-.2-3.5 0-6.5 7.1-3.9 9.4-3.3 11.3 5.2 16 4.5 2.5 6.6 3.1 7.5 2.4.7-.6 4-1.2 7.2-1.4 5.9-.3 6-.3 5.7-3.1-.2-1.5.4-3.9 1.2-5.2 2.1-3.2 2-5.3-.4-9.3-1.1-1.8-2-5-2-7.2 0-2.1-.4-4.1-.8-4.4s-2.4 1.1-4.3 3"/><path d="M550 736.7c0 .5.9 2.2 1.9 3.9q1.8 3 10.2 7.4c4.6 2.3 9.6 5.3 11 6.7l2.6 2.4 1.8-4c3.1-7 .4-13.7-6.4-16a66 66 0 0 0-21.1-.4M500.5 750c-1.6 1.1-5.9 3-9.5 4.1-9.7 3.2-9.8 3.5-4.8 8.6 3.8 3.9 4.1 4.6 3 6.4-1.1 1.7-1 2.3.8 3.7 2 1.7 1.9 1.8-3.9 6.6-3.3 2.7-7.4 6.3-9.1 8.1l-3.1 3.2 1.8 5.6c1.5 4.7 2.2 5.6 4.6 5.9s2.7.1 2.7-2c0-1.3-1-3.2-2.2-4.2-2.2-1.7-2.2-1.9-.4-2.6 1.1-.4 3.5.1 6.2 1.5q7.4 3.6 7.5.8l.2-5.2c.2-3.5.5-4 2.8-4.3 4.3-.5 10.3 5.9 12.4 13.2 1.4 4.9 1.5 6.5.5 9.6s-1 4.2.4 6.8c1.5 2.9 1.5 3.7-.5 12.4l-2.5 11.6c-.6 3-7.1 10.1-10 10.8-4.6 1.2-2 7 4.6 10.4a21 21 0 0 0 8.8 2c3.7 0 5.4.5 6.8 2.1l1.8 2 3.8-4a16 16 0 0 1 4.6-4.1c.4 0 2.6 1.8 4.7 4 6.8 7 7.1 5.5 1.4-7.2-4.1-8.9-4.3-11.5-1.3-12.5.6-.2 6.1 3.1 12.4 7.2a81 81 0 0 0 11.7 7.2c.9-.9-9-20.4-11.9-23.4-3.7-3.8-3.1-5.2 3.6-7.7a15 15 0 0 0 7.1-5.6c4.9-7.1 5.7-7.5 11-5.4l4.6 1.7 2.9-3.4c5.1-5.9 4-8.4-2.7-6.2-4.4 1.5-4.5 1.5-7.3-1.2l-2.8-2.7-5.9 2.7c-4.8 2.2-7 2.6-12.8 2.4-10.3-.3-10.1-.3-15.4 5.2l-4.9 5.2-2.1-4.1c-3.6-7-3.5-7.2 8.7-14.3 4.2-2.5 6.2-7.2 6.2-15q.1-9.7-2.5-1.6c-.8 2.5-1.6 3.3-3.9 3.5s-3.8-.5-7.2-3.9c-2.4-2.4-4.4-5-4.4-5.9q0-2.3-7.9-9.3c-3.6-3.2-3.8-5.3-1.1-10.7 2.9-5.6 2.6-7.6-1.1-8.9s-2.8-1.5-6.4.9m120.7 5.7q-2.4.4-1.8 2l.6 1.9c0 .6 6.2.5 8.8-.2q2-.7 2.2-2.5c0-1.6-.7-1.9-3.7-1.8-2.1.1-4.8.4-6.1.6m-279 28.4c-2.4 1.1-4.6 2.8-4.9 3.7-.2.9-1.3 3.8-2.4 6.4-2.2 5.4-2.3 5.8-.8 5.8.6 0 2.4.9 4 2.1q3 2 2.9 4.9c0 2.4-.8 3.3-4.9 5.6q-4.9 2.7-6.2 5.6c-1.3 2.9-2.5 3.6-4.6 4.4-2.9 1.3-3.2 1.7-2.3 3.4 3.1 5.8 10 5.1 17.6-1.9 6.1-5.6 9.6-6.5 11.5-3l1.1 2.1 2.5-2.4c3.2-3 5.6-7.6 4.9-9.4-.7-1.7-5.9-1.8-8.5-.2-3.8 2.3-11.1-5.4-11.1-11.7 0-3.2 4.1-12.9 6.7-15.7q3.2-3.6-5.5.3m279.8 8.4q0 2.6 1.8 2.5 3.9 0 2.1-3.1c-1.4-2.8-3.9-2.4-3.9.6m-360.9 32.1c-2.7 2.2-3.1 3.3-3.1 7.2 0 5.6.3 6.1 6 10.6 5.2 4.1 8.2 4.5 10.4 1.4 2.6-3.7 2-8.1-1.4-10.6q-3-2.2-3-4.8c0-6.5-3.8-8.1-8.9-3.8M806.2 850c-3.9 2.8-4.2 3.3-3 4.8.8.9 2 2.9 2.7 4.4 1.6 3.1 3.9 4.4 4.7 2.4.3-.7.4-4.3.2-8l-.3-6.8zm-60.7-.5c-1.6.8-5.6 1.4-8.8 1.5h-5.8l.7 4.7c.8 6 .8 6 4.1 6.6a32 32 0 0 1 6.1 1.8c3 1.3 3.4 1.2 5.9-1.4 2.3-2.3 2.8-3.5 2.8-8.4 0-3.1-.4-5.7-1-5.9a12 12 0 0 0-4 1.1M118 857c0 3.8.3 7 .6 7 .4 0 2.2-1.4 4.1-3s3.7-3 4.1-3c.5 0 1.8 1.3 3 3 2.7 3.6 3.6 3.7 8.1.9l3.4-2-3.2-2c-1.7-1-4.7-1.9-6.7-1.9-3.8 0-8.3-1.9-10.3-4.4-2.4-2.9-3.1-1.7-3.1 5.4m643.6 12.5c-8.9 3.8-10.8 5.3-13 9.9a46 46 0 0 0-4.1 16.7c.7 2.1 8.7 6.1 12.1 6.1 1.4 0 4.3-1.4 6.5-3.2 3.7-3 4.2-3.1 5.8-1.6q1.7 1.6 8.1 1.6h6.3l-.9-3.3c-.5-1.7-.9-7-.9-11.7s-.4-9.2-1-10c-1.4-2.1-8.7-8-10-8-.5 0-4.5 1.6-8.9 3.5m-638.6 16c-1.2 2.2-1.1 2.7.4 3.8 4.5 3.3-1.5 7.7-10.6 7.7-3.7 0-6.8 2-6.8 4.4 0 1.5 2.4 3.8 5.8 5.5 2 1.1 2.6.9 4.7-1.3s3.2-2.6 9-2.6c7.7 0 8.8-1.2 5.5-6.4-2.4-4-1.7-6.6 2.3-8.7 2.1-1.2 2.1-1.3-1.8-3-5.5-2.4-6.9-2.3-8.5.6"/></svg>