<svg xmlns="http://www.w3.org/2000/svg" width="1365.333" height="1365.333" viewBox="0 0 1024 1024"><path d="M497.6 72.5a24 24 0 0 1-8.4 9.8c-5.4 4.2-6.2 5.3-7.7 10.5l-2 6.9q-.4 1.3-7.8 1.3c-6.8 0-7.5-.2-10.1-2.9l-2.8-2.9-4.4 2.3a34 34 0 0 1-8.4 3c-3.2.5-4.4 1.3-5.3 3.3a41 41 0 0 1-5.5 7.7l-4.4 5-17.1 4.5-17.1 4.6-1.1 4.9q-1.7 8.3-6.5 4c-1.6-1.4-3.1-1.6-8.7-1.1-3.7.4-8.3.7-10.1.6-2.9 0-3.5.5-5.1 4.1-1.5 3.3-1.7 4.8-.9 7.1q1 2.8-.1 4.2c-1.1 1.4-.9 1.6-.1 2.1.5.3 1 2.1 1 3.8 0 4.8 1.9 6.8 10.9 11.1 4.4 2.2 8.3 4.8 8.6 5.7s-.3 3.5-1.4 5.6c-1.6 3.3-1.9 5.2-1.4 12.2l.6 8.2-3.3 3.4c-3.3 3.4-4 6-2.7 10.7.6 2.2.2 3-2.4 4.9l-3.2 2.2-6.3-3.3c-5.5-3-6.4-3.2-8-2-.9.8-2.5 1.4-3.6 1.2q-1.6-.2-1.8 1-.3 1.7-1.9 2.5c-1.5.9-2.3.9-3.7-.2-2.6-1.9-5.4.7-5.4 5.1v3.2l-7.2 1.2c-5.1.9-10.5 2.9-18 6.6a76 76 0 0 0-11.3 6.4c-.8 1.3 2.1 6 3.7 6 .6 0 2 .7 3 1.6 1.7 1.6 2 1.5 5.9-1q6.9-4.6 6.9 2.1c0 2.1.3 2.3 1.4 1.4 1.8-1.5 5 3.1 4 6.1-.5 1.7-1.2 2-4.5 1.5-2.1-.3-3.9-.1-3.9.4s-1.5.9-3.4.9c-2.9 0-3.4.4-3.9 2.9q-.6 2.8-2.8 3.4l-2.1.6 2 2.5a33 33 0 0 1 3.7 9.6c1.7 7.1 1.7 7.1 7.2 9.9l5.6 2.8-4.7 3.8-4.7 3.8-5.1-1.6-5-1.6-4.8 4.5q-4.7 4.4-6.4 3.8c-.8-.3-2.9-.1-4.5.4-2.6.9-3.2.7-6.2-2.4-1.8-1.8-4.8-3.9-6.6-4.5s-3.3-1.7-3.3-2.5c0-1.8-5.2-4.4-7.7-3.8-1.1.3-2.5-.1-3.2-1s-2.7-1.6-4.4-1.6-4.5-1.1-6.3-2.5c-5.3-4.1-7.7-3-9.2 4-.7 3.5-1.2 4.1-4.7 5.1-9.9 2.8-9.3 2.9-11.6-1.9-1.7-3.5-3.5-5.2-8.5-8.1a27 27 0 0 0-9.4-3.6q-4.6 0-2.1-3.9c1.3-2-1.6-6.1-5.4-7.6-2.6-1.1-3.3-2.3-4.9-8-1.5-5.2-2.4-6.9-4.3-7.6-4.7-1.8-6-1.1-8.2 4.1a15 15 0 0 1-6.9 8c-4.5 2.7-4.8 3.2-4.4 6.4.2 1.9-.1 5-.8 7-1.5 4.5-4.2 5.4-32.4 10.6-23.9 4.3-28.5 4.4-38.9.9-3.2-1.2-6.5-1.8-7.3-1.5s-2.2 2.1-3.1 4.1c-1.6 3.3-2 3.5-6.3 3.5-3.2 0-5.6.7-8.2 2.5-2 1.4-4.2 2.5-4.7 2.5s-3-1.3-5.3-2.9c-3.6-2.5-5.8-3.1-13.1-3.9-8.4-.8-9.1-.7-14.9 1.9l-6.2 2.7-5.5-2.4a228 228 0 0 1-13.8-7L4.7 287c-.2 0-1.3 1.3-2.5 3-2.2 2.9-2.2 3-.3 4.9 1.1 1.1 2.4 4.5 3.1 7.8.6 3.2 1.5 6.7 1.9 7.8q3.8 9.5 2.2 10.3c-1.9.6-1.2 4.8 1.3 7.1q2.5 2.4 4.8 1.8c3.8-1 5.3.7 2.1 2.2l-2.8 1.3 2.2 1.5 2.2 1.4-2.1 2.1c-1.8 1.8-1.8 2.1-.4 3.7 1.8 2 2.1 5.7.6 6.6-1.2.7-1.4 6.8-.3 7.9.5.4 1.3 3.1 1.8 5.9l1 5.2 8-.1c7.5-.1 7.6-.1 2 .5-3.3.3-6.9 1.2-8 1.9-2 1.2-1.9 1.3.6 3.5 2.2 1.8 2.6 2.8 2.2 5.4s-.2 3.3 1.2 3.3c2.7 0 7.1 3.6 8.5 7 .7 1.6 1.8 3 2.5 3s2.4 1.8 3.9 4 3.4 4 4.5 4c1.7 0 4 2.8 8.1 9.9.8 1.4 1.4 4.4 1.4 6.6 0 4.2 1.9 6.7 4.4 5.7q1.5-.4 1 .9t-3.2 1.2c-3.1-.2-3.4 1.2-.7 2.7 1.1.5 2.3 2 2.6 3.1q.8 2.2 1.5.9t1.4.5q.5 1.5.1 2.5-.9 1.7 5.6 3.9c3.2 1 3.7 1.7 4.3 5.1.9 5.5 3.1 5.2 3.4-.5.1-3.6-.3-4.7-2-6-1.9-1.3-2-1.5-.5-1.5 1 0 3 .9 4.5 1.9 3.5 2.5 9.9 3.6 11.8 2 1.2-1 1.2-1.4-.6-2.6-1.1-.8-2-2-1.9-2.6a6 6 0 0 0-.6-3q-.7-1.8.9-3c.8-.7 1.7-2.1 1.9-3.2.4-2.9 4.7-11.5 5.7-11.5.5 0 2.3-2.9 4-6.5q3.1-6.7 4.5-5.8c2.1.7 1.9 2-.3 2.6-2.1.5-3.7 4.7-1.9 4.7.7-.1 2.5-1.1 4.1-2.4 2.6-2.1 3.1-2.2 5.5-1 3.9 2.1 5.1 1.7 6.6-1.9 1-2.5 1.1-4.4.3-8.2-1.6-8.1-1.1-12.1 1.7-14.9 1.4-1.4 2.8-3.9 3.1-5.5q.7-2.8 1.9-2.5c1.9.8 5.2-6.9 6.9-15.9 2.8-14.3 5.6-23.4 8.2-25.8 1.3-1.2 2.4-2.8 2.4-3.4s1-2.1 2.2-3.2l2.3-2 12 3.9a42 42 0 0 1 14.1 6.3c1.9 2 9.3 6.5 10.9 6.5 1 0 .5-3.6-.7-4.8-1.6-1.6.2-1.5 2.3.1.9.7 1.8 2.8 2.1 4.7l.9 5q.3 1.5-1.6 1.6c-4.5.2-4.6.3-3.5 2.3q2.3 4.6-1 1.6c-1.9-1.7-1.9-1.6-1.5 1.9l.9 7q.5 3.3-1.5 6.2c-1 1.6-1.9 3.9-1.9 5.1 0 1.9-.3 2-2.9 1-3.8-1.4-6.5-.3-5.8 2.4.4 1.6-.1 2.3-2.3 3-5.3 1.9-4.7 5.3 2.2 11.9 6.2 5.9 15.1 8.5 19.3 5.7 1.7-1.2 2.5-1.2 5.3 0 3.3 1.4 4.2 3.9 2 6.1q-1.3 1 1.3 3.1a10 10 0 0 0 3.9 2.1c.8 0 3.8 1.2 6.5 2.7s6.8 2.9 9 3.2c3.5.5 4 1 4.3 3.4.2 1.6 1.1 3.1 2 3.4a25 25 0 0 1 4.1 2.5c3.5 2.7 5.9 2.4 5.3-.7-.4-2.5-4.9-6.5-7.1-6.5q-1 0-1.1-.9-.3-1.1-2-1.4-2-.5-2-3.1c0-2.7.5-2.9 5.2-2.6 3.3.2 4.1-1.1 3.2-5.4q-.6-3.5-2.8-4.2c-3.1-.9-7.6-5.5-7.6-7.7 0-3.6-1.9-5.8-4.5-5.1q-5.3 1.3-8-3.6c-1.9-3.7-1.9-7.4 0-9 1.7-1.4.3-5-1.9-5q-1.4-.1-2.7-1.6-1.3-1.6-4.1-1c-1.5.3-2.8.1-2.8-.4q.2-1 1.5-1c2.1 0 1.9-1-1.5-6.3-3.2-5.2-4.3-11-1.5-8.7q1.4 1.3 1.5 2.5c0 1 7 7.2 15 13.1l5.7 4.5c1.6 1.3 6.4 3.5 10.7 4.9 4.5 1.4 8 3.1 8.3 4l2.8 6.5a74 74 0 0 1 6.5 16.2c0 .9.8 2.2 1.7 2.9 2.5 1.7 2.4 14 0 17.4-.9 1.4-1.7 3.6-1.7 5s-.5 3.1-1.1 3.7c-2 2-2.3 14.2-.5 21.1.8 3.4 1.3 7.4 1 8.9-.7 3.4.4 5.9 5.6 13.8 2.1 3.3 5.2 8.5 6.9 11.6 1.6 3.1 4.6 6.9 6.5 8.5q15.9 12.9 19.1 17.5a55 55 0 0 0 14.8 13c1.4.6 4.9 4 7.9 7.6a47 47 0 0 0 22.8 14.8c2 .4 5.4 2.4 8 4.9 5.6 5.2 8.2 6.6 11.9 6.6 3.6 0 5.6 2.4 5.3 6.1-.3 2.5.3 3.3 4.5 5.8 8.2 5.1 9.6 6.2 8.5 7.3q-1 .9-4-.6c-3.9-2-6.8-2-7.5-.2-.5 1.3-1.2 1.3-4.7-.1-2.3-.9-4.5-2.4-5-3.4-.8-1.4-.2-1.9 3.6-2.8 3.5-.9 4.4-1.5 4-2.7-.3-.9-.6-2.4-.6-3.5q0-2-2.1-1.9a29 29 0 0 1-7-2.1c-3.8-1.7-5.3-1.9-6.2-1-1.9 1.9-4.6 1.3-10.1-2.4-2.9-1.9-5.9-3.5-6.6-3.5s-1.1-.3-.7-.6c.8-.9-4.8-5.4-6.7-5.4q-1.5-.1-1.6-1t-1.4-1c-3 0-2.7 2.2.8 5.5q5.8 5.5 2.1 5.5c-1.9 0-1.9.4 0 4 2.7 5.2-2.2 3.1-10.7-4.7a21 21 0 0 0-5.8-4.3c-1.1 0-.4 4.1 1.1 7.2q2.6 4.6-2.2 3.4c-3.3-.6-9.7-5.6-9.2-7.2.1-.5-.9-1.8-2.4-2.8-3-2.2-15.3-6.7-16.5-6-1.3.8-.9 3.8.8 6.3 1.5 2.1 2.1 2.3 7.9 1.6 6.1-.6 6.3-.6 6.9 1.9.3 1.3.4 3 .1 3.8-.5 1.3 2.3 4.7 5.9 7.2 1.7 1.2 1.8 1.4.2 4.5l-1.7 3.2 6.1 5.9c3.4 3.2 5.7 5.9 5.1 6.1-1.6.6 4.4 7.5 7.7 9.1 1.5.7 3.3 2.8 4.1 4.5s2.3 3.6 3.4 3.9q2.3.6.6 1.5t2.3 2.4c2.1.8 4.2 1.5 4.7 1.5s3.5 3 6.4 6.7c8 10 18 19.2 21.6 19.9 1.8.4 3.8 1.8 4.9 3.5a43 43 0 0 0 16.1 12c2 .6 4.3 1.7 5.1 2.4s2.4 1.5 3.5 1.8q1.5.4-1.8.4c-5.2 0-5.4.7-1 3.4 2.1 1.3 4.9 3.5 6.3 5 2 2 4.2 2.9 9.8 3.9 5.2.9 8.1 2 10.9 4.2 3 2.3 4.4 2.8 6.8 2.4q2.9-.6 1.6.3-2.7 2 3.6 4.7c1.8.8 3.7 2.2 4 3.2s2 3 3.7 4.7l3.1 3-3.1.3c-3.1.3-3.1.4-2.3 4 .5 2 .9 5.7.9 8 0 3.5.4 4.5 2 4.9 2.5.7 2.7 3.3.3 3.3q-2 0 3 4.5 4.7 4.3 3.3 4.5c-2.2 0-2 1.9.2 2.6l3.5 1.5q1.7.8 2.8.3c.6-.3 2.1.4 3.3 1.5 2.7 2.6 15.6 4.2 15.6 2q-.1-1.2 4.5-.6c3.8.6 4.6.4 5.5-1.4s.6-2.2-3.4-4c-2.6-1.1-4.6-2.1-4.6-2.3s1.8.1 4.1.7c2.9.7 5.5.7 9-.1 3.8-.9 5.4-.9 6.9.1q4.8 2.7-2.7 2.9l-4.8.3 2.8 1.9c2.4 1.6 3.5 1.8 6.6 1 2-.6 4.7-.7 6.1-.3 4 1.1 17 1 17-.1q-.2-1-1.2-1a27 27 0 0 1-6.3-2.5 25 25 0 0 0-8-2.5c-3.1 0-7.5-2-4.6-2a44 44 0 0 0 7.8-2.6c6.2-2.4 6.7-2.5 16.1-1.4 10.2 1.2 14.7 3 7.5 3-2.4 0-4.6.6-5.3 1.5s-2 1.5-2.9 1.5c-1.3.1-1.3.2.3 1.2 1 .6 5.9 1.1 10.7 1.2 8.3.2 9.1.4 13.6 3.6 13.4 9.5 14.3 10 19.5 10 4.1 0 5.4.4 6.8 2.3 2.4 3 10.9 5.5 22.9 6.6l9.4.9 10.4 10.8c5.7 6 10.8 11.7 11.4 12.7s2.4 2.3 3.9 2.9c1.6.5 3.2 1.8 3.5 2.9a55 55 0 0 0 13.8 13.9c.7 0 2.1 1.4 3 3q1.8 3 4.2 3c4.1 0 12.7 3.8 17.8 7.7a291 291 0 0 1 13.4 11.6q8.5 7.8 10.1 7.3 1.8-.6 2.7 1.7c.6 1.2 1.9 2.4 3 2.6q3.6.4 3.5 5.2c0 3.6 6.8 11.9 9.7 11.9 1.2 0 2.7.9 3.3 2s2 2.4 3.1 3.1c1.8.9 1.9.9 1-.9-1-1.9-.3-2.2 11.9-5.2q13-3.2 13-4.6a38 38 0 0 0-6.9-18.3l-4.9-7.3-16.8-9.2-16.9-9.1-2.1-6-2.1-5.9-6.9-2.3-6.9-2.3-5.3-13.4-5.3-13.4 2.1-8.2c1.2-4.5 2-8.3 1.8-8.5l-6-3.4a17 17 0 0 0-10-3c-4.9.2-6.7-.7-19-10.1-6-4.6-11.3-10-18.4-18.8-11.8-14.6-25.7-26.2-36.2-30.2l-6.6-2.5-2.9-7c-2.4-6-3.6-7.5-7.8-10.3a30 30 0 0 1-8-8.2 35 35 0 0 0-7.2-8 37 37 0 0 1-7.8-8.7c-3.3-5.4-4.1-6-10.5-8.3s-7-2.8-8.3-6.7-1.8-4.2-6.2-4.8c-3.9-.5-5.4-1.5-9.6-5.8a32 32 0 0 1-6.3-9c-.7-2.2-4.2-7.2-8.1-11.5q-7-7.8-6.9-10.3c0-1.4-1.1-5.9-2.5-10-2.4-6.9-2.5-7.8-1.3-13.8l1.2-6.4-2.9-2.3a19 19 0 0 0-5.7-3c-3.3-.7-3.4-.9-.9-4 1.9-2.4 1.8-2.4-3.3-15.8l-5.2-13.5-8.9-6.8c-8-6.1-9.6-7.9-15.8-18l-7-11.2-7.7.6-7.8.6-5.5-4.4a18 18 0 0 1-7.6-10.3l-2-5.8 4.6-4.2 4.7-4.3-3.9-6.8c-6.2-11.1-7-19.8-1.8-21.1 2.2-.6 2.4-1 1.8-4.8-.4-2.2-1.8-6.5-3.1-9.5l-2.4-5.4 2.4-2.6c3.8-4 4.3-6.5 3-14.7l-1.1-7.5 2.9-2.4c1.6-1.4 3.5-2.5 4.2-2.5s2.1-.8 3-1.9c1.5-1.6 2.2-1.7 5.8-.8 3.4.8 4.2.8 5-.6 1.5-2.7 5.3-2.1 6.4 1l.9 2.6 3.3-2.8c3.2-2.7 3.5-2.7 6-1.3 1.5.8 3.9 1.8 5.5 2.2 2.9.7 3.3 1.7 1.7 4.7q-1.2 2 .4 1.9c.9 0 3 1.3 4.7 2.8 2.6 2.3 3.3 3.9 4 8.6q1.3 10.8 8.8 10.6c3.2 0 4.4.8 10.1 7 6.2 6.8 6.8 7.1 12.8 8.1 3.4.6 8.2.8 10.7.5 4.3-.7 4.4-.8 5.1-5.2.4-2.6 2.1-6.7 3.9-9.4q3.2-4.8 2.4-6.3c-.7-1.2.5-2.3 5.3-4.9 6-3.3 6.2-3.6 8.5-10.3 2.9-8.7 5.7-11.8 9.8-11.2 1.6.3 4.7 0 6.8-.6 3.4-.9 4.6-.7 11.7 2.3 6.2 2.5 8.9 3.1 11.8 2.7q3.7-.6 11.7 1.7c9.4 2.8 11.2 2.3 11.7-3.2.3-3.2.7-3.7 3-4q2.6-.3 3.2-2.8c.4-1.3 1.4-2.4 2.3-2.4s2.7-1 4-2.1c1.8-1.8 2.5-2 3.7-1q1.7 1.2.5 3.7c-1.6 4.3-1.1 5.4 2.1 5.4 2.4 0 3-.4 3-2.3 0-2.1.1-2.1 1.8.5s1.9 2.7 3.6 1c1.7-1.6 1.8-1.6 1.2.5-.6 1.9-.3 2.2 2.1 2 2.2-.2 2.9.3 3.1 1.9s3 3.3 11.5 7.3c10.2 4.7 11.8 5.1 18.4 5.1h7.3l1.8-3.6q1.9-3.6 2.6-2.5c.4.6 1.6 1.1 2.7 1.1q1.7.1 1.9 1.5c.2 1.4.7 1.5 1.5 1.5s1.5.4 1.5 1c0 3.3 15.9 5.6 18.9 2.7 1-1 1.6-.8 3.1 1 1 1.3 2.5 2.3 3.4 2.3s1.6.8 1.6 1.9c0 2.5 7.7 3.5 9 1.2.7-1.4 1.1-1.4 2.7.2q1.9 1.7 3 .6 1-1 3.5.1c2.1 1 3.3.8 7.6-1.4 2.8-1.4 5.5-2.6 6-2.6s7.3 4 15.1 9a164 164 0 0 0 15.2 9c.5 0 4.3-1.9 8.4-4.2 6.6-3.7 7.5-4.5 7.5-7 0-2.3.4-2.8 2.4-2.8q2.4.1 3.6-3.1c1.8-4.3 4.9-5.3 7.9-2.5q2.5 2.2 2.8.8c.6-1.7 4.8-1.5 6.3.3.7.8 1 2.2.6 3q-.5 1.6 3 4.7c3.3 2.9 4 3.1 10.7 2.9 8-.2 10.2-1.7 9.2-6.1-.5-2.4-.1-2.7 4.5-4.4 2.8-1 5.2-1.7 5.4-1.5l1.3 2.3c1.4 2.6 9 4.5 17.9 4.6h7.2l3.6 4.4c3 3.7 4.4 4.6 8.1 5.2 2.5.3 4.8 1 5.1 1.5q1.6 2.4 3.6-1.6c.8-1.9.8-2.8-.2-4-1.6-1.9 0-2 2.6 0q3.5 2.7 3.4.2 0-1.2 4-1.2c4.2 0 4.7.4 2.8 2.3-.9.9-.3 1.5 2.5 2.7 4.7 2 4.7 2 4.7-1.4 0-4.1 2.4-5.8 3.8-2.7.6 1.3.8 3.3.6 4.3-.4 1.4.7 3 4.1 5.8 3.9 3.2 4.6 4.2 4 6.3-.6 2.4-.6 2.4 5 1.7l5.5-.6v4.6c0 2.5.4 5.4.9 6.4.8 1.4.5 1.6-2.3 1.3-3.2-.4-3.2-.4-2.8 3.8.4 3.7.8 4.3 5.2 6.5 2.6 1.3 5.4 3.5 6.4 4.9 1.6 2.6 1.9 2.6 13.6 2.6h11.9l.7-5.1c.8-6.3 3.2-7.6 10.9-6.1 4.8 1 5.1.9 8.6-2.3 2-1.8 5.1-3.6 6.9-4 3-.7 3.2-.9 2.5-4.3-1-5.1-1-5.2-6.6-5.2s-5.3.8-2.7-9.3c.5-2.1.6-4.7.3-5.7-.3-1.1-.1-2.8.5-4 .9-1.6.6-2.7-1.5-5.7q-6.5-9.7 2.9-6.8l4.3 1.3 4.1-5.2c3.8-4.9 4-5.4 2.4-6.9q-1.7-1.8-.5-2.8c.9-.9 3.2-.7 9.3.9 8 2 8 2 9.1 0 .9-1.7 1.7-1.9 4.7-1.3 2.1.4 4.8 1.7 6.2 3.1 1.4 1.3 4 2.7 5.8 3 4.1.8 10.2-.3 10.8-2.1.3-.7-.4-3.5-1.6-6.2l-2.1-5-12.7-1.9-12.7-2-.6-2.9q-.5-3-2-2.6-9.8 2.4-18.8-1.7c-5.8-2.5-6.6-3.3-7.8-6.9-1.3-3.9-1.6-4.1-7.6-5.3-8.4-1.7-13.7-5.1-13.7-8.9 0-2.5.5-3 5-4.2l5-1.4-3-4.7q-3-4.8-3-8.7c0-3.7.2-3.9 3.8-4.5 2-.3 5.4-.6 7.4-.6 2.7 0 4.1-.6 5.3-2.2 1.4-2.1 1.4-2.4-.7-4-1.3-1-4-2.3-6-2.8s-4-1.5-4.4-2.1c-.6-1.1-10.6-.5-14 .8q-1.4.4-1.4-1.5 0-5.3-3.6-5.2c-3.2 0-3.1-2.5.1-4.6 2.3-1.5 2.4-1.7.7-4.1-1.6-2.6-1.6-2.6 1.1-2.1 2.3.4 2.7.2 2.7-1.7 0-1.2.9-3 2-4 3-2.7 2.4-5-2-8.7l-4.1-3.2 3.8-2.3c6.5-3.9 8.3-7.8 3.3-7.1-1.7.3-3.3.1-3.6-.4s-2.1-.8-4.1-.8c-3.9 0-10.7-3.6-9.7-5.2.4-.6 2.4-.7 4.8-.4 4.2.7 4.3.6 5.3-2.9.9-2.9.8-3.9-.6-5.6-1.6-2-1.7-2-5.4-.3-4.9 2.4-6.2 1.1-4.8-4.3.9-3.3 1.6-4.2 4.1-4.7q4.9-.8 1.5-5c-2-2.6-1.9-3.3.5-4.1 2.2-.7 2.8-4.5.8-4.5-.7.1-2.4.7-3.8 1.5s-3.8 1.4-5.5 1.5q-3 0-5.1 2.7l-2.2 2.7-10.3-3.2c-8.7-2.8-10.5-3.1-11.4-1.9q-15.6 21.3-21.6 24.3c-2.8 1.4-5.5 2.1-6.8 1.7-1.8-.4-3.3.5-7.1 4.2-5.2 5.1-7.3 5.5-14.7 2.4-2.8-1.1-3.4-1.1-5 .3-2.3 2.1-9.2 1.1-18.3-2.6-7.7-3.2-21.1-4.3-23.1-2-1.9 2.3-8.5 1.7-12.9-1.1-3.5-2.2-5.1-2.5-13.4-2.5-7.9 0-10.1.4-13.1 2.1-2 1.2-3.7 2-3.9 1.8l-2.6-3.7c-2-3-2.7-3.3-5.3-2.8-2.3.5-6.1-.6-14.9-4l-11.7-4.5-1.8-5.6c-2.6-8.3-7.4-11.4-21.7-14.3l-13.3-2.7c-1.8-.4-2.5.1-3.3 2.2-1.1 2.8-1.6 2.8-8.9-.3l-3.6-1.5 3.5-1.2c3.3-1.1 3.4-1.2 1.2-1.9q-2.4-.8-1.7-2.6c.8-2.6-5.3-4-7-1.6-1.7 2.2-2 2.1-4.4-1.9q-2-3.6-4.3-3.5c-2.2 0-2.2-.1.7-2.4l3-2.4-3.7-.7c-3.1-.6-3.8-1.1-3.8-3.1q.2-2.6-2.2-2.4c-2.1 0-2.1 0-.2-2.1 1.8-2.1 1.8-2.1-.9-4.1-1.5-1.1-2.7-2.6-2.7-3.3s-1.6-1.9-3.5-2.5c-3.2-1-3.5-1.5-3.5-4.8v-3.7l-18.6-8c-18.4-7.9-18.6-8.1-24.5-14.7-4.7-5.3-5.9-7.3-5.9-10 0-4.5-5-12-9.8-14.8-3.2-1.9-4.3-2.1-8-1.2-3.5.8-4.5.7-4.9-.4-.3-.8-1.9-1.4-3.8-1.4-3 0-3.5-.5-5.4-5q-2.2-5-4.5-5.6-2.5-.4-1.9-2.8c.4-1.9-.3-2.6-4.5-4.4-6-2.6-6.5-2.6-10-.8-2.4 1.3-3.3 1.2-8.4-.9a30 30 0 0 1-8.5-5.4c-2.3-2.6-4.1-3.4-10-4.5l-7.3-1.4z"/><path d="M139.9 363.2a23 23 0 0 1-3.5 5.3c-1.6 1.2-.7 6.4 1.2 7.2q1.3.6 1.4 2.3 0 3 6.8 6.4c3.1 1.6 3.3 2 3.1 6.6-.2 4.4.1 5.3 3.6 9.2 2.1 2.4 4.7 4.6 5.7 5s1.8 1.2 1.8 1.8-.7.6-2-.2c-1.5-1-2.2-1-3.2 0s-.9 1.9.5 4.4c1.6 2.8 1.6 3.3.3 4.6-2.2 2.2-7.1-.1-10.6-5-3-4.2-3.5-4-5.6 1.8-.9 2.6-.8 3.3.6 4.2 1 .6 2 2.3 2.3 3.9 1.5 7.6 1.9 9.1 2.9 12.6q1.1 3.6 2.4 3.3c2-.8 3.1 1.4 3.7 7.4.4 3.1 1.3 6 2.2 6.6q1.5 1.1 1.5 6.3c0 5-.1 5.2-2.2 4.6a9 9 0 0 1-3.2-1.6q-3.4-2.9-3.6 3c0 6.1 1.1 9.9 3.5 12.3q5.6 5.7 3 7.8c-2.2 1.8-1.9 6.7.4 8 2.9 1.5 5.1 1.2 5.1-.8.1-2.3 5 3.6 5 6 0 .9 1.2 2.6 2.8 3.7a47 47 0 0 1 7.1 6.5c2.7 3 8.1 3.7 8.1 1 0-1.7-7.5-9.4-9.1-9.4-1.9 0-9.2-8.4-11.3-12.9l-3.1-6.1a26 26 0 0 1-1.1-7.9l-.2-6.4 3.7 3.9c2.1 2.1 4.1 4.8 4.5 6 .6 1.9 7.7 7.4 9.7 7.4q.8-.1.9-1.5c.1-1.4 1.6-2.1 3.5-2.9 5.1-2.2 4.3-4.4-1.2-3.7q-1.2 0-1.3-3.2c-.1-3.2-.6-3.7-1.4-4s-2.6-2.6-4.1-5.1c-2.4-4-2.6-5-1.6-7.8 1.5-4.4 1.4-5-1.5-9.3q-2.5-3.9-1-3.2c1.8.7 2 .1 1.6-6.3-.1-2.5-.9-5.6-1.7-6.9a8 8 0 0 1-.9-6l1.2-7.1c1-6.7 1.4-8 2.9-8 1.6 0 2-3.6.7-5.8-.5-.7-2.3-1.1-4.2-1-3.6.3-3.3.8-12.5-18-3.3-6.7-3.5-7.6-2.9-13.6s.5-6.4-1.7-8c-4.1-2.8-6.6-2.1-9 2.6m76.5 58.5q-.7 2.1-1.6 2.3t.2 1.5c1.1 1.3 2.6 1.5 4.2 1.5 3.1 0 3-.9-.6-5.5-1.6-2-1.6-2-2.2.2m-4.3 8.1c-.7 1.4-1.8 1.8-4.3 1.4l-3.3-.4 3.8 3.7c4 4 4.5 4.7 2.2 3.9q-1.5-.6-1.5 1 .2 1.8-2.5 1a10 10 0 0 0-4.2 0c-1.4.6-1.1 1.2 1.8 4.2 3 3.1 3.9 3.5 7.9 3.3 5.5-.3 7.6.8 13.7 6.9 5.4 5.4 10.8 8 11.7 5.7.9-2.5-6.2-12-13.4-17.9s-8.1-7.4-5.5-9.6c1.4-1.2 1.4-1.5-.1-3.1-2.2-2.4-5-2.4-6.3-.1m16-.7-2.5 1 2.3 1.5c1.7 1.2 2.5 1.3 3.6.4.8-.6 1.1-1.8.8-2.6-.6-1.6-.9-1.6-4.2-.3"/><path d="M141.2 442.2c-1.4 1.4-1.6 4.8-.3 4.8.9 0 2.5-4.9 1.8-5.6q-.4-.2-1.5.8m72.8 20.1c0 .7 1.6 3.2 3.5 5.4s3.5 4.6 3.5 5.2c0 1.5 11.9 14.5 13.6 14.9a2 2 0 0 1 1.4 1.8c0 1.9 2.6 6.1 6.4 10.2 2.5 2.7 2.8 3.6 1.9 5.1s-.6 2.2 2.2 4.4c1.9 1.5 4.1 2.7 5 2.7 4.2 0 13.5 9.6 13.5 14 0 2.1 5.9 3.7 7.1 1.8q.6-1.3 3.3.6c3.1 2 3.1 2.1.5 4.7-1.7 1.7-1.8 2.3-.7 3.6q1.2 1.5 1.3 2.8c0 2 10.1 10.5 12.4 10.5 2.9 0 1.7-2.5-2.8-5.5-4.2-2.9-3.9-3 1.9-1 4.9 1.7 7.9 1.9 10 .5 1.3-.9 1.1-1.3-1-2.9-1.4-1.1-2.1-2.3-1.7-2.7s1.5 0 2.5.9c2.4 2.2 5.2 2.2 5.2.1 0-2.2-6.5-8.2-9.5-9-1.4-.3-2.7-1.5-3-2.5-.4-1.1-2.1-2.6-3.8-3.5-1.8-.9-4.6-3.1-6.4-4.8-8.7-8.5-14.1-11.8-12.8-7.6q.5 1.8-.2 2c-1.3-.1-6.7-5.2-9.7-9.3-1.6-2-3.3-3.7-4-3.7-1.5-.1-8.4-6-6.9-6q1 .1 2.2 1.3c.6.8 3.5 2.6 6.6 4.1 3 1.6 5.5 3.2 5.5 3.6 0 .5 2.7 1.7 6.1 2.9l6.1 2-1.7-2.7c-3.1-4.9-5.6-7-8.9-7.6s-5.8-3.3-8.9-9.3c-2.1-4-6.7-7.3-11.3-8-3.6-.6-3.7-.5-3.2 2.1l.5 2.7-2.4-2.3c-8.6-8-11.3-10.9-11.3-11.8 0-1.4-9.4-11-10.8-11q-1.1.1-1.2 1.3m-82.3 4.5a14 14 0 0 0-3 6.8c-.4 3.7-.2 4.2 2.7 6.2a17 17 0 0 0 3.9 2.2c1.4 0 .6-2.8-1.3-4.5-2.5-2.2-2.6-6.3-.2-7.2 3.2-1.2 4.3-4.7 1.8-5.6-.7-.3-2.5.7-3.9 2.1m4.3 34c0 1.7 2.9 3.4 4.7 2.8q1.5-.7.7-1.5c-1.5-1.4-5.4-2.3-5.4-1.3m83.5 25.2q.8 4.1-.6 5.7c-1.2 1.3-.9 1.9 1.6 3.9 3.9 3.1 8.5 3.2 8.5.3 0-1.1-.7-2.7-1.5-3.5q-1.4-1.5-.8-4.4 1-5.8-4.9-6c-2.9 0-3 .1-2.3 4m-17.8-.6c-.3.8.4 2.6 1.6 4l4 5c1 1.4 2.4 2.6 3.2 2.6 2 0 1.9-2.9 0-3.6q-1.4-.8-1.5-3.4c-.1-2.6-.3-3.5-.6-4.4-.8-2-6-2.1-6.7-.2m-13.7 11c0 1.6 4.6 5.4 9.7 8q7.4 3.6 2.5-1.4c-1.7-1.7-3.4-3-3.8-3s-2.2-1.1-4-2.5c-3.8-2.9-4.4-3-4.4-1.1m18 13.4c0 1.4 2.3 3.2 4.2 3.2 2.4 0 2.3-1.7-.1-3-2.3-1.2-4.1-1.3-4.1-.2m10.3.7c-1.8 1.9-1.6 2.9.7 5q1.8 1.5 2 .7c0-.7 1.4-1.2 3-1.2q3 0 3 1.7c0 2.8 5.2 12.3 6.7 12.3 1.3 0 1.3-.4-.2-2.6-1.8-2.9-1.5-4.3.5-1.9.7.8 1.8 1.5 2.5 1.5s1.8.7 2.6 1.6c1.3 1.6 5.4 1.2 7.4-.7 1.2-1.3-2.3-4.2-4.2-3.5-2.1.8-9.3-3.6-12.6-7.8a19 19 0 0 0-6.4-5.2c-3.9-1.7-3.5-1.7-5 .1m33.7 20.1c0 2.9 12.3 14.4 15.5 14.4q.5-.1.5-1.3a42 42 0 0 0-13-13.2c-1.6-1.9-3-1.9-3 .1m-15 4.5c0 .7.9 2.3 2.1 3.5l2 2.1-2.8.1c-1.5 0-3.8-.6-5-1.4q-2.1-1.3-2.3-.6c0 1.5 8.2 6.3 9.7 5.7 2.5-.9 19.8 16 26.5 26 6.7 9.8 18.2 22.3 25.3 27.4 4.2 3 4.5 3.1 4.5 1.2q0-2.1-1.8-2.1c-1 0-2.9-1.1-4.2-2.5l-2.3-2.5h2.2c1.2 0 3.7 1.1 5.5 2.5s3.5 2.5 3.8 2.5.5-1.3.6-3q0-3-1.7-3.5c-1-.3-4.4-2.8-7.5-5.5-3.2-2.8-6.1-5-6.6-5s-1.7-1.5-2.8-3.4a11 11 0 0 0-5.6-4.6c-3.7-1.2-8.6-7.7-10-13.3-.3-1.5-1.1-2.7-1.6-2.7q-1-.1-1-1.5-.2-1.5-1.2-1.3c-2.1.4-9.1-3.4-9.5-5.3-.3-1-1.8-2.3-3.4-2.9s-2.9-1.8-2.9-2.5-1.7-2.5-3.7-4.1c-5.3-4.2-6.3-4.7-6.3-3.3m51 53.9q1.4 2.2-.5 1.4-1.4-.7-1.5-2 0-3 2 .6m-44-52.9q.2.8 1.5.9c.7 0 1.8.6 2.2 1.4.9 1.5 5.3 3.2 5.3 1.9q0-2.7-5.2-4.1-3.6-1-3.8-.1m21 .3c0 2 4.5 5 6.4 4.3q1.4-.5 2.7 2.4c.6 1.7 2.3 3.8 3.7 4.7 1.3.9 5.7 4.9 9.7 9 5.9 6.1 7.8 7.4 9.6 6.9 2.3-.6 3.8.6 11 9.4 6.6 8 16.9 17.9 18.7 17.9.9 0 2.8.9 4.2 2s4 2 5.8 2c4.6 0 3.9-2.5-1.8-6.5a19 19 0 0 1-5.9-6.3c-.8-1.7-2.4-3.5-3.5-3.8s-3.7-1.8-5.6-3.3-5.5-4-7.9-5.5a65 65 0 0 1-16.9-16.6q-1-2.5-5-3.7c-2.3-.7-5.3-2.4-6.9-3.9-7.6-7-11.2-9.2-12.3-7.5q-.8 1.4-1.4.2a8 8 0 0 0-2.7-2.1q-2-1.2-1.9.4m9.5 20.3c1.1 4.7 14.5 16.5 14.5 12.8 0-2.4-1.2-4.5-2.5-4.5-.7 0-3.4-2.5-6-5.5q-7.7-9.1-6-2.8m31.5 39.2q.2 1 2.3 1.6c1.2.4 4 2.4 6.2 4.5 7.9 7.4 12.5 9.3 7.7 3.2-1.6-2-3.2-4.9-3.5-6.3-.6-2.2-1.1-2.5-3.7-2.1q-2.9.4-3-.7c0-.6-1.3-1.1-3-1.1s-3 .4-3 .9m-3.5 6.5c2.1 3.8 2.3 4.6.9 4.6q-1.3.2-1.2 1.2c.3.8 2.3 1.3 4.7 1.4 3.6.1 4.8.7 7.6 3.7 1.9 2.1 3.9 3.7 4.5 3.7.5 0 5 2.2 9.8 5s9.3 5 10 5c2.9 0 .7-1.8-5.8-5a22 22 0 0 1-9.4-7.1 29 29 0 0 0-9.6-7.6c-6.1-3.2-7.1-4.1-6.7-6q.4-2.4-1.2-2.3l-3.9-.6-2.3-.7zm56.5 4.1c0 1.6 5.2 8.4 6.9 9 1 .3 2.4 1.9 3.1 3.5 1 2.4 1.9 3 4.1 3 1.6 0 2.9-.3 2.9-.6 0-1.8-4.3-7.2-6-7.7-1.1-.3-2.5-1.9-3.1-3.6-.9-2.4-1.6-3-2.9-2.6q-1.7.4-2.5-.5c-.6-1-2.5-1.4-2.5-.5m38 22.2q.1 2 1.5 2.6c2.3.9 2.6-.9.5-2.8-1.9-1.7-2-1.7-2 .2m-4.6 1.9q.5 1.5.6 2.5c.1 1 .7.9 1.5.9 1.8 0 1.8-.5.5-3.1-1.3-2.3-3.5-2.6-2.6-.3m-12 4.8c1.4 1.9 2.6 4.2 2.6 5q.2 1.5 2 1.6c3.1 0 2.5-3.6-1.2-7-4.6-4.1-6.7-3.9-3.4.4m8.3 0q-.4 1.3 2.9 2.9c4.6 2.3 4.4-.7-.3-3.1-1.6-.9-2.2-.9-2.6.2m16 0c-1.7 1.3-1.5 1.6 2 4.5 2.9 2.4 3.9 2.8 4.1 1.7q.2-1.5-.8-2.8l-2.3-3c-1-1.5-1.5-1.5-3-.4m-28.7 3.1c2.4 2.5 5 3.3 5 1.5 0-.9-5.1-4-6.6-4q-.5.2 1.6 2.5m-10.4 4q.8 1.4 2.3 1.5c1 0 3 1.3 4.6 3 2.7 2.8 9.4 4.9 12.5 3.8 1.6-.5-8.9-7.5-12.2-8.2l-5.3-1.1q-2.7-.7-1.9 1m81.2 46.3q-2.6.4-2.8 1.2c0 .9 5.9 1.9 6.5 1 .8-1.3-1.1-2.5-3.7-2.2m8.8 1.8c-3.2 3.3-3.3 4.4-.2 4.4 2.1 0 8.5-1.8 9.5-2.6s-3.3-4.4-4.9-4.4c-1 0-2.9 1.2-4.4 2.6m15.7 7.1c-2.7.5-2.6.5-1.2 3.5 1 2.4 9.1 6.1 13.6 6.3 1.1 0 3.5 1.5 5.1 3.3q3 3.1 5.6 3.2c1.5 0 3.5.6 4.6 1.2 3.3 2.1 4.6-.4 1.8-3.5-9.2-10.3-9-10.1-10.6-8.1-1.4 1.8-1.4 1.8-.9-.4q.8-2.4-1.6-2.2c-1.1 0-2.8-.7-3.7-1.5-1.8-1.6-9-2.6-12.7-1.8m37.7 5.6c0 .8.7 2.7 1.5 4.3 1.3 2.5 1.3 3 0 4.4q-1.3 1.5-.9 2.3.5.6-.1 1.7t-2.1-.1c-.8-.6-1.8-.9-2.1-.5-1.5 1.4 1.5 4.1 6.1 5.6 2.6.9 6.2 3 8 4.7 2.8 2.8 4.5 3.4 13.3 4.9a91 91 0 0 0 25.9.6c19.3-1.4 23.4-2 24.1-3.8q.6-1.3 1.5-1.4c1.6 0 3.7-3.2 3.8-5.6 0-1.6-1.2-2.8-4.2-4.4a23 23 0 0 0-6.3-2.5l-2.7-.4q-.8-.2-.8-1.5c0-2-9.5-3.3-11.5-1.6q-1.3 1-1.5.3c0-2.1-20.9-5.8-38-6.8a76 76 0 0 1-10.2-1c-3-.6-3.8-.4-3.8.8m18.2 34c-2.7 1.4-2.3 3.2.7 3.1 1.1 0 2.1.3 2.1.8s1.2 2 2.6 3.3l2.7 2.5h-2.6c-1.4 0-2.7-.4-2.9-.8s-1.7-1.8-3.4-2.9c-2.8-2-3.7-2.1-8.5-1.2-3 .5-8.7 1.2-12.7 1.6-7 .5-7.2.6-5.6 2.4.9 1.1 2.3 1.9 3.1 1.9s3.1.9 5.3 2 5 2 6.4 2c1.3 0 4.6 1.1 7.3 2.4a91 91 0 0 0 34.8 6c5-.4 12.5 0 20 1a302 302 0 0 0 56.8.5c8.7-1.8 5.8-3.5-7.2-4.3-6-.4-12.6-1.2-14.7-1.8-5.4-1.4-18.9-2.6-38.4-3.4l-16.5-.6-3.3-3.6a35 35 0 0 1-4.3-6.1c-.8-2.1-1.4-2.3-4.9-1.7q-4 .6-4-.5-.1-1-1.2-.6l-3 1.2q-1.7.8-2-1.7c-.3-2.6-3-3.2-6.6-1.5m-33.5 12.1q-.4 1.3 2.9 3c4.3 2 7.4 2.1 7.4.1q-.2-1.3-2-1.5a14 14 0 0 1-5-1.5c-2.3-1.2-2.9-1.2-3.3-.1M447.5 810c-6.4 2.9-8.8 8.3-3.1 7.3q2.8-.7 2.6 1.3c0 .9-.7 2.5-1.6 3.5q-4.4 4.6 6.7 3.5c3.7-.3 8-1.1 9.4-1.6s3.8-1 5.3-1.1c1.9 0 3.6-1.2 6-4.1q8-10.2-3.6-6.8c-2.7.7-3.3.6-2.9-.4q.6-1.4-2.5-2c-4.4-.9-14-.6-16.3.4m158.9 9.5c1.2 2.9 1.3 3.5.2 3.5s-3.1 2.9-2.4 3.5l8.3 2.9c6.7 2.2 9.8 2.6 19 2.6 11 0 11 0 15.9 3.5 2.7 1.9 6.5 4 8.5 4.6 2 .7 5 2.3 6.7 3.6 2.4 1.8 4.4 2.3 8.7 2.3 4.8 0 5.8.3 7.6 2.7 1.2 1.5 1.9 3.4 1.6 4.4-.5 1.5 2.3 2.7 20.2 8.5 11.4 3.8 22 7.6 23.5 8.6 1.4 1 3.7 1.8 5 1.8q2.5 0 3.6 2.5c1.3 2.9 3.2 3.3 3.2.7 0-1-1.6-3.3-3.5-5.2-1.9-1.8-3.3-3.5-3.1-3.8.6-.6 4.9 1.8 6.9 3.9 2.3 2.5 4.4 2.4 5.2-.1q.7-1.7 1.7-1.4c.6.4 2.4.7 3.9.6q2.8 0 2.9 1.3c0 2.2 4.1 4.6 5.7 3.3 1-.8 1.3-.3 1.3 2.3 0 3.2.6 3.8 9.8 9.5 13.1 8.3 15.9 9.7 16.5 8.1q.4-1 1.6 1.1c.9 1.6 2.1 2.2 4.9 2.3q3.4.1 1.7.6c-5.5 1.4-6.6 2.2-5.6 4.1.7 1.4 2.6 2.1 6.7 2.5q5.6.6 9.4 3.2c3.1 2.1 4.2 2.4 5.8 1.6s2.4-.6 4.1 1.3c2.3 2.5 2.8 5.2.9 5.9-3 1 8.7 10.6 21.7 17.8 4.4 2.4 9.6 5.8 11.6 7.6s4.6 3.3 5.7 3.3 4.1 2.3 7 5.5c2.8 3 5.3 5.5 5.6 5.5s.6-1 .6-2.3.5-2.8 1.1-3.4c.8-.8-1.5-3-8-7.9-5.7-4.4-8.8-7.5-8.6-8.4.2-.8.7-3.5 1-6 .6-4.3.4-4.8-4.5-10.5a30 30 0 0 0-7.3-6.7q-6.6-1.8-12.8 1.2-6 3.2-5.9-.4c0-.8-3.3-4-7.2-7.2S800.3 894.3 794 889q-21.4-18-30.2-20.1c-4-1-4.8-1.5-4.8-3.5q0-2.3-2.9-3.8c-2.3-1.2-2.9-2.4-3.5-6.3-1.1-8.1-8.3-13.3-11.7-8.3-1.3 1.9-1.6 1.9-6.9.5-7.3-2-9.2-1.9-13.5.7l-3.7 2.1-5.5-2.7c-7.3-3.6-7.9-2.6-.9 1.5 3.1 1.8 5.8 3.9 6 4.6.9 2.1-1.5 1.5-3.4-1a25 25 0 0 0-8.3-4.6c-3.6-1.2-6.8-2.9-7.1-3.7s-1.5-1.4-2.6-1.4c-1.8 0-1.9.3-.9 2.1 1 2 .9 2.1-1.2 1.4l-6.1-1.2c-3.2-.4-3.8-.9-3.8-2.9 0-2.7-3.2-6.4-5.5-6.4-.8 0-6.7-2.5-13.1-5.5a75 75 0 0 0-19.5-7c-2.4-1.3-5.1-1.4-14.9-.9l-12 .7-4.6-3.7c-2.6-2-5.6-3.6-6.6-3.6-1.7 0-1.7.2-.4 3.5"/><path d="M541.7 828.7c-2.6.7-1.5 2.8 1.5 2.9a7 7 0 0 1 4 1.4c1.3 1.3 1.1 1.8-1.9 4.8-1.9 1.8-3.3 3.8-3 4.5s2.5 1.2 5.8 1.3c3 .1 6.8.7 8.4 1.3s6.9 1.7 11.8 2.2a44 44 0 0 1 10.5 2c2.1 1.3 10-.8 16.1-4.2 3.7-2.2 3.8-2.1 21.7 1.3 10.1 2 11.5 2.1 16.4.7 6.2-1.6 7.4-3.4 3-4.4a7 7 0 0 1-4.5-3.5c-1.5-3-5.9-5-10.9-5-1.7 0-4.3-.6-5.8-1.4-3.3-1.7-17.6-1.2-26.5 1.1a52 52 0 0 1-29.6-2.9 13 13 0 0 0-4.7-1.5l-6.5-.7c-2.2-.3-4.8-.2-5.8.1m11 6.9c-.3.3-1.2.4-1.9.1q-1.1-.5.6-.6t1.3.5m112.7 33.9c-1 .8-2.7 1.5-3.6 1.5q-3.2 0-.5 3.2c1.2 1.7 9.5 4.4 10.4 3.4.3-.3 1.8.1 3.4.9s4.2 1.5 5.9 1.5 4.3.9 5.8 1.9q2.8 2 15.4 4a65 65 0 0 1 17.6 4.5c4.2 2.1 5.5 2.4 8.5 1.5q7.5-2 1-3.9c-2.1-.7-5.2-2-7-3.1-1.8-1-5.9-2.1-9.3-2.5s-6-1.1-6-1.8-2.1-1.7-4.7-2.3l-14.2-3.8a74 74 0 0 0-13.4-2.5c-3.2 0-3.7-.2-2.8-1.4s.8-1.5-.5-2c-2.4-.9-3.8-.7-6 .9m-95.5 6.1c-1 1.3 1.3 3.8 2.4 2.7q.7-.4.7.9 0 1.5-1.2 2-1 .5 1.1 2.7 2.3 2.4 4.4 1.6c4.5-1.4 7.7-1.7 7.7-.7 0 2.1 4-.1 6-3.3 3.7-6 3.3-6.3-9.1-6.7q-11-.3-12 .8"/></svg>