<svg xmlns="http://www.w3.org/2000/svg" width="1365.333" height="1365.333" viewBox="0 0 1024 1024"><path d="M581 125.9c-6.3.4-12 1-12.6 1.4-.7.4-4.3 1.1-8.2 1.7s-9.6 1.9-12.7 3.1c-5.4 2-5.6 2.2-3.9 4q1.7 1.8 5.6 1.9a75 75 0 0 1 14.6 3.5 87 87 0 0 0 19.2 4.1 130 130 0 0 1 32.5 6.9c3.3 1.2 9.1 2.6 12.8 2.9a31 31 0 0 1 9 2c1.4.9 7.1 1.6 15 2.1l12.8.7-1.5-2.9a43 43 0 0 0-13.1-12.5c-2.2-1.4-10.5-4.6-18.5-7.3-8-2.6-18.7-6.5-23.9-8.6a43 43 0 0 0-12.5-3.7zm11.3 53.1c-1.1 1.6-2 1.8-6.1 1.3s-5.2-.2-7.7 1.9c-2.6 2.2-3.3 2.4-6.8 1.5-6.6-1.7-25.7 2.9-25.7 6.2s-1.4 3.3-4.1 0l-2.7-3.3-5.1 1.2c-2.8.6-7.2.9-9.8.6-4.6-.5-4.7-.5-2.3 1l2.5 1.4-2.7 1.2c-2.2 1-3 .9-5.4-.8-2.2-1.5-6.2-2.4-16.4-3.6-29.9-3.4-30.3-3.4-36.5 2.4a170 170 0 0 1-23.3 15.9c-2 1-7.3 2.9-11.8 4.1s-11 3.9-14.4 5.9l-6.4 3.8-3.9-1.7c-3.1-1.4-4.7-1.6-7.4-.8-1.9.5-5.1.7-7.2.3-3.3-.5-3.9-.3-5.9 2.5-2.6 3.5-2 5.4 1.4 4.6 1.3-.4 4.2-.2 6.5.3 3.9.9 4.4.8 7-2 1.5-1.6 3.2-2.9 3.8-2.9 1.5 0 1.4.2-1.1 4.8-2.6 4.5-7.8 9.2-10.2 9.2-1 0-2.9.6-4.5 1.4q-2.6 1.4-4.2.5c-2.2-1.4-2.3-1.3-7.5 6.3l-4.9 7.3-.3 12.7-.4 12.8 3.5 4.1a71 71 0 0 0 26.2 18.5c1.1 1.2 19.2.4 30.4-1.4q6.3-1.1 8.2-.1c1 .5 3.8.9 6.3.9 4.1 0 4.8-.3 6.6-3.3 1.1-1.7 2-4.2 2-5.4 0-4 3.6-3.8 8.6.5 6.6 5.9 25.4 12.7 25.4 9.3 0-.6.9-2 2-3.1 4.2-4.2 17.9-2 27.3 4.4 9 6.1 12.3 7.3 14.6 5.2 1.7-1.5 4.1-2.2 4.1-1.1l-1.2 2.5c-1.1 1.6-.9 2.2.7 3.5 1.1.8 2.8 1.3 3.8 1.1q1.7-.4 1.7 1.5-.2 3.2 14 7.8c3.6 1.2 8.8 3.5 11.5 5.1l6.5 3.9c.8.5 4.1 1.6 7.2 2.6 3.6 1.1 6.9 3 8.9 5.1 1.8 1.9 4.2 3.4 5.3 3.4 2.7 0 14.8 12.7 17.6 18.5 3.5 7.2 13.3 10.5 16.1 5.4 1.1-2.1 4.9-2.6 4.9-.7q.1.9 1.9-.6c1.8-1.5 2.8-1.6 3.8-1.4 1.5.3 1.8 1.2 1.5 5.7-.2 4.6.1 5.7 2.8 8.7 1.6 1.9 3 3.9 3 4.4s-1.6 2.1-3.5 3.6c-3 2.2-3.8 2.4-5.1 1.3-.8-.7-1.3-2-1.1-3q.4-1.7-1.5-2.2-2-.6-1.6-2.9.3-2.1-.7-2.5c-.5-.1-.9 1.5-.8 3.5s-.1 3.1-.4 2.4q-.5-1-1.4-.6c-1.8 1.1-.8 3.2 2 4.4 4.1 1.7 4.5 3.5 1.4 8.1q-4.8 7.3-10.3 3c-3.7-2.7-4.4-2.7-6.9.5-2.8 3.6-2.9 9.4-.1 9.4q2 0 2 2.4 0 5.3 6.6 4.2c4.4-.9 6.8.7 5.3 3.5q-.9 1.8 0 1.9c.5 0 1.7 1.4 2.5 3.2 1.5 2.8 1.5 3.4.1 5.5-1.3 1.9-1.9 2.1-3.5 1.3q-1.8-1-2.1-2.3 0-1-1.2 1.1c-.8 1.9-.8 2.5.3 3.2q1.3.9.7 1.6c-.3.4-1.2.2-1.9-.3s-3.2-1.3-5.6-1.7c-3.9-.6-4.3-.5-3.8 1.2a3 3 0 0 1-.9 3.2c-.8.7-1.5 2.8-1.5 4.9 0 2-.7 4.7-1.6 6q-1.7 2.3-.6 3.3 1.1 1.2 2.3-1.5c1.3-2.9 3.7-3.5 5.7-1.5q2.7 2.7-.8 2.8c-1 0-3.6 1.1-5.6 2.5q-3.6 2.5-5.6 1.9-2.4-1-.9 1.3c.5 1.1 1.7 2.6 2.6 3.3.9.8 3.3 4.6 5.2 8.4s4.3 7.9 5.2 9c2.4 2.8 8.3 6.3 12.9 7.7q11.3 3.2 6.8 11.7c-3.4 6.5-9.8 9.1-18 7.3-5.1-1.1-6.3-1-12.2.9-9.2 3.1-12.4 6-12.4 11.5 0 6.2 2.6 8.9 11.8 11.9a32 32 0 0 1 21.6 23.3c.8 3.7 5.8 7.3 9.9 7.3s14.7 6.6 21.9 13.7c6.5 6.4 8 8.8 9.2 14.5q.7 2.8 2.4 2.8c2.5 0 10.9 10.1 13.9 16.7a38 38 0 0 0 8.8 13c3.1 3.8 7.9 5.6 15.4 5.6q5.6.1 9.6 2.1c3.3 1.8 4.3 3.1 6.3 8.4 1.4 3.5 3.3 6.7 4.5 7.3 1.1.6 5.9 1.4 10.6 1.7 7.2.4 9.1.9 11.5 2.9q5.7 4.8 15.8 7.7c8.5 2.4 10.4 7.4 4.4 12a28 28 0 0 0-6.1 7.3c-2.9 5.2-2.8 8.3.1 13.8.9 1.6 1.7 4.7 1.8 6.7.1 3-.3 3.8-1.9 4-1.7.3-2 1-1.8 4.5.1 3.6-.3 4.6-2.8 6.8-4 3.3-7.6 3.2-12.5-.5-6.5-4.7-8.8-5.3-11.9-2.8a10 10 0 0 1-5.3 2l-20.5-.4-17.9-.3-2.1-2.6c-3.7-4.5-9.6-5.2-19.1-2.5a26 26 0 0 0-18.2 19.2c-3.7 14.4-10.1 25-16.1 26.9-1.3.3-2.3 1.2-2.3 1.9s-1.4 1.3-3.2 1.3l-7.9.3c-2.5 0-5.8-.4-7.3-1a18 18 0 0 0-7.5-.4c-3.8.5-5.5.1-9.5-2-3.8-2-6.3-2.6-11.2-2.6-5.6 0-6.6.3-10.4 3.5-4 3.4-8.1 4.4-10.6 2.7-1.9-1.2-2.8-5.4-1.3-6.3q1.1-.7.9-1.2c-.3-.2-7.2-2-15.5-4a60 60 0 0 0-26-2.7q-17.8 1.3-19.5 4c-.4.6-2.2 1.5-4.1 2l-5.5 1.5c-1.6.5-3-.1-5.3-2.4-1.7-1.7-3.6-3.1-4.2-3.1-.5 0-1.4-1.1-1.9-2.5-1.2-3-4.5-4.7-13.8-7-7.7-1.8-10-1.7-17.2 1-3.4 1.3-6 1.5-11 1l-13-1.3c-4.9-.5-7.8-1.5-11.5-3.9a37 37 0 0 0-8-3.8l-8-2c-6.3-1.7-14.2-3.3-22.2-4.5-3.5-.5-8.1-1.4-10.2-2q-3.9-1-6.6 0c-2.7 1-4.5.7-8.3 0-9.9-1.8-14.3-1.3-21.3 2.4-8 4.2-21.8 7.1-27.5 5.8q-4-.9-8.2.3c-3.8 1.2-4.5 1.1-6.7-.7q-4.6-3.8-.4-9.2c2.5-3.1 1.8-4.4-2.7-4.9-1.6-.2-3.5-.6-4.1-1q-1.2-.5-1.9.4-.6 1.2-1.4 0-.5-1.3-3.5-.1-2.8 1-4.1-.1-1.2-.9-2.5-.3c-1.3.6-1 .2-.7-.7s1.8-1.4 3.4-1.4 4.8-.6 7.1-1.3c4.3-1.3 6.6-3.2 3.9-3.2q-1.5-.1-1.6-1c0-1.7 4.3-1.1 7.8 1 3.5 2.2 7.2 2.6 8.8 1q1-1 8.9.4c4.4.8 8.8 1 10 .6 2.3-.9 9.5-8.4 9.5-10 0-3.1-19.8-1.7-28.8 2.1-4.7 2-5.8 2.1-10.9 1-8.4-1.7-10.4-1.4-15.9 2.1-4.2 2.8-4.6 3.3-2.6 3.6q2 .4 2.2 1.1c0 1.1-15 6.2-16.1 5.5q-1-.4-2.3.5c-2 1.7-5.9.9-7.9-1.7-2.3-2.8-17.9-10.4-19.1-9.2-.5.5-1.7.4-2.6-.3-1.3-.8-4.2-.8-9.9-.1-7.4.9-8.1.8-8.1-.8q-.1-1.7-2-1.8t-2-1.5-1.5-.9q-1.5.7-1.5-1.4c0-2.9-1.8-3.7-3.9-1.8-1.6 1.4-2 1.3-5.5-1.2-3.6-2.6-4.5-2.7-15.5-2.8a73 73 0 0 1-27.4-4.5c-5.6-3-15.7-11.3-15.7-13q-.1-1.8-2.5-2.5a8 8 0 0 1-3.6-2c-.6-.8-2.2-1.4-3.4-1.4s-3.8-.6-5.6-1.4c-1.9-.7-7.2-1.9-11.9-2.6-6.9-1-9.6-1-14.5.1-3.3.7-7 1.2-8.2 1.1q-2.2-.4-5.4 3.8c-3.8 4.6-5.2 4.9-7.5 1.5-2-3-5.4-3.3-6.1-.5-.6 2.3-.5 2.3-3.6 1.1-2.8-1.1-8.4.5-14.8 4.2-3.3 1.9-4.2 2-7 1-2.9-1.1-3.3-1-5.1 1.2-1.1 1.4-2.6 2.5-3.4 2.5-2.6 0-8.3 4.5-8.9 7-.5 1.9-.1 2.9 1.9 4.5 1.4 1.2 2.6 2.7 2.6 3.5 0 2-4.8 12.1-6.7 14.2q-1.4 1.6-.8 1.8c.5 0-.2 1.2-1.6 2.6q-2.4 2.4-2.1 5.5c.3 2.1-.5 4-2.7 6.8q-4.7 6-2.2 6.1c2.3 0 2.2 4.3-.2 7.8C3.5 737 .2 744.9.8 747.5q.7 3.3 2.5 2.3c.9-.6 5 2.8 6.2 5.3s1.4 3.7.5 6.5c-.9 2.6-.9 3.8 0 4.9.7.8.9 2.6.6 4.3-.9 3.6 1.4 5.7 7.6 7.1 5.9 1.3 9.8 3.1 9.9 4.5l.3 3.1q.2 2 2.4 2.3c1.3.2 3.8 1.8 5.5 3.7 2.5 2.6 4.9 3.7 11.7 5.4 4.7 1.2 9.6 2.1 10.9 2.1s6.2-2 10.8-4.5c7.1-3.9 9.1-4.5 14.1-4.5s6.2.4 8.2 2.5c1.9 2 3.3 2.5 7.2 2.5 4.5 0 5.2.3 10.3 5.5 3.1 3 6.4 5.5 7.4 5.5 3.3 0 20.5 8.3 23.3 11.2 1.4 1.5 3.3 2.8 4.3 2.8 1.8 0 7.5 5.8 7.5 7.7q.1 1.2 1.1 1.3 1.5.3 4.1 2.5c1.6 1.4 3.5 2.5 4.3 2.5q1.2.1 1.9 1.5c.3.8 1.7 2 3 2.6s2.9 2.4 3.5 4c.7 2.2 1.7 2.8 4.3 3.1 2.7.2 3.4.8 3.6 2.8.4 3.1 5.9 9 8.4 9 2.2 0 5.8 5.6 5.8 9.1q0 2.6 4 6.7c3 3.1 4 4.8 4 7.4 0 2 1.2 5 2.9 7.6 1.6 2.4 2.7 5.2 2.4 6.1-.9 3.3 5.7 4.9 20.7 4.9 15.5 0 20.4-1 19.5-3.9q-.7-2 .9-1.9c3.2 0 1.6-3.9-2.9-7a24 24 0 0 1-6.5-7c-1.1-2.2-3.4-4.7-5-5.5s-3.7-2.9-4.6-4.6c-1.4-2.9-1.4-3.5.1-7.4 2.7-7.2 17.1-18.6 26.9-21.3 3-.9 15-8.3 16.6-10.3.3-.4 2-1 3.8-1.4q3.2-.7 2.9-1.9-.4-1.7.9-4.4c1.2-2.8 1.8-3.2 5.3-3.2 2.2 0 4.1.5 4.3 1.2.7 2.1 5.5-.7 7.3-4.2 1.3-2.6 1.9-2.9 3.1-1.9 2.2 1.8 1.7 3.4-2.6 8-4.5 4.9-5.2 7.4-1.7 6.4 5-1.5 7.2-4 7.5-8.7.3-4.3.5-4.6 3.5-5.2 6.7-1.4 8.2-1.2 8.5 1.1a3 3 0 0 1-1.6 3.2c-2.2 1.2-4.5 6.7-3.6 8.3.8 1.2 7 .3 9-1.3q1.3-1.1.8-3.5c-.9-3.7 1.4-2.9 3 1.1 1.6 3.8 4.4 4.6 6.6 2 1.1-1.3.7-2.3-2-6.2-3.9-5.4-3.3-7.5 2.6-8.4 5.2-.9 6.9.2 8.9 5.6 1.7 4.4 1.9 4.5 6.1 4.5q7.2 0 7.4-2.1-.1-.8-1.5-.9c-2.3 0-1.8-1.6 1.2-4 1.5-1.2 3.8-2 5.3-1.9 1.4.2 3.5-.3 4.8-1s2.8-1 3.5-.8 1.7-.3 2.3-1.2q1.1-1.8 2.6-.4a4 4 0 0 0 3.6.6q2-.4 2.2.6.5 1.5 3.5 2.7c4.4 1.8 4.7 1.8 4.3-.3q-.1-1.7 2.4-3.1a6 6 0 0 0 3.4-3.8c.5-1.9 1.3-2.4 3.5-2.4 3.2 0 5.1 2.6 3 4-1.5.8 4.6 5 7.3 5 2.5 0 1.9 2.9-1.4 6-3.7 3.4-5.2 9-2.5 9 1 0 2.6-.7 3.6-1.6 1.4-1.3 2.2-1.3 3.9-.4 1.8 1 3.4.8 8.4-.8 12.6-4.2 16.6-4.1 18.6.9 1.2 2.7 1.7 3 5.9 3 2.5 0 10.2.3 17.1.8 10.1.6 13.7 1.2 18.5 3.3 10.5 4.6 20.1 6.5 40.8 8.4 3.5.4 7 .1 8.7-.6 2.4-1 3.2-.9 5.7.9A44 44 0 0 0 549 846c4.7 0 12.8 2.3 16.5 4.6 1.1.7 3.8 1.5 6 1.9s5.3 1.1 6.8 1.7c2.1.8 3.4.8 5.3-.3 2.1-1.1 3.2-1.1 7 .4 3.3 1.2 5.1 1.4 7 .7 1.4-.6 4.1-1 5.9-1 2.9 0 3.6-.4 4.1-2.5.7-2.9 1.7-3 7.2-1.1 2.2.8 4.3 1.2 4.6.9.3-.4-.5-2.1-1.9-3.9-2.4-3.1-2.4-3.3-.6-5.5s1.9-2.2 6-.6c4.6 1.9 10.6 2.2 11.6.7.3-.5 2-.9 3.8-.8s4.3-.5 5.6-1.1 3.6-1 5.2-.7c1.5.3 4.4-.1 6.3-.9 3.2-1.4 4.1-1.3 11.3.9 4.3 1.4 8.9 2.4 10.3 2.4s4.6.8 7.1 1.8c4.4 1.7 4.8 1.7 7.3.1 3-2 3.5-6.1.9-7.5-.9-.6-2.2-3.2-2.9-5.8-1.1-4.2-1-5.1.3-6.7q3.7-3.9 10.2 1.8c2.1 1.9 4.2 3.5 4.7 3.5s2.7-1 4.9-2.1c3.2-1.7 4.3-1.9 5.8-1q1.9 1.2 3 .3c1.1-.9 3.5-1.2 6.2-1.5l16-1.8c6.1-.8 16.2-1.4 22.6-1.4 9.9.1 12 .3 14.8 2.1 3.1 2 3.6 2 9.4.6 5.6-1.3 7.1-1.2 15.3.4 8.7 1.7 9.3 1.7 16-.1 4-1 11.3-1.9 17.4-2.1 5.8-.1 13.2-.9 16.6-1.7 8.2-2 20.3-1 21.8 1.8 3 5.4 11.4 10.5 12.4 7.7.6-1.8 3-1.4 6.1.8 1.6 1.3 6.2 2.7 11.2 3.6 11.3 1.9 11.1 1.9 15.6 6.7 2.2 2.3 6.6 6 9.7 8.2 3.2 2.2 10.5 8.6 16.2 14.1 8.5 8.4 10.4 10.7 10.4 13.1s1.4 4.1 9.4 10.6c5.2 4.2 9.7 7.7 10 7.7s.6-.7.6-1.5 1-2.4 2.3-3.5 2.3-3.3 2.4-4.8l.6-8.5c.5-5 .3-5.7-1.1-5.5-2.1.4-2.9-4.6-1.2-6.7 1.4-1.7-.5-5.8-4.4-9.4-1.4-1.4-2.6-3-2.6-3.7s-1.3-2.1-2.9-3c-5.5-3.2-4.3-13.3 2.2-19.8 1.4-1.4 2.8-3.9 3.2-5.6s1.5-3.5 2.5-4q1.7-1 1.3-2.8c-.6-2.3 5.6-12.9 8-13.5q1.7-.5 1.7-3.5c0-1.6.7-3.5 1.5-4.2s1.5-2.2 1.5-3.3 1.3-4.4 2.9-7.3c1.7-2.8 2.7-5.4 2.4-5.7s-1.8-.4-3.3 0c-2.2.4-3.1 0-4-1.7s-1.7-2-3.9-1.5c-2.9.6-13.2-3.2-14.5-5.4-.4-.6-1.8-1.1-3.1-1.1s-4-1.6-6.5-4a24 24 0 0 0-8-5c-4-1.1-6.1-3.4-5.3-5.8.7-1.8-5.6-8.2-8-8.2-3 0-13.7-5.1-13.7-6.6q-.2-1.2-2-1.9c-2.9-.9-4.2-4.1-3.5-8.5.5-3.1 1.2-4.1 3.6-4.9 1.6-.5 2.9-1.2 2.9-1.6 0-.8-14.4.6-15.4 1.6-1.7 1.5-3.4 1-7.1-2.2-3-2.6-3.5-3.7-3.5-7.4q0-4.2-2.2-7c-1.9-2.4-2.5-2.6-6.2-2.1-2.2.4-4.4 1.4-4.9 2.1q-1.6 3.1-6.4-.9a27 27 0 0 0-6.6-3.9c-2-.9-3.7-2.2-3.8-2.9q-.4-5 1.8-8.5c1.4-2.1 1.3-2.5-1.3-5.6a42 42 0 0 1-4.8-6.8c-1.9-3.6-1.9-3.7 0-7.5 1-2.1 3.1-4.5 4.6-5.3 3.7-2.1 6.9-.4 10.9 5.8 3.6 5.5 4.8 6.4 7 5 1.1-.7 1-1.1-.6-2.3-2.7-2-1-4.7 3.5-5.9 1.9-.5 4.9-2.2 6.7-3.8 3.9-3.4 7.6-3.7 9.6-.9q1.3 1.8 2 1.4t2.8.6c1.9 1.1 2.9.9 5.7-.6 3.4-1.8 3.4-1.8 5.2.4q1.8 2.2 2.3 1c.7-1.9 4.1.4 4.5 3.1s2.8 2.7 4.2.1c.6-1.1 2.1-2 3.4-2 3.1 0 8.6 2 8.6 3.1 0 1.6 2.8 1 3.4-.7.5-1.2 1.4-1.5 3.6-1.1 3.2.7 4.9-.8 3.1-2.6-.6-.6-1.1-3.5-1.1-6.4 0-7.1 3-13 7.6-14.9 1.9-.8 3.4-2 3.4-2.8q0-2.5 9.3-6.1c3.8-1.4 4.7-2.2 4.7-4.1 0-1.3.8-3.2 1.8-4.2 1.2-1.3 1.7-3.4 1.7-8.2a25 25 0 0 1 1.8-9.9c1-2 1.4-4.3 1.1-5.8-.4-1.4-.1-3.5.6-4.9 1.1-2 1.1-2.7-.2-4.1-2.2-2.5-3-7.2-1.8-11.2 1-3.7.5-5.5-1-3.1-1.3 2.1-5.1-1.6-4.5-4.4.4-1.8-.4-2.5-5.4-4.7l-5.9-2.7-.6-5.8a98 98 0 0 1-.7-9.2c0-2.9-.3-3.2-3.2-3.2-5 0-12.2-2.5-12.5-4.4-.4-1.6-3.8-2.2-5.8-.8q-1 .8-1.7 2.5t-2.4 1.5q-1.8-.3-3 2.4c-1.3 3-3.7 3.7-4.7 1.3q-.6-1.4-1.6-1.5-.9.1-1 1.5c-.1 1.4-.9 1.5-2 1.5-2.4 0-2.7-3.2-.5-5 .8-.7 1.5-2.3 1.5-3.7 0-1.3.7-3.8 1.6-5.5 1.3-2.6 2-2.9 4.4-2.5 2.4.5 2.9.2 3.4-1.8.9-3.4 6.7-6.1 9.5-4.3 1.7 1.1 2.5 1 5.2-.6 3-1.8 3.3-1.8 4.4-.2 1.9 2.5 3.8 2 3.1-.8q-.5-2.3.9-3.6c.8-.7 1.5-1.9 1.5-2.6s1.2-2.1 2.8-3.1 4.1-3 5.9-4.6c1.7-1.6 3.6-2.6 4.2-2.3q1 .5 2.3-.3l4.9-4.1c2-1.6 4.4-3 5.3-3 1.4 0 1.4-.3.4-1.9s-.9-2.3.5-3.9c2-2.2 2.1-3.5.5-6.2-1.1-1.7-1-2.2.2-3 2.4-1.6 7-1.2 7 .5q-.2 3 3.6-.6c1.9-1.7 2.5-1.9 4.2-.8s2.3 1 3.6 0c2.6-2.2 7.7-12.3 6.7-13.5-1.5-2-1-8 .9-11.1q1.9-3.1 1.3-5.5c-.5-1.8 0-2.9 2.3-4.6l2.9-2.3-3.5-3.6c-1.9-2-4.6-3.8-6-4.2-1.4-.3-3.1-1-3.7-1.5s-2-.7-2.9-.4c-.9.4-2.7 0-4-.9a7 7 0 0 0-5.3-.9c-3.8.8-5.3-.4-8.8-6.7-2-3.8-3-4.8-4.5-4.3-2.3.7-9.3-3.2-11.4-6.4a7 7 0 0 1-.9-5.2c.5-2.4.2-3.2-1.9-4.5-1.4-1-2.6-2.5-2.6-3.5q-.1-1.7-3-2.9c-1.6-.5-3-1.4-3-2 0-1.2 5.5-3.1 8.9-3.1 3.3 0 5-1.1 6.5-4.1.7-1.4 2.1-2.4 3.3-2.4s3.1-1 4.3-2.3c1.7-1.8 3.1-2.3 6.1-2.1 5 .4 5.7-.5 3.5-4.6-1.7-3.1-1.7-3.7-.4-5.7q1.5-2.4.6-3.8c-.7-1.1-.1-3.4 2.1-8 3-6.2 3-6.5 1.2-8.5a27 27 0 0 1-3.5-6.7c-1.5-4-1.5-5.3-.5-8.8 1.2-3.8 1.1-4.2-1.4-6.8-1.5-1.6-2.7-3.8-2.7-5s-.9-2.7-2-3.4-2-2.2-2-3.4-1.3-3.3-2.9-4.8c-2.5-2.4-2.8-3.1-1.8-4.7s.8-2.1-1.1-3.4c-2.4-1.8-2.9-4.4-1-6.3q1.4-1.2.2-3c-.6-.9-1.7-4.1-2.4-7-1.1-4.7-1-5.5.5-7.2 2.6-2.9 1-10.4-2.3-10.8-2.5-.4-6.2-6.6-6.2-10.6 0-2.7.6-2.5-13.7-4.6-3.9-.5-8.6-1-10.2-1-3 0-3.1.1-3.1 4.5 0 3.3.4 4.5 1.5 4.5 2.8 0 9.3 3.2 10 4.8q.5 1.7-1.1 2.9c-1.6 1.2-1.8 2.7-1.8 4.5-.1 3.1-2.6 5.4-2.6 2.3 0-.9-1-2.9-2.2-4.5-1.9-2.6-2.6-2.9-6.8-2.6-2.6.2-5.9 1.1-7.4 2.1-2.6 1.7-2.7 1.7-5.1-.5-1.3-1.2-2.8-1.9-3.4-1.5q-1 .5-1.1-.4 0-1 1.2-1.7 1-.7-1-1.5t-2.2-1.8c0-1.6 3.6-1.9 6.9-.5 2.8 1.2 3.4 1.1 5.1-.6 1.9-1.9 3.2-2.4 5.6-2.1 1.6.2 2.6-5.9 1.3-7.5-.6-.8-2.6-1.4-4.3-1.4s-5.8-.7-9.1-1.6c-3.3-.8-8.8-1.8-12.1-2.2-5.3-.7-6.3-.5-7.3 1s-1.3 1.4-4-1.3c-2.7-2.6-3.5-2.9-6.8-2.3-5.5 1-6.3 2-6.3 8v5.4l-3.7-.1q-11.6 0-15.1 1.9c-1.9 1.1-2.8 1.1-5.2 0-2.7-1.1-2.8-1.4-1.4-2.9 1.1-1.3 2.5-1.6 5-1.2l3.4.6-.5-5.3c-.4-5-2.5-8.5-3.4-5.7-.2.7-1.5 2.5-2.7 4a11 11 0 0 0-2.4 4.2c0 1.6-3.6 3.9-4.9 3.1-.5-.3-1.1-1.5-1.4-2.6-.4-1.7 0-2 2.3-2q3 0 3.5-2 .6-1.8 1.6-2c1-.2.9-.5.9-1 0-1.6-5.2-1.1-7.2.7q-1.8 1.6-1.8.4 0-1.4-3-.6c-4.2.9-11.6-2.6-13.2-6.2-1.5-3.4-2.6-4.3-5.7-4.3q-2.7-.1-1.1 1.5c2 2.4.3 3.4-3.6 2.2-2.7-.8-4-.8-5.5.1-2.4 1.5-8.2 1.5-9.7 0q-1.3-1.4-1.2.5 0 1.5-1 1.7-.9 0-1-.5c0-.9 2.4-4.9 3.6-6 .7-.5 1.5-3.4 1.8-6.3.8-5.9.3-6.2-8-4.1-3.4.9-4.7.9-5.9-.1-2.2-1.8-4.8-.4-4.2 2.1.5 1.8.2 2-1.9 1.6-2-.3-2.4 0-2.4 1.9 0 3.2-1.3 3.7-6 2.3-3.3-1-4.8-1-7.6 0-3 1.1-3.9 1-6-.4l-2.5-1.6 1.6 3.1c1.5 3 1.5 3.3-.1 4.4s-1.5 1.3.6 1.9q2.2.6 1.4 1.9c-.5.7-.9 3.5-.9 6.3 0 4.4-.3 5-2.2 5.3-3.3.5-6.8-3.6-8.3-9.7-.9-4-1-5.5-.1-6.4s1.4-.9 2 .2q.9 1.4 1.5.2.6-1-.1-1.1c-.4 0-1.8-2.2-3-4.8a24 24 0 0 0-8.7-9.5c-5.4-3.8-6.6-5.2-6.6-7.4v-2.8l-1.3 2.5c-2.2 4.4-8.6 3.9-13.6-1-1.7-1.7-3.2-2.6-3.6-2-1.5 2.4-9.5.3-9.5-2.5 0-2.1-1.3-1.9-2.8.5-1.6 2.7-2.6 2.5-5.7-.7-2.7-3-3.4-2.1-1 1.1s1.7 3.9-1.5 1.6c-1.6-1.2-3-2.7-3-3.5s-.6-2.4-1.3-3.8c-1.2-2.3-1.5-2.4-2.8-1.1s-2.4.7-8.6-5a37 37 0 0 1-6.7-6.9c.3-.3-1.1-1.5-3.1-2.7a16 16 0 0 1-4.6-4.2c-1-1.8-1.7-1.9-5.7-1.3-9.1 1.4-12.3 1.1-14.6-1.6-1.2-1.4-2.7-2.4-3.2-2.2s-1.9-.6-2.9-1.7-2.8-2-4.1-2-2.5-.4-2.8-.9-2-1.1-3.8-1.4-5.8-1.5-8.8-2.7-7.5-2.6-10-3.1c-2.4-.5-7.5-1.9-11.2-3.1-5.9-1.9-7.4-2-11.1-1.1-2.6.7-4.6.8-5.1.2-1.6-1.5-4-1-5.3 1.1m-19.7 8.5c1.8 1.3 1.7 1.4-1.8 1.5q-4 0-3.8-1.5c0-1.9 3-1.9 5.6 0M969 274.7c0 .5-1.1 1.8-2.4 3.1q-2.3 2.2-2.1 4.7.3 2.6-1.5 2.5c-2.1 0-3.4-2.6-1.9-3.6.6-.3.9-1.7.6-3.1q-.5-2.5.8-1.9c.7.2 2.1-.2 3.2-.9q3.2-2.4 3.3-.8M646 390.2c0 2.3-1.6 3.9-3.3 3.2q-3-1-.5-3.2c2.5-2.2 3.8-1.5 3.8 0m5.5 3.4c2.3 5.6 2 7.1-1.5 7q-3 0-3.9-2.4c-1.1-2.4-.2-2.9 1.7-1q1.3 1.4 1.2-.3c0-.8-.5-2-1-2.5-1.2-1.2-.3-4.4 1.1-4.4.5 0 1.6 1.6 2.4 3.6M639 403q0 .9-.4 1-.5-.1-1.1-1-.4-1 .4-1 1 0 1.1 1m29.7 2.4q-.7 1.5-1.9 1.6-1.3 0-.1-1.1c.6-.6.9-1.9.6-2.8q-.8-1.9.7-.4c.7.6 1 1.9.7 2.7m-48.7 1.7q0 .8-1 .9-.9-.1-1-1.6.1-1.3 1-.9 1 .6 1 1.6m19.4 1.5c1.8.7 2.2 4.8.4 4.2-.6-.2-1.5-1.4-1.9-2.6-.9-2.4-.8-2.5 1.5-1.6M634 410q-.1.9-1.1 1-.8-.1-.4-1t1.1-1q.4 0 .4 1m-12 120q0 .9-.4 1-.5-.1-1.1-1-.4-1 .4-1 1 0 1.1 1m269.1 35.6q2.3 2.4.7 1.9t-2.3.4c-.3.6-1.4 1.1-2.3 1.1-2.1.1-7.2 4.4-7.2 6.1 0 .7-1.4 0-3-1.6s-2.7-3.2-2.3-3.5a64 64 0 0 1 7.1-3.1c3.4-1.3 6.2-2.7 6.2-3.1 0-1.3.5-1 3.1 1.8m8.6 3.6q-.5 1.1-.6-.6t.5-1.3c.3.3.4 1.2.1 1.9m21 1.3c-.4.8-1.7 1.5-2.9 1.4h-2.3l2.3-.9c1.2-.5 2.2-1.5 2.2-2.1q0-1.1.6-.6t.1 2.2m3.6.3q-1.7 1.6-2.2 1.6c-.6-.5 2-3.4 3-3.4q.7.1-.8 1.8m-24.3 3.1c0 3.3-1.2 5.2-2.7 4.3-1.8-1.1-.5-8.2 1.3-7.5.8.3 1.4 1.7 1.4 3.2m5.7 1.9c-1.3 1.4-1.4 2.1-.5 3q2.5 2.4-2.6 1.5l-2.9-.6 3.4-2.8q6-5 2.6-1.1m17.5 2.7q1.4.7 1 3.3c-.3 2.2-.9 2.7-3.5 3-5.4.4-6.5.7-8.4 2.5-1.8 1.5-1.9 1.5-2.1-1.3-.2-3.2-.3-3.2 8.3-3.4 2.4-.1 3-.5 2.9-2.4-.1-2.5-.1-2.4 1.8-1.7m-83.2 88c1.8 1.9 3.1 3.8 2.7 4.1-1 1-11-1-11.4-2.3-.4-1.1 3.4-5.3 4.7-5.3.3 0 2.1 1.6 4 3.5m-327.7 86.2c.4 1 1.7 3.1 2.9 4.6 2.3 2.8 2.3 2.9.4 4.3-2.4 1.7-8 2.8-10.2 2-1.4-.5-1.3-.9.5-3.2 1.2-1.5 2.1-3.2 2.1-3.9s.7-1.6 1.6-1.9q1.5-.7 1-2.1-.4-1.3.3-1.5c.7-.2 1.1.8 1.4 1.7m21.7 3.8q-.1 1.5-2.6 1.5c-2.2 0-2.5-.2-1.4-1.5.7-.8 1.9-1.5 2.6-1.5q1.3.2 1.4 1.5M227 791q0 .9-1 1a1 1 0 0 1-1-1q.1-1 1-1t1 1m17 4q0 .9-1 1a1 1 0 0 1-1-1q.1-1 1-1t1 1m175.2 19.6q2.6 1.9-3.4 2c-3.4-.1-4.4-.5-4.6-2-.4-1.7 0-1.8 3.4-1.1 2.2.4 4.2.9 4.6 1.1"/><path d="M446.8 546.1c-8.4.7-13.8 3.2-20.2 9.3-2.9 2.6-3.6 4.1-3.6 7 0 3.9 1.2 5.5 8.3 10.9a43 43 0 0 1 7.6 8.1c2.3 3 5.1 5.6 6.5 6 1.3.3 3.4 2.2 4.6 4.1 2 3.3 2.5 3.5 7.5 3.5 3 0 7.6.8 10.2 1.9s7.1 2.2 10 2.6c3.6.5 7.1 2 11.7 4.9 3.6 2.4 8.3 4.6 10.6 5q4.1.7 4.7 2.4a52 52 0 0 0 16.7 13.7c5.8 2.7 17 4.5 28.7 4.5 6.7 0 9.3.5 15.5 3.1 5.8 2.4 8.5 3 11.5 2.6 3.2-.4 3.9-.2 3.5.9s.4 1.4 3.4 1.4c3.6 0 4 .3 4 2.5 0 2.6 5.2 8.3 5.9 6.4.2-.6-.2-1.6-.8-2.2-1.5-1.5-1.4-2.7.4-2.7q1.5.1 2.3 2.1c.7 1.8 1 1.9 2 .6.9-1.1.8-1.8-.8-3.2-3.6-3.3-2.3-6.6 3.3-8 3.2-.8 3.2-.6.8-4.7-1-1.8-2.1-5.6-2.4-8.4-.4-3.9-1.7-6.7-4.8-11.4-4.1-5.9-10.3-12-12.3-12a58 58 0 0 0-20.2-7.8 104 104 0 0 1-28.8-12.6 47 47 0 0 0-10.6-6.3 72 72 0 0 1-8.8-4.6c-2.8-2.3-12-5-19.2-5.7-7.6-.7-12.3-2.6-27-10.7-6.5-3.6-9.9-4.1-20.2-3.2m-193.3 122c-4.5 2.6-8.5 7.3-8.5 10s2.2 5.9 4.1 5.9c.6 0 2.9.9 5.1 2 2.3 1.1 4.9 2 5.8 2s2 .4 2.6 1c1.3 1.3 10.2-3 13.5-6.6 5.5-6.1 4.5-8.1-5.6-12-8.1-3.1-14.2-3.9-17-2.3M276 869.5c0 .9 1.6 3.2 3.5 4.9s3.5 3.7 3.5 4.2c.1.5 1.4 2.4 3 4.3 2.5 2.9 3.4 3.3 7.2 3.1 5.8-.2 5.7-.2 17.9.6 10.4.7 10.7.6 11.9-1.5.9-1.9.9-2.6-.4-4-.9-1-1.6-2.2-1.6-2.8 0-1.5-5.8-6.3-7.6-6.3-.8 0-3.9 1.4-6.9 3.1-6.5 3.6-11.1 3.4-15.2-.7-1.3-1.3-2.9-2.2-3.4-1.8-.6.3-2.1-.4-3.3-1.5q-2.2-2-4-1.5c-.9.3-2.3.1-3.1-.6q-1.7-1.5-1.5.5"/></svg>