<svg xmlns="http://www.w3.org/2000/svg" width="1365.333" height="1365.333" viewBox="0 0 1024 1024"><path d="M4.2 325.7c-1.5.6-.6 2.3 1.4 2.3q1.3-.1 1.4-1.5c0-1.5-.6-1.7-2.8-.8m-3.5 4.5c.6.7 1.3 3.4 1.5 5.9.8 7.6 5.7 14.7 18.2 26.3 9.1 8.5 11.9 10.6 14.3 10.6 2.9 0 9.3 5.3 9.3 7.6 0 .6.9 1.9 2.1 3C51 388 57 397.2 57 400.3s.5 3.4 9.9 7.9l9.9 4.7 3 6.3a131 131 0 0 1 5.7 16.3c3.2 11.8 4.7 14.5 11.1 19.6a81 81 0 0 1 20.9 25.1c.8 2.6 3.4 7.6 5.8 11 5.9 8.4 8.9 14.5 8.2 16.8-1.1 3.4.6 7 4.1 8.8 1.9 1 4.9 4.2 7.3 7.9s5.7 7.3 8.3 8.9c6.4 4.1 8.8 6.5 8.8 8.8 0 2.1 10.9 12 17.4 15.9 1.7 1.1 4.5 3.2 6.1 4.7 1.7 1.6 4.9 3.6 7.3 4.5q4.2 1.8 5.7 4.6c2.1 4 15 16.9 16.9 16.9 2 0 2-.1-.1-4.5-.9-1.9-1.4-3.7-1.1-4.1.9-.9 4.2.4 8.2 3.1 3.5 2.4 3.6 2.4 4.6.5 1.4-2.7 3.3-2.5 8.1.7 2.3 1.5 4.3 2.2 4.8 1.7s1.6-6 2.6-12.3c1.6-9.8 1.6-12.3.6-17.7-1-4.9-1-7.1-.1-9.9s1-4.2 0-6c-1.1-2-.9-3.2 1-7.7l2.2-5.3-3-5.5c-7.1-13.5-6.6-13-13.7-13-7.9 0-9.5-.6-9.5-3.5q0-2.4-3.5-4.4c-4.2-2.4-4-2.1-5.5-13.3l-1.2-8.6h-3.1c-6 0-12.6-1.9-16.2-4.7l-3.7-2.7 4.3-4.4c4.2-4.3 4.2-4.5.1-5.6-1.9-.5 1.5-4.8 3.9-4.8 4.3 0 .1-8.2-6-11.6l-4.5-2.5-3.4 3.6q-8.5 8.4-2.2-3.5l3.8-7-4.1-3c-4.5-3.3-6.2-3.7-7-1.6s-4.4.8-5.1-1.7c-.3-1.2-.1-2.4.4-2.5 1.4-.5 1.2-3.6-.2-5-.7-.7-3.4-1.2-6.2-1.2h-4.9l1.9 2.1 1.9 2.2-2.5-1.3c-4.2-2.2-7.9-5.7-7-6.6.8-.9 1.3-3.7 1.1-6.1-.3-3.4-8.1-2-8.1 1.5q0 1.8-2-1.2c-2-3.2-8.8-7.8-10.2-7-.4.3-.8 1.6-.8 3 0 5.1-6 1.7-10-5.8-1.7-3.2-3.7-5.8-4.3-5.7q-3.9.6-3.7-2c0-2.8-12-13.5-21.1-18.8-4.3-2.5-7.9-4.9-7.9-5.3s-2.2-1.9-5-3.4c-4.1-2.3-5-3.2-5-5.5 0-1.6-1-3.7-2.5-5.1a13 13 0 0 1-3.3-5c-.4-1.4-3-4.6-5.8-7.2-4.8-4.6-5.2-4.7-8.2-3.6-2.5 1-3.9.9-6.6 0q-3.5-1.2-8.5-.6c-7.4 1-11.3-.2-16.5-4.8-5.1-4.4-12.2-6.2-15.1-3.8-1.2 1-1.6.9-2.1-.4-.3-.9-1.1-1.6-1.6-1.6q-1 0-.1 1.2m704.7 26c-1.2 1.9-1.1 11.8.1 11.8.6 0 1.9-1.6 2.9-3.5 1.6-2.9 1.7-3.8.6-6.5q-1.9-4.7-3.6-1.8m-238.5 3.4c-6.5 1.9-8.3 3.7-9.8 9.2-.9 3.7-1 5.6-.2 7.1s.8 2.8-.3 5.3l-2 5.1c-.3.9-1.8 2-3.3 2.3-2.2.4-3.3 1.6-4.7 5.1-1.6 3.8-1.7 4.6-.5 5.4 1.1.6.6 1.5-2.3 3.9-2.7 2.2-3.9 4.1-4.3 6.8-.3 2-1.5 5.6-2.6 7.8-2.2 4.4-4.5 5.4-13 5.4q-3.6-.1-5.7 2.5c-3 3.4-7.3 3.2-14.7-.5a25 25 0 0 0-12.3-3c-7.2 0-9.9 1.1-11.2 4.6q-1 2.4-6.7 5c-5.1 2.2-6.3 2.4-9.9 1.5s-5-.7-10.3 1.4c-3.3 1.4-6.8 2.5-7.7 2.5s-4-2.4-6.8-5.3c-2.9-2.8-6.8-6.4-8.8-7.9s-4.6-4.8-5.8-7.3-2.8-4.5-3.5-4.5-2.4 1.9-3.8 4.2a27 27 0 0 1-4.5 5.9q-2 1.8-2.7 7c-.4 3-1.2 6-1.7 6.6-.6.8-.8 3.8-.3 7.7.5 5.1 1 6.5 2.5 6.9 1.1.3 2.7 2.1 3.6 4.1 1.6 3.3 1.6 3.7.1 5.4-2.6 2.8-2.1 6.7 1 9.2q2.8 2.1 1.5 2.9c-.9.5-.8 1.2.4 2.9 1.1 1.6 2.1 2.1 4 1.6 2.6-.7 3.5 1.3.9 2.2q-1.4.7-1.5 4.1v3.5l4.4-2.6 4.4-2.6 2.6 3.1c3 3.6 3.1 4.5 1 9.9-1.5 3.7-1.5 4.2-.1 5.3 1.9 1.5 4.7 11.3 4.7 16.7 0 2.3.5 5 1 6.1 1 1.8 1.2 1.8 3.5.3s2.7-1.4 7.3 1.2l4.9 2.7 8.7-2.7c4.9-1.5 9-2.5 9.3-2.2s.7 3.3 1 6.8c.8 8.7 1.7 9.5 6 5.7q3.6-3 5.2-2.3c5.8 2.5 14.3-.3 16.2-5.3l1-2.7 2.6 2.8c2.1 2.3 3.1 2.7 5.9 2.1 3.2-.6 3.4-.5 3.4 2.4 0 3.7 2.1 4.5 9.5 3.6 8.2-1.1 10.3-.2 11 4.3.3 2 1 5.4 1.6 7.4l1 3.8 4.7-2.4c2.6-1.3 8.3-3.8 12.7-5.5s9-3.9 10.2-4.6c2.1-1.4 2.2-1.3 3.3 4.1l1.2 5.6 2.1-1.9c3.3-2.7 3.8-3.6 3.4-6-.2-1.2.2-2.4.9-2.7 1.9-.7 1.8-3.6-.1-3.6q-1.4 0-1.5-2.4c0-1.3-.5-2.6-1.1-2.8q-1-.4 1-3.8c1.1-1.9 2.1-5.2 2.1-7.3 0-3 .4-3.7 1.7-3.5 2.4.4 3.8-5.3 1.6-6.9-.8-.7-2-1.4-2.5-1.5s-.7-2.3-.3-5.2c.7-4.3 1.7-5.8 9.8-14.2 6.7-7.1 9.4-9.3 10.8-8.9 1 .4 2.7.1 3.9-.5 2.6-1.4 2.9-9 .4-11.1-1.3-1-1.5-2.4-1-6.4 1.4-12 5.9-21.2 9.8-19.9 1.2.3 2.4.1 2.8-.6.6-1 1.8-1 5.3-.1 6.8 1.7 12.1 1.4 14-.7 1-1 1.7-2.3 1.6-2.8-.1-1.2-13.3-11.9-19.2-15.5-5.5-3.4-6.4-5.1-4.9-9.1.9-2.6.6-4.2-2.6-12.3-2.8-7.1-4.3-9.7-6.5-11-4.4-2.6-2.4-5 2.6-3 3.5 1.4 1.8-2.9-2.1-5.2l-3.7-2.2 4.8-.1c5.1 0 5.6-.8 3.3-5-1.2-2.1-1.2-2.6.2-3.6s2-.9 3-.1q1.6 1.5 1-1.9c-.4-3.7-4.3-4.6-6.5-1.5q-1.4 2-2.5 2.1-1 0 .1-1.3c.8-1.1.2-1.8-2.7-3.4-3-1.7-5.9-2.2-15-2.5-6.8-.2-12.9.1-15.3.8m-177 5.3-2.3 1.9 1.9 4.1c1.1 2.2 2.7 4.1 3.5 4.1 4 0 5.2-5.2 2.4-9.5-2-3-2.5-3.1-5.5-.6m390.6 9.1c-.3.5.1 1.7 1 2.7l2.8 3.7c2.3 3.2 4 1 2.1-2.7-2.3-4.3-4.6-5.8-5.9-3.7"/><path d="M506.5 378q.6.9 1.6 1 .8-.1.9-1-.1-1-1.6-1-1.3 0-.9 1m-257 4.9q-.4.9.5 1.6.9.4 1-.9 0-2.7-1.5-.7m-13.1 7.3.6 3.2q.1.8 1.4-1 1.5-2 .4-3.1c-1.7-2.1-3.1-1.5-2.4.9m69.7.7c-1 1.7-.9 2.1.3 2.1 2 0 2.7-1.3 1.6-2.9q-.7-1.7-1.9.8M14 392.5c-1.7 2.1.9 5 5.9 6.6a19 19 0 0 1 6.3 3.7c1.6 1.4 3.3 2.2 4.2 1.9 2.5-1 1.9-2.2-2.4-5.1-2.2-1.4-4-3.3-4-4.1s-.8-1.5-1.8-1.5-2.7-.7-3.8-1.5c-2.4-1.8-2.9-1.8-4.4 0m726.5 9.5c-1.5 1.6-3.2 2.7-3.7 2.4-1.3-.9-.9.6.7 2.2a6 6 0 0 1 1.5 3.5q.2 4.1 6.5-1.2c5.1-4.5 4.7-9.9-.9-9.9-.7 0-2.5 1.3-4.1 3m-693.4 4.9q-1.7.9.8 2c1.8 1 2.1.9 2.1-.9 0-2.2-.7-2.5-2.9-1.1m680.4.2c-1 1.5.3 2.5 1.6 1.2q1-1 .1-1.7-1-.4-1.7.5m.1 4.9a23 23 0 0 0-4.2 6.7c-.3 1.6-1.4 5.4-2.4 8.6l-1.9 5.7 2.6 2.4c2 1.8 2.4 3 1.9 4.9a25 25 0 0 0 .9 8.3c.8 3.2 1.5 7.5 1.5 9.5 0 2.1.7 4.2 1.6 5 .8.7 2.4 3 3.5 5.1 1.9 3.7 9.3 9.7 10.5 8.5.4-.3-.9-2.4-2.8-4.7-4.9-5.7-8.2-15.8-6.8-21.1 1.3-4.8 3-5 12.5-1.5 3.6 1.3 6.5 2.1 6.5 1.7 0-1.9-5.3-8-8-9.1-3.8-1.6-3.5-2.6 2.1-6.5 3.5-2.5 4.5-3.9 4.7-6.5q.8-7.9-3.1-8c-3.3 0-8.6 3.6-9.9 6.7-2.1 4.8-6 10.3-7.3 10.3q-1.2-.1-2.5-1.5c-1-1.1-.5-2 2.4-4.5 2.2-2 4-4.7 4.7-7.2.9-3.6.8-4.4-1.2-7.1-2.1-2.8-2.1-3.1-.5-5.7 2-3.4 2-4 .2-4-.7 0-3 1.8-5 4M663 422.3c-1.8 4.1-5.1 6.7-8.5 6.7a22 22 0 0 0-6.6 4.6c-4.1 3.6-5.7 4.5-7.8 4.1l-9.9-1.8c-6.5-1.2-7.4-1.1-8.8.3-1.6 1.5-1.9 1.5-4.4-.3-2.6-2-14.5-4.3-16.2-3.3q-1 .4-2.2-.5-1.4-1.2-4-.1c-4.7 1.8-6.6 1.3-6.6-1.6 0-2.3-.3-2.5-2.5-2a6 6 0 0 1-4.6-.7c-3.2-2.3-6.8-.9-8.5 3.2-2.7 6.4-8.4 10.7-8.4 6.3a5 5 0 0 0-.6-2.5c-.8-.8-8.4 7-8.4 8.7 0 .8-.5 1.8-1 2.1-2.1 1.3-4.2 6.7-3.1 7.8 1.9 1.9 1.3 4-.9 3.4s-2.9 1.8-.8 2.5c2.2.8-1 11.7-5.5 18.8-4 6.2-4.2 6.7-4.2 14.5 0 6.8-.3 8.5-2.2 10.9a10 10 0 0 0-2.3 5c0 3-2.7 6.6-5 6.6-2.4 0-3.1 3-1.2 5.2 1.2 1.5 1.2 2-.1 3.9-1.6 2.2-1.4 6.5.5 10.2 1.3 2.6 5.4 3.9 7.8 2.5 2.6-1.7 5.4 1 7.4 7 2.1 6.1 2 8.3-.9 20.4-3.3 13.8-3.3 15.2.9 17.7 3.9 2.4 5.9 2.6 7.5.7 1.4-1.7 10.2-2.8 11.9-1.4s1.5-1-.3-4.2c-2-3.5-1.8-8.4.4-12.9 1.8-3.4 1.8-4.1.5-6.6-1.8-3.5-1.8-12.9 0-15.8 1.4-2.2.9-5.5-2.8-17.2-.5-1.6.4-2.6 4.4-5.3 5.2-3.4 7.9-3.9 11.1-2.2 3 1.6 2.6 9.3-.6 13.2a13 13 0 0 0-2.5 3.8c0 1.2 11.3 10.6 15.1 12.5 2.7 1.5 2.8 1.7 1.4 3.8-.8 1.3-1.7 4.3-2.1 6.8-.5 4.2-.4 4.5 2.6 6.1 3.7 2.1 13.2 2.6 11.2.6-3.9-3.9 2.1-8.4 9.9-7.4 4.3.6 4.9.4 6.8-2 2.7-3.5 2.7-5.2-.3-6.5-1.3-.6-4-3.1-6-5.5s-4.3-4.4-5.1-4.4q-3 0-1.6-4.2 1-2 1.1-1.3t1.5-2.3c1.3-3 1.3-3.6 0-4.9a5 5 0 0 1-1.5-3.1c0-1-1.2-2.3-2.7-3a41 41 0 0 1-12.3-16.6q0-3.4 10.3-7.6c2.4-1 6-4.3 10-9 3.4-4.1 7.5-8.1 8.9-9 2.6-1.4 2.9-1.3 5.7 1.4l3.1 2.9 1.5-3.7c2-4.6 1.5-6-2.5-8.1-2.5-1.3-3.7-1.4-7-.4s-3.9 1.6-3.4 3.1c.5 1.7.1 1.8-5.8 1.2-5.4-.5-7.1-.3-10.6 1.5-4.6 2.3-9.2 2.7-11 .9-.9-.9-2.6.3-7.5 5.7-5.6 6.1-6.6 6.8-9 6.1-1.6-.4-4.2-2.6-6.4-5.6-2-2.7-4.9-5.4-6.4-6-2-.9-3.2-2.5-4.3-5.8-2.9-8.4-1.4-16.6 3.9-21.9 3.8-3.8 5.2-4 11.3-1.6 4.1 1.5 4.8 1.5 11.7-.1 5.4-1.3 7.9-1.5 9.3-.7 1.3.7 6.4.8 14.5.4 11.6-.6 12.8-.4 16.6 1.6 2.3 1.1 5.5 2.1 7.1 2.1s3.1.4 3.4.9c.6.9 9-.2 14.1-1.9 4.1-1.4 12.5-10.2 19-20 4.6-6.9 4.7-7.2 3-9-1-1.1-2.9-2-4.2-2-1.9 0-2.8 1-4.3 4.3m-615.2 2.1-2.7 1.1 3 5.3c1.7 2.8 4.4 6 6 6.9s3.2 2.8 3.5 4c.9 3.4 4 2.9 5.3-.8 1.8-5.1 1.4-6.1-4.5-12.2s-6.4-6.2-10.6-4.3m159.5 6.3c-3.6 1.8-4.4 4.3-1.4 4.3 1 0 2.4.7 3.1 1.5 1.8 2.2 3.9 1.8 4.6-.9.6-2.4-1-6.7-2.4-6.5-.4 0-2.2.8-3.9 1.6"/><path d="M198 431.5c-1.2 1.5-.6 3.5 1.1 3.5.6 0 1.9 1 2.9 2.2s2.2 2 2.6 1.6q.5-1-1.1-2.8c-1.6-1.8-1.5-2.8-1.2-4 .6-2.4-2.4-2.8-4.3-.5m-14 1.4q.1 1 1 1.6 1 .4 1-.9 0-1.5-1-1.6-.9 0-1 .9m0 6.1q-.2 2.1 2.7 2c2.5 0 2.6 0 .8-2-1-1.1-2.2-2-2.7-2q-.7.2-.8 2m536.6 15.8q-.4.8.5 2.2 1 1.8.9-.8 0-3.5-1.4-1.4m-511 3.1c-2.6 2.8-.5 4.7 4.5 4.3q3.8-.4 3.9.7.1 1 1 1.1c2.3 0 .7-3.1-2.7-5.5-4.5-3-4.5-3-6.7-.6m553.4-1.1c0 1.3 3.5 4.2 5 4.2q1.3 0-1-2.5c-2.4-2.5-4-3.2-4-1.7m24.8 1.7c-1.6.9-2.8 2.1-2.8 2.8 0 1.7 5.8 4.8 6.6 3.6q.6-.8 1.8.7c1.1 1.4 1.8 1.5 4.6.6a20 20 0 0 1 6-1.2c3.6 0 4.7-2.7 2.1-5.3-2.6-2.7-14.4-3.4-18.3-1.2m-713.4 3.1a3 3 0 0 1-.4 2.9c-1.5 1.9.3 2.7 2.5 1.1 1.4-1 1.6-1.6.6-3.4-1.4-2.5-3.6-3-2.7-.6m639.6 3.9q0 3.6 1.5 3.5c.9 0 2.8 1.2 4.3 2.7 3.6 3.7 8.8 5.5 10.3 3.7 1.2-1.5.4-3.4-1.4-3.4q-1.2 0-2.6-.9c-1.2-.8-1.2-1.2-.2-2.5 2-2.4-.2-4.5-4.4-4.1q-3.3.3-3.9-1.1a2 2 0 0 0-2.1-1.4q-1.6-.1-1.5 3.5m-506.7-.7c-2.6.4-2.8 1.7-1 4.9l1.3 2.3 2.7-2.6c1.5-1.3 2.7-2.7 2.7-2.9 0-1-3.7-2.1-5.7-1.7m621.7-.1c-.8.4-3.7 2.1-6.3 3.9a30 30 0 0 1-8.5 4q-7.3 1.3-7.2 4c0 2.1-2.9 7.4-4 7.4-.6 0-1-1.5-1-3.4 0-2.8-.4-3.5-2.2-3.8q-2.1-.4-2-1.6c.2-1-1-1.2-4.5-1-4.9.3-7.1 2.5-3.4 3.5 1.1.3 2.3 1.3 2.6 2.3s1.9 3.6 3.5 5.8c3.1 4.3 8 6.3 10.5 4.2 1-.8 2.7-.7 7.1.4 5.7 1.5 7.4 2.7 7.4 5.6 0 1.8 3 6.7 6 9.8 1.6 1.7 2.9 2.2 4.7 1.7 1.4-.3 3.1-.1 3.9.6s2.4.8 3.6.4c1.3-.3 5.9-1 10.3-1.5s9.6-1.1 11.5-1.6c3.2-.7 3.4-.6 2.1.9q-1.4 1.7-.2 1.7c2.4 0 .9 2.7-2.4 4.3-4.8 2.3-7 2.1-8.7-.5l-1.5-2.3-4.8 4c-7.3 6.2-7 6.1-11 4.2-4.4-2.1-5.8-2.1-9.6-.1-2.5 1.2-2.8 1.8-1.8 3 .6.8 2.1 1.4 3.3 1.4 3.1 0 8.2 3.5 9.8 6.7.8 1.6 2.1 2.7 2.9 2.5.9-.1 2.1.9 2.7 2.2.9 2.1.8 2.6-1.1 3.9s-2 1.7-.8 3c.7.9 1.1 2.2.8 2.9-.2.7.4 2.3 1.5 3.5 1.9 2 2.2 2.1 6.3.6 5.1-1.7 6.2-2.8 6.7-6.7.5-5 2.8-5.3 8.3-1.2q10.3 7.9 11.5 5.6c1.2-2.3 4.1 0 6.7 3.3 3.9 4.8 9 7 19 7.8 7.1.6 10 1.3 12 2.9a10 10 0 0 0 5 2c1.4 0 5.6 1.7 9.4 3.7 5.7 3.1 7.1 3.5 7.8 2.4s2.3-.6 8.1 2.9c11 6.6 15 9.8 15 11.9q.1 1.8 1.6 2.3c1.5.5 2.4 3.1 3.8 7.1 1.2 3.7 3.5 8 5 9.6 2.7 2.8 2.7 3.1 1.6 6.7-1.3 3.7-1.2 3.9 2.1 6.6 2.6 2.2 2.9 2.8 1.5 2.8-1.9 0-1.9.1 0 2.1s1.8 2-.9 1.4c-7.7-2-15.8 3.9-21.7 15.6q-5.4 10.3.5 7.9c1.3-.5 4.9-.9 7.7-.9 2.9 0 6.9-.1 8.8-.3s4.7.2 6.2.6c2.1.6 2.7.4 3.2-1.2 1-3 5.4-5.6 7.1-4.2q1.4 1.1 6.8.5c7.3-.9 9.7.5 22.4 12.8l10.3 10V636c0-24.7-.1-25.4-2.2-27.7-2.1-2.2-2.1-2.4-.5-5.8 1.5-3.2 1.7-8.3 1.7-45.9v-42.4l-4.9-2.1a28 28 0 0 0-7.8-2.1c-1.5-.1-3.9-.7-5.3-1.4a9 9 0 0 0-5.5-.9c-2.2.4-5.9-.8-13.5-4.1-5.7-2.6-11.1-5.3-12-6-1.7-1.5-19.6-7.6-22.3-7.6-1 0-4.5 1.4-7.8 3.1-6 3-6.1 3.1-5.5 6.4.4 1.8.3 3.6-.2 3.9s-4 .8-7.8 1.1c-10.2.9-11.1 1.2-11.8 3.9-.3 1.3-2.4 4.4-4.6 6.7-2.2 2.4-4 4.8-4 5.4s-2.4 3.2-5.4 5.8c-4.6 4-6.1 4.7-9.6 4.7-5 0-9.5-3.8-8.5-7q.9-2.1-1.4-2c-2.3.1-2.1-.9-2.7-4.5-.5-3.5-1-4.5-2.5-4.5q-1.8.2-1.9 1.5 0 4-4.1-2.8c-3.9-6.2-4.7-15.2-1.8-20.9l2.2-4.2-3.4-6.3c-3.6-6.6-3.4-6.5-13.1-7.8-2.8-.4-6.2-1.8-8.8-3.6-5.2-3.8-15.5-5.9-20-4.2m-54 1.3q.2.9 1.5 1c1.3.1 1.5-.5 1.5-1q-.1-1-1.5-1c-1.4 0-1.5.4-1.5 1"/><path d="M715.2 471.2q-1.2 1.1-.1 2.5c1.6 1.9 2.9 1.6 2.9-.6 0-2.5-1.3-3.4-2.8-1.9m182.8.8c0 .5 1.7 1.8 3.8 2.9s5 3.6 6.5 5.5c2.2 2.8 3.5 3.6 6 3.6 3 0 5.7-1.4 5.7-3.1 0-.3-1.3-.9-3-1.2a7 7 0 0 1-4.4-3.5c-1.1-2.2-2.7-3.2-6-4.1q-8.4-2-8.6-.1m-819 6.9c-1.6 3.1-1.2 5.4 1.9 10.3q5 7.8 9.8 7.8c4.5 0 4.4-3-.4-11.8-4-7.3-4.8-8.2-7.3-8.2q-2.9 0-4 1.9m806.3-.3c-.7 1.9 2 4.4 4.9 4.4q3.4-.2.1-3.2c-3.2-2.7-4.3-3-5-1.2m-263.8 4.3c-2.5.5-3.1 1.2-3.3 3.9-.4 3.9 2 5.3 4.8 2.7 1.9-1.7 2-1.7 3.9.6l1.9 2.4 2.6-2.4c2.7-2.6 3.4-5.5 1.5-6.7-.6-.3-1.6-.1-2.2.5-1.6 1.6-3.7 1.4-3.7-.4 0-1.6-.7-1.7-5.5-.6m101 .1c-.7 1.1 1.8 2.4 3.5 1.8q.8-.4-.9-1.5-2-1.2-2.6-.3m51 0c.3.5 1.3 1 2.1 1s1.4-.5 1.4-1q-.1-1-2.1-1-1.7 0-1.4 1m-51.9 5.4c-3.1 3-3.2 4-.5 6.7 1.5 1.5 2.6 1.8 4.2 1.2a32 32 0 0 1 7.5-.8c6.5 0 6.7-1.4.9-5.4-6.5-4.4-9.1-4.8-12.1-1.7M237 490.8q-.2.8-2.5.4c-2.9-.5-5.5 1.3-5.5 3.7 0 .9-1.4 2.8-3.2 4.3-1.8 1.4-2.9 3-2.5 3.4.4.5 3.6 1 7.1 1.2 6.1.4 6.4.5 8.9 4.5 1.5 2.3 2.7 5.5 2.7 7.3 0 3.9 2.1 6.4 8.1 9.8l4.7 2.6 2.2-5.7c1.3-3.2 2.8-6.4 3.3-7.1 1.2-1.5 1.2-1.6-4-3-6.7-2-8.3-3.9-10.6-13.2-2.2-8.3-2.3-8.5-5.4-8.8-1.8-.2-3.3.1-3.3.6m662.5 2.1c.6.6 3.4 1.5 6.3 2.1 2.9.5 6.5 1.9 8.2 3.1q3 2.3 4.2 1.2c.7-.6 3.5-1 6.1-1 5.4 0 8-1.5 5.1-3.1-1.1-.5-6.2-1.3-11.4-1.6l-14.5-1.2q-5.2-.7-4 .5m-246.9 1.7c-1.9 1.8-1.9 1.6-.6 4.8q1.6 4.5 8.1 1c2.3-1.1 3.4-1.2 4.4-.4s2.4.8 5.5 0 4.9-.8 6.9 0q2.7 1.2 5.5 0c4.2-1.5 4.5-1.3 3.9 2.6-.5 2.9-.3 3.6.8 3.2.8-.2 1.5-1.6 1.7-2.9.2-1.9 1.3-2.9 4-3.9l3.7-1.4-3-.7c-1.6-.4-6.1-.7-10-.8-3.8 0-10.5-.8-14.8-1.6-10-1.9-14.2-1.9-16.1.1m125.2 1c-2.6.8-5 1.9-5.3 2.4-.7 1.2 6.7 5 9.7 5s5.2-1.5 4.4-2.8q-.4-1 .5-1.4 1-.5.5-2.6c-.9-2.6-3-2.7-9.8-.6M108 512.9c0 2.7 2.4 7.1 3.8 6.9q1.5-.2 2.3 2.7c.5 1.7 2.2 4.4 3.9 6l3 2.9v-3.7c0-3-.9-4.6-5.6-9.6-5.3-5.7-7.4-7.2-7.4-5.2m171.6 1.6c-1.5 3.9-1.7 11.1-.4 12.8 1.2 1.6 1.8 1.7 4.1.6 2.1-.9 3-.9 4.1 0 1.2 1 2 .5 4.5-3 1.7-2.3 3.1-4.6 3.1-5s-1.9-2.2-4.2-3.9c-4.5-3.3-10.2-4.1-11.2-1.5m482.6 5.5c-2.5 1.6-3.2 1.7-4.2.5-.8-1-3.3-1.2-10.5-.8-9.2.6-9.6.7-13.3 4.2s-3.8 3.8-2.7 7.1l1.2 3.5 1.9-3.7 1.9-3.7 4 3.5q3.8 3.4 2.8 4-1.4.9-1.3 2c0 1.5 3.3 1.8 6.5.4 1.9-.7 1.9-.8.2-1.5s-1.7-.9.4-3.1c2.2-2.4 4.9-3.1 6.3-1.7.4.5 2.6 1.3 4.9 1.9 3.3.8 5 .8 7.8-.3 3.6-1.4 3.8-1.3 15.9 4.7 6.7 3.4 12.3 6 12.5 5.8s.6-1.7.9-3.5c.6-2.7.3-3.7-2.3-6.4-1.7-1.8-3.1-3.7-3.1-4.4 0-2.4-4.6-5.5-8.2-5.5-2 0-4.7-.4-6.1-.9s-4.6-1.6-7.4-2.4c-4.7-1.4-5.3-1.4-8.1.3m-30.7 2q-.4.9.9 1 1.5-.1 1.6-1 0-1-.9-1t-1.6 1m-34.2 3c-5.2 1.1-8.3 2.7-8.3 4.4 0 2.1 5.2 8.3 9.5 11 4.9 3.2 7.3 3.3 13.5.1 4.6-2.3 5-2.8 5-6 0-2.9-.4-3.5-2.1-3.5q-1.8 0-1.5-.9c.4-.5-.8-2.1-2.5-3.5-3.2-2.7-6-3.1-13.6-1.6m29.2 3q-.4.9.9 1 1.5-.1 1.6-1 0-1-.9-1t-1.6 1m-5 2q-.4.9 1.5 1c1.9.1 1.8-.5 1.5-1q-.6-1-1.5-1-1.2 0-1.5 1"/><path d="M738.5 535q-.6 1.1.3 2.2c.9 1.1 1.2.6 1.7-.2q.6-1.1-.3-2.2c-.9-1.1-1.2-.6-1.7.2m-24 8q.5.9 1.1 1 .4-.1.4-1-.1-1-1.1-1-.8 0-.4 1m-93.1 3.5c-.8 2 1.3 4.5 3.7 4.5 1.9 0 3.5-3.3 2.4-5-1-1.6-5.5-1.2-6.1.5M855 551c.8.5 2 1 2.5 1q.8-.1-.5-1-1.8-1.2-2.5-1t.5 1m-234.8 5.2c-.5.7-1.3 2.9-1.7 4.8-.7 3.2-.8 3.3-1.6 1.2-1-2.6-1.8-2.7-6.3-.8-3 1.2-3.4 1.9-3.9 6.2l-.9 6.9c-.3 1.7.3 2 3.2 2 3.2 0 3.5.3 3.5 2.8.1 4.8 4.9 6.4 6.5 2.2.5-1.4 2.6-3.5 4.5-4.7l3.6-2.1-2.7-2.8c-2.4-2.5-2.6-3.3-1.8-5.7q1-2.7 3.1-2.5c2 .2 2.1 0 1.1-3q-2-5.8-4.3-5.7-1.2.2-2.3 1.2m-24.1 14.1c-1.6 1.6-1.3 4.2.7 6q3.7 3.4 4.5-.5c1.1-3.9-2.7-8-5.2-5.5m38 4.1q-1.3 1.4-.1 2.1c1.6 1 3.1-.7 2.1-2.3q-.7-1.6-2 .2m-476.7 2.2.6 2c0 .9 4.9.3 5.6-.7.8-1.4-1.4-2.9-4.5-2.9q-2.5-.1-1.7 1.6m688.4 1.9c-2.8 4.2-4.6 10.5-3.1 10.5 1.3 0 6.6-11.5 6.1-13.1q-.5-1.2-3 2.6m29.4 2.5c-1.8 2.2-2.8 4.1-2.2 4.5 1.1.7 1.4 4.8.3 5.8-.3.4-1.2.2-1.9-.4-1.8-1.5-2.1-.5-2.9 9.8-.5 7.2-.4 8.2 1.2 9.1 2.5 1.5 6.8-1.3 9-5.8 1-1.9 1.8-4 1.8-4.5s1.1-1.9 2.4-3.1c2.1-1.8 2.2-2.3 1-4.1-1-1.6-1-2.5-.1-3.5 1.6-2-1.5-11.8-3.7-11.8-.9 0-3.1 1.8-4.9 4m-38.2 4.5q0 3.5 1.5 3.5c1.5 0 2-2.6.9-5.4s-2.4-1.7-2.4 1.9m-272.4 1c-.9 2.5.4 12.6 1.5 11.9s1.1-9.1 0-11.8c-.7-1.9-.8-1.9-1.5-.1m-325.9 11.6c-5.2 11.4-5.1 13.2.8 11 3.1-1.1 3.8-1 6.4.8 1.6 1.2 4.1 2.1 5.5 2.1q2.7-.1 2.6 1.9c0 1.1-.4 2.3-1 2.6s-1 1.4-1 2.4c0 1.5 1.2 1.9 7.8 2.5a86 86 0 0 1 27 6.7l8.4 3.3 4.6-1.8c4.8-1.9 16.6-2.3 18.7-.7.5.5 3.5 1.1 6.7 1.5 3.1.3 8.7 2 12.5 3.7 7 3.2 16.9 6.9 18.5 6.9q.8-.1.3-1c-.8-1.3-1.1-1.3 6 .9 4.3 1.4 6.7 1.6 8.5.9a31 31 0 0 1 12.2.8c8.4 1.5 10.6 1.5 15.2.4 5-1.2 5.8-1.1 14.5 1.9 5.1 1.7 10.6 3.1 12.2 3.1s2.9.4 2.9 1c0 1.4 3.9 3.2 5.7 2.6 1.2-.5.9-1.3-1.6-4.1q-5-5.7-1.6-8.5 1.6-1.6 1.5.4c0 2 3.6 4.3 8.2 5.1 4.7.9 7.2 3.6 6.4 7-.8 3.2.7 3.3 2.2.1.6-1.3 3-3.4 5.4-4.7 4.9-2.8 5.8-4.9 2.9-7.8-2.7-2.7-8.4-3.6-13.2-2.1-5.6 1.9-11.4.1-12.2-3.8-.4-2.1-1.8-3.4-5.3-5.2-4.5-2.2-5.2-2.2-10.3-1.1-11.2 2.5-12.2 2.4-19.1-1.2a31 31 0 0 1-6.7-4.3c-.2-.6.6-2 1.7-3.2 1.8-1.9 2.7-2.1 6.8-1.4a30 30 0 0 0 19.6-2.1c8.6-4 6.6-5.1-9.5-5.3-10.3-.1-13.2.1-13.6 1.2-.7 1.8-2.7 1.8-4.2 0-.7-.8-3.8-1.7-6.9-2-11.7-1.1-15.4-1.8-15.9-3.2-.6-1.7-2.7-1.8-5.2-.2-1.7 1-2.5.7-6-2.5-2.3-2-4.5-3.7-5-3.7s-2.5 2.5-4.5 5.5c-2.1 3.3-4.6 5.7-6 6.1-1.3.3-6.1-.2-10.6-1.1-4.8-1-9.7-1.4-12-1s-4.7.2-6-.5q-2.1-1-3.3-.2c-1.2.8-2.4.6-4.7-.2-2.7-.8-3.6-1.7-3.8-3.8-.2-1.6-1.8-4-3.8-5.7-2.9-2.6-3.7-2.9-5.4-1.9-1.5 1-2.6.9-5.5-.5-2-.9-4.4-1.7-5.3-1.7-1 0-2.6-.6-3.7-1.4-2.9-2-12.2-2.6-13.6-1q-2.4 2.7-4.8 0c-.6-.7-3.5-1.6-6.4-1.9-2.8-.4-6.1-.9-7.2-1.2-1.8-.6-2.7.7-6.8 9.6m644.4 5c-1.3 1.7-2 3.3-1.6 3.7.8.8 4.4-3.7 4.5-5.6 0-1.6-.1-1.5-2.9 1.9M450 610a9 9 0 0 0 4 .9q3.3.1.5-.9c-1.1-.5-2.9-.9-4-.9q-2.4-.2-.5.9m119 3.9c0 1.4 1.8 2.3 3.1 1.5q1.2-.6-.2-1.5-2.8-1.6-2.9 0"/><path d="M428 615.5q1.2 1.3 2.1 1.5c.9.2.9-.7.9-1.5q-.1-1.4-2.1-1.5c-1.8 0-1.9.2-.9 1.5m317.4-.4q-.4 1 .7 2c2.2 1.4 2.9 1.1 2.9-1.1 0-2.1-2.4-2.7-3.6-.9m66.4.8c-1.4 1.1-4 4.3-5.9 7s-4 4.9-4.6 4.6q-1.2-.3-1.3.5.2 1 1.5 1 1.5 0 1.5 2.9-.1 3 2.2 3.4c1.2.4 2.3.5 2.4.4 5.4-7.6 7.4-11.4 7.4-14.1 0-1.8.5-3.7 1-4.2q1.2-1.1-.3-2.2c-1.1-1-2-.8-3.9.7m6.7-.9c-.3.5.3 1.4 1.4 1.9 2.6 1.5 3.1 1.4 2.5-.3-.7-1.8-3.2-2.8-3.9-1.6M576 617c0 .5 1.2 1 2.6 1s2.3-.4 1.9-1-1.5-1-2.6-1q-1.7 0-1.9 1m225 5.6c0 1.7 2.2 1.4 2.8-.4q.2-1.1-1.2-1.2c-1.4-.1-1.6.7-1.6 1.6m-82 2.9c0 1.7.2 1.8 2.4.9 1.8-.7 1.2-2.4-1-2.4q-1.3.2-1.4 1.5m-22 1.1a13 13 0 0 1-6.2 1c-2.2-.4-3.1 0-4.8 2.3-3 4.4-2.6 5.1 3.2 5.1 3.7 0 7.1-.9 12.1-3.2l6.9-3.2-2.2-1.8c-2.7-2.2-4.4-2.2-9-.2m71.6 4.2c-.3.5.6 2 2 3.3 2.5 2.4 2.6 2.4 4 .4.8-1 1.3-2.4 1.1-3-.4-1.3-6.3-1.9-7.1-.7M504 636.9c-5.3 1.1-6.2 1.8-4.9 4.3.9 1.6.8 2.3-.2 2.9-2 1.2-3 1.1-5-.7-1.6-1.5-2.1-1.4-5.8.7-2.3 1.2-4.3 3-4.5 3.8-1.7 6.4-1.6 7.2.8 9.6 2.9 2.9 4.3 3.1 7.2 1.1 1.1-.8 4-1.4 6.5-1.5 4.7 0 17.4-3.5 18.4-5.1s2.5-1.2 2.5.5c0 2.7 10.3 2 15.1-1 2.2-1.4 3.7-3 3.3-3.6q-.6-1.2-1.5.2c-1.1 1.9-2.7.1-3.1-3.6-.3-2.7-.7-3-3.8-3.1-1.9 0-4.3-.4-5.3-.9q-1.8-.6-4.4.6c-2.3 1.3-2.7 1.1-5.1-1.9-2.8-3.3-3.8-3.5-10.2-2.3m225-.1c0 1.7 3.9 4.4 5.5 3.9.8-.4 1.5-1.6 1.5-2.7 0-1.6-.6-2-3.5-2-1.9 0-3.5.4-3.5.8m-195.9 1.6q-1.3 1.4-.1 2.1c1.7 1 3.7-1.2 2.4-2.5q-1.1-1.1-2.3.4m84.4-.4q-.4.9.4 1c1.9 0 1.2 1.7-1.3 2.8-1.3.6-4 2.5-6 4.2l-3.6 3.2-4.5-1.7a19 19 0 0 0-10.2-1.1c-5.2.6-6.4.3-14.8-3.4l-9.2-4-5.7 1.5c-7.3 1.9-9.2 2.9-11.2 6.1-1.3 1.9-1.4 3-.6 4.8 1 2.2 1.3 2.3 11.4 1.8 8.3-.4 11.1-.1 13.6 1.2 2.9 1.5 3.4 1.5 7.2 0 2.9-1.2 5.5-1.5 9.1-1 3.1.4 5.6.3 6.3-.3s5.7-2 11-3a70 70 0 0 0 13.6-4c3.8-2 3.8-2 5.2 0 1 1.6 2 1.8 4.6 1.3 1.7-.4 3.2-1.2 3.2-1.9s.9-1.5 1.9-1.8c1-.2 2.4-1.4 3-2.5 1.1-2 .9-2-7.2-1.8-4.6.2-8.9.6-9.5 1-.6.3-1.6-.3-2.2-1.4-1.1-2.1-3.5-2.7-4.5-1m36.1 3.4-1.5 3.8 4.7-.7c9.6-1.4 13.2-2.6 13.2-4.6s-1-2.2-10.7-2.3c-4-.1-4.3.1-5.7 3.8M797 640c-2.7 3.8-1.4 3.8 3 0 3.2-2.6 3.3-2.9 1.3-3-1.3 0-3 1.2-4.3 3m-150.2.7c-4.3 2.9-4.6 3.8-1.8 5.3 2.5 1.3 3.6.7 5.6-3.2 2.2-4.2.6-5.1-3.8-2.1m106.6-1.2c1 .8 2.4 1.1 2.9.8q.8-.7-.9-1.4-4.8-1.7-2 .6m-283.9 1.6c-2.3 1.8-2.6 2.7-2 5.5.4 2.6.2 3.5-1.3 4.3-1.1.6-2.3.7-2.7.3q-.7-.6-.1.5c.3.6 2.6 1.9 5.1 2.8 5 2 9.5 1.4 9.5-1.2a19 19 0 0 1 2.4-5.8c2.7-4.6 2.4-5.9-1.7-7.4-4.1-1.6-6.1-1.4-9.2 1m71.5 6.3c0 1.4.5 2.8 1 3.1q1 .4 1-.8.1-1.7 1.6-2.1c2-.8.9-2.6-1.7-2.6q-2 0-1.9 2.4m-86.3 2.3c-1.3 1.2-.7 2.3 1.3 2.3q2 0 1.4-1.5-1.1-2.4-2.7-.8m91.9.8q-.5 1.4.9 1.5c1.6 0 2-1.6.6-2.4q-.8-.4-1.5.9m118 4.9a55 55 0 0 1-12.3 5.6c-10 3.4-16.3 8.1-16.3 12 0 1.1-1.6 3.7-3.5 5.9-1.9 2.1-3.5 4.9-3.5 6.1 0 2.2.1 2.2 1.8.7 2.2-2 6.4-2.2 9.1-.5 1.5.9 2.9.9 6.3-.1 6.3-1.8 11.4-5.4 19.1-13.3 6-6.3 6.7-7.4 6.2-9.9q-.7-3 .9-3.5c2.1-.8 2-3-.1-3.7l-3.3-1.1c-.8-.3-2.8.5-4.4 1.8M535 665.9c-1.9 1-3.6 2.3-3.8 2.9q-.6 2.1 13.5 6.2a23 23 0 0 1 11.2 5.9c2.3 2.2 5.4 4.2 7 4.6 3.5.7 8.5-1.5 10.2-4.6 1.4-2.7-.7-5-10.5-11.7-7-4.8-7.2-4.8-15.7-5-6.5-.1-9.3.3-11.9 1.7m60 23.6c-1.2 1.4-1.1 1.8 0 2.5 1.7 1.1 5.3-.7 4.7-2.3-.6-1.9-3.2-2-4.7-.2m29.5 2.7c-9.6 6.2-8.3 9.2 1.8 4.2l5.4-2.8c.1-.1-.1-1.3-.5-2.7l-.7-2.6z"/></svg>