<svg xmlns="http://www.w3.org/2000/svg" width="1365.333" height="1365.333" viewBox="0 0 1024 1024"><path d="M645 .3a16 16 0 0 0 5 2.2c4.7 1.6 6.7 3.5 3.6 3.5q-3.4 0-1.6 5.6c.9 2.6 3 4.9 8.2 8.6 6.5 4.7 6.9 5.3 5.2 6.5a7 7 0 0 1-9.4-1.2c-2-2.1-2.1-2.5-.7-3.1 1.4-.5 1.1-1-1.2-3-3.9-3.2-5.8-3-11 1.1-5.1 4-4.9 4-8 1.8-2.3-1.5-2.5-1.5-3.7.2a6 6 0 0 1-4.6 1.9q-3.4 0-3.6 1.8-.2 1.7 1.2 1.8c2.1 0 2 2.9 0 5.1-1.6 1.7-1.5 1.9 1.1 2.9l2.8 1.1-3.1 3.2c-4.9 5-4.9 5.1 7.8 25l4.3 6.9-3.2 2.5c-3.1 2.5-3.2 2.6-1.2 3.9 1.1.8 2.5 3 3.1 5 1.5 4.3.4 5.8-5 7.1q-3.5.9-4.8 3.6t-3.7 2.7c-2.4 0-4 1.7-7.2 5.2-8.2 8.7-10.5 10.8-11.4 10.2-2.3-1.4-.4-5.4 6.1-12.8 3.9-4.3 7-8.3 7-8.7q0-2.5-6-.4c-5.3 1.9-5 1.9-5-1 0-1.3.8-2.9 1.8-3.4 3.8-2 15.1-13.8 15.7-16.3.6-2.3 0-3.6-3.8-8a39 39 0 0 1-5.2-7.6c-.7-2.3-.9-2.1-5.5 3-2.7 2.9-4.9 4.7-5 4 0-2.1 2.6-7.6 4.4-9.1 1.5-1.3 1.5-1.5 0-3.2s-1.5-2 0-4.3a10 10 0 0 0 1.6-4.3c0-2.7-4.7-12.3-6-12.3-.7 0-3 1.6-5.3 3.5-2.3 2-5.2 3.5-6.6 3.5q-2.6 0-6.2 4.3c-3.6 4.2-3.6 4.2-1.9 7q1.7 2.6 2.4 1.8c1.2-1.8 3.7-1.2 4.3.9.7 2.7 2.3 2.5 2.3-.3.1-2.1.1-2.1 2.1.5 1.1 1.6 2.7 2.8 3.5 2.8s1.4.9 1.4 2 .7 2.3 1.5 2.6c2 .8 1.9 2.9-.6 10.9-1.5 5.1-2.4 6.5-3.7 6.3s-1.7-1.5-1.8-5.8c0-7.4 0-7.4-3-11-2-2.3-2.9-2.8-3.5-1.9-.6 1-1.2 1-2.6-.4-1-.9-2.8-1.4-3.8-1.1-2.6.7-5.9-4.7-5.1-8.2.5-1.9.2-2.4-1.2-2.4a5 5 0 0 1-3-1.2q-1.3-1.5-2.2.2-2.6 4.2 1.8 6.3c5.1 2.2 5.5 5.2 1.5 13.3l-2.6 5.4-2.4-2.2-2.3-2.2 2.2-2.4c1.8-2 2-2.6.9-3-.8-.3-2.6-1.6-3.9-2.9q-2.6-2.6-3.5-1.4c-1.7 1.7-5.7 1.3-6.4-.5-.3-.9-.1-2.5.6-3.6 1.7-2.8.5-3.8-4.5-3.8-4.3 0-4.4.1-4.4 3.2 0 3.4-3.2 9.8-4.9 9.8q-.9-.2-1.3-1.2-.3-1.4-3.1.5c-1.5.9-4.5 1.7-7 1.7-3.3 0-4.9.6-6.5 2.3-2.4 2.5-3 2.5-16.9.2-4.1-.7-4.3-.6-4.3 1.6 0 1.3-.7 4.2-1.4 6.4-.8 2.2-1.7 6.6-2.1 9.7q-.7 5.8-2.1 5.8c-.8 0-2 1.5-2.7 3.2q-3.1 7.2-6.3 4.7c-1.4-1.1-1.8-1.1-2.9.4-.6.9-1.5 1.4-1.8 1.1-.3-.4-.5.6-.4 2.2.2 2.5-.2 2.9-2.8 3.2-3.6.4-4.5 1.6-4.5 5.9 0 3.7 1.5 5.1 2.8 2.7.9-1.5 1.4-1.4 4.8 1.4l6.4 5.1 2.5 1.9-6.1 1.8c-4.9 1.5-6 2.2-5.6 3.6q.3 1.6-.7 1.8-3.5.1 4 4.9c5.9 3.7 5.9 3.6 5.2 1.2q-1.2-4.4 5.2-.8c3 1.7 4 2.9 4 4.7q0 2.6-1.5 2.1a17 17 0 0 0-4.5-.5c-2.7-.1-3 .3-3.3 3-.4 4.2-3.6 7.2-5.7 5.4-1.2-1-1.9-.9-3.9.3-1.9 1.3-3 1.4-5.3.5-2.6-1-3.6-.8-7.4 1.5-3.5 2.1-3.9 2.7-2.1 2.7q2.2 0 2.2 2 .1 2 1.3 1.9c1.5-.2 7.7 2.3 7.7 3.2 0 1.4-5.5 4.2-8.3 4.1s-2.8 0-1.1 1.9 1.6 1.9-6.2 1.8c-6.1-.2-9.2.3-13.7 2-3.2 1.3-6.1 2.9-6.4 3.7s-1.1 1.4-1.8 1.4c-1.8 0-5.5 4.8-5.5 7.1 0 2.6-4.9 6.1-7.4 5.3-2-.6-2-.6.2 1.5 2.5 2.5 2.7 3.2 1 4.9-1.4 1.4-2.1 1 8.9 6.7q9.3 4.8 8.6 6.1c-.7 2 3.7 1.8 5.1-.2 1.1-1.4 1.5-1.3 4.3 1 3.7 3.1 5.1 3.2 9.6.6 1.9-1.1 5.1-2.1 7.3-2.3 3.5-.2 3.9 0 4.4 2.8.5 3 .5 3 3.8-2.8 1.8-3.1 3.5-5.7 3.8-5.7s.4 1.6.2 3.5c-.4 3.9-.5 3.9 2.1 2.3s5.1-.3 5.1 2.7c0 2.6.1 2.5 4.6-1.9q7.7-7.7 11-4.4c1.3 1.3 1.3 1.8-.1 4.4-2.8 5.3-1.6 5.3 7.7-.2 9.8-5.8 10.3-6 11.3-4.3q.8 1 2.6-.7c2.3-2.1 3.8-1 2.1 1.6q-1.4 2 .1 2.3c.9.3.7 1.4-.7 4.1-2 3.8-3.6 4.7-3.6 1.9 0-.9-1.3.4-3 3a25 25 0 0 1-4.9 5.9c-1.5.9-1.8 1.9-1.4 4 .5 2.3-.1 3.4-3.3 6.4-2.2 2-3.8 4-3.6 4.6s-.7 3.5-1.9 6.4c-1.8 4.3-2.7 5.4-4.6 5.4-1.2 0-5.6 1.3-9.8 3-7.7 3.1-12.9 3.8-14 2s-2.5-1.1-2.5 1c0 3.1-3.6 9.5-6.5 11.8-1.4 1.2-4 2.4-5.8 2.8s-5.1 2.4-7.4 4.5c-2.4 2.2-5.2 3.9-6.3 3.9s-2.9.9-4.1 2.1c-2 2-2 2.1-.3 4.1 1.4 1.5 2.6 1.8 5.1 1.4 9.7-1.7 9.7-1.7 15.1 1.4 4.4 2.6 5.1 3.4 4.1 4.6q-2.4 2.7-6.5-.1-3.4-2.2-3.4 1c0 .7 1.8 1.5 4.1 1.8 3.7.5 8.9 3.9 8.9 5.8 0 1.6-7.5 3.1-13.1 2.6s-5.9-.4-5.9 1.7c0 2.8 6.1 8.7 11.9 11.6 3.9 1.9 4.2 2.4 2.7 3.2-1 .6-3.3.8-5.2.5s-3.4-.2-3.4.4q.1 2.7-5.7-2.9a18 18 0 0 1-4.6-6.3c-.9-3.6-4.6-7.2-6.6-6.3-6.7 2.8-6.7 2.8-10 .5l-3.1-2.2-3.7 3c-2.1 1.7-4.7 3.1-5.8 3.1-3.2 0-12.3-4.9-13-7-.8-2.4-2.6-3-10.6-3.7q-11.8-1-11.9 2.2c0 .9-1.7 5.6-3.7 10.5-2.9 6.9-4.3 9.2-6 9.6q-2.1.8-2.3 2.4c0 2.8-1.1 5.1-2.1 4.4-.5-.3-.7-1.5-.3-2.7.4-1.7-.4-3.1-3.3-5.9a48 48 0 0 1-10.3-12c0-.5.4-1.8 1-2.8q1.3-2-.8-1.3c-2 .5-4.2-3.1-4.2-6.7q0-2-2-2c-1 0-4-.7-6.6-1.6l-4.6-1.6-2.8 3.4c-2.8 3.3-2.8 3.3-4.9 1.4q-2.1-2-6.9-2a18 18 0 0 1-5.8-.9c-.7-.4-2.6-.2-4.3.4q-3.2 1.2-4.4 0-1.4-1.1-2.5.1-1.1 1.4-2.9-.5c-2.3-2-9.8-2.4-14-.6-3 1.2-3.8 1.1-10-1.8-9.4-4.4-13.6-5-17.3-2.3-1.7 1.2-3 2.6-3 3.3s1.5 2.6 3.3 4.5 2.8 3.6 2.2 3.8l-4.5 2.2c-3.3 1.6-3.5 2-4 8-.7 8.5-3 10.6-10.9 10l-5.4-.5 3.2 2.6c2.9 2.4 4.3 6.1 2.3 6.1-1.2 0-1.2 11.9-.1 12.6.5.3.9 1.6.9 3 0 2.4-1 3.1-6.3 4.8-1.7.6-1.7.9.8 3.7 1.4 1.8 2.4 3.8 2.1 4.5-.7 1.9 2.9 1.8 5.9-.2q2.5-1.7 2.5-4.5c0-2.8.5-2.9 1.5-2.9q1.4-.2 2.5-2 1-2.3 3.3-1.4c3 .9 3.2 1.1 1.7 2.9q-1.2 1.5-.1 1.5c2.1 0 1.1 2-1.4 2.6-3.5.9-6.7 5.7-7.3 10.9-.4 3.9-.1 4.8 2.6 7.5 1.7 1.6 4 3 5.2 3 2.8 0 3.6 2.6 1.5 5-2 2.2-1.3 5.6 1.5 6.3q1.9.4 3.1-.9c1.5-1.9 2.9-.8 2.9 2.2q.2 4.9-7.3 2.3c-6.5-2.1-11.4-.5-10.3 3.4.3 1.1-.3 3.6-1.3 5.6s-2.1 5.3-2.4 7.4c-.5 3.4-.3 3.9 2.1 4.8 3.7 1.5 12-1.2 16.3-5.2 2.6-2.4 3.8-2.9 5.8-2.4 3.3.8 4.7.8 10-.1 3.2-.5 4.5-.3 5.2.7.8 1.2 1 1.2 1.8 0 1.3-2.1 13.8-.6 15.1 1.9 1.8 3.3-2.2 12-5.6 12q-1.3 0-1 3.7c.4 3.9 1.9 5.1 6.9 5.2 5.4.2 1.6 4.4-5.9 6.7-3.9 1.1-5.5 1.2-7.7.3-2.4-1-3.6-.8-7.7 1.1-4.6 2.1-5.3 2.2-9 1-3.5-1.2-4.5-1.1-7.6.3-1.9.9-5.9 2-8.9 2.3-3 .4-5.5.8-5.5 1l1 3c.8 2.1.6 4.1-1.1 9.1-1.6 4.9-1.8 6.7-.9 7.8.6.8.9 2.7.5 4.7-.6 3.3-.5 3.4 9.1 9.6 9 5.8 10.1 6.2 15.5 6.2 3.2 0 6.9-.4 8.3-1q2.8-1 2.6.4c0 2.3-2.3 3.4-9.4 4.4-6.6.9-7.2.8-12.4-1.9q-10.2-5.4-14.7-.5l-2.3 2.5-6.6-2.2c-7-2.2-9.7-1.8-10.4 1.6-.4 1.9 4.6 4.7 8.4 4.7 2.3 0 2.5.3 2 2.5-.4 1.4-.2 2.5.4 2.5q.9.2 1 1.5.1 1.6-2.5.9-2.4-.6-2.5.5c0 2.2-2.1 1-4.1-2.3s-2.3-3.5-8.4-3.8l-6.4-.3 2.1 2.2 2.1 2.3h-2.4c-1.3 0-3.7-.7-5.2-1.5-3.1-1.6-6-.8-7 1.9q-1 2.6 2.2 2.6c.9 0 3.1 2.2 4.9 5 2.8 4.3 4 5.2 8.6 6.5 3 .9 6.3 2.4 7.5 3.4 2.4 2.1 2.8 5.1.7 5.1-.7 0-2.6 1.8-4 4.1-2.5 3.7-2.9 3.9-4.4 2.6-.9-.8-3-1.7-4.7-2.1-2.7-.5-3.4-.1-6.3 3.9q-3.1 4.4-1.6 3.8 1.7-.5 3.1 1.3c1.2 1.6 1.7 1.7 4.6.5 6.1-2.5 7.3-2.4 9.5.4 1.1 1.4 2.2 3 2.4 3.5s2.9 1.9 6 3q10.7 3.8 10.8-2.8c0-4 2.7-7.4 5.2-6.6q2 .6 4.2-1.5c2.5-2.3 5.6-2 5.6.6q-.1 1.6 2.5 1.1c3.1-.6 4.2.7 4.2 5.4l.1 3.8-6.9 2c-6.8 2.1-8.8 3.3-7 4.5q1.8 1.2-2.3 6.7c-2.2 3.1-2.1 3.2 1.2 4.2 1.8.6 2.2.3 2.2-1.3 0-2.7.5-2.7 4.9.8 6.1 4.7 7.8 5.4 11.5 4.1 2.6-.8 3.7-2 5-5.3 2.1-5.5 11.3-16.9 13.3-16.5 2.7.5 3.9 3.4 2.7 6.6-.9 2.4-.8 3.1.5 3.9 1.4 1 1.3 1.2-.9 2.1-2.5 1.1-2.5 1.1.6 1.1l3.1.1-.1-6.2-.1-6.3 4.4-.3c4.9-.4 5.3 1.4.8 3.6-3.6 1.7-3.4 2.9.8 5.3 3.4 2 3.9 3.9.9 3.9q-1.3.2-1.4 2c0 1.7-.5 1.9-2.4 1.4q-6-1.7-2.6 4.6c2.6 5.1 2.5 5.7-1 10.3-3 4.1-3 6.2.1 7.2 3 1 3.9-.3 3.9-5.4q0-4.9 1.9-7.2c1.9-2.4 1.9-2.4 4-.5l2.1 1.9-2.2 2.4-2.2 2.3 2.4 4.3c1.2 2.3 2.6 4.6 3.1 5.1s3.9-.1 7.8-1.3c9.3-2.8 18-3.9 39.1-5 15.4-.8 18.4-1.2 24-3.5 5.5-2.3 6.8-2.4 10-1.5 2.8.8 4.3.8 5.9 0 2.2-1.2 6.1-.7 6.1.8 0 .4-1.6 1.6-3.5 2.7q-3.4 1.8-2.2 2.6c1.2.8.5 1.4-1.1 3-2 2.2-2.1 2.6-.6 4.6 1.8 2.6 2.9 2.7 6.8.7q7-3.8 1.2 2.5c-4.1 4.5-4.5 7.6-1.6 11.3 1.8 2.2 2.7 5.7 1.6 5.7-.2 0-2.7-1.6-5.6-3.5-3.6-2.4-6.3-3.5-8.9-3.5q-3.9 0-2.1 1c.8.5 2.5 1 3.8 1 2.5 0 3.1 3 .8 4.9-1.1.9-2.2.6-5.1-1.4a15 15 0 0 0-6.2-2.5c-2.2 0-2.3.1-.9 1.6 1.5 1.4 2.3 5.4 1.1 5.4q-.6 0-2.5-1.2c-1.6-1.1-2.3-.8-4.8 1.5-1.5 1.5-3.7 2.7-4.8 2.7s-5.3-2-9.4-4.4c-6.6-3.9-7.7-4.3-9.5-3.2-1.1.7-2.1 2.6-2.3 4.2-.6 6.2-3.1 11-6.7 12.7-2 .9-3.8 2.5-4.1 3.4-.2 1-1.8 4.5-3.5 7.7-2.2 4.4-2.7 6.1-1.8 6.7q1.4.6-1.9 3.4c-1.8 1.5-3.2 3.6-3.2 4.9 0 1.2-1.3 4-3 6.2-3.2 4.2-3.9 6.4-1.5 4.4 1.3-1.1 2-1.1 4.1 0s2.9 1.1 5.9-.3q5.6-2.7 7 1.1c.5 1.2-1.3 3.5-6.4 8.2-4.1 3.8-7.1 7.3-7.1 8.4s-.7 2.8-1.6 3.8c-1.4 1.5-1.5 2-.3 3.4 1.2 1.5 1.1 1.9-.9 3.2-1.2.8-2.2 2.3-2.2 3.3s-.9 2.1-2 2.4c-1.6.5-2 1.5-2 5 0 9.3-5.7 16.9-9.8 13.2-2.3-2.1-4.5-2.1-8.1-.2-3.1 1.6-4.6 4.1-3 5.1.6.3-.1 1.6-1.6 2.9a8 8 0 0 0-2.5 5.5c0 2.7-.3 3-3.1 3-2.2 0-4.3 1.2-8.2 4.9a61 61 0 0 1-8.4 6.5c-1.8.9-4 3-4.8 4.6q-1.5 3-8.8 6.6c-7.2 3.7-9 5.1-8.1 6.6 1 1.6 5.3.8 6.5-1.3.9-1.8 1.7-2 5.4-1.4 3.6.5 5.3.1 9.5-2 3.7-1.9 6-2.4 8.1-2 2.4.5 2.9.3 2.9-1.2q0-1.8-1-2.9c-1.9-1.9.7-3.1 8.7-4.1 5.3-.7 9.5-1.9 11.8-3.3 3.6-2.2 3.6-2.2 1.7-4.4-3.6-4-3.6-4.6.2-4.6 3 0 3.5.3 3.8 2.7q.2 2.9 3.9 4.8l9 5.2c3 1.8 6 3.3 6.7 3.3s5.3-2 10.2-4.5 10-4.5 11.2-4.5c1.9 0 1.5.7-3.1 5.4-5.6 5.7-5.9 7.6-1.2 7.6 2.3 0 3.2-.7 4.5-3.4.9-1.9 1.6-3.9 1.6-4.5q.1-1 7.6-1.1c7.4 0 7.6-.1 12.5-4.2 2.7-2.4 4.9-4.9 4.9-5.6s.7-1.5 1.5-1.8c.7-.3 2.2-2.7 3.1-5.2 1-2.6 2.8-6 4.1-7.5 1.3-1.6 2.3-4.1 2.3-5.6s.8-3.5 1.8-4.3c2.6-2.3 11.9-6.8 12.6-6.1 1.2 1.2.6 3.3-1.3 4.9s-1.8 1.7.7 3.9 2.6 2.3.9 4.8a15 15 0 0 0-1.7 6.6v4l6.1-2.1 6.2-2.1 6.3 2.3c3.4 1.2 9 2.4 12.3 2.7 3.5.3 6.1 1.1 6.1 1.7s-3.2 2.1-7.2 3.4c-6.6 2.1-7.2 2.1-8.9.6-1.6-1.5-2.3-1.5-8.8 0-3.8.9-8.6 1.6-10.5 1.6-3 0-4 .6-6.5 4.1-1.7 2.2-3.1 4.5-3.3 5.1s-2 .3-4.5-1c-4-2.1-4.1-2.1-5.8-.2-.9 1-4.9 3-8.9 4.4l-18.4 6.5a79 79 0 0 1-13.7 4.1c-3.2 0-5.5-1-5.5-2.4q.2-1.2-6.7-.8c-5.8.3-7.1.7-8.9 2.9s-2.3 2.3-3.1.9c-.7-1.3-1.5-1.4-4.7-.5s-4.8.7-9.6-1.1c-3.6-1.3-6.7-1.9-8-1.5-2.9.9-5.8 7.5-6.6 15.1-.9 7.5-1.7 9.1-5.8 10.8-1.9.8-4.4 2.4-5.6 3.6s-6.1 4-10.7 6.2c-7.6 3.6-8.8 3.9-11.4 2.8-2.4-1-3.3-1-5.4.4q-7 4.5 6.4 5.9 10 1 8.6 7.2l-1.3 8c-.5 2.7-1.3 6-2 7.2-1.7 3-1.5 3.5.8 2.8q3.7-1.1.3 2.7c-2.2 2.4-1.6 2.8 5.1 3.2 4.2.2 6.2.8 8.1 2.6 1.4 1.3 2.5 2.6 2.5 3s-2.5 1.4-5.5 2.5c-5.1 1.7-5.7 1.7-7.2.3-1.4-1.5-1.9-1.3-6 1.8a16 16 0 0 1-6.6 3.4c-7 0-15.1-5.1-18.4-11.3l-1.5-3.1-2 2.7c-2.6 3.6-9.7 7.7-13.3 7.7-1.6 0-3.6.7-4.6 1.6-2.8 2.5-4.3.7-2.1-2.4a8 8 0 0 0 1.4-6.5c-.5-4.3-1.9-4.7-5.1-1.3q-2.1 2.3-4.5 1.9c-2.3-.5-9.6 3.3-11.1 5.7-.4.6-3 2.2-5.8 3.5-2.9 1.3-4.4 2.4-3.4 2.4q3.4.2-.3 3.6c-2.3 2.1-2.6 4.1-.8 4.8s-.4 4.1-2.9 4.5c-2.2.3-6.8-4.9-5.5-6.3q.5-.5-2.1.6c-3 1.4-3.2 2-1.6 3.6.9.9.8 1.8-.5 3.7-.9 1.5-2 2.6-2.5 2.6s-.5 1.6.1 3.6.7 4.7.4 5.9q-1.5 5.7 7 2.8c4.4-1.4 5-1.9 4.6-3.8q-.4-2.4 1.8-3.5c1.9-1 2.6-.8 4.9 1.3 1.4 1.4 4.4 2.8 6.6 3.2l4 .6-3-1.7c-4-2.2-4-2.1-2.5-3.9 1.7-2.1 5.3-1.9 7.5.5 1 1.1 3 2 4.5 2s3.3.7 4 1.5c1.6 1.9 2.9 1.9 5.2-.2 1.6-1.4 2.2-1.4 4.3-.3s2.7 1.1 4.2-.2a59 59 0 0 1 20.3-5.3c.6.4 3.2-.2 5.8-1.3a42 42 0 0 1 22.6-2.2c2.7.8 4 .9 5 .1 1.6-1.3 2.7-.4 1.9 1.5q-.6 1.3-2.5 1.4c-1.6 0-1.9.5-1.6 2.5.5 2.3.2 2.5-3.4 2.5q-3.8 0-7.8 2.6c-2.2 1.5-4.6 2.4-5.4 2.1q-1.6-.4-4 2.4c-2 2.3-2.4 3.5-1.6 4.9s.5 1.9-1.3 2.4c-1.2.3-5.3 2.8-9 5.5-5.8 4.3-7.1 4.8-8.7 3.8-2.8-1.7-15.4 2.5-17.7 5.9q-1.6 2.4-3.1 1.9t-2.9 1.5c-1.4 1.9-2.1 1.9-2.9 1.6-2.5-.9-6.4 1.5-6.4 4 0 2.4-2.1 4.5-2.8 2.6-.5-1.5-3.2-.3-3.2 1.4q.1 1.3 2.5 1.4 2.3.1 2.5 1c0 .6 2.7-.4 5.9-2.2 5.5-3.1 8.2-3.4 6.6-.8a30 30 0 0 1-6.7 4.1c-5.6 2.8-5.9 3.1-4.4 4.8 2.1 2.3 2.3 6.9.2 5.2-1.1-.9-2.9-.4-8.4 2.4a36 36 0 0 1-9.6 3.5c-2.7 0-3.5 1.4-1.5 2.6.6.3.9 1.7.6 3.1q-.5 2.6.9 1.9c.8-.3 2.6-.1 4 .5 2.6.9 2.7 1.1 2.2 7.9-.5 6.5-.4 6.9 1.3 5.9 3-1.6 8.9-7.8 8.9-9.4 0-.8 1.1-2.2 2.5-3.1 2.2-1.4 3.2-1.5 6.5-.5 7.2 2.1 9.3 9.1 4.4 14.2l-2.7 2.8 6.6 3.2c6.2 3.1 6.8 3.2 10.6 1.9 2.3-.7 4.1-2 4.4-3.1.4-1.4 1.4-1.9 3.9-1.9q3.5 0 8.4-3.5c2.7-1.9 6.4-3.8 8.1-4.1 2.6-.5 3.3-1.1 3.3-3 0-1.3.5-2.4 1-2.4q1 0 1 .9c0 .9 1.5 1.5 3.4 2.1 3.1 1 3.7.9 6-1.5 2.7-2.7 4.6-3.2 4.6-1.3 0 .7 1 .1 2.1-1.5 3.6-4.7 9.8-7.6 20-9.1a89 89 0 0 0 12.7-2.7c1.8-.6 3.5-.9 3.9-.6q1.6 1.8-6.4 5.3c-2.9 1.3-5.6 3.1-5.9 3.9-.4.9-3.3 1.9-7.9 2.6-6.8 1.2-7.5 1.5-10.6 5.5-1.9 2.3-5 5-6.9 6l-3.5 1.7 3.3.9c3.5.9 3.8 1.6 2 4.1-1.1 1.4-1.9 1.5-4.7.7-3.7-1-5.1-.6-5.1 1.5 0 .8-1.3 2.1-3 3-2.8 1.5-3 1.4-3-.4 0-1.9-.1-1.9-3.7 0a19 19 0 0 1-5.3 1.9c-1.9 0-6 2.8-6 4.1 0 .5 1.4.9 3 .9 3.6 0 3.6.1.8 4.9-2.3 4-4.9 5.5-11.3 6.5l-7 1.3-2.9.6 3.7 1.4c4.1 1.7 4.3 2 2.3 6.7a10 10 0 0 1-10.1 5.4c-2-.4-2.5-.1-2.5 1.4q0 2 1.2 1.1c1.2-.7 2.5-.9 9.3-1.4 1.1-.1 3.5.5 5.2 1.2 3.1 1.3 3.4 1.2 6.7-2 2.7-2.6 4-3.2 6.6-2.9 3 .3 3.3 0 3.4-2.4.2-3.1 2.6-6 5.3-6.4l11.3-1.3c5.2-.6 9.7-1.6 9.8-2.1q.5-1 2.3-1 2 .1 1.9-2.5c0-3 2.5-3.4 3.3-.4.5 1.7.9 1.9 2.6 1 2.8-1.6 5.1-1.4 5.1.5 0 1.3.6 1.1 3.3-.7 1.7-1.3 4.7-3.5 6.5-5.1s4.2-2.8 5.2-2.8c1.7 0 2-.7 2-5 0-6 1.8-6.7 4.3-1.5 2.2 4.6 6 6.5 8.5 4.2 3.2-2.9 4.2-2.1 4.2 3.8 0 5.3-.1 5.5-4.2 7.9-2.4 1.4-8.1 3.9-12.7 5.6-15.7 5.7-35 17.3-39.9 23.8l-2.5 3.3 5.4-2.1c11.9-4.7 22.1-9.4 26.3-12 2.4-1.6 6.5-3.2 9-3.5 4.5-.7 4.6-.7 4.6 1.9 0 2.2-.4 2.6-2.9 2.6-3.6 0-15.1 9.3-15.1 12.2 0 1.4-2.4 3-9.2 6.3-11 5.2-18.4 10-16.9 10.9.6.4 1.1 2.1 1.1 3.8v3.1l2.5-2.3c2.3-2.2 2.6-2.2 4.3-.7s2 1.4 5.5-2.1c2-2.1 3.7-4.3 3.7-4.9s1.6-1.7 3.5-2.4 3.5-1.9 3.5-2.6c0-2.3 3.3-1.4 5.6 1.4 2.1 2.7 2.3 2.7 4.1 1a9 9 0 0 1 5.1-1.7c2.8 0 3.2-.4 3.2-2.5 0-3.2 2.6-4.4 4.4-2 1.1 1.5 1.7 1.6 5.5.4q7.7-2.2 4.5-6.7c-1.8-2.6-.8-2.9 1.8-.5 1.4 1.2 2.1 1.4 3 .5 1.6-1.6 4.8.4 4.8 3.1a9 9 0 0 1-1.5 4.3q-2.6 4 2.2 2.3c4.8-1.7 3.8-.7 2.2 2-1.7 2.6-.7 3.6 2 2.1 1.8-.9 2.1-.8 2.1.9q-.2 1.8-2 2.6c-2.1.7-2.6 2-1.2 2.9.5.3 3.2-.6 6.1-2 4.6-2.1 5.1-2.6 4.1-3.9-1.7-2.1-.4-3.2 2-1.7q2 1.4 2.3-.1.4-1.3 1.8-.1c.8.5 2.6 1.5 4 2.1 2.5 1.1 2.9.9 5.8-3.2 1.7-2.4 3.4-5.7 3.7-7.4.8-3.7 2.4-4.1 2.4-.7 0 3.2 2 3.8 4.9 1.5 2.3-1.9 2.3-2 .5-3.4-1-.8-2.2-1.5-2.6-1.5-.5 0-.8-1.4-.8-3v-3l5.1 3.5c5.2 3.6 6.9 4.2 6.9 2.6q-.2-1.3 10.1-2.7c3.1-.5 3.9-.2 6 2.3 2 2.4 2.8 2.8 4.2 1.9q1.8-1.2 2.6.2c.8 1.4 1.9-.2 4.5-4.5 3.3-5.2 3.6-6.3 3.1-10.3l-.7-4.5 3.5 4c3.2 3.7 3.7 3.9 5.7 2.7 1.9-1.2 2.5-1.1 4.5.8 1.3 1.2 2.9 1.9 3.5 1.5s1.7 0 2.3.8c.7.9 2.4 1.9 4 2.3 2.4.5 2.7.3 2.7-1.9 0-1.4.7-3.3 1.6-4.2 1.3-1.2 1.4-1.9.4-3s-1-1.8 0-3c.7-.8 1-2.5.6-4-.5-2.1-.3-2.5 1.5-2.5 1.2 0 2.7.8 3.4 1.7 1.2 1.6 1.8 1.6 5.9.5 7-1.8 8.4-1.6 10.6 2 2.1 3.4 2.8 3.2 1-.3-.9-1.5-.5-3 1.7-6.8 2.3-4.2 2.5-5.2 1.4-6.5-1.5-1.8-4.4-2.1-7.1-.6-2.6 1.4-5.8-1.6-6.6-6l-.6-3.5 2.9 3.4c2.6 2.9 3.3 3.3 6.2 2.6q3.1-.6 4.6.5 1.6 1.3 1.5.1c0-2.2 2.9-1.1 5 1.9 1.2 1.7 2.8 3 3.6 3 2 0 1.8-.8-1.3-4.8l-2.6-3.5 2.9.7c1.6.4 3.7.7 4.7.7q1.5.2 1.8 1.7 0 1.6.6.4.5-1 2-1.2c.8 0 2.6-.9 4-2s3.5-2 4.7-2c3.5 0 7.7-5.1 8.3-10.1.3-2.4 1.4-6 2.4-8l1.8-3.7-2.5-.6c-1.9-.5-2.4-1.1-1.9-2.6.5-1.7.2-2-2.4-2-3.3 0-3.6-.5-2.3-4.2.5-1.3.6-3.4.2-4.8-.5-2.1-1.1-2.4-4-2.2-4.8.3-5.8-.6-5.2-5l.4-3.7 3.3 2.4c3.4 2.7 7.1 3.3 7.8 1.2q.4-1.3 1.7-.1t.1 1.8c-1.3.9-1.5 9.2-.2 10 .5.3 2.5-.1 4.5-.9 3.9-1.6 12.2-2 13-.6.3.5-.8 1.4-2.4 2.1q-3 1.2-3 3.5c0 1.3-.7 2.6-1.6 2.9-1.3.5-1.4.9-.4 2.1.7.8 1 2.2.6 3-.4 1.2 0 1.4 2 .9a14 14 0 0 1 6.5.6c3.8 1.3 4.1 1.2 6.8-1.4 2.3-2.2 4.5-3 11.7-4.1l9.9-1.5q.8-.2-.7-1.4c-2.4-1.8-2.2-5 .5-8 1.8-2 4-2.8 11.1-4 4.9-.9 9.1-1.7 9.3-2 .3-.2-.9-1.5-2.7-2.7l-3.1-2.3 5.3-4.7 5.3-4.6-1.1-5.2c-.6-2.9-.7-5.4-.3-5.7 1.3-.7 3.9 3.8 3.9 6.8 0 3.1 2.5 3.8 6 1.6 1.6-1 2.5-.9 4.9.5 4.5 2.7 6.1 2.2 6.1-1.7 0-4.5 1.6-5.6 10.1-6.8 8.7-1.3 10.9-3.1 10.9-9 0-2.4.7-4.9 1.7-6 1.4-1.5 1.4-1.8.1-1.8-2.1 0-9.8-5.8-9.8-7.4 0-.7 1.9-2.6 4.1-4.1l4.2-2.7 2.3 2.8q2.4 3.2 2.4 1.2c0-1.9 4.6-5.8 6.8-5.8a40 40 0 0 0 8.4-3.5c3.7-2 8-3.6 9.5-3.6l18.6-.2 15.9-.2 2-2.8c1.1-1.5 2.8-2.7 3.9-2.7q1.8 0 1.3-1.5-.8-1.6 2.2-1.5c3.4.1 7.5 2.7 5.8 3.8-.6.4-1.3 2-1.6 3.5-.5 2.3-.3 2.7 1.1 2.1.9-.5 3.7-.8 6.2-.9 4.3 0 4.9-.3 8.3-4.8s3.6-5 2.1-6.8c-1.4-1.5-1.5-2.4-.6-5 1.6-4.7 1.4-6.8-1.4-10-1.3-1.6-2.2-3.6-1.9-4.4q.8-1.6-2.1-1.5c-2.6 0-2.7-.1-1.2-1.8q1.8-1.7 1.1-5.3c-.5-2.7-.1-3.8 1.7-5.4l2.2-2-.6 2.3-1.3 4.1q-.6 2 2 3.6c2.6 1.6 2.6 2.6 2.6 4.6 0 2.1 1.4 4.3 5.1 8.1 5.5 5.8 8.7 10.8 6.8 10.8q-1.1 0-.5 4.2c.4 2.3.8 4.4 1 4.6.7.6 9.4-5.8 10-7.4 1-2.6.7-5.2-.6-5.7-1.6-.5 3.7-8.5 6.7-10.1a14 14 0 0 0 3.2-2.6c.9-1.2 1.4-1.3 2.5-.2 1 1 1 1.6 0 3-6.9 9.6-6.8 10.4.9 8.4 7.8-1.9 11.6-.8 18.7 5.4l5.3 4.7 7.2-2.2c4-1.1 8.2-2.1 9.5-2.1q2.2 0 2.2-2c0-2.5.5-2.5 4.7.1l3.5 2.2 3-3.2c3.6-3.9 5.6-2.5 3.2 2.2-1.7 3.2-1.7 3.4 1.1 3.9 1.6.2 2.1-.4 2.5-3.9.4-2.3 1.8-5.9 3.3-7.9 2.8-4 2.3-6.6-1.2-5.7q-1.7.4-5-3.3c-1.7-2.1-3.1-4.4-3.1-5s-2-2.5-4.5-4.3c-3.4-2.4-4.6-4-5.1-6.8-.6-3-1.3-3.8-4.5-5.1-2.2-.8-3.9-1.8-3.9-2.2 0-1.5 6-7.1 6.9-6.5.6.3.8 1.9.5 3.4-.7 3.3 1 4.9 3.1 3.1 1.5-1.2 7.5-1 10.8.5 1.7.7 1.8.4 1.2-3.9-1.1-6.8 1-11.3 13.2-28.3 14.7-20.7 14.3-19.5 11-29.6a55 55 0 0 1-2.7-11.3c0-3.6 2.4-8.8 8.3-18.4 4.5-7.2 4.7-7.7 4.7-15.2 0-8.7 2.3-14.5 8.5-20.8a83 83 0 0 0 11.6-25.8l1.3-4.4-3.9-3.2-3.8-3.2 1.1-10.3c1.8-15.1 1.5-19.8-1.4-26.6-1.4-3.3-2.8-6.9-3.1-8-.2-1.1-1.9-6.4-3.6-11.9l-3.1-9.9 2.1-3.9q2.2-4 1-4.3-12.7-4.4-14.8-6.6c-2.5-2.5-3.5-6.9-1.8-8 1.1-.6.9-1.3-.9-3.2-3-3.2-2.9-5.1.4-4.3 2 .5 4-.3 9.4-3.9l6.9-4.6-2.8-6.1c-2.5-5.3-3.4-6.4-6.7-7.5a18 18 0 0 1-5.3-2.8c-1.3-1.3-1-1.7 2.3-3 2.3-1 5-1.4 6.6-1 2.2.5 3.1.2 3.9-1.4 1.9-3.6 1.3-4.1-4.8-4.1-3.3 0-6.2-.4-6.5-.9-.7-1 3.4-2.8 8.7-3.7 5-.8 6.7-2.7 6.7-7.2-.1-5.3-1.9-7.8-7.9-11.5-3-1.8-6.1-4.6-7-6.2s-2.6-4.3-3.7-5.7c-3.6-4.6-5.8-14.2-5.9-25.8 0-8.2.4-11.2 1.8-13.8 1.4-2.5 1.5-3.2.4-3.2-2.1 0-4.7-3.4-4.7-6.2 0-1.4.6-4.4 1.4-6.6 1.3-3.7 1.3-4.2-.3-5.6a8 8 0 0 0-4.7-1.6c-4.2 0-10.4-4-12.5-8-2.1-3.8-2.6-14.4-.9-15.5.6-.3 1-1.8 1-3.2s1-3.3 2.5-4.5q4.4-3.7-1.6-3.8-5 .1-1-3.4c1.4-1.3 2.4-1.4 4.5-.6 1.5.5 3.8 1 5 1s3.1.9 4 1.9a43 43 0 0 0 17.4 7.1c1.5 0 4.4-1.2 6.5-2.6l3.8-2.5-2.3-2.9c-1.3-1.6-2.9-2.9-3.6-2.9-.7-.1-6.6-5.3-13.1-11.6L813.3 341l-1.7 2.5c-1.8 2.7-4.5 3.2-6.4 1.3q-1.3-1.5-1.2 1.8c0 6.5-9.3 10.6-14.6 6.5l-2.6-2.1-3 2.5c-2.4 2-4 2.5-8.7 2.5-4.5 0-6.2.4-7.6 2-2.7 3-5 2.4-9-2.2-2.6-3.1-3.4-4.9-3-6.3.4-1.1.9-4.3 1.1-7a35 35 0 0 1 2.6-9.6c2.7-6.1 1.6-9.6-3.8-12.6-4.8-2.8-5.1-2.8-5.9-.3q-1.5 4.6-10-1.9a20 20 0 0 1-8-10.8 26 26 0 0 0-5.8-9.5l-3.2-2.6 1.8-3.1c1.6-2.8 1.6-3.3.2-6.8-.9-2.1-2.7-4.9-3.9-6.3a34 34 0 0 1-4.4-6.5c-2.2-4.5-5-7.3-10.2-10.4-5.5-3.3-7.3-2.8-12 3.6a53 53 0 0 1-14.3 14.9c-1.5.8-2.5 2-2.1 2.5s-.3 2.4-1.4 3.9l-2.1 2.8 3.5 3.7c4.3 4.6 7.1 9.8 5.5 10.3-1.4.5-1.4 2.9 0 3.4q1.3.3 0 2.5c-1.4 2.7-4.7 3.8-6.6 2.3-2.2-1.8-7.2.6-9.1 4.3a19 19 0 0 0-1.6 7.6c.1 6.1-3.3 12.2-7.3 13.5-1.7.5-4.1 1.4-5.4 2-2 .9-2.6.8-3.9-1.2-.8-1.2-2.2-2.2-3.2-2.2s-3.2-.5-4.9-1.1c-2.5-.9-3.1-1.6-2.8-3 .9-3.5-2.9-2.1-5.7 2.1q-4 6-6.2 2.9-.8-1-4.4-.5t-5.6-.9c-1-.8-2.9-1.5-4.1-1.5-2.4 0-6.3-4.3-6.3-7q0-3.2-5.3-4.5-2.6-.8-3.3-3c-.5-2-1.6-2.5-7.6-3.5-6.2-1.1-7.4-1-10.2.5q-9.6 5.2-11.3-15.5l-.6-7.9-5.1-1.5c-6-1.8-8.7-4.3-11.6-10.9-1.6-3.7-2.6-4.7-4.5-4.7-1.6 0-4.2-2.1-8.8-7.3-9-10.1-13.9-16.8-13.3-18.2.2-.7-.8-1.8-2.2-2.5-3.1-1.4-3-1.5 6.9-4.4 8.4-2.4 12-5.3 15.6-12.6 3.8-7.5 6.2-9.1 10.1-6.8 3.6 2.1 13.1 3.8 15.6 2.8 2.6-1 5.9-4.6 7.9-8.5 1.6-3.2 5-6 11.2-9.3 6.1-3.2 6.6-3.7 5.9-5.5-.5-1.5-.8-1.5-3.1.3-3.3 2.6-3.8 2.6-9.5-1.1-3.7-2.4-5.2-2.9-6.1-2-1.9 1.9-4.6 1.2-6.1-1.8-.9-1.6-2.4-3.1-3.5-3.4-2.6-.6-4.8-4.4-5.4-9.3-.4-3.9-.3-4.2 2.2-4.8 1.5-.3 3.8-2.2 5.5-4.5 1.6-2.2 3.6-4.3 4.4-4.6s3.8 1 6.6 3c2.8 1.9 5.7 3.5 6.3 3.5.7 0 3.4-1.3 6-2.9 2.7-1.6 7.2-3.9 10.2-5.1 4.6-1.8 6.1-1.9 10.9-1 3 .5 5.7.8 5.9.6s-.1-1.5-.7-3c-2.3-6.2-1.4-8.5 6.4-16.6 8.5-8.7 9.5-11.5 7.7-21-1.5-7.5-.8-10 3.4-12.8 3.4-2.2 3.5-2.3 3.5-9.3 0-7.8 1.4-11.5 6.3-16.7 2.4-2.5 3.9-3.2 6.8-3.2 2.1 0 4.1-.5 4.4-1q.7-1.2 2.1.1t1.4-.9a4 4 0 0 1 2-3.2c1.2-.6 4.1-4.4 6.7-8.3 2.5-4 5.7-8.5 7.2-10.1a110 110 0 0 1 25.2-16.4c1.3-1 4.3-2.6 6.7-3.7 4.9-2.1 7.3-4.9 6.5-7.4q-1.5-4-7.6-4.1c-2.4 0-5.1-.8-7-2.2-1.8-1.3-3.8-2.2-4.5-2s-4-1.1-7.3-2.9c-6-3.2-11-8.4-12.3-12.7-.9-2.9-14.8-10-22-11.2-2.8-.5-6.1-1.2-7.3-1.6q-2.1-.5-2.3-.1"/><path d="M232.4 294.4c-4.3 2-5.2 2.9-5.8 5.7q-.6 3.2.4 3.7t1 2.2c.1 1.7.7 2 1.5 2.4 2.3.9 1.8 2.5-2 5.9-2.9 2.5-3.5 3.8-3.5 7 0 3.9 0 3.9 3.1 3.3l4.1-.6q.8-.2.6-2.8c-.2-2.2.1-2.7 1.7-2.5q6 .8 2.7-3.2l-2-2.6 2.4-2.6c2.3-2.5 2.5-2.5 3.8-.8 1.3 1.8 1.4 1.8 2.5-.1s1.1-1.9 2.6 0q1.4 1.8 1.5.7c.1-1.1.8-1.1 2-.8q1.9.7 3.5-2.6c2.1-4.3 1.9-5.3-1.5-6.7-1.6-.7-5.1-2.8-7.7-4.6-2.7-1.9-5-3.4-5.3-3.3-.3 0-2.8 1.1-5.6 2.3m-11 38.3c-.9 2-1.8 5.1-2.1 6.9-.5 2.9-.2 3.4 2.7 4.9 5.5 2.8 8 .2 3.9-4.1-2.4-2.5-1.9-6 .6-5 1.7.6 1.9-.3.5-3.8-1.4-3.7-3.8-3.2-5.6 1.1m3.7 34.4c-2.1 2.8-2.7 3.1-6.5 2.6-2.2-.3-4.8-.8-5.7-1.1-2.2-1-8.5 7-6.9 8.8 1.2 1.5 8 1.1 11.4-.6q2-1.2 2.8.6c.8 1.5 1.2 1.5 3.5-.4 1.9-1.5 3-1.7 4.4-1 2.6 1.5 5 5.2 4 6.4-1.2 1.5-2.3 8.1-1.5 8.9q.7.5 1.9-1c1.7-2.3 4.3-1 6 2.9.7 1.8 2.5 4.4 4 5.8 2.2 2.1 2.8 2.2 3.6 1 .5-.8.7-2.7.5-4.2-.3-1.4.1-3.9.8-5.5.8-1.5 1.6-4.3 2-6.2.5-2.7.3-3.2-.9-2.7l-3 1.2c-1.2.5-1.5-.4-1.5-4.8 0-4.8.3-5.5 2.5-6.4l2.4-.9-2.7-3.3-2.7-3.2-4.3 2.1-4.3 2.2-2.3-2.2c-3.1-2.9-4.8-2.6-7.5 1m11.7 52.5c-2.7 1.3-4.8 2.9-4.8 3.4 0 1.7 11.1 1.2 13.1-.6 1.8-1.6 1.7-1.7-.5-3.5-2.9-2.3-2.1-2.3-7.8.7M213 493q.1.9 1 1 1-.1 1-1t-1-1a1 1 0 0 0-1 1m73.2 68.3c-2.6 1.5-3 2.2-2.1 3.3.6.8.8 2.1.5 3-1 2.5 1.2 4.4 5 4.4h3.4v-5.5c0-6.8-1.8-8.2-6.8-5.2M376 592q-1.3 1-.3 1c.6 0 1.5-.5 1.8-1q1.3-1.8-1.5 0m-106.9 1.7c-1.9.4-.8 1.1 5.2 3.8 4.2 1.8 10.1 4.6 13.1 6.4 6.9 3.9 7.7 3.9 4.1.1-2.3-2.4-2.6-3.2-1.6-4.4 1.9-2.2-5.9-4.4-10-2.9-2.7 1.1-3.1.9-4.1-1.3-1.1-2.4-1.9-2.6-6.7-1.7m31.5 14.8q-3.1 4.7.2 4.5c2.3 0 5.2-3 5.2-5.3 0-2.6-3.5-2-5.4.8m9.4 8q.1 1.3 1.4 1.5c.7 0 1.9-.7 2.6-1.5 1.1-1.3.8-1.5-1.4-1.5q-2.5 0-2.6 1.5M177.3 909.1c-2.4 1.7-4.3 3.8-4.3 4.9 0 1.6.8 1.5 8.3-1.7 4.5-1.9 8.9-4.1 9.7-4.9 1.2-1.2.7-1.4-4-1.4-4.5.1-6.3.7-9.7 3.1"/></svg>