<svg xmlns="http://www.w3.org/2000/svg" width="1365.333" height="1365.333" viewBox="0 0 1024 1024"><path d="M647.3.7q-1.2.5-1.3 2.2a8 8 0 0 1-1.5 3.7 36 36 0 0 0-2.8 16.2 31 31 0 0 1-1.1 9.1c-.9 3.8-1.6 8.3-1.6 9.9q0 2.8-2.9 5.6a14 14 0 0 0-3.5 5.1c-.5 2-1.2 2.2-6.5 2.1-5.7-.1-6.1.1-9.3 3.7-3.2 3.7-3.5 3.8-10.8 4-7 .2-7.5.1-7.8-2-.2-1.2-1.2-2.5-2.3-2.8-1-.4-2.5-1.8-3.2-3.2-1.4-2.5-1.5-2.5-12.7-2.4-6.2.1-12.1.6-13.1 1.2s-6.5 1-12.3 1.2-10.7.5-11 .7c-.2.3-1.8 8.2-3.5 17.5a142 142 0 0 0-3.1 29.2c0 9.7-.4 13-1.9 16.5-3.8 8.7-9.6 11.7-15 7.7-2.3-1.7-3.7-2-6.4-1.5-5.1 1-6 3.8-5.2 16.6.7 10 .6 10.9-1.8 15.6-2.5 4.9-3.8 13.4-5.7 35.4-.5 5.2-1.7 12.4-2.8 16-4 13-6.2 22.1-6.2 25.9 0 2.1-.9 6.4-2 9.7a619 619 0 0 0-9 33.5c-7.2 28.6-13.9 51.3-16.4 55.2-.8 1.2-2.8 7.3-4.5 13.5-1.9 6.9-5.4 15.8-9 23-3.2 6.4-6.1 13-6.5 14.5-.3 1.5-3.3 8.8-6.6 16.3s-6 14.1-6 14.8-2.7 5.1-6.1 9.7-6.5 9.5-7.1 10.9-3.9 6.9-7.5 12.3a39 39 0 0 0-5.9 11.2c.2.7 3 3.2 6 5.4 3.1 2.3 6.3 5.5 7.2 7.3l1.6 3.1-6.7 6.1a253 253 0 0 0-18.2 17.6c-1.2 1.4-5.1 5.3-8.7 8.8-9.2 9-11 13.2-10.3 23.7l.6 8.4-7 6.3-12 10.8-5 4.5 5.6 16.5c3 9.1 9.2 28.6 13.6 43.5 7.3 24.1 9.4 29.7 20 52.8 10.2 22.5 12.3 27.8 15.4 40.4a95 95 0 0 1 3.5 22.1c0 7.5.1 7.9 4.5 14.3l4.5 6.6-2 5.9a20 20 0 0 0-1.4 10.7c.6 4.7.8 5 8.2 9.7l7.6 4.8 15.9 45.4c11.7 33.3 16.1 47.2 16.6 52.3a418 418 0 0 0 20.7 66.5c2.9 4.8 3.4 6.4 3.4 12 0 4.7.6 7.4 2 9.8 2.8 4.5 2.8 13.9 0 17.4-1.9 2.5-1.9 2.5.8 12.9 2.8 10.8 7.3 19.9 9.7 19.9.7 0 3.1-2.6 5.2-5.7s5.3-6.4 7.3-7.5c3.2-1.6 3.4-2.1 3.1-6.1a28 28 0 0 1 4.5-14.8 54 54 0 0 0 6.4-24.7c0-4.3.4-8.2.9-8.8a111 111 0 0 0 8.2-22.3 57 57 0 0 0 2.9-21.7c0-10.5.3-12.8 2-15.7a39 39 0 0 0 3.1-11.8c1-7.9 1.4-8.9 7.5-18 9.2-13.8 9.7-17.1 5.3-32.4-3-10.5-3.2-11.8-2-14.8.8-1.8 1.6-5.5 1.8-8.2.3-2.8 1.2-5.7 2-6.7s2-3.6 2.7-6c1.1-3.7 1-5.5-.6-12.8-3.3-15.2-3.5-16.4-2.3-19 2.5-5.2 9.3-29.7 9.9-35.4.5-4.6 2.3-9.1 8.1-20.5 8.9-17.6 10.3-20.9 12.1-28.4a30 30 0 0 1 7.2-14.9c2.1-2.3 2.4-3.3 1.9-7-.4-2.6.1-6.9 1-10.8 1.4-5.7 2.4-7.2 7.4-12.1l5.7-5.6.4-7.9c.3-6.6.9-9.1 4-15.4 3.9-8 6.8-14.8 6.8-16q-.2-.6-2.5-.2c-6.1 1.1-9-1.7-11-10.9-.4-1.9-2-6.1-3.6-9.5-5-10.6-3.5-16.9 4.1-17.6q3.6-.2 3.1-1.8c-.2-.8-.6-4.3-.9-7.8-.4-5.6-.2-6.6 1.9-8.8 2.2-2.4 2.3-2.5.6-5.4-1.4-2.3-1.5-3.4-.7-5 1.1-2.1.5-6.3-1.5-9.5-2.3-3.8-2.5-15.6-.4-23.6l1.9-7.7c0-.1-1.1-.2-2.4-.2q-2.6 0-8.3 5.4c-3.2 2.9-7.4 6.1-9.3 7.1s-4.7 3.2-6.3 5a74 74 0 0 1-22 15.3c-5.3 2.1-7.6 2.4-25.9 2.7-14.8.2-21.8.8-26.7 2-6.5 1.7-6.8 1.7-11.2-.2-3.8-1.7-4.7-2.7-5.3-5.3-1.2-6.3-.6-9.2 4-17.8a75 75 0 0 0 8.4-32.6c0-5.3.3-6.2 3.5-9.7 1.9-2.1 3.7-5.1 4.1-6.6l.9-3.8c.1-.6 5.3-3.6 11.4-6.8 8.4-4.4 11.1-6.3 11.1-7.8 0-1.2 1.3-2.7 2.9-3.7 1.7-.9 3.4-2.6 4-3.8q1-2.1 3.6-2.2a9 9 0 0 0 5-2.2c2-1.9 3.6-2.3 11.4-2.5 5-.1 9.4-.5 9.8-.9.4-.3-.6-1.9-2-3.4-1.5-1.6-2.7-4-2.7-5.3 0-3.8-2.7-5.6-11-7.3a45 45 0 0 1-12-4.4 49 49 0 0 0-9.4-4.2c-5.2-1.4-5.1-1.5-8.2 3.6-.8 1.4-2.7 1.9-8.4 2.2-8.3.5-10-.6-10-6.3 0-4.1 1.6-5.8 7.3-7.9l4.7-1.8v-4.9c0-4.6-.2-5.1-3.6-7.1l-3.7-2.1.7-6.1 1.7-11.6c.5-3 1.2-8.2 1.5-11.5.5-5.5.4-6.4-1.9-9-1.9-2.4-2.3-3.5-1.6-5.3a5 5 0 0 0-.2-4.3c-.6-1.2-.8-3.7-.4-5.8.5-2.9.3-4-.9-4.4-1.9-.8-4.6-7-4.6-10.8 0-2.1 1-3.6 3.6-5.6 7.3-5.6 9.5-7.9 10.3-11 .8-2.6.5-3.7-1.6-6.6-2.5-3.5-2.5-3.7-1.2-10.4 1-5.2 2-7.5 4.3-9.6 2.4-2.3 3-3.8 3.4-8.5.2-3.1.8-6.2 1.3-6.8s1.1-3.7 1.5-6.9c.9-7.2 5.2-12.5 11.9-14.8 2.6-.9 5.8-3.1 7.6-5.2a77 77 0 0 1 16.4-12.5c.4 0 3.2 2.3 6.3 5.1 5.3 4.9 5.6 5 9.6 4.2a85 85 0 0 1 22 .1c3.7.9 6.6 8.2 6.6 16.6v6.8l13.2 4.2c9.1 2.9 13.7 3.9 14.7 3.3a21 21 0 0 0 3.3-7.9c1.5-5.7 1.8-9 1.2-19.2l-.6-12.4 3.3-3.4 3.4-3.5-1.9-3.2a44 44 0 0 1-4.3-14c-.5-2.6-.3-2.8 2-2.2 3.2.9 7.2-1.7 8.5-5.4.7-2.1 2.2-3.3 5.5-4.6 3.4-1.3 4.5-2.2 4.5-3.8 0-1.2.5-4.4 1.2-7 .9-3.7.9-7.1 0-15l-1.7-16.6c-.3-4.5-1.2-7.5-2.9-10.1-2-3.1-2.3-4.2-1.5-6.4.6-1.4 1.8-9.8 2.7-18.6 1.6-15.5 1.6-16.1-.4-22.5-1.5-5-1.7-6.5-.6-6.5q1.3-.1 1.9-4.8c.3-2.6 1-7 1.5-9.7 1.2-6.1 2.5-20.4 2.2-22.5-.7-3.3-.5-7.6.2-9.2 1.1-2.5-2.4-2.8-5.7-.5-2.8 1.9-2.8 1.9-5.1-.2-1.2-1.1-2.9-2.1-3.8-2.1q-3 .1-4.5-5.9c-.9-3.5-1.8-4.3-4-3.4"/></svg>