<svg xmlns="http://www.w3.org/2000/svg" width="1365.333" height="1365.333" viewBox="0 0 1024 1024"><path d="M795.7 6.9c-6.4 3.8-13.9 7.6-16.5 8.6S763 22.2 749 28.2C709.6 45.1 692.9 50 675 50c-7 0-8.5.4-14.2 3.4-16 8.4-37.7 23.3-77.8 53.1a1174 1174 0 0 1-37 26.7c-13.8 9-18.4 13.1-24.3 22A91 91 0 0 0 504 201a147 147 0 0 1-11.6 46.1 34 34 0 0 1-7.3 8.8c-3.6 3-6.8 7.3-11.4 15.4a226 226 0 0 0-27.7 71.2c-7.5 30.6-9.7 36.2-19 50-2.6 3.8-6.9 11.3-9.6 16.5-5.4 10.6-8.5 14.4-35.9 44.5-35.6 39-38.4 42.3-42.7 51.3-4 8.3-4 8.4-13.6 14.6-19.6 12.7-47.7 28.6-50.5 28.6-.8 0-2.9-1.1-4.5-2.5a14 14 0 0 0-3.8-2.5c-.5 0-2.2 3.2-3.7 7-2.5 6.2-3.3 7.2-7.1 8.8-3.9 1.8-12.4 11.2-20.5 23-3.1 4.4-3 5.8 1.3 18.1s4.4 15.2 1.1 22.3A25 25 0 0 0 235 633c0 3-.7 9.8-1.5 15-2.1 13.1-7.2 21.4-22.7 37.6a132 132 0 0 0-13.3 15.5c-1.4 2.6-1.6 5.1-1.3 12.3.5 11.5 2.8 16.7 10.2 23.9 5.3 5.1 5.6 5.7 5.6 10.3 0 2.7-.9 8.6-2 13.2l-2 8.3 3 6.2 3 6.2-4 15.9a115 115 0 0 0-4 22c0 5.4-.4 6.7-3.6 11.1-8 11-15.3 22.7-16.5 26.2-.6 2.1-2 6.1-3.1 9-1.8 5-1.9 5.1-4.7 4-4-1.5-6.8-.4-13.8 5.2-4.5 3.7-6.3 5.9-6.8 8.3-.9 4.3-3.5 8.4-10.6 16.9-7.8 9.4-8.8 15-3.8 22.1 1.9 2.6 2.6 2.8 8.7 2.9 8.8 0 13.4 1.6 14.6 5.1.7 2 .5 3.3-.7 5.2-1.7 2.5-2.6 2.9-9.9 4.1-3.2.5-4.1 1.3-7.1 6.8a47 47 0 0 1-15.4 18.5c-7 4.8-9.5 7.6-11.3 12.2l-4.2 10.3c-3.9 9.1-3.6 13.3 1.2 16.3 7.4 4.7 9.8 7.5 12.2 13.7l2.4 6.2 4.5.3c2.5.2 6.8-.1 9.5-.5 3.8-.7 4.9-1.3 5.1-2.8l.8-7.6.6-5.6 11.4.1c10.8.1 11.4 0 14-2.4a39 39 0 0 0 9.1-18.4c1-4.1 2.2-6.6 3-6.6s4.4 1.6 8.1 3.6c5.1 2.7 7.5 3.4 9.7 3 6.6-1.3 7.1-4.7 2.5-16.2a36 36 0 0 1-2.7-10.3c.3-2.7 0-2.7 9.3-1.8 1.8.2 2.1-.5 2.5-6.5.4-5.7.9-7.2 3.2-9.5 2.7-2.6 3.2-2.7 19-3.6 28.1-1.5 33.3-.4 36.4 7.3 1 2.4 4.1 6.1 8.3 9.8 3.9 3.5 7.5 7.7 8.6 10.2 1.8 4 1.8 4.3.1 9-4 11.2 2.4 18.3 21.2 24 4.1 1.2 8 1.9 8.8 1.6 2.2-.9 4.4-6.9 4.4-12.2 0-9.3 5.7-16 20.8-24.6 12.4-7 15.7-7.6 26.1-4.3 8.5 2.7 15.6 7.3 18.1 11.8 1.3 2.4 1.3 3.3-.3 9.4q-3 11.6-13.6 29.2c-2.8 4.6-5 8.6-4.8 8.7.3.4 18.4 4.4 19.6 4.4 1.7 0 6.4-7.6 17.1-27.5 5.6-10.5 12.3-22.6 14.8-26.9l4.6-7.9-2.5-1.9a122 122 0 0 1-16.9-17.2c0-2.8 10.5-16.8 18.2-24.2 10.4-10 20.7-17 35.2-24l11.1-5.4h17.3c19.4 0 20.5-.3 26.5-6.9 2.9-3.2 3.9-5.5 5.3-12.2 1-4.5 2.7-9.6 3.9-11.3s5.7-5.3 10.3-8l8.2-4.8v-7.7q.1-12.2 4.6-17.2c6-6.7 22.8-9.7 33.9-6.1 4.4 1.5 6.5 1.7 8 1 1.1-.6 6.5-5.4 12-10.7C621.3 791.7 626 788 634 784c9-4.5 19.8-11.8 21.6-14.6 2.5-3.8-.8-9.4-11.9-20.4-6-5.8-9.7-10.2-9.7-11.5 0-5.5 8.3-18.8 17.1-27.6 8.7-8.7 10.2-9.3 23.3-8.5 10.3.6 11.7.5 19.1-1.9 13.5-4.4 31.5-15.1 31.5-18.6 0-3.9 6.8-9.1 15.7-12.2a88 88 0 0 0 12.7-5.7c4.3-2.7 5.2-4.4 9-15.5.2-.6 3-4.4 6.3-8.5 12.2-15.5 14.9-21.1 12.5-25.7-.6-1.1-4.6-6.2-8.8-11.4q-12.9-15.7-14-26.5c-.5-4.3 0-5.9 3.4-12.9 4.3-8.8 10-16.8 14.8-20.9 1.8-1.4 6.9-4.3 11.5-6.4 14.8-6.8 20.3-16.2 24.9-42.2 2.8-15.6 5.4-20.5 20.4-38 15.7-18.3 18.2-22.4 19.6-31.8 1.3-9.5 3.7-13.2 16.9-26.2 12.1-12 17.5-18.4 19-22.3.6-1.5 1.9-7 3-12.2 2.2-10.9 4.4-14.5 10.5-17.3 3.1-1.5 4.7-3 5.5-5.3q2.4-7.2-.9-13.8c-5.1-10.1-19.2-16.4-49.4-22a35 35 0 0 1-20.9-9.3l-2.8-2.3-2.5 3.3q-2.6 3.3-5.2 3.2c-4.4 0-15-6.9-23.7-15.5l-8.2-8-3.6-15a321 321 0 0 1-8.2-46c-1.7-20.4 6.1-56.1 18.6-85.1 7.2-16.7 9.7-24.5 11.4-34.9C815 78.6 818 39.1 818 21V3.4l-3.5-1.7c-2-.9-4.3-1.7-5.3-1.7s-7 3.1-13.5 6.9"/></svg>