<svg xmlns="http://www.w3.org/2000/svg" width="1365.333" height="1365.333" viewBox="0 0 1024 1024"><path d="M498 1.4c-5.9 1.3-11 3.6-12.7 5.8-.6.7-1.3 2.8-1.6 4.5l-.6 3.3 5.7-.5 13.3-.9c4.1-.3 9.9-1 12.7-1.7 5-1 5.2-1.2 5.2-4.4s-.3-3.4-6.2-5.4c-7-2.4-8.1-2.4-15.8-.7m-62.5 5.5c-6.5 1.1-10.3 3.9-35.2 25.7-7.3 6.4-8.6 9.8-5.4 14.3l2.1 3 7.8-5.6c4.5-3.2 8.4-6.9 9.5-8.9q1.7-3.4 4-3.4c2.9 0 16.9-8.5 22.4-13.7l4.2-3.8-1.9-4.3c-1.1-2.3-2.3-4.1-2.7-4.1zm138.9 12.5c-2.6 1.1-3.2 2.1-3.8 5.7-.8 4.9-.8 30.2 0 32.3 1.3 3.3 7.9 6.4 14.9 7.1a151 151 0 0 1 17.2 3.2l10.2 2.5 9.6 10.4 9.6 10.4 1.4 11.7c.8 6.5 1.5 13.7 1.5 16 0 3.9.3 4.4 6.6 9s6.9 5.4 13.1 17.6a207 207 0 0 1 10.9 27.3 59 59 0 0 0 10.2 22.3c5.3 7.4 6.5 8.4 17.8 15 6.6 3.9 15.9 8.9 20.5 11.2s11.3 6.3 14.9 8.9a35 35 0 0 0 10.3 5.5c3.2.6 4.6 1.8 8.8 7.4a61 61 0 0 0 14.7 13.3c5.3 3.7 12.3 9.4 15.5 12.5 5.6 5.7 5.8 6.1 10.3 20.3 5.8 18.6 5.1 17.2 12.6 26.5l6.5 8.1.8 10.6c.5 8.5.3 13.2-1.5 24.4a153 153 0 0 1-17 54.4 281 281 0 0 1-37.1 55 592 592 0 0 0-19.3 26.3c-9.1 13-13.1 19.8-17.8 30.4-5.2 11.8-6.8 14.3-11.8 19.2s-6.3 6.8-9.8 16.1c-3.9 10.3-4 10.7-3.3 19.9l.6 9.5 5.5 3.3c4.7 2.8 6.4 3.3 12.1 3.3h6.6l8.5 9.2c9.5 10.4 9.8 11 12.3 30.4 1.4 10.9 1.6 11.3 9.5 26l8.1 14.9-.7 5.9c-.6 5.6-.4 6.5 3.5 14.5 2.2 4.7 4.5 10.4 5.1 12.7.9 3.8 11 17.3 13.5 18.1.6.2 1.9-1.1 2.9-2.8 1.8-3.1 1.8-3.1-1.4-9.5a23 23 0 0 1-2.8-6.9c1.1-1.2 6.2 1.8 11.2 6.5 4.2 4 6.2 5.1 9.8 5.6 7.2 1 7.3 1.1 2.9 11-3.7 8.1-4.2 8.9-6.8 8.9s-2.8-.3-3.1-4.3c-.2-2.3-.7-4.2-1.2-4.2s-2.3 2.1-4 4.6c-2.8 3.9-6.2 6.4-8.9 6.4-.5 0-1.4-1.3-2.1-3-2.2-5.2-6.5-3.6-9.9 3.7a14 14 0 0 1-5.6 6.7c-1.8 1-6.9 5.3-11.2 9.6-6.6 6.5-8.5 7.9-12.1 8.5-2.4.4-4.6.4-4.9.1-.8-.8 8.5-10.9 14-15.1 2.6-2 4.7-4 4.7-4.5s1.8-2.5 4-4.6 5.5-6.8 7.5-10.5c3.2-6.1 3.4-7 2.3-10-.6-1.9-1.9-4.4-2.8-5.6-1.6-2.1-1.8-2.1-3.3-.5a42 42 0 0 0-4.5 7.9A86 86 0 0 1 736 746c-.5 0-5.8 4.7-11.8 10.5-12.1 11.5-14.2 15.3-14.2 24.7 0 4.5-.6 5.7-5.7 12.4-5.4 6.9-6 7.4-9.6 7.4-4.4 0-4.8 1 4.5-12.3 6.6-9.3 6.9-9.9 6.6-14.8l-.3-5.1-9 8.1c-7.7 6.9-9.5 8.1-12.6 8.1q-3.6 0-5.5 2.1a85 85 0 0 1-22.7 16.5c-3.4 1.4-9.4 4.1-13.3 6.1l-7.1 3.6-4.3 14.6c-2.4 8.3-5.7 17-7.5 20.1-1.8 3-4.5 8.9-6 13-2.5 7.2-3.1 8-11.1 14.9-4.7 4-9.3 9-10.4 11.1-2 3.9-6.3 20.2-10 38-1.2 5.8-3.9 16.3-6.1 23.5-3.8 12.7-3.8 13.1-2.4 17.9a24 24 0 0 1 .9 13.3c-.5 1.9-1.3 2.3-4.5 2.3s-3.9.3-3.9 2c0 1.8-.3 1.9-2 .8s-1.9-2-1.4-6.8c.4-3 1.3-6.5 2-7.7.8-1.2 1.4-3.6 1.4-5.3 0-3.6-2-3.9-7.5-1.3l-3.5 1.7v27.2l-3.1 3a30 30 0 0 0-4.9 6.4c-2.2 4-2.2 3.9-2-8.5.1-5.8.6-8.8 2-11 1.6-2.7 1.7-3.4.5-6.2l-1.4-3.3-4.3 1.9c-3.1 1.3-5 3-7.1 6.5l-2.7 4.8 2.1 3.8c1.9 3.3 2 4.2.9 7.4a18 18 0 0 0-.6 7.2c.5 2.6.4 3.4-.8 3.4-.8 0-1.8-1-2.1-2.1q-.7-2.5-1.6-.8a8 8 0 0 0-.9 3.6q0 2.3-2.9 3.7c-3.2 1.7-4.1 1.3-4.1-2.1q0-4.4-8.7-.3l-4.3 1.9v-4c0-3.3.6-4.7 3.1-7 2.8-2.6 3-3.2 2-6-.8-2.4-.7-3.7.6-6.2l1.6-3.2 1.5 3.3c.9 1.7 1.9 3.2 2.3 3.2.8 0 1.9-3.7 1.9-6.8 0-1.9.5-2.2 4.5-2.2 5.3 0 5.8-1.5 2.2-6.4-10.7-14.2-12.2-25.1-9.2-67.1.8-11.6 1.9-22.6 2.3-24.5 1.2-5.9.5-24.1-1.1-28-2.5-6-2.9-12.3-1.3-20.7.8-4.3 2-14.3 2.6-22.3s1.6-16.7 2.1-19.4.9-8.9.9-13.7a36 36 0 0 1 2-14.1c1.5-3.9 2-7.7 2-14.6q0-9.4 2.1-17.5a58 58 0 0 0 2-14.6c-.2-5.7.2-6.8 2.7-10 4.2-5.3 4.1-5 5.2-15.7a251 251 0 0 1 2.7-18.1c1.5-7.9 1.5-8.7-.5-18.5-1.1-5.7-2.3-16.2-2.7-23.3-.9-18.6-2.1-29.4-5-43.6-1.4-6.8-2.5-15.2-2.5-18.6 0-5.9.1-6.2 2.8-6.8 6.3-1.3 11.2-16 11.2-33.6 0-10-.4-12.6-2.5-18.4a70 70 0 0 0-6.7-12.7c-5.1-7.6-7.8-19.5-10.2-44.3l-2.2-23.3c-.8-8-3.3-11.3-10.1-13a50 50 0 0 1-11.5-5.6q-19-12.8-33.3-10.1c-3.9.8-13-2.4-22-7.7-28.8-16.9-41.9-28.2-53.3-45.8-17.2-26.3-35.5-45.9-46.4-49.6q-5-1.6-4.8-3.4c0-2.5-9.5-10.1-15.2-12.3-4.1-1.6-4.8-2.4-7.9-9-3-6.4-3.8-7.3-7-8.1-2.7-.7-4.3-2.1-7.2-6.5-2.1-3.1-5.1-7.2-6.7-9.1s-5.6-8.4-8.8-14.4l-5.8-10.9 1.3-8a47 47 0 0 1 14.2-30.1q14.1-15.2 16-25c2.4-12.7.6-19.2-4.2-14.9-3.2 2.9-5.2 3.3-24.6 4.3l-17.3.9-7.7 7.4a56 56 0 0 1-23.4 14.7 76 76 0 0 0-17.3 10.7c-5.3 4.1-10.8 8.2-12.4 9.2s-6 4.7-9.9 8.3c-6.7 6.3-7.1 6.9-7.1 11 0 3.1 1.1 6.2 3.9 11.1 3.4 6.1 4.9 7.6 14.7 14.5l10.9 7.8 2.7 9.9c2.6 9.7 2.8 10.1 8.5 15.3 7.1 6.4 25.1 18.9 43.2 29.9l13.5 8.3 9.5 12.2a356 356 0 0 0 45 49.8c29.1 27.4 32.8 30.3 45.9 36.9a99 99 0 0 0 17.2 7c10.5 2.2 21.9 6.2 36.2 12.5 7.9 3.5 16.1 6.9 18.3 7.6 7.3 2.4 19.9 9.1 28.9 15.3l8.9 6.2 10.4 17.9c9.5 16.3 10.6 18.5 11.7 25.6 1 6.4 1.8 8.5 4.4 11.4 3.1 3.6 3.2 3.9 3.2 13 0 5.1-.5 13.1-1.1 17.7-1.1 7.9-1.4 8.7-5.9 13.9-4.4 5.1-4.8 6-5.4 12.5-.3 3.8-1.4 11.9-2.2 18l-1.7 11 3.2 15.7c1.8 8.6 4.9 20.8 7 27.1 3.8 11.2 3.9 11.7 3.1 20.8-.8 9.5-5.8 31.6-12.9 57.4-3.7 13.2-4 15.2-4.7 33.5-.5 10.7-.7 28.3-.6 39 .2 11.8-.1 20.9-.8 23-.5 1.9-1.7 9.1-2.6 15.9-1.5 12.2-1.5 12.9 1.1 33.4a183 183 0 0 1 2.2 34.1c-.8 23.1-4.6 58.4-9 84.4l-4.3 25.4 9.1 5.3a45 45 0 0 0 30.3 7.1c8.6-.7 9.3-1.1 15.8-10.2 3.4-4.8 5.1-6.4 7.6-6.9a26 26 0 0 0 15.9-10.6c4.1-6.5 10.9-11.9 14.8-11.9 2.6 0 3.3-.6 4.6-3.6.8-2 2-6.6 2.6-10.2 1-5.8 1.7-7.3 5.5-11.2 3.9-4.1 4.3-4.9 3.8-8.1-.5-2.7.3-6.4 2.9-14 1.9-5.7 4.9-15.6 6.7-21.9 3.5-12.9 4.2-14.1 19.1-33.5a157 157 0 0 1 24.7-26.4c9.7-8.5 14.3-13.2 14.7-15q1.8-7.9 14.9-14c8.9-4.1 13.5-7.8 39.7-31.7 21.7-19.8 25.3-22.1 41-26.7a113 113 0 0 0 27.5-11.8c8.9-4.8 16.9-10 19.7-12.8l4.9-4.6-.7-7c-2.4-25.2-5.2-29.6-45.4-70.4l-12.4-12.6-8.7-17.3a118 118 0 0 1-10.5-24.8 129 129 0 0 0-3.6-13.2 41 41 0 0 1-1.9-12.8q0-7.3-1.9-12.1a40 40 0 0 1 1.7-26.3 45 45 0 0 0 3.2-11.4 21 21 0 0 1 3.9-10.1q3.1-4.4 3.1-7.8c0-3.1 1.3-4.9 11.9-15.9A119 119 0 0 0 778 480c3.5-6.9 18.2-26.8 20.7-27.9 1.3-.6 4-3.7 6-6.8 3.6-5.5 3.8-6.2 4-14.8l.2-8.9 4.1-2.4c5.1-3 7.7-8 9-16.9.5-3.7 1.8-9.3 2.9-12.5 1.6-4.6 1.7-6.4.9-10-.5-2.3-.7-7.7-.3-11.8 1.1-13 .5-29-1.1-32.3a12 12 0 0 1-.9-7.7c.6-4.2.2-5.6-3-12.1a80 80 0 0 0-18.2-24.2c-2.3-1.6-4.4-3.9-4.7-5.1-.3-1.3-2.3-5-4.4-8.2l-7.3-11.7c-2-3.5-5.6-7.5-9-10.2-3.2-2.5-7.7-7.3-10.2-10.8s-6.6-8-9.1-10.1a35 35 0 0 1-8.8-11.9 78 78 0 0 0-12.3-16.7c-4.4-4.7-9.2-9.9-10.6-11.7a91 91 0 0 0-26.2-16.8c-2.9-.9-7.4-1.9-10.2-2.2a15 15 0 0 1-9.4-4.5 24 24 0 0 0-5.2-3.8c-.5 0-.9-1.3-.9-2.8 0-3.5-18.6-50.3-27.3-68.4-3.9-8.3-7.3-14-8.6-14.7-1.7-.9-2.1-2.1-2.1-5.9 0-4.1-.6-5.5-4.5-10.4a37 37 0 0 0-10.3-8.9 91 91 0 0 1-12.7-9.8 274 274 0 0 0-17.3-14.4c-7.2-5.5-10.8-8.9-11.8-11.3-.8-1.9-1.5-3.4-1.7-3.4z"/></svg>