<svg xmlns="http://www.w3.org/2000/svg" width="1365.333" height="1365.333" viewBox="0 0 1024 1024"><path d="M21.4 73.8a57 57 0 0 0-4.8 8.8c-.4 1.3-3.7 3.7-8.6 6.4-5.9 3.2-8 4.8-8 6.3 0 1.1 1.3 6.3 2.9 11.6l3 9.6L6 146c.2 27.7.1 29.8-1.9 34.7l-2 5.1 5.6 4.3c6 4.6 15.7 16.1 17.3 20.5a170 170 0 0 1 1.7 22.7l.6 20.2 4 7.3a38 38 0 0 0 10.2 12.5l6.3 5.2L49 286c.7 4.1 2.4 10.3 3.7 13.7 2 5.1 3.2 6.6 6.6 8.6a59 59 0 0 0 26.6 7.5l10.4.7-5.3 6.9-5.3 6.9.6 11.7.5 11.8-4.5 4.3a73 73 0 0 0-16.9 25.8c-1.6 5.7-2 6.2-5.4 7.1-2.1.6-4.2 1.6-4.8 2.3a61 61 0 0 0-3.2 19.1c0 3.8-.6 5.6-3 8.6q-8 9.9-3.4 20.8c1.2 3.2 2.3 4.1 5.3 5.1 2.2.6 4.6.9 5.4.5 1.2-.4 2.4 1 4.5 5.3l7.1 12.8c3.5 5.9 4.1 7.8 4.1 12.5 0 5 .3 5.9 3.2 8.7 1.8 1.7 6.6 5.2 10.6 7.6 4 2.5 8.5 6.1 10.1 8.1s6.4 6.2 10.5 9.2c6.3 4.6 9.3 6 17 8.1 8.8 2.4 9.6 2.8 12.3 6.7a66 66 0 0 1 5.8 11.1c1.6 3.8 4 8.6 5.5 10.5a64 64 0 0 1 10.3 19.3c1.5 5.5 1.5 6.4-.4 16-1 5.6-2.2 16-2.5 23.2l-.5 13 6.3 3.1 6.3 3.1 1.5 8.9a44 44 0 0 0 11.8 23.9c4.3 4.8 24 20.5 25.7 20.5.7 0 2-1.8 2.9-4 1.2-3.1 2.3-4.2 4.4-4.6 2.5-.5 3-1.2 4-6.4.9-4.1.9-6.6.2-8.6-2.2-5.6 5.1-6.2 11.7-.8 3.7 3.1 4.6 4.6 6.5 11.1 1.7 5.8 2.8 7.8 4.8 8.8 1.4.7 3.6 2.5 4.9 3.9s2.9 2.6 3.5 2.6 2.9 1.4 5 3l4 3 3-2.9c5.2-4.8 10.9-8.1 14.2-8.1 3.9 0 9 6 10.8 12.8 1.4 5.3 12 20.6 16.4 23.6 4.1 2.7 6.7 7.3 9.7 16.7l2.6 8.4 9.8 8.5c9.7 8.4 9.8 8.6 10.9 14.5a151 151 0 0 0 6.8 19.5l8.6 20.8c2.7 6.5 3.9 8 12.1 15.2l9.2 8h9.2c9.3 0 9.4 0 20.1 5.4 5.9 3 13.7 7.6 17.4 10.3a28 28 0 0 1 10.8 13l4.2 8.1 6.1 1.7c17.5 4.7 29 9.1 32.6 12.3q3.5 3.3 2.4 3.8-1.2.7 3.8 6.3l5 5.8 9.2-1.5c12.6-1.9 23.8-1 28.7 2.2a47 47 0 0 0 23 6.3 35 35 0 0 0 19.8-9.7c3.1-3.7 3.7-4 8.5-4q14.6 0 20-10.6c1.4-2.7 3.2-3.6 16.4-8.4a468 468 0 0 0 20.2-7.7c8.7-3.8 13-3.2 25.2 3.2l10.5 5.4 6.1 10.3a48 48 0 0 1 6.8 15.3q1.6 12 14.8 33.5l8.3 13.5 13.4.5a64 64 0 0 1 16.5 2c2.3 1.1 7.9 1.5 23.5 1.6 23.8.1 31.7 1.4 38.8 6.4 4.1 2.9 4.6 3 5.5 1.5q4.6-8.1 12.5-4.1c6 3 23.5 4.9 41.7 4.4 17-.5 17.4-.5 20.5-3.1 1.7-1.5 3.6-2.7 4.1-2.7s2.6 1.6 4.7 3.5c3.3 2.9 4.8 3.5 10.8 4.1a72 72 0 0 1 13.6 3c3.7 1.2 7.5 2 8.5 1.8s6.1-.9 11.3-1.4 11.1-1.2 13-1.6l3.5-.6.2-10.6c.3-12.1 2.6-29.2 4.9-36.7.9-2.8 3.9-9.7 6.7-15.5 6.2-12.8 15.4-23.4 21.5-24.5a66 66 0 0 0 19.2-10q5-3.4 10.5-4c5.2-.7 5.9-1.1 11.1-6.9 8.1-8.8 9-12.6 5.7-22-2.4-6.6-5.7-8.6-14.3-8.6-10.9 0-10.7.1-11.4-9.8-.9-13.4-8.8-42.3-12.3-45.4a45 45 0 0 0-20.8-7.6 70 70 0 0 1-23-8.1c-16-8-22.5-13.8-29.7-26.8-3-5.4-6.4-12-7.4-14.6-2.1-5.4-6.7-9.7-17.9-16.9a41 41 0 0 1-9.8-8.5l-2.8-4 1.9-4.9c8.5-21.6 11.6-28.1 15-31.8 10.2-11.2 12.9-15.7 15-25.6a68 68 0 0 0 2.3-28.2c-1.8-9.5-5.5-15.4-12.1-19.3-5.4-3.3-5.6-3.3-12.2-2.3-6 1-7.1.9-12.3-1.2-7.8-3.2-16.8-10-18.5-14-1.4-3.3-1.5-5.6-1-23.6.2-9.3 0-10.6-2.8-17-7.1-16.3-11.2-27.7-11.2-31.4 0-4.7 2.1-15.1 5-24.4 2.3-7.4 2.1-15.4-.5-18-.7-.7-3.7-1.6-6.6-1.9-2.9-.4-5.6-1-5.9-1.4-.4-.5-1-6.7-1.4-13.8l-.6-13 9-4.8 9-4.8v-8.2c0-7.7.3-8.9 5.2-20.2l5.3-12-.3-17c-.1-9.4.3-22.4.9-29 .9-11.1.9-12.3-1-16.5a100 100 0 0 1-5.3-27.5l-1.3-11-4.5-1.2c-2.5-.6-9.1-1.2-14.7-1.2L819 248l-9.7-5.2c-5.4-2.8-12-6.8-14.8-8.8a103 103 0 0 0-24.4-13 45 45 0 0 1-10.6-5.5 36 36 0 0 0-9.2-16.6c-5.3-5.6-5.4-5.6-13.6-6.8a52 52 0 0 0-21.1 0c-3.9 1-5.3.7-14.7-2.5-5.7-1.9-18.5-5.8-28.3-8.6l-18-5.2-10-9.4-10.1-9.5-13.5.5c-17.8.7-18.7 1-19.9 5.4-.6 1.9-2.3 4.8-3.7 6.4-2.5 2.5-3.4 2.8-9.3 2.7-3.6 0-8.2-.6-10.1-1.3-2.7-1-4.9-1-11 0-13.3 2.3-14.3 2.8-22.2 11.5a177 177 0 0 1-36.6 29.6c-3.1 1.4-9.9 3.6-15.1 4.9a44 44 0 0 0-10.5 3.4c-1.6 1.6-.7 7.8 1.9 13 1.4 2.7 3 8.1 3.6 12 1.3 7.9.9 9-4.2 9-1.4 0-5 .7-7.9 1.6a34 34 0 0 1-13.7.9c-4.6-.4-8.3-1-8.3-1.4s3.1-1.3 7-2c7.1-1.3 8.1-2 5.6-4-1-.9-3-.6-8.2 1.3a215 215 0 0 1-36.8 10.2c-5.4.5-10 2-20.2 6.5-12.8 5.8-13.4 5.9-22 5.9a72 72 0 0 1-36.4-8.2c-11-5.9-29-16.8-33.8-20.4a29 29 0 0 1-6.8-10.3c-3.3-7.2-3.9-7.9-7.6-9q-4-1.2-12.7-.6c-8.3.7-9 .6-14.7-2.3a45 45 0 0 0-11-3.7c-4.4-.6-5.8-1.3-10.2-5.8-4.7-4.7-5.5-6.3-9.3-17.7a74 74 0 0 1-4.9-25c-.4-6.9-1.1-13.2-1.4-14-.5-1.1-2.3-1.5-7.5-1.5-6.2 0-7.1-.3-8.9-2.5-1.1-1.4-4.7-3.8-8-5.4s-6.5-3.9-7.2-5.1-3.4-3.3-6.1-4.5-4.9-2.9-4.9-3.5q0-2.4 10.2-8.9l5.8-3.6-3.1-8.3c-2.5-6.9-2.9-9.1-2.4-13.8l.6-5.6-7.1-4.6c-6.3-4.2-7.5-4.7-12.7-4.7a55 55 0 0 0-43.8 26.7c-11 16.3-10 15.4-19.3 16.8-12.4 1.8-30 .3-43.2-3.6l-10.6-3.1-7.9-13.1A401 401 0 0 0 26.2 67c-.4.1-2.6 3.1-4.8 6.8"/></svg>