<svg xmlns="http://www.w3.org/2000/svg" width="1365.333" height="1365.333" viewBox="0 0 1024 1024"><path d="M774.7 169.7a24 24 0 0 1-8.4 10.1c-1.7.9-2.5.6-5.3-2.3-3.6-3.7-6-3.6-6 .2 0 2.2-.2 2.4-1.5 1.3a5 5 0 0 1-1.5-3c0-1-.3-2.5-.6-3.4-1-2.7-4.4 0-4.4 3.4q0 3-1.5 3t-1.5-2.8v-2.7l-2 3.3c-2.4 3.9-2.4 4-.4 4.4 2.5.5 4.3 8.8 4.4 19.4 0 6.9.4 9.5 1.5 10.4.8.7 1.5 2.3 1.5 3.6s1.4 5 3.2 8c2.5 4.6 2.9 6 2 7.5a103 103 0 0 0-5.8 21.4l-.7 4.7-2.2-2.8-2.2-2.8-3.6 2.3q-3.6 2.3-6.1 1.5c-2.5-.6-2.6-.5-2.6 4.5q.2 7.6-3 3.6c-1.8-2.2-2.6-1.9-4 1.5-1.3 3.2-3 3.1-3-.1 0-2.8-2-3.2-8.1-1.6-4.6 1.2-5.4 1.6-5.1 3.5q.4 2.3-1.6 2.2c-1.7 0-2.2-1.1-3.1-6.3-1.6-9.3-2.9-13.2-5.3-16.2-1.8-2.3-2.6-2.6-5.7-2a14 14 0 0 0-5.9 2.8c-1.9 1.8-2.6 1.9-4.3.9-1.7-1.1-2.3-.9-4.4 1.2-2.5 2.5-3.4 6.6-1.5 6.6.6 0 1 1.4 1 3.2 0 2.4-1 4-4.6 7.4-3.5 3.1-4.8 5.2-5.4 8.3-.4 2.3-.3 4.1.1 4.1 1.6 0 .9 3.7-1 5.4-1 .9-2.1 3-2.4 4.6-.8 3.7-3.2 4.9-11 5.7l-6.3.5.4 3.7.3 3.6-2.8-3.2c-1.5-1.8-4-3.5-5.5-3.9-2.6-.6-2.8-1-2.8-5.3-.1-2.5-.6-5.8-1.3-7.3-1.5-3.4-12.6-15-13.7-14.3-.9.5-6-5-6-6.6 0-1.9-4.1-4.9-6.6-4.9-1.4 0-3.8.9-5.2 2.1l-2.6 2-1.9-3.7c-1.7-3.3-2.1-3.5-2.9-2-.9 1.7-1.1 1.6-3.3-.4-1.9-1.7-3-2-5.5-1.5q-3.3.7-4-.5c-.9-1.5-6 6.7-6 9.7 0 1.1.7 4 1.5 6.3s1.5 5.9 1.5 7.9c0 6.2 2.5 13.7 6.4 19.4 3.3 4.8 3.6 5.7 2.5 7.5s-1 2.5.5 4.7q1.8 2.8 2.6 1.5c1.5-2.4 8.3 9.7 10.1 17.9.9 4.3.7 6-1.2 11.9l-2.2 6.8 2.2 9.7c2.6 11.9 2.6 12.7.2 12.7q-3 0-3.1-5.2a18 18 0 0 0-3.3-6.7 20 20 0 0 1-4-10.3c-.3-3.2-1.3-6.8-2.1-8q-1.6-2.3-1.6-8.6c0-5.9-.2-6.4-3-8-2.3-1.3-3.4-3.1-4.9-8.2-2.9-9.2-4.5-11.3-8.5-10.6-2.6.5-3.7.1-5.5-1.8a12 12 0 0 0-5.1-3l-2.9-.5.2-9.3c.2-10.2-1.7-18.8-3.6-16.9-.6.6-3.1 1.1-5.5 1.1h-4.4l2.6-4.4 2.6-4.5-2.5-2.7c-1.4-1.5-2.5-3.5-2.5-4.5 0-1.6-.3-1.7-2.7-.7-1.6.7-3.7 2-4.9 3-2.6 2.3-4.8 2.4-3.9 0l1.8-6c1-3.9 1-4.5-.8-5.8-3.2-2.4-5.5-1.8-5.5 1.4 0 2.9-5.2 11.2-6.9 11.2q-.9-.1-.1-3.1c1.4-4.6-.2-7-4.1-6.2-4.9.9-8.5 5.1-10.2 11.5l-1.5 5.6 3.4 4.8c1.8 2.6 3.1 5.1 2.8 5.5-.6 1.1-4-.5-7-3.3-2.1-1.9-2.1-1.9-2.7.3s-.6 2.2-3.9-.6c-2.9-2.5-3.8-2.7-8.6-2.2a33 33 0 0 0-10 2.9c-5.3 2.6-5 1.3-3.6 17.1.4 5.1.1 8-1.1 11.5l-1.7 4.8 3 5.9c1.6 3.3 3.5 7.9 4.2 10.2 1.2 3.8 1.1 4.5-.4 6.2-1.3 1.4-1.6 2.8-1.1 5.4q.7 3.5-.9 5.9a9 9 0 0 0-1.6 4.5c0 1.3-.9 3.2-2.1 4.4l-2.1 2.1-4.5-4.3-4.5-4.4.7 3.7.7 3.6-5.5-2c-6-2.2-7.7-4.5-7.7-10.6 0-2-1.3-7.3-2.8-11.7-2.5-7.3-3-8.1-7.2-10.5a20 20 0 0 0-6.4-2.5q-1.9.1-3.1-4.1c-.7-2.3-2.5-5.8-4-7.9-2.2-2.7-2.5-3.9-1.6-4.4 1.5-.9.4-3.3-4.8-11.1-1.7-2.5-3.1-5.5-3.1-6.7s-.4-2.5-1-2.8-1-1.6-1-2.9-1.3-3.5-3-5.1-3-3.5-3-4.2c0-2.5-5-2.7-8.2-.3a17 17 0 0 1-6.9 2.7 9 9 0 0 0-5.9 3.1c-1.6 2-2.3 2.2-3.5 1.2-2-1.7-3.8-.4-2.5 2q1 1.7-.5 6.8c-1.4 4.6-1.4 5.3.5 9.3 1.1 2.4 2 5.8 2 7.6a88 88 0 0 0 3.5 14.4c2 6.2 3.5 13.1 3.4 15.3 0 2.3 1.1 7.9 2.5 12.5 3.1 10 3.2 12.6.6 16.9-1.1 1.8-2 4.9-2 7a34 34 0 0 1-4.5 16.4c-1.8 2.8-2.3 4.5-1.9 6.8.8 3.7-1.5 7.4-2.7 4.3a17 17 0 0 1-.8-5.1c-.1-2.7-.5-3.2-2.6-3.2-4.1 0-4.7 3.5-1.3 7.2 1.5 1.7 2.8 3.6 2.8 4.2a29 29 0 0 1-7.6 11.3c-2.3.8-8.2-5.4-9.5-9.9q-1.8-6.5-3.3-1.6-.4 2.6-1.8 1c-.9-.9-.9-3.5 0-12 1.6-14.4 1.5-16.6-.6-18.5-1.7-1.5-2-1.5-4.8.1-1.6.9-6.8 5.7-11.5 10.7l-8.4 9-2.9 12.7-2.9 12.6 3.8 12.9 4.2 14.4c.5 1.8-2.8 3.2-5.3 2.2-2-.8-4.8-6.6-6.9-14.3a83 83 0 0 0-2.8-8.5c-2-3.9-2.5 2.4-1 14 1.2 9.9 1.2 11.4-.3 14.6-.9 2-1.3 4.6-1 5.7s.2 2.9-.5 3.9c-.9 1.5-.6 4.3 1.4 13.2 2.6 11.4 2.6 14.1.2 14.1q-1.3-.2-2-5.3a76 76 0 0 0-7.2-22.6c-3.1-6.8-3.3-7.9-2.4-11.6.7-3 .7-6-.1-10.6-.6-3.5-1.2-7.8-1.2-9.4-.1-1.8-1-3.7-2.2-4.7s-2.7-3.2-3.4-5c-.8-1.8-1.4-3.4-1.6-3.6a48 48 0 0 0-7.7 4.3c-6.6 4-10.7 5.5-10.7 4 0-.3 3.2-4.2 7.1-8.7 9.1-10.6 10.1-12.5 9.7-19.6-.3-5.4-.4-5.7-3.1-6-2.3-.3-3.7.6-7.4 4.7-2.7 3-5.1 4.7-5.9 4.4-2.4-.9-1.6-3 3.2-8.9l4.6-5.6-2.9-3c-2.9-3.1-2.5-3.1-12.8-1.3-4.4.8-9.5-2.6-9.5-6.3 0-1.5-.7-3.8-1.6-5.1-1.6-2.2-1.6-2.4 0-3.3 3.8-2.1 1.1-8.2-5.7-12.5-3.4-2.2-3.8-2.7-2.3-3.5 3.1-1.7 6.9-.5 9.1 2.9l4.9 7.8c3.1 5.1 4.6 5.9 12.2 6.8l5.1.6 1.2-4c.7-2.2 1.9-4.2 2.7-4.5 4.9-1.5 4.9-1.3 1.9-4.4-2.2-2.3-3.1-2.7-4.2-1.8-1 .8-1.8.6-3.3-.7-2.7-2.4-2.5-3.2.9-4 3.7-.8 11.8-6.8 12.5-9.2 2.1-7.5 1.9-7.8-2.6-8.9-4.7-1-5.4-3-.9-2.8 2.3.1 3.1-.5 4.5-3.3 2.1-4.4 2.1-4.6-1-8.3q-2.6-3-3.8-2.2c-.9.7-8.7.9-10.6.3-.3-.1.9-1.3 2.5-2.7 3-2.4 3-2.5.4-1.5q-2.7 1-3.8-.2c-1.1-1.2-2-.6-4.6.6-2 .9-4.2 1.7-5.1 1.7-1.3 0-4.2-4.6-3.3-5.3 1.2-1 20.9-6.7 23.8-6.9l3.4-.3-2.8-3.3c-2.4-2.9-3.3-3.3-5.9-2.7-10.7 2.2-13.6 1.5-13.6-3.1 0-1.2-.5-2.6-1-2.9-2-1.2.3-2.7 3.1-2.1 3.4.7 3.5.3.9-3.9-1.9-3.1-2.2-3.2-5.1-2.2-2.4.9-2.9 1.6-2.4 3.2 1.9 6 1.8 6.5-2.6 10.7-5 4.8-6.4 3.6-2.4-2.2 2.2-3.2 2.5-4.2 1.5-6l-1.2-2.2-1.4 2.1c-2.2 3-2.9 2.7-5.1-2.7-1.6-3.7-1.8-5.2-.9-7.1s.7-2.6-.9-3.7c-1.8-1.3-1.8-1.6-.2-4.9 2.2-4.5 2.1-4.8-.4-4-1.9.6-2.1.4-1.5-1.9q.8-2.8-1.1-3.2c-1-.3-2.6-1-3.7-1.6q-1.9-1-2.6.2t-3.6-2.4c-3.2-4-4.8-4.4-7.6-1.9-3.6 3.2-3.1.2.6-3.6 3.2-3.2 3.6-4.2 2.7-5.8-2.1-4-3.6-4.5-7.6-2.6l-3.8 1.8-2-2.6-1.9-2.7-2.9 3.2-2.8 3.1.9-3.3c1-3.6.5-3.9-2.9-1.6-2.1 1.5-2.4 1.5-3.8.1s-1.4-2.1-.4-4.5 1-3.4-.1-5.1-1.1-2.5.1-4.3c1.2-1.9 1.1-2.3-.6-3.7-1.1-.9-2.7-3.3-3.7-5.4-.9-2-2.3-3.7-3.1-3.7-3 0-6.6-4.6-8.8-11.4-1.2-3.9-2.9-7.2-3.7-7.4q-1.8-.7-.2.9c1.7 1.8 1.5 5-.4 7.8l-1.6 2.3-6.4-6.3c-5.8-5.7-6.4-6.1-6.4-3.9-.1 1.5-1.8 4.4-4.5 7.3l-4.4 4.7-2.1-3.9c-2.9-5.1-12.9-10.3-15.6-8-1.6 1.2-1.7 1.2-1.1-.4q.8-1.8-1.5-1.7-2.4 0-1 1.2 1.8 2-2.6 7.1c-1.4 1.6-1.6 1.6-3.4 0-1.4-1.3-2.1-1.4-3-.5s-.8 1.5.7 2.5c2.1 1.6 1.3 3.7-1.5 3.7q-2 .1-2.2-2.8-.2-2.8-2.5-3c-2.8-.4-2.9.2-.2 4.4q2 3.5 4.5 3.4c2.1 0 2.4.4 2.4 3.8 0 2.1.5 4.3 1.2 5q1.5 1.3-1.7 1.2c-1.7 0-3.8.7-4.9 1.5-1.6 1.2-2.3 1.2-5.7-.6-4.6-2.3-5.1-1.1-1.2 2.6 4.6 4.4 10.1 7.7 12.7 7.7 1.3 0 4.4-.7 6.9-1.7 3.4-1.3 4.6-2.3 5.1-4.3.3-1.5 2.4-4.2 4.6-6 3.5-2.9 4.1-3.1 4.7-1.6q.7 1.8-2 4c-2.7 2.3-3.5 5.8-1.7 6.9 1.6 1 6-2.2 7.8-5.7 2.8-5.1 4.9-6.8 8.7-6.8 4.1 0 4.6 1.6 1 3.2a6 6 0 0 0-3.1 4.2c-.3 1.7-1.3 4.3-2 5.8-1.3 2.5-1.2 2.7 1.8 3.7 5.3 1.9 7.6 1.3 11.9-2.9s5.9-4.4 5.9-.6q-.1 2.4-3.5 5a13 13 0 0 0-3.5 3.5c0 1.8 3.1 2 7.1.6 4.8-1.7 9.5-1.9 10.4-.5.8 1.3-13.3 8.3-15.6 7.7s-2.3-.3-.7 2.3c1 1.5 1 2.2 0 3.2-1.1 1.1-1.9.7-4.1-1.8q-2.8-3.1-6.7-3.8c-2.1-.4-4.7-1.4-5.8-2.2-2.9-2-9-1.7-14.2.6l-7 3c-2.2.9-2.5 1.4-1.9 3.8 1.7 6.9 8.7 14 16.7 16.7a77 77 0 0 1 21.5 11.4c1.8 2.8 7.3 3.7 11.1 1.7 4.4-2.3 5.4-.1 1.6 3.3a17 17 0 0 0-4.1 6.5c-1.1 3.6-1 4 1.3 5.8 3.4 2.7 4.3 4.8 6 13.5.8 4.2 2.1 8.4 2.9 9.3 1.9 2.2 1.9 4.4 0 3.6q-1.6-.7-1.5 2.2c0 4.7-5 13.3-11.9 20.3q-10.5 10.6-15.3 9.7c-1.7-.2-1-1.1 3.6-4.2 10.8-7.4 15.6-15.7 15.6-27.1 0-6.3-.2-7.1-2.2-8-1.2-.6-2.5-2.1-2.9-3.5s-.7-1.9-.8-1.1-1 3.2-2 5.5a59 59 0 0 0-6.1 17.1c0 3-2.6 8.5-4 8.5-1.7 0-1.1-4.3 1.9-14.8 4.5-15.6 4.6-17.4 1.9-23.1-1.2-2.8-2.9-5-3.6-5.1s-2.1-1.8-3-4c-1.3-3.2-2.1-4-3.6-3.6-1.1.3-2.6 0-3.3-.6s-1.3-.9-1.3-.7l-.9 13.1c-.8 11-1.3 13.4-3.6 17.7-4.3 7.7-6 4.6-3-5.3.8-2.7 1.5-6.8 1.5-9v-4.1l-3.8 6.7c-2 3.6-5.4 8.6-7.4 11-3.1 3.6-3.8 4-4.4 2.5q-.7-1.7 3.6-7.3c4-5.3 4.1-5.6 2.5-7.4-1.7-1.9-1.7-3.1.1-10.3q1.5-6.1-4.9 2.6a149 149 0 0 1-7.7 9.7c-6 6.9-5.2 2.1 1.2-7.6 4.8-7.2 5.3-8.4 5.3-13.6-.1-4.1-.6-6.2-1.9-7.7q-1.8-2-2.5-2.1c-.4 0-1.9 2.4-3.3 5.3-2.3 4.8-3 5.4-5.7 5.4-2.5 0-3.1-.4-3.1-2.2 0-1.3 1-2.9 2.2-3.7 1.7-1.2 2.3-2.5 2.3-5.6q.2-6.8-7.5-9.8a12 12 0 0 1-5.1-4.3c-1.2-2.1-3.3-3.4-8-5-7.7-2.6-9.7-2.6-12.9-.1-1.4 1.1-3 2-3.6 2-1.1 0-5.4 4.2-5.4 5.3 0 .4 1.2.7 2.8.7q6.3 0 13.1 8.6c2.3 2.9 4.1 5.5 4.1 5.8 0 1.2-5.5-2.2-10.2-6.3-4.9-4.4-5.8-4.7-8.6-3.1-.9.5-3 1.5-4.6 2l-2.9 1.1 3.3 3.4c1.9 1.9 6 5.4 9.2 7.7s5.8 4.7 5.8 5.2.7 1.8 1.6 2.8c3.2 3.4-1.1 3.1-8.7-.8a70 70 0 0 0-20.3-7.4c-1.2 0-3 1.2-4 2.7-1.7 2.3-1.8 3.1-.7 7.1.6 2.4 2.3 5.9 3.8 7.8 4 5.3 20.2 18.4 22.7 18.4 1.2 0 3.7 1.6 5.6 3.4q3.3 3.6 8.2 4.5c5.5 1.2 16.8 6.6 16.8 8.1 0 1.7-5.6 1.1-8.2-1a20 20 0 0 0-9.3-2.6c-4.9-.5-7.4-1.3-9.6-3.1s-3.5-2.3-6.1-1.8c-2.8.5-4.8-.2-12.8-4.9-5.2-3.1-10-5.6-10.7-5.6-2.4 0-5.3 3.9-5.3 7.2 0 3.9 5.2 14.5 9.8 19.8 4.4 5.2 17.7 10.6 22.5 9.2 1.8-.6 5.9-1.1 9.2-1.2 10.1-.3 10.9-.4 14.2-2.8 3.7-2.6 6-2.3 8.6 1.3l1.7 2.4-3.5.7c-3.5.6-3.5.7-2 3 2.1 3.3.6 3.9-10.5 4-11.7 0-19 1.2-19 2.9 0 1.5 5 5.9 9 8 2.3 1.2 3.8 1.2 8.4.3 3-.7 5.9-.8 6.3-.4 1 1-2.5 3.6-4.9 3.6q-1.6.1-1.8 1.5 0 1.5-3 1.5c-3 0-3 0-1.4 2.6 1.6 2.3 1.6 2.6.1 4.2-1.5 1.5-1.8 1.4-4.1-.7-2.1-2-2.4-2-3-.5q-.6 2-1.8.6c-1.8-1.8-2.4-1.5-3.8 1.8-.7 1.7-2 3-3 3-2.4 0-3.4-5.4-1.6-8.8 1.7-3.2.2-7.2-2.7-7.2-1.5 0-1.8-.5-1.3-2.4.5-2.2-.2-2.8-8.8-7a70 70 0 0 1-12.2-7.1c-2-1.9-3.1-2.2-4.5-1.5q-3.4 2-2.3-.3.7-2-4.6-5.2l-5.8-3.8c-3.3-2.4-4.4-2.7-6.1-1.7q-4 2-.3 13.7c3 9.5 5.2 12 16.9 19.7 7.5 4.9 11.1 8 11.7 9.8 1.4 3.9 0 4.6-3.2 1.6-6-5.7-12.3-8.8-17.9-8.8h-5.2l2.7 4.5c1.5 2.4 3 4.5 3.3 4.5.4 0 3.8 3.1 7.6 6.8 5.7 5.7 7.7 7 11.2 7.6 3.6.6 4.1.9 3.1 2.1-.7.8-2 1.5-3 1.5s-2.3.7-3 1.5-1.6 1.5-2.1 1.5c-1.8 0-8.9-7.3-8.9-9.1 0-1.5-.7-1.9-3.1-1.9-4.2 0-6.5-1.4-13.1-7.8a31 31 0 0 0-11.8-7.8c-5.5-2-6-2-6-.4 0 .9-.9 2.5-2 3.5-1.6 1.4-2 3.1-2 7.5 0 6.2-.8 7.4-5.4 8.6-2.6.6-9.5 6.9-9.6 8.7 0 .4 1.1 1.2 2.4 1.9 1.9.8 3.4.7 6.5-.6 2.6-1 7.7-1.7 13.8-1.8 10.7-.3 14.8 1 18.9 5.9 1.9 2.2 2.4 2.3 4.2 1.2 1.7-1.1 2.4-1 4.7.5s2.5 2.2 1.9 4.9c-1.4 6.3-1.2 7 3 8 3 .7 5.8.5 11.3-.8 7.3-1.7 7.4-1.7 10.4-7.1 2.9-5 3.2-5.3 6.2-4.7 1.8.3 3.4.7 3.6.9s4-1.5 8.4-3.7c8.3-4.2 8.3-4.2 18-1.9 5.6 1.4 7 1 9.2-2.3 1.4-2.3 1.4-2.8 0-6.5-1.5-3.6-1.5-4.3-.2-6.9a19 19 0 0 1 3.6-4.7c2.1-1.9 2.1-1.9 2.1 1 0 4 .9 5 5.7 6.4 3.6 1.1 4.6 1.1 6.7-.3 1.4-.9 2.7-3 3.1-4.9 1.1-5.5 2.6-9.8 3.5-9.8.4 0 1.6 2 2.6 4.4 1.8 4.2 2 4.4 3.6 2.9q1.8-1.7 1.8-6c0-2.3.3-4.3.6-4.3s1.5 1.1 2.6 2.5q3.9 5 3.8-.5 0-5 4.2-1.3c1.7 1.5 2 1.5 4.2-.6 2.1-1.9 2.4-2 3.6-.6 1.1 1.3.8 2.2-2 5.6-3.1 3.9-3.2 4.2-2 8.6.6 2.5 1.9 6 2.8 7.7l1.7 3.1.3-4.5c.2-2.4.8-5 1.3-5.7s.7-3.6.3-7.2c-.3-3.4-.3-6.1 0-6.1 1.6 0 4.5 8.9 4.4 13.4q0 8.7 2.2 3c.9-2.1.8-5 0-10.7-1-7.2-.8-9.7.8-9.7 2.7 0 6.2 13.5 6.2 23.7 0 6.5.5 7.2 4.2 5.2 1.7-.9 1.9-1.7 1.3-5.5-.7-4.9.4-5.8 2.5-1.9q1.2 2.3 2 2.5c.3 0 2.1-2 3.8-4.5 3.2-4.5 5.2-5.1 5.2-1.6 0 1-1 3-2.1 4.5q-3.5 4.5.9 3.2c3.6-1.2 7.1-4.6 9-8.9q1.9-4.2 6-6.5c2.3-1.3 4.2-2 4.2-1.7s-1.4 2.4-3 4.5a54 54 0 0 0-5.5 9.3q-3.8 8.8-9.2 8.7c-3.5 0-10.3 3.1-10.3 4.6q.2 1.3 2 1.4c1.8.1 3.7 1.6 5.9 3.5 2.1 1.9 4.3 3.5 4.9 3.5s1.2.5 1.4 1.2c.6 1.8 2.3.3 6.1-5.5q3.6-5.3 3-7.7c-.5-2.8 1.2-8 2.6-8 .5 0 2 1.7 3.2 3.7s2.5 3.1 2.7 2.5q.8-3.6 7.7 3.9c2.9 3.1 4.5 5.6 4.1 6.5q-.5 1.4.4.9c.6-.4 3.5.4 6.5 1.6l5.5 2.3 3.1-2.3c2.7-2 3.5-2.2 5.7-1.1l2.7 1.2-3.5 2.9a64 64 0 0 1-9.5 5.9l-6 2.9-1.7-2.1c-1.4-1.9-1.8-2-3.3-.8-.9.7-1.4 2.2-1.2 3.2q.5 1.7-.9 1.8t-1.4 1.5c0 .9-1.2 2-2.6 2.5a25 25 0 0 0-5 2.9c-1.3 1.1-3.3 1.7-4.3 1.4-2.3-.6-5.1 3-4.4 5.6.3 1.4-.4 2.1-2.8 3-1.7.6-4 1.1-5 1.1s-3.1 1.2-4.8 2.6c-2.3 1.9-3.8 2.4-5.6 2q-2.3-.5-2.5.3a11 11 0 0 1-3 3.9c-1.6 1.7-3 3.7-3 4.6s-1 1.6-2.2 1.8-3.1 1.8-4.1 3.6l-2 3.3 2.8 2.9 2.7 2.8-3.1 1.8c-1.6 1-2.8 2.1-2.5 2.6.9 1.3 5.3.9 7.9-.8 2.3-1.5 2.6-1.4 6.7 1.9 5.7 4.5 8 5.7 11.8 5.7a22 22 0 0 1 8.1 2.6c5 2.5 5.1 2.5 10.2.8 6.4-2.1 16.1-11.3 17.4-16.5.8-3 1.3-3.4 4.7-3.7 8-.7 10.2 6.9 4.6 16.3-1.6 2.7-3 5.8-3 6.7s-1.1 3-2.5 4.6l-2.4 2.9 2.4 1.1c3.1 1.4 3.2 4.3.2 7.7-2 2.3-2.5 2.5-5.4 1.5-2.3-.8-3.7-.8-5.2-.1s-3.6.7-8.3-.4q-11.4-2.7-12.1-.3c-.3 1-.9 1-2.8.2-1.3-.6-4.9-1.9-8-2.8s-6.2-2.3-6.9-3.1c-1-1.3-1.6-1.2-4.4.2a19 19 0 0 1-9.8 1.6c-6.5-.1-6.8 0-9.8 3.3-3.6 4.1-3.6 4.3-.9 8.9 2.7 4.5 1.7 5.7-1.9 2.2-1.6-1.5-3.3-2.7-3.9-2.7s-2.1-1.4-3.3-3.1c-1.3-1.7-2.8-2.8-3.6-2.5-1.9.7-1.8-1.8.1-3.4 1.6-1.3 2.1-6 .6-6q-.9.1-2.1 1.5-1.3 1.5-3.3.9c-2-.6-2.3-.1-2.8.7-1.4 2.3-1 2.9 1.6 2.9 4.9 0 2.4 3.1-4.6 5.5-2.4.9-5.3 2.5-6.5 3.6-1.9 1.7-2.2 1.8-3.4.4-1.9-2.3-4.7-1.8-6.6 1-1.6 2.5-1.6 2.7.6 5 2.3 2.4 2.3 2.6.7 6-2 4.3-4.1 4.6-3.5.6q.4-2.9-.8-2.4-1 .1-1.7-1.7c-1-3.8-2.7-1.1-2.7 4.1q0 8.6-4.1 1.4c-1.2-1.9-2.5-3.5-3-3.5s.2-2.2 1.6-5c3.3-6.5 3.2-7.3-1-8.6-5.1-1.6-6.2.1-4.5 7 2.4 10.2-.7 14.2-8.4 10.4-4.1-1.9-4.4-2.4-3.9-5q.7-3-1-2.8-1.5 0-1 1.9c.4 1.8 0 1.9-5.4 1.5-5.7-.5-5.8-.4-7.8 2.8a12 12 0 0 1-5.3 4.4c-1.8.5-3.9 2-4.8 3.2-2.7 3.9-11.8 2.1-17.6-3.5-2.6-2.5-3-2.6-6.8-1.4-2.4.7-5.6 2.8-7.8 5.1-2 2.2-4.5 4-5.4 4-2.1 0-2.1.1-.7 6a17 17 0 0 0 3 6.6c1.1 1.2 3.3 4.9 4.9 8.2 2.2 4.7 3.8 6.6 7.3 8.6l4.5 2.7 4.9-2c2.7-1 6-1.7 7.5-1.4 3.1.6 4.1-.7 4.8-6.7.4-4 .9-4.7 4.4-6.4 3.8-1.9 3.9-1.9 8.2.3 2.5 1.1 5 2.1 5.7 2.1.6 0 2.2-1.8 3.5-4 2.1-3.7 2.6-4 6.5-4 4.5 0 22.6 4.6 24.2 6.1 1.4 1.4 4.1 1.1 5.5-.6 1-1.2 1.6-1.2 3.9-.1a41 41 0 0 0 21-.2q3.5-1.3 3.9-.4.6 1.2 1.6.6c.6-.2 2.2.9 3.4 2.6 1.3 1.6 2.7 3 3.2 3s2.3-1.4 3.9-3.2c2.4-2.7 3.1-3 4.4-2 1.1 1 1.7.9 2.7-.3s1.6-1.3 2.6-.4c1.1.9 1.7.9 2.8 0 2.1-1.7 3.7.9 3 4.8-.6 2.9-.5 3.1 2.4 3.1 4.6 0 6.2 1 6.2 3.6 0 3.1-3.8 10.7-4.9 9.9q-.9-.3-1.5 1.1-1.7 4.1 1.3 2.5c1.6-.9 2-.7 2.5 1.4.4 1.4.2 3.4-.4 4.4q-1 2 .3 2.4 1 .5-1.6 2.7l-2.8 2.2 2.1 2.3c1.2 1.3 2.1 3.1 2 4.1q-1.3 13.5 5.1 7.3c2.1-2.1 2.1-2.1 3.3-.1l2.9 4.5c1.6 2.3 1.7 3.1.6 6-1 2.9-1 3.8.3 5.6a6 6 0 0 1 1 4.3c-.4 1.9-.2 2 1.9 1.3 1.3-.4 3.6-.8 5-.9 2.4-.1 2.9-.8 4.8-6.7 1.2-3.7 1.9-7.4 1.5-8.3-.8-2 1.3-4.6 3.7-4.6 1.6 0 1.7.4.7 3.1q-2.4 6.4 3.7 1c2-1.7 4-3.1 4.5-3.1s2.9-1.4 5.3-3.1a23 23 0 0 1 8.7-3.6l4.4-.6-3.7 4.5c-3.2 4-3.5 4.7-2.2 5.8 2 1.7 1.9 3-.2 3-1 0-3.4.6-5.3 1.3-9.9 3.7-11.9 6.1-15 18.2-1.5 5.7-1.7 8.2-.9 9.7.6 1 1.3 1.8 1.7 1.6l3.4-1.7c1.6-.8 3.4-1 4.5-.6 1 .5 2.5.9 3.3.9q1.4.3 1.5 2.6c0 2.6-2.2 3.6-8 4-2.2.1-4 1.3-6.7 4.6-2.1 2.5-3.8 4.9-3.8 5.3s1.6 1.6 3.5 2.6c3.2 1.8 3.6 1.8 6.8.3a105 105 0 0 0 19-15.4 19 19 0 0 1 5.9-4c4.6-2.3 5.6-2.5 8.8-1.5 2.1.6 5.6 1.1 7.8 1.1s6.3.5 9.1 1.2l5 1.1-4 4c-3.8 3.9-4.1 3.9-9 3.3a23 23 0 0 1-7.3-2.1c-1.9-1.3-2.5-1.2-5.6.7-3.4 2.1-3.5 2.1-1.2 3.1 4.2 1.9 2.3 3.3-3.7 2.8-4-.4-8.1 2-10.2 5.8l-5.5 9.1c-3.9 6.2-4.2 7.5-1.4 5.8 2.6-1.6 5.5.1 5.4 3.1q-.2 2.2 2.5 2.2c1.4 0 3.5.4 4.6.8 1.9.8 1.9.8-.3 2-2.9 1.6-2.8 3.1.3 3.1 4.3 0 2.8 2.7-3 5.5-3 1.5-5.5 2.9-5.5 3q.1.5 1.6 1.9c1.4 1.5 1.4 1.6-.4 1.6-1.1 0-2.7-1.1-3.6-2.5-1.4-2.1-2-2.3-4.3-1.4q-2.7 1-3.4-.2-.8-1-2.5-.5c-1.6.6-1.3 1.2 2.1 4.1 3.3 2.8 3.6 3.4 2 3.5q-2.3 0-.6.9c2.3 1.5-.5 4.2-3.4 3.5-2.8-.7-4 .9-2 2.6q3.3 2.6-1.1 5.9a11 11 0 0 1-6.7 2.1c-3.4 0-4.8.7-7.9 3.7l-3.7 3.6-3.4-1.7c-3.3-1.8-3.4-1.8-8.6.8-3.9 2-5.6 3.6-6.7 6.3-1.6 3.7-1.5 3.7-9.8 1.7q-2.8-.7-3.7.7-2.2 3-3.4-7c-.6-4.7-1.4-6.4-5-10.5-5.8-6.5-7.5-5.9-7.5 2.6 0 4.6-.5 7.1-2 9.3a12 12 0 0 0-2 4.1c0 2.3 2.9 4.7 6.5 5.3 4.7.7 5.6 2.7 2 4.3a10 10 0 0 0-4 4.2c-.8 1.7-2 3.8-2.6 4.7-1 1.3-.8 2.2 1 4.7 2 2.9 2.1 3.3.6 6.1a15 15 0 0 0-1.5 4.4c0 2.5 3 2.8 5.8.7 2.4-1.7 3.2-1.8 7.1-.8s4.6.9 5.6-.5q1.2-1.6 2.6-1.7a13 13 0 0 0 3.9-1.5q2.5-1.3 3.7-.3 1.2 1.1 3.9-2.1c2.5-3 2.8-3.1 5-1.6 1.3.8 3 1.5 3.8 1.5s2.8.8 4.5 1.7c2.5 1.5 3.5 1.6 6.2.6 2.5-1 3.5-.9 5.4.3 1.8 1.2 3.2 1.2 7.6.3 9-1.8 15.3-4 17-5.9q1.7-1.8 7.8-2.6c5.7-.6 6.1-.5 6.1 1.4q0 10 11.7.5l7-5.5c.6-.5 3.4-1.8 6.2-2.8l5.1-1.8 3 2.4 2.9 2.5.3-3.2c.5-4.9 4.2-7.1 13.2-7.7 4.4-.3 7.6-.1 7.6.5q-.2 3.2-7.3 3.3c-4.3 0-4.8.2-4.1 1.7.4 1 .8 3.3.9 5.2.2 3 .9 3.8 7 7.7a49 49 0 0 0 10.9 5.4 27 27 0 0 1 12.6 6.1c5.2 4.2 7.8 3.5 12-3.3 3.1-5 3.1-5.3 1.6-7.9q-2.9-5-.4-7.7c2.5-2.7 2.3-1.5 3.6 1.3a29 29 0 0 1-.8 19.1l-2.1 3.2 5.8 5.6c6.2 5.9 7.3 6.6 7.3 4 0-2.2 3.4-6.8 6.5-8.8q5.2-3.4-1.1 4.9c-3.2 4.3-3.4 5-2.4 7.5.7 1.6 5.2 6.7 10.1 11.5s8.9 9 8.9 9.5c0 1.6 12.9 10.1 19.8 13.1a52 52 0 0 0 28.6 1.9c6.8-1 7.1-1 9.3 1.5 2.8 2.9 9.4 6.5 12.1 6.5 1.1 0 2.5-.7 3.2-1.5 1.6-2 3-1.9 3 .2 0 1.4.4 1.3 2.4-.6q2.4-2.2 3.8-1.5c.7.5 2.1.7 3.1.6 1.4-.3 1.7.5 1.7 5.2v5.5l11.4 5.6c6.2 3 11.6 5.5 12 5.5q.5-.1.6-1.5c0-2.7 2.9-2.8 6.3-.3 2.7 2.1 3.7 2.3 6.5 1.5 2.4-.7 4.9-.6 9.5.6 15.4 4.1 14.3 4.1 28.4-.9 7-2.5 16.8-5.2 21.7-5.9s9-1.6 9.3-1.9-.7-4-2.1-8.3c-3-9.1-3.1-9.3-1.2-9.3 2.1 0 6.3 5.9 8.2 11.4a15 15 0 0 0 2.1 4.6c1.9 0 17.7-10.7 20.6-14 4.2-4.6 8-11.7 9.7-18 .6-2.5 2.9-7.5 5.1-11.1 4.4-7.4 4.4-8.5-.4-13.6-4.9-5.3-2.1-5.1 3.2.1l4.9 4.9 3.4-2.1c1.8-1.1 4.4-3.2 5.7-4.6s2.9-2.2 3.7-1.9c.7.3 2.8-.4 4.6-1.5s5-2.3 7.1-2.6 4.3-1.6 5-2.6c1.4-2.4 2.7-2.6 2.7-.5 0 2 2.4 1.9 4 0q1.4-1.8 2.1-.4.6 1.1 5.4.5c4.6-.7 4.6-.8 2.9-2.7-1.5-1.7-1.6-2.4-.6-5.3.7-1.8 1.2-5 1.2-7.2.1-2.1.7-5.3 1.4-6.9 1.2-2.6 1.5-2.7 2.1-1.2q.8 1.8 2.6 1.2c1.6-.5 1.9-.1 1.9 2.5 0 1.7.4 2.9.9 2.5 1.3-.7 7.1-9.3 7.1-10.4 0-.9 4.3-5.1 5.2-5.1.4 0 .9 1.8 1.3 4s1 3.8 1.5 3.5 1.3.8 1.8 2.5c1 2.6 1.4 2.9 4 2.4 2.9-.6 3-.4 4.2 4.6.7 2.8 1.9 5.4 2.6 5.7q1.3.6 1.4 2c0 .9 1.7-.2 4-2.6 2.3-2.3 4.5-4.1 5-4.1q1-.1 1-1.5-.1-1.5 3.4-1.5 5.8-.1 20.7-14.2c4.9-4.6 5.8-6 6.3-10.1.7-4.6.8-4.7 4.2-4.7q3.5 0 8-3.2c4-2.8 4.3-3.3 2.9-4.8-1.3-1.4-1.1-1.8 1.4-3.3 2.2-1.3 3-1.4 3.4-.5s2.6-.8 6.1-4.2c3.1-3 5.4-6.1 5.1-6.8-.8-2 4.3-6.6 5.9-5.3.9.8 2.8.2 7.2-2.4 3.2-2 6.6-4.3 7.4-5.3s2.9-2.4 4.5-3.2 4.1-3.2 5.4-5.2c2-3.1 2.6-3.5 4.2-2.5 1.5.9 2.7.7 6.4-1.1 2.5-1.2 5.3-2.2 6.3-2.2s2.4-.5 3.2-1q1.8-.9.2-2.2a5 5 0 0 1-1.2-2.7q-.2-1.7 1.9.3c1.8 1.7 2.1 1.7 5.5.1 2-1 3.3-2.2 3-2.7-.4-.5-.1-2.1.7-3.4 1-1.9 1-2.7.1-3.6-1.6-1.6-1.5-4.5.1-5.1q1.5-.2 0-2.6c-1.6-2.6-1.7-5.1-.2-5.1 1.7 0 6.9 5.7 6.9 7.7q-.1 2.3 1 .3c.9-1.3 1.3-1.2 3 .9 1.1 1.3 2 3.1 2 4.2 0 2.1 2.2 3.8 2.8 2.1.2-.7 1.5.1 2.9 1.8 2.7 3.3 5 3.8 5.9 1.5q.8-1.3 2.1-1.5c2.2 0 6.8 2.9 8.3 5.3 1 1.7 1 2.2-.4 3.3-2 1.4-.6 2.7 1.8 1.8a32 32 0 0 0 7.6-9.8q-.2-.5-2-.6c-1.8-.1-2.3-.7-2.6-1.5-.7-1.8 5.1-8.8 8-9.5 2.9-.8 3.2-3.7.6-6.5-1.8-2-2-2.6-1-4.5 1.2-2.2 1.3-2.2 3.4 1.5 1.1 2.1 2.6 4 3.2 4.2s3-2.5 5.3-6.1 4.9-6.7 5.7-7a12 12 0 0 1 11 1.9c3.9 3 4.4 3.1 4.4.7 0-.9.7-2.6 1.5-3.6 1.1-1.5 1.2-2.3.3-3.3s-.5-2.5 1.6-6.3c2.6-4.7 2.6-5.1 1.1-7.4-.9-1.4-1.4-3-1-3.6 1-1.6-2.3-2.4-4.1-1q-3.3 2.8-4-5.5-1-11.5 8.9-7.6c2.9 1.1 6.7-1 6.7-3.8 0-1-1.8-3.5-4.1-5.6-3.1-2.9-3.8-4-2.7-4.6 2.6-1.7 9.2-.9 13.2 1.6 3.2 1.9 4.2 2.1 5.7 1.2 2.8-1.8 2.3-3-2.4-5.2-3.3-1.6-4.9-3.3-7.2-7.7a49 49 0 0 0-6-8.8c-2.4-2.5-2.7-3.4-1.8-4.9s.7-2.2-1-4q-2.4-2.2-.6-2.1c2.4 0 12.4 11.5 14.2 16.2.3 1 2.1 2.7 3.9 3.9 5.6 3.5 18.4 1.2 24.5-4.5l3.5-3.2-4.6-4.4c-2.5-2.5-4.6-5.3-4.6-6.4 0-1.6.5-1.8 3.5-1.3 1.9.3 3.7.1 4-.4.4-.5 2-.7 3.6-.4s4.9 0 7.1-.6l4.2-1.1-3.1-1.5c-3.7-1.7-6.9-5-6-6 .4-.3 3.2 0 6.2.7 5.3 1.3 5.6 1.2 8-1 1.4-1.3 2.5-3.4 2.5-4.6 0-3-6.4-6.8-14.7-8.7q-11.2-2.6-11.3-6.7 0-1.8.3-2l5.1 1.5c2.7.8 6.7 1.5 8.9 1.5 2.4 0 5 .8 6.8 2.1 2.5 1.7 3.8 2 7.5 1.4 5.6-.8 5.7-2.8.2-4.4-3-.9-6.3-3.4-11.2-8.3-6.2-6.2-7.6-7.1-12.5-8-3.1-.6-8.9-1.3-13-1.4q-7.3-.3-8.9-1.8c-2.4-2.4-.7-3.5 4.2-2.4 3.5.7 5.1.6 7.5-.6a15 15 0 0 1 6.1-1.6h3.1l-2.3-3.9c-1.2-2.2-2-4.2-1.7-4.6s2.9.9 5.7 2.7l9.3 5.8c2.3 1.4 5.5 4.3 7.1 6.5 3.2 4.3 5.1 5.2 11.4 5.4q8.3.2 7.1-5.6c-.5-2.7-.1-3.5 4.3-7.2 5.4-4.5 6.2-7 3-9.2-1.8-1.2-1.9-1.8-.9-5q1.1-3.6.2-5.4c-.8-1.4-1.5-.7-4.5 4.6-3.7 6.8-6.4 9-5.6 4.5.5-2.3.2-2.6-2.3-2.6q-4.9.1-1.1-2.6c1.6-1.3 1.6-1.3 0-1.4q-1.6-.1-1.8-1t-2.1-1c-3.7 0-1.8-3.3 2.5-4.2 5-1.1 6.6-2.4 6.6-5.5 0-2.4-.1-2.4-9.2-2.3l-13.8-.1a41 41 0 0 0-9.2.6c-4 .6-4.8.5-4.8-.7 0-2.5 11.8-5.8 20.9-5.8 9.9 0 13.3-1.2 16.4-5.8 4.4-6.7 4.2-7.4-1.5-10-4.1-1.8-5.4-2-6.6-1-.8.7-4.5 1.3-8.6 1.3-5.6 0-8.3.6-13 2.8a22 22 0 0 1-6.4 2.3c-1.1-1.2 1-5.5 3-6.2 1.3-.4 4-1.9 6.2-3.3a20 20 0 0 1 9.9-3.1q12.3-.9.8-5.8c-3.4-1.5-6-3.1-5.8-3.7.2-.5 3.4-1 7.1-1 5.9-.1 7-.4 9.4-2.8s2.5-3 1.4-4.8-1.1-2.4.7-4c2-1.9 2-2.1.5-6-1.6-3.9-1.6-4.1.5-6.3 3-3.2 3.8-8.8 1.6-10.6-1-.8-2.5-1.5-3.4-1.5s-1.7-1-1.9-2.2c-.5-3.7-3.1-3.6-5.3.2-1.2 1.9-2.7 3.5-3.4 3.5-2.4 0-4.5-3.1-4.5-6.5q.1-3.4-2-3.8c-2.8-.7-3.6-3.5-1.6-5 2.4-1.8 1-4.4-2.6-4.9-2.3-.4-3.9.3-7.6 3.4-5.5 4.5-7.2 4.8-7.3 1q-.1-2.5-.6-1-.4 1.7-1.3 1.8c-1.3 0-3.2-2.9-2.5-4q.4-.9-1-1a25 25 0 0 1-12.2-6.8l-2.3-2.7-9 9c-8.1 8.1-9 8.7-9 6.3 0-1.6 1.6-4.6 4.3-7.8 2.3-2.9 5.3-6.8 6.6-8.7l2.4-3.4-2.9-3.2c-5.9-6.3-5.8-5.9-2.5-13.7 1.7-4 3.1-7.5 3.1-8 0-.8-10.3 1-11 2-1.1 1.5-5 3-7.9 3-5.5 0-12.5 2.4-18.9 6.4l-6.4 3.9-2-2.1-2.1-2 2.2-3.7c2.7-4.7 2.7-5.1-.5-2.6a11 11 0 0 1-3.5 2.1c-1.7 0-.9-2.7 1.6-5 1.5-1.4 3.1-4.8 4.2-9.1 1.3-5.2 2.3-7.1 3.9-7.6 3.6-1.3 11.9-11.8 13.7-17.4 2.6-7.9 2.2-12.1-2-20.6-5.3-10.9-9.3-12.1-13.4-4.1-3.5 6.9-5.7 7.5-8.5 2.3-1.6-3.1-2.3-3.5-4.6-3a9 9 0 0 1-5.5-.8 7 7 0 0 0-4.8-.7q-5.3 1.8-2.8-5 3-7.6-2.4-6.7c-3.4.6-7.3-1.9-7.3-4.8 0-2.7 2.6-5.1 6.6-5.9 1.6-.4 6-3.3 9.6-6.6 9.7-8.8 10.2-13.3 2.1-19.5l-4.5-3.4 6.3-4.1c3.5-2.2 7.5-4.3 8.9-4.7 1.4-.3 4.1-2.3 6-4.3 2.2-2.4 5.7-4.5 9.5-5.9 3.3-1.1 7.8-3 10-4l4-2h-3.3c-1.8-.1-5 .8-7.2 1.9-5.1 2.6-5.7 2.6-11.4-1-4.2-2.7-5.2-3-8-2a24 24 0 0 0-12.1 10.6 39 39 0 0 1-14.7 15.9c-2.1.8-6 1.5-8.6 1.5s-5.3.5-6 1.2c-1.5 1.5-1.5 5.9-.1 10.8 1 3.2.8 4.3-1.5 8.9l-2.7 5.2-3-1.8a12 12 0 0 1-4.3-4.7 7 7 0 0 0-4.6-4q-3.4-1.2-3.8-3.1c-.2-1.1-1.3-3-2.5-4.3-1.8-1.9-2.2-2-2.9-.8q-1 1.5-4.4 1.4c-4.5-.2-7.3-3.6-5.6-7.2.9-2.1.8-2.2-1.4-1.8-1.3.2-2.4 0-2.4-.6s-1-1.2-2.2-1.4c-3.6-.5-3.3-4 .5-6.3 5.9-3.7 8.6-13.3 5.8-20.8-.8-2-1.9-2.7-4.8-3.2-8.4-1.4-9.2-1.7-8.7-2.9q.6-1.3-3.8-1.2l-4.3.1-1.1-5.4c-1-4.1-1-5.8-.1-7.2q1.2-1.8 1.8-1.9.5-.2-.4-2.5c-.7-1.4-1.8-2.5-2.4-2.5q-1.2-.2-1.3-1.8c-.1-2-4.6-5.6-6-4.7-.6.3-1 1.3-1 2.1 0 1.8-.2 1.8-4.2-.5-6.1-3.5-7.7-3.6-9.1-.4"/><path d="M230.6 405.7q-1 2 .5.6 1.1-1.2.7-1.8c-.4-.6-.9.2-1.2 1.2M856.7 664q-.4 1.9.8 2c1.2.1 1.1-.8.8-2q-.5-1.8-.8-2c-.3-.2-.5.9-.8 2"/></svg>