<svg xmlns="http://www.w3.org/2000/svg" width="1365.333" height="1365.333" viewBox="0 0 1024 1024"><path d="M482.6 4.5C477.7 7 472.5 9 471 9s-5.9-1.2-9.6-2.7a37 37 0 0 0-15.9-2.7c-12.6-.1-15.2.6-22.1 6.5-7.5 6.5-10.8 7.9-18.8 7.9-5.4 0-7.5-.6-13.3-3.5-9.3-4.9-10.9-4.4-11.6 3.6q-.5 6.2-2.6 9c-2.8 3.8-2.6 5.4.9 7.9 4.3 3 4 5.6-.7 6.4-6.6 1-8.9.7-11.7-1.9-3.8-3.5-6.6-3.2-10.8 1.2-4.9 5.3-5.1 6.5-1.8 11 3 3.8 3.7 6.7 2.1 7.7-1.9 1.2-1.8 4.7.1 7.1 2.3 3 1.7 6.2-1.7 7.7-2.1 1-3 .5-7.7-3.7-2.9-2.6-5.9-6-6.7-7.6-2-4.3-4.8-4.5-13.4-.9-4.2 1.7-8.8 3-10.3 2.8q-6-.6-7.1-12.1T301.7 41c-2 0-2.4.8-3.5 7.6A36 36 0 0 1 287 71.5c-11.7 10.9-10.7 9.2-11.5 19.1-.4 4.9-1.2 9.5-1.7 10.1-3 3.7-8.6-.3-14.4-10.3-2.5-4.2-2.6-4.9-1.5-8 .7-1.9 1-3.8.6-4.3-.3-.5-2.9-1.7-5.8-2.5q-9.7-2.8-9.7-6.7c0-2.7-2.3-7-5-9.2-2.3-1.9-2.4-4.9-.3-14.1l.6-2.9-4.4.7c-3.2.5-5.5 1.8-8.4 4.5a52 52 0 0 1-8.8 6.6l-4.7 2.7 2.1 3.4c3 4.9 2 7.3-5.8 14l-11.1 9.8-4.2 4-7.3-3.6-7.3-3.7-5 1.5c-2.7.8-10.2 2-16.6 2.6-10.6 1.1-12.1 1-15.4-.6-3.7-1.7-3.7-1.7-11.5 1.5-7.5 3-7.9 3.3-7.9 6.3 0 2.4.9 4.1 3.6 6.7 4.9 4.7 6.4 7.9 6.4 14.1 0 5 .2 5.4 3.7 7.8 5.9 4 10.3 8.1 10.3 9.7 0 .8-1.1 2.9-2.5 4.7a12 12 0 0 0-2.5 7.4c0 4-.1 4.1-2.7 3.6-1.8-.3-5.7.5-10.3 2.2-4.1 1.5-10.8 3-14.9 3.4-4.4.5-7.7 1.3-8.2 2.1-1.2 1.8-.6 6 2 13.4 2.3 6.4 3.6 7.8 11.9 12.6 5.7 3.4 8.2 7 8.2 12.1 0 2.7-.9 4.3-4.5 7.8a65 65 0 0 0-7 8.1c-2.2 3.1-2.4 3.9-1.4 6.8.9 2.7.8 4-1.1 8.3-2.1 5-2.1 5.2-.4 9.7 2.3 6 10.5 14 18.5 18 5.8 2.9 6.9 3.1 17 3.1 16.8 0 19.9 2.2 15.4 10.9a23 23 0 0 0-2.5 7.6q.1 2.7-3.1 4.3c-6 3.3-7.9 5.3-7.9 8.2 0 7.1 3 7.6 19.2 3 17.5-4.9 18.3-5.3 23.9-13.6 7.2-10.7 10.3-13.9 15.3-15.8 3.9-1.5 4.7-2.3 6.9-7.6 2.1-4.7 3.4-6.3 6.4-7.8 15.2-7.8 33-6.8 42.2 2.4 2.6 2.6 4.1 4.9 3.8 5.8s.1 2 .9 2.6c1.1 1 1.8.8 3.3-1.1l2-2.4 4.3 4 4.8 4.6a115 115 0 0 1 16.9 11.7l10.9 8.5q1.3 1 2.7-.9c1.3-1.9 1.4-1.8 3.7.3 1.4 1.3 3.3 2.3 4.4 2.3 2.3 0 9.4 6.9 9.4 9.1 0 .8 1.1 3 2.4 4.8 2.9 3.9 3.4 6.5 5 25.6a54 54 0 0 0 5.9 25.5c2.6 5.8 5.6 12.2 6.7 14.2 2.5 4.6 2.5 7.2 0 20s-2.5 12.4.5 10.4c3.3-2.2 5.1-2 10.2.9 3.2 1.9 4.3 3.2 4.3 5 0 1.3-.4 2.7-1 3s-1 2.4-1 4.5-.5 4.2-1.1 4.5c-1.6 1.1 2 4.5 4.8 4.5 6.4 0 17.2 8.4 19.5 15.2a24 24 0 0 0 3.5 6.2q2.4 2.8 1.7 5c-.9 3.1-3.4 5.6-5.6 5.6q-3.5-.1.2 4.1l2 2.4 1.9-2.4c1.5-2 2.5-2.3 5.2-1.8q22.7 3.6 38.3 34.4c2.1 4.3 3.1 5.3 5.2 5.3q2.6 0 5.2 3.2c1.5 1.8 5.7 6.2 9.3 9.8 8.3 8.3 8.9 9 10.9 15.3 1.4 4.5 2.3 5.6 6.3 7.7a66 66 0 0 1 19.3 21.6c2.7 5.3 3.4 5.9 6.5 6.2 1.9.2 4.3 1.2 5.4 2.2s4.4 2.8 7.2 4a17 17 0 0 1 8.3 6.8c1.6 2.5 3 5.4 3 6.4 0 2.7 3.7 2.3 7.8-.9a22 22 0 0 1 8-3.4c4.3-.9 4.7-.7 10.4 3.6 3.3 2.5 6.4 4.5 6.9 4.5s2.5-.9 4.6-2c3.1-1.5 4.6-1.7 7.7-1 2.2.5 4.3.7 4.7.4 3.2-1.9 19.9 37.6 19.9 46.9 0 4.5 1.6 4.9 2.5.7.8-3.5 1.2-3.6 3.7-1.3 1.8 1.6 2.1 1.6 4.9.1 3.7-2.2 5-1.7 9.4 3.8 2 2.4 4.7 4.7 6 5q7 1.6-2.5 11.2c-2.3 2.4-4 4.5-3.8 4.7.2.1 4.8-1.2 10.3-3s13.4-3.6 17.5-4l7.6-.7 3.6 5.9c10.2 16.6 11.3 21.3 6.9 29.5l-3.1 5.7 3.6.7a9 9 0 0 1 5.6 3.5c1.6 2.2 2.5 2.6 3.5 1.8 1.7-1.5 10.1 5.5 12.8 10.5 1.1 2.1 2.5 3.4 3.2 3.1q1.2-.3 1.3.5.3 1.2 2.5 2.6c2.5 1.6 2.7 1.6 7.3-2.3 6.6-5.5 6.7-5.5 10.7-3.9a26 26 0 0 1 11.8 9.8c2.3 3.5 2.7 5.1 2.7 10.8 0 7.5 1.9 13.9 7.4 24.8q3.7 7.2 6.2 8.4c5.1 2.3 8.4 13.8 8.4 29.1v9.7l6.1 12.2c5.9 11.8 6.1 12.3 4.9 16.2-.6 2.1-2.4 5.2-3.9 6.7-2.8 2.8-2.8 2.8-7.2 1.2-5.7-2.1-8.4-1.3-13.6 3.8-3.9 3.7-5.7 7.3-3.4 6.7 1.1-.4 6.1 6.8 6.1 8.8 0 2.2-8.5 18.7-11.5 22.3a35 35 0 0 1-7.1 5.7c-3.8 2.2-4.2 2.8-3.3 4.5.7 1.5.6 4-.7 9.5l-1.6 7.5 2.8 3.1q7 7.4 11.2 5.7c1.4-.5 5.1-.7 8.4-.3 4.9.6 6.2.4 7.9-1.2 3.7-3.3 7.9-10.2 7.9-12.9 0-1.6 1.8-5 4.7-8.8 9-11.8 12-14.4 19.4-17.2 3.8-1.5 7.6-3.6 8.4-4.8a57 57 0 0 0-.2-27.8c-1.7-2.8-1.7-3.1.2-6.5a39 39 0 0 1 21-16.3c10.1-3.7 10-3.6 16.6-1.2l5 2 2-4.7 2-4.6-2.7-5.4c-2.6-5-2.7-5.7-1.5-10.1.9-3.7.9-5.4 0-7.4s-.9-4 0-8.3c1.5-7.5 1.5-7.1-1.9-8.9-1.7-.9-3.6-2.7-4.2-4a24 24 0 0 0-8.4-6.5 36 36 0 0 1-9.2-6.7c-1.8-2.5-2.7-2.8-9.6-3.1-7.2-.4-7.8-.6-10-3.6-6.5-8.6-6.8-12.7-1.6-20 3.8-5.3 6-12.3 6-19.1q0-5.4 1.7-6.6a27 27 0 0 0 4-6.9 62 62 0 0 1 4.7-8.5c1.3-1.7 2.8-4.6 3.4-6.5a26 26 0 0 1 18.4-17.1c6.6-1.7 13.4 2.7 12.6 8.3-.2 1.7 1.2 2.9 8.2 6.6l12.7 6.7c3.8 2.1 5.2 2.2 14.7 1.8l10.6-.6 3.3 3.6c1.8 2 4.8 6.5 6.7 10.1 3.3 6.1 3.4 6.6 2.2 10s-1.2 4 1.2 8c3.6 6.2 23 20.4 26.2 19.2 1.1-.4 1.4-2.6 1.4-9 0-9.8.7-12 5.1-17 3.9-4.5 3.7-6.5-2.8-19.6-4.2-8.4-6-10.8-16.3-21a258 258 0 0 1-13.7-14.5c-1.2-1.7-2.3-2.4-2.3-1.8 0 2.5-2.8 1.3-3.8-1.6-.8-2.1-1.9-3.1-4.4-3.6-3.5-.8-9-3.3-9.8-4.5-.3-.5-4-2.6-8.3-4.8a108 108 0 0 1-25.6-19c-1.4-1.8-5.5-5-9.1-7.2a125 125 0 0 0-29.4-12c-1.4 0-4.6-1.6-7.2-3.7-2.7-2-7.7-4.5-11.4-5.6a46 46 0 0 1-16.9-8.1c-.8-.9-2.2-1.6-3.3-1.6s-4.5-2.4-7.6-5.3-8.1-6.8-11-8.6c-5.8-3.7-7.6-6.2-6.7-9.2a52 52 0 0 1 10-9c13.7-10.3 15.1-13.3 9.1-20.4l-3.3-3.9-9.5 2.2c-9 2-9.7 2.1-15.1.5-5.2-1.4-6.5-1.4-15.8 0-9.3 1.5-10.4 1.5-13.2 0-1.7-.8-6-1.8-9.5-2.1-6-.5-6.6-.8-12.6-6.2-4.6-4.2-8-6.3-12.7-7.9-6.8-2.3-10.9-5.4-10.9-8.2q0-1.8-4.2-3.7A53 53 0 0 1 626 471a106 106 0 0 0-14.6-13.6c-7-4.5-10-8.3-14.9-18.9a102 102 0 0 1-10-32.5 81 81 0 0 0-9.7-31.4 49 49 0 0 1-6.6-19.9l-.4-6.7-12.7-8.4a201 201 0 0 1-30.6-25.6 845 845 0 0 0-26.3-24.4 68 68 0 0 1-10.2-10.1 125 125 0 0 1-8.1-31c.1-8.6.1-12.2 0-17.4q-.3-10.6 7.5-10.5 3.6.2 3.6-1.2c0-3.4 2.3-6.2 4.9-6.1 2.4.2 2.6-.2 3.5-5.6s.6-6.1-1.2-8c-1.8-1.8-2.5-1.9-4.7-.9-3.9 1.8-4.5 1.5-4.5-2.2 0-6.4-1.4-16.2-1.9-13.9l-.6 2.3-3.3-2.6c-4-3.2-6.5-7.8-5.7-10.5.6-1.9 1.4-2 6.3-.2q1.2.6 1.2-3.1c0-6.9 5.2-15.7 11.6-19.7 2.8-1.7 3.7-1.9 5-.8q1.5 1.3 2.6.1c.7-.7 2.5-1.2 4.1-1.2 2.5 0 2.8.3 2.5 2.7q-.3 2.8-2.8 3.5-2.8.9 1.4.3a45 45 0 0 0 10.5-3.6c4-2 8.6-3.4 11.6-3.6 10.9-.7 11.5-.8 13-3.1 1.5-2.1 1.5-2.2-.9-2.2-3.1 0-3.2-.8-.5-5.4q2-3.5 3.5-2.9c.8.3 2.2-.2 3.2-1 1.5-1.4 2.5-1.3 9.7.8 8.3 2.4 10 4 7.3 7.2q-2 2.2 1 .4c1.3-.7 3.1-2.6 4-4.2 2.2-3.8 4.1-3.7 9.2.6 5.6 4.7 8 7.8 8 10.5 0 1.7.5 2.1 2.8 1.8 2.1-.2 2.8-.9 3-3 .4-3.6-.8-5.2-9-12.3a27 27 0 0 1-6.8-7.4c0-.9.9-3 2-4.6q4.3-6.6-.7-8.5c-4.5-1.6-7.6-3.4-8-4.7-.3-.7 2.1-4 5.3-7.3s5.5-6.2 5.3-6.3l-9.9-3.2a62 62 0 0 1-10.8-3.8q-1.3-1-1-6.6l.3-5.6 7.9-4.2c8.8-4.7 20.8-12.4 20.3-12.9a328 328 0 0 0-18.3-3.4 325 325 0 0 1-41.9-9.6c-14.4-3.8-24.4-8.2-27.5-12.1a18 18 0 0 1-3.1-15.1c1-4 .9-4.6-1.2-7.2a17 17 0 0 1-3.1-6.9c-.8-5.4-2.5-5.3-14 .4m11.2 298.7c1 1 1.7 1 3.1.1 1.6-1 2-.9 2.5.3q1.5 4-1 7.9c-1.5 2.3-1.6 2.3-6 .8-4.9-1.6-5.7-4-2.8-8.1 1.7-2.5 2.5-2.7 4.2-1"/><path d="M341.2 402q-1.2 2-4.6 2c-1.8 0-3.9.7-4.6 1.5-1.4 1.7-4 2-4 .5 0-.6-1.5-1-3.4-1-2.8 0-3.4.4-3.8 2.5-.5 2.2-.1 2.6 3.5 3.6 3.1.8 4.6.8 6.4-.2 2-1.1 2.6-1.1 3.4.1s1 1.3 1.9 0q.9-1.7 2.1-.3c1 1 1.7.5 3.6-2.2 2.2-3.2 3.2-8.5 1.5-8.5q-.8.2-2 2M232 546.7c0 .5.7 1.7 1.5 2.7 3.3 4.3.1 8.9-6.3 9q-6.1.2-17.5 12.3c-3.6 3.9-4.5 4.3-8.8 4.3-3.6 0-6.5 1-12.3 4-4.1 2.2-8.2 4-9.1 4-2.4 0-13.4-5.8-16.1-8.5-1.4-1.4-2.1-3-1.8-3.9q.6-1.5-1-1.6c-1.3 0-1.4.4-.4 2.5 1 2.2.7 3.5-2.7 10-3.9 7.7-3.9 9-.2 9 3.5 0 3.3 3.6-.3 6.8-1.8 1.6-2.9 3.6-2.9 5l.2 2.2.4-2.2c.6-3.2 3.3-1.7 3.3 1.9v2.9l2.6-2q5.8-4.7 4.7 1.2-.5 3.3 1.7 7c2 3.3 2.2 4.6 1.6 10.7q-.8 7.1.4 7c.5 0 1.8 1.5 2.7 3.4 1.5 3.2 1.5 3.7-.1 7a9 9 0 0 0-.7 7.4c1.9 6.6 1.5 7.7-3.1 9.6-2.4 1-3.7 2-3 2.3q1.3.3.6 5.5c-.6 4.5-.5 5 1.1 4.6q1.8-.5 2.7-3.4c.9-3.4 3.5-5.1 5.2-3.4q1 1-.2 4.3a8 8 0 0 0-.1 6.4c.8 2.4.7 3.9-.5 6.6-1.3 3.2-1.3 3.6.1 4.1 1.3.5 1.3.9.2 2.3q-1.6 1.8-.1 2c1.7.6 1.5 4.2-.3 5-.9.3-2.5-.3-3.5-1.2-2.6-2.3-2.9-1.9-3.6 4.6-.4 3-1.6 7-2.7 8.9s-2.8 6.4-3.8 9.9c-1.7 6.3-1.7 6.5.2 8.9 2.5 3.3 2.4 4.1-1.2 7.8l-3 3.1 1.6 4.1c.9 2.2 2.4 4.2 3.4 4.5s2.1 1.7 2.4 3.4 1.6 3.5 3.1 4.3c2.3 1.2 2.5 1.8 2 4.8-.5 2.8-.3 3.8 1.2 4.9s1.7 1.8.7 4.3c-.8 2.2-.8 3.3.2 4.6 1.1 1.6 1.3 1.6 2.4-.5a9 9 0 0 1 3.8-3.2c2.2-.8 3-.6 5.3 1.6q2.8 2.7 3.5 1.5c.7-1.2 1.1-.6 2 .7 1.2 1.6 1.5 1.6 5.2-1 4.9-3.4 10.1-8.7 10.4-10.7.1-.8-.1-3.6-.5-6.3a24 24 0 0 1 .2-8.9c.9-3.4.8-4.6-.3-5.9-1.5-1.6-2-3.9-.9-3.9 1.6 0 6.2 3.5 8 6.1 1.6 2.5 2.4 2.8 5.1 2.3 5.1-1 8.9.5 14.3 5.2q5 4.7 6.8 4t3.2 1.9c.7 1.4 1.7 2.5 2.1 2.5.8 0 3.9-7.4 3.9-9.6 0-.8 1.1-2.6 2.5-4 2.4-2.4 3.4-5.4 1.8-5.4q-.9 0-2.1-.9c-1.1-.6-.6-2 2.3-5.9 2.9-4.1 3.6-5.9 3.4-9-.2-2 0-4.2.3-4.7a47 47 0 0 0 2.3-14.6c-.4-.5-.2-1.6.4-2.3a48 48 0 0 0 4.1-16 8 8 0 0 1 1.6-4.7c1.3-1.4 1.3-2.1.3-3.7s-1-2.5.4-4.6c2.3-3.4 2.2-4.1-1.3-11a23 23 0 0 1-3-10.9c0-4.7.2-5.2 5.9-10.6 3.2-3.1 7-7.9 8.4-10.6 2.5-5 2.5-5.1.6-7.4-1.5-1.8-1.9-3.9-1.9-9.2 0-4.9-.4-7-1.4-7.6-.8-.4-2-3-2.7-5.6-1.2-4.4-1.2-4.9.8-6.9l2.2-2.2-2.2-1.1q-2.2-1-2.2-3.8c.1-2.2-.3-2.5-2.1-2.1-2.6.7-6.4-.3-6.4-1.6 0-.5 2-2.3 4.5-4.1l4.6-3.3-2.8-1.2c-2.2-.9-3.1-.9-4.4.2-3.2 2.9-4-1.4-.9-5.3 2.2-2.8 2.4-4.1 1-6.3-.8-1.2-1.3-1.1-3.4.9l-2.4 2.3-1.7-2.5c-.9-1.4-1.5-3.3-1.3-4.3.2-1.4-.8-2.1-4.5-3.2-3.6-1-5.2-2.1-6-4.1q-1.2-2.5-2.9-2.3-1.5.2-2.3-.7c-.7-1.3-2.5-1.5-2.5-.4m463 317.2c-.9.3-3.6 2-6 3.7-7.1 4.9-8.5 5.1-13.7 1.3l-4.6-3.2.5 3.2c.4 2.7-.1 3.7-3.8 7.1-2.4 2.2-5.1 4-6.1 4s-4.1-1.7-7-3.7c-4.9-3.4-5.6-3.6-8.6-2.6-1.8.6-5.2 1.5-7.7 1.8s-5.9 1.9-8 3.6c-5 4-10.7 5.8-22.9 7a50 50 0 0 1-20.6-.1 31 31 0 0 0-21.4 2.4c-4.4 2.3-6 2.6-9.7 2-5.5-.8-10-4.4-12.5-9.9l-1.8-4h-6.8c-5.3 0-6.8-.3-7-1.5-1.1-8.4-1.3-9-4.1-9-1.5 0-3.6.7-4.6 1.5-2.6 2-5.5 1.9-7.8-.2-1.9-1.7-2-1.6-3.9.7a9 9 0 0 0-1.7 5c.3 2.1-.5 2.9-5.2 5.2-3 1.5-6.5 2.7-7.7 2.7-2.7.1-8-4.2-8.8-7.2l-1.7-5-1.1-2.8-3.4 4.1a38 38 0 0 1-7.9 6.6c-6.1 3.6-10.5 10.2-9.7 14.8.3 2-.1 5.4-1 8.1-.9 2.5-1.4 5.1-1.2 5.8l1.5 5.5c.9 3.4 1.7 4.5 4.4 5.6 2.5 1 3.7 2.4 4.6 5.1 1.5 4.5 4.5 5.9 10.3 4.5 2.3-.5 6.5-1 9.4-1 5 0 5.4.2 8.5 4.4 2.7 3.7 4.1 4.7 8.1 5.5 5.3 1.2 10.7 3.7 10.7 5 0 1.4 11 12.9 14.4 15 1.8 1.2 4.6 2.1 6.1 2.1 2.2 0 4.1 1.4 8.4 6.1 5.9 6.4 9.6 8.9 13.2 8.9 1.3 0 3.5 1.5 5.4 3.7 3.1 3.6 3.4 3.7 6.5 2.6 2.3-.9 3.8-.9 5.6-.1s3.1.8 5-.1c2.3-1 3.5-.8 9.2 1.9 8.7 4.1 12.8 7.3 13.6 10.7.4 1.5 2.1 4.3 3.8 6.2s4.1 5.8 5.4 8.7c2.1 4.8 2.8 5.4 7.8 7.3a74 74 0 0 0 25.6 4.9l11.5.7.3 2.7c.3 2.5.5 2.6 2.8 1.6 2.3-1.1 2.4-1.5 1.8-5.7-.4-2.5-.7-6-.7-7.8.2-6.8 9.6-19.3 14.8-19.3 2-.1 2-.1 0-1.6-1.8-1.4-1.8-1.7-.4-2.7 1.5-.9 1.4-1.5-1.2-5-1.6-2.2-2.6-4.3-2.4-4.8q.3-.7-1.5-1.4a6 6 0 0 1-3-2.4c-.7-1.5-.3-2.1 2.6-3.5 3.1-1.4 3.4-1.9 2.3-3.2-.7-.9-3.4-2.6-6-3.9-4.3-2.2-4.8-2.9-5.8-7.5-1.9-8.7-1.4-12.8 1.8-16.9 3.4-4.3 5.4-8.7 7-15.6.7-2.8 2.8-7.1 5-10 2.1-2.7 6.2-9.2 9-14.2 2.9-5.1 7.4-11.9 10.1-15a25 25 0 0 0 5-7.3c0-.9 1.2-3.3 2.6-5.3 1.4-2.1 2.4-4 2.2-4.1a14 14 0 0 0-7.8-1.7"/></svg>