<svg xmlns="http://www.w3.org/2000/svg" width="1365.333" height="1365.333" viewBox="0 0 1024 1024"><path d="M235.6 304.5c-3.7.8-7.9 2.1-9.2 3s-3.3 1.5-4.5 1.5-4.5 1.1-7.3 2.4c-6.8 3.2-11.6 9.9-11.6 16.1 0 2.4-.4 4.7-1 5s-.7 3.1-.3 6.7l.6 6.1-5.2-.6c-2.9-.4-6-1.2-6.9-1.9-.8-.7-4.4-1.5-8-1.8-5.1-.4-6.7-.9-7.6-2.5l-1.4-2.4a116 116 0 0 0-19.7 4.5c-2.2.7-5 1.1-6.2.8s-6.1-.1-10.9.6c-7.8 1-8.8.9-10.6-.7-1.6-1.5-2.1-1.5-2.8-.3a5 5 0 0 0-1 2.2q0 .8-1 .8c-.5 0-1-1.1-1-2.5q0-2.5-1.8-2.5c-.9 0-2.3-.9-3-2-1.9-3.1-10.1-2.8-14.1.6-2.8 2.3-3.1 3-2.5 6.2.6 3.1.5 3.4-1 2.9-1-.4-2.4-.7-3.2-.7s-1.4-.8-1.4-1.8c0-3.7-3.5-5.5-11.6-6-8.3-.5-12.1.7-12.6 4.1q-.2 2-4.4 3.4c-3.2 1.1-4.5 2.2-5.5 4.6-.7 1.8-1.9 3.6-2.6 4S55 356 55 357q0 2-2.4 2c-3.3 0-7.8 3.8-7.1 6 1.2 3.7-.2 4.5-6.6 4.2-6.6-.4-7.9.3-7.9 4.5 0 1.3-.9 3.2-2 4.3s-2.2 3.1-2.6 4.5c-.9 3.6-2.2 4-4.8 1.6q-4.6-4.6-9.1 1.4c-2.5 3.3-2.8 6.5-.7 6.5.5 0 .9 2.1 1 4.7 0 2.7.4 9 .7 14.1l.7 9.4-3.6 3.4c-2 1.9-4.3 3.4-5.1 3.4-1.9 0-5.5 5.7-5.5 8.6a48 48 0 0 0 9.8 15.8 51 51 0 0 0 9.9 5c7.2 2.9 8.3 3.1 14.8 2.4 10.5-1.2 12.4-.6 16.3 5.1q3.3 5 7.4 6.6c3.9 1.5 4.1 1.5 10.7-1.5 7.6-3.5 19.3-7 23.4-7 1.6 0 4.3 1.1 6.2 2.5 3.1 2.4 3.7 2.5 9.3 1.6 3.3-.5 7.4-1.7 9.1-2.5 4.1-2.2 8-2 10.7.5 1.8 1.7 2.6 1.9 4.3 1 4.9-2.7 18.6 2.8 19.7 7.9.3 1.4 1.4 4.5 2.5 7a73 73 0 0 1 4.1 22.5c0 4.4 1.4 5.9 7 7.5 2.1.6 4.2 1.9 4.7 2.9a10 10 0 0 0 4.3 3.1 22 22 0 0 1 12 12.8c.6 2.5 2.2 5.2 3.8 6.6 1.5 1.2 3.1 3.8 3.5 5.7s1.5 4.3 2.5 5.4 2.1 3 2.5 4.3c.9 3 3.3 4.1 10.5 4.9 5 .5 6.4.3 8-1.2 1.8-1.6 2.5-1.7 5.4-.7 1.8.7 4.2 1.2 5.4 1.2s4 1.1 6.2 2.5 5.4 2.8 7 3.2c1.7.3 3 1.1 3 1.8s1.6 2.5 3.6 4c3.2 2.4 3.6 3.2 3.1 6.1-.3 1.8-1.5 4.5-2.6 6.1-1.9 2.6-2 3.4-1.1 11.8.6 4.9 1.5 9.1 2 9.3s2.8 1.6 5.2 3.2 4.8 3 5.4 3c2 0 6.4 5.2 6.4 7.6 0 5.2 2.9 10 7.5 12.2 2.5 1.2 4.5 2.6 4.5 3.2 0 .5.9 1 1.9 1 1.1 0 2.8 1.5 4 3.5 1.1 1.9 3.6 4.3 5.6 5.2s3.5 2.4 3.5 3.4c0 2.7 2.5 3 8.4.9 4.7-1.6 8.8-1.8 31.2-2 14.3 0 30.3-.3 35.8-.6l9.8-.5 8.2 5.2c10.9 7 14.3 7.3 25.4 2.4a71 71 0 0 1 30-6.5h8.4l8 5.5c4.5 3.1 9.1 5.5 10.5 5.5 3.4 0 19.2 9.7 20.3 12.4a58 58 0 0 0 18.9 18.8c3.1 1.6 6.2 2.8 6.8 2.8.7 0 2.9 3.5 4.8 7.8 3.6 7.8 3.7 7.9 9 9.6 3.8 1.2 6.1 2.6 8.1 5.3 1.9 2.5 5.3 4.8 11.8 7.8 8.7 4.1 9.5 4.3 16.1 3.8 6.2-.5 7.6-1 12.3-4.5 5.1-3.8 5.2-4 5.2-8.8 0-2.8-.4-5-.9-5-1.9 0-7.1-5.2-7.1-7.1 0-1 .5-1.9 1-1.9 1.3 0 1.3-2.7-.1-3.5-.5-.4-2.5 0-4.4.9a29 29 0 0 1-8 2.2c-3.8.6-5 .3-6.8-1.4a16 16 0 0 0-7.4-2.7c-5-.6-5.3-.9-5.3-3.5q0-2.9 2.8-4.9c4.3-3 5-2.9 6.9.8 1 1.9 2.8 3.8 4.1 4.2 2 .8 2.2.5 2.4-2.6l.2-5.2q0-1.6-2.2-2.3c-2.9-.6-3-2.4-.2-2.8q2.1-.2 2-3.2c0-4 3.2-6.1 7.3-4.9 7.1 2 10.3.4 4.5-2.2q-7.1-3.1-2.3-12.7c1.4-2.9 2.5-6.7 2.5-9 0-3.6.6-4.7 5.1-9.2 7-7 9.2-8.3 12.8-7.5 2.3.5 3.5.1 5-1.4 2.2-2.2 4.1-2.7 4.1-1.1 0 2 4 .9 5.6-1.5 1.9-2.9 3.4-2.4 3.4 1.1q0 4.4 3.5.4c1.6-1.8 1.9-1.8 4.9-.4 4 2.1 9.4 7.1 11.2 10.6 1.8 3.4 1.9 8.9.2 8.7-3.3-.4-3.8.2-3.8 5.1q.1 7.9 4 3.5c1.9-2.2 9.2-1.9 12.3.5 2.6 2.1 7.7 2.7 7.7 1q.1-.8 1.5-.4t2.1-1c.9-2.4 5.5-2.1 6.1.4.3 1.1 1.2 2 1.9 2q1.3.1 1.4 1.4c0 1.6 2.5 1.1 12-2.2 4.7-1.7 5.8-2.5 7.5-6.1 1.1-2.4 2.6-4.1 3.6-4.1q1.8-.1 2.8-3.3a72 72 0 0 1 9.9-16.5l2.1-2.2h-2.2q-5.2-.1-4.2-3.9c.5-1.7 1.4-2.1 4.6-2.1 3.8 0 3.9-.1 3.9-3.3q0-3.4 2.5-5.7c1.4-1.3 2.5-3.4 2.5-4.6 0-1.3.9-2.8 1.9-3.4 1.1-.5 3-2.4 4.2-4.2l2.3-3.1-3.2.6c-3.1.6-3.2.5-2.6-2.1.4-1.5 1.8-4.8 3.3-7.4 2.1-3.9 3.1-4.8 5.3-4.8q5.8 0 5.8 2.9c0 2.3 7.7 9.5 12 11.2a56 56 0 0 0 21.5.5c4.6-.7 5.4-.5 10 2.6 2.7 1.8 5.1 4.1 5.3 5.1.3 1.5-.8 1.7-12.2 1.7H746l-2.6 2.9c-2.2 2.5-3 2.8-5.1 2-1.4-.5-4.6-1.4-7.2-1.9-2.5-.6-5.6-1.5-6.7-2.1-1.8-.9-2.8-.7-5.4 1.2l-3.2 2.4 6.4.6c3.4.3 9.9 1.6 14.2 2.7 10.7 3 12 2.9 15.2-1.3l2.6-3.5h8.5c4.6 0 9.2-.4 10.2-1q1.9-1 7.2.1c3 .6 8.2 1.4 11.7 1.8 5 .7 7 1.5 9.5 3.9 1.8 1.6 4.2 3.3 5.3 3.6 1.2.4 2.7 2 3.4 3.6 1.2 3 1.6 3.2 5.5 3.4 1.5.1 2.2 1.1 2.7 4.1.4 2.2 1.6 6.8 2.8 10.1 2 5.5 2.6 6.3 5.8 7.2 2.1.6 7 1.4 11 1.7s8.9 1.2 10.9 2c4.1 1.7 7.3 1.9 7.3.5 0-.5-1.4-1.6-3.2-2.3s-2.8-1.6-2.2-2 3.4.5 6.3 1.9q5.3 2.3 10.4 2.4c4.8.1 5 .2 3.3 1.5q-2.1 1.5-8.3 1.5c-4.9 0-6.3.3-6.3 1.5s1.5 1.5 7.9 1.5c7.6 0 8-.1 10.4-3 1.4-1.6 2.7-3.4 2.9-4 .5-1.5 17.1-4.5 33-6l12.7-1.2 8 3.1c4.4 1.7 9.4 3.1 11.1 3.1q3 0 3 1.5c0 2.4 5.1 1.9 5.7-.5q.5-1.8 1.4-2c.9-.2.9-2 .9-4.5 0-3.9.3-4.5 2.5-5.1 3.4-.8 5.8 1.2 5 4.4-.3 1.3-.1 2.9.4 3.6 1.3 1.6 8.1.8 8.8-1 .3-.8 1.4-1.4 2.4-1.4 1.1 0 2.2-.6 2.5-1.4.9-2.4 5.9-3.7 8.1-2.1 1.6 1.2 2.2 1 5-1.1 2.3-1.7 4.4-2.4 7.8-2.4 3.9 0 4.7-.4 5.7-2.6.7-1.4 2.4-3.2 3.9-4 3.2-1.6 9.5-1.9 10.4-.4 1 1.7 5.2 1.1 5.9-.8.3-.9 1.1-2.5 1.8-3.5 1-1.3 1-2.1.1-3.5-.7-.9-1.9-3.2-2.7-5-1.2-2.6-2.1-3.2-4.5-3.2-1.7 0-3.1-.5-3.1-1.1q-.1-1.1-4.5-.7c-2.5.2-4.5 0-4.5-.4s-1.3-2.2-3-4.1-2.6-3.8-2.1-4.3 1.3-2.8 2-5.2c1.1-4 1.1-4.4-1.1-6.3a23 23 0 0 0-4.9-3q-4.9-2-4.9-10c0-3.4-.5-4.3-3-5.7q-3.1-1.7-3-4.4c0-1.5-.6-3.1-1.4-3.5s-1.6-3-1.9-5.8a48 48 0 0 0-14.8-29.6c-3.4-2.7-3.9-3.6-3.9-7.3 0-3.8-.3-4.4-3.5-5.9s-3.5-2-3.5-6c0-5.5-2.3-9.1-5-7.7-2.3 1.2-3 1.3-3 .1 0-1.9-5.7-6.9-8.7-7.5-1.7-.4-3.4-1.4-3.7-2.2-.7-1.7-3.6-1.9-3.6-.2q0 1.3-1.2 0c-.7-.7-2.8-1.2-4.8-1.2s-4.1-.5-4.6-1q-1-1.1-3.7-.1c-2.1.8-2.7.7-2.7-.3 0-.7-1.8-2.1-3.9-3.1-3.6-1.6-4.1-1.6-6.2-.1-5 3.5-11.3 1-14.7-5.7a20 20 0 0 0-3.5-5.4c-1.4-1.2-9.7-.5-9.7.8 0 .5-1.3.9-2.9.9-1.7 0-3.3.4-3.6 1-.9 1.5-4.1 1.2-5.5-.5-1.5-1.8-4.9-1.9-8.2-.4-4.4 1.9-11.4-1.7-17.7-9.1-3-3.6-6.1-6.7-6.8-6.8-.8-.2-3.2.3-5.4 1.2-7 2.8-12.1 2.1-18.8-2.4a62 62 0 0 1-10.4-9.4l-4.6-5.3-11.4-1.5c-8.4-1.1-12.3-2.1-14.5-3.7-3.1-2.2-7.7-2.8-8.7-1.1-.3.5-2.4 1.4-4.5 2q-8.2 2.4-12.4-7c-1.3-2.7-4-7-6.1-9.5-2.8-3.5-3.5-4.9-2.6-5.8 1.5-1.5 1.4-6-.1-7.5a5 5 0 0 0-2.9-1.2c-3.1 0-11.3-5.2-17.6-11q-8.5-8-15.4-8c-2.2 0-4.9-3.2-4.9-5.9 0-1.3.8-4.5 1.7-7.2 2.5-6.9 1.5-7.6-11.7-8.4l-10.5-.7-4 3.5c-3.8 3.3-4 3.4-7.4 2a13 13 0 0 0-6.3-.9q-3 .6-7.1-1.6c-3.5-1.8-4.8-1.9-8-1.1-3.5 1-3.9.9-4.9-1.2-.8-1.7-2.7-2.8-7.3-4-5.8-1.6-6.5-1.6-8.6-.1-1.3.9-3.5 1.6-4.9 1.6s-4 .9-5.9 2.1c-2.7 1.6-4.3 1.9-8.6 1.4q-5.2-.7-5.9.4c-1.2 1.9-4.9 1.2-7.5-1.3a24 24 0 0 0-9.1-4c-5.2-1.3-7.1-2.4-9.5-5.3-2.5-2.8-4.5-4-10-5.5-3.9-1-8.3-2.1-10-2.4-6.4-1.1-7.5-1.5-7.5-2.8 0-1.6-4.2-3.6-7.7-3.6-1.4 0-4.2-.4-6.2-.9-3.9-1-22.8-4.8-27.4-5.4q-2.8-.5-3.7 1.3c-1.3 2.4-20.8 3.7-24.8 1.6-3.2-1.6-14.8-2.1-15.7-.6-.8 1.3-3.2 1.3-4.8 0-8.6-7-10.5-7.5-14.8-3.4l-2.6 2.5-3-2.9c-2.8-2.8-3.2-2.9-10-2.5-5.5.4-7.6.2-9.4-1.1-1.4-1-4.3-1.6-7.4-1.6s-6.4-.8-8.8-2c-3.5-1.9-4.9-2-16.9-1.4-10.6.6-13.3 1-14.7 2.5-1.6 1.7-1.8 1.7-6.3-1.1-5.2-3.2-9.8-4.8-9.8-3.2 0 .5.7 1.5 1.5 2.2 4.6 3.8-3.3 4.2-8.2.4-2.7-2.1-5-2.8-10.1-3.1-6.2-.5-6.6-.4-4.7 1.1s1.9 1.5-1.3 1.6c-3.9 0-5.9-.9-12.8-6.2-4.7-3.5-5.8-3.9-14.8-4.8-5.3-.5-11-1.7-12.5-2.5-8.1-4.2-33.7-6.4-45.5-4"/></svg>