<svg xmlns="http://www.w3.org/2000/svg" width="1365.333" height="1365.333" viewBox="0 0 1024 1024"><path d="M753.7 3.5c-1.8 3.8-5.8 5.5-8.2 3.5-2.1-1.7-3.2-.5-2.7 2.8.2 1.6-.3 5-1.2 7.6l-1.6 4.7 3.8 7.7a310 310 0 0 1 7.2 15.5c3.2 7.4 3.3 7.9 2.1 12.6-.9 3.6-1 5.5-.2 7 1.6 2.9 1.4 5.3-.9 10.2-1.6 3.7-2 6.6-2 18.2 0 13.8 0 13.8-2.7 16.2-1.6 1.3-4 2.9-5.5 3.5a10 10 0 0 0-3.9 4.1 37 37 0 0 0 2.1 21.4c4 6.5 2.1 14.1-5.1 19.3-3.9 2.9-4.4 3-6.9 1.7-1.4-.7-3.2-2-3.8-2.8-1.4-1.6-6.6-1.1-8.2.8-1.4 1.6-7.4-1.1-8.8-4.1-1.2-2.5-10-4.8-11.9-3.2q-1.2.9-1.3.3c0-1.3-3.2 1.9-4 4s1.3 7.5 2.9 7.5c.5 0 2.5 2.3 4.5 5l3.6 5.1-2.6 2.4-5.5 5.2c-1.7 1.5-3.3 4-3.6 5.5-.5 2.4-1 2.8-3.9 2.8-2.6 0-3.8.6-5.1 2.7-2.3 3.6-3.3 4.3-6.3 4.3-3.6 0-7.7 6.2-6.3 9.3 1.2 2.6.2 10.9-1.6 13.1s-.3 6.4 3 8.3c1.6 1 3.1 2.5 3.4 3.4.6 1.8 5.8 6.1 8.7 7.2.9.3 2.2 2.5 2.8 4.8 1 3.7.8 5.1-1.9 13.3a61 61 0 0 0-3.1 12.9c0 5.1 2.8 11.7 5 11.7 1 0 3 .3 4.6.6 2.5.5 3 .2 4.1-2.5q1.1-3 3-3.1 5.8 0 5.8-7.7c0-4.2.3-4.9 2.8-6.1 1.5-.7 3.7-2.6 4.8-4.2 1.8-2.4 2.5-2.7 4.6-1.9 1.3.5 4.8.9 7.6.9 2.9 0 6 .7 7 1.5 1.7 1.2 2.3 1 5.8-1.3 2.1-1.5 3.8-3.2 3.9-3.8 0-1.6-6.5-6.4-8.7-6.4s-9.3-6.5-9.3-8.5c0-.8-.6-1.8-1.3-2.2s-2.1-2.1-3.1-3.6c-1.6-2.7-1.9-2.7-3.5-1.3-3.7 3.3-8.8 1.5-16.8-5.8-8.8-8 .4-22.5 13.1-20.6 4.6.7 11.5 5.4 16.4 11.2 2.9 3.4 3.9 3.5 4.7.5 1.1-3.4 4.6-6.7 7.1-6.7 1.3 0 2.9-.8 3.6-1.8s4.5-3.9 8.3-6.5c6.3-4.2 7.6-4.7 12.6-4.7 3.9 0 6.3.6 8 1.8 1.3 1.1 4.6 2.7 7.3 3.8s8.3 4 12.4 6.6c11 7.3 24.6 13.8 28.6 13.8 5.2 0 12.6 3.6 17.9 8.8l4.7 4.6V231c0-1.9.7-5.8 1.6-8.5a23 23 0 0 0 .9-9.2c-1-6.9 1.9-14.6 10.1-27 4.1-6.1 8.7-11.9 10.2-12.9s5.4-4.3 8.7-7.4c4.9-4.7 6.8-5.9 10.6-6.4 2.5-.4 5.7-.2 7.1.3s6 .7 10.2.4l7.6-.6v-3.4c0-2.7.5-3.5 2.6-4.3 3.6-1.4 4.6-1.2 4 .7a5 5 0 0 0 .3 3.2c1.4 2.1 7.6-2.4 9.6-6.9 1.3-2.8 2.6-3.9 6.8-5.4 2.9-1 6.7-2.1 8.5-2.3 2.7-.4 3.7-1.3 5.7-5.4 1.8-3.5 3.7-5.4 6.5-6.9q6.1-3.2 2.8-4.2-3.9-1.5-10.8 4.9c-3.9 3.5-5.4 4.3-7.2 3.8-3.4-1.1-5.8-3.5-5.8-5.9 0-1.2-.7-3-1.5-4-.8-1.1-1.8-4.1-2.1-6.7-.5-4-1.1-4.9-3.5-5.9-4.6-2-6.1-5.2-5.3-11.8a48 48 0 0 1 3-11.4c1.3-3.2 2.4-6.4 2.4-7.1 0-.8.9-2.6 2-4 2.1-2.6 2.6-8.2 1-10.7-.7-1.2-1.2-1.2-2.8.4a15 15 0 0 0-3.3 4.9c-.7 1.8-3.9 6-7.1 9.4s-5.8 6.6-5.8 7.2c0 .5-1.9 2.3-4.2 3.9-4.2 2.9-4.5 2.9-12.8 2.2-10.3-.9-11.6-1.4-13.6-5.1q-2.5-5.2-3.9-.7c-.8 2.2-.8 2.2-1.2-.4-.5-2.9-.9-3.2-9.7-4.7-8-1.5-8.2-1.4-5.5.9l2.4 1.9-3.6.1c-3.4 0-6.9-2.3-6.9-4.6 0-.5-2.7-1.9-6.1-3.2a137 137 0 0 1-39.1-27.4 68 68 0 0 1-10.8-12c0-2.5-8.9-14.5-12.3-16.7-1.8-1.1-5.6-4.4-8.4-7.3s-7.5-7.4-10.5-10L755.3.1zm-40.1 6.2q1.4 7.5 3.7 7c3.1-1 .5-10.7-2.9-10.7-1.2 0-1.4.8-.8 3.7m9.8 11.4c-1.3 1.5-1.5 2.2-.6 3.1.7.7 1.2 2.2 1.2 3.5 0 3.1 3.9 3.1 6.8 0 2.7-2.8 2.7-3.9.5-5.9-3-2.5-6-2.8-7.9-.7M653.3 226c-2.8 1.2-3.7 4.3-2 7.5 1.2 2.4 1.5 2.5 2.7 1.1 1.4-1.7 3.2-9.6 2.1-9.5-.3 0-1.6.4-2.8.9m70.4 50.4c-3.3 7.3-4.6 16.8-2.7 19.1 1.1 1.4 1.8 1.2 5.6-1 2.3-1.4 5.2-2.5 6.4-2.5 1.1 0 3.2-1.1 4.6-2.5s2.9-2.5 3.4-2.5 1.9 1.9 3.1 4.2c2.1 4.1 2.1 4.4.6 9.3-.9 2.7-1.8 6.1-2.1 7.5s-1 3.2-1.5 4c-.8 1.2-1.2 1.2-2.9-.3-1-.9-2.2-1.7-2.6-1.7s-2.4-1.2-4.6-2.6-4.3-2.5-4.6-2.2-1 2.7-1.7 5.4c-.7 2.6-1.6 4.9-2.2 5-2.2.7-4.6-2.6-5.5-7.2-2.8-15.2-3.9-16.8-10.1-15.8q-3.6.6-4.9-1c-1.5-2-3-2.1-3-.2 0 .7-.9 2.5-2.1 3.9l-2 2.6 2.2 3.1c1.3 1.6 2.8 3 3.3 3.1q.8.1-1.3 1c-2.2.9-2.3 1.3-1.7 6.3.6 4.8.5 5.6-1.9 8.5a11 11 0 0 1-6.6 3.7c-3.3.6-4.5 1.5-7.9 6.2l-3.9 5.5 2 2.5a11 11 0 0 1 1.9 5.5 9 9 0 0 0 2.5 5.7l2.6 2.7-1.6 7.4c-.8 4.1-1.5 8.3-1.5 9.5 0 2.7-6 8.4-8.8 8.4-1.8 0-2.2.6-2.2 2.8 0 3.2 3.4 5.5 6 4.1l3.3-1.3q1.7-.4 1.8-4.3 0-3.3.6-2.3.8 1.7 2.1 2.7c1.4 1.2 1.4 1.3-.2 1.3-2.4 0-1.5 4 2 8.5 2 2.7 2.4 4.3 2.4 10.1q0 19-3.4 22.5a73 73 0 0 0-6.6 22.2c0 3.8-3.4 12.4-6.5 16.2-4 4.9-7 10.9-8 15.5-.4 1.9-1.3 4.4-2 5.6-.9 1.3-1.3 4.7-1.2 9 .2 5-.3 8.2-1.7 11.2-1 2.3-2.2 4.2-2.6 4.2s-5.5 3.2-11.4 7.1c-12.3 8.2-17.6 13.8-17.6 18.4 0 1.8-1.1 4.6-2.6 6.6a56 56 0 0 0-4.9 8.6c-1.9 4.2-3.8 6.3-9.4 10.3a48 48 0 0 0-8.6 7.7c-1.5 2.2-2.2 2.5-6 2.1-4.1-.5-4.6-.3-9.1 4.3-3.9 4-5.5 4.9-8.2 4.9-1.9 0-5.1 1-7 2.2s-5.8 2.7-8.6 3.3c-4.5 1-5.2 1.5-5.6 4.1-.3 1.8-2.1 4.5-4.7 6.8l-4.2 3.7-6-2.1-6-2.2.1-4.2c.1-2.2.8-4.8 1.5-5.7 1.2-1.4 1.1-2.2-.3-5.3-2-4-2.6-4.3-4.4-2.1-2 2.4-5 .1-5-3.9 0-3.6 2.3-5.4 4.5-3.6 1.4 1.1 4.5.3 4.5-1.1 0-.6 2.3-2.4 5-4.1 4.4-2.7 5-3.5 5-6.5 0-2.6.5-3.6 2-4 2.4-.6 2.8-5.1.5-5.9-2-.8-8.3 1.3-12.8 4.4-2 1.4-6.1 3.1-8.9 3.8-6.4 1.7-8.3 3.4-10.2 9.2-2 5.8-2 8 0 8.4q1.7.3 2 3.8l.9 9.6c.6 5.3.4 6.7-1.8 11a155 155 0 0 1-22.2 30 66 66 0 0 0-11.7 11.9c-5.6 6.8-7 10.3-5.2 12.9.8 1.1 1.4 2.8 1.4 3.7s1.1 2.4 2.4 3.3q5 3 2.2 8.8c-1.2 2.8-1.4 2.9-1.5 1-.1-2.3-.8-2.6-3.5-1.6q-1.5.6-1.6 4.1v3.6l-4-.6c-3.3-.4-3.9-.3-3 .8 1.6 2-.7 5.4-3.2 4.7q-2-.5-2.5 1.7-.5 2.1-3 2.1c-2.1 0-2.2-.3-1.3-2 1.1-2 1-2-2.5-.3-3.1 1.5-3.7 1.5-4.5.3q-1-1.3-1-.6c0 .7-1.1-.1-2.5-1.4-2.4-2.2-2.7-2.3-4.2-.7-1.3 1.3-1.4 1.9-.3 3.1q1.6 1.8-.4 1.6c-1.7 0-5.6-3.4-5.6-4.9q-.2-.9-1.2-1.4-1.4-.3-.2-1.8c1.4-1.7 2.4-6.8 1.7-8.6s-7.7-1.7-9.3.2c-.7.8-1.9 1.5-2.6 1.5s-2.1 1.1-3 2.5c-1.8 2.8-4 3.1-7.7 1.2-1.4-.8-6.1-1.4-10.5-1.5a28 28 0 0 0-19.7 5.9c-1.5 1.3-4.3 2-9.5 2.4-4.1.3-11 1.1-15.2 1.7-5.9.8-8.5.8-10.7-.2-2.5-1-3.5-.8-6.9.9-4.7 2.4-10.7 3-12.4 1.3-2.1-2.1-3.2-1.3-1.2.9l1.9 2.2-4-.7c-4.7-.9-4.9-1.1-4.1-3.1.5-1.3 1.7-2 7.5-4.1q1.3-.5.7-1.1c-.9-1-13-2.1-13.6-1.4a21 21 0 0 1-10.1 4.1c-1.6 0-5.1 1.2-7.9 2.7-4 2.3-5 3.3-5 5.5 0 3.2-5.5 9-11.3 11.9-2 1.1-3.7 2.3-3.7 2.8 0 2.1-5.3 7-9.6 9a74 74 0 0 0-13.8 11.2c-5.1 4.9-10 8.9-10.9 8.9-4.3 0-10.6 4.3-17.5 11.9-7.7 8.6-9.2 9.2-14.3 6.5-4.2-2.1-10.3-1-15.1 2.9q-6 4.8-2.3 7.7c2.3 1.9 1.9 6.1-.6 6.7-1.8.5-2 1.1-1.5 4.2.3 2 .6 4.4.6 5.3q.1 1.6 1.5 1.8c3.2 0 .4 3.2-3 3.5-.5 0-1.6.4-2.2.8q-1.4.7-3-1.3c-2-2.3-4.3-2.6-6.1-.7-.7.6-3.4 1.7-6 2.2-4.5 1-4.7 1.2-5 4.7-.2 2.7-1.2 4.5-3.7 6.7-3 2.6-3.2 3.1-1.9 3.9 2.1 1.2.2 2.5-3.7 2.6q-2.9.2-4-2.2c-1.6-2.8-2.3-2.8-3.7.3-.6 1.4-1.8 2.5-2.7 2.5-1.9 0-2 1.9 0 2.6q3.6 1.4-1.6 3.3-7.6 2.6-8.6-.9c-.7-2.8-4.1-2.5-5.5.5-.6 1.4-1.7 2.5-2.5 2.5-1.2 0-1.1.4.1 2.2.9 1.2 1.6 3.8 1.6 5.8l-.1 3.5-2.2-2.8c-1.3-1.5-3-2.7-3.9-2.7s-2.1-.7-2.8-1.5-1.7-1.2-2.2-.9c-.9.6-2.8 4.8-3.2 7.1q-.2 1.3-.9 1.9c-1.4 1.5-.6 3.2 1.8 3.8 1.5.4 3 1.7 3.5 3.2q1 2.3 1.9 1.9 1-.3 2.1 1.5c1.1 1.8 2.6 2.6 4.5 3.4q5.7 2.3 6.8 11.4l.5 4.3-2.5-1.6a7 7 0 0 0-4.9-1.1q-3.8 1-1.4-3.3c1.1-2.1-2.7-8.3-6.1-10.2-2.5-1.3-2.3-1.5-3.6 4.5s-.5 8.5 4.1 12.3c2 1.5 3.6 3.4 3.6 4.1s.7 1.5 1.5 1.8c1.2.5 1 1.2-1 4.2-2.8 4.1-3.2 7.2-1 7.2q1.4 0 1.5-2.4-.1-2.5 2.2-2.8c1.3-.2 2.8-1.5 3.5-2.9 1.8-3.7 3.2-4.6 8.3-5.4 3.8-.5 4.7-.3 5.7 1.3.9 1.5.8 2.5-.3 4.7-1.3 2.6-1 7 .4 6.3l4.7-2.1c3.5-1.6 8.5-7.2 8.5-9.6 0-.5-1-2.1-2.2-3.6-1.9-2.5-2.6-2.7-7-2.2q-7.6 1.2-2.8-2.8c2.4-2.2 2.6-6.5.5-10.6-1.5-2.9-1.5-3.1 1.4-5.9 2.3-2.3 3-2.6 3.5-1.5.3.8 1.4 1.5 2.4 1.5 2.2 0 5.2 5.7 5.2 9.9 0 1.7 1 3.7 2.5 5.1 1.4 1.3 3.9 4.5 5.6 7.1 2.9 4.6 3 4.9 1.4 7.3-.9 1.3-2.7 3.2-4.1 4.1q-5.3 3.8 1.6 2.9 4-.7 4 .5-.1 1-1.4 1.7c-1.3.7-1.7 2.6-2.1 5.4-.4 2.7-1.2 5.1-1.9 5.3s-1.8 2.5-2.5 5c-.7 2.4-2.9 6.6-5 9.3-3 3.9-4.3 4.9-6.7 4.9-4.9 0-5.4.9-5.4 9.9 0 6.2-.4 8.7-1.5 9.6-2.1 1.7-2 2.1 2 6.4 2.8 3.1 3.5 4.7 3.5 8 0 2.2.3 5.1.6 6.3.9 3.3-3.5 7.3-8.3 7.4-3.4 0-3.6.1-1.6 1.1q2.2 1 2.1 3.9c-.1 4.5 1.6 5.6 9.7 6.4 6.4.6 7.5.9 7.5 2.6 0 1.9 2.7 3.9 5.4 3.9.8 0 1.8-1.2 2.4-2.8.7-2.1.3-3.9-2-8.7-3.8-8.2-3.7-12.3.9-19.8l3.9-6.5c.1-.2 1.8.4 3.8 1.2 3.8 1.6 4.3 3 2.5 6.9-1.1 2.4-1.2 2.4-3.8.9-3.2-1.8-6.4-1-5.4 1.4q.6 1.5 2.9 1.1c2.3-.4 2.4-.1 2.4 4.6 0 2.9.6 5.7 1.4 6.6 1.9 2.1 2.3 6.1.8 8.8-.7 1.2-1.2 3.1-1.2 4.3s-1.1 3.5-2.5 5.2a11 11 0 0 0-2.5 4.3c0 2.1 1.6 2.6 3 1 .7-.8 3.6-2.2 6.4-3 3.8-1.1 5.5-2.3 6.8-4.5 1-1.7 3.3-3.7 5.2-4.5q5.9-2.4 3.6-4-.9-.7-.4-1.7c.4-.6-.1-1.7-1.1-2.4-1.5-1.2-1.7-1.8-.7-3.9 1.6-3.6 7.3-3.5 9.6.1 1.3 1.8 2.4 2.4 4.3 2.2 2.2-.2 2.8-1.1 4-5.3.8-2.8 2.6-6.5 4.1-8.4 2.3-3 2.6-4.6 3.2-14.6.4-8.9 1-11.8 2.8-14.9 1.2-2 2.2-4.8 2.2-6.2 0-4 6.2-17.6 8.3-18.2q1.7-.5 1.2-2c-.3-.8 0-1.9.7-2.3 1-.7 1.1-1.2.1-2.8-1.5-2.3-.7-5.1 1.3-5.1q1.4-.2 2.3-2.3a64 64 0 0 1 12.9-12.7c.6-.6 1.2-2.1 1.2-3.3 0-1.3.5-2.8 1.2-3.5q1.4-1.1-1.6-2.2c-1.5-.5-3.2-1-3.7-1-1.6 0-.9-2 1.6-4.6 1.4-1.4 2.5-2.9 2.5-3.3 0-.5-2-1.2-4.5-1.5-5.3-.8-6.2-1.9-4.1-5.1 3.4-5.1 2.5-5.7-7.4-5.3-9.4.3-10 .1-10-4.3q-.1-2 2.5-1.9c1.5 0 4.1-1.5 6.5-3.6 3.7-3.4 4-4 4-9 0-5.2-.1-5.4-4.3-7.9-5.6-3.2-7.2-3.2-11.3.5-4 3.5-9.7 4.8-12.1 2.9-.9-.8-3.4-1.9-5.6-2.4-3.2-.8-4.2-1.6-5-4-.5-1.7-1.6-3.7-2.3-4.6-1.6-1.8-1.9-7.5-.4-8.4 1.4-.9 1.2-5.2-.2-5.8q-1.4-.4.8-2.7 4-4 7.7 1.9 1.6 2.8 4.9 3.4c2.8.5 3.7.1 6-2.5 1.4-1.7 3.1-2.7 3.7-2.4s1.9.2 2.9-.3q1.9-1 3 .1.9 1.1 6.1-.8c6.4-2.3 10.1-1.1 9.4 3-.6 2.9.8 3.4 2.7 1.1 1.8-2.2 2.8-1.9 4.5 1.5.9 1.7 2.2 3 2.9 3s3 1.3 5.1 3l4 3a8 8 0 0 0-.3-2.6c-.3-1.8.3-3.3 2.3-5.4q2.8-2.9 2.2-5a10 10 0 0 1 .4-4.8 21 21 0 0 0 1.1-6.5c0-3.2.7-4.3 4-7 3-2.4 5-3.2 7.9-3.2 3.4 0 3.9.3 3.9 2.2q0 2.2-1.5 2.3-1.4 0-1.5 1t-1.6 1c-2.2 0-1.3 3.4 1 3.8q1.7.3 2.5-.6c.8-.9 2.4-.6 5.9.1 5.2 1.1 5.2 1.1 9-2.5 2.8-2.7 5.1-3.8 10-4.8 3.5-.7 6.6-1.8 6.8-2.4.3-.7 3.4-1.2 8.1-1.3 7.4-.2 7.8-.3 10.9-3.7 3.7-4 3.7-4 6.4-2.6 1.4.8 2.8.5 5.7-1.1l3.7-2.1 3.2 3.4c2.6 2.9 3.4 3.3 4.8 2.2.9-.6 2.5-1 3.5-.7s3.4-.9 5.9-3c3.2-2.7 3.8-3.7 2.9-4.7q-1.5-1.5.6-.6c2.4.8 6.9-.3 6.4-1.7s3.5-5.1 6.9-6.5c1.6-.6 5.8-1.5 9.4-2s7.2-1.2 8.1-1.6 3.3.5 6 2.4c2.4 1.6 4.9 3 5.6 3s2.9 1.2 5 2.6c3.2 2.2 4.5 2.5 8.2 2 2.5-.3 5.4-1.5 6.6-2.6 2.8-2.6 9.2-2.6 12.3-.1 2.3 2 2.9 4.6 1.2 5.6-.5.3-1 1.7-1 3.1s-.6 2.4-1.4 2.4-2.9 2.2-4.7 5q-3.3 4.9-5.5 5c-1.1 0-3.5 1.1-5.3 2.4-3.1 2.3-3.2 2.5-1.3 3.5 2.5 1.4 3.3 6.6 1.5 10.2-.8 1.6-1.1 3.8-.8 5q.6 2-.7 3.7-3.8 4.6 1.8 8.3c1.9 1.1 4.1 3.4 5 5.1 1.3 2.4 1.8 2.7 3 1.7s1.9-.8 3.7.9c1.7 1.8 1.9 2.6 1.1 4-2.6 4.1 9.2 12.2 17.7 12.2 1.2 0 2.7.7 3.4 1.6 1 1.4 1.5 1.3 4.1-1.3 1.6-1.6 3.6-3.4 4.4-3.9s3.3-4.7 5.5-9.4c4.2-8.9 9.1-16 11.3-16q1-.1 1.2-1.5c.2-1.4.7-1.5 1.6-1.5 1.3 0 1.5-.7 1-3.5-.6-3.1-.5-3.5 1.5-3.5 1.7 0 2-.4 1.5-2.3a5.5 5.5 0 0 1 5.2-6.7c1.5 0 3.8-.8 5.2-1.7 1.3-.9 3.4-1.7 4.8-1.8 1.3 0 3.2-1.1 4.1-2.4 1.8-2.4 1.8-2.4 2.4-.2s3.1 2.9 4.2 1.1c1-1.5 2.5-1.2 2.5.6 0 3.1 2.5.7 2.8-2.7a17 17 0 0 1 1.4-5.6c.9-1.9.7-2.5-1.8-4.7a16 16 0 0 0-5.8-3c-1.6-.4-4.4-1.7-6.2-3.1s-3.7-2.5-4.3-2.5-1.7-2-2.7-4.5c-1.7-4.4-1.6-4.6.4-6.8 2.7-3 7.2-11.5 7.2-13.9 0-1 .8-2.2 1.8-2.5a25 25 0 0 0 4.1-2.5q5.1-3.8 2.7 4.2c-.8 2.6-1 5.3-.5 6.5.4 1.1.8 3.5.8 5.3.1 3.4 1.6 7.2 2.9 7.2q.7 0 2.1-.9c1.1-.7 1-1.3-.4-3.5q-1.8-2.7-.7-3.9 1-1.3.2-2.7-1-1.5.7-3.3c1.9-2.1 3.3-.7 3.3 3.3 0 1.5.5 3.1 1.2 3.8 1.5 1.5 7.2 1.5 11.5 0 2.9-1 3.6-1 4.4.2 2.4 3.8-2 8.4-9.3 9.9-3.2.7-5.8 3.4-4.5 4.8.4.4 5.8-1 12-3s12.4-3.7 13.8-3.7q4.9 0 2.8-2.6c-.6-.7-.8-1.8-.4-2.4.7-1.2 4.2 2.8 3.7 4.2-.1.5 4.3.8 9.8.8 7.6 0 11.1.5 15 2 7.5 3 9 2.7 8.4-1.3-.5-2.6.1-4.1 3-7.9 2-2.6 3.6-5.4 3.6-6.2 0-.9 2.2-3 4.8-4.8 3.9-2.6 4.9-3.7 4.9-6 0-4 1.9-5.5 8.4-6.2 5.2-.7 5.7-.5 7.3 1.8 2.1 3.3 2 3.9-.6 5.1-2.1.9-2.3 1.5-2 7.6.3 4.1 0 6.9-.7 7.3-1.9 1.2-1.2 6.4 1.3 9.3 2.4 2.8 2.4 2.8 6.8 1.2 4-1.5 4.5-2 6.6-8 1.3-3.5 2.9-7 3.7-7.9.7-.8 1.8-2.8 2.4-4.3.9-2.4.8-3.1-.8-4.5-2.6-2.3-3.5-6.7-1.6-8.2.8-.7 1.5-2.1 1.5-3.2 0-3.2 3.1-6.8 8.1-9.3 4.1-2.1 5.4-2.3 9.5-1.6q7.5 1.4 7.4 6.7c0 1.2.7 2.5 1.6 2.8q1.5.6 1.8.4l1.5-4.1c1.1-3.3 1.1-4.1-.3-5.6-.9-1-1.7-3.9-1.8-6.7-.3-4.4-.1-4.9 1.9-5.2a6 6 0 0 0 3.6-2.6c1.3-1.9 1.3-2.5.1-4.1q-3.3-4.5 1.4-4.5c1.6 0 3.7-.7 4.8-1.5q4-3.1 8.8.8c2.7 2.2 2.8 2.6 2 6.3-.7 2.9-2 4.5-5.2 6.7-2.3 1.6-4.2 3.4-4.2 4.1 0 .8-1.3 1.9-3 2.6l-2.9 1.2 2.1 2.8c1.7 2.3 1.9 3.5 1.2 7.1-.4 2.4-.7 6.3-.5 8.7.2 3.3-.2 4.7-1.6 5.7q-2 1.5-.4 1.5c.8 0 2.3.7 3.3 1.7 1.6 1.4 2.2 1.4 4.3.3 1.4-.7 2.5-2.2 2.5-3.3 0-2.8 8.9-10.7 12.1-10.7 2.5 0 9.6-4.1 11.1-6.4.4-.6.8-4.9.8-9.5s.5-10.1 1.1-12.2a25 25 0 0 1 13.4-12.3c1.7-.4 4.3-1.2 5.8-1.8l2.8-1.1-3.4-3.6a82 82 0 0 1-14.7-29.9c0-2.2.4-4.3.8-4.6s.7-1.9.4-3.5c-.9-6.4 7.4-33.9 10.3-34.1.6 0 2.5-2.1 4.3-4.5l3.2-4.4V549c0-24.2-.7-28.8-5.3-36.3-2.5-4.1-2.8-5.4-2.4-10.5.5-7.1 2.7-12.8 5.6-14.8 1.2-.9 2-2.2 1.7-2.9-.5-1.5 1.7-3.9 2.7-2.9.3.3 1.9-.3 3.5-1.5q6.6-4.5 11.5.9 2.7 3 5.9 3h3.1l-2-2.3c-3.7-4.1-5.3-11.4-2.8-12.4q1.5-.5.7-1.7c-.5-.6-1.2-3-1.6-5.2-.4-3.1-.2-4.5.9-5.4.9-.7 1.3-2.1 1-3-.3-1 .6-4 2-6.6 2.1-3.9 2.4-5.3 1.6-7.1-.9-2-.8-2.3.9-2.3q2-.1 3-2.5c.5-1.4 1.8-2.5 2.7-2.5q1.8-.1 3.1-3.3l2.3-5.5c.5-1.2 1.6-2.5 2.4-2.8 1.4-.6 1.3-.8-.2-2q-1.7-1.3-.8-2.1c.6-.5 1.1-2.6 1.3-4.7s.9-4.4 1.8-5c.9-.7 1.5-1.9 1.3-2.7-.2-.7.1-2.5.5-3.8.9-2.5-.9-7.1-2.8-7.1-1 0-1.4-8.1-.5-10.5.4-1.2-3.5-11.7-5.7-15-.9-1.4-2.3-2.5-3-2.5q-1.4-.1-1.4-2.8c0-1.5-1.9-7.3-4.2-13-4.4-10.8-8.4-15.6-13.7-16.4-2.1-.3-2.9-1.6-5.6-9.8-3.1-9.4-3.2-9.4-4.3-6.2q-2.2 6.4-2.2-.9c0-3.3.4-4.2 2.1-4.6 1.9-.5 2-1 1.2-5.7-.4-2.8-.6-10.9-.4-18l.3-12.9-3.5 2.2a15 15 0 0 1-5 2.1c-.8 0-3.5-2-5.9-4.4-3.3-3.4-5.2-4.5-8.3-4.9l-4-.4z"/><path d="M607.6 494.5c-2.2 2.5-4.5 4.5-5.3 4.5s-1.3 1.2-1.3 2.9-.4 4.1-.9 5.5q-1.1 2.5.5 3.6 1.2 1.1 1.4.4.1-.6 1.1.3c1.1 1.1-.4 7.2-2.4 10q-1.7 2.4 5 .4c3.9-1.1 9.3-7 11-12s1.7-5-1.7-4.9c-4.1.1-4.6-.7-3.2-4.5s1.6-10.7.5-10.7c-.5 0-2.6 2.1-4.7 4.5M332.5 624.2c-2.7 7.8.4 11.6 5.9 7.4 4.3-3.2 4.1-6.3-.3-8.2s-4.7-1.8-5.6.8m-11.8 11.6c-1 1-1.7 2.2-1.7 2.5 0 1.5 3.8.6 5.4-1.2 1.5-1.7 1.5-1.9.1-2.5-2.2-.8-2-.9-3.8 1.2m4.8 3.3q-.6 1-.1 1.6c.8.8 3.6-.5 3.6-1.7 0-1.3-2.7-1.3-3.5.1m-4.5 3.3q.1.4 1.5 1.6 1.6 1.6 1.5-.4-.2-1.5-1.5-1.6c-1.3-.1-1.5.2-1.5.4m-200.6 82.7c-1 1.2-2.9 2.5-4.1 3-2.4.9-3.1 4.3-1.3 5.4q1.2.7 0 2c-.6.7-.8 1.9-.5 2.6.2.8-.8 3-2.4 4.9l-2.9 3.5 3.1 1q3.2 1 5.4.2c1.8-.8 2-1.5 1.6-4.3-.5-2.8 0-3.8 2.6-6.4 3.6-3.7 4.6-6.9 3.4-10.6s-2.5-3.9-4.9-1.3m306.1 16.1a27 27 0 0 0-9.5 9.8c-1 1.9-2.7 4.4-3.9 5.4-2.1 1.9-3 7.6-1.1 7.6q1 .1 1 1.6.1 2.8 9-1.4c2.8-1.4 3.4-2.2 3.2-4.2-.7-6.3-.3-9 1.8-11.8 1.3-1.7 2-4 1.8-5.5-.3-2.2-.6-2.4-2.3-1.5m-41.2 1.5c-3.2.4-4.9 3.3-1.9 3.3.7 0 1.8.6 2.4 1.2s2.5 1.3 4.4 1.3c3 0 3.3-.3 3.6-3.3.4-3.5.1-3.6-8.5-2.5m-277.9 9.9c-2.6 6.1-2.3 8.5.9 9.7 2.5.8 3.1.6 4.5-1.4a8 8 0 0 0 1.4-4.3c-.2-1 .7-2.9 1.9-4.2l2.2-2.4h-3a18 18 0 0 1-4.7-.6q-1.6-.9-3.2 3.2m259.3 1.8a25 25 0 0 1-11.5 7.6c-1.1 0-2.7.3-3.6.6-1.4.5-1.4.9-.1 3.4 2.2 4.2 1.9 5.6-2.2 10.1l-3.7 4.1-6-.5c-5-.5-6.5-.2-8.8 1.5-3.7 2.6-7.2 1.8-8.7-2-1.6-3.9-5.8-8.2-8-8.2-2.4 0-9.8 6.5-10.6 9.3-.3 1.2-1 3.1-1.5 4.2s-1.1 3.3-1.5 4.8c-.3 1.7-2.9 5-6.2 8l-8.6 8c-1.6 1.6-7.4 5-12.8 7.8a37 37 0 0 0-9.9 6c0 1.2 3.6.3 6.5-1.7 1.1-.8 2.7-1.4 3.6-1.4s2.8-.9 4.2-2c3.5-2.8 5.9-2.6 5.2.2-.2 1.3-.6 3.9-.7 5.8-.3 3.1 0 3.5 2.7 4 1.7.3 3 1 3 1.5q0 1 .7 2.1.9 1.5.1 3.2c-.4 1.8-.9 2-2.4 1.1-2.9-1.5-3.8 1.9-1.1 4 2.6 2 1.5 4.7-1.7 3.8q-2.1-.4-2.1.9.1 1.3 1.8 1.4c1.1 0 2.7.9 3.7 2s1.3 2 .7 2c-1.2 0-1.7 3.2-.6 4.3q.8.4 3.1-1c1.8-1.2 2.7-1.3 3.6-.4.6.6 1.9 1.1 2.9 1.1 2.3 0 2.3 1.1-.1 6l-1.9 4h3.1c1.8 0 3.8.4 4.6.9q1.5 1 3.5-.5c2.7-1.9 2.9-1.8 6.5 1.2 2.7 2.2 3.2 2.4 3.7.9.4-.9.1-2.6-.5-3.8-.9-1.8-.9-3.5.3-8 1.8-7.1 2.2-7.7 4.6-7.7q2 0 4-4c1.1-2.2 2.5-4 3-4 1.6 0 4-5.6 4-9.3 0-3.4 1.5-5.7 3.7-5.7.7 0 3.1-1.3 5.3-2.9s6.9-3.7 10.6-4.7c6.1-1.6 6.8-1.6 11.7-.1 5.3 1.7 6.8 2.9 15.6 12.7q5 5.6 5.4 4c4.2-15.2 8.6-23.2 14.4-26 1.7-.8 4.2-2.6 5.5-4s3.9-3.7 5.8-5.2c2.7-2.1 3.2-2.9 2.1-3.6s-1-1.4.4-3.6c1.7-2.6 1.7-2.6-1.9-5.9q-6-5.5-1.9-9.9c1.5-1.7 1.5-2-1.2-4.8-2.2-2.3-3.2-2.7-4.6-1.9-1.4.7-2.7.5-4.8-.6a15 15 0 0 0-4.4-1.5c-.7 0-2.8-1.5-4.6-3.4-1.9-1.9-4-3.2-4.7-2.9q-1.3.4-1.4-1.1.2-2-1.9-.6c-2.5 1.3-9.8 1.3-10.6 0-.9-1.4-2.2-1.2-2.8.4m-49.3 4a11 11 0 0 0-.2 4.2c.3 2.7.4 2.7 2.1 1 2.1-2.2 2.3-6.6.2-6.6q-1.5.1-2.1 1.4m-5.7 1.3q-1.6.6-1.4 1.6c.6 2 2.5 1.9 3.7-.2 1.1-2.1.9-2.2-2.3-1.4m-23.5 8q.4 1.7 3.3 2.1c3 .4 3 .4 1.1-1.7-2.3-2.6-4.9-2.8-4.4-.4M274.5 781c-1.7 1.9-1.8 2.2-.2 3.7q1.8 1.9 2.8.6c.7-.7 2.4-1 3.8-.7q2.7.6 4.6-1.7l2-2.2-3.5.5a9 9 0 0 1-5.6-.8c-1.8-1.3-2.3-1.2-3.9.6m-142.3 3.2c-1.1 3.4-1.1 4.3 0 4.9 2.4 1.6 4.8.9 6-1.6 1-2.2.8-2.9-1.2-5a11 11 0 0 0-2.9-2.5c-.4 0-1.2 1.9-1.9 4.2m-10.6 27.7c-1.1 1.2-2.5 2.1-3.2 2.1s-1.6 1.5-1.9 3.2c-.4 1.8-1.4 4.1-2.3 5.1-2.3 2.6-.7 3.2 3 1q3.3-1.8 5.1-6.7 3.2-8.8-.7-4.7m-26.4 22.8c-1.8 2.6-2.1 3.9-1.6 7.2.7 4.6 2.1 5.3 3 1.7a10 10 0 0 1 3.5-4.5c3.4-2.5 4.2-5.8 1-4.1-2.7 1.4-2.9 1.3-3.3-1.3-.3-2.1-.4-2-2.6 1m-5.1 7.2c-1.6 1-.6 3.1 1.5 3.1q1.3-.2 1.4-2 .2-3.2-2.9-1.1m-5.1 3c0 1 3 2.4 3.7 1.7q.4-.5-.2-1.5c-.8-1.3-3.5-1.5-3.5-.2m-5 3.5c0 .7.7 1.9 1.6 2.7 1.3 1 1.7 1 2.5-.2q2.3-3.8-1.6-3.9-2.4.1-2.5 1.4m-2.9 2.2q-1.2 2-1.7.6c-.8-1.8-3.2-1.5-4.2.5-.5 1-1.2 3.3-1.5 5.1-.7 3.5-.6 3.6 5.1 4.6 2.8.5 3.5.2 3.9-1.4q.5-2.2 2.4-1.5c2.4.8 2.6-2.6.3-4.6-.9-.7-2-2.2-2.4-3.3-.7-2-.7-2-1.9 0m12.5.1c-.9.9-.7 3.3.3 3.3 1.2 0 2.2-2.8 1.2-3.4q-.8-.5-1.5.1m79 15c.9 3.8 2.2 5 3 2.8.8-1.9-.5-4.6-2.5-5.3q-1.2-.5-.5 2.5m-21.1 4.2c-.3.2-.5 1.5-.5 2.7s-.4 2.6-1 2.9c-1.5.9-1.3 9.5.3 9.5q.9.2-.8 1.2c-2.9 1.6-2.9 1.6-1.2 3.3.9.8 2.5 1.5 3.6 1.5q2.2-.1 2.1 2.4c0 2.8 2.4 5.1 4.6 4.2q1.5-.6 1.2-3.8c-.2-2.5-.8-3.4-2.5-3.6-3.1-.5-2.9-1.9.8-5.3 2.7-2.5 3.1-3.6 3.2-8.6l.2-5.8-4.8-.5c-2.6-.4-5-.4-5.2-.1m17.5 2.2q-.1 1-1.9.4c-2.3-.7-4.4 1.7-3.9 4.6.2 1.7 1.1 2.2 4 2.4 2 .1 4.1-.1 4.5-.4 1.2-.9 3.2-6.9 2.5-7.5-1-1-5.2-.6-5.2.5m-29.6 42.5.6 2c0 1.2 2.9.2 3.4-1.2.9-2.3.8-2.4-2-2.4q-2.9-.1-2 1.6m-7.5 6.1c-.8.2-2.3 1.7-3.2 3.2-2 3.4-2.1 4.1-.6 4.1 1.3 0 6.9-5.8 6.9-7.1 0-.9-.4-1-3.1-.2m71.7 65.1c-2.6 3-6.6 11.9-6.6 14.9 0 1.4-1.1 3.8-2.5 5.5q-3.7 4.5-1.9 9.2c.5 1.2 1 1.3 3 .4 1.8-.9 2.4-1.9 2.4-4.4q0-3.4 3-6.7c1.7-1.9 3-4.2 3-5.1 0-1 .5-2.6 1.1-3.7.5-1.1.9-4.2.7-7-.3-5.1-.3-5.1-2.2-3.1m-34.4 24.3c-3.6 1.7-4.1 2.3-3.7 4.4l1 5c.4 1.8 1.5 2.7 4.2 3.4 4 1.1 6.3.3 8.7-3.1s1.9-5.2-2.2-8.5l-3.8-3.1z"/></svg>