<svg xmlns="http://www.w3.org/2000/svg" width="1365.333" height="1365.333" viewBox="0 0 1024 1024"><path d="M109.7 14.4a383 383 0 0 0-19.8 22.3c-5.1 6.7-5.7 7.9-4.5 9.2 4.6 5.3 7.5 15.4 8.1 28 .3 6.1 2 8.1 6.6 8.1 3.4 0 5.9.9 5.9 2.1q-.2.8-1.5.9-1.8.2-2.4 1.8-2 4 6.1 6.2c3.9 1 4.7 1.7 5.5 4.3.9 3.1 1 3.2 6.4 2.9 5-.3 5.6-.1 8.5 3 2.8 2.9 3.2 4.2 3.7 10.6.6 7 .5 7.4-2.4 10.6-3.6 4.1-4 10.6-.9 16.5 1 2.1 2.9 7.8 4.1 12.6 2 7.9 2.5 8.8 5.5 10.2 3.4 1.6 4.3 4.2 7 19.3.4 2.2 2.2 5.1 4.7 7.7 3.8 4 4.5 4.3 9.3 4.3 5 0 5.3.1 6.2 3.2.6 1.8 1.3 6.4 1.7 10.2.7 8.6 2.7 12.2 7.1 13.1 2.8.5 3.8 1.5 5.9 5.6 1.4 2.8 3.4 6.3 4.5 7.7l2.1 2.6-4.4 2.7c-2.4 1.5-4.7 3.4-5 4.2s2.1 8.6 5.4 17.4c5.5 14.3 6 16.4 5.6 21.8-.4 5.6-.2 6.3 3 10.1l3.3 4.1-2.1 1.9c-1.9 1.7-2 2.8-1.8 15l.3 13.1-3.3 4.2a30 30 0 0 1-6.2 5.8c-2.3 1.4-2.9 2.4-2.9 5.1a12 12 0 0 1-5.9 10.6c-3.7 1.9-5 8.5-2.6 12.3a9 9 0 0 1 1.3 5.1c-.3 2.5-.8 2.8-7 3.7-6.1.9-7.3 1.5-12.8 6.3-3.3 2.9-6 6-6 6.9s-.6 1.3-1.4 1-3-.9-4.9-1.2c-3.2-.6-3.5-.5-4.6 2.6-.6 1.7-1.1 5.9-1.1 9.1 0 5.6-.4 6.5-5 13.1a47 47 0 0 1-9.2 9.8c-4.7 3.2-5.6 4.7-5.7 10q-.2 6.8-7.4 6.9c-2.8 0-4 .6-5.7 2.9a45 45 0 0 0-7.7 21.2l-.6 7.2-10.4 11.9c-5.6 6.5-10.3 12-10.3 12.2l6-.2c5.7-.4 6-.3 6 1.9 0 1.2-1 3.3-2.2 4.6-2.1 2.2-2.1 2.6-.7 5.1 1.1 2.1 2.4 2.8 5.2 3q3.6.4 4.7 2.1c.5 1 2.7 2.6 5 3.5 3.7 1.4 3.9 1.8 2.9 3.9-.8 1.8-.7 3.3.5 6.2.9 2 1.6 4.6 1.6 5.6 0 3.2 4.9 2.5 6.1-.9.5-1.5 2.3-3.6 3.9-4.6s3.3-2.8 3.6-4.2c.6-2.1.4-3.6-.8-10.9-.3-1.7.6-2.1 8.7-3.1s17.2-3.9 24.8-7.9c3.5-1.8 4.7-1.2 11 5 10.9 10.7 15.7 19.9 9.4 18.1-7.1-2.1-8.2-1.9-9.7 1.6-1.8 4-4.9 4.6-15.7 2.8-9.3-1.6-15.8-.7-17.9 2.5-1.5 2.3-1.4 2.7 1.1 7.1l2.7 4.6-2.9 3.6c-1.6 2-3.4 3.7-4 3.9s-1.8-1.4-2.7-3.7c-1.2-3.1-2.1-4-3.9-4-1.3 0-2.7.3-3.1.7-1.5 1.5-9.1.1-11.6-2.2-4.4-4-6.5-4-9.5-.1-2.1 2.7-2.6 4.4-2.3 7.1.4 3.3.2 3.5-2.4 3.5-3.8 0-9.9 4.2-8.7 6.1 1.4 2.2 1 5.2-1.1 7.9-4.6 5.8-.2 17.6 8.2 22 2.7 1.4 4.8 3.1 4.8 3.8s-1.3 3.3-3 5.7-3 5.5-3 6.9c0 2.2-.4 2.6-3 2.6-3 0-3.4.7-3.1 5.5.1 1.1-1 3.6-2.4 5.5-2.3 3.2-2.4 3.5-.8 4.2 1 .3 3.5.7 5.5.7 2.7.1 4 .7 4.8 2.1.6 1.1 2.1 2 3.3 2 2 0 99 53.6 334.7 184.9l61.6 34.2 2.2 15.7 2.2 15.7-4.5 4c-4 3.6-4.5 4.5-5.1 9.7l-.7 5.8h3.4c1.9 0 5.3.9 7.7 2 3.9 1.8 4.2 2.2 4.2 5.8 0 2.4.7 4.8 1.8 6 2.9 3.3 80.2 61.1 119.9 89.6l37.3 26.7 3.7-2.6c4.3-2.9 6.9-3.2 9.4-.9q1.6 1.6 5.3.9c3.2-.6 3.6-1.1 3.6-3.7 0-1.6 1-4.2 2.2-5.9l2.2-3 1.7 3.3 1.7 3.3.7-5c.9-5.8 4.1-12.2 6.6-13q1.8-.5 2.9-6.3c2-10.9 5.4-18.7 13.2-30.6 12.5-19.2 16.3-27.3 18.1-39.6 1.6-10.4 5.4-21 10.4-29 1.2-1.9 2.6-4.6 3.1-6q1-2.5 9.6-7.3l8.7-4.9-.2-7.1c-.2-6.8.1-7.7 5-17.6 4.6-9.1 5-10.5 3.8-12-3.4-3.9-3.8-5.8-2.7-15.1.6-5.1 1.6-10.6 2.4-12.4 3.4-8.3 26.6-18.6 41.7-18.6h7.6l4.1-4.4a23 23 0 0 1 6.4-5.1c6.2-1.9 9.5-8.5 6.7-13.6-1.2-2.2.8-6 2.1-3.9q.5 1 3.9-.1c2.9-1 3.2-1.5 2.9-4l-.5-2.9 2.4 2.2q2.5 2.3 1.8 4.5-.7 2.5 1.5 2.3 6 0 6-5.5c0-4.8-.9-6.5-3.5-6.5-2.1 0-2.5-.8-4-7.2-.9-4-2.9-9.6-4.5-12.4s-2.6-5.5-2.3-5.8c2.5-2.4 7.6 1.9 8.8 7.5 1.1 4.7 2.3 2.5 3-5.5 1-10.9 4.5-10.4 4.5.6 0 4 2 4.3 8.3 1.4 3.1-1.5 7.2-2.6 9.7-2.6 4 0 4.2-.1 3.6-2.5-.5-2.1-.3-2.5 1.4-2.5 1.1 0 2.3.6 2.6 1.4 1 2.5 7.5-.5 13.9-6.6 8.6-8 22.5-27.7 22.5-31.8 0-2.7-5.1-9.7-31.1-42.8l-31.1-39.6.7-204.5.7-204.6 21.3-21 21.3-21 28-37.9a654 654 0 0 0 27.6-38.7c-.2-.4-1.5-1-2.9-1.3s-4.7-2-7.4-3.6a20 20 0 0 0-17.9-1.6c-2.7 1-11.5 1.7-28 2.2l-24.1.7-9-8.3c-5-4.6-9.3-9.2-9.7-10.2q-.5-1.8-3.4-1.8c-4.6 0-6-1-6-4.1 0-2.4-1.1-3.7-6-7.3l-6.1-4.4-22.6 9.9c-12.4 5.4-23.1 10.3-23.7 10.8s-3.8 1.6-7.1 2.5-15.3 6.2-26.7 11.8l-20.7 10.2-4.3 9.5a79 79 0 0 1-15.9 22.9 101 101 0 0 0-12.6 16.6c-1.3 4.5-5.4 4.9-7.9.7-1.8-3.1-4.2-4-15.6-5.6-2.7-.4-4.8-1.1-4.8-1.6 0-1.4-2.6-1.1-3.9.4-1.9 2.4-11.8.9-17.4-2.6-4.8-2.9-5-3-14.7-2.3-13.3.9-22.4-1.1-29.7-6.6-4.9-3.7-5.5-3.9-8.4-2.9-4.7 1.6-7.6 1.3-10.9-1.1-2.9-2.1-3.1-2.1-6.5-.5-3 1.4-6.8 1.7-22.4 1.7-17.5 0-18.9-.1-20.6-2-1-1.1-2.3-2-3-2s-1.9-.8-2.8-1.8-24.8-16.8-53.1-35.2c-42.5-27.6-51.5-33.9-51.6-35.8q.1-2.3-2.3-2.2t-3.5-2.5c-.9-1.8-1.9-2.5-4.1-2.5-1.6 0-5.6-1.5-8.8-3.4l-5.8-3.4-43.4-1.1-43.4-1.2L300 10l-12.8-9-81.9-.6-81.8-.5z"/></svg>