<svg xmlns="http://www.w3.org/2000/svg" width="1365.333" height="1365.333" viewBox="0 0 1024 1024"><path d="M860.3 1.2c-1.3.6-2.3 1.9-2.3 2.9q-.1 1.9-3.5 3.3L851 8.9l2.1 3.5c1.9 3.2 1.9 3.7.5 4.2q-1.6.6-1.6 4.3c0 2-1 5.6-2.1 8.1s-2.9 7.6-3.9 11.5l-3.4 11.7c-1.4 4.4-1.4 4.8.5 7.3 2.3 2.8 1.9 8.2-.7 9.2-1.6.6-1.8 4.1-.4 7.8.7 1.9.6 3.2-.4 4.8-.9 1.3-1.7 6.8-2.1 13.9-.6 9.5-1.1 12.3-2.7 14.3-2.5 3.2-7.7 3.4-10.3.5-1-1.1-2.9-2-4.2-2-1.9 0-2.3.5-2.3 2.9 0 1.6-.7 3.4-1.5 4.1s-1.5 2.4-1.5 3.9c0 5.1-1.9 5.4-6.6 1.1-2.4-2.2-5-4-5.7-4s-2.2-.9-3.2-2-2.8-2-4-2c-1.1 0-2.6-.5-3.2-1.1q-1-1.2-3.1.2c-1.8 1.1-2.4 1-3.9-.4-1.8-1.5-2-1.4-4.6 1.8a12 12 0 0 0-2.7 5.9c0 2-.8 2.7-4.2 3.8-5.1 1.7-7.8 5.8-5.7 8.5 1.1 1.3 1 1.8-.9 3.3a7 7 0 0 0-2.2 4.4c0 1.3-.5 2.8-1 3.1-1.7 1.1-4.2 6.7-3.3 7.4.5.3 1.9 2 3.1 3.7q3.7 5.4-3 5.4c-2.4 0-2.8.4-2.8 3 0 2.3-.4 3-2 3q-2 .1-3.2 2.5-1.8 4.1-4.6 1.3c-2.8-2.8-6.6 2.2-7 6-.3 3-.5 3.2-4.6 3.2-2.4 0-4.8.6-5.3 1.2s-1.3 4-1.6 7.2-1.2 6.3-1.9 6.7c-2.2 1.5-7.7 1-11.6-1-2-1-5.9-2.1-8.6-2.5-4.3-.5-5.2-.3-8.5 2.3-5.1 4-7.4 4.5-9.6 2.1-2.6-2.8-6.2-2.5-9.4.9-2 2.2-3.9 3-8.3 3.5-6.1.8-9.7-.4-13.2-4.3-1.8-1.9-3-2.1-15.4-2.1-12.8 0-13.5.1-16.4 2.5a10 10 0 0 1-6.7 2.5c-2.7 0-4.4.7-6.1 2.5-2.2 2.3-2.5 2.4-4.6 1a10 10 0 0 0-3.4-1.5c-1.6 0-1.2 5.2 1.1 11.6 1.8 5.1 2 7.3 1.5 17.1l-.6 11.1 3 1.1c2.5.8 3 1.5 3 4.2s1.7 4.8 12.5 15.4c11.9 11.7 12.5 12.5 12.5 16.3 0 4.7-3.5 14.8-6.2 17.8-1 1.2-2.1 3.9-2.5 6-.8 5.7-3.8 10.1-7.8 11.4-1.9.6-3.5 1.6-3.5 2.1s-1.1 2.1-2.5 3.4c-3 3.1-6.5 3.3-6.5.5 0-1.6-.7-2-3-2-1.6 0-3-.5-3-1s-1.3-1-2.9-1-3.4-.7-4.1-1.6c-2-2.4-4.8-3.5-10.4-4.4a38 38 0 0 1-6.8-1.5c-1.5-.6-1.8-.2-1.8 2.9v3.7l-4.7-.5a92 92 0 0 0-24.1-.7q-1.7 1-6.8-.6c-8.9-2.7-10.4-3.5-11.7-6.2-1.2-2.4-1.7-2.6-6.7-2.3-3 .2-5.9.8-6.5 1.3-1.6 1.5-5 1-6.8-1.1-2-2.3-3.5-2.5-6-.5-1.6 1.2-2.3 1.1-5-.6a16 16 0 0 0-6.6-1.9c-2.8 0-3.2-.2-2.1-1.5 1-1.2.7-1.5-1.7-2.1a20 20 0 0 1-5.5-2.7 14 14 0 0 0-7-2.2c-5.4-.2-9.9-2.3-7.6-3.6.9-.5 1.9-2 2.2-3.4q.6-2.5 2.6-2.5 1.8-.1 2-1.5c.2-1.4-.8-1.5-1.8-1.5-1.9 0-8.2-5.9-8.2-7.6 0-.6-1.6-2.5-3.5-4.4-4-3.9-4.3-5-1.5-5q1.8-.1 2-.8c0-3.2-12.6-14.6-17.6-15.8-1.9-.5-2.2-.9-1.4-2.4 1.3-2.5 1.3-2.7-.6-3.4-2.2-.8-11.4 5.1-11.4 7.3 0 2.8-2 9.1-2.9 9.1q-.9-.2-1.5-2.5c-.9-3.6-2.4-2.2-3.2 3-.7 5.2-2.9 6-3.9 1.5-.7-3.1-5.5-7.1-10.2-8.5-3.5-1-3 2.9.7 5.7l3 2.2-3.7 3.9c-4.3 4.5-8.1 6.3-9.7 4.7-1.8-1.8-3.5-1.1-4.2 1.7-1 4.3-3.2 7.3-5.4 7.3-2.5 0-2.5.3 0 7.5 2 5.8 2 5.9.1 7.9a25 25 0 0 0-3.5 8c-.8 3.3-2.5 7.3-3.7 9l-2.2 2.9 2.1 6.5c1.6 4.9 1.9 6.9 1 7.9-1.4 1.7-3.6 1.7-5.4-.2q-1.5-1.4-2.4-1.5c-1.3 0-10.4 11-13.3 16.1a19 19 0 0 0-2.7 6.6q0 2-3 3.2c-1.6.5-3 1.6-3 2.3 0 .8-.9 3.1-2 5.3s-2 4.5-2 5.1c0 .7-1.5 1.7-3.4 2.4a17 17 0 0 0-5.6 3.5c-1.8 1.9-2.7 2.2-4.1 1.4-1.7-.9-1.9-.6-1.9 2.5 0 3.4-.2 3.5-4.5 4.2-5.3.8-5.9 1.3-4.5 4.9.9 2.4.7 3.1-1.5 5.1-1.4 1.3-2.5 3-2.5 3.8s-1 2.1-2.2 2.7c-3.2 1.6-3.1 1.5-1.8 3.9.9 1.8.6 2.7-2 6q-3.2 4-5.5 4c-1.4 0-3.3 1.3-4.9 3.2l-3.7 4.5c-1.4 1.8-4.6 1.6-5.3-.2-.8-2.3-6.1-1.8-10.2 1-4.2 2.9-6.2 3.1-7 1-1-2.4-5.2-1.8-7 1-.9 1.4-2.2 2.5-2.9 2.5-2.3 0-12.5 9-12.5 11.1 0 1 1.1 2.9 2.5 4.1s2.2 2.5 1.9 3c-.9 1.5-10.8.9-13.2-.8-2.9-2-4.7-.7-6.9 4.8-1.6 3.9-3 4.6-6.4 2.8-1.6-.9-1.9-.7-1.9 1q.1 2.1-2.9 2.6c-2.5.5-3 1.2-3.3 3.8s-.8 3.2-3.1 3.4c-2.6.3-2.7.6-2.1 3.8q.8 5.2-2.3 2.3c-.7-.7-3.5-1.1-6.4-1q-5.3.1-7.1-1.6c-1.5-1.3-2.3-1.4-4.4-.4s-2.5 1.6-2 3.6c.6 2.4.5 2.5-4.5 2.5-4 0-5.8.6-8.3 2.5-9.2 7.6-13.7 10.4-17.6 11.2-3.8.7-4.5 1.3-5.6 4.5-1.1 3.4-1.1 3.8 1.2 5.9 3.6 3.4 3.2 5-1.1 3.8-2.7-.8-4-.6-5.9.6-3 2-7 1.1-8.3-1.7-.8-1.9-1.4-1.5-6.2 4.6q-5.3 6.7-4.8 8.5c.4 1.7 0 1.8-3.4 1.4-3.1-.5-4.7 0-7.8 2-3.5 2.3-4 3.2-4.3 6.9l-.3 4.3-9.4 4.6c-10.4 5.2-14.4 8.5-27.1 23.2-4.7 5.4-10.2 11-12.3 12.4-5.5 3.8-8.7 8-8.7 11.4 0 1.6.5 2.9 1 2.9 2.3 0 .7 3.7-3.6 8-2.5 2.5-7 7.3-10.1 10.8-5.4 5.9-5.7 6.5-5.4 11 .1 2.6-.5 6.6-1.3 9Q46.1 617 50 617q3 0 3-5.5c0-1.2.6-2.5 1.3-2.8 1.5-.5 3.7-9.9 3.7-15.2 0-3.4 2.2-6.1 3.9-5 1.8 1.1 6.8-2.3 8.2-5.6l1.3-3.3.8 2.9c.9 3.5-.5 6.3-3.7 7.1-1.9.5-2.5 1.3-2.5 3.5 0 1.6.8 3.7 1.9 4.8s2.1 3 2.5 4.6q.6 2.9 2.6 2.2c1.5-.4 2.3.4 3.6 3.9 1.9 4.9 2.1 5 4.4 2.9 1.5-1.3 2.2-1.2 6.8 1 2.9 1.4 6.6 2.5 8.2 2.5h3.1l-1.7 3.1q-2.7 5 2.9 4.9 1.7-.1 1.7 2.9c0 1.7-.4 3.3-1 3.6-1.7 1.1-1.1 2.5 1.1 2.5q2 0 3.2 3 1 3.1 2.9 2.4 2-.8 1.8 2c0 1.4-.5 2.8-1 3.1s-1 1.6-1 2.9-.5 2.7-1.1 3.3c-1.1 1.1-.2 8.3 1.1 8.3.4 0 3-2 5.6-4.5 3.7-3.4 5.7-4.5 8.1-4.5 3.1 0 3.2-.1 2.3-2.5-.8-2.1-.6-2.7.8-3.2 3.1-1.2 4.3-4.3 1.7-4.3q-1.3-.2-1.5-1.5c-.2-1.3.4-1.5.9-1.5 1.7 0 2.1-5 .6-8-3-5.8-.9-5.5 3.4.5 2.7 3.8 3.7 4.5 6.6 4.5q3.5 0 4.5 2c.6 1.1 2 2 3.1 2q2 0 3.8 4.2c1 2.4 2.8 4.9 3.9 5.5 1.8 1.1 2.3 1 3.5-.7q2.5-3.6 4.1 3.4c.6 2.6.8 2.7 2.5 1.2 2.3-2.1 2.8-2 3.4.5.5 1.7 1.1 1.9 4 1.4 4.1-.8 8.7 1.7 8.7 4.7 0 2.6 2.9 6.8 4.7 6.8.8 0 2.3-.5 3.4-1.1 2-1 2-1-.1-4.5q-3.8-6.2 1.5-.8c2.6 2.5 2.7 2.6 4.7.8 1.1-1.1 2.6-3.2 3.3-4.9 1.3-2.9 1.3-2.7 1.4 4 .1 6.3.4 7.4 3.2 10.8 3.5 4.3 8.1 5.1 9.9 1.8.5-1.1 2.4-2.2 4.1-2.6s4.5-2 6.3-3.5c3.2-2.9 9.5-5.3 8.3-3.3-1.5 2.4 6.4 3.1 8.3.8.7-.8 2-1.5 2.9-1.5 2.1.1-2.7 3.9-4.9 4-7.7.1-14.9 6.5-13 11.4.8 2.2.7 2.6-1 2.6-3.1 0-4.5 3.6-2.5 6.6 1.3 2 1.4 2.8.4 4q-1.1 1.3-2.5 1.4c-.7 0-2 1-2.9 2.2-1.5 2.2-1.4 2.4.6 4.1s2.4 1.6 3.9.2c2.1-1.9 4.6-1.9 5.4 0 .7 1.9 5 1.9 6.6 0 1.4-1.7 4-2 4-.5 0 .5-.8 1.9-1.7 3-1.3 1.5-3 2-7 2-5 0-5.3.1-5.3 2.5q.1 2.4 1.4 2.5c2 0 3.1 1.9 1.8 3.2-.5.5-.7 1.8-.5 2.9q.4 2.1 2.7 1.3c2-.6 2-.6-.2 1.9-1.9 2-2.3 3.2-1.7 5.8.6 2.8.5 3.1-1 2.5-2.3-.8-4.5 1.1-4.5 3.9q0 2.5-1.8 1.9c-2.5-.7-8.6 5.9-7.9 8.5q.4 2.1-.9 2.1c-1.9 0-5.6 7.7-4.9 10.1q.7 1.7 1.6 1.9c.9.2.9.9.9 1.9 0 1.1.5 2.3 1 2.6 2.4 1.5.8 2.7-3 2.2s-4-.3-4 1.8q-.1 2.1-1.5 2.8a19 19 0 0 0-4.1 4.7c-2.1 3.1-2.5 4.6-1.8 5.8.8 1.2.3 2.2-2.3 4.5-3.8 3.4-6.3 7.6-6.3 10.7 0 1.2-1 3.5-2.1 5.2-1.9 2.5-2.1 4-1.7 10.2.3 4 .8 7.8 1.2 8.4s2.6 1.2 4.9 1.2c4.2 0 4.3.1 5.6 4.7a22 22 0 0 0 5.3 8.7c3.5 3.5 4.1 3.8 7.5 3.1 2.1-.3 5.3-1.5 7.1-2.6 1.8-1 5-1.9 7.1-1.9 2.7 0 4.4-.7 6.1-2.5l2.4-2.5 2.5 2.4c1.4 1.3 4.2 2.6 6.3 2.9 6.4 1 13.8 7.2 13.8 11.7 0 2.1-3 .8-4.2-1.8q-1.3-2.7-4-3c-2.4-.3-2.8.1-3.4 3.2-.8 4.5-2.7 4.8-2.2.4.3-3-.1-3.5-4.7-6-6.1-3.3-6.2-3.3-7-.7-.6 1.9-1.2 2.1-5.5 1.5-3.6-.5-5-.3-6 .9-.7.8-1.9 1.5-2.6 1.5q-1.3 0-1.4.7c0 .5-.9 1.9-2 3.3l-1.9 2.5-2.5-2.4c-2.2-2.1-2.8-2.2-6.1-1.1-2 .7-5 .9-6.7.6-3-.6-3.1-.6-2.5 2.9.3 1.9.2 3.5-.2 3.5s-2.2-1.6-4.1-3.5-3.9-3.5-4.5-3.5c-1.1 0-.4 11.1.9 14 .5 1.3-.1 1.5-3.4 1.2-3.7-.4-4-.2-4 2 0 1.4-.3 2.8-.6 3.1-1.2 1.1-4.4-1.3-4.4-3.3q.1-2-3.7-2.9c-6.3-1.8-7.4-1.5-6.7 1.6q1.8 7.3 3.4 7.3c.5 0 1 1.8 1 4.1 0 3.3-.6 4.7-3 6.9-1.6 1.5-3 3.7-3 4.9s-.4 2.1-1 2.1q-.9-.2-1-1.5c0-3.3-1.9-1.1-4.6 5.2a39 39 0 0 1-6.8 10.7c-3.7 3.7-3.8 4-2.8 7.5.6 2 1.3 6.2 1.5 9.4q.4 5.8 2.4 8.5c2.3 3.1 6 4.1 6.9 1.8.7-1.8 4.9-2.2 5.9-.6q.4.9-1.4 1c-1.8.1-2.8 1.1-3.9 2.5-2.2 2.8-4.2 3.3-4.2 1q-.1-1.3-1.5-1.5-2-.3-3.6-2.1l-2.1-2.1-3.5 3.4a21 21 0 0 0-4.4 5.7c-.8 1.9-1.5 2.2-3.7 1.8-2.1-.4-3.4.1-6 2.6-2.5 2.5-4.4 3.3-8.5 3.7-4.4.4-5.2.8-5.5 2.7-.3 2.2.8 2.8 10.3 5.2 5.1 1.3 19.8-.8 22.2-3.2 1.5-1.5 2-1.4 6.2 1.7 10.1 7.3 13.6 8.8 18.8 8 2.6-.3 6-1.3 7.5-2 4.8-2.4 21.2-1.8 24.7.9 1.1.9.8 1.6-1.5 3.4-2.5 2-2.7 2.5-1.6 4.3 1.6 2.7 1.5 3-.8 3q-2 0-2-1.9c0-3-2.5-4.4-6.2-3.5-1.8.4-4.9.6-6.9.5-3.2-.1-3.7.2-4.1 2.4q-.6 2.5 2.4 7.1c2.4 3.8 3.2 4.4 5.1 3.8 2.2-.7 2.2-.7.3 1.5-1.6 1.7-2.6 2-5.5 1.5a31 31 0 0 1-6.5-2.1c-2.6-1.4-3.1-1.3-5.5.5a17 17 0 0 1-5.8 2.6c-1.7.4-3.4 1.4-3.7 2.3-.8 1.9.9 4 1.8 2.4 1.1-1.7 2.9-1.3 2.2.5-1 2.5 2.2 5.4 5.8 5.4q3 0 4.3 1.8c.6 1 3.5 2.4 6.5 3.1q9.6 2.4 15-3.4c2.3-2.5 5.2-3.2 6.2-1.6.3.5 1.5.7 2.6.4 1.6-.4 2 0 2.1 2.1l.3 3.5c.1.5-1.8 2.3-4.1 4q-7.4 5.2-1.8 6.3 2.3.4 2.5-.2.4-.9 3-1.2c2.6-.4 3-.2 3 1.9v2.4l3-2.1c1.7-1.2 4-3.9 5.1-6.1s2.3-3.8 2.7-3.6l4.6 2.3 3.9 1.8 2.1-2.7c1.2-1.5 3-2.7 4-2.7 1.4 0 1.6.5 1.1 2.8-.4 2.1-.1 3.3 1.5 4.7q1.9 1.6 2 .6.2-1.3 1.1-.5 1.2.6-.4 2.1c-1.3 1.3-1.8 1.3-4.5-.1-4.8-2.5-7.7-2-11.6 1.9-2 1.9-4.5 3.5-5.7 3.5-2 0-2.1.1-.5 2.5.9 1.4 1.3 2.5.8 2.5s-2.5 2.3-4.5 5c-3.6 4.9-3.7 5.1-2.2 7.9 2.2 4.3 3 4.4 4.4.5 1.7-4.7 6.3-6.7 13-5.8l4.7.6 1.7-4.3 1.9-6.3c.5-2.9 2.5-3 3.2-.1.7 2.7 3.3 3.4 4.2 1 .9-2.3 3.3-1.8 4.4 1q1 2.6 3.5 2.5c2.5 0 2.5 0 2.5-8.9 0-6.3.4-9.1 1.3-9.3q1.8-.6 1.7-9.6c0-4 .5-4 2.5-.2 2.3 4.4 6.5 4.2 10.1-.5 3-3.9 2.6-5.9-.6-3-2 1.8-2 1.8-2-1.8q0-3.8 1.5-3.7 1.4-.1 1.5-1.1-.2-1.1-2.9-.7c-2.3.3-2.7.1-2.3-1.4.2-1 .1-2.5-.2-3.5-.6-1.4-1.1-1.2-3.4 1.5l-2.7 3.1-3.7-2.5c-4.4-2.8-7.3-6.8-6.5-8.8.6-1.5 6.3-1.6 10.2-.2 5.2 1.9 8.5 3.7 8.5 4.6q.1.9 1 1 1-.2 1-2c0-2.8 3.2-2.6 7.8.5 2 1.4 4.2 2.5 4.9 2.5 1.6 0 1.7 2.2.2 3.7-.7.7-.9 2.3-.5 3.8.6 2.2 1.1 2.6 3.2 2.2 2-.3 2.3-.1 1.9 1.4q-.7 1.7 4.2 6.2c2.7 2.5 5.3 6 5.8 7.9.8 2.7 1.5 3.3 3.9 3.3 1.5.1 3.4.9 4.1 1.8s2 1.7 2.9 1.7c1.5 0 1.5-.3.1-3-.8-1.6-1.5-3.7-1.5-4.6 0-1-.8-2.6-1.7-3.6-1.3-1.5-1.5-2.3-.6-3.6 1.6-2.6 2.4-2.1 6.6 3.8 4.4 6.3 5.3 6.9 7.1 4.4 1.2-1.6 1.4-1.2 2.1 3.6.4 3 2.3 8.4 4.3 12.2 3.2 6 4 6.9 7.4 7.9 2.1.5 4.3.7 4.8.4 1.5-.9 1.2-8.1-.4-11.9s-.7-6.2 3-7.6q2.5-1 2.4-3.5c0-2.4.2-2.5 2.2-1.3 1.3.7 3.1 1.1 4.2.9 1-.1 3.1.3 4.7.9 2.6 1.1 3.3 1 6.7-1.4 2.1-1.4 4.7-2.6 5.9-2.6 1.1 0 2.3-.7 2.7-1.5.7-1.9 4.6-2 4.6-.1s3.9 6.6 6.4 7.7c1.1.5 5 3.4 8.6 6.4 8.6 7.3 11.3 8 18.6 5 5.2-2.1 5.9-2.8 7.7-7.2a49 49 0 0 0 1.1-22.1c-.5-2.8-.3-3.2 1.5-3.2a16 16 0 0 0 5.8-2c2.1-1.1 4.5-2 5.4-2s4.3-2.8 7.6-6.3c5.1-5.3 6.3-7.2 7.2-11.7 1.1-5.2 1.6-5.8 8.1-10.8 6.9-5.2 7-5.4 7-10 0-4.3.5-5.2 5.4-10.5 2.9-3.1 5.9-5.7 6.7-5.7s3.6-2.2 6.3-4.9c4.5-4.5 5.1-4.8 7.7-3.9 2.4.8 3.6.6 7.2-1.5 3.7-2.2 4.9-2.4 8.3-1.7 5.7 1.4 10.7 1.2 13-.4 1.7-1.2 3-1.2 9.6.4 4.1 1 8.5 2.3 9.7 3 1.9 1 2.9.7 7-1.9 5.3-3.4 10.7-4 18.4-1.9 3.6.9 5.6.8 11-.5 9.3-2.4 11.1-2.2 14.2 1.4l2.6 3.2 4-1.8a21 21 0 0 0 5-3.1c.8-1 1.8-1 5.1.2 2.2.8 8.3 2.1 13.4 3l9.4 1.6 10.9-7.7a71 71 0 0 0 20.7-18.7c2.5-3.5 2.9-5.3 3.7-15.6.5-6.5 1.2-12.4 1.6-13.2s2.2-2.4 3.9-3.5c2.9-1.8 3.1-2.5 3.2-7.4v-5.5l-7.5-7.3c-4.2-4-7.8-7.3-8-7.3q-.5.1-.5 1.5.2 1.6-4 1.5c-3.9 0-4.2-.3-8.3-6.8a31 31 0 0 0-7-8.1 5 5 0 0 1-2.9-4c-.3-2.4-1.1-2.8-8.5-4.8-9.3-2.4-13.8-5.1-14.7-8.8q-.6-2.5-2.5-2.5t-2.6-3c-.4-1.6-1-3-1.4-3s-2.9-1.6-5.4-3.6c-3.6-2.8-4.7-4.3-4.7-6.5q0-2.7-2.9-5.1a37 37 0 0 1-6.5-9.6c-3.7-7.4-5.9-8.9-8.6-5.7-.7.9-2.9 1.5-5.3 1.5-3.1 0-5.1-.9-8.9-3.7-3.9-3.1-5.5-3.7-8.6-3.4-2 .2-4.4.7-5.3 1.2-1.3.7-2.3-.1-4.3-3.2-2.6-3.9-2.8-4-5.1-2.5-2.1 1.4-2.7 1.3-7.8-1.5-4.4-2.3-5.8-3.7-6.8-6.6-1.5-4.6-.6-12.3 1.6-13.9 1.4-1 1.6-2.1 1-5-.6-3.4-.5-3.6.9-2.5q1.5 1.4 1.6 3.1c0 1.5 1.8 3 3.7 3 .2 0 .2-1.4-.2-3.1-.7-3-.7-3 2.9-2.4 3.3.7 3.6.5 3.6-1.7 0-1.4-.9-3.3-2.1-4.4-1.6-1.5-2.4-1.6-3.9-.6-2.7 1.6-6.9 1.5-7.6-.2-.7-1.8 3.3-5.9 5-5.3.8.3 2.3-.8 3.5-2.4 3.1-4.2 5.1-3.8 5.1 1 0 3.9 4 14.1 6.8 17.3.8 1 2.6 1.8 3.9 1.8 2.2 0 2.3-.3 1.8-3.8a98 98 0 0 0-4.6-18.5 36 36 0 0 1-1.9-13.3c0-9.1 1.2-12.7 5.8-17.6 2.4-2.6 2.4-2.8.8-6.2-.9-1.8-1.6-3.9-1.6-4.5s-1.8-1.1-4-1.1c-3.4 0-4-.3-4.6-2.6-.4-1.4-.4-5.3-.1-8.6.5-5.2 1-6.5 4.1-9.7 2-2 3.6-4.6 3.6-5.8 0-2.6 8.2-10.3 11-10.3 1.1 0 2.7 1.1 3.6 2.5 1.3 2 1.9 2.3 3 1.4.8-.6 1.4-1.7 1.4-2.3 0-.7 1-2.2 2.3-3.4 1.8-1.7 3.6-2.2 7.5-2.2 5 0 5.3-.2 5.8-2.8s1.2-3 6.9-4.1c6.1-1.2 6.3-1.4 7-4.7.3-1.9.2-4.2-.4-5.1-1.4-2.6 1.3-7.3 4.3-7.3 2.3 0 7.5-4.8 11.2-10.5 1.5-2.3 2.2-2.6 5.3-2.1 2 .4 6.3.9 9.6 1.2 3.7.4 6.8 1.3 8 2.4 1.8 1.6 2.3 1.7 4.5.5a14 14 0 0 1 5.2-1.5c2.9 0 4.8-2.4 4.8-5.9 0-4.5 4.4-3.5 6.5 1.5q2.6 6.7 5.9-.5c2.5-5.7 7.8-10.1 12.3-10.1 2.8 0 4.3-.8 6.9-3.5q3.3-3.5 6.1-3.5 3 0 6.2-3.4c1.9-1.9 5.8-4.3 9.1-5.5 6.5-2.4 7.7-3.5 8.6-7.8.5-2.5.1-3.4-2.1-5.1-1.4-1.1-3-2.2-3.5-2.4s-.7-2-.3-4.1c.4-2.8 1.1-3.9 2.9-4.3 1.2-.3 3-1.4 4-2.5s3.5-2.2 5.6-2.5c2.1-.4 4.1-1.1 4.4-1.5.3-.5 1.5-.9 2.7-.9 3.6.1 16.4-7.2 18.2-10.3a32 32 0 0 1 12.6-12.2c2.6-1.4 5.1-3 5.4-3.6q.9-1 4-.5c2.8.6 3.7.2 6.4-2.9 1.7-2 3.1-4 3.1-4.6s1.4-2.4 3-4.1 3-3.8 3-4.9 1.6-5.4 3.5-9.6q3.5-7.6 3.5-11.8c0-3.9.3-4.4 3.1-5.4 4.6-1.6 5.2-1.4 7.1 1.9 2.3 4.1 3.5 3.8 4.9-1.3.7-2.6 2.6-5.6 5.1-8 3-2.8 3.8-4.2 3.3-5.8-.6-1.9-.5-2 1.5-.9 1.9 1 3.1.7 8-1.9 3.4-1.8 7.3-3.1 9.4-3.1 2 0 3.6-.3 3.6-.8s1.1-2 2.3-3.6q4-4.8 20-5c3.1 0 5.7-.2 5.7-.5l3.2-14.7c1.3-5.7 1.3-6.2-.4-7.3-4-2.5-4.7-7.7-5-37.6-.1-10.8.9-20.2 2.3-21.1.5-.3.9-1.8.9-3.3 0-1.6 1.1-4.4 2.3-6.3 1.4-1.9 2.6-5.7 3-8.6.6-5.1.6-5.2-2.1-5.2-2.1 0-4.5-1.9-10.9-8.6l-8.3-8.7v-7.1a80 80 0 0 1 2.5-17.1c2.1-8.1 3.2-10.6 5.9-13.5 4.1-4.2 5.6-7.1 5.6-10.3 0-3.8 2-8.6 4.1-9.8 1.4-.7 2.7-.5 4.8.6 5.1 2.6 5.7 2.1 6.6-4.8.5-3.4.7-8.2.6-10.6-.1-4.4 2.2-11.1 3.8-11.1.5 0 2.2.7 3.7 1.5 2.7 1.4 2.9 1.3 3.2-.3.2-.9.8-2.1 1.3-2.6s.9-1.9.9-3a63 63 0 0 1 4.2-16.6q.8.1 2.2 1.6 1.8 1.8 2 .2l1.6-5.7c1-3.8 1.3-4.2 2.2-2.7 1.4 2.4 2.8.4 2.8-4 0-2.7.4-3.2 3.2-3.8 2.4-.5 3.7-.1 5.3 1.4 2.7 2.5 3.5 2.5 3.5 0q-.1-1.9-1.6-2c-2.8 0-1-3.5 2.3-4.4q3-1 3.6-3a40 40 0 0 1 8.3-16.7c2.1-2.1 4.1-3.9 4.5-3.9s.9 1.7 1.1 3.7c.4 4.7 2.5 5.4 3.9 1.4.6-1.7 1.7-3.1 2.4-3.1s1.6-1.6 1.9-3.5q.6-3.7 2.6-3.5c2.2 0 2.6-2 .9-3.7q-1.2-1 .2-3.1c1-1.6 1-2.6.1-4.6-1.4-3.1.2-3.6 3.4-1.1 2.8 2.1 4.6 1.8 7-1.3 2-2.4 2.5-2.5 4.3-1.5 3.4 2.1 4.3 1.6 3.6-1.7-.5-2.4-.3-3 1.1-3s1.6.7 1.1 4c-.5 3.9-.4 4 2.4 4q3.1.1 2.9-1.9c0-1 .6-2.1 1.4-2.4s1.7-1.6 1.9-2.9q.5-1.8.3 1.4a12 12 0 0 1-1.4 5c-.9 1.1-.6 2 1.4 4.1a7.5 7.5 0 0 0 9.5 1.7c2.6-1.4 2.4-3.2-.6-6.8-2.7-3.2-3.1-5.3-1.5-8.2 1.5-2.8-3.6-13-6.5-13-5.3 0-6.5-1.1-6.5-5.4q0-4.1-3.1-9.6a48 48 0 0 1-4.1-12.1q-1.2-6.7-3.1-7.8c-3.1-2-5 .4-4.4 5.6.4 3.5 0 4.6-1.9 6.4-3.1 2.9-4.3 1.8-5.2-4.7-.6-4-1.1-4.9-2.8-4.9A48 48 0 0 1 918 59.9c0-1-1.1-2.6-2.3-3.6-3.8-3-4.6-5.5-5.3-16.2-.7-9.4-.5-10.4 1.7-14.6 2.4-4.6 2.4-4.6.4-6.2-1.6-1.2-3.8-1.4-10.5-1-4.7.2-9.1.2-9.7 0-1.6-.6-1.7-3.3-.2-3.3q1-.1.5-2.6c-.4-1.4-.2-3.2.4-3.9 3.1-3.7-3.6-6.1-8.4-3-1.8 1.2-3.7 1.4-9.2.8-5.8-.7-6.9-1.1-7.3-2.8-.6-3.5-3.6-4.3-7.8-2.3M967 116.5l-1.5 1.5c-1.3 1-1.5.9-1.5-.8q0-2.2 1.5-1.6 1.3.6 1.5.9M222.5 1005q.4.9-.3 1l-4.3.6c-3.4.6-3.4.6-.9-.9q4.4-2.7 5.5-.7"/><path d="M144.2 657a8 8 0 0 1-3.6 4.1c-2.8 1.3-4.3 3.9-2.1 3.9s3 4.1 1.1 5.2-2.2 5.8-.3 5.8c.7 0 3.3-2 5.7-4.5s5-4.5 5.7-4.5c1.9 0 1.6-3-.4-5.3-1.7-1.8-1.7-1.9 0-3.2q3.4-2.6-.5-3.9c-3.9-1-4.6-.7-5.6 2.4m-37.4 5.3c-3.5 2.8-3.5 3.7-.1 3.7 1.4 0 3.5.7 4.5 1.7 1.7 1.5 1.9 1.5 3.8-.2 5.9-5.3-2-10.3-8.2-5.2m10 5.8c-2.2 1.2-2.4 5.9-.3 5.9q1.4-.2 2.1-2.5 1.3-5.2-1.8-3.4m12 189q-2.9 2-2.8 5c0 3.2 1.4 3.8 2.8 1.3 1-1.9 7.4-1.1 9.3 1.2.6.8 1.8 1.4 2.5 1.4 2.2 0 1.6-4-1.2-7.7q-4.5-5.8-10.6-1.2"/></svg>