<svg xmlns="http://www.w3.org/2000/svg" width="1365.333" height="1365.333" viewBox="0 0 1024 1024"><path d="M603.9 1.7q-1.4 1.5-1.5 11.2c0 11.2-2.1 17.6-8 24.8-8.1 9.9-26.8 22.3-33.6 22.3-1.5 0-7.1-1-12.5-2.1l-9.7-2.2-5.4 2.8c-5.7 3-6.8 2.9-12.4-1.7l-2.8-2.2-10.1 1.8c-9.8 1.7-10.4 1.7-15.5 0l-5.3-1.8-5.5 3.7c-3.1 2-6.1 3.7-6.7 3.7s-4.3-1.4-8.2-3.1c-6.8-3-7.4-3.1-11.7-1.9-8 2.2-9.1 2.3-13.2.4s-4.1-1.8-10.2.4a37 37 0 0 1-8.8 2.2c-3.4 0-20.2 13.1-24.2 18.8-1.5 2.2-3 5.9-3.3 8.2-.5 3.7-1.3 4.8-6.8 9.1s-6.5 5.7-8.5 11.1a37 37 0 0 1-20.8 20.4c-3.2.9-6.1 2.2-6.7 2.8-.5.7-.9 5-.7 9.4l.4 8.2 2.6-.6 2.7-.7-3.3 3.5-3.3 3.5.7 7.9c.3 4.5.1 9.9-.5 12.4l-1 4.5 6.1 5.7c3.4 3.2 6.5 5.8 7 5.8q.7 0 .8 1 .2 3-9.3-3a25 25 0 0 1-7.5-6.6c-.7-1.4-1.2-5.6-1.2-9.4s-.3-7-.7-7c-.5.1-1.9.7-3.3 1.5a12 12 0 0 1-11.1 0c-2.7-1.4-3-1.4-3.6.1-1.6 4.3 1.4 17.9 6.5 29.4 2.8 6.3 5.4 13.2 5.7 15.2.6 3.2 1.1 3.8 3.2 3.8 2.5 0 2.5 0-1.1 4-2 2.2-3.6 4.3-3.6 4.8s1.6 1.8 3.6 3.2c3.3 2.2 3.6 2.7 3.1 6.2-.5 4 .7 5.8 2.6 3.9 1.5-1.5 2.7-1.4 6.5.9l3.3 2-2 2.9c-1.2 1.6-2.1 3.5-2.1 4.3s2.9 3 6.5 4.9q10.5 5.5 2.4 5.3c-1.9 0-3.6.2-3.9.5-1.1 1.3-8.2 4.1-9 3.6-1.1-.7-1.7 6.5-1.2 13.7.4 4.9.7 5.7 1.9 4.7 2.5-2.2 3.7.4 2.5 5.3l-1.1 4.3 5.2-5.8c5.6-6.3 9-7.3 13.5-4.1 3.1 2.2 2.8 3.9-1.7 7.4-3.6 2.9-3.8 3.4-3.4 7.4a12 12 0 0 1-1.1 7.4c-1.7 3.2-1.7 3.2 1 3.2 1.4 0 3.9.8 5.5 1.7 2.5 1.5 2.7 1.9 1.4 3.3s-.7 2.3 4.8 8.1c8.2 8.6 9.5 9.3 13.8 7.1 2.7-1.3 3.5-2.4 3.7-5q.3-5 3-2c2.7 3 1.4 6.3-1.1 8.6a44 44 0 0 1-8.9 5.2c-6.9 3-9.1 5.3-10.3 10.3q-1.7 7-4-2c-3.6-12.7-5.7-18.1-8.3-21.2-2.4-2.9-3.7-3.5-9.2-4.3-5.8-.8-6.6-.7-7.8 1-1.2 1.8-1.4 1.7-5-1.7-2.1-2-7.1-5.6-11.1-8l-7.3-4.3-2.8 3.3c-3 3.7-2.9 4.6 1.3 9.1q2.6 2.7 1.2 3.2-1.3.6-1.7 2.8c-.3 2-.7 1.7-3.1-2.4-3.2-5.6-5.2-6.8-10.4-6.8-4.2.1-11.4 2.8-7.8 2.9 3.2.1 6.7 3.1 6 4.9q-.6 1.7 3.2 4.8l3.8 3.2-1.8 3.6c-.9 2.1-3.1 4.5-4.7 5.4s-3 2.2-3 2.7a8 8 0 0 1-1.6 3.3c-1.4 2.1-1.8 2.2-3.3.8-1.5-1.3-1.6-1.1-1.6 2.2 0 4-2.3 5.4-5 3.2-2.3-1.9-2-10.4.4-12.1 1.8-1.4 1.8-1.5.1-5.4l-1.7-4-2.3 5.2c-2.9 6.6-7.9 8.2-9.6 3.1q-.6-2-1.5-1.1c-.9.9-.5 2 .3 3.7 1 2.4 1 2.9-.5 3.7q-3.3 2 .2 3.4c2.3.7 3.5 3.5 2.2 4.8q-1 1-3.7-.2c-2.4-1.1-3-.9-5.6 1.6-4.1 3.9-5 5.9-4.2 9.6l.6 3.1 1.5-2.7c1.4-2.8 1.4-2.8 4.4-1q6.7 3.9 5.4 7.2c-.5 1.6-1.5 2.1-4.1 2.1q-3.5 0-3.4 1.5c0 2.4 2.4 1.8 8.1-2s7.9-3.9 7.9-.4c0 1.2 1.6 3.9 3.5 6q5.7 6.3 2 11.3c-1.9 2.5-1.9 5.6 0 5.6 2.7 0 4.7 5.9 5.2 15.8.5 7.9 1 10.1 3.1 13.3 2.2 3.4 3 3.9 6.4 3.9q3.7 0 3.8-1.3c0-.6-3.2-11.8-7-24.7-6.7-22.6-8.1-29.2-6.1-30.5 2-1.2 4.1 3.9 4.1 9.8q0 5.8 1.3 6.1l4.4 1.3c3.6 1.2 4.3.4 4.3-5.1 0-3.6 2.4-7.6 4.6-7.6q2 0 1.7 10.2c-.1 1.6.3 2.8.8 2.8 1.5 0 1 2.2-.7 3.5-1.5 1-1.4 1.8.5 8.6a60 60 0 0 1 2.1 13.7c0 4.6.4 6.4 1.5 6.8q2.7 1.2.3 8.2c-1.1 2.9-1.1 3.6 0 4 2 .6 8.2 6.2 8.2 7.4 0 .5-1.3 1.4-3 1.9s-3 1.5-3 2.1c0 .5 1.4 2.9 3 5.2l3.1 4.2-2.1 10.8c-1.2 6-2 10.9-1.8 11.1l4.3 2.3c5.7 2.8 12.5 10.4 12.5 13.9.1 3.9 6.4 12.3 9.2 12.3 1.2 0 3.4-1.2 4.9-2.6 2.6-2.5 18.9-8.9 18.9-7.4 0 1.4-4.7 5-9.3 7-2.7 1.2-5.1 2.8-5.4 3.6-.9 2.4-3.4 3.2-17.4 5.4-7.4 1.2-13.6 2.4-13.8 2.6s1.8.8 4.3 1.5c5.4 1.3 6.9 3.4 6.4 8.7-.3 3.2 0 3.7 1.9 4 1.2.2 3.6-.4 5.4-1.3 2.8-1.5 4-1.5 9-.5 5.4 1.2 6 1.1 9.3-.9 2-1.3 4.5-2.1 5.7-1.9 2 .3 1.8.7-2.4 5-3.8 4-5.3 4.8-9.5 5.4-7.3.9-8.3 1.9-4.8 4.9 1.6 1.3 4.7 3.1 6.8 4.1 3.3 1.5 3.8 2.1 3.8 5.1 0 3.8-1.3 4.2-5 1.3-1.9-1.5-4.1-2-9.7-2h-7.2l-2.1 4.7q-4.1 9.2-12.7 13.4c-4.4 2.1-12.3 10.1-12.3 12.5 0 .7 1.2 2.6 2.6 4.3 3 3.6 4.9 3.8 13.6 1.5 7.7-1.9 10.6-1.6 13.1 1.8 2.1 2.9 1.7 7.2-.5 5-1.8-1.8-4.5-1.4-6.1.8-1 1.5-3.2 2.2-8.4 2.9-3.9.5-7.9 1.4-9 1.9-2.9 1.6-6.9 7.2-10.9 15.4-2.7 5.6-3.4 8.1-3 10.8s.1 3.8-1.3 4.7c-1.1.7-2.6 3.4-3.5 6s-3.7 7.9-6.1 11.7a41 41 0 0 0-4.5 8c0 .7.7 2.2 1.6 3.5 1.3 1.9 2.3 2.2 4.9 1.8 3.2-.5 3.3-.4 3.9 3.5.5 3.3 1.9 5.3 6.8 10l6.1 6-1.2 3.8c-1.2 3.9-6 10-8 10-1.4 0-1.4-1.7-.1-2.5 1.4-.9-3.1-8.5-5-8.5a8 8 0 0 1-3.8-1.6c-1.8-1.2-2.2-2.5-2.2-6.6s-.3-4.8-1.3-4c-.7.6-3.2 1.2-5.7 1.4-4.3.3-5.6 1.4-7.3 6.2q-.5.7-2.3-.4c-2.5-1.6-8.6-.6-10.5 1.6-1.1 1.3-.7 2.1 2.7 4.9 2.1 1.9 4.9 3.4 6.1 3.5 1.3 0 3.2.9 4.4 2.1l2.1 2.1 2.2-2.1a8 8 0 0 1 4.4-2.1c1.8 0 2.2-.6 2.2-3.1q-.2-3.4 1.6-2.5l2 .6c.2 0 .4 1.6.4 3.5 0 3.3.2 3.5 3.4 3.5q3.4 0 4 1.6c.7 1.9.8 1.7-2.1 3.3a4 4 0 0 0-2.3 3.9c0 2.6.2 2.7 4.4 2.4l4.4-.4-1.4 5.9c-1.8 7.7-1.7 11.5.3 15.8l1.7 3.5-3.7 3.8c-2 2.1-3.7 4.8-3.7 6 0 2.7.1 2.7 5 .2s6.1-2.5 11.1 0l4 2.1 1.9-2.3 1.9-2.3.1 3.1c0 3-2.5 6.4-4.7 6.4q-1-.2-2.3-1.5c-1.3-1.3-2.7-1.5-4.4-1.5-4 0-12.3 3.7-11 4.9a40 40 0 0 0 8.2 3.1q11 3.2 11.2 7.5c0 .8.9 1.9 2 2.5 3.2 1.7 2.3 3-2 3-2.2 0-4 .4-4 1q-.1.9-1.4 1-1.9 0-4.1-7.8c-.3-1.2-1.4-2.2-2.3-2.2s-2.6-.3-3.7-.6c-1.6-.4-2.4.3-3.8 3.1-2.7 5.7-2.2 6.9 4.9 12.6 7.7 6.1 7.4 8.2-.8 5.1-6.6-2.4-9.1-5.9-10.8-14.9-1.6-8.5-3.5-13.3-5.3-13.3s-5.7 10.4-5.7 14.7c0 1.7.9 4.2 2.1 5.7 1.3 1.6 1.9 3.5 1.6 4.8-.8 2.8 3.1 6.5 7.7 7.3 2.1.5 4.5 1.8 5.7 3.3q2 2.9 2.8 1.3c1.1-1.8 4.3-.7 8 2.9 2.6 2.3 3.1 3.6 3.1 7.3 0 2.4.3 5.9.6 7.6.6 2.6 1.1 3.1 3.5 3.1 2.6 0 2.9.3 2.9 3.4 0 1.9-.5 3.8-1 4.1s-1.7 2-2.6 3.6c-1.4 2.9-1.4 2.9.4 1.8q5.3-3.4 5.2 5.6c0 3 .2 5.5.5 5.5s1.9-1 3.5-2.1 3.5-1.9 4.4-1.6c2.1.8 2.8-.7 3.5-7.7l.6-6.1 6.6-3.5c8.2-4.3 9.9-5.8 9.2-7.6-.3-.7.2-1.7 1.1-2 3-1.2 5.7-8.2 6.3-16.3.7-9.8 1.5-11.3 3.6-6.8 1.2 2.5 1.7 6.2 1.7 13.1v9.5l3.7 2.6c4.4 2.9 6.9 3.2 9.5.8 1.5-1.3 2.3-1.4 4.4-.5 3.3 1.6 3.1 1.6 3.9-1.8.5-2.5 1.1-3 2.6-2.5 1.7.6 1.9.1 1.9-5.3 0-4.6.4-6.3 2-7.7 1.5-1.4 1.7-2.1.8-3.2-.8-1-.8-2 .1-3.9.6-1.4 1.1-3.3 1.1-4.3 0-1.2 2.5-3.5 6.7-6.2 3.8-2.4 8.5-5.9 10.5-7.7 3.2-2.9 4-3.2 5.9-2.2q5 2.9 9.4-6.4c3.2-6.7 4.7-7.4 7.8-3.5l2.3 3 2.6-2.1c3.5-2.7 4.5-2.5 6.3 1 1.9 3.7 1.9 7.3-.1 11.6-1.4 2.9-2.1 3.4-5 3.4-3.3 0-3.4-.1-3.4-4 0-2.2-.4-4-1-4-1.7 0-4.3 6.3-4.4 10.7-.1 4-.3 4.3-2.8 4.3q-2.9 0-2.9-1.8-.1-1.4-1.7 1.9c-.9 1.9-3.6 5.7-5.9 8.4a27 27 0 0 0-4.3 5.5c0 .3 1.1 1.7 2.5 3 2.4 2.2 2.8 2.3 5.8 1.1 8.1-3.3 9.3-2.8 17.4 7.4l3.1 4 2.4-2.1c1.2-1.2 4.2-3.1 6.5-4.3 3.5-1.8 7.3-6.2 7.3-8.6 0-.3-1.3-.5-3-.5-2.9 0-4-1.3-2-2.5a2 2 0 0 0 1-1.6c0-.6-1.3-.1-2.9 1.1-3.2 2.2-3.5 2-4.5-2.2-.5-2.2-.1-3.1 1.8-4.3 2.2-1.5 2.7-1.4 7 .7 3.9 1.8 5 2 6.6 1s2.1-.9 3 .8c1.7 3.1 5 .9 5-3.3 0-2.7-.5-3.5-3.1-4.4-2.3-.9-2.9-1.6-2.5-3.1.5-1.4-.6-2.7-4.8-5.6q-5.6-3.7-6.1-6.7c-.4-1.6-1.1-3.1-1.6-3.4-1.7-1.1-.9-4.2 1.4-5.8s2.2-1.5.2-3.1-2-1.6.1-3.4l2.1-1.7-2.9-2.9c-3.2-3.2-3.1-4.4.2-2.6 1.9 1 2.7.8 5.2-1 2.1-1.6 4-2.1 7.1-1.8 4.1.3 4.2.2 4.5-3 .2-1.7.7-3.2 1.1-3.2s2.2 1.5 4 3.4c2.9 3 3.3 3.9 2.7 6.8-.5 2.8-.3 3.5 1.6 4.3 2 .9 6.7 7.7 6.8 9.7 0 .3-1.1 2-2.5 3.6-1.8 2.2-2.1 3.2-1.2 4.1s.9 1.6-.1 3.1c-.6 1.1-1.2 3.3-1.2 5 0 2.6.4 3 2.8 3 1.5 0 3.8.7 5 1.6 2.6 1.8 2.6 1.8.7-5.7-1.7-6.6-1.4-7.7 3.3-12.3l3.1-2.8 2.7 2.1c5 3.9 10.4 1.6 10.4-4.5 0-1.6.7-5.4 1.5-8.4s1.5-6.1 1.5-6.8c0-1.5-9.6-1.7-10.5-.2-.9 1.4-8.1 5-10 5-2.1 0-7.6-8.9-7.4-12 .1-1.4-.2-3.3-.6-4.3-1.5-3.5 1-4.2 6.4-1.8 2.7 1.1 5.5 2.1 6.2 2.1s3.5-2.5 6.4-5.5c5.7-6.1 7.9-6.7 12.5-3.3 2.8 2 3.1 2 4.8.5 2.2-2 4.9-2.2 5.4-.5.9 2.6 5.7-1 8.3-6.3l2.6-5.1 2 2.1c1.4 1.5 3.2 2.1 6.4 2.1 5.3 0 5.8-1.4 1.9-6-3-3.6-2.2-6 1.4-4.1 3.3 1.7 3.9 1.3 4.6-2.9q.6-4.1 2.2-4c1.4 0 1.5.7.9 3.8-.4 2-.7 4.8-.6 6.2.3 3.9.3 12.3-.1 15-.3 2.3.1 2.5 4.6 3.1 3.7.4 5.4 1.2 7 3.2 1.2 1.5 3.1 2.7 4.3 2.7 2.8 0 7.3-3.7 7.3-6.1 0-1.6.7-1.9 5.1-1.9 4.7 0 5.1.2 6.1 3 1.2 3.5 3.2 3.5 3.6-.1.4-3.2 2.3-7.9 3.2-7.9 2 0 7 8.5 7 12 0 1.8-.4 2-3.5 1.4-3-.5-3.5-.3-3.5 1.2s.8 1.9 3.3 1.9c1.7 0 5.1.4 7.3.8l4.1.7 1.2-6.1c.9-4.3.9-6.4.2-7.3q-1.3-1.3.9-3.1c1.9-1.7 1.9-1.8-.6-3.8q-4.8-3.7 4.3-3.7 8-.1 2.9-4.7c-5.1-4.6-5-2.9-10.8.8-2.7 1.7-5.2 2.9-5.5 2.5-.4-.3.1-2.2 1-4.1 2.2-4.6 7.6-7.3 11.2-5.7 4.2 1.9 4.7 1.4 2.5-2.8-2.7-5.3-2.6-5.9 1.3-5.7 1.7.1 5.2-.2 7.7-.6 3.9-.6 4.9-.4 7.3 1.8 2.8 2.5 2.8 2.6 1.2 5.1-2 3.1-1.8 3.3 2.3 2.2 4.2-1.1 4.2-3.3-.3-12.2q-5.7-11.2-1.9-15c2.5-2.6 4.4-2 3.8 1.1-.7 3.7 2.8 11.7 4.4 10.1q1-1.2 2.6.1c.8.7 2.9 1.1 4.7.9 3.4-.3 3.6-.1 5.5 7.1q.3 1.3 3.7.7c10.2-1.9 10.2-1.9 13.4.8 1.7 1.4 4.3 2.6 5.7 2.6 2.1 0 2.9-.8 4.2-4 1.9-4.7 3.8-4.3 3.2.7q-.6 4 .7 2c.6-.9 2.4-1.7 4.1-1.9 2.7-.3 2.9 0 3.2 3.2q.7 7.4 3.8 2.4l2.2-3.4q.3-.2 1.1.9.9 1.7 2.1-1c1.8-3.4 6.1-7.9 7.7-7.9q1.2.2 1.3 2c.1 1.8.6 2 1.4 2s2.2.3 3 .6c1.4.6 1.6-.1 1-5l-.7-5.6h5.6c4.9 0 5.8-.3 8.1-3.1 1.4-1.7 3.8-5.1 5.2-7.6 2.3-3.7 2.5-4.8 1.5-6.6s-.9-2.9.3-5.2c.9-1.7 1.6-4 1.6-5.3q0-2.2 2-2.2c1.1 0 3.7-1.6 5.9-3.5 2.1-1.9 4.6-3.5 5.5-3.5q2 .2.6-2c-.8-1.5-.8-3 .2-5.5.9-2.6.9-4.5.2-7.4-1-3.6-.9-4 1.2-5 3.1-1.4 4.9-7.8 2.9-10.1a6 6 0 0 1-1.5-3.3c0-3.1 3.1-.5 5.9 5.1l2.8 5.5 2.3-8.4c2.7-9.7 2.9-14.1 1-18.5-1.2-2.9-1-4 2.9-14.4q4.2-11.4 3.6-13.9c-.4-1.9.3-4.3 2.5-8.1 3-5.6 3.9-10.5 1.9-11.2q-1.3-.3.2-2.5c1-1.7 1-2.7.1-4.8-1.1-2.3-.9-2.9 1.1-4.8 1.3-1.2 2.7-3.8 3.1-5.7s1.6-5.3 2.7-7.5c1.9-3.5 2-4.5 1-8.3-.7-2.3-1.5-4.2-1.9-4.2s-2.2 2.1-4.1 4.5c-4.7 6.4-11.1 12.5-12.9 12.5-.8 0-3.7-2.2-6.3-4.9q-8.7-8.7-2.1-11.3 10.6-4.5 2.7-10.4c-2.7-2-3.5-3.4-3.5-5.8 0-1.8-.7-4.1-1.5-5.2q-2.9-3.7 0-5.8c1.2-.9 1.3-1.8.5-4.6-.5-1.9-1-6.6-1-10.4 0-5.9.6-8.1 3.9-15.5 6.5-14 7.8-27.7 3.6-36.1-3.8-7.5-3.4-11.2 2.3-19.4 4.3-6.3 4.7-7.3 4.7-13 0-4.9-.8-7.9-3.8-14.9a53 53 0 0 1-4.8-17.5c-1.1-11.4-1.1-22.9.1-27.1.8-2.9.6-3.9-1.9-7.5-7.3-10.6-11-21.1-9.1-25.7 1.8-4.3.7-6.9-5.9-13.7-4.7-4.9-6.1-7.1-7.1-11.4a21 21 0 0 0-6.2-10.4c-2.6-2.8-4.8-5.7-4.8-6.5s-2.7-5.5-6-10.4q-8.5-12.6-5-12.5 3.5.2-5.1-8.7c-8.6-8.9-6.1-6.6-5.4-9.9.7-4.1.7-4.1-14.6-22a201 201 0 0 1-21.8-29.4c-2.9-4.7-9.6-14.5-15-21.7-13.3-18.4-16.7-24.2-17.5-30.4-1-7.5-13.6-36.7-19.8-45.7-1.6-2.4-2.7-5-2.4-5.7q.4-1.4-1.4-2.5-1.9-1-3-6.7C615 12.8 609 0 606.4 0c-.6 0-1.8.7-2.5 1.7"/><path d="M304.6 156.2c-3.5 3.1-5.2 11.7-3.2 15.7.8 1.5 2.2 3.3 3 4 .9.7 2.5 2.9 3.7 4.8l2.1 3.4-2.6 2.8c-1.4 1.5-2.6 3.6-2.6 4.8 0 3.6 2.6 4.7 11.7 4.8 7.9.2 8.6 0 10-2.2s1.4-3.3-.6-13.9c-2.9-15.6-5.3-21.8-9.5-24.4-4.4-2.6-8.8-2.6-12 .2m-23.6 2.4c-.6 1.4-1 3.5-1 4.6 0 1.6.4 1.9 2.3 1.3l6.2-1.6c7.3-1.8 8.4-4.3 2.8-5.8-6.5-1.8-9.2-1.4-10.3 1.5"/><path d="M291.6 169.9c-1.2 1.9.3 6.7 3.5 11.1 2.5 3.5 3.2 3.9 4.9 3 2.8-1.5 2.5-4.2-.8-7.1a40 40 0 0 1-4.8-5.4q-2-2.8-2.8-1.6m29.8 43.8c-1.6 2-3.4 2.8-7.9 3.4-6.3.8-11.3 4.4-10.2 7.3.7 1.6 7.7 5.6 10.1 5.6.8 0 3.2-2 5.4-4.5s4.3-4.5 4.6-4.5c.4 0 3-1 5.7-2.1 4.1-1.8 4.7-2.4 3.7-3.6a9 9 0 0 0-3.3-2.3c-5.2-1.9-6-1.8-8.1.7m12.1 45.4a40 40 0 0 0-1.8 11.9q.6-.1 2.1-1.6 1.5-1.7 2-.5c.5 1.4 3.9 1.4 4.7 0q.8-1 2.6.7c1.8 1.6 1.9 1.6 1.9 0s-8.6-11.6-10.1-11.6q-.8.1-1.4 1.1m-18.8.6c-.4.3-.7 1.9-.7 3.5q.2 4.9 4.9 1.1 2.2-1.6 1-3.5c-1-1.8-3.9-2.4-5.2-1.1m-54.6 3.5c-.6 1.7-.3 3 1.2 5q4 5.3 7.1.3c1.7-2.5 1.7-2.6-1.9-4-1.9-.9-3.5-2-3.5-2.5 0-1.9-2.1-1-2.9 1.2m3.2 402.3c-.3.9-2.7 2.7-5.4 4.1-4.2 2.1-4.9 2.9-4.9 5.3 0 3.9 4.7 7.5 8.4 6.5 2.4-.6 2.6-1.1 2.6-5.7 0-3.9.5-5.6 2.2-7.4 1.9-2 2-2.5.8-3.3-2.1-1.4-3-1.2-3.7.5m6.2 15.9-3 1.3 4.3 1.3q7 2 4.6-1.7c-1.4-2.3-2.4-2.4-5.9-.9m387.5 7.5c0 3.7-3.2 7.6-8.1 10.1-2.1 1.1-3.9 2.3-3.9 2.6s1.1 1.9 2.5 3.6c3.8 4.5 3.2 7.5-1.1 5.6-1.8-.9-3-.8-4.9.2-2.2 1.2-2.8 1.1-4.9-.9q-4.2-4-8.6 1.6c-2.8 3.6-2.5 5.4 1.5 9.3 1.9 1.9 3.5 2.9 3.5 2.4s1.8-2.1 4.1-3.3l4-2.3 2.5 2.3c3 2.8 3 4-.1 7.7-2.5 3-2.5 3.1-.5 3.7 2.3.7 2.5 1.7.9 4.6-.8 1.7-.7 2.3.7 3.4 1.6 1.1 1.6 1.5.4 3-1.2 1.4-1.2 1.8.1 2.6q1.4 1 3.6-1.9c2.6-3.1 2.9-5.2 1.1-7.1-1.1-1-.8-1.7 1.4-3.6 1.5-1.3 3-3.5 3.4-4.9.5-2.2.9-2.4 2.6-1.5 2.5 1.4 5.6.3 4-1.3-2-2-1.3-5.1 1.6-7.4l2.7-2.2-2.6.5c-3.2.6-4.7-2.1-2.6-4.6 2.5-2.8 2.7-7.4.6-12q-3.2-7.4-.8-9.8c1.3-1.3.4-3.3-1.7-3.3q-1.4 0-1.4 2.9m-392.8-1.1c-.9.7-.8 1.3.8 2.7 1.1 1 2 2.4 2 3.2q.1 1.2 1.5 1.3 1.6.2 1.5-4c0-3.5-.3-4-2.2-4-1.3 0-2.9.4-3.6.8m30.4 10.7c.7 2.4 4.1 6.1 4.9 5.3.3-.3.8-2.1 1.1-3.9.6-3.3.5-3.4-3-3.4-3.1 0-3.5.3-3 2m-38.8 5.3q-.6 2.2-3.7 2.8c-2.4.5-3.1 1.2-3.1 3 0 1.2.5 2.6 1 2.9s1 1.5 1 2.6c0 2.3 1.1 2.4 4.9.4q5.3-2.6 2.1-10c-1.5-3.5-1.7-3.7-2.2-1.7m276.3 2.9c-1.6 2-4 5.5-5.2 7.8l-2.2 4.2 3.1 6.8c3.5 7.3 3.8 9.1 2 9.7-1 .4-1 1-.1 3.1 1 2.2 1.9 2.7 4.9 2.7 3.4 0 3.5-.1 2.9-2.9-.8-3.8 1.7-6.3 5.9-5.9 3 .3 3.1.5 3.1 5 .1 5.3 1.9 8.3 3.5 5.8.9-1.3 1.1-1.3 1.9 0 .9 1.2 1.1 1.2 1.6-.2q.7-1.4 2.5-1.1c1.6.4 2.1-.6 3.5-7.1 1.3-5.8 1.4-8 .6-9-2-2.3-6.3-2.5-10.3-.5-4.7 2.4-6.4 2.4-7.1-.1q-.5-2-3-2c-2.2 0-2.5-.5-3.1-5.2s-.5-5.4 1.8-7.1c2.8-2 3.3-4.6 1.4-6.5q-3.1-3.2-7.7 2.5m-241.1 2q-.2 5.5-5.2 6.8c-1.5.4-3.5 1.6-4.5 2.7-1.8 2.1-1.8 2.1 3.2 1.4 2.8-.4 6.3-1.4 7.9-2.2 3.6-1.7 5.5-.5 4.8 3.2q-.4 2.6.9 3.5c2.5 1.5 2.9 1 2.9-3.5 0-4.1-.2-4.5-2.9-5.1-2.8-.6-2.9-.8-2-3.3.9-2.2.7-2.9-1.3-4.4-3.1-2.4-3.8-2.2-3.8.9"/><path d="M551.3 708.2a46 46 0 0 0-3.7 5c-1.6 2.5-1.6 2.8-.1 5.2 1.3 1.9 2.6 2.6 5 2.6 1.8 0 5.3.3 7.9.6 3.9.6 4.6.4 4.6-1q-.2-1.5-1.5-2.2t-1.5-1.9c0-.6-.9-2-2.1-3.1-1.7-1.6-2.2-1.6-3-.4q-1 1.7-.4-2.8c.6-3.7.4-4.2-1.2-4.2-1.1 0-2.9 1-4 2.2m66.1 7.2c-4.3 3.6-4.9 4.5-3.5 5.3 1.5 1 1.4 1.2-.1 3-2.4 2.6-2.3 4.4.4 7.8 2.4 3.1 3.2 2.4 4.3-4.1.5-3.4.3-4.3-1.1-4.8-1.6-.6-1.6-.8.5-1.9q2.4-1.3 3.6-5.5l1.1-4.1zM256.8 722c.5 3.3.8 3.5 4.8 2 2.6-1 2.6-1.1.9-3-1-1.1-2.8-2-4-2-1.8 0-2.1.5-1.7 3m-15.2 7.7c-.4.5-3.1 1.3-5.9 1.8-4.3.9-5.3 1.4-5.5 3.4-.8 5.3 1.7 8.8 5.3 7.5q1.4-.6 1-2.8c-.5-1.7.2-2.5 3.2-4.1q3.7-2 4.1-4.3c.3-2.2-.8-2.9-2.2-1.5m18.5 7.5c-.5 1.3-.5 2.7 0 3.2q.8 1.1.9 2.8c0 2.1.4 2.2 3.1.5 1.7-1 2.2-.9 3.4.6 1.6 2.3 4.8 1.9 5.3-.6.5-2.3-2.5-5.7-4.8-5.7-1 0-2.3-.7-3-1.5-1.8-2.2-3.9-1.8-4.9.7m-23.4 7.9c-1.5 1.7-2.7 3.5-2.7 3.9s1.6 1.7 3.5 2.8l3.4 2.1 2.1-3.3c2.6-4.4 2.5-6-.5-7.4l-2.8-1.2c-.2 0-1.5 1.4-3 3.1m277.4 7.6c-2.7 2.2-4.3 8.6-2.7 10.7 1.4 2 6.7 3.9 7.7 2.9.5-.5 1.1-3.5 1.5-6.7.6-5.1.5-6.1-1.1-7.2-2.4-1.8-2.8-1.8-5.4.3m-266.6 10.7c-1 6.6 1.5 10.2 5.4 7.7 1.3-.8 1.2-1.7-.4-6.5-1.1-3.1-2.5-5.6-3.1-5.6s-1.6 1.9-1.9 4.4"/><path d="M255.2 760.7c-1 .4-.9.9.4 2.4 2.1 2.3 1.4 9.1-1.2 12-2.9 3.2-.8 3.3 3.8.2 3.8-2.6 4.3-3.3 4-6.4-.3-3.7-4.8-9-7-8.2m31 14c.2 3.3 0 3.7-2.7 4.6a52 52 0 0 0-21.6 19c-1.3 2.8.2 6.7 2.6 6.7.7 0 2.7 1.1 4.3 2.5 1.7 1.4 3.7 2.5 4.5 2.5s4-1.1 7.1-2.5c6.1-2.7 8.6-3.1 10.2-1.5q1 1 .6-1.9c-.3-2.3.1-3.2 1.8-4.1 1.8-.9 2.4-.9 3 0s1.3.4 2.3-1.6a43 43 0 0 0 4.3-16.1c-.3-1-2.5-3-4.9-4.5s-5.2-3.7-6.2-4.8-2.7-2-3.7-2c-1.6 0-1.9.6-1.6 3.7m223.9 1.7-2.3 2.5 5.6 3.6q12.3 7.8 4.6-2.5a34 34 0 0 0-4.9-5.8c-.4-.1-1.8.9-3 2.2m-43 .9c-.8 1.1-.8 2.4.2 5.3 1.1 3 2 4 4 4.2 1.5.2 3.4-.1 4.3-.6 1.4-.8 1.2-1.2-1.5-2.8-1.7-1-3.1-2.6-3.1-3.5 0-2.6-2.5-4.2-3.9-2.6M425.5 788c-1.1.5-3.4.9-5.2.9-4.2.1-4.6 1.1-2.2 5 1.8 2.9 2.4 3.3 5.1 2.7 1.7-.3 4.3-.6 5.8-.6 2.2 0 2.9-.6 3.4-2.8l1.2-4.5c.4-1.4-.1-1.7-2.8-1.6-1.8 0-4.2.4-5.3.9m44.3 2.1q-3.6 2 .2 3.4c1.1.4 2.7 2 3.6 3.6 1.2 2.4 1.9 2.9 3.7 2.3 1.2-.3 2.6-1 3-1.4 1.5-1.4-.4-5.1-3.6-7.1-3.6-2.1-4.5-2.3-6.9-.8m-101.6 6.8c-5.3 3-9.2 9.1-5.8 9.1q1.4.1 1.8 1.6c.3 1.4.7 1.3 3-.5a9 9 0 0 1 4.6-2.1c4.6 0 7.2-3 3.7-4.4-.8-.3-1.5-1.7-1.5-3.1 0-2.9-1.3-3.1-5.8-.6m-20.2 7.4q-4.7 2.4-1.5 8.7c2.1 4 9.1 9 12.7 9 1.5 0 2.8-.1 2.8-.3 0-1.6-7.4-16.5-8.7-17.4-2.1-1.6-2.2-1.6-5.3 0m32.1.6c-.8 1.5-.6 2 1.5 3 3.7 1.6 8.4 1.4 9.1-.5 1.5-3.9-8.6-6.3-10.6-2.5m-6.6 7.1c-.3.5-2 1.3-3.8 1.8-4.7 1.2-4.1 3.6.9 4 3 .2 4.4.9 5 2.3.9 1.8 1.1 1.8 4.6-1.1 3.6-3 3.7-3.2 2-4.9-2-2.1-7.8-3.5-8.7-2.1m-123.1 7.4c-.9 2.4 2.4 5.6 5.8 5.6 2.4 0 2.8-.4 2.8-3q0-3.2-1.7-3c-1 0-2.8-.3-4-.6q-2.3-.6-2.9 1m80.6 19.8q0 3.7 1.8 4.8 2.3 1.3-1.5.6c-3.8-.7-3.6-.1-5.3 2.1-2.4 3-2.3 6.6.2 7.1.9.2 3.2-1.1 5.1-2.7s4.2-3.1 5.1-3.1c2 0 2.1-1.9.2-2.6s-.8-3.4 1.4-3.4q1.7-.2 2.4-1.5 1.7-4.2-5-4.7l-4.4-.3zm48.2 2.2a4.7 4.7 0 0 0 4.4 6.6c2.7 0 2.8-.1 1.3-5.3-1.2-4.3-4-5-5.7-1.3m-19.7 118.7a42 42 0 0 1-10.7 1.7c-2-.1-4.2.3-5 .8s-5.6 1.6-11 2.2c-8.9 1-12.2 1.9-32.8 9.3q-5.5 2-6.5 4.2a5 5 0 0 1-3.3 2.5 6 6 0 0 0-3.6 3c-.8 1.5-3.9 5-6.9 7.8-9.9 9.2-9.9 16.7.1 25 3.1 2.6 6.3 5.4 6.9 6.3q1.2 1.3 1.6 1l3-4c2.7-3.5 2.8-3.6 11.5-4.2q8.7-.6 14.4.7c4.9 1.2 5.9 1.2 7.8-.1 1.7-1.2 2.9-1.3 7.1-.3s5.2 1 7.2-.4l5.6-4.1c1.9-1.4 4.6-2.5 6-2.5 4.3 0 9.7-1.9 11.6-4q1.8-2 6.2-2c3.6 0 4.3-.3 4.3-2 0-1.1 1.1-2.7 2.4-3.5 1.3-.9 2.7-2.6 3-3.8s2.3-4.2 4.6-6.5c2.2-2.4 4-5.3 4-6.5s-1.2-5.2-2.7-8.9c-1.9-5.1-3.1-6.8-4.5-6.8q-3.6 0-9.1-4.6c-1.6-1.3-3.2-2.4-3.5-2.3-.4 0-3.8.9-7.7 2"/></svg>