<svg xmlns="http://www.w3.org/2000/svg" width="1365.333" height="1365.333" viewBox="0 0 1024 1024"><path d="M444.5 22a46 46 0 0 1-9.2 4A89 89 0 0 0 403 45.5c-4.1 3.8-6.6 4.9-26.4 11.4-32.4 10.8-37 12.9-44.3 20.4-4.7 4.8-6.8 8-9.3 14.2a218 218 0 0 1-10.6 20.5 63 63 0 0 0-9.3 21.5c-1 5-3.7 15.6-5.9 23.6a88 88 0 0 1-10.2 25.4c-3.4 6.1-8.1 15.7-10.4 21.5a67 67 0 0 1-9.3 17c-4 5.1-5.3 7.8-6.3 12.5-.7 3.9-3.3 9.9-7.2 16.9l-6.1 10.8-2.9 18.2c-2.5 15.3-3.4 18.8-5.8 22.6-1.5 2.5-4.2 7.4-5.9 11s-6 10.5-9.6 15.5-7 10.6-7.6 12.5-2.6 6.2-4.4 9.5-4.5 9.1-6.1 13a59 59 0 0 1-7.5 12.6c-3.9 4.7-4.7 6.5-5.3 11.3a88 88 0 0 1-7.7 21.4c-10.6 23.3-11.6 25-19.2 33.2a357 357 0 0 0-18.3 22.6 160 160 0 0 1-15.7 18.8c-3.6 2.9-4.8 4.9-7.1 11.4-3.3 9.5-8.5 17.2-26.3 38.8-7.4 9.1-16.8 22-21.5 29.6-7.9 12.9-9.1 14.3-25.6 29.9-9.5 9-19.9 18.4-23.1 20.9-14.6 11.5-17.9 15-23.2 24.7a61 61 0 0 0-4.7 9.8c.8.7 233.3 31.9 358.3 48.1 75.4 9.8 137.4 18.1 137.9 18.5s1.1 4.1 1.4 8.1.9 8.1 1.4 9.1c.5 1.1 6.1 8.8 12.4 17.2l11.4 15.4v6.5a33 33 0 0 0 10.4 23.6c5.3 5.5 5.3 5.6 15.3 34.5l10.1 29 .8 22.5.9 22.5 5.1 8.5c4.3 7.1 5.3 9.8 6.4 16.5.9 6.4 2.3 10.1 6.6 18.2 5.3 9.9 5.8 10.5 16.7 19.1 6.2 4.9 13.1 9.9 15.3 11q7.9 4.1 11 18.7c.8 3.8 1.8 7.3 2.2 7.6.5.5 398.4-6.5 400-7 .2-.1-1.2-3-3.2-6.5q-3.5-6.3-3.6-10.1c-.1-3.8-1-5.1-3-8-5.8-8.4-7-12.6-7-24.6 0-10.5-.1-10.9-2.5-12.5s-2.7-1.5-8 2.5c-3.1 2.3-6.3 4.1-7.2 3.9q-1.7-.4-2.9-5.8c-1.9-7.9-1.8-8.3 1.1-7.6l4.9 1.2c1.8.5 2.8-.1 4.5-2.5 2.8-3.9 2-7.5-2-9.1-2.3-1-2.9-1.9-2.9-4.1 0-4.3 3.5-3.9 6.1.6 2.3 3.9 2.6 4 5.3 2 1.7-1.3 1.8-1.7.3-5.2a14 14 0 0 1-.6-8.8c.4-2.8.8-7.3.9-10s.9-7 2-9.3c2.3-5.1 1.8-9-1.4-9.6-1.1-.3-4.3-.7-6.9-1-2.8-.3-6.1-1.6-8-3-1.8-1.3-8.3-4.9-14.5-8l-11.3-5.6-5-10.8c-2.8-5.9-6.7-14.5-8.6-19.2l-3.5-8.5L948 803c.7-7.4 1.1-15.9.9-18.9l-.4-5.4-5.5-1.9c-3-1-7.5-2.3-10-2.9-4.2-.9-14-7.3-16.7-10.8l-5.8-9.9q-4.6-8.1-12.6-16.3a62 62 0 0 1-14.3-20.7c-3.5-7-8-15.6-10-19.1-3.5-6.2-3.7-6.8-4.2-19-.7-15.5-2.3-21-7.3-25.3-3.8-3.2-3.8-3.5-4.4-11.8a42 42 0 0 0-3.3-15c-2.6-6.1-2.7-7.3-2.7-21l.1-14.5-4.9-10.4-4.9-10.4-1-29.1c-.6-16-1.3-29.7-1.5-30.4-.3-.8 1.3-3.5 3.4-6 4.9-5.9 5.8-8.8 3.6-11.2-1.5-1.7-1.9-1.7-9.3 1.1-11.4 4.3-15.7 4-24.3-1.6q-7-4.6-8-7.4c-.6-1.7-3.1-4.3-5.9-6.2-3-2-5.4-4.6-6-6.3-3.2-9.4-11.6-8.7-19.7 1.6-1.6 1.9-6.3 6.5-10.5 10.1-7 6.1-7.9 6.6-9.8 5.5-1.1-.7-2.2-2-2.5-2.9s-1.7-2.2-3.1-2.9c-2.3-1.3-2.7-1.1-5.2 1.3-2.2 2.2-2.9 4.1-3.7 10.4l-1 7.6-9 3.3a42 42 0 0 1-18.1 3.3c-13.1.1-15.1-.4-15.7-4.3-.3-1.7 0-5.7.6-8.9 1-5 .9-6.2-.7-9.1-1.4-2.6-1.5-3.8-.7-5.4 1.8-3.4 8-5.7 17-6.2 7.7-.5 8.5-.7 9.3-2.9s.7-2.4-3.9-1.8c-3.8.4-5.5.1-8.2-1.6l-3.4-2-1.8 2.2c-1.6 1.9-3.9 2.6-13.6 4.1-6.5 1.1-13.4 2.4-15.3 2.9s-8.4 1.1-14.5 1.1h-11l-4.9 4c-2.6 2.2-5.6 4-6.6 4s-2.5.3-3.3.6c-1.8.6-3.7-4.2-3.7-9.2 0-3.1.3-3.4 3-3.4q3.2 0 3-1.8c.1-3.2 3.8-10 5.9-10.7 1.2-.4 3 0 4.3.9q6.1 4.1 10.1-2.2c1.4-2 4.1-5.7 6.1-8.1 2.1-2.5 4.9-6.8 6.3-9.5a80 80 0 0 1 24.1-29.8 26 26 0 0 0 5.6-7.4 77 77 0 0 1 25.8-23.4c4-2.4 9.1-5.7 11.3-7.5s6.7-4.4 9.9-5.9c5.8-2.6 21.5-13.6 25.1-17.6 1.7-1.8 3-2 15.9-2 14.8 0 24.5 1.5 40.6 6.5 4.1 1.3 11.3 3.3 16 4.5 9.3 2.3 14.4 5 24.5 13.1 5.7 4.6 6.8 6 8.1 10.6 1.8 6.2 3.6 6.8 7.6 2.5 2.9-2.9 4.2-5.9 6.3-13.8 1.8-6.8.6-11.9-4.4-19.2a81 81 0 0 1-12-26.9 115 115 0 0 0-7.1-18.5c-1.7-3.2-4.2-8.5-5.5-11.8a48 48 0 0 0-6.2-10.8c-7.3-8.8-7.3-8.8-6.6-20.6.6-10.3.5-10.7-1.8-13.3-2.8-3-18.1-13.3-22.6-15.2-2.6-1-3.5-2.5-6.1-9.4a86 86 0 0 1-3.8-12.7c-.4-2.7-1.8-6-3.5-8.2a44 44 0 0 1-5.3-10l-6-14.2c-3.5-7.7-3.6-8.1-3.6-20.8 0-9 .5-14.7 1.6-18.5 1.5-5.2 1.5-5.9 0-9-1.7-3.6-2-7.6-.6-10.8q1-2-1.7-6.4c-2.9-4.9-3.2-8.9-1.5-18 .6-3.5.9-6.7.7-7.1s-5.5-1.6-11.7-2.6c-10.8-1.8-11.5-2.1-15.8-6-3.8-3.5-14.9-8.8-70.1-33.3L630.2 20h-91.3c-89.8 0-91.5 0-94.4 2"/><path d="M823.5 68.6c-12.4 4.3-12.3 4.2-13 8.7a34 34 0 0 1-5.8 11.6c-4.8 7-7.6 14.8-7.7 20.8 0 1.9.6 2.3 3 2.3a17 17 0 0 0 6.7-2 18 18 0 0 1 6.6-2q2.9 0 5.5-3.1a198 198 0 0 1 28.5-19.7c1.5-.6 4.8-1.2 7.3-1.2s7-.7 10-1.6c4.7-1.3 5.6-2.1 6.9-5.1l1.5-3.9c0-.2-3.6-.4-7.9-.4-4.5 0-12.8-1-19.3-2.4-15.9-3.4-17.8-3.5-22.3-2m30.8 26.8c-6.3 1.6-8.3 3.1-8.3 6.3s2.8 7.3 4.9 7.4c.9 0 3.4 2.8 5.7 6.2 3.3 5 4.7 6.4 7.7 7.1 4.2 1.1 4.2 1 2.3 11.4l-1.3 7.2 3.9.6c3.7.6 3.8.8 2.2 2.5-4.1 4.6 2 6.7 10.2 3.5 5.9-2.3 6.4-3.4 3.5-8.1-1.7-2.9-1.9-5.8-.5-12.3.6-3 5.4-3.2 5.4-.1q-.2 2.1 4 3.6c2.2.9 4 2 4 2.5q.1.7 1.6.8c1.2 0 .8.9-1.5 3.6-1.8 2-3.4 4.9-3.8 6.5q-1 4.8-6.2 4.9c-5.2.1-2.6 3.7 1.2 5.7l3.2 1.8-4.2.3c-5 .4-5.3 1.5-1.6 5.4l2.7 2.8h-3c-1.6-.1-4-1-5.3-2-2.1-1.8-2.3-2.6-1.7-7 .4-2.8.4-5 .1-5-1.9 0-4.5 2.3-4.5 4 0 2.9-1.3 3.1-7.9 1.6-5.7-1.3-6-1.3-5.1.4.5.9 2.5 3.1 4.5 4.9 2.7 2.3 4.5 3.1 7.4 3.1q3.8 0 5.6 2c1.6 1.8 1.7 2.5.6 6q-2.5 8.1 2.9 8c3.7 0 4.4 1.2 3 5.6-1.4 4.1-4.6 4.4-4.3.4.1-1.8-.9-3.2-3.3-5-2.5-1.8-3.4-3.3-3.4-5.4 0-3.9-4.5-8.6-8.1-8.6q-5.7 0-5.9-2.5c0-1.1-1.1-1-5.2.4-2.8 1-5.3 2.2-5.5 2.7-.4 1.4 8.4 6.4 11.3 6.4 2.2 0 2.4.4 2.4 4.6 0 4.6 0 4.6-2.9 4.1-1.6-.3-4.5-1.7-6.6-3.1-5.9-4-9.9-4.3-16.1-1.2-5.3 2.5-5.4 2.7-5.4 6.8v4.3l11.8.2c12.2.1 17.2 1.2 17.2 3.8 0 2-1.5 1.9-9.2-.5-6.1-1.9-15-2.6-18.2-1.4-1.1.4-1.6 1.9-1.6 5.3 0 4.4-.2 4.7-4.5 7.4l-4.5 2.9v8.2c0 7.9.1 8.2 2.8 9.8 1.5.8 5.7 2.1 9.5 2.8 5.4 1 7.2 1.8 9.2 4.2 1.4 1.6 2.5 3.6 2.5 4.3 0 .8 1.3 2.9 2.9 4.7 2.3 2.7 2.9 4.5 3.4 10.2q.4 6.9 2.6 9.7a10 10 0 0 1 2.1 5.1c0 1.4 2.2 4.8 5.3 8.3 5 5.6 5.5 6.7 8 16.7 1.5 5.9 2.7 11.6 2.7 12.7s1.1 3.3 2.5 4.9 2.9 5.2 3.4 7.9c1 4.8 5.7 17.1 8.1 21 2 3.2 6.4 5.3 10.9 5.3 2.2 0 6.1.5 8.6 1.2 4.1 1.1 4.7 1 7.7-1.2a280 280 0 0 0 39.2-36.1 173 173 0 0 0 22.9-29.4c7.1-11.8 8.1-14 12.8-30.3 5-16.8 5.1-17.7 3.6-20.6a55 55 0 0 1-2.7-13.4c-1.2-10.2-1.2-10.2-4-10.2q-2.8 0-3.3 2l-.5 2-3.5-2c-2.7-1.6-6.1-6.5-15.5-22.3a1621 1621 0 0 0-20.9-34.1c-8.6-13.5-9.1-14.1-25.8-28.8-14.8-13-18.2-15.6-26.5-19.5a67 67 0 0 0-18-5.9 40 40 0 0 0-19.7 0"/><path d="M801.5 153.2c-.3 1.3-.5 5.3-.3 8.8.3 6.4.4 6.5 4.6 9.3 4 2.7 4.2 3 2.8 4.6-.9 1-1.6 2.4-1.6 3.3 0 2.1 4.2 5.8 6.7 5.8 1.1 0 2.8.9 3.8 2 1.8 1.9 1.7 2-.6 2-1.3-.1-4.1-.7-6.1-1.4-4.5-1.6-4.7-1.1-1.2 3.5 4 5.4 7.4 12.6 7.4 15.8 0 4.8 1.9 4.7 6.8-.2 4.3-4.3 4.6-5 4.7-9.9 0-5.1-.1-5.3-3.5-6.4l-3.4-1.1 3.1-1.6q3.1-1.7 3.8-4.6c.6-2.9 2.6-4.1 7.2-4.1 3 0 5.6-5 4.4-8.2-.8-2-2-2.6-8.7-3.7-17.5-2.9-17-2.6-20.9-9.2-2-3.2-4-5.9-4.5-5.9s-1.5-.3-2.4-.6q-1.5-.6-2.1 1.8M945 417.7c-2.2 2-3.5 4.6-4.6 8.8a63 63 0 0 1-3.5 9.7c-2.6 5.1-2.5 6.1.9 5.5 14.2-3 14.1-2.9 18.2-1.3a32 32 0 0 0 9.9 1.6c5.7 0 6 .2 10.7 4.8 2.7 2.6 5.6 5.8 6.4 7a71 71 0 0 0 24.3 9.5l3.7.6v-10l-14.6-14.2c-13.5-13.1-15-14.3-19.8-15.3-8.8-1.8-12.5-3.5-14.7-6.5-1.9-2.6-2.6-2.9-8-2.9-5 0-6.3.4-8.9 2.7"/></svg>