<svg xmlns="http://www.w3.org/2000/svg" width="1365.333" height="1365.333" viewBox="0 0 1024 1024"><path d="M89 296.6c-1.9.8-5.5 1.9-8 2.5-2.5.5-7.4 2.8-11 4.9a65 65 0 0 1-12.7 5.8 47 47 0 0 0-9 3.9c-1.5 1.1-4.3 2.4-6.2 2.8s-5.7 2.5-8.4 4.6a26 26 0 0 1-7.5 4.5c-10 2.4-14 7-20.7 23.7-6.6 16.4-7 20.2-2.2 23.4 7.1 4.9 9.9 5.4 23.6 4.7a46 46 0 0 1 31.8 6.7c2.3 1.6 6.1 3.6 8.3 4.4 6.9 2.4 17.1 11 24.4 20.5 4.2 5.4 9.1 17.9 12.9 33.2.8 3.2 2.8 7.9 4.5 10.6 4.1 6.8 5.7 20.9 4.2 38.7-.5 7-1.2 13-1.4 13.3a193 193 0 0 0-5.6 35.7c-.5 7.7-1.5 16.6-2.2 19.9-1.5 6.4-.5 20.8 1.5 21.5 1.6.6 5.1 4.6 6.4 7.3.6 1.2 1.6 6.3 2.2 11.1.7 4.9 1.4 10.2 1.8 11.8.4 2.2.2 2.9-1 2.9-.9 0-2.1.9-2.7 1.9-1.3 2.5-1.3 6.1 0 6.1q3.4 0-4.6 6.2a86 86 0 0 0-20 29.6l-3.7 8.3 1.3 6.7c.7 3.7 1.9 8.1 2.6 9.8q1.4 3.1.8 11.5l-.6 8.4 3.6 3.7C94 710 95.7 711 98 711c1.8 0 4.3.9 5.7 2s3.8 2 5.3 2 3.6 1 5 2.5q4.6 5 12.3-.3c6.3-4.3 20.3-11.7 28.2-15a93 93 0 0 0 14.2-7.5 71 71 0 0 1 16-7.3c4.8-1.4 13.6-5.1 19.5-8.2l10.7-5.5 12-.1c14-.1 14.7.3 15.8 7.9.5 3.9 3.9 11.3 6.9 15.4.2.2 2.6-.6 5.3-1.8 6.9-2.9 14-2.8 18.7.4 4.3 2.9 7.8 3.1 15.1.8 4.2-1.3 6-1.5 8.6-.6 1.7.6 10.2 1.1 18.7 1.2 14.5.1 16.1.3 24.4 3.1a33 33 0 0 1 16.6 10.4c4.3 4 8.7 7.7 9.8 8q2.1.7 6.1-1.9c3.2-1.9 5.4-2.5 10-2.5 5.5 0 6 .2 8.5 3.5 1.5 2 5.5 5 8.9 6.8 5.6 2.9 7 3.2 14.2 3.1 4.4-.1 11.2-.9 15.1-1.7 5.6-1.3 7.9-1.4 10.7-.5 3 .9 4 .9 5.4-.4q1.7-1.6 11.7-2.3c8.7-.7 11.2-1.3 20-5.2 5.5-2.5 11.8-5.9 14.1-7.6s15-14.1 28.5-27.7c22.6-22.8 25.1-25 32.5-28.7 4.4-2.2 10.2-4.8 12.8-5.8s5.3-2.6 6-3.5 4.1-3.8 7.6-6.3c5.6-4.2 6.9-4.7 11.5-4.7 2.8 0 6.1-.6 7.2-1.4s8.8-3.7 17.2-6.5l15.3-5.1h13.6c13.3 0 13.7.1 17.2 2.7 4.8 3.7 11.5 4.4 21.1 2.3a67 67 0 0 0 11.7-3.8 19 19 0 0 1 6.1-2.2c1 0 4.2-1.6 7.2-3.5s6.2-3.5 7-3.5c.9 0 2.5-.6 3.6-1.4s4.9-2.6 8.4-4.2c5.9-2.4 8-2.7 21.5-3.2 8.3-.2 15.5-.8 16.1-1.3s4-.6 7.5-.3c6.1.7 6.8 1 15.8 8.3 21 17.1 22.4 17.7 29.3 14.1 3.2-1.7 4.6-1.9 6.7-1.1 1.4.5 6.9 1.1 12.2 1.3 8.5.3 10.2.7 13.8 3.1 3.9 2.6 4.5 2.7 9.9 1.8 13.5-2.3 26.1-3.3 32.2-2.6 3.6.4 12.7.6 20.3.5 13.3-.1 14.3-.3 25.5-4.1 6.4-2.2 17.1-6.6 23.7-9.8s13.7-6.4 15.7-7.1c2.7-.8 5.2-3 9.4-8.3 3.2-4 9.5-11 14-15.7 7-7.3 8.2-9.1 8.8-13 .4-2.4 1.9-6.5 3.5-9 5.5-9 10.6-27 11.7-41 .8-10.1-1.2-41.5-3.1-47.5a48 48 0 0 0-13-18.5c-1.2-.4-3.5-2.5-5.1-4.6a147 147 0 0 0-8.6-9.4c-6.9-6.9-6.7-6.9-30.8-6a147 147 0 0 1-28.5-.7c-6-.8-18-1.9-26.5-2.4l-22.3-1.5c-5.3-.5-7.3-.2-9.3 1.1-6.4 4.1-10 4.6-35 4.6-17.8-.1-25.2.3-28 1.3-2.2.7-6.8 1.6-10.3 2s-9.3 2-12.9 3.7a176 176 0 0 1-67.2 12.3c-19.4.1-27.4-1.6-60.3-12.6l-17.8-5.9-14.7.7q-14.7.6-16.9 2c-1.2.8-5.5 2.5-9.5 3.8l-14.6 5c-8.5 2.9-13.1 2.5-27.4-2.3a189 189 0 0 1-34.4-17.8 13 13 0 0 0-4.6-2.3c-2.1 0-19.9-14.1-33-26.2-6.2-5.7-16-14.1-21.8-18.7s-11-9-11.5-9.6c-1.3-1.6-14.5 19-14.5 22.6 0 3 1.5 5.5 2.4 4.1q.7-1 2.5-.5c1.5.4 1.9-.3 2.4-4.6a27 27 0 0 1 2.4-8.3l1.8-3.3.3 6.2a23 23 0 0 1-5 16.3 22 22 0 0 1-5-2.1c-5.9-3-7.1-.9-1.4 2.5q4.6 2.7 4.6 4.6t-1 2c-.5 0-1.8 1.9-2.8 4.2-3.1 7-3.9 7.3-18.3 7.2-10.3-.1-12.6.1-12.2 1.2.5 1.5 9.2 4.4 13 4.4q2.1 0 2.3.7 0 .9.9 2.2c.8 1.2 1.5.9 4.1-1.2 3.8-3.2 6.6-3.5 7.3-.7.9 3.3 2.5 2.3 3.8-2.3.6-2.3 1.5-4.9 1.9-5.7.5-.8 2.4-4.6 4.1-8.3q3.3-7 4.6-6.2c.8.3 1.9.5 2.4.5s1.8 2 2.9 4.5q3.2 7.5 5.8 2.1a5 5 0 0 1 4-2.9c2.6-.5 3.6 0 7.6 4 5.1 5 5.6 7.3 2.5 10.4-2.3 2.3-4.3 2.1-4.7-.7-.6-4.2-11.4-8.6-12.8-5.1-.2.7.2 3 1.1 5 .9 2.3 1.5 6.8 1.5 12.3v8.7l-4.2 4.7c-6.3 7-10 12.4-8.9 12.8.6.2 3.5-.2 6.5-.8 5.3-1.1 7.7-2.8 8.9-6.3.9-2.6 2.6-2.1 3.2 1q3 13.6 6.3 14.1c1.9.3 2.2-.1 2.2-3.1q0-3.4 2-5.2c1.1-1 2-2.8 2-4 0-2.4 2.5-4.1 3.5-2.5.4.6 1.9 1 3.4 1 1.6 0 3.7 1 5.1 2.5l2.3 2.5-2.6 4.7c-1.4 2.7-3.3 4.7-4.1 4.7-2.2-.2-3.1 6.2-1.2 9 2 3.1 2.5 21.8.7 24-2 2.4-.6 6.6 2.3 6.6 2.5 0 4 2.9 2.9 5.6-1.2 3.3-6.9.4-8.9-4.6-.9-2.2-1.8-4-2.1-4-2.3 0-6.1 3.4-6.6 5.9-.9 4.5-7.4 10.5-14.2 13.2a37 37 0 0 1-15.5 2.5l-11.2.3c-1 .1-3.5 1.7-5.7 3.6-4.4 4-5 4.1-9.3 1.9q-3.1-1.7-4.1-.5c-.6.6-3.9 1.1-7.3 1.1-5.8 0-6.4-.2-8.3-2.9a11 11 0 0 1-2.1-3.9q.1-2.7-8.3-4c-6.1-1-7-.6-8 3.6q-.6 2.2 1.4 3.2c1.8 1 2.8 6 1.1 6-.4 0-1.6 4.5-2.6 10-1.3 7.5-2.4 10.8-4.3 13-2 2.4-2.3 3.6-1.8 6.1q1.4 5-4.2 4.9c-1.9 0-2.3.6-2.3 3 0 6 5.2 12.4 7.8 9.8q1.1-1.2 1.2-2.6c0-.7 1-3.6 2.1-6.3 2-4.7 2.3-4.9 6-4.9q4 0 5.9 2c2.5 2.5 2.5 3.2 0 4.8-1.4.9-2 2.3-2 5 0 2.9-.9 5-3.6 8.4-3.9 5.1-6.1 6-11.6 5.2-3.1-.5-4.2-.1-7.6 2.5a25 25 0 0 1-7.7 4.2c-3.6 1-3.9.9-7.9-2.9-5.1-5.1-8.3-4.8-12 .8a106 106 0 0 1-27.5 20.1 14 14 0 0 0-6.5 5c-2 3.4-5.2 3.8-8.7 1.1-3.7-2.8-9-4.7-13.4-4.8l-15.3-.2-11.3-.2-2-3.5c-1.2-1.9-2.7-3.5-3.5-3.5s-2.8 2.7-4.6 5.9c-2.7 4.8-4 6.2-7 7.2l-3.8 1.2v9.4c0 5.5-.4 9.3-1 9.3s-1-3.7-1-9c0-10.3-.7-10.9-7.3-6.5l-3.7 2.6v-2.8c0-5.2-4.1-12.6-9.8-17.3l-11.6-10.3a25 25 0 0 0-8.3-5.7c-6.8 0-11.4-4.8-7.4-7.7q2.3-1.4 1.5-3.6c-1.3-4-9.8-16.9-12.5-18.8-3.3-2.3-5.9-2.5-5.9-.3q.1 1.5 1.4 1.1c1.3-.4 1.8.5 2.5 1.9q2.5 6-.9 2.6c-1.2-1.2-3.1-2.2-4.4-2.2s-3.1-.9-4.1-2-2.8-2.1-3.9-2.1q-2.8 0-.2-.6c1-.3 2.9.1 4.2.8s2.6 1 2.9.7c.8-.8-3.5-5.8-5.1-5.8-2.6 0-1.6-4.8 1.2-6.3 4.7-2.5 6.5-13.3 2.9-17.7-.7-.8-1.5-2.3-1.8-3.3-.8-2.1-3.6-2.2-5.1-.1q-1.1 1.6-3.9.9c-2.5-.7-2.7-1.1-2.7-5.4 0-4.1.5-5.1 3.9-8.5 3.9-3.8 4-4 2.5-6.8-1.9-3.6-1.5-6.3 1-6.3q2 .2 3.3-4.7c1.9-6.7 3.3-6.9 2.6-.3-.5 4.8-.4 5.5 1 4.9.9-.3 2.1-2.2 2.8-4.2.6-1.9 2-5 3.1-6.8q1.8-3.2.9-3.9t.5-3c2.6-4 1.2-5.5-5.1-5.5-3.2 0-5.5-.4-5.5-1.1q.1-1 1.9-.4 2 .6 3.4-1.5c1.2-1.8 1.6-1.9 2.7-.5.7.8 2 1.5 3 1.5 1.4 0 1.8-1.1 2.2-6.3.3-3.5 0-6.9-.6-7.9q-1.2-1.8.2-3c1.7-1.7 1.5-6.3-.4-7.9a205 205 0 0 1-22.3-35.7c-1.5-4.6-9.1-17.7-12.8-22.1-.1-.3-1.3.5-2.6 1.6q-4.6 4.3-9.4 4.3c-1.5.1-5 .7-7.8 1.4-4.1 1.1-5 1.7-4.8 3.5q.4 2.1-2.3 2.7-5 1.4-2-3.1c2.1-3.2 4.8-4.3 13.1-5.1 6.4-.7 6.7-.8 9.6-5 3.4-5 3.6-7 .9-9.9a174 174 0 0 1-16.7-29c-1.2-4.1-.8-10.5.9-13.8.7-1.4.4-1.7-2.2-1.7-1.6 0-3-.5-3-1.1s.7-.9 1.5-.5c2.1.7 4.5-.3 4.5-2 0-.8-1.7-1.7-4.2-2.1l-4.3-.8 4-.5q4-.4 4.3-2.3c.3-1.4-.4-1.7-3.2-1.7-2 0-3.6-.4-3.6-.9s2-.6 4.5-.3q6.7.8 3.3-2.7c-.8-.7.3-.5 2.4.5 4.8 2.2 5.7 4.4 1.9 4.4-2.3 0-3 .5-3.4 2.6-.5 2.6-.4 2.6 3.7 2.1a52 52 0 0 1 31.5 2.3 98 98 0 0 0 17 3.8q6-.7-.6-11.5c-6.4-10.4-9.2-12.7-23.4-19.9-7.3-3.6-16.5-8.8-20.6-11.6-4-2.7-9.7-5.6-12.6-6.4a76 76 0 0 0-29.7.2m29.8 29.4c1.3 1.6 2 3 1.8 3-2.1 0-10.6-2.3-10.6-2.9 0-1.4 2.4-3.1 4.5-3.1 1.2 0 3.1 1.3 4.3 3"/><path d="M406.6 496.5c-1.3 1.4-2.7 2.5-3.2 2.5s-1.8 1-3.1 2.2c-2.3 2.2-2.4 2.2-5.7.4a12 12 0 0 0-8-1.1c-2.5.4-4.9 1.1-5.2 1.7s.6 2.4 2 4.3l2.7 3.5-2.1 3.9c-3.1 6.2-2.8 6.6 4 6.6 3.3-.1 6 .3 6 .7 0 1.7 5.6.7 8.3-1.5 2.3-1.8 2.9-3.2 3.4-8.2q.6-6 3.5-11.1c2.5-4.4 2.6-5.2 1.3-5.8q-1.6-.4-3.9 1.9"/></svg>