<svg xmlns="http://www.w3.org/2000/svg" width="1365.333" height="1365.333" viewBox="0 0 1024 1024"><path d="M556.7 223.7c-.4.3-.7 1.5-.7 2.5 0 2.2-1.8 2.3-4.2.1-1.7-1.5-1.8-1.5-1.8.5 0 1.1-.5 2.4-1 2.7q-1 .8-.5 2.5c.4 1.4-.2 1.9-3.2 2.6-2.1.4-4.4.6-5.2.5-1-.2-1.2.6-.7 3.2q.6 3.5-.5 4.2t.2 1.5c2.4 1.5-1 4-5.3 4q-4 0-5.7 2.1a7 7 0 0 1-4.3 2.4c-1.4.2-3.5.8-4.6 1.4s-2.9 1.1-4 1.1-5.2 1.3-9.2 3-8.4 3-9.8 3-4 1.1-5.9 2.6c-3.1 2.4-3.3 2.4-3.3.5 0-3-1.6-3.4-3.9-1-1.6 1.7-2.8 2.1-5.4 1.6-3-.5-3.9-.1-6.6 2.7q-3.1 3.2-3.1 6.4c0 3-.1 3.1-2.5 2-1.9-.9-2.9-.7-5 .6q-2.6 1.8-9.3 1.8-11.1 0-11.2 4.8c0 2.2-2 2.6-3.7.9-.9-.9-2-.9-4.4 0-1.7.6-4.7 1.1-6.4 1.1s-3.8.7-4.5 1.5-2.4 1.5-3.9 1.5c-1.4 0-4.5.9-6.8 2-3.4 1.5-4.2 2.4-4 4.2q.2 2.1-1.5 2.6c-1.4.3-1.8-.3-1.8-2.7 0-3-.2-3.1-4.2-3.1-2.5 0-4.9.7-6 1.7-1.7 1.5-1.9 1.5-3.2-.3-1.2-1.5-1.9-1.7-4.2-.9-2.5.9-3.2.7-4.9-1.2-2.8-3.2-6.7-2.2-6.3 1.6.3 2.3 0 2.6-2.4 2.3-3.3-.3-3.9 2.3-.8 3.3 2.6.8 2.5 2.5-.1 7s-1.9 5.4 4.2 6.2c5 .6 8 2.8 7.2 5q-.5 1.6-4.4 1.1c-3.4-.3-3.9-.1-3.9 1.7a8 8 0 0 0 .8 3.3c1.6 2.4 7.6 6.2 10.1 6.3 3.7.1 10.9 8.3 9.1 10.4q-1.1 1.6-2.9.3a3 3 0 0 0-3.6-.1c-1.3.8-3 .5-6.3-1-4.4-1.9-4.7-1.9-7.9-.2-1.8 1-3.3 2.4-3.3 3.1 0 1.4-6.6 7.4-8.1 7.4-1.4 0 0 4.3 1.7 5.3.8.4 1.4 1.6 1.4 2.6s1.1 2.8 2.5 4.1c3.6 3.4 3.2 6.9-1.3 11.3q-3.8 3.7-6.7 3.7a13 13 0 0 0-6.5 3c-1.9 1.7-4.5 3-5.7 3q-2.1.1-2.3 1.3c0 1.8 2.1 3.7 4.1 3.7.9 0 1.9.9 2.2 1.9q.6 1.8 3.6 2.6c3.1.7 3.1.7 1.5 3.6-2 4-.4 6.3 3.8 5.4 2.4-.6 3.7.1 8.5 4.1q5.6 4.9 8.2 4.7c2.6-.2 3.4.9 5.4 3.3 1.6 1.9 2.4 3.4 1.9 3.4s-2 4.2-3.3 9.4l-2.2 9.4-7.1 2.9c-6.5 2.7-7.5 2.8-12.3 1.8-5.2-1-9.3-3.7-9.3-6.1 0-.7-.9-1.8-2-2.4-1.7-.9-2.3-.4-5.1 4.5-1.7 3-3.4 5.5-3.7 5.5s-1.6-.7-2.6-1.5c-1.1-.8-3-1.5-4.3-1.5-3 0-14-5.3-17.5-8.4a15 15 0 0 1-3.7-6.3c-.8-2.9-1.9-4.3-4.4-5.5q-3.3-1.6-4.9-.7c-1.6.9-2.6.4-4.4-.6q-6.1-3.3-7 1c-.8 3.4-4.3 3.3-8.4-.2-2.5-2-4.9-2.9-9.8-3.5q-6.5-.7-7.2.3c-.4.6-1.8.7-3.3.3-2.1-.5-2.7-.2-2.7.9s-1.2 1.7-3.7 1.9c-3.6.3-3.8.5-4.6 4.8-.7 3.6-1.5 5-4.2 6.8-4.5 2.9-6.1 2.8-9.6-.7a15 15 0 0 0-4.7-3.5c-2.2-.7-5.2-5.7-5.2-8.5q.1-2.3-2.9-2.7a10 10 0 0 1-5.1-3.6c-1.2-1.6-2.9-2.8-3.8-2.6-1.4.3-1.7 1.7-1.7 8.8 0 8.2-.1 8.5-2.4 8.8-2.1.3-2.3.1-1.6-2.5 1.4-5.5.8-8-2.8-12.5a16 16 0 0 1-3.9-7.8c-.3-3-.8-3.6-4.5-5-5.7-2.1-8-4.5-8.8-9-.8-5-2.2-6.8-7.1-8.9q-4-1.8-6.2-1-2.3.7-4.1-.3-1.8-1.2-4.8 0c-2.9.9-3.1.8-4.9-2.6-1-2.1-2.1-5.1-2.4-6.7-.4-2.6-.9-3-3.5-2.7l-5.5.3q-7 0-7 5.6c0 3.8-.9 4.1-3.5 1.3-1-1.1-3.1-2-4.6-2-3.4 0-4.8-1.9-2.6-3.4 2.6-2-1-5.6-6.1-6.3q-4.2-.6-5.3-2.5c-1.4-2.6-2.9-1.3-2.9 2.4 0 3-.1 3.1-1.9 1.4-2.4-2.2-4.1-1.3-4.1 1.9 0 3-7.7 9.5-11.2 9.5-1.4 0-4.2 1.3-6.3 3-4.3 3.4-3.9 3.3-8.2 2.1-4.4-1.3-6.1.7-4.3 4.9.7 1.7 1.1 3.2.9 3.3l-5.1 2.5c-2.7 1.2-4.8 2.7-4.8 3.3 0 1.2-5.8.8-9.4-.7q-2.1-1.1-1.2 1.4a80 80 0 0 1 1.6 10.4c.5 4.5 1.2 9.9 1.6 11.8.7 4.3-1.3 6.5-6.7 7.5-3.3.6-3.9.4-7.2-3.5q-3.6-4.3-4.8-9.7c-1.5-6.6-5.8-13.5-9.5-15.2-2-.9-3.5-.9-6-.1-3.2 1.1-3.4 1.4-3.4 5.8q0 4.6-2.3 8.7c-2 3.5-2.7 4-5.4 3.7-3.8-.4-5.1 1.5-7.1 9.8l-1.9 7.8q-.7 2.3 2.3 6 6.3 8.1-1.7 12.2c-3 1.6-3.9 2.6-3.9 4.7 0 1.5-1.4 4.4-3.3 6.7-5.4 6.6-6.1 8.3-4.3 11.1.9 1.3 3.7 3 6.5 4 5.6 1.8 6.5 2.7 7.5 7 .4 1.6 1.7 3.8 2.9 4.8l2.2 1.9-2.7-.6c-3.1-.7-3.3-.2-1.3 3.4.8 1.4 1.4 3.7 1.5 5.1a5 5 0 0 0 2.5 4.3c2.3 1.5 2.5 1.5 2.5.1 0-1.8 3-1.3 6.5 1.1 1.1.8 3.8 1.4 6.1 1.4h4.1l3.8 8.7c2.2 4.7 4.9 9.8 6 11.2 3.3 4 14.6 26.1 14 27.1q-1.4 2-6.3-.4c-3.1-1.5-7.2-.5-7.2 1.8 0 2 1.9 2.5 13.4 3.8a55 55 0 0 1 11 1.9c1.5 1.3-4.5 2.3-6.5 1q-3.7-2.2-5.8.2-2 2.8 8.4 7.9c7.2 3.6 11.8 4.1 16.8 1.8 2.3-1 5.8-2.2 7.8-2.5s4.6-1.6 5.9-3l2.3-2.5h-4c-2.2 0-4.3-.3-4.6-.7-1.2-1.1 1.3-3.1 3.3-2.6q1.9.4 2-.7c.1-1.1.7-1 1.5-.7q1.4.5 2-.3.7-1 2.5 0 1.8 1.1 3-.5c.6-.7 1.7-1.2 2.4-.9s2-.6 2.9-2c1.2-1.7 2.9-2.7 6-3.1 5.8-.9 10.4 1.1 16.1 7.1 3.7 3.8 4.7 4.4 5.2 3.1s1-1.1 2.8 1.6c2.3 3.4 5.6 4.8 5.6 2.4 0-.7 1.1-1.9 2.5-2.5s2.5-1.6 2.5-2.1 2.1-.1 4.8.9c2.6 1.1 6 2.2 7.6 2.5l2.8.6-.6 8c-.6 6.8-.5 7.9.8 7.9 3.8 0 .8 11.9-4 15.5-3.8 2.9-5.1 6-3.4 8 1 1.3.7 1.5-1.9 1.5-1.7 0-3.1.4-3.1 1 0 1.3-11.5 1.3-16.3-.1-3.2-.9-4.3-.7-6.5.8-1.5.9-3.2 1.6-3.8 1.5-1.5-.3-5 3.8-6.1 7.3q-1 3-3.1 3.3c-2.8.4-2.9 3.2-.2 5.5 1.1.9 2 2.5 2 3.6q-.1 5.3 4 5.1c1.6 0 3.2.5 3.5 1q.6 1-3.7 1h-6c-.9.1-3-.9-4.7-2.1-2.3-1.7-3.8-2-6.6-1.6a9 9 0 0 1-5.6-.6c-1.5-.9-2.2-.8-3.9 1-2.8 3-2.5 5.4.9 8.7 2.2 2.1 3.6 2.7 5.4 2.3 2.8-.8 6.7 1.7 6.7 4.1 0 1 .6 2.6 1.4 3.7s1.6 3.6 2 5.5 2 5.5 3.7 8c2.4 3.6 3 5.4 2.8 9v5.7c.1 1.5 6.6 5.7 10.2 6.6q2.6.6 5 5.6l2.4 5 5.1.1q5.3 0 5.8 1.5t3.6.9c2.8-.6 3.1-.3 4.9 3.8l2 4.4-3 8.9c-3.2 9.4-3.2 10.3-.8 22.6l1.2 6.6 4.6-2.6A56 56 0 0 1 192 733h8.6l6.7 5.6c3.7 3 6.7 6.2 6.7 7s3.4 6.4 7.6 12.4l7.6 11h12.5l.7-9.8c.3-5.3.9-33 1.2-61.4l.7-51.8 3.1-.6 33.6-6.7 30.4-6.2 1.1-4.2c1.4-5.7 2.3-6.4 9.1-6.7a22 22 0 0 0 7.2-1q1.6-1-.1 2.1c-2.9 5.5 2.2 8.1 5.8 3q1.4-1.9 1.5-.9.2 1.3 1 .7c1.1-.7.7-10.8-.5-15.8-.7-2.6-.5-2.8 1.6-2.5s2.4.9 2.7 5.5q.4 5 1.9 6.5 1.8 1.5 2 0c.6-1.7 3.8-1.5 5.3.3.7.8 1 2.5.6 3.9q-.5 2.4.6 3.2c1.7 1.1-1.7 2.2-6.7 2.3-5.3.2-6.4 1-5.8 4.5.5 2.6.8 2.8 4.2 2.2q14-2.6 14.5-.5l3.1 13.1c2.3 10.1 2.5 12.1 1.5 15.3-1.1 3.4-1 3.9 1.3 6.3 1.3 1.5 8.5 10.8 16 20.8l13.5 18 17.3-2.2 17.4-2.2 16.2 2.6 16.2 2.6 5.1-2.4 5.2-2.4 2 2.4 3.2 4.1c.6.9 2.4 2 4.1 2.6 2.3.7 4 2.8 7.9 10.2q5 9.1 6.3 8.6l2.8-1.1c1.3-.5 1.5 1.3 1.5 13.4 0 15.7-.3 15.2 8.1 15.2h3.5l1.2 7.5c1.4 9 5.1 17 8.4 17.9 1.3.3 7.3.6 13.4.6q11 0 15.6 1.6l4.6 1.5-.9 3.7c-.6 2.9-.4 4.1.9 5.5 2.8 3.1 5.1 3.9 9.3 3.2l3.9-.7V796c0-4.6.2-4.8 3.8-6.3 4.2-1.8 9.2-6.1 9.2-8.1 0-1.8 6.6-7.6 8.5-7.6.8 0 2.6-1.8 4.1-3.9 1.4-2.2 3.7-4.2 5-4.5q2.5-.7 3.1-3.6a9 9 0 0 1 1.9-4.1c.8-.6 1.4-1.8 1.4-2.6 0-2 2.5-2.6 4.9-1.3 1.8.9 2.5.6 5.2-2.5 1.7-1.9 3.7-3.5 4.4-3.5 2.4 0 7.3-5 8.5-8.5s5.8-7.7 10-9a13 13 0 0 0 4.3-2.4c3.1-2.6 20.6-1.7 27.6 1.5 4.4 2 6.3 2.3 10.2 1.8 3.6-.5 5.5-.2 7.3 1 2.8 1.8 6.3 2.1 8.6.6 1.2-.8 1.3-1.3.2-2.7-2.4-3.4-2.5-4.5-.8-7.3.9-1.6 1.6-4.1 1.6-5.7a7 7 0 0 1 2.3-5c3.2-2.9 11-5.3 15.2-4.6 2.8.4 3.5.2 3.5-1.1 0-2.3 2-2 9.7 1.3a78 78 0 0 0 31.2 7.1c8.1 0 9-.2 9.6-2 .7-2.2 1.3-2.3 13.5-2.5 5.6-.1 8.8-.7 12.5-2.4 4.3-2.1 5.8-2.3 11.5-1.6 7.5.9 7.5.9 23.5-.5 16.6-1.4 16.1-1.4 24.8-1.2 7.5.2 7.9.3 12.1 4.2 4.1 3.8 4.7 4 10.7 4 4.6 0 7.8.7 11.4 2.3l5 2.4v-9.5c0-6.1.4-9.7 1.1-9.9.6-.2 2-1 3-1.8 1.7-1.2 1.7-1.7.6-3.5-.7-1.2-1.2-2.3-1-2.3 4.5-2.2 6.4-3.6 6.6-5.1.7-3.4-.8-8.2-4.3-13.6-1.9-3-3.5-6.2-3.5-7.1s-.7-2.2-1.5-2.9-1.5-2.6-1.5-4.2-.7-4.5-1.6-6.6c-.9-2.2-1.4-5.7-1.2-8.7l.3-5h-5.3c-9.7 0-8.3-5.3 2.3-8.5l11-3c3.9-1 10.4-3.4 14.4-5.4l7.5-3.6 2.1 2c1.7 1.6 3.8 2.1 9.4 2.3 8.1.4 9.1-.4 9.1-6.7 0-3.4-.2-3.6-3.1-3.6h-3.1l.7-5.8c.4-3.1.6-8.2.6-11.2-.1-3.8 1.1-9.8 3.9-19.2 2.2-7.5 4-14.7 4-16.1 0-4.5 1.9-4.8 10.6-2.1a36 36 0 0 0 17.7 2c5.3-.3 9.7-.3 9.7.1q.1.9.8 2.1c.6.9 2.5.4 7.6-2.3a40 40 0 0 1 8.2-3.5c.7 0 1.6-1.2 2-2.8l.9-3.9c.2-.7-.2-3.4-1.1-6a58 58 0 0 1-2.2-24.2c1.2-6.4 3.6-9.1 8-9.1 3.6 0 8.8-2.6 8.8-4.4 0-.7.6-1.9 1.4-2.5q1.3-1.1 1.4-7.6c0-7.1 1.2-9.5 4.7-9.5 3.7 0 3.5-1-1.1-5.9-6.1-6.5-7.7-9.6-6.1-12.2 1-1.6.9-2.1-.3-2.9-2.2-1.4-2.6-1.3-3.8 1.5-.6 1.3-2.5 3.1-4.1 4a8 8 0 0 0-3.7 4q-.6 2.8-2.3 1.6c-3.7-1.9-8.2-2.1-10.8-.4-2.5 1.6-2.6 1.6-4.7-.9a70 70 0 0 1-9-13.3c-.6-2.2-8.4-7.5-10.9-7.5-2.1 0-4.7-3.8-4.7-7 0-2-2.1-4.7-8.3-10.7l-8.2-8.1-6.9-.7c-5.8-.6-7-.5-7.8.9-.5.9-2.2 1.6-3.8 1.6q-3 0-3 1.4c0 3.2-12.2 5.2-17.7 2.9-2.2-.9-4.9-1.2-7-.8-3.3.6-3.3.5-3.3-3.1v-3.7l-3.7.6a18 18 0 0 1-6.1.1c-2.1-.6-2.2-1-1.6-5.5.6-4.2.4-4.9-1-4.9-.9 0-3.5-.9-5.8-2.1-3.7-1.9-4.2-1.9-5-.5-.5.9-1.7 1.6-2.7 1.6-2.5 0-3.6 4.1-1.5 5.7 1.3 1 1.1 1.6-2 4.6-2.1 2.1-3.7 3.1-4 2.4q-.4-1-.5 1-.2 5.1-4.1-2a2102 2102 0 0 0-47.2-77.6l-14.2-21.6-19.3-18.9c-10.6-10.3-19.3-19.2-19.3-19.7s1.1-.9 2.3-.9c2.7 0 5.1-4.1 4.2-7q-.5-1.7 1-2.4 1.3-.6 1.5-1.6c0-1.7-3-1.1-5.7 1-3.1 2.4-5.6 2.5-9.3.4-2.6-1.6-2.8-1.6-4.9.5a8 8 0 0 1-5.7 2.1c-2 0-5.1.9-6.8 1.9q-3.2 2-4.6 1.1c-2.3-1.4-3-1.2-3 1 0 2.5-8.4 8.4-12.5 8.7q-13.3 1.1-13.6 2.7c-.1.6 0 2.8.1 4.8.1 3-.2 3.7-1.4 3.2-.8-.3-1.6-1.5-1.8-2.7q-.3-2.2-2.8-2.6c-1.4-.1-2.8-.7-3.1-1.2-.9-1.5-6.8-2.9-7.5-1.7-.4.5-2 .8-3.8.5a6 6 0 0 0-5.3 1.5l-2.1 2-3.6-2.8c-3.9-3.1-4.3-4.7-2.4-9.1 2.1-4.6 3.5-5.6 7.3-4.9l3.5.7v-4.6c0-4.1-.2-4.5-2.4-4.5-1.3 0-2.9.7-3.6 1.5q-1.3 1.5-6.2 1.5c-4.5 0-5.4-.4-8.6-3.7a30 30 0 0 0-13.6-7.3c-.4 0-.5 1.1-.2 2.5q.8 2.7-.9 1.9c-.8-.4-2.2-.1-3 .6-2.1 1.7-2.9.7-1.6-1.9q1.1-2 .1-2.6c-.5-.3-1-1.4-1-2.4 0-1.7-2.9-5.1-4.3-5.1-.4 0-.7 3.1-.7 6.8 0 6.4-.2 7-2.5 8q-2.5 1.2-2.5 3.6c0 2.7-2.7 3.9-5.4 2.4q-1.7-1-4.8.1c-1.7.6-3.2 1-3.3.9l-1.8-2.8c-2.6-3.7-2.2-6 .9-6 2.4 0 2.6-.3 1.9-2.8-.5-1.5-.8-5.5-.9-9-.1-5.2-.5-6.6-2.2-8-3.4-2.6-4.4-5.6-4.4-12.2 0-5.1-.5-6.7-2.6-9.6q-5.7-7.2-13 1.3c-2.4 2.9-3.7 2.5-10.6-2.9-3.5-2.7-4.2-2.9-9.1-2.3-5 .6-5.6.5-7.4-1.9q-3-3.9-4.6-1.9"/><path d="M319.2 629.1c-.7 1-1.2 3.3-1.2 5.1 0 2.7 1.1 4.3 6.7 9.5 5.3 5 6.9 6 8 5.1q1.5-1 .7-5.2-1.3-8.2-2.5-3.6-.8 2.8-.6-2.4c.2-4.2-.2-5.1-2.5-6.9-3-2.2-4.9-1.7-2.8.8 1.1 1.3.8 1.5-1.5 1.5-2.4 0-2.7-.3-2.3-2.5.7-3.2-.4-4-2-1.4"/></svg>