<svg xmlns="http://www.w3.org/2000/svg" width="1365.333" height="1365.333" viewBox="0 0 1024 1024"><path d="M441 7.2c0 12-3.3 29.3-7.3 39.2a183 183 0 0 0-6.7 20.5c-5.2 19.7-10 33-17.5 48.8a730 730 0 0 1-32.8 60.3 160 160 0 0 0-9 15.5A75 75 0 0 1 361 203a29 29 0 0 0-6.4 13.4c-.4 2.2-2.1 5.6-3.7 7.5-2.6 3.2-2.9 4.2-2.9 11.1 0 10.9-2.7 30.7-4.9 36.5-2.6 6.7-6.1 14.4-17.3 38a714 714 0 0 0-15.3 34.3 80 80 0 0 0-7 26 244 244 0 0 0 1.5 64.4c4.2 30.5 8.8 49.4 15 61.8 1.5 3 3.1 8 3.5 11 .5 3.5 2.5 9 5.6 15 2.6 5.2 5.8 12.4 7.1 16s6.2 12.6 10.9 20a332 332 0 0 1 25 46.6c3 8.8 8.6 33.9 9.4 42.4.4 4.1 2 13 3.6 19.7 3.2 13.6 6.8 34.3 9.9 56.8 1.2 8.2 4 22 6.3 30.5l4.2 15.5v23c0 21.7-.1 23.4-2.4 30a99 99 0 0 1-14 24.6 278 278 0 0 1-37.1 31.4 536 536 0 0 0-22.5 18c-18.2 15.3-22.9 18.7-36 25.5-6.6 3.5-17.5 10-24.3 14.4-11.1 7.3-12.4 8.5-13.3 12a65 65 0 0 0 1.6 24.6l3.8 10c1.3 3.6 3 10.7 3.7 15.8l1.3 9.3 3-.3 3.1-.3-.3-6.6c-.3-7.4.1-7.9 6.9-9.8l6.3-1.7c1.5-.5 1.7.1 1.5 5.3-.2 5 .4 7 3.8 14.3 3.6 7.5 7.7 13.1 8.8 11.9l7.4-13.9c10.5-19.8 12.4-21.5 19.4-17.9 2.4 1.2 5.7 3.5 7.4 5.1q3.2 3 5.5 2.6c2-.2 2.6-1.3 3.9-6.4l1.5-6.2 2.8 1.5c3.4 1.7 7.7 1.8 23.9.5 14.5-1.2 18.9-3 20.8-8.5 2.5-7.3 4.2-8.3 21.3-12.2 8.7-1.9 18.3-4.7 21.4-6 3-1.4 6.8-2.5 8.4-2.5q2.8 0 5.2-3.2c2.5-3.1 7.3-5.1 15.3-6.5 3.2-.5 8.4 1.7 19.4 8.2 3 1.8 7.6 4.1 10.1 5 3.9 1.4 5.2 2.6 7.3 6.5 1.4 2.7 4.6 6.9 7 9.5 4.7 4.9 5.8 8.5 7.1 23.5 1.1 11.7 2.4 16.5 5.3 19.2 5.1 4.8 14.6 5.6 18.9 1.7a36 36 0 0 1 20.7-10.3 48 48 0 0 0 12.3-3.7c3.2-2 5-2.3 16.7-2.3l13.1-.1 8-4.7c4.4-2.5 9.9-5.1 12.2-5.8q4-1.3 5.2-3.6c1.5-3.4 5.1-5.3 12.2-6.6 4.9-.8 7-1.8 9.4-4.2 1.6-1.7 5.3-4 8-5.1 4.3-1.7 5.1-2.5 5.9-5.7.7-3 1.7-4 4.5-5.1 3.3-1.3 3.8-1.3 6 .4q8.3 6.8 16.9-10c2.3-4.6 4.2-9.2 4.2-10.4s1.6-6.7 3.5-12.2c4.5-12.9 4.5-16.6 0-24.1-4.7-7.7-4.9-9-3.4-17.4l1.2-7h4.9c2.6 0 7.5.9 10.9 2.1 3.3 1.2 6.2 1.9 6.3 1.8l7.1-10.4 7.1-10.3c.1-.2 6.6-1 14.5-1.8 17.5-1.8 17.9-2.1 17.9-11.3 0-4.9.7-8 2.5-11.9 4.2-9.1 3.2-26.3-2.5-42.6a459 459 0 0 0-28.2-53.6c-.2-.3-1.7-1.6-3.4-2.8-4.7-3.2-5-6.2-1.5-13 4-7.7 6-15 6.8-24.9.6-8 .7-8.3 6.4-16 4.7-6.2 6.9-8.2 10.8-9.9 5.6-2.5 7.8-5.7 8.8-12.9a20 20 0 0 1 3-7.7l2.4-3.3-2.9-.6c-1.5-.3-7.2-3.6-12.6-7.2a59 59 0 0 0-11.2-6.7q-4.4-.2-4.4-18.5c0-9.4-.4-12.3-1.9-15.3-1-2-2.4-5.6-3-7.9-1.1-3.8-.9-4.6 1.3-8.1a55 55 0 0 0 4.4-10.4l2-6.6-3.4-3.3a58 58 0 0 1-10.9-20.2l-1-3.8-8.7 6.6c-4.8 3.7-9 7.5-9.3 8.4-.6 2.1-7.9 4.1-15.1 4.1-11.8 0-19-7.6-22.5-23.7-2.2-10.2-3.7-14.1-6.4-16.3q-1.6-1.2-.9-4.4c1.9-10.5-12.9-27-36.6-40.6-4.1-2.4-12.2-8.1-17.9-12.7-11.8-9.5-13.8-10-22.1-5.8-4.3 2.2-6.3 2.5-14.7 2.5s-10.6-.4-15.2-2.5l-5.4-2.5.7-4.2q1-7 4.5-6.8c.9 0 2.7-.9 4.1-2s3.1-2 3.8-2 3.3-3.1 5.7-7c2.5-3.8 5-7.2 5.5-7.5 1.6-1 1.2-30-.5-38a98 98 0 0 1-1.5-16.3v-9.3l10.8-11.7c10.3-11.2 10.8-12.1 13.4-20.2 4.7-14.8 9.7-28.1 11.9-31.1 1.1-1.6 1.7-3.4 1.3-4.1s-5.2-5.5-10.5-10.6c-8.7-8.2-9.8-9.8-10.9-14.3-.7-2.8-2.5-6.5-3.9-8.3a27 27 0 0 1-4.1-6.5c-.8-1.9-2.6-4.9-4-6.5-1.4-1.7-4.8-6.9-7.5-11.5-5.2-8.6-5.4-8.9-14.4-11.6a32 32 0 0 1-12.3-7.8c-7.3-6.6-9.8-7.5-19.4-7.6q-5-.1-6.4-1.5c-.9-1.1-1.8-1.3-3.7-.5-1.4.5-2.8.7-3.1.4-.9-.9 7.6-21.2 12.1-29 6.9-12 16.2-25.7 23.1-34 10.8-13 11.1-21.8 1.2-35a116 116 0 0 1-8.5-13.2c-5.6-10.5-39.8-42.6-50.4-47.3-2.6-1.2-5.2-3.1-5.8-4.3s-2.6-3.8-4.3-5.7a62 62 0 0 1-8.8-22.4q-.4-2-3.6-2.8-3.3-1-12.1-9.8c-4.9-5-9.6-9-10.5-9-1.3 0-1.6 1.3-1.6 7.2"/></svg>