<svg xmlns="http://www.w3.org/2000/svg" width="1365.333" height="1365.333" viewBox="0 0 1024 1024"><path d="M421.2 2.5a18 18 0 0 0-2.7 6.5c-.6 3.8-.8 4-7.6 6.1q-7 2.3-8.1 1.2c-.7-.6-3.4-1.3-5.9-1.6-4-.5-5.6-.1-12.2 3.2q-7.7 3.7-11.3 7.9c-3.6 4.2-4.4 4.2-5.9 4.2-1.3 0-3.1 1.1-4.2 2.5-1.8 2.5-1.9 2.6-5.6 1L354 32V14.2l-3.4-2.1c-2.7-1.7-5-2.1-11.8-2.1-7.4 0-8.7.3-10.4 2.1-3.9 4.3-10.2 8-12.8 7.3-1.3-.3-2.7-.1-3 .5-.4.6-2.3 1.1-4.3 1.1h-3.6l.6 4.2c.4 3.1 0 5.3-1.7 8.7a48 48 0 0 0-4.6 20.7c0 4.6-.6 6.3-3.1 10.1-4.1 5.8-4.8 11.2-2.1 15 2.5 3.5 3.7 10.5 2.3 13.1-.6 1.1-3.4 3.5-6.3 5.4-5.3 3.3-5.4 3.3-16.3 3.1-15.8-.3-19.6.8-27.4 7.9a38 38 0 0 0-8.1 9.6c-1.2 2.7-3.4 4.8-7.7 7.4l-6 3.8-.7 17.7c-1.5 42.1-1.6 43.3-4 43.3a10 10 0 0 0-4.6 1.7c-5.6 3.8-17.4 15-20.3 19.3-15.5 22.9-36.5 44-43.7 44q-5.4-.1-16.3 8.9c-7 5.7-21.7 15.7-29.8 20.3-3 1.6-5 4.1-7.9 9.3a60 60 0 0 1-7.9 11c-3.1 2.9-4.1 4.7-4.1 7 0 3.1-.2 3.3-9.3 6.4-12.7 4.4-20 8.8-20.7 12.7-.4 1.6-2.8 5.7-5.4 9.1-4.7 6-4.7 6.1-4.1 12 .7 5.6.6 5.9-1.8 7a9 9 0 0 0-5.4 9.7c.4 2.7 0 4-2.4 6.9-1.6 2-3.8 3.8-4.8 4.2-2.6.8-5.5 7.7-4.7 11.1.9 3.3-.5 4.3-5.9 4.5a20 20 0 0 0-5.8.8c-1.8.6-1.8.8-.2 2.1.9.7 3.8 4.5 6.5 8.4 3.6 5.2 6.5 8.1 10.5 10.5 8.7 5.3 11.1 11.8 8.4 22.6-1 3.8-.8 4.8 1 8.2 1.8 3.1 3.4 4.3 8.9 6.5a120 120 0 0 0 12.3 4.2c3.1.9 10 3.9 15.3 6.6 5.3 2.8 19.6 9.1 31.8 14s24.2 10.2 26.7 11.7 6.6 3.7 9.1 4.9 10.2 6.9 17.1 12.7c12.1 10.2 12.7 10.9 16.4 18.9 3 6.3 3.9 9.6 3.9 13.8l.1 5.5-3.2-.1c-1.8-.1-3.3.2-3.3.6 0 .5 2.3 2.9 5.1 5.4 3.8 3.4 5.9 4.6 8.3 4.6 1.8 0 5.5 1.5 8.8 3.4a126 126 0 0 0 32.8 12.1c9.3 1.2 31 8.4 36.6 12.2q5.2 3.6 8 3.1l2.9-.3-3.8-3.7a22 22 0 0 0-7.7-4.9 14 14 0 0 1-5.6-3.1c-1.6-1.7-1.6-1.8.7-1.8 1.4 0 2.9.4 3.5.9a59 59 0 0 0 13.8 7.1c.8 0 1.8 1 2.2 2.2s2.3 3.7 4.3 5.5l3.6 3.2-3.2.1c-4 0-4.1 1.1-.5 4.5a36 36 0 0 0 16.9 7.5c5.5 1.1 6.3 1.7 17.3 12.5a74 74 0 0 0 16 13.3c2.5 1.1 6.4 3.6 8.8 5.5 2.4 2 6.5 4.4 9.2 5.4l4.8 1.7 1.1 7.5 1.2 7.5 7.1 6.5a227 227 0 0 0 20.5 17.2c3.7 3.1 8.8 6.7 11.3 8q4.6 2.5 7 7c4 7.3 13.6 17.1 25.5 26 6.1 4.5 13.5 10.5 16.5 13.4 3 2.8 8.8 7.3 12.8 10q7.1 4.7 7.2 6.7c0 3.6 2.8 8.8 4.8 8.8 3.3 0 11.2 4 15.4 7.8 2.2 2 5.3 6.2 6.8 9.3a82 82 0 0 0 22.8 25.3c4.2 3 8.6 6.3 9.6 7.5a74 74 0 0 0 10.8 7.2c7.5 4.3 8.7 5.3 7.3 6.3q-1.5 1.2-1 2.8c1 2.4 9.4 7.8 12.2 7.8q2.4.1 9.9 7a78 78 0 0 0 13.3 10c3.2 1.6 7.3 4.1 9.1 5.7a83 83 0 0 0 32.5 17.8c7.7 2.4 15.1 4.6 16.5 4.9 4 .8 20 11.3 25.5 16.7 4.3 4.2 5.9 5 10.9 6a108 108 0 0 1 36.2 15.2c1.6 1.3 5.2 3.1 7.9 4.1a52 52 0 0 1 17.5 10.2 70 70 0 0 0 31.5 18 38 38 0 0 1 21 11.2q7 6.7 11.1 8a109 109 0 0 0 19.8 1.2h15.7l13.2 5.6a499 499 0 0 0 22.5 9c5.2 1.9 12.5 4.8 16.4 6.4s8.4 3 10.2 3c4.7 0 5.8 1.3 6.4 6.9l.5 5.1h3.6c3 0 4.2.6 5.9 3 1.7 2.3 3.1 3 5.6 3 1.8 0 6.1 1.1 9.5 2.5 4.9 2 7.2 2.4 11 1.9s5.6-.2 9 1.5a32 32 0 0 0 20.9 2.1c8.8-1.5 9.3-3 2.6-8.7-4.5-3.8-4.6-3.9-3.7-7.8 1.5-6.8.9-23.3-1.2-32.7-1.9-8.4-1.9-8.9-.2-11.8 2.2-3.6 2.2-6.7.5-28.5-1.3-16.3-1.5-17.2-4.6-22.1s-3.2-5.5-3.2-16.3c0-10.1.2-11.1 1.8-11.1 1.1 0 2.7-.9 3.7-2s2.9-2 4.2-2c2 0 2.3-.5 2.3-4.1q0-4-2.5-7.7c-2.3-3.4-2.5-4.5-2.5-15.2 0-6.3.4-12 .8-12.6 1.4-2.2 7.4-4.5 10.9-4.2 3.9.3 5.9-1.6 9.2-8.9 1.9-4.1 1.9-4.2-.3-12.9-2.1-8.4-2.1-9.1-.7-15.1 1.5-5.8 1.8-6.3 4.4-6.3 1.5 0 3.9-.7 5.3-1.6s2.6-1.5 2.7-1.3l1.4 2.9 1.1 2.5 1.5-3.5c.8-1.9 2.9-4.5 4.5-5.7l2.9-2.2-1.4-8.3c-.8-4.5-1.6-8.5-1.9-8.7q-.5-.1-2.5 2.3l-2.1 2.6-3.2-4.2c-4.3-5.6-5.5-13.5-2.3-14 1.8-.3 2.3-1.4 3.3-8.3.6-4.5 1.9-10.4 2.8-13.3 1.4-4 1.5-5.9.8-8.1-1.2-3.3-.7-4.1 2-4.1 2.5 0 2.2-1.8-1-6.6a44 44 0 0 1-4.6-10l-4.7-13.7c-2.2-6-2.6-8.3-1.9-10.3.6-1.4 1-7.7 1-13.9 0-12.6-.4-13.5-6.9-13.5-2.7 0-3.1.5-4.6 5-2 5.9-2.9 5.7-6.5-2-1.3-2.7-2.6-5-2.9-5s-2.6 1.3-5.1 3l-4.4 2.9-3.4-6.4c-2.7-5.1-4.1-6.6-6.7-7.5a57 57 0 0 1-16-9c-2.9-3.2-5.3-2.6-6.1 1.5q-.6 3.4-2.2 3.5c-1.9 0-16.9-9.9-19.6-12.9-2-2.2-2.2-4.8-1.1-12.2.6-3.8.3-5.4-2-10-1.5-3-3.3-5.7-3.9-6.1s-3.5-.8-6.3-.8c-6.3 0-6.3.1-3.3-14.1 3.2-15 3.1-15.2-4.5-19.4a25 25 0 0 1-8.6-7.2c-2.7-4.4-9.2-7.3-16.4-7.3q-5.2 0-6.5-1.5c-2-2.4-7.6-2.9-14.6-1.1-5.2 1.3-6.9 1.4-8 .5-1.2-1-2.1-.6-4.7 1.9a19 19 0 0 1-6.7 3.9 28 28 0 0 1-17.6-3.4 44 44 0 0 0-10.9-4.3q-7.9-2.2-11-5c-5-4.6-18.6-8.1-23.9-6.1-2.1.9-3.2.8-4.2 0-1.2-1-1.2-1.3.1-2.3s1.3-1.8-.4-7.1l-2-6 2.6-2.7c2.2-2.3 2.4-3 1.3-4.3-.7-.8-2.2-1.5-3.4-1.5s-3.5-1.4-5.1-3-3.9-3-5.1-3c-1.8 0-2.4.9-3.4 5-.9 3.9-1.6 5-2.9 4.6l-4.1-1.1c-1.4-.4-3.7-2.4-5.3-4.6-4-5.9-8-7.9-15.4-7.9-5.6 0-6.3-.2-6.3-2q0-2 2-2c2.3 0 7-6.5 7-9.7q0-2.4 2.1-2.3 5.7-.2 5.9-5c0-3.4-.1-3.4 3.5-2 2.5.9 2.8.7 4.3-2.9 1.3-3.1 2.5-4.2 5.4-5.1q3.8-1.1 3.8-2.8.2-2.6 9.7-8.2a8 8 0 0 0 3.8-5.2q.7-3.3 6.1-8.1 5.5-4.9 5.4-7.4t2-3c1.9-.5 4-5.5 4-9.7 0-1.1.8-4.3 1.7-7.3 1.6-5.2 1.6-5.3-.5-7.6q-3.9-4.2-.6-9.2c1.3-1.9 1.5-3.8 1-7.9-.7-5-.5-5.5 1.4-6.1 3.2-1 8-8.3 8-12 0-1.7-1.1-6.5-2.5-10.5-2.8-8.4-3.3-17.4-1-20.4 2-2.6 2-10.2 0-10.9-.8-.4-4.5-2.9-8.4-5.8l-6.9-5.2-.7-6.1c-1-10.2-1.5-11.5-4.3-12.8-2.2-1.1-2.9-2.4-3.9-6.8-.6-3-1.2-8.1-1.2-11.2-.1-3.1-.6-6.9-1.2-8.5s-1.5-7-2-12.2c-.7-8.4-1.2-10-4.9-16.3-4.1-6.8-4.4-7-13.3-11.2a74 74 0 0 1-13-7.7c-3.6-3.2-3.8-3.9-4.9-12.2l-1.1-8.7h-9.3c-10.7 0-15.6 1.5-22.1 6.7-3.6 2.9-4.3 4.1-5.7 10.2-2.2 9.8-2.1 19.7.3 24.3l2 3.6-6 7.1a36 36 0 0 1-7 7.1c-1.7 0-5.4 5.1-5.9 8.3-.4 2.7-1 3.2-3.5 3.5-2.6.2-3.7 1.4-7.5 7.9-2.5 4.2-4.7 8-4.8 8.4-.2.5 1.1 2.7 2.9 5l3.2 4.1-2.1 4.4c-1.6 3.1-2.9 4.5-4.9 5l-6.6 1.5q-5.9 1.6-5.7-1.5c0-.7-1.1-2.3-2.4-3.5-2.3-2.2-2.5-2.2-5-.6-1.4 1-2.6 2.1-2.6 2.6a17 17 0 0 1-3.1 4.3c-2.4 2.8-4 3.6-7.7 4.1-7.9 1-8.9 1.4-13.2 5-3.4 2.8-5 3.5-8.6 3.5-2.4 0-4.4-.2-4.4-.5 0-.4.7-1.9 1.5-3.5 1.5-2.8 1.4-2.9-3-5.7q-4.7-2.9-4.5-5.1c0-1.9-.5-2.2-3.7-2.2q-10.5-.2-14.4-13.4-.9-3 .3-6.3c2.2-5.9-1.6-7.4-14.7-5.9l-6 .7-2-4.3-2-4.3-7.2-.3c-6.6-.3-7.3-.1-8.4 2-2.6 5-7.9 5.3-10.6.7l-1.8-3.1-6 6.7-6 6.6.1-7c.1-8 2.5-12.8 8.7-17.5A25 25 0 0 0 512 251c0-.8 1.1-2.5 2.4-3.9 1.5-1.6 3.4-6 4.8-11 2.4-8.2 2.4-8.4.6-11.9-1-2-1.8-4.5-1.8-5.5 0-2.2 2.5-11.3 4.7-17.4 1.8-4.9 1.1-10.6-1.5-12.5a41 41 0 0 1-4.7-5.3 39 39 0 0 0-5.6-6.2c-2.2-1.8-2.8-3.6-3.7-10.5-1.7-12-1.5-19.6.7-24.4q4.6-10.1 1.4-15.4c-1.5-2.6-2.3-3.1-4.7-2.7q-3.4.6-1.3-.8c1.4-1 1.4-1.5-.8-5.1-2-3.3-2.4-5.2-2.5-12.1 0-9.1.9-8.1-9.3-9.9A8 8 0 0 1 485 93l-2-2.9 2.2-4.6c1.8-3.8 2-5 1.1-7.4s-.8-3.2.5-4.5c1.4-1.4 1.5-2 .2-4.9-2.1-4.9-1.8-10.2.8-13 1.2-1.3 2.2-2.8 2.2-3.4 0-1.8-3.4-4-7.3-4.7q-3.8-.7-8.5-5.3l-4.7-4.5-4.6 1.6c-2.6.9-5.6 1.6-6.8 1.6s-3.5.7-5.1 1.5c-3.7 1.9-3.7 1.4.1-5.5s3.4-11.8-1.5-15.5c-3.2-2.4-8-3.2-10.2-1.7-.6.4-2 3.4-3 6.6l-2 5.9-3.2-7.4c-2.6-6-3.2-8.3-2.7-11.4.6-3.4.2-4.7-2.5-8.8a18 18 0 0 0-4-4.7c-.5 0-1.8 1.1-2.8 2.5"/></svg>