<svg xmlns="http://www.w3.org/2000/svg" width="1365.333" height="1365.333" viewBox="0 0 1024 1024"><path d="M676 2.9c0 1.1-9.3 10.2-14 13.6-2.6 2-4.2 2.5-6.4 2.1-1.6-.4-3.5-.1-4.3.6-1.1.9-2.2.9-4.8-.1s-3.9-.9-5.6 0-2.3.8-2.9-.1-1.3-.9-2.8-.1a14 14 0 0 1-5.4 1.1c-1.9 0-4.3.7-5.4 1.5-2.7 2-5.2 1.8-6.6-.5-2-3.1-11-2.8-15 .5a10 10 0 0 1-5.4 2.5c-1.4 0-4.3.9-6.5 2.1-4 2-4.2 2-6.1.2-1.9-1.7-2-1.7-3.4.2-.8 1-1.4 3.6-1.4 5.7 0 3.1-.4 3.8-1.9 3.8-1.2 0-3.7 2.3-6.5 5.9-3.6 4.7-4.6 6.8-4.6 9.8 0 3.4-.6 4.4-4.6 7.7l-4.5 3.8-2.3-2.1-2.2-2.1-3.4 3.5q-6.1 6.3-8 .9c-1.2-3.1-2.2-2.6-8.1 4l-3.7 4-4.1-2.7c-2.2-1.5-5-2.7-6.1-2.7q-2 0-2-1.9c0-1.4-1.3-2.3-4.9-3.5-6.4-2.1-8.1-2-8.1.3 0 2.6-4.2 5.1-10 5.8-4.7.5-4.9.4-5.6-2.1-.7-3-2.4-3.5-2.4-.7 0 1.1-.3 2.6-.6 3.5-.5 1.3-.9 1.2-2.3-.6l-1.8-2.1-3.1 4.6c-1.9 2.7-2.8 4.8-2.2 5.2 1.2.8 1.3 4.5.1 4.5-.5 0-1.9-.8-3.2-1.9l-2.3-1.8-4.9 5.3c-2.7 3-5.7 5.4-6.7 5.4q-2 0-2.5 3.2c-.9 4-2.2 5.7-5.1 6.8q-2.2.8-3.9 6.2a17 17 0 0 1-3.1 6.1c-.8.4-1.4 1.6-1.4 2.5-.1 3.4-4.3 6.9-9.1 7.6-4.2.6-4.7 1-5.7 4.3-.9 3-.9 4 .3 5.3.8.9 1.5 2.1 1.5 2.6-.1 1.5-4.4 5.9-7.7 7.9-2.8 1.6-3 2.1-2.5 6.1l.5 4.4-3.9-.1c-2.2 0-5.5-.6-7.4-1.3-3.2-1.2-3.6-1.1-5 1l-1.5 2.3-5.1-3.3c-4.2-2.6-5.9-3.1-9.3-2.8-3.3.3-4.1.8-4.1 2.4 0 3.2-1.9 5.8-4.3 5.8q-10.5.2-5.6 8.4l2.1 3.6-2.1 2.9a8 8 0 0 1-10.3 3c-2.3-.9-2.8-1.8-2.8-4.5 0-3.2-.2-3.4-3.5-3.4-2.9 0-3.5.4-3.5 2 0 1.1-.8 2.3-1.7 2.7-1 .3-3.2 1.9-5 3.6l-3.1 2.9-4.8-1.6a25 25 0 0 1-6.8-3.4 58 58 0 0 0-14.2-6.2c-.2 0-.4 1.3-.4 2.9q0 2.8 2.1 4.3c2.1 1.3 2.1 1.5.5 4.5-.9 1.8-1.6 4.1-1.6 5.3 0 1.8-.6 2-5.5 2-5.3 0-5.5.1-9 4.6q-3.5 4.8-3.5 8 .1 6.6-3.1 6.4c-2.4 0-2.4.2.1 5 2.2 4.3 2.4 5.8 1.1 7.9-.8 1.2-1.8 1.1-6.1-.8-6.3-2.7-7.1-2.2-7.8 4.9-.4 4.4-.7 5-2.4 4.4-1.8-.5-1.8-.4-.3 3.1l1.5 4c0 .2-2 1-4.4 1.8-3.9 1.3-4.6 1.3-5.7.1-1.3-1.6-3.5-1.9-4.3-.6-.3.5.5 2.3 1.7 4q2.2 3.4 4.3 2.7c1.6-.3 2.5.4 4.2 3.4l2.2 3.9-3.5 2.2c-3 1.8-4 2-6.6 1.1-3.6-1.3-4.9.7-2.9 4.4s-.6 12.9-3.8 13.3c-1.8.3-2.2 1-2.2 3.8 0 2.9-.4 3.4-2.7 3.9l-5.6 1.3-2.8.7 2.5 4.7 2.4 4.6-2.2 2.1c-1.7 1.6-3.5 2.1-7.3 2.1-5.8 0-7.8 1.6-9.4 7.5-.9 3-1.8 4-5.4 5.6-2.3 1-5 3-5.9 4.3a21 21 0 0 1-9.8 8.3c-2.1.9-3.4 2.1-3 2.7s.6 2.7.7 4.6c0 3.5 0 3.5 4.2 3.2 3.8-.3 4.3 0 5.7 2.7.9 1.6 1.6 3.4 1.6 3.8a22 22 0 0 1-6 4.7 24 24 0 0 0-6.5 5.4c-.2 1-2.6 2.9-5.3 4.4a36 36 0 0 0-6.6 4.7c-1.3 1.5-2.6 1.9-4.7 1.4-6.3-1.2-9.7 1.4-7.9 6.2.5 1.4.7 3.8.4 5.4-.5 2.4-1.6 3.4-6.4 5.4l-5.7 2.5-.8 8.7c-.6 7.5-.9 8.5-2.3 7.9-7-2.9-7.1-2.9-8.7-.9-1.3 1.8-1.2 2.2 1.4 4.5 1.6 1.4 3.3 4.2 3.9 6.2 1 3.7.9 3.9-3 7.2-2.3 2-5.4 3.6-7.2 3.8-2.7.3-3.1.7-3.7 4-.6 3.8-6.9 12.5-9.8 13.6-3.8 1.4-4.1 5.8-.9 11.9 2.6 4.8 2.1 5.8-3.3 6.8-2.9.5-4.1.2-6.5-1.9-3-2.5-3.1-2.5-5.9-.6-1.6 1-4.4 4.2-6.2 7.1a16 16 0 0 0-3.3 10.6c0 4.8-.2 5.3-2.5 5.9q-2.6.6-4.4-1c-2.9-2.7-7.3-2-10.9 1.7-1.8 1.8-3.2 4.3-3.2 5.5 0 3-5.4 4.5-9.2 2.6-3.5-1.8-4.8-1.8-4.8.1 0 .8-1.3 2.1-2.9 2.9-1.6.9-3.1 2.5-3.4 3.7-.6 2.1-.8 2.2-11.4 1.5-10.4-.7-11.1-.6-16.8 2-9 4.1-13.4 8-14.1 12.6-.6 3.2-1.4 4.2-5 6.2l-4.3 2.4-2-3.4c-3.3-5.6-4.3-4.6-5.6 5.1a23 23 0 0 1-2.1 7.2c-1.4 2.2-1.5 2.2-4.4.4a20 20 0 0 1-5.3-5.2c-1.2-1.9-3.3-3.5-4.5-3.7-2.1-.3-2.2 0-2 6.2.1 4.9-.3 7-1.5 8.4-2 2.2-2.2 8.1-.4 10.4.6.9 3 2.7 5.3 4.1 3 1.8 4.7 3.9 6.3 7.6 1.7 4 3.8 6.4 10 11.3 4.3 3.5 9.2 7 10.7 7.9 2.6 1.4 6 8.9 28.9 63C76.7 659.9 89 690 89.8 693c1.7 6.7 2.4 7.6 6.3 8.4a18 18 0 0 1 5.9 2.6c1.5 1.1 3.5 2 4.4 2q1.6.1 1.6 2.2c0 4.1 3.5 8.3 8.3 10.2 5.2 2 4.1-1.1 10.8 30.3l3.2 15.2 4.2.7c5 .7 25.1 0 28.2-1 2.3-.8 2.6-.3 3.8 6.6.5 3.3.3 3.8-1.8 4.3-2.5.7-5.9 5.4-6.7 9.5q-.5 2.6-3.1 2.8c-2.5.3-2.6.6-3.2 8.5-1 12.2-.8 29.2.3 32.1q1 2.7 3.4 2.6c2.2 0 2.5.5 3 5.8 1.3 12.3 1.3 12.7-.9 13.2-1.5.5-2 1.4-2 3.9 0 5.4 2.4 6.1 9.1 2.8 3.2-1.6 7.9-3.1 10.6-3.4 3.9-.5 5.2-1.1 6-2.9 1-2.2 6.8-4.1 8.8-2.9 2.3 1.4 4.2 7.2 4.7 14.4.5 7 .8 7.9 4.1 11.3 2 2.1 4.4 3.8 5.4 3.8q1.8.1 3.2 3.5c1.5 3.4 1.5 3.4 8.7 3.7l7.3.3 3.3 4.3c2.6 3.5 3.3 5.3 3.3 8.9s.7 5.5 3.6 9.4c3.5 4.8 3.7 4.9 9 4.9 5.4 0 5.4 0 5.4 3.1q0 3.2 3.6 7.1c3.2 3.6 3.5 4.4 3.3 9.1-.4 6.8.8 8.7 8.3 13.1 3.5 2 9.8 6.2 14 9.2 7 4.9 7.9 5.9 8.9 10 .9 3.6 1.8 4.7 4.4 5.8q3.3 1.4 7.1 7.6c3.6 5.9 4.3 6.4 14.8 11.7l11 5.5 18.9-.7c17.6-.7 19.2-.9 22.4-3.1 3.7-2.5 11.9-4.2 13.2-2.8a35 35 0 0 1 2.6 7.6c2.1 8 6.2 12.4 14.6 15.7 5 2 5.8 2 8.8.8 3.1-1.3 3.6-1.2 8.7 1.5l5.3 2.9 12.8-1.5c12.1-1.4 12.9-1.4 15.3.3l7.3 5.2 4.8 3.4 1.9-2.5c2.2-2.9 2.7-11.8.9-15.3-.7-1.1-1.2-5.6-1.1-10v-7.9l5.3-3.4c2.9-1.9 5.9-3.4 6.6-3.4s2.4-1.7 3.8-3.9a14 14 0 0 0 2.6-9.2c0-4.2.8-6.9 3.5-12 2.5-5 3.2-7.4 2.8-9.7-.4-1.8 0-4.1 1-6q3.3-6.4-.4-7.7-2-.7-2-3 .1-2.3-3.7-4.6l-3.6-2.3 5.1-4.5c4.3-3.8 5.2-5.2 5.2-7.9 0-3.2 0-3.2 5.3-3.2 2.8-.1 6.3-.7 7.7-1.5s3.7-1.4 5.1-1.5c1.4 0 3.6-1.1 4.9-2.5s4-2.8 6-3.1c3.5-.6 3.7-.8 5.8-7.7 1.2-4 2.2-7.9 2.2-8.7.1-.8.7-2.4 1.5-3.4.9-1.2 1.5-4.2 1.5-7.2 0-4.4-.4-5.4-2.5-6.8-2-1.3-2.5-2.5-2.5-5.5 0-3.5-.3-4-3.7-5.4q-3.8-1.6-6.3-5.6-2.4-4-4.9-4.3t-4.9-4.5c-2.3-4.2-2.3-4.3-.3-4.3 1.1 0 2.6-1 3.2-2.2a44 44 0 0 1 5-6.5c2.2-2.4 3.9-4.7 3.9-5.3q.1-.9 2.1-1 2.8-.2 5.5-1.6c2.8-1.3 3.7-1.4 4.9-.4a26 26 0 0 0 9 1.8c7.2.4 7.5.4 7.5-1.7 0-4.3 1.8-5.9 8.9-7.7l6.8-1.8.6-6.9c.3-3.9 1.2-7.7 2.1-8.6a20 20 0 0 0 2.6-6.1q2.2-8.1 8-9.5 5.2-1 6.5-7.4l.7-3.4 4.8.6c2.7.3 6.7 1.5 8.9 2.6 5.7 2.9 14.7 2.8 24-.4a59 59 0 0 0 19.8-9.7c1.7-2 2.4-2 15.8-1.3 7.7.4 16.8.7 20.1.6s8.7.5 11.7 1.4c5.5 1.6 5.6 1.6 10.7-1 2.9-1.5 10.8-5.1 17.7-8l12.5-5.4 4.8 1.9c6 2.3 11 1.3 14.1-2.9 2-2.7 2.4-2.9 7.8-2.4q5.8.6 8.2-.8c1.3-.7 4.2-1.5 6.3-1.8 3.4-.5 4.1-1.1 5-3.9 1.4-4 1.7-4.2 12.6-7.8a62 62 0 0 0 10.6-4.3l8.3-6.4c4-2.9 7.3-4.7 9.1-4.7 1.5 0 3.9-.9 5.3-2q2.6-1.9 6.5-2c3.6 0 4.3-.4 6.3-3.8 3.5-5.8 5.9-8 11.5-10.6 3-1.4 5.9-3.6 6.9-5.3 1.7-2.9 2.8-3.7 14.1-9.9 5.1-2.9 6.5-3.2 9.2-2.5 3.9 1.2 4.3.6 5.1-6.6.5-5 .9-5.7 4.1-7.3 1.9-1 6-2.4 9-3.1 8.3-1.8 14.3-7.3 11.3-10.2-.3-.4-.5-3.4-.4-6.7.2-5.7.1-6-2.1-6-3.1 0-4.2-.9-6.3-5-2.7-5.4-8.5-10.9-12.2-11.6-3-.6-5.7-2.4-3.5-2.4.6 0 2-1.1 3.3-2.5s3.2-2.5 4.1-2.5c2.4 0 4.6-7.4 3.1-10a12 12 0 0 1-.3-12.5c2.4-4.7 2.6-8.5.5-8.5-2.4 0-1.8-1.9 1-3.2 1.9-.9 2.4-1.6 1.9-3.2l-1-3.7q-.4-1.5 1.6-2.2 3.6-1 .5-8.3c-1.8-4.5-.4-8.2 3.4-8.6 2.5-.3 2.6-.6 2.9-7.1.3-6.7.3-6.7 3.2-6.7q2.8 0 4.4-2.1 1.5-2 3-1.6 1.5.6 3.3-2.4c1-1.7 3.5-4 5.6-5q3.7-2 3.7-4-.2-2.5 1.5-.9c1.7 1.6 2.1.8 4.8-.9 2.8-1.7 5-2.1 12.4-2.1q9.1 0 10-1.3c.9-1.1 3-15.2 3.6-23.7.2-3.3.4-3.5 4.4-4 8.7-1 11.2-7.5 4.8-12.7-3.3-2.6-3.5-3-2.5-6.3.9-3 .6-3.9-1.6-7.4-2.2-3.2-2.4-4.3-1.5-5.8 1.7-2.8 1.3-7.9-.9-10.3-1.7-1.9-1.8-2.4-.6-4s1.8-1.8 4.9-.8c4 1.2 4.7.9 4.7-2.1 0-1.2.7-3.2 1.6-4.4 1.2-1.8 1.9-2 3.5-1.2q2 1.3 2.6-.6c.6-1.9 1.5-1.5 5.9-.9q5.4.6 5.4-.4.1-1 1.4-1.1c1.3-.1 1.6-1 1.8-2.2q.2-2.3 3.5-2.9c1.7-.3 4.3-1.6 5.8-2.8s3.3-2.1 4.1-2.1 1.9-1.9 2.7-4.3c1.2-3.6 1.8-4.2 4.1-4 2.5.2 2.6 0 2.6-5.3 0-4.9.2-5.4 2.3-5.4 5.5 0 6.3-.8 7.5-7.8.6-3.7.8-9.3.5-12.5-.6-5.6-.6-5.7 2.1-5.7 2.2 0 2.6-.4 2.6-3.1a15 15 0 0 0-2.9-7.2c-2.7-3.9-3-5.2-3.6-15.9-.8-12.7-1.5-14.3-6.9-15-3.5-.4-4.5-2.4-1.7-3.3 3.5-1.1 2.8-5.9-1.3-9.2-2.8-2.1-3.3-3-2.5-4.5q1-1.8-.5-4.6c-1.2-2.3-2.8-3.3-7.4-4.6-3.2-.9-7.5-1.6-9.6-1.6-3.2 0-3.8-.4-4.7-3-.7-1.7-1.8-3-2.8-3-3.3 0-3.9-1.9-3.4-10.3.4-6.1 1-8.7 2.4-10.3a9 9 0 0 0 1.9-5.6c0-2.9-1.6-5.6-9.1-15.4l-9-11.9-6.7-1.2c-6.7-1.2-6.7-1.2-11 1.8q-7.5 5.4-8-.3-.2-2.7-4.8-5.5c-2.4-1.5-4.4-3.3-4.4-4 0-3-2.4-6.3-4.7-6.3-2.1 0-2.3-.4-2.3-5.4s-.3-5.7-3.5-8.5c-2-1.7-4.2-3.1-5-3.1s-1.5-.7-1.5-1.5c0-2.1-4.1-3.5-9.8-3.5-4.5 0-4.8-.2-8-4.9-2.4-3.5-4.2-5.1-6.4-5.5-2.7-.5-3-.9-2.5-3.4s-.2-3.7-6.1-9.5a28 28 0 0 0-10.9-7.7c-4.1-1-4.3-1.3-4.3-4.9v-3.7l-7.4-2.4c-6-1.9-7.7-2.8-8.6-4.9-.6-1.5-2.7-4.6-4.8-7-3.4-4-4-4.3-6-3.2q-2.2 1.2-2.2 4c0 2.8-.2 2.9-5.2 3.3s-5.7.1-11-3.6c-4.9-3.5-5.7-4.6-5.8-7.3 0-2.5-.7-3.6-3-5q-5.2-3-1-6.8 2-1.9 1-2.9c-.5-.5-1-2.5-1-4.2s-.4-3.5-.9-3.8c-.5-.4-1.6-2.6-2.4-5-1.4-4.1-1.4-4.5.6-6.5l2.1-2.1-2.1-2.1c-1.8-1.8-1.9-2.6-1.1-5.1.6-1.6.9-3 .7-3.2l-7.7-4.6-7.3-4.3-4.2 4.1c-2.4 2.3-4.6 4.2-4.9 4.2s-2.2-2.2-4.1-4.8c-3.1-4.4-4-5-8.3-5.6-4.1-.5-5.4-.2-10 2.4-3 1.6-6.3 3-7.3 3-2.3 0-4.1-2.8-4.1-6.4 0-1.4-.5-3.7-1.2-5.1-1-2.3-.8-3.3 1.8-8l2.9-5.4-3.5-3.6c-2.8-2.9-4.1-3.5-7.5-3.5s-4.7-.6-7.6-3.6c-3.3-3.5-3.6-3.6-8.9-3l-5.6.7-5.6-5.5c-5.9-5.8-6-6.2-7.3-19.6-.9-9.4-1.6-11.1-8.4-18.2C687.5 7.6 676-.3 676 2.9"/></svg>