<svg xmlns="http://www.w3.org/2000/svg" width="1365.333" height="1365.333" viewBox="0 0 1024 1024"><path d="M403.5 3.1A45 45 0 0 1 383.8 6c-12.8 0-16.3.8-19.4 4.6-2.2 2.6-2.1 5 .7 17.4 1 4.2.9 4.6-1.5 6.5-3.9 3.1-5.9 13.9-4 21.4 2.1 8 1.4 9.8-5.2 12.8a47 47 0 0 1-16.8 3.5c-19.7 1.6-20.5 2-29.4 10.3-4.3 4-8.6 8.8-9.5 10.7a247 247 0 0 0-7.7 41.3c0 3.8-.4 4.5-3.7 6.7-2.1 1.4-5.4 3-7.3 3.7a28 28 0 0 0-8.7 6.4c-4 4.1-5.3 6.3-6.3 10.4-1.5 6.4-.7 9.1 5 17.1 2.2 3.2 4 6.3 4 7s-2.4 5.9-5.4 11.5-5.9 11.8-6.5 13.8c-.8 2.6-2.1 4-4.9 5.3-2 1-7.5 4.2-12.2 7.2q-13.9 8.8-14 16.2c0 4.8 2.6 11.8 6.8 18.5 2.2 3.5 4.7 8.6 5.5 11.3 1.3 4.4 1.3 5.3-.3 9-1.9 4.5-6.6 8.4-9.9 8.4-3.7 0-12.9 4-14.3 6.3-.8 1.2-2 4.4-2.7 7.2s-1.9 5.8-2.8 6.7c-1.4 1.5-1.8 1.4-5.8-1.4q-7.2-5.2-14.4-1.3c-3.6 1.8-3.9 2.6-5.1 15.1a46 46 0 0 1-4.3 18.9 94 94 0 0 0-3.2 16.1l-1.7 13-4.7 2.9c-2.5 1.6-8.8 7.2-13.9 12.5-7.9 8.1-9.2 9.9-8.7 12 .8 3.1 3.3 5.1 9.3 7.2 15.1 5.4 27.6 21.5 23.1 29.9-1.7 3.4-2.8 3.9-8.5 3.9-4.1 0-5.5.5-7.4 2.5-2.3 2.5-2.4 3.1-2.1 14.3.7 21.4.8 20.9-3 24.8-3.4 3.5-3.4 3.6-3.3 12.2.1 4.8.6 10 1.3 11.5.6 1.6 1.1 6.9 1.1 11.9s.5 12 1.1 15.4c1 5.6 1.5 6.5 4.5 8.3q6.3 3.6 17.6-1c9.3-3.8 12.8-1.8 12.8 7.3 0 6.6 1.5 11.5 4.1 12.8 1 .6 3.8 4.1 6.3 7.8l7.4 10.9c1.7 2.5 3.4 6.7 4.1 10.4 1.1 5.2 2 7 5.3 10.3l4 4-.7 10.6c-.8 12.8-.9 26.9-.2 27.6.2.3 4.5.8 9.4 1.1 7 .4 10.1.2 14.2-1.2l5.3-1.7 7.2 3.6c6.9 3.5 7.3 3.9 9.9 9.9 3 6.9 3.5 14.2 1.5 20.9-1.1 3.6-2.9 5.7-7.3 8.3-1.9 1.2-4.4 11.6-4.5 19.1 0 4.3.5 5.6 3.5 9.1 2.6 3.1 4.7 4.4 8.4 5.3a64 64 0 0 1 20.6 11.3 159 159 0 0 1 2.9 41.5q-.6 2.2-9.8 7.6c-12.5 7.4-13.3 8.5-15.2 19.2-1.2 7.1-1.9 9.2-3.7 10.3-1.2.8-4.9 4.3-8.2 7.7s-8.1 7.2-10.8 8.4c-5.7 2.7-6 3.1-5.2 7.3.5 2.8 1.7 3.9 7.3 7.3 3.7 2.1 9.1 5 12 6.4 5.1 2.3 5.3 2.6 4.8 5.4-.8 3.8-.9 3.9-5.8 4.5-3.5.5-4.7 1.3-6.9 4.5a20 20 0 0 1-6.3 5.8c-2.9 1.5-4.3 3.3-6.6 8.2-2.6 6-3.2 6.5-10.3 10.4s-7.6 4.5-10.6 10.7c-4.4 9.5-3.7 13.3 4.3 23.7l11.6 15.2c14.4 19 15.7 20.3 23.8 23.2 4.1 1.5 11.8 3.7 17.1 4.9 8.8 2 10 2 14.5.7 3.7-1.1 9-1.3 22-1l17.2.4 4.6 3.2c3.7 2.5 5.7 3.2 9.6 3.2 4.5 0 5.5.4 10.1 4.6l5.1 4.6-.2 17.2c-.1 11.7.3 19.3 1.3 24.1 1.3 6.6 1.6 7.1 5.1 8.8s4.1 1.7 9.2.3q11.6-3.4 15.2.5c1.6 1.8 2.7 2 6.4 1.6 2.5-.3 6.6-1.7 9-3.1 5.7-3.2 8-3.3 11-.1 2.3 2.4 6.4 3.3 8.5 1.7.6-.4 3.2-4 5.9-7.9l4.8-7.3h8.7c7.9 0 9.1.3 13.2 2.9 2.5 1.6 5.9 5 7.8 8 2.9 4.4 3.7 5.1 6.5 5.1 1.8 0 4.1-.6 5.1-1.4 1.7-1.2 1.8-1.7.7-4-2.4-5.3-1-15.7 2.7-20 1.3-1.5 2.5-1.7 7.3-1.2l5.7.6 2-5.6c1.2-3 2.1-6.3 2.1-7.2s1.2-3.2 2.8-5c2.4-3 4-3.6 15.7-6.4 7.2-1.7 13.2-3.3 13.5-3.5s.4-3.9.3-8.2q-.2-7.6 1-9.5c2-2.8 7.8-3.6 32.7-4.6 20.6-.8 24.5-1.3 31.5-3.5 9.6-3 12-3.1 18.2-.6 2.6 1 6.5 2.1 8.6 2.5s3.7 1.2 3.7 1.7a39 39 0 0 0 6.5 7.8c4.9 5.1 6.5 7.5 6.5 9.7 0 1.6.9 4.9 2 7.3s2 5.2 2 6.3c0 3.1 4.9 8.8 7.6 8.8 1.4 0 5 .9 8.2 2.1 4.1 1.5 7.8 2.1 13.3 2l7.7-.2 4.2 5.3c2.3 2.9 4.7 6.4 5.3 7.7 1 2.1 1.6 2.2 5.7 1.7s4.9-.3 8.9 2.9c3.2 2.6 5 3.3 6.7 2.9 1.8-.5 3.2.1 5.6 2.5 3.8 3.7 7 4.8 10.7 3.5s3.8-4.5.5-8.3c-2.5-3-2.6-3.6-2-10.4 2.1-24.8 2-28.5-1.3-41.2a269 269 0 0 0-5.6-19.4 55 55 0 0 1-1.6-26.2 51 51 0 0 1 7.2-12c7.8-10.2 9.9-14.3 9.9-18.8 0-3-1-4.4-8-11.1-7.5-7.2-8-7.9-8-11.8 0-4.6 2.6-7.9 7-8.8 6.3-1.3 7-2.1 7-7.3q0-4.7-1.5-6.1-2.4-1.8 1.1-11.6c1.3-3.7 1.9-4.2 7.2-5.7a97 97 0 0 1 9.2-2.2c5.2-1 7.7-3 11.7-9.3 2-3.1 5.1-7.7 7-10.1a30 30 0 0 0 4.4-8.5 77 77 0 0 1 8.8-20.6 39 39 0 0 0 8.9-21.1c.4-6.4.4-6.6-2.8-9.3-1.8-1.5-4.6-3-6.1-3.3-5.9-1.2-4.5-9.8 2.4-14.8 2.3-1.7 9.6-8.2 16.2-14.5 11.2-10.7 18-16.2 25.1-20.5 1.6-.9 6.5-6.5 10.8-12.3 8.8-11.8 10.2-16.2 7.2-22.6-.9-1.9-1.6-5-1.6-7 0-4.1 1-4.4 6.7-2.1 4.9 2.1 5.3 1.9 5.3-1.5 0-2.2-1.2-4.4-4.3-7.8-8.2-8.9-8.8-10.3-8.1-17.7.6-6 .9-6.7 4-8.5 1.8-1.2 5.6-4.6 8.4-7.7 4.7-5.1 5.1-6 4.6-9.2-.3-2-1.4-4.2-2.5-5.1-3-2.3-4-7.8-2.3-12 1-2.5 1.2-5.3.8-10.2-.9-8.2 0-10 5.8-12.2 8.2-3.1 12.3-12.6 9.7-22.3-1.4-5-2-5.5-5.9-4.7-2.3.5-3.2 1.3-3.7 3.4a13 13 0 0 1-3.5 5.5q-5.7 5.2-10.1-1.9c-3-5.2-8.9-8.6-14.8-8.6-4.4 0-4.9-.3-5.5-2.5-.7-2.7-2.5-3.9-7.2-4.9-2.9-.6-3.5-.3-6 3.3a22 22 0 0 1-7.6 6.2c-4.1 1.9-5.7 2.1-12.4 1.5-6.5-.5-9-1.3-15.8-5a81 81 0 0 0-13.4-5.6c-4.5-1-6-2.1-10.5-7.2a64 64 0 0 0-9.9-8.9c-4.6-3-5.9-5-9.3-14.1q-1.7-4.8-5.9-8.1c-6-4.9-7.9-5.7-13.6-5.7-4.3 0-6 .6-10.6 3.7-3 2.1-5.7 4.6-6 5.6q-1.8 5.4-10.2 3.6c-2.9-.6-5.4-1.4-5.7-1.9s-1-5.9-1.6-12c-.7-6.9-2.3-14.9-4.3-21.2-3.4-11-3.3-10.8-11.8-12.3-2.1-.3-4.4-1.2-5.2-2.1a75 75 0 0 0-22.5-8.9c-6.2-1.3-7-1.8-12.6-7.8-19.5-20.8-24.4-28.9-25.2-41.8-.6-8.3-.6-8.5-5.4-14-4.6-5.3-4.8-5.8-3.8-8.8.6-1.7 2-3.6 3.1-4.2 2.4-1.3 1.8-3.7-2.3-9.6a24 24 0 0 1-3.5-7.2c-.4-1.8-1.1-3.4-1.7-3.8a43 43 0 0 0-9.1-.4c-9.5.2-13.2-1-19.3-6.7-3.4-3.1-4.3-4.7-4.3-7.2s-1-4.3-4.4-7.7c-3.9-3.9-4.7-5.5-6.2-11.9-1.3-5.9-1.4-7.7-.4-8.9 2.2-2.6-2.6-10.5-8-13.2a22 22 0 0 0-6.8-2.3c-2.1 0-5-2.7-10.4-9.6-2.4-3-1.8-7.4 1-7.4 2.6 0 9.4-6.6 9-8.6-.2-.9-1.2-2.2-2.3-2.8s-2.3-1.6-2.7-2.1c-1.3-1.7-.9-6.6.9-9.5l1.6-2.9-5.8-7.8c-6.6-8.7-8.4-12.8-8.5-19.3 0-2.5-.7-7.1-1.4-10.4-1.2-5-1.2-6.4.1-10.2 2.9-8.6.2-13.2-6.1-10.1-3.2 1.5-3.7 1.5-5.1.1-1.8-1.9-1.8-1.4.1-9.4.8-3.6 3.1-9.3 5-12.8 2.7-5.1 3.2-6.7 2.4-8.3-.8-1.5-.6-3 1-6.5 1.1-2.7 2-6.8 2-9.7 0-4.1.5-5.6 2.6-7.8 3.7-3.8 5.4-12.2 5.4-26.5 0-14.2-.2-14.6-10.8-22.1l-7.1-4.9a20 20 0 0 1 2.8-5.3c3.2-5 3.3-5.1 2.6-14.3-.9-12.7-2.6-17.1-8.2-21-4.4-2.9-5.2-3.1-16.3-3.6l-11.7-.5-2.1 2.8a17 17 0 0 0-2.8 6.1c-1.1 6-4.1 7.4-16 7.4-10 0-10.5-.1-16.3-3.5-3.3-2-6.3-3.9-6.6-4.4s-.9-5-1.4-10.1q-1-9.2-2.7-11.1-3.5-4-17.9 1.2"/></svg>