<svg xmlns="http://www.w3.org/2000/svg" width="1365.333" height="1365.333" viewBox="0 0 1024 1024"><path d="M335 1.5a13 13 0 0 1-4.1 1.5c-2.2 0-5.6 4-6.5 7.5q-1.3 5.9-6.2 6.8a55 55 0 0 0-19.6 10.2c-1.6 2.5-1.6 2.9 0 7.8.9 2.9 2.1 6 2.6 7 .9 1.8 1.1 1.8 2.9.1 1-.9 1.9-2.9 1.9-4.3s.4-3.3 1-4.1c.8-1.2 1.3-1.2 4.3.2 3.4 1.6 3.5 1.9 4.2 8.7.4 3.9.4 9.3 0 12-.7 5.4.2 6.4 6.1 5.9 4.2-.2 9 2.6 9.9 5.9l.7 2.8 1.7-2.3c1.6-2.2 1.8-2.2 3.3-.5.9 1 3.7 5.8 6.4 10.7 4.6 8.6 4.8 9.3 5.1 18.2a65 65 0 0 0 2.3 16.7q-.2 2.2 4.9 4.9c4.3 2.3 4.9 3.2 5.4 6.5.3 2.1 1.7 7.1 3.1 11.2 3.9 11 3.8 11.1-3.9 11.1q-6.7 0-10.3 1.9c-3.5 1.8-3.9 2.5-6.6 11.8l-3.9 14q-1.8 7.6-10 3.7c-3.2-1.5-3.5-2-3-5q1.4-8.2-6.6-11c-5.6-2.1-9.1-5.1-9.1-7.8a28 28 0 0 1 2.6-7.6c3-6.4 2.7-13-.7-13-1 0-5.1-3.4-9.1-7.6l-7.3-7.6-9.5.4c-7.6.3-10.9.9-16.5 3.2l-7.3 3.1c-.1.1.5 2.1 1.3 4.5l1.5 4.5c0 .8-26.4 15.1-42.5 23-5 2.5-10 6.3-17.5 13.3l-10.4 9.9 5.7 6.5a55 55 0 0 1 5.7 7.2c0 .3-4.8 4.2-10.7 8.6l-10.7 7.9-2.3 9.8c-1.2 5.4-2.2 11.1-2.3 12.6s-.9 4.6-2 6.8l-2.1 3.9 2 24.3 2.7 32.7.6 8.5-7 2.2c-6.3 2.1-9 2.3-26.4 2.3h-19.4l-6.6 5.5c-5.1 4.4-6.7 6.3-7.1 9-.3 1.9-1.9 5.1-3.5 7.2-3.9 5.1-7.4 18.3-8.2 30.8-.6 9.8-.5 10.2 2.6 16.5a55 55 0 0 1 3.8 10.5l1.2 6.7c.4 2.1 0 2.9-2.5 4.4s-2.9 2.2-2.4 4.5c.9 4.5-.4 7.9-2.9 7.9-1.2 0-3.5 1.2-5 2.7-2.2 2.1-2.8 3.6-2.8 7.1 0 2.4.5 5.2 1 6.3.9 1.5.6 2.6-1.5 5.3-2.4 3.2-2.5 3.6-1.3 8.5.9 4 .9 6 0 8.3-1 2.6-.8 3.8.8 7.6 1.1 2.4 2 5.7 2 7.2 0 4.8 2.8 9.9 7 12.5 2.4 1.5 4 3.3 4 4.4 0 2 4.4 6.1 6.5 6.1.6 0 2 1 3.1 2.1a24 24 0 0 0 15.6 5.9c4.7 0 5 .1 4.4 2.2-.3 1.3-.6 4-.6 6 0 2.9-.8 4.7-3.5 7.7q-3.6 3.9-3.5 7c0 3.4 3.4 11.1 5 11.1 1.5 0 5.7 6.3 6.5 9.7.6 3.1.5 3.3-2 3.3-4.2 0-17.1 7.6-18.4 10.8-1.5 3.5.9 9.8 6.4 16.9 4.1 5.3 4.8 10.8 1.6 11.8-2.3.7-7.1-.4-7.1-1.6 0-1.8-6.5-4.9-10.2-4.9-3.2 0-4.8 1.1-13.3 8.7l-9.6 8.8.5 4.7c.6 5.9-1.5 16.4-4.3 21.5a75 75 0 0 0-4.5 11.5l-2.4 7.7 7.3 4.8c6.1 4 8.3 6.3 13.6 14.2 7.1 10.3 16.7 18.9 18.8 16.8 1.8-1.8 1.3-3.3-2.2-5.9a20 20 0 0 1-4.7-5.2c-1.2-2.4-1.2-3.1.5-6.2 1.5-2.7 2.2-3.3 3.9-2.8 1.2.4 2.7 1.5 3.4 2.5 1.6 2.4 9.3 3.5 13.2 1.9 2.7-1.1 3.3-.9 9.3 3.4a29 29 0 0 0 8.5 4.6c1.2 0 2.4.5 2.7 1q1.2 1.6 12.1-1.1 4.2-1.2 6.3-4c1.2-1.6 3-2.9 4.1-2.9s2.2-.5 2.5-1c.4-.6 2.4-2.2 4.6-3.6 2.9-1.8 3.9-3.1 3.9-5 0-1.3.9-4.2 2-6.3l1.9-3.8-2.5-1.2a15 15 0 0 0-4.9-1.1c-2.2 0-5.5-2.3-5.5-3.9s6.8-7.1 8.8-7.1q2.2 0 3.4-2.5c.6-1.4 1.9-2.5 3-2.5 1.6 0 1.8.8 1.8 6.3 0 8 1.5 10.1 8.1 11.7 4.3 1 5.6 1 8.7-.3 2-.9 6.1-1.8 9-2.2q8.4-1 5.3 4.2-1 1.9 0 9.3c.8 5.3.7 8-.1 10.1-1 2.3-.9 3.7.4 7.5 1.8 5.3 2 7.4.7 7.4-.4 0-1.9-3.7-3.1-8.1q-5.7-19.5-21.5-22.4c-2.2-.4-4.8-1.5-5.8-2.4-1.7-1.5-2-1.4-3.3.4-.8 1-1.4 2.7-1.4 3.7s-.7 2.9-1.5 4.1c-1.2 2-1.3 2.9 0 6.9.7 2.5 1.1 4.8.8 5.1-.2.3 2.3 4.8 5.6 10.1 6 9.4 7 11.6 5.1 11.6-.5 0-1.2 1.6-1.6 3.5-.3 1.9-.8 3.5-1 3.5-.3 0-2.2-1.1-4.4-2.5s-5.1-2.5-6.5-2.5c-3.5 0-14.1-4.2-20-7.9a28 28 0 0 0-15.3-5.1c-1.8 0-4.6-1-6.2-2.2-2.8-2-3.3-2.1-8.5-.8-6.1 1.5-7.2 2.3-8.5 6.8-.7 2.7-.6 3.1 1.3 3.4q2 .4 2.7 2.8c.3 1.5 1.9 3.2 4 4.2 3.4 1.7 4.8 4.7 2.8 5.9q-1 .7 2.6 3.9c2 1.8 3.6 3.6 3.6 4.1 0 3.1 8.6 8.2 15.9 9.4 3.7.6 4.1.5 4.1-1.4 0-3 3.7-2.7 5.2.4 1.4 3.2 1.9 3.2 4.7-.6 2-2.7 2.2-3.5 1.2-5.7-.7-1.4-.8-2.8-.4-3.3a23 23 0 0 1 7-1.1l6.1-.3 1.3 3.8c.7 2.1 2.2 4.6 3.4 5.6 4 3 4.5 9.2.7 7.2q-4.1-2.2-3.4 3.9c.4 3.5.7 3.9 3.5 4.2 2.6.2 3.4.9 4.3 3.6.5 1.7 1.5 3.7 2.2 4.4.9.9.7 1.4-.5 2.3-1.4 1.1-1.4 1.5.1 4.7.9 1.9 3 4.8 4.6 6.3 1.7 1.6 3 3.5 3 4.2s.9 1.3 1.9 1.3c1.1 0 3.2 1.7 4.8 3.7 1.5 2.1 4.2 5.2 5.8 6.8 1.7 1.7 4.2 4.6 5.7 6.4 3.6 4.3 6.2 3.9 6.6-1.2.4-4.3 1.3-4.7 3.6-1.2q3 4.7 4.6.1c1.3-3.5 2.7-4 5.7-2.1 2.1 1.4 3.9 1.6 9.5 1 3.9-.3 7.4-.2 8.1.3s3.2 1.2 5.6 1.5q4.4.5 6.9 3c2.7 2.7 5.2 11.6 5.2 18.5q0 4.4 2 6.9c1.1 1.4 2 3.5 2 4.5 0 2.6 8.4 10.5 13.7 12.8 2.3 1 4.9 3 5.9 4.4s2.4 2.6 3.4 2.6c2.6 0 4.5 2.8 4.1 6.2-.2 2.5.6 3.8 5.1 8 2.9 2.7 6.6 5.6 8.1 6.4 2.5 1.4 3.1 1.4 5.2 0 2.2-1.4 2.3-1.4 2.9 1.6.3 1.7.6 4 .6 5.2s.6 3.1 1.4 4.1c1.2 1.7 1.7 1.8 4.1.7q2.8-1.3 3.4-.3c.8 1.2 6.3 1.5 11.1.6 3-.5 3.7-.3 4.9 1.7a21 21 0 0 1 2.1 5.3q.6 3 4.3 5.4c5 3.3 8.2 9.9 6.6 13.5q-1.1 2.7-4.1 2.6c-1.5 0-2.8.5-2.8 1 0 1.9 14.5 15.7 18.7 17.8 5.5 2.9 11.3 10 11.3 14 0 1.7.6 3.5 1.3 3.9 2.1 1.3 2.6 3.7 1.1 5.8q-1.5 1.9-.2 3.2c.9 1.1.9 2.3-.1 4.9-.8 2.2-1 5.3-.6 8.4.5 4 .4 5-1.1 5.8-2.9 1.6-1.1 7.3 3.6 11.1s4.9 4.8 1.4 5.7l-2.6.7 4.9 4.9c2.6 2.7 7.7 6.6 11.3 8.6s10.1 6 14.5 8.9c4.7 3.1 8.2 4.8 8.6 4.2.4-.7 6 .7 15.9 3.8l15.2 4.8 11.5 11.2c13.6 13.4 16.3 14.4 16.3 6.4 0-2.7.7-6.7 1.5-9.1 1.3-3.8 1.3-4.4-.3-6.5a16 16 0 0 0-5.6-4.2q-15-6.8-3.5-10.9c2.8-1.1 5.4-2.5 5.7-3.2.8-2.1-2-6.3-6-8.9-4.5-3.1-5.1-4.5-3.7-9.3 1.1-3.5 1.6-3.9 5.3-4.5 8.7-1.4 11.6-2.5 11.6-4.5 0-1.1-.9-2.8-2.1-3.9-1.9-1.8-2-2.3-.9-5.6 1.3-3.8 1.1-7.7-1-20a76 76 0 0 1 3.8-36c1.2-2.2 2.2-4.2 2.2-4.5 0-2.4-15.1-7.5-16.8-5.8-1 1-3.5-.6-13.6-9.2-5.3-4.5-8-6-10.9-6q-2.4.1-4-3.5c-1.6-3.6-2.3-3.5-3.9-3.5-1.3 0-2.8-.8-3.5-1.9-.6-1-2.5-2.1-4.1-2.4-1.8-.4-3.3-1.4-3.7-2.6-.3-1.1-2.2-3.5-4.1-5.3-2-1.8-4.2-4.5-5-6-.8-1.6-2.1-2.8-2.8-2.8-1.7 0-3.9-3.3-5.6-8.5-.7-2.2-1.8-4.3-2.5-4.7s-1.8-3-2.5-5.7-2-5.7-3-6.6c-1.8-1.6-1.8-1.7.3-3.8l2.1-2.1-3-.9c-1.6-.6-4.1-1.8-5.6-2.8a9 9 0 0 0-4.5-1.9c-1.1 0-2.8-.9-3.8-2-2-2.2-6.5-2.6-9.7-.9-2.8 1.5-10.8.3-10.8-1.7q.2-1.4 1.5-2c2.2-.9 1.8-2.9-.9-4.3-1.4-.8-2.8-2.9-3.6-5.3-1-3.5-.9-4.7.6-8 1.6-3.5 1.6-3.9.1-5.6a7 7 0 0 1-1.7-4.3q.1-2.4-6.5-8.9c-5.5-5.4-6.2-6.6-4.7-7.1 3.3-1.2 7.2.2 8.8 3.3a9 9 0 0 0 3.5 3.7c1.2.4 4 3.8 6.3 7.7q4.1 7 6.3 7.2c1.9.3 2.1.8 1.6 3.3-1 4.9 2.9 3.8 7.1-2.1 3.5-4.9 6.3-5.9 5.3-1.9q-.5 1.9.9 1.9c.8 0 2.4 2.1 3.5 4.7l2.1 4.8 1.9-3.8c1.7-3.2 2.4-3.7 5.6-3.7 2 0 4.5-.8 5.5-1.7 1.7-1.5 2.1-1.5 5.4 0 1.9 1 4.5 1.5 5.8 1.1s2.7-.1 3 .5c.4.6 2.6 1.1 4.9 1.1 3 0 5.7 1 9.6 3.5 5 3.2 5.8 3.4 11.1 2.8q8.8-.9 12.9 4.1c1.7 2.1 3.1 2 3.1 0 0-.9 1.6-3.9 3.5-6.5 4-5.7 4-5.5 1.9-6.3-.9-.4-3 .6-5.2 2.4l-3.7 3-.6-3.2-1.3-5.9q-.8-2.7 1-4.4c1.7-1.6 1.8-1.6 3.1.1.7 1 1.1 2.4.9 3s1.2 1.9 3.5 2.8c3.6 1.4 4.2 1.4 7.4-.1q3.5-1.7 3.5-3.7c.1-1.2.7-3.2 1.5-4.6s1.4-4.2 1.5-6.3c0-3.4.2-3.7 2.8-3.7s3.2-.8 5.6-5.9c2.3-4.7 3.6-6.2 6.7-7.5 4.3-1.9 4.5-2.7 2.7-10.5-1-4.4-.9-5.3.6-7a16 16 0 0 0 2.7-5.7c1.4-5 8.3-12.2 12.5-13 6.7-1.2 13.5-10.4 18.9-25.6 1.3-3.7 2.6-5.3 6.6-7.8 3.6-2.4 4.9-3.8 4.9-5.6 0-1.4 1-3 2.4-3.9q2.5-1.6 3.1-5.8t6.6-12.1c5.2-7.1 5.9-8.5 5.9-12.7v-4.7l8.5-4.8c4.6-2.6 9.8-6.1 11.4-7.8 3.3-3.4 3.6-5.2 2.5-16.7-.8-8.4.4-10.9 11.7-24.9l10-12.7q1.5-2.1 5.4-2.5c3.5-.3 4.1-.8 6.4-5.2 1.7-3.1 4.7-6.6 8.4-9.4 5.1-4 6-4.4 8.2-3.4 1.3.6 3.2 2.6 4.1 4.4s3.2 4.9 5.1 6.9c3.4 3.6 3.4 3.7 2.2 7.7s-1.1 4.2 4.5 13.4c3.1 5.2 5.6 10 5.6 10.9q0 1.5-5 2.8c-3.9 1-5.1 1.8-5.6 3.7-.4 1.3-.1 3.1.6 3.9.9 1.1.9 2.2.1 4.6A39 39 0 0 0 668 622c4 10.8 4.4 11.6 8.1 13.7 1.7 1 4.4 4 6 6.6 2.5 4.1 4.1 5.3 10.5 8.3 4.1 1.9 8 3.4 8.7 3.4s3.1-2.3 5.5-5c4-4.6 4.7-5 8.7-5 3.8 0 4.7-.4 6.2-2.8l2-3.1c.1-.2 2 .8 4.2 2.2 3.7 2.5 4 2.5 5.5.8.9-1 1.6-2.6 1.6-3.7q0-6.3 3.3-6.4c1.2 0 3.6-1.4 5.4-3.2 3.1-3 3.4-3.1 7-2 2.1.6 8.9 1.6 15 2.2 15.4 1.4 14.9 1.8 16.9-13.2l.6-4.7 8.6-2.8c7.3-2.4 8.7-3.2 9.6-5.6s1.5-2.8 3.8-2.3c4.1.8 6.4-3.2 8.3-14.5a135 135 0 0 1 7.5-30.4c1.7-4.1 3.1-9.2 3.2-12.4l.3-5.3-5-2.9c-4-2.2-7.2-3.1-15-3.9a46 46 0 0 1-23.9-7.3q-13.3-8-12.1-15.7c1.2-6.9 5.6-13.6 15.6-23.8 11.4-11.5 13-12.2 29.2-12.2h9.1l8.1 5.4 8 5.5 19.1.6 19.1.7 1.2-3.2c1.5-4.5 1.4-8.4-.4-12.7-2-4.8-1.9-10.6.4-15.1 1.8-3.5 2.6-4 11.2-6.7a54 54 0 0 0 13.7-6.3l4.3-3.2 7.3 1.9 7.4 1.8 2.8-2.2A27 27 0 0 1 936 434a92 92 0 0 0 9.1-1.6c.4-.2 0-3.1-.8-6.4-1.4-5.2-1.8-6-3.9-6-3.3 0-6.4-5.2-6.4-11-.1-5.8-1-7.2-10-15.7-4.1-3.9-9.5-9.8-12-13.2-4.1-5.5-5.2-6.3-12.2-9a440 440 0 0 1-35.3-13.1c-18.7-7.7-19.1-7.8-25-7-3.4.4-7.4 1.4-9 2.2-2.7 1.4-3.6 1.4-9.2-.2a26 26 0 0 1-15.7-10.8c-2.2-3.5-2.3-4.2-1.5-12.2.5-4.7 1.1-9 1.3-9.6.3-.9-2.3-6.4-3.9-8.2-.2-.2-3.5-1.2-7.5-2.2-9.1-2.3-17.3-8.2-19.1-13.7-.6-2.1-3.3-6.1-5.9-8.9a38 38 0 0 1-7.8-14.1c-3.8-10.5-7.1-14.3-12.3-14.3-3 .1-4 .8-8.6 6.9-4.8 6.3-5.5 6.8-10.5 7.9-12.4 2.6-11.1 2.8-13.7-2.5-5.7-12-10.4-15.9-29.1-24.3-22.4-10.1-44.4-17-54.5-17-2.4 0-5.4-.4-6.7-.9-2.9-1.1-9.8-9.9-16.6-21.1a40 40 0 0 0-16.7-16.8c-3.3-1.6-4.3-2.9-5.6-6.9-.9-2.6-6-11.1-11.4-18.8-5.3-7.7-11-16.5-12.5-19.5a22 22 0 0 0-8.3-9.3 46 46 0 0 1-8.4-7.5c-1.5-2.1-7-8.1-12.2-13.5-6.8-7-10.1-9.7-11.8-9.7-3.3 0-15.7-7.3-21.3-12.5-6.1-5.7-12.8-10.1-37.3-24.4-15.5-9-22.2-13.5-25.8-17.4l-5-5.2.4-10.8c.3-10 .5-10.9 3-13.5 2.7-2.8 3.5-5.6 1.8-6.6-2.3-1.4-15.6-3.8-25.5-4.6l-11-.8-4.3 2.9c-6 4.2-10.5 5.9-15.3 5.9-2.2 0-5.1.6-6.3 1.4s-4.2 1.7-6.7 2.1c-3.7.5-4.9 1.3-6.8 4.1-1.3 2-3 3.4-4.2 3.4-1.8 0-2-.7-2-5.8s-.5-6.3-3.5-10.2c-2-2.5-4.5-6-5.6-7.8C345.7 4.5 344 3 343 3s-2.3-.7-3-1.5c-1.5-1.8-1.8-1.8-5 0"/></svg>