<svg xmlns="http://www.w3.org/2000/svg" width="1365.333" height="1365.333" viewBox="0 0 1024 1024"><path d="M905.5 59a31 31 0 0 0-22 9.1c-4 3.7-4.6 3.9-10.6 3.9-9.1 0-20-1.8-21.9-3.5-1.4-1.3-3.3-1.3-13.1-.3-16.4 1.6-26.1 6.8-27.5 14.7-.3 2-1.9 5.3-3.5 7.3-4.2 5.3-3.8 8.4 3.1 24.1l6 14.1c0 .2-2.3 1.8-5 3.6-4.2 2.7-5.6 3.1-8.8 2.6l-8.4-1.2c-4.3-.6-4.8-1-6.2-4.5-2.2-5.6-7.2-8.2-19-10.4-9.3-1.6-10.8-2.2-22-9.1-11.4-7-12.3-7.4-18-7.4-7.3 0-14.3 2.5-15.2 5.3-.9 3-.8 7.8.6 19 1 8.4.9 10.7-.6 17.3a27 27 0 0 0-.5 13.1c.8 4 .8 6-.1 7.6-1.9 3.7-3.8 12-3.8 17.2 0 7-3.4 18.2-6.8 22.4-1.6 2-3.4 5.2-4.1 7.3a70 70 0 0 1-28.3 30.9c-5.5 2.8-6.3 2.9-19.5 2.9-13.7 0-13.9 0-26-4.3a42 42 0 0 1-19.9-11.5c-10.1-9.3-12.1-9.5-19.2-1.7q-5.1 5.6-7.5 5.5c-2.8 0-3.7 1.6-3.7 6.5 0 6.1-1.5 8.4-6.4 9.7-5.1 1.4-4.6-.3-6.6 20.3-.6 6-1.6 11.6-2.3 12.3-1.7 2.1-9.9 6-14.3 6.7-3.8.7-11.4 6.6-11.4 9 0 1.6-6.7 6.5-9 6.5a14 14 0 0 0-5 1.5c-2.4 1.2-3.3 2.9-5.5 9.7-2.2 7.2-3.1 8.7-6.8 11.6-2.3 1.8-7.5 6.5-11.4 10.5l-7.3 7.1v5.6c0 4.8.7 6.7 5.1 14.5 2.8 4.9 5.3 10.3 5.6 11.8s3.2 6.3 6.4 10.5c5.9 7.6 5.9 7.7 5.9 14.4 0 8-2 14-7.6 22.4-2.2 3.2-5.7 8.8-7.7 12.4s-6.3 9.6-9.6 13.5c-7.1 8.2-8.9 13.2-7.2 19.9s.1 9.8-7 14.2a59 59 0 0 0-11.7 10.1 87 87 0 0 1-14.2 12.2c-8.3 5.6-8.7 5.8-16.7 6.3-7.2.5-9.1 1.1-15.6 4.7a55 55 0 0 0-12.8 9.9c-4.6 5-6.7 6.3-14.5 9.4-13.2 5.3-20.8 5.8-31.5 2.3a68 68 0 0 1-24.7-12.8 53 53 0 0 0-21.3-10.2 71 71 0 0 1-19.5-11.8c-13.6-10.1-14-10.5-19.5-19.7-7.9-13.3-8.1-14.5-2.4-20.8 2.6-2.9 5.8-5.3 7.4-5.7 2.9-.6 8-5.3 10-9.1.9-1.9.6-2.5-2.4-4.8-4-3.1-6.5-7.3-6.5-11q-.1-2.6 3.4-4.8c4.6-3 12.6-17.5 10.5-18.9a19 19 0 0 0-11.6-3.9c-5.5.1-5.9.5-12.9 12.7-5.9 10.4-12.1 15.6-20.9 17.6-7.7 1.8-9.1 2.9-19.9 17.2-8.3 11-12.2 14-22 17l-8.5 2.6-8.8-2.5c-4.8-1.4-11.7-3-15.3-3.7-7-1.3-11.5-4-37.5-22.5-17.8-12.6-29-17.4-43.5-18.6a87 87 0 0 0-46 9.4c-4 2.3-4 2.3-4 8.4 0 3.4.6 7.7 1.4 9.5 1.3 3.1 1.2 3.6-1.2 7.3a98 98 0 0 1-20.5 22.2A39 39 0 0 0 .2 512c.2 1.8 3.5 3.5 18.3 9.5C58.4 537.6 76 546.8 88 557.6c6.2 5.6 7.7 7.6 8.9 11.6a16 16 0 0 1 .1 10.4c-1.8 7.4-.7 10 5.4 13.6 2.7 1.6 5.8 4.1 6.9 5.6s5.2 5.9 9.1 9.8l7.1 7.2 6.8.7c5.1.5 9.5 1.9 17.3 5.5 18 8.4 28.6 15.4 35.8 23.4l6.5 7.3-2.1 2.1c-2.2 2.1-2.2 2.2-.4 7.7a51 51 0 0 0 12.8 23.2c4.9 4.8 5.8 5.3 11.7 6.1 6.9 1 7.3 1.3 16.1 12 3.4 4 3.8 4.2 11.3 5.2 9.4 1.2 10.3 1.6 13.1 6.6 1.8 3.2 2.7 4 5.7 4.2 3.3.3 3.8-.1 7.1-5 1.9-2.9 4.5-8.2 5.7-11.8 3.9-11.5 10.6-14.3 37.8-15.5a66 66 0 0 1 26.5 2c15.9 4 38.1 14 54.4 24.7 12.8 8.3 13.1 8.6 18.6 17.4 4.9 7.8 5.7 9.9 6.7 16.9.9 6.2.8 9-.1 12.4-1.2 4-1.7 4.5-7.6 6.8-5.2 2.1-6.6 3.2-8.3 6.5s-1.8 4.5-.9 7.2a28 28 0 0 0 15.2 13.6c6.6 1.7 10.4 4.4 12.7 8.7 1 2.1 3.6 5.7 5.6 8.1 3.2 3.6 4.2 4.2 7.6 4.2a19 19 0 0 0 7.2-1.7 36 36 0 0 1 21-3.1c9.6 1 23.5 4.9 33.2 9.3 6.9 3.2 7.4 3.6 10.4 9.6 1.7 3.4 3.1 7.7 3.1 9.4 0 7.3 8.1 8.7 17 3 12.4-7.9 18.4-5.6 33.8 12.8 5.1 6.2 7.8 8.5 11.9 10.3 6.5 2.9 6.9 2.9 12.4.5a40 40 0 0 0 14.2-13.4c1.7-2.7 1.9-2.7 11.7-2.7 12.1 0 19.9 2 26.2 6.5 3.6 2.6 5 4.6 7.2 9.9 2.2 5.7 2.6 8.1 2.6 17.4v10.8l3.4 3.3 3.4 3.3 3.3-1.7 3.8-2.1c.2-.2.7-3.6 1.1-7.6.5-5.8.1-10.7-2.2-23.8-1.5-9.1-2.8-17-2.8-17.7s3.5-3 7.7-5.3c8.1-4.4 9.2-5.3 12.3-11.2 5-9.3 22.4-12.9 43.5-9a88 88 0 0 1 39.4 15.9l9.1 6.8v7c0 3.9-.7 9.5-1.5 12.3-1.5 5-1.5 5.4 1.1 11.9 1.5 3.8 5 11.9 8 18.1l5.3 11.2-6 11.8c-6.9 13.6-8.2 19.3-6.9 31.5 1.5 14.4 5 18.8 11.9 15.3 1.6-.9 4.7-1.6 6.8-1.6q7.3 0 13.5-8.3c1.8-2.5 4.5-5.3 5.9-6.3a62 62 0 0 0 12.4-22.1c1.4-3.7 3.3-7.4 4.2-8.1s5.6-2.5 10.3-3.9c10.4-3.1 11.6-3.9 16-10.5 3.4-5.1 4.3-5.6 12.6-7.7 3.5-1 4.2-1.6 5.2-5 .7-2.1 1.2-5.1 1.2-6.6s.9-4.3 2-6.1a60 60 0 0 1 18.9-15 9 9 0 0 0 5.6-5.4c1.7-3.8 1.7-4-1-12.2-1.5-4.5-3.9-10.5-5.2-13.2q-4.8-9.6 1.7-13.1c1.7-.9 5.2-3.5 7.9-5.9s6.5-5 8.5-5.7a10 10 0 0 0 5.3-4.7 16 16 0 0 1 7.3-6.2l5.5-2.8 1.2-7.3c1-6.7 1.5-7.7 5.1-10.9q7.5-6.6-1.4-10-10.8-4.1-11.8-9.1a30 30 0 0 1 2.3-18.4A82 82 0 0 0 931 724c1-6.2 2-8.7 5.7-14.2a26 26 0 0 1 6.2-7.2c.9-.3 4.3-1 7.6-1.6 7.1-1.4 9.5-3.4 13.7-11.3q3.2-5.8 7.4-8.8c2.4-1.6 5.5-4.4 6.8-6.2l2.5-3.3-2.4-4.9a99 99 0 0 1-5-14.5c-2-7.7-2.4-10.9-2-17 1-13.1 1.9-15 8.6-19.5 7.1-4.7 9.1-7.5 9.1-12.2q0-9-13-2.8c-3 1.4-6 2.5-6.8 2.5-1.8 0-6.7-6.8-10.9-15.1l-3.4-6.6 3.4-3.3 3.4-3.3 5.8 1.2c5 1 6.5 1.9 11.3 6.6 4.1 4 6.3 5.5 8.3 5.5 6.3 0 10.7 4.4 10.7 10.7 0 2.6.1 2.6 6.2 2 5.7-.5 6.6-.9 10-4.6l3.8-4v-9.3c0-8.5-.3-9.8-3.1-14.8-1.7-3-4.2-8.3-5.6-11.8-3.3-8.3-2.8-15 2.2-29.5 3.2-9.2 3.6-11.5 3.1-16.1-.8-5.8-6.5-16.3-8.6-15.8-.7.2-4.2.7-7.9 1.1-8.9 1.2-11.1 2.4-15 8.1-2.7 3.9-4.1 5-7.7 5.9-4.1 1-4.7.9-11-2.4A26 26 0 0 0 954 504c-5.1 0-11-2.6-13.8-6.1-1.6-2-4.3-3.4-9.1-4.9a62 62 0 0 1-11.3-4.5c-4.8-2.7-27.5-9.5-31.7-9.5-1.9 0-4.2 1.5-8.1 5.5-4.9 4.9-5.9 5.5-9.7 5.5-2.3 0-5.4-.5-6.9-1-2.4-1-2.6-1.4-2.1-5 .8-6.3 4.5-12.8 8.8-15.7 3.2-2.1 3.9-3.1 3.9-5.8 0-4.9 6.1-10 13-11 3.7-.5 7-2 11.6-5a35 35 0 0 1 12.2-5.5c6.8-1.4 7.8-2.1 8.6-6.2 1-4.8 6-12.9 11.3-17.9 3.7-3.5 6.2-5 11-6.2 3.5-1 6.8-1.7 7.4-1.7 2 0 .3 12-3.5 23.5l-3.5 10.7 2.3 11.7c1.3 6.4 3.8 16.1 5.6 21.6l3.3 10 7.6 5.2c5.8 4 8.5 5.3 11.3 5.3 3.1 0 3.8-.4 4.5-2.7.9-2.6.4-3.3-7.1-10.4l-8.1-7.7-2.9-11.3c-1.6-6.3-3.3-14.3-3.7-17.9-.7-6.3-.6-6.8 3.2-14 5.1-9.7 5.8-10.5 10.3-12.4 4.9-2.1 10.9-2 16.3 0 4 1.6 4.5 1.6 6.1.1 1-.9 2.6-4.3 3.6-7.4q4.8-15.2 15.1-26.2c5.8-6.1 6.4-7.2 5.9-9.8-.5-2.4-1.4-3.3-4.3-4.2-5.8-1.7-31.1-14-36-17.5-2.4-1.7-6.9-6.3-10-10.2s-8.4-9.4-11.8-12.2a78 78 0 0 1-20.1-29c-3.1-7.9-3.3-9.3-4.2-29.4-.9-18.5-1.3-21.5-3.1-24.4-1.2-2-2.2-5.8-2.5-9.1-.9-10-2.4-14.5-6.4-18.8a84 84 0 0 1-8-10.5c-3.7-5.8-4.1-7-3.7-11 .3-2.5 1.5-7.1 2.7-10.2l2.1-5.6 7.1-1.6c3.9-.9 9-1.6 11.4-1.6 4.7 0 14 3.6 16.3 6.3 2.3 2.9 10.4 2.2 16.6-1.3 4.7-2.7 5.5-3.7 7.3-8.8 1.1-3.1 2.3-7.5 2.6-9.6.6-4.4-.8-6.7-9.5-16.1-4.4-4.7-4.7-5.5-5.9-13.5-.6-4.7-2-11.7-3.1-15.6a82 82 0 0 1-1.9-23c0-15.4-.1-16.1-2.2-18.1a281 281 0 0 0-32.7-24.1z"/><path d="M994.1 186.6c-11.7 2.6-14.1 5.3-14.1 15.9 0 7.7.9 9.9 5.3 12.7 4.7 3 7.3 2.6 11.1-1.9 2.4-2.7 2.2-2.7 24.1-4.3 3.4-.2 3.5-1.7.6-8.5-2.7-6.4-3.4-7.2-9.7-11.1-7.6-4.7-8.1-4.8-17.3-2.8m22.3 141c-.9 2.1-1.8 6.1-2.1 9-.5 5.1-.5 5.3 2.2 6q6.7 1.8 7.3-10.6c.4-5.8.2-7-1.1-7-.8 0-2.3-.3-3.1-.6q-1.6-.9-3.2 3.2"/></svg>