<svg xmlns="http://www.w3.org/2000/svg" width="1365.333" height="1365.333" viewBox="0 0 1024 1024"><path d="M681.3 2.8c-.9 1.5-3.1 3.9-4.9 5.2q-5.6 4.1-1.5 4c2.9 0 4.7 2.8 3.3 5.1A8 8 0 0 0 677 21q0 2-2 2c-1.1 0-2.3.7-2.6 1.5q-.8 1.4-2.8 1.5c-2.8 0-6.2 3.7-6.4 6.8a11 11 0 0 1-1.7 4.9l-1.7 2.5-2.7-2.6c-3.3-3.2-8.2-4.3-9.9-2.3-1 1.2-.9 1.6.3 2.1q1.3.5 1.5 1.7c0 1.8 5.2 7.4 6.6 7.1q1.3-.5.7 3.6c-.3 2.4-.1 4.2.6 4.6s1.1 1.9 1.1 3.4.7 3.7 1.5 4.9q3.2 4.5-3.2 18.1a29 29 0 0 0-3.6 13c0 3.2-.7 6.3-1.4 7s-1.3 2.3-1.3 3.6c0 3.6-2.1 5.4-8.4 7-7.7 2-9.7 1-11.8-5.7l-1.6-5.2-.1 4.8c0 2.6.6 6.4 1.4 8.4 2 4.6 1.9 5.6-.2 4.5a4 4 0 0 0-3.5-.1L622 120q-2 1-2-.1-.1-1-1.1-.7c-.7.2-1.3 3.9-1.6 8.8-.3 7.6-.7 8.8-3 10.8-2.3 2.1-2.7 2.2-4.2.8-1-.9-2.5-4.2-3.5-7.3-1-3.2-3-7-4.5-8.4a34 34 0 0 1-3.8-4.5c-1.2-1.8-1.3-1.8-2.6-.2q-2.6 3.3-2.7.3 0-1.3-1-1.5-.9.2-1 1.5c0 .9-1.2 2.7-2.6 4-2.1 2-2.5 3.1-2.1 5.7.2 1.9-.2 4.5-1 6.1-1.2 2.5-1.2 3.5.1 8.1 1.6 5.3 2.9 6.6 6.7 6.6 2.6 0 2.4 1.6-.5 3.6q-4.5 3 1.4 5.4 5.3 2.1 2.4 8.9c-.8 1.9-1.2 4.1-.9 4.9.3.7-.2 2.3-1 3.5-1.5 2.1-1.5 2-1.5-1.3a16 16 0 0 1 1.5-6c2.1-3.7 1.8-4.7-1.7-5.9q-5.8-2-2.4 1.8 1.8 1.8 1 4.6c-.6 2.5-1 2.6-4.8 2.3-2.2-.3-4.7-.6-5.5-.9q-1.4-.3-2.5 3.1c-.6 1.9-2.2 5.1-3.4 7-1.6 2.5-2 4.2-1.5 6 .3 1.4.7 3.8.8 5.5.4 5.9.3 5.8 3.6 5.1 1.9-.3 3.8-.1 4.6.5 1 .9 2 .9 3.9-.1 2.3-1.3 2.7-1.1 5.3 1.6 3 3 4.9 7.4 3.3 7.4q-1-.2-2-2.5c-1.4-3-3.2-3.3-3.2-.5q0 1.8-1 2-.9-.1-1-1.3c0-1-6.8-5.7-8.3-5.7-.8 0-8.4 10.5-11.2 15.5l-4.1 7a9 9 0 0 0-1.4 4.7q0 2.7-2 3.3c-1.1.3-2 1.5-2 2.5 0 1.1-1.3 2.6-3 3.5l-3 1.6v-5.3c0-4 .7-6.5 2.8-10.1 2.5-4.1 2.8-5.4 2.2-9.7-1-7.5-2.1-8-7.2-3.5-7.8 7-9.8 12.5-4.1 11q2.6-.6 2.1.7c-.3.7-2 1.7-3.9 2.2-2.8.7-3.8 1.7-5.4 5.4a28 28 0 0 1-6.9 8.6 25 25 0 0 0-5.7 6.4c-1 2.5.7 7.2 2.7 7.2.7 0 2.2 2.1 3.4 4.6s3.1 5.1 4.1 5.7q4.2 2.6-1.4 2.7c-1.8 0-5 .9-7.2 2s-4.7 2-5.7 2q-1.7 0-1.8 2 0 1.8-.9 2c-1.4 0 .6-7.1 2.8-9.9 1.2-1.4 2.7-3.8 3.5-5.2 1.5-2.5 1.4-2.7-1.9-4.5q-3.5-1.9-3.5-4.1.1-4.6-4.9-1.8c-3.5 1.7-13.6 9.9-20.1 16.1a35 35 0 0 1-9.1 6.2c-6.6 2.9-10.9 8.4-10.9 14.2 0 2.5-.7 5.6-1.6 6.8q-2.6 4 1.7 4.2c1.2 0 2.9 1 4 2.2 2 2.5 2.6 4.9.7 3-1.8-1.8-3.8-1.5-3.8.6 0 2.4-3.7 2.6-4.5.2-.3-1-1.7-3.4-3-5.3q-2.5-3.7-1.1-4 1.2-.6.8-3.5c-.3-2.6-.9-3.1-4.2-3.7-4.1-.7-6.9.3-10.7 3.8-2.6 2.3-3.2 6-.8 5.1q1.4-.5 1.5.8c0 2.6-5.7 1-6.4-1.7-.8-3.1-3.8-4-7.4-2.1-2.9 1.5-10.7 1.2-11.8-.5-.8-1.4-2.4-1.1-2.4.4 0 .8-.9 2.2-1.9 3.1-1.4 1.3-1.8 2.6-1.4 5.5.3 2.3.1 4.1-.6 4.5s-.8 1.8-.5 3.2q.8 2.5-1 2.4-1.6.1-1.6-3.1v-3.1l-4.7.6c-9.2 1.3-10.3 1.7-10.3 3.7q.1 1.7 1 1.9c2.3 0 .7 1.9-3 3.8q-6.3 3.2-4-.8c1.2-2.3.1-9-1.7-9.7-2.7-1.1-9.3 2.9-12.7 7.8-1.9 2.6-4.8 5.5-6.5 6.5s-3.1 2.2-3.1 2.6-.8.8-1.7.8-2.5.7-3.5 1.6q-1.7 1.8-3 .7c-.7-.6-5.8-1.3-11.3-1.7l-12.9-.9c-2.7-.2-3 .1-4.7 6.2l-1.8 6.4 2.9 3.4c3.6 4 3.7 5.3.9 10.3-1.8 3.2-2 4.4-1.2 8.2 1 4.4.9 4.6-2.3 7.2-1.9 1.5-3.4 3.5-3.4 4.6s-.5 2.2-1 2.5c-.6.4-1.7 2.3-2.5 4.2s-2.5 4.6-3.6 5.7a45 45 0 0 0-8.9 14.7c0 1-.9 2.3-2 2.9s-2 1.5-2 2.1-1.8 4-4 7.7a55 55 0 0 0-5.6 12.1c-1.5 4.9-1.5 5.6.2 9.2.9 2.2 2.8 5.4 4.1 7.1 2.7 3.8 2.9 6.3.6 13.5-1.6 5.2-1.6 5.6.7 15.1a70 70 0 0 1 2.2 15.7c-.1 7.7 2.1 14.5 5.8 17.9 1.7 1.4 3 3.2 3 3.9s1.6 5 3.5 9.5c2.7 6.4 3.2 8.8 2.5 10.6-.5 1.3-1.4 5.1-2 8.5-1 5.8-1 6.3 1.7 10.8 1.5 2.7 3.7 6.2 5 7.9s2.3 3.4 2.3 3.9 2 3.8 4.5 7.5c5.3 8.2 5.6 11.3 2.1 19.5s-4.3 12.5-2.4 13.9 5.8 8 5.8 9.8c0 .9-.6 2.1-1.4 2.7s-1.7 2.3-2 3.7-2.1 4-3.9 5.8-5.4 7.6-8 12.9-5.2 9.7-5.7 9.7-2.5 2.1-4.5 4.6c-2.5 3.3-3.5 5.7-3.5 8.2 0 4-4.4 12.2-6.5 12.2-3.4 0-9.6 10.2-10.6 17.5q-2 14.6-4.8 18.5c-1.5 2.1-2.8 2.6-8.7 3-4 .4-8.5 1.4-10.6 2.5-3.1 1.7-3.9 2.7-4.8 6.8-1.3 6.3-1.3 9.2.4 15.5 1.2 4.7 1.2 5.2-.4 5.2-.9 0-3.1 2.1-4.9 4.7-2.8 4-3.2 5.3-2.8 9 .2 2.4.1 4.3-.4 4.3s-.9-.7-.9-1.6q.1-2-1.5-.4c-.8.7-1.5 2.2-1.5 3.3s-.7 2.8-1.5 3.7c-3.5 3.9-2.8 16 .9 16q1.3.1 2 1.5.7 1.6-2.3 1.5c-2.6 0-2.9.4-3.4 3.7-.2 2.1 0 4.3.4 4.9a39 39 0 0 1 3.9 13.9 112 112 0 0 0 2.4 12.8c2.4 10.6 4.5 14.1 15.2 25.5 4.6 4.9 5.2 6.1 5.7 11 .3 3 .3 6.7.1 8.2-.5 2.2.3 3.5 4.9 7.9 5 4.8 5.5 5.6 4.6 7.8q-1 2.6.1 3.8 1.9 2.4-3.1 2.5c-4.1 0-4.4 2.7-2.9 21.6.7 8.9.9 16.7.6 17.3s-.4 5.5 0 10.8l.7 9.7 10.4 10.8c9 9.3 10.3 11 9.3 12.7-1.7 3.2-1.2 5.4 2.5 11.1 1.9 3 3.7 7 4.1 8.8s1.1 3.6 1.8 4 1.6 1.6 2.2 2.7q1.2 1.9 4.5 2.3c1.8.2 5 1.7 7 3.3s4.1 2.9 4.6 2.9 1.3 1.9 1.9 4.2l.9 4.3 9.5.7c5.2.4 13.9 1.9 19.2 3.4 8.9 2.5 9.8 3 11.5 6.2 1.4 2.7 3.4 4.2 9.1 6.8s7.2 3.8 7.2 5.5.4 2 2.8 1.5c1.5-.3 7.7-.9 13.7-1.2 12-.7 16.2-2.2 22.5-7.8 5.5-4.9 28.7-16.8 34.5-17.7 2.8-.4 9.5-2 15.1-3.5 9.9-2.7 10.2-2.7 15.3-1 5 1.6 5.2 1.6 9.4-.5 2.3-1.2 6.3-3.9 8.9-6 4.2-3.5 5-3.8 6.8-2.7 1.9 1.2 2.4 1 4.6-1.5a13 13 0 0 1 5.2-3.6q2.8-.8 2.6-2.9 0-2 1.3-2.2c1.3-.2 1.3-1.2 1.3-2.9s1.1-4.2 2.3-5.8c1.4-1.6 2.7-4.8 3-7.6.4-2.6 1.6-6.5 2.6-8.6 1.1-2.1 3-7.9 4.2-12.7 1.2-4.9 2.6-9.4 3-9.9a59 59 0 0 0 7.5-16.8c-.6-.2-.2-1.3 1-2.3 3.2-3 8.2-15.2 9.3-22.9a75 75 0 0 1 7.2-26 41 41 0 0 0 4.5-15.5 25 25 0 0 1 1.9-9c2.1-4.1 4.5-15 6.9-31.5 1-6.6 2.2-12.7 2.6-13.6 1.4-2.7 6-16.5 6-17.9 0-.7 2.7-7 6.1-13.9a138 138 0 0 0 10.1-26.4c.5-.9 1.8-5.2 2.8-9.3 1.1-4.2 2.9-9.1 4-10.9s2.4-5.9 2.9-9.1 1.9-9.2 3.1-13.3c1.8-6 2-7.5.8-8.3-1-.7-1-1 .4-1.9 1.9-1.1 4.7-9.5 10.4-31.9 2.3-8.9 5.2-17.5 7.6-22.3 3.8-7.7 9.6-22.2 10.3-26.2.2-1.1 1.2-6.3 2-11.5a71 71 0 0 1 5-16.5c1.9-3.9 3.8-8.9 4.4-11 3-12.7 5.3-19.8 8-25.5 4.4-9.3 7.8-18.2 11.3-28.9 1.6-5.2 4-11.1 5.2-13 1.3-2.1 2.7-6.9 3.4-11.6q1.2-7.8 3.2-10 1.9-2 1-3.5c-1.3-2.3.5-13.6 3.6-22.5 2.6-7.6 2.7-8.3 1.4-14.5-.7-3.6-1.3-7.7-1.3-9.3s-.5-2.7-1.3-2.7q-1.4-.1-1.4-2.9c0-1.7-.4-3.3-1-3.6q-2.8-1.9 2.5-12.5c1.9-3.8 3.5-7.8 3.5-8.8s1.3-4.8 2.9-8.4c3.4-7.3 5.4-8.7 14.4-9.5 6.7-.7 7.3-2.1 2.2-5.3-4-2.5-4.7-6.3-1.5-8 1.1-.6 2-1.7 2-2.4s1.1-2.9 2.3-4.8c2.4-3.5 4.5-13.8 2.9-13.8-1.9 0-2.3-7.8-.6-12 1.9-4.6 1.2-6.1-4-8.7-1.7-.8-3.9-2.5-4.8-3.7-2.2-2.7-2.3-10.4-.2-13.4.8-1.2 1.1-2.2.6-2.2s-1.3-1.1-1.6-2.4-1.6-4.6-2.8-7.3a32 32 0 0 1-2.3-7.8c-.1-1.7-.5-3.7-.8-4.5-.5-.9.4-3.4 2.2-6.2 2.8-4.4 3.1-4.6 9.1-5.3a21 21 0 0 1 6.8-.1c.3.4.5 3.2.4 6.2-.2 5 0 5.5 2.2 6.4 2.2.8 2.4 1.4 1.9 4.4-.4 2.9-.1 3.9 2.1 5.9a7 7 0 0 1 2.6 6c0 2.8.7 4 3.1 5.9l5.2 4.3c3.1 2.9 6.6 2.1 8.3-2 .7-1.9 1.8-3.6 2.3-4 1.2-.7 4.1-6.4 4.1-8.1 0-.7 2-5.5 4.6-10.6a54 54 0 0 0 6.8-27.8 31 31 0 0 0-7.8-15.9c-1.4-1.4-2.6-3.2-2.6-4.1s-.9-3.4-2.1-5.5c-3.5-6.7-6-14.1-5.3-15.8.3-.9-.4-3.3-1.7-5.4-2.4-3.8-2.8-8.5-1.9-21.5.2-2.9-.2-5.3-1-6.3s-1.4-4.9-1.6-9.8a155 155 0 0 0-3.2-31.4 10 10 0 0 1-1.2-4.3c0-1.1-.6-3.1-1.4-4.3s-1.9-5.5-2.6-9.6q-1.2-7.2-3.2-9.3c-1.1-1.1-1.7-2.2-1.5-2.5.3-.3-.4-2.6-1.5-5.1-1.5-3.5-1.8-6-1.4-9.5.4-3.7 0-5.8-1.6-9.3-1.2-2.4-2.8-4.4-3.4-4.4q-1.1-.1-1.2-1.8c.1-1.8-6.6-12.2-8.6-13.4q-1.3-.6-2.4 1.7c-1.7 3.7-3.7 3.1-3.8-1q0-3.5-2.6-6.3c-2.7-2.8-5.2-11.2-2.9-9.8 1.4.9 1.5-3.7.2-6.2-.6-.9-1.2-2.9-1.6-4.5-.5-2.4-1-2.7-4.3-2.7-3.7 0-3.9-.2-5.3-4.7-1.5-5-4.9-7.4-4.9-3.4 0 2.5-2 3.8-3.1 2q-.7-1.6-2.1-.1c-1.4 1.4-4.8 1.6-4.8.2q.2-1 1.9-1c2.7 0 3.7-2.1 1.8-3.5-1.8-1.3-2.3-4.5-.8-4.5q.9.2 2.1 1.5 1.3 1.8 2.1.3c.6-.9 1.3-.8 3 .7l2.2 2-.8-3c-.5-1.7-.8-4.2-.7-5.7s-.5-2.9-1.3-3.2S689 7.1 689 6c0-2.1-3.3-6-5-6-.6 0-1.8 1.3-2.7 2.8m-1.8 6.3c1.1 1.7-.1 2.1-1.5.4q-1.1-1.4-.2-1.5 1.3 0 1.7 1.1M335.5 994c1.8 1.9 1.7 2-.2 2q-2-.1-2.6-2-.4-1.8.2-2 1 .2 2.6 2"/><path d="M613 96.6c0 2.3-.3 2.6-3 2.2-2.9-.4-3-.3-3 3.4q0 7.7 8 7.8h4.1l-.5-3.8C617 94.7 616.8 94 614.9 94q-2-.1-1.9 2.6m4 17.4q.2.9 2.2 2.1c1.8 1 2 .9 1.5-.6l-.7-2.1q-.2-.3-1.5-.4c-1.3-.1-1.5.4-1.5 1m118.1 248.5a41 41 0 0 0-2.1 6.4c0 .4-1.1 1.8-2.5 3.1s-2.5 3.5-2.5 5c0 1.4-.4 3-.9 3.5-1.8 1.8-4.1 8.4-3.2 9 1.8 1 15.1-25.3 15.1-29.9 0-3.7-2-2.2-3.9 2.9"/></svg>