<svg xmlns="http://www.w3.org/2000/svg" width="1365.333" height="1365.333" viewBox="0 0 1024 1024"><path d="M213.2 2c-1.8 1.1-4.2 2-5.3 2s-3.9 1-6.2 2.2a17 17 0 0 1-10.1 1.9c-6.3-.3-8.7.9-24.4 11.6-3.5 2.4-7.3 4.3-8.4 4.3s-4.3 1.6-7 3.5a24 24 0 0 1-12.4 4.7c-7.2 1.1-7.7 1.4-10.6 5.4a15 15 0 0 1-4.8 4.7q-1.9.6-3 4.8a79 79 0 0 1-3.5 9C115.1 60.7 109 67 106.7 67c-.7 0-2 2.6-3 5.7s-3.1 7.3-4.7 9.4a11 11 0 0 0-3 7.6c0 3.2-.5 4.2-2.4 5.1a6 6 0 0 0-2.9 3.4c-1.6 6.2-6.7 19.1-8.2 20.8s-1.6 2.4-.7 4.6c1.6 3.3 1.5 7.3-.3 10.4-2 3.5-1.8 5.8.5 8.7 1.1 1.4 2 3.4 2 4.5s1.5 2.7 3.5 3.9l3.5 2.1-2.1 2.6c-2.7 3.5-1.9 6.3 4 12.9 3.4 3.8 5.1 6.7 5.9 10.4 1.8 7.4 5.1 14.6 7.2 15.2.9.2 3 2.8 4.6 5.7 2.9 5.2 3 5.4 10.8 7.7 4.4 1.2 8.7 2.3 9.6 2.3q1.7 0 8.5 12.7c3.7 7.1 7.5 13.8 8.3 15 .8 1.3 6.5 5.6 12.8 9.8 9.8 6.4 12 8.4 15.4 13.6 2.2 3.4 4 6.7 4 7.3a22 22 0 0 0 4.2 5.3c3.9 3.9 4.2 4.7 5.4 13.1l1.4 9-5.9 12.3a123 123 0 0 0-12.1 40.6c0 3.2.7 8 1.5 10.7s1.5 6.2 1.5 7.7c0 5 7 21 13.3 30.3 3.3 5 9.2 14.7 13 21.6a254 254 0 0 0 23.6 36.2 6 6 0 0 1 2.1 3.9c0 2.8 6.3 10.6 10.6 13.1 2.6 1.5 3.5 3 4.9 8.2 1.7 6.1 1.9 6.4 5.9 7.5 2.2.7 6.9 2.4 10.4 3.9 5.5 2.3 6.6 3.3 8.2 6.8 1 2.3 2.1 6.1 2.5 8.5s1.5 5.3 2.4 6.4c1 1.1 2.8 3.7 4.1 5.8q2.2 3.8 3.7 3.3l3.7-1.2c2.6-.6 20.8 5.6 28.1 9.7 2.8 1.5 6.8 3.2 9 3.8 3.3.9 6.1 3.4 15.7 14q11.7 12.9 15.8 20.4c2.9 5.3 5 7.9 7.5 9.3 1.9 1 4 3.1 4.6 4.7.7 1.6 2.4 4.3 3.7 5.9l2.4 2.9 3.4-2.6 3.5-2.7 3.1 2 3.1 2 5.4-3.5c4.6-3.1 6.3-3.7 12.8-4.1 7.3-.4 7.4-.4 11.5 3.1 2.3 1.9 5 3.7 6.1 4 1.7.5 1.9 0 1.9-4.6v-5l2.6 2.3 2.5 2.4 2.5-3.2c1.4-1.8 3.4-3.2 4.5-3.2 1.8 0 1.9.8 1.9 10.5V600l6.3-.7c3.4-.3 6.4-.7 6.6-.9s-1-1.4-2.5-2.8c-2.4-2.1-2.7-2.7-1.4-3.5.8-.6 3.5-.8 6-.5 3.7.5 5.2 1.3 8.6 5 3.9 4.3 4.2 4.4 10.1 4.4 3.6 0 6.3-.5 6.5-1.1s-.5-5.4-1.5-10.6c-1.5-7.9-1.6-10-.6-12.5 1-2.4 1.6-2.8 3.7-2.3 1.3.3 5.8 0 9.9-.7 7.2-1.2 7.8-1.5 13.3-6.9l5.8-5.7 3.6 1.2c5 1.7 6 2.9 4.7 5.3q-1 2 .1 3.1c.9.9.6 1.8-1 3.5-1.2 1.3-2.2 2.7-2.2 3.1s2.7 3.3 6 6.4c6.2 6 6.7 7.3 5.4 14.1-.5 2.6-1.1 3.1-3.4 3.1a7 7 0 0 0-4.5 2 7 7 0 0 1-5.1 2h-3.2l-.8 6.7c-.6 6.1-.5 6.8 1.5 8.4 2.3 1.9 5.9 1.5 6.8-.7 1-2.6 3.2-1.4 5.3 2.6 1.1 2.2 3.2 4.7 4.6 5.6 3.6 2.4 6.2 8.2 5.3 11.9-1.7 7.5-1 12.8 2.6 18.4l3.5 5.5-2.5 2.6c-1.4 1.4-2.5 3.1-2.5 3.8 0 1.5 4.2 1.6 5.7.1q1.2-1 9.4-.5c12.3.8 13.2.8 15.4.5 1.6-.4 2.1.5 3 6.4 1.3 7.6 1.4 7.8 5.8 9.3q3.1 1 3.5 3.2a6 6 0 0 0 1.8 3.2c1.6 1.4 1.9 4.6.4 5.5-.5.3-1.7-.6-2.6-2-1.3-2-2.4-2.5-6-2.5-5 0-5.3.8-2.2 5 2.7 3.7 1.4 5.5-4.3 6.5-4.3.7-7.1 2.7-16.3 11.4l-5.8 5.6.6-5.2c.8-6.1-.3-7.2-4.3-4.4-2.2 1.6-3 3.1-3.5 7.1q-.7 5-2.2 5.7c-2.3.9-6.4-1.4-6.4-3.5 0-1.1-.9-3.1-2.1-4.6-1.6-2-2.9-2.6-5.9-2.6-5.2 0-8.7 1.7-9.4 4.6-.6 2.3-3.6 3.5-3.6 1.4 0-.6-1.6-1-3.5-1-3.1 0-3.5-.3-3.5-2.5s-.3-2.5-5-2.5c-3.6 0-5.9-.7-8.6-2.5-2-1.4-4.7-2.5-6-2.5-4.7 0-7.8-10.1-3.5-11.5 1.1-.3 3.1-1.5 4.5-2.6 2.1-1.6 2.6-2.9 2.6-6.2 0-2.3-.3-5.2-.6-6.4-.8-2.8-3-2.5-13 2.2-3.9 1.8-7.7 2.9-8.3 2.5s-1.5-3.3-1.8-6.5c-.5-4.4-1-5.9-2.4-6.2q-1.6-.6-2.1-3.2c-.3-2.4-.5-2.1-2.6 2.3a29 29 0 0 0-2.3 8c-.1 3.9-1 6.5-3 9.4-1.5 2.1-1.8 2.1-5.6.8s-4.2-1.2-7.1.6c-2.5 1.5-3.2 2.9-3.8 6.6q-.7 4.7-4.7 9.9a27 27 0 0 1-4.6 5.3l-7.6-1.5c-11.1-2.3-11.1-2.3-22.4 6.7-9.9 8.1-10.2 8.4-9.6 11.6.3 1.8.9 4 1.2 4.9.5 1.2-.2 1.4-4.3 1.2l-4.9-.4.3 4.7c.3 4.5.2 4.8-3.1 6.2-2.6 1-3.6 2.2-4 4.6-.4 1.7-1.6 4.4-2.7 6-1.2 1.7-2 4.4-2 6.7 0 3-1 5.5-4.2 10.2-2.4 3.7-3.8 6.5-3.2 7.1 2.1 2 11 4.7 13.4 4 1.4-.4 6-1 10.3-1.4l7.7-.7.2 2.8c.3 5.1-.3 9.6-1.8 12.4-1.1 2.2-2.3 2.9-6 3.5-3.7.5-4.4.9-3.8 2.3.4.9.9 3.2 1.2 5.3.4 3.3 1 3.9 6.5 6.9q6 3.2 6.5 2.1c.2-.7 1.2-1.2 2.1-1.2 3.7 0 4.8 3.1 6 16.3L394 848c0 .5-1.8 1.4-4 2-3.7 1-4 1.4-4 4.5 0 4.9.6 6 6.5 10.5 5 3.9 5.6 4.1 13.4 4.4 4.5.2 8.8.9 9.6 1.6s1.5 2.8 1.5 4.7c0 5.3 2.3 9.4 8.2 14.8q5.4 5 11 6.8c7.2 2.2 8.3 2.2 10.2-.8.9-1.4 2.5-2.5 3.6-2.5 3 0 8.7-5.6 11.4-11.3 1.3-2.9 3-9 3.7-13.5l1.3-8.4 9.7-4.8c5.3-2.7 15.2-6.5 22-8.5 10.4-3.1 13.6-3.6 19.7-3.3s7.6.7 8.5 2.3c2.7 5 9.3 10.6 12.9 11.2 3.4.5 3.9.3 4.8-2.1.5-1.5 1-3.9 1-5.4.1-3.3 2.1-6.2 4.4-6.2q1.6 0 1.6 2.3c0 1.3 1.3 3.6 2.9 5.1a13 13 0 0 1 3.5 6.5c.5 3.1 1.6 4.6 5.9 7.8 2.8 2.2 6.7 4.2 8.5 4.5 2.9.4 3.5.1 4.4-2.1q1-2.5-.1-8.1c-.6-3-1.2-7.1-1.4-9-.4-3.4-.4-3.4 1.2-1.1 7 10 11.3 11.8 11.9 5.1.2-1.9.9-4.2 1.7-5s1.6-3.4 2-5.8c1.2-7.6 6.6-7.1 10.5 1 2.2 4.6 2.4 6 1.7 10.5s-.6 5.7 1.3 8.4c1.8 2.5 2.7 2.9 4.9 2.4 5.9-1.3 8-2.7 8.6-5.6s.8-2.9 6.8-2.9c9.6 0 10.7.6 10.7 5.1 0 3.3.5 4.1 3 5.4 1.6.8 4.2 1.5 5.8 1.5s4.4.5 6.1 1.1c2.4.9 3.5.9 4.4 0 2.6-2.6 19.8-.5 29.1 3.6 3.2 1.4 8.4 2.7 11.5 3 5.6.5 5.6.5 11.2-4.4 5-4.4 6.3-5.1 11.5-5.6 4.8-.5 6.2-1.1 7.8-3.2l1.9-2.6 2.7 2.6c2.3 2.2 3.1 2.5 4.8 1.6 2.8-1.5 2.9-1.5 4 1.7.7 2.1.6 3.5-.4 5.3a15 15 0 0 0-1.4 5c0 3.8 6.9 12.7 14.9 19.3 3.9 3.2 7.9 7 9 8.4l1.9 2.6 4.1-2.7c2.2-1.5 4.9-2.7 5.8-2.7 2.9 0 4-1.3 5.2-5.8q1.8-6.5 11.1-14.7c6.7-5.9 16.2-16 17.1-18.3 1.1-2.8 4.3-2.9 8.6-.2 3.1 1.8 3.7 1.9 9.7.6l6.4-1.3 2.6 9 2.5 9-2.9 3.4c-3.4 3.8-3.6 4.6-1.5 6.3 3.1 2.5 1.4 3.1-7.4 2.4l-8.9-.7-1.2 4.4q-1.2 4.3-.2 7.6l1 3.3h-6.1c-3.9-.1-6.9-.6-8.1-1.5-2.6-2-4.6-1.9-7.5.4l-2.4 1.9 4.5 6.4c6 8.5 6.5 11.5 3.2 18-1.4 2.9-3.2 6.9-4 9.1s-3.7 8-6.5 12.8c-5 8.8-5.1 8.9-9 8.9-3.8 0-3.9.1-3.9 3.5 0 3 .5 3.6 4.3 5.4 2.3 1.1 6.3 4 9 6.5 4.4 4.1 4.6 4.6 3.6 7-1 2.1-.9 3.2.6 5.9 1 2 1.6 4.5 1.3 6q-.6 2.9 1 2.7c.8 0 2.9.9 4.6 1.9s4.5 2.2 6.3 2.6c3.6.7 5.1 4.3 3.1 7.4-.7 1.1-1 2.2-.8 2.4a98 98 0 0 0 14.6 8.7c.6 0 2.8-1.3 4.9-3 4.1-3.3 8.5-3.9 10.5-1.5 1.8 2.2 3.3 1.9 6.5-1.5 1.6-1.6 3.7-3 4.6-3 4.1 0 4.9-1 4.3-5.4-.7-4.8-.3-5.9 6.2-15.7a47 47 0 0 0 4.4-7.7c0-2.2 5.5-6.2 8.3-6.2 1.6 0 4.8 1.4 7.3 3.2l4.4 3.2 3-2.9c3.4-3.3 3.8-4.5 1.3-4.5-1 0-3.5-.5-5.6-1.1-3.2-.9-4.2-1.8-5.8-5.4a23 23 0 0 0-5.1-7c-2.7-2.3-3.2-3.5-3.6-8.2l-.5-5.6 2.9.6c6.1 1.2 12.2 4.6 12.8 7.2q.5 2.5 4.5 3.6c4.9 1.5 6.6.9 8.6-3.2a26 26 0 0 0 1.3-13.6c-.5-1.8 6.1-9.2 10-11.2 3.8-2 3.6-1.6 9.7-18.5 1-2.6 3.1-6.4 4.9-8.3l3.1-3.6-2.3-1.5c-3.7-2.4-2.7-5.4 3.7-11.5 4.9-4.7 6.6-5.7 9.5-5.7 6.8 0 5.8-4.6-1.3-5.6l-4.7-.6-1.9-7.9-1.8-7.9h-6.3c-7.8 0-9.1-2-4.8-7.5q4.1-5.5 7.3-2.3c1.1 1 1.4 1 1.8 0 .3-.6 1.8-1.2 3.5-1.2 3.1 0 3.8-.6 11.6-9.9l2.9-3.5-4.3-6.3a38 38 0 0 1-4.9-9.1q-3-14-5.7-14.2-1.6 0-1.8 1c0 2.2-2.1.8-4.7-3.1-2.2-3.4-2.6-5.1-2.5-10.4 0-3.5.5-7.2 1-8.1q.9-1.8.1-4.8c-.5-1.7-.9-4.7-.9-6.8 0-10.7-9.4-14.4-17.6-6.8-2.7 2.5-5.3 4-6.9 4-2.2 0-2.5-.4-2.5-3.4q0-3.5 2.4-6.3 2.2-2.9 2.9-7.7c.8-7.4 6.3-10.6 11.3-6.7 1.5 1.2 3 2.1 3.5 2.1s1-3.5 1.2-7.8.8-8.8 1.1-10.2q.7-2.5-.7-4.4c-1.4-1.9-1.5-1.9-6.2.8-5.4 3-7 2.8-10.3-1.5-1.9-2.4-2.1-2.9-.7-2.9 2 0 8.8-3.4 10.9-5.5.9-.9 1.6-3.3 1.6-5.4 0-4.3-2.9-7.6-9.7-11-5.8-2.9-11.3-7.9-11.3-10.3 0-1.1 1.1-3.3 2.5-5 1.4-1.6 2.5-3.6 2.5-4.3q.2-1.4 2-2.5c2.9-1.5 8.6-10.9 9.4-15.5q.7-4 4.8-8.1l4-4.1-4.4-.7c-6.4-1-10.1 1-19.8 10.8a70 70 0 0 1-9.3 8.6 10 10 0 0 1-3.2-1.6l-2.5-1.6 4.5-5c2.5-2.8 4.5-5.4 4.5-5.9 0-1.3-3.2-1.1-8 .6-9.4 3.3-11.9.9-4.5-4.3 4.9-3.4 6.2-6.8 2.3-5.9-1.3.3-5.1.9-8.5 1.3l-6.2.6-1.6-5.7c-.9-3.1-1.5-5.9-1.2-6.1.3-.3 5-1 10.6-1.6 9.6-1.1 10.1-1.2 10.1-3.5q-.2-4.2-8.9-4.3c-7.7 0-7.7-5.2 0-6.5 3.4-.6 6.6-2.5 4.1-2.5-2.2 0-6.2-5-6.2-7.8 0-1.6-.9-4.1-2-5.5s-2.3-3.9-2.6-5.6-.9-3.1-1.2-3.1a28 28 0 0 0-4.3 3.4 15 15 0 0 1-13.7 4.1c-1.5-.4-5.3-1-8.5-1.3-6.2-.7-6.3-.8-10.6-10.2l-2.6-5c-1.4-2.4-1.3-2.5 1.5-3.4 2.3-.7 3-1.5 3-3.3 0-3.7-1.4-5.6-8.6-11.4-7.4-6.1-10.9-11.5-9.1-14 .7-.9 3-2.5 5.2-3.7 2.2-1.1 5.6-3.4 7.5-5.1 3.5-3 3.5-3 1-3.1-1.4 0-4.4-.9-6.5-2-3.7-1.9-4.2-1.9-7.8-.5q-3.8 1.5-7.7.9l-4-.7v4.2c0 4-.1 4.1-3.4 4.1s-3.5-.2-4.6-5c-.7-2.8-1.6-5-2-5-.5 0-2.5.9-4.4 2.1a10 10 0 0 1-7.6 1.4q-8.6-1.3-8.6-8.2c0-2.1-.3-4.5-.7-5.3-.6-1.2.4-2.2 3.5-3.9 6.7-3.7 8.8-6 8.8-9.7q0-3.4-1.9-4.3c-1-.6-2.1-2.3-2.4-3.8a78 78 0 0 0-9.1-16.9q-1.5-2.2-6.5-2.8t-6-2.5q-2.1-3.3 3.1-3.1c3 0 3.7-1.7 1.6-3.9q-1.6-1.6.2-.6l4.2 2.8c2.3 1.7 3.8 1.9 10.2 1.4 4.1-.3 8-.8 8.6-1.2s1-2.9 1-5.6c0-2.8.5-5.9 1-6.9 1.2-2.3 3.7-1.7 4.5 1.1.8 2.5 5.1 2.5 6.5 0 .5-1.1 1-3.8 1-6s.9-6.3 1.9-9.1l1.9-5h-3.1c-7.6 0-14.7 3.5-14.7 7.2 0 2.5-4.2 2.4-6.5-.2q-1.7-2-5.9-2c-3.3 0-4.7-.7-7.7-3.6-5.3-5.2-9.3-5.4-21.5-1.4-10.5 3.5-14.2 6.3-16.4 12.5q-1 3-6.4 6.3c-9.1 5.4-10 5.3-18.3-2.5-6.2-5.9-7.2-7.4-7.8-11.3-.9-5.7-3.1-8-11.2-12-5.5-2.8-6.4-3.5-5.9-5.4.3-1.1.6-3.5.6-5.1 0-2.6.6-3.2 4.3-4.8s4.4-2.3 5.6-6.3 1.9-4.8 5.9-6.5c5.3-2.3 6.9-2 7.8 1.6.6 2.4 1 2.5 7.5 2.5 8.6 0 8.9-1.3 1.9-6.5q-5.1-3.7-5-6c0-2.9 4.7-6.9 6.9-5.9.9.3 3.7.9 6.4 1.1 4.3.5 4.7.4 4.7-1.5 0-1.7 1-2.4 4.3-3.2l8.5-2.5c4.1-1.4 4.2-1.3 4.2 1 0 6 5.8 3 9.7-5 2.5-5 3-5.5 6-5.5 2.8 0 3.5-.5 5-3.8q1.8-3.7 1.5-8.5c-.3-4.7-.4-4.9-2.9-4.2-1.4.3-4 2.2-5.8 4.1l-3.3 3.5-3.3-2a38 38 0 0 1-7.3-6.6l-3.8-4.6.7-11 .7-10.9h-4.5c-4.3 0-4.5.1-6.1 4.4-1.6 4.2-2.5 4.9-11.4 9.7l-9.7 5.1-3.7-4.2c-5.5-6.2-5.2-8.8 1.8-13.4 4.4-2.9 5.4-4.1 4.9-5.6s0-2.3 1.9-3.2c3.2-1.4 3.3-2.3.1-4.4-3.8-2.5-7-1.1-11.8 5.1-2.3 3-4.7 5.5-5.4 5.5-.6 0-2.7-2.2-4.7-4.9a31 31 0 0 0-11-9.6c-2.2-1.1-5.4-9.4-5.5-14.3-.1-1.7.1-3.2.3-3.2l5.5-1c3.6-.7 5.8-.6 7.6.2 3.1 1.4 3.5 1 4.2-4.1.5-3.3.3-4.1-1-4.1-.9 0-3.9-.5-6.7-1.1l-5-1.1v-5.6c0-5.3.2-5.8 2.9-7.4a17 17 0 0 0 5.5-6.6c2.4-4.7 2.9-5.1 7.6-6.1 2.8-.6 8.1-1.1 11.8-1.1 5.6 0 7.9.6 13.9 3.4 4 1.9 10.5 5.7 14.6 8.5 7.4 4.9 7.4 5 8.6 10.9 1.5 7.5 2.9 8.9 6.4 6.2q2.5-2 7.1-2c4.1 0 4.6.3 5.2 2.6s1 2.6 4.6 2c2.2-.4 5.3-1.3 6.9-2.1 1.5-.8 5-1.5 7.6-1.5s4.3-.4 3.6-.8-1.4-2.4-1.8-4.6c-.6-3.1-1.4-4.1-4.1-5.2-1.8-.8-5.1-1.4-7.2-1.4-4.8 0-7.7-1.9-6.8-4.6.5-1.8 7.5-5.4 10.4-5.4.7 0 2.5-1.2 3.9-2.6 1.5-1.5 4-3.2 5.7-3.9 5-2.1 9.3-7.4 10-12.4l.7-4.4-5.2.7-7.9 1.3c-4.1.8-9.4-4.2-8.5-8 .6-2.3 1.2-2.7 4.1-2.7 3.1 0 3.4-.3 3.4-3 0-2.4.7-3.3 4-5 5.8-2.9 7.5-2.5 13.6 3.1 4.3 4.2 5.4 5.8 5.4 8.4 0 3.7 2.9 5.6 7.2 4.8 1.4-.3 3.6 0 4.8.7 3.1 1.6 6.2-1.2 5.8-5.4-.3-2.6-.8-3.1-4.5-4.1-5.5-1.3-6.5-2.5-7.3-8.5-.5-4.2-.4-5 1-5 2.2 0 7.4-4.9 8.8-8.2s1-3.6-9.3-8.3c-6.6-3-8.3-3.5-10.3-2.6-3.1 1.4-3.2 1.4-3.2-.8 0-2.9-2.6-4.6-5.3-3.4a116 116 0 0 0-12.2 10.5c-8.9 8.4-10.8 9.7-17.5 12a67 67 0 0 1-12.1 3.1c-6.8.6-13.4 4.3-21.6 12l-7.2 6.8-3.7-4c-3.5-4-3.8-4.1-10.1-4.1-4.7 0-7.1.5-9.1 1.9a34 34 0 0 1-9.7 3.6 38 38 0 0 0-25.4 17.4l-5.1 6.8V298h-6.2c-12.6 0-14.8-1.6-14.8-10.8 0-2.5-1-6.2-2.5-9.2a23 23 0 0 1-2.5-8.5c0-4.5-3.5-11.4-9.9-19.7-2.7-3.5-6.3-9-8.1-12.1-2.7-4.9-3.6-5.7-6.1-5.7q-2.8 0-2.9-1.3-.3-2-3-5.5c-3.6-4.9-3.6-5.2-1-5.2 2.7 0 2.7-3.9-.1-7.3-1.9-2.5-2.4-2.6-8-2-5.2.5-5.9.4-5.9-1.2 0-.9-1.3-2.9-3-4.5-2.7-2.5-2.8-3.1-2-6.1 1.9-6.4 1.5-7.2-3-6.4-5.1.9-6.2 0-10.6-8.6-3.1-6.3-4.8-8.1-14.4-15.8-2.1-1.7-2.3-2.2-1.2-3.8.6-1 1.5-2.5 1.8-3.3s1.1-2.9 1.9-4.5c3.4-7.5 2.3-10.2-3.8-9.2-1.8.3-4.3-.1-5.7-.8-2.3-1.2-2.8-1.1-5.1 1.1l-2.7 2.5-5.8-3.2c-7.4-4.2-8.8-6-9.5-13.2-.5-5.1-1.1-6.3-4.8-10.1-4-4.1-4.7-4.4-11.3-5-6.6-.7-6.9-.8-5.4-2.5 1.8-2 2.1-5.7.6-6.6q-1-.8-.5-2.5c.4-1.4-.4-2.5-3.2-4.4-3.1-2.1-4.9-2.6-10.1-2.6h-6.3l-2.7-4.5c-1.5-2.4-3.6-4.8-4.7-5.1-3.1-1.1-8.2-.6-11.4 1.1q-3 1.5-10.7 1.5h-7.7l-8.3-6.3c-6.7-5-8.4-6.8-8.9-9.6l-.6-3.3-5.3.6c-4.9.7-5.5.5-10.1-3-3.9-3-5.6-3.7-8.7-3.5-4.7.2-8.8-2.3-8.8-5.5 0-1.3-1.3-3.7-3-5.4s-3-3.5-3-4-1.4-1-3-1q-6.4 0-21-11.7l-15.5-11.7a112 112 0 0 1-10.3-8c-3.1-2.9-3.9-3.1-12-3.4-8.3-.4-9.2-.6-20.5-6.3C288 5.1 287.9 5.1 283 6.2s-5.1 1.1-9.2-2.3L269.5.5 243 .2C217.8 0 216.3 0 213.2 2"/><path d="M763.2 385.2q.1 2.3 5.5 4.8c2.9 1.4 5.3 3 5.3 3.7s1.2 2.4 2.8 3.8l2.7 2.6 1.7-2.1q1.8-2.1 7.7-3.2c5.4-1 6.3-1 8.1.7 1.9 1.7 2.2 1.7 3.7.3 2.4-2.4 1-6.6-2.5-7.4-1.5-.3-4.6-1.5-7-2.6q-4.4-2-7.5-1.4c-8.8 1.7-12.4 1.8-16.1.2-4.9-2-4.8-2-4.4.6m20.4 131.9c-1.9 2.7-2 4.3-.6 6.9 1 1.9 1.1 1.9 4.4-.1 4.5-2.6 5.3-4.7 2.1-5.5a6 6 0 0 1-3.4-2.1c-.7-1.3-1.1-1.2-2.5.8m67 44-7.5 5.8-2.6 1.9 3.8.7c3 .6 4.2.3 5.8-1.1s3.3-1.8 7.1-1.6l4.9.4-2.6-5.1c-1.4-2.8-2.9-5.1-3.3-5.1-.4.1-2.9 1.9-5.6 4.1m59.7 378.6c-2.4 1.4-4.3 3.2-4.3 4 0 2.6 1.9 5 5.1 6.3 2.8 1.2 3.3 1.2 4.6-.6 1.5-1.9 1.1-10-.5-11.5-.4-.4-2.6.4-4.9 1.8"/></svg>