<svg xmlns="http://www.w3.org/2000/svg" width="1365.333" height="1365.333" viewBox="0 0 1024 1024"><path d="M746 .7c0 1.4-16.2 105.8-16.5 106.1-.2.2-54.5-4.6-120.8-10.7S486.9 85 485.3 85h-2.8l-6.8 39.7c-3.7 21.9-11.5 70.1-17.3 107.2-5.7 37.1-10.5 67.5-10.7 67.6l-13.7 4.8c-12.7 4.4-13.9 4.6-20.6 4.1l-7.1-.7-19.7 11.4c-18.2 10.4-20.2 11.8-25.7 18.3l-6 7.1.6 15.4c.5 13.5.1 21.2-3.6 60-2.2 24.5-4.3 44.8-4.4 44.9s-50.2-3.5-111.2-8.2c-60.9-4.7-118.3-9-127.5-9.6a76 76 0 0 1-28.2-5 49 49 0 0 0-21.5-4h-9.9l-4.2 7.2c-2.3 4-6 11.5-8.1 16.7a35 35 0 0 0-3.9 17.3c0 7.8 0 7.9 2.3 7.2 3-.9 2.6-.3 5.2-9.1a72 72 0 0 1 5.5-13.7c3.9-6.9 4.4-6.5 6.6 5.9a67 67 0 0 0 10.6 29l5.3 8 .3-5.9c.3-5.4.4-5.8 2.5-5.2l2.9.6c1.5 0 4.8 8 4.8 11.7q.1 11.4 7.3 21.6c5.2 7.3 5.9 11.3 2.8 15.3a19 19 0 0 0-2.6 7.7c-.6 4.4-1.4 5.8-5.1 9.2q-4.5 4.1-4.4 6.8-.1 2.9 2 2.7c2.3 0 2.3.2.9 5.5-.8 2.9-3.3 6.3-9.6 12.6-6.4 6.5-8.4 9.2-8.1 10.9l.3 2.2 2.7-2.1q2.7-2.1 3.3-1c.4.6 1.6.9 2.6.6 1.7-.5 1.7-.3.3 1.8-2.1 3.2-6.6 4.8-11.8 4.3l-4.3-.5.8 4.6c1.5 8 1.7 8.6 7.5 16.6a54 54 0 0 1 7.1 13c1.8 6 2.5 27.9 2.5 68-.1 28.2-.1 29.4-3 42.6-2.9 13.4-3.1 13.9-12.7 30.8a259 259 0 0 0-14 28.3c-2.3 6.2-7.2 17.4-10.9 24.8A111 111 0 0 0 22 862.2c-2.1 8.1-3.6 14.8-3.4 14.8s1.7-.6 3.2-1.4c3.8-2 7.1-5.9 12.5-14.6 4.1-6.8 5.1-7.7 9.6-9.4a18 18 0 0 1 18.7 3.2c4.6 3.5 4.7 3.5 12.5 2.9 4.8-.4 10.1-1.6 14-3.2 7-2.8 11.5-3 29.7-1.5 10.4.8 11.6.7 14.5-1 4.6-2.8 22.5-2.8 31.7 0a54 54 0 0 0 15.5 2c14.1 0 15.9.5 18.6 5.4 1.2 2.2 4.8 6.8 8 10.1 6.8 7.3 7.9 9.2 7.9 14.3 0 4.3 1.2 5.2 7.7 5.2 2.9 0 3.6.6 5.7 4.9l2.5 4.8 9.8 2.2c5.4 1.3 10.5 2.4 11.3 2.7.8.2 3.4 2.1 5.7 4.1 3.5 3.2 5.9 7.4 14.4 25.8a599 599 0 0 0 11.1 23.2c.5.6 2.1 1.4 3.6 1.8 1.5.3 4.6 2.5 7 4.8 4 3.9 4.2 4.4 4.2 9.9 0 8.2 3.5 15 9.6 18.6a78 78 0 0 1 24.7 21.7l4.8 7.3 11.4 1.7 11.4 1.7 8.3-4.7 8.5-4.9s-.4-3.6-1.1-7.8l-1.2-7.8 8.6-16.2c8.6-16.1 8.7-16.3 14.1-19.1 2.9-1.5 7-4.4 9.1-6.4l3.6-3.5 4.1 2.8c4 2.8 4.1 3 4.1 8.9v6l16.2 14.4 16.3 14.4 8.6-9.2 8.7-9.1h5c5.2 0 6.2-.9 6.2-5.1 0-1.7.8-1.9 7.6-1.9 4.1 0 10.6-.5 14.3-1.1l6.9-1 14 5.7 14 5.7 15.8-.9 15.9-.9.3-6.7.3-6.7 5.1-3.1a20 20 0 0 1 5.3-2.8c.1.2-.7 3.3-1.8 7.1a30 30 0 0 0-1.6 7.1c.4.4 293.5 22.7 297.4 22.6 1.8 0 3-3.8 11.3-34.3 5-18.8 9.2-34.8 9.2-35.4s-3.8-4.2-8.4-7.8l-8.4-6.7-.6-6.1c-.6-7-3-704.6-2.5-705.1.2-.2 27.2 1.4 59.9 3.5l65.8 4.1c3.4.2 6.2.1 6.2-.2a3945 3945 0 0 1-68.5-56.1C889.8 117.2 749.4 1.9 747.3.6q-1.2-.6-1.3.1"/></svg>