<svg xmlns="http://www.w3.org/2000/svg" width="1365.333" height="1365.333" viewBox="0 0 1024 1024"><path d="M457.2 1.2q-1.2 1.1-.1 3c1.5 2.7.5 3.4-5.2 4.1-10.7 1.3-14.9 5.7-18.2 19.2-.7 3.3-2.5 9.5-3.8 13.8l-2.3 7.8 2.7 5.2c3.1 5.9 3.5 10.5 1.1 11.4-.9.3-2.9 3.3-4.5 6.7-3.5 7.4-3.9 15-1.1 18.7 2.4 3.1 3.4 9.7 2.6 17-.6 5.6-.8 5.9-5.5 8.7-5 3.2-8.9 9.1-8.9 13.5 0 2.4 5.4 8.2 9.9 10.7 4.1 2.2 2.3 12.2-3.9 21-1 1.4-2.5 5.4-3.4 9-1.2 4.8-2.4 7-4.4 8.5-1.5 1-4.9 4.1-7.5 6.7-4.5 4.5-7.7 6.1-7.7 3.8 0-.6-1.1-1-2.5-1-2.4 0-2.5.2-2.5 6.9 0 5.1-.5 7.4-1.8 9.2-1 1.3-3.4 5.3-5.2 8.8s-4.4 7-5.7 7.8a82 82 0 0 0-14.2 20.6 65 65 0 0 0-3.1 10.4c-.7 3.5-1.7 6.3-2.1 6.3q-.8-.1-.9-1.3t-1 .3c-.5.8-1 4.1-1 7.2s-.5 6-1 6.3c-.6.4-1.9 2.4-3 4.5-1.5 3-2.7 4-5.7 4.7-3.5.8-3.8 1.2-4.1 4.8-.2 2.2-.9 4.7-1.7 5.5-5.8 6.7-9.5 26-9.5 49.7 0 9.9-.1 10.2-3.3 14.5-1.8 2.4-3.9 6.3-4.6 8.8s-2.4 6.6-3.7 9.2a23 23 0 0 0-2.4 12.5c0 5.7-.5 8.8-1.9 11.3-1 1.9-2.3 5.8-2.9 8.5a31 31 0 0 1-8.6 17.3c-2 1.8-4.1 3.2-4.6 3.2q-1 .1-1 1.6c0 .8-1.6 3-3.5 4.8q-3.4 3.3-3.5 5.9c0 1.4-.5 2.9-1.1 3.3s-1.7 2.2-2.5 4q-1.4 3.4-5.3 5.3c-3.2 1.7-4 2.7-4.5 5.8-1.8 10-3.5 13-9.4 17-4.9 3.3-6.3 5-10.2 12.6-5.4 10.4-9.1 14.4-16.9 18.2-6.6 3.1-6.5 2.7-7.8 20.8l-.6 8.8 4.4 4.5c2.4 2.4 4.9 4.4 5.7 4.4 1.1 0 1.3.9.8 3.7-.9 5-.9 4.7.4 21.3 1.7 21.5.9 35.9-2.4 44.1-1.4 3.6-2.6 8.2-2.6 10.3s-1.3 6.2-3 9.6c-2.3 4.6-3 7.3-3 11.9 0 9.8-5.1 21.2-13 28.6-1.7 1.6-8.6 6.8-15.2 11.5-8.8 6.2-12.4 9.3-12.9 11.2-.7 2.8.3 3.8 4.1 3.8 1 0 3.1 1.1 4.7 2.3 1.5 1.3 8 4.7 14.3 7.6a148 148 0 0 1 16.5 8.5c2.8 1.8 6.6 3.6 8.5 3.9 3.7.8 10.2 4.7 27.3 16.7 10.1 7 11.5 8.4 20.8 20.8 7.3 9.8 10.2 14.4 10.5 17 1.3 9.5 2.7 17.1 4.1 21.7a50 50 0 0 0 8.2 15.5c.5 0 2 1.1 3.5 2.5 2.1 2 2.6 3.3 2.6 7.5q0 7.5 3.6 4c.8-.8 4 1.7 10.5 7.8 8.3 7.9 10.2 9.2 15.5 10.7 6 1.6 6.1 1.8 9.2 7.8 1.7 3.4 3.4 8.2 3.7 10.6.9 5.7 5.2 12.4 10.3 16.1 5 3.6 12 12.2 19.2 23.5a41 41 0 0 1 8 21.7c0 3.5.4 3.9 4.8 6.1 2.6 1.4 7.2 3.2 10.2 4.2a50 50 0 0 1 19.6 10.2c2.3 2.2 8.2 6.1 13.3 8.7 5 2.6 10.6 6.3 12.4 8.3 1.8 1.9 5.2 4.6 7.7 5.8s5.6 3.9 6.9 5.9c1.8 2.8 3.5 3.9 7.9 5.1q10.8 3.1 14.6 12.3c2.9 6.8 11 15.4 17.6 18.7 3 1.5 8 4.2 11 6 9.2 5.5 15.5 6.9 31.5 6.6 7.7-.2 14.4-.7 15-1.2s2.4-.9 4.3-.9c2 0 7.4-1.9 13.1-4.6a63 63 0 0 1 13.9-5.2c3.8-.4 5.1.1 11.9 4.3 9 5.5 14.3 6.3 20.9 2.8 3.6-1.8 4.2-1.9 7.9-.6 5.4 2 13.4 1.2 17.3-1.5 2.8-2.1 3.5-2.2 7.9-1.1 2.6.7 6.5 2 8.7 3 4.1 1.8 7.7 1.4 12.2-1.6 2.7-1.8 7.1-1.9 11-.4 1.8.6 6.6.8 12.9.3l10.1-.6 1.8-4.4a40 40 0 0 1 24-24.5l5.5-2.1 8.9-16.7c5-9.1 10-18.6 11.2-21.1a52 52 0 0 1 14.3-16.6c1.1-.3 5-2.6 8.7-5 6.4-4.1 6.8-4.6 7.2-8.7.4-3.4 2.1-6.8 6.8-13.7 3.5-5 7.4-9.9 8.7-10.7s4.4-4.7 7-8.7c4.7-7 4.8-7.2 4.7-15.1a38 38 0 0 0-9.2-26.5 111 111 0 0 1-15.8-24.3c-.8-2.3-2.7-5.3-4.3-6.7-3.7-3.3-5.4-11.3-5.8-28.8l-.4-13.3 5.2-7.2c2.8-4 7-9.1 9.2-11.4l4-4.1-.7-9.9c-.4-5.7-.3-11.7.3-14.2.8-3.8.7-5-1.2-8.4l-3.6-6.5c-.8-1.4-1.6-4.5-1.9-7-.4-3.4 0-5 1.7-7.3 2-2.6 2.2-3.9 1.7-9.7l-1.5-20.2c-.5-7.4-1.2-15.1-1.6-17a53 53 0 0 0-10.3-20.2c-4.8-4-7-9.2-9.2-22.3q-3.5-21-.7-27.8c.8-1.8 3.9-5.4 7-8l5.7-4.9v-14.9c0-14.6-.1-15.1-3-20.9-1.6-3.3-3-6.7-3-7.7a65 65 0 0 0-7-21.8c-.9-.3-3.2-2.1-5-4-3.5-3.6-3.5-3.6-4.1-15.3-.5-10.4-.9-12.4-3.7-18.2-1.8-3.6-3.2-7-3.2-7.7s-1-1.8-2.2-2.4c-1.3-.7-6.8-5.6-12.3-10.9-9.9-9.7-10.1-9.8-20-13-10.7-3.5-21.4-9.8-23.8-14a25 25 0 0 1-2.2-6c-1.2-5.5-3.3-7.8-9.9-10.7-5.6-2.5-10.3-6.3-26.1-21.2a39 39 0 0 1-6.8-9.4c-2.6-5.1-2.7-6-1.6-9.1.9-2.6 1-4.7.1-9.2-.7-3.1-1.2-8.3-1.2-11.5 0-5.4-.2-6-3.5-8.6-3.3-2.7-3.4-3.1-2.5-6.3.6-1.9 1-6.3 1-9.8 0-5.5-.5-7.3-4-13.6-4.9-9-6.9-10.8-14.8-13.6-6.5-2.4-9.2-5.3-9.2-10 0-1.1-2.5-5.4-5.5-9.5-6.7-9-7-9.9-8-19.9-.4-4.4-1.3-9.7-2.1-11.9s-1.4-5.5-1.4-7.4-1.5-6.5-3.5-10.5c-2.9-5.7-3.4-7.7-2.9-10.2 1.1-4.3.9-5-3.8-14.7-3.9-8.3-4.3-8.8-10.3-12-5.8-3.1-6.4-3.7-7.9-8.5-.9-2.8-1.6-5.5-1.6-6 0-1 10.8-.2 14.6 1.1 1.8.6 2.4-.1 4.2-4.4 1.2-2.7 2.2-5.4 2.2-6 0-.7-2.4-1.1-6-1.1-3.3 0-6-.4-6-1s5-1 13-1h13v-3c0-4.6-4.2-8.4-8.3-7.6-11.7 2.4-13.1 2.4-16.6.3-4.1-2.5-7-7-6.3-10 .3-1.2 3.8-5 7.8-8.5 5.6-4.7 8.1-6.2 10.4-6.2h3.1l-.5-9.1c-.3-5-.9-9.6-1.4-10.2-.5-.7-1.9-3.9-3.2-7.2a68 68 0 0 0-10.1-19.3c-2.4-2.7-2.9-4.2-2.9-8.7 0-5-.2-5.5-3.2-7.3a26 26 0 0 0-7.3-2.7c-6-1-10-4.6-11.4-10-.9-3.8-1.5-4.5-3.5-4.5-1.3 0-2.6.7-3 1.5q-.4 1.6-5.6 1.5c-5 0-7.6-1-11.5-4.1a22 22 0 0 0-7.9-3c-3.6-.8-8.5-3-12.9-5.8-3.9-2.5-10.5-6-14.7-7.6-5.9-2.4-7.6-3.5-7.8-5.3-.5-3.3-7.6-3.2-11.2.3-2.6 2.4-2.9 2.5-5.6 1.1-1.6-.8-4.1-1.8-5.6-2.1q-2.7-.7-4.3-3.4c-.8-1.6-2.4-3.2-3.5-3.6s-2-1.5-2-2.7c0-1.6-.4-1.9-2.2-1.3-5.5 1.7-6.9 1.7-8.6.1-1.4-1.2-2.1-1.3-3-.4"/></svg>