<svg xmlns="http://www.w3.org/2000/svg" width="1365.333" height="1365.333" viewBox="0 0 1024 1024"><path d="M0 156.7c0 2.6 7.1 20.6 9.3 23.4 2.6 3.3 2.6 5.9 0 5.9q-1.6-.1-.8 2.2c.4 1.3.9 4.1 1.2 6.3s1.1 4.7 1.8 5.5a32 32 0 0 1 5.5 14.9c0 2.7 1 5 4.1 9.1 2.9 3.9 3.9 6 3.4 7.4-.4 1.2-.9 4.3-1.2 7-.5 4.5-.5 4.8 1.5 4.2 3.1-1 4 1.7 4.6 13.2s2.1 15.4 6.7 17.8c1.7.8 5 3.3 7.3 5.4 2.2 2 5.1 4 6.3 4.4 2.1.7 2.9 1.7 9.7 12.4 1.9 2.9 4.6 6.4 6 7.7s2.6 3.1 2.6 3.9 2.1 4 4.6 7.1c4.3 5.2 4.6 5.9 4 9.8a72 72 0 0 0-.7 9.9c0 3.2-.5 5.8-1 5.8s-.9-.7-.9-1.5-.7-1.5-1.5-1.5-1.5.8-1.5 1.9-.7 2.4-1.5 3.1c-1.8 1.5-.3 5 2.1 5 .8 0 1.8 1 2.3 2.2q1.5 4.7-1.4 1.2c-1.5-1.9-1.5-1.9-.9.1.4 1.1 1.4 2.8 2.2 3.8s1.2 2 .9 2.4c-1 1-4.7-2.8-4.7-4.8 0-1-.9-2.1-2-2.4s-2-1.5-2-2.6q0-3.2-5.4-.8c-1.9.9-2.9.9-4 0a45 45 0 0 0-14.3-3.8c-.8.9 2.9 7.8 4.5 8.4.9.4 2.9 1.8 4.3 3.2s3.7 3.4 5.2 4.3c1.9 1.3 2.7 2.9 3.2 6.6.5 4 1.2 5.2 3.3 6.3 1.5.7 3.6 1.3 4.7 1.4s2.4 1 3 2.2c.5 1.2 3 3.1 5.6 4.1 3.8 1.6 5.2 3 7.8 7.6l3.3 5.6 2.8-2c2.1-1.5 3.4-1.8 4.7-1.2l4.8 2.3a7 7 0 0 1 3.9 5.2c.5 2 1.4 3.7 2 3.7 1.2.1 6.6 4.5 6.6 5.4 0 1.4 7.8 7.6 10.2 8.1 4.9 1.1 11.3 16.2 11.1 26.5a52 52 0 0 1-3.8 21.6c-1.3 5.1-1.3 6 0 8 .9 1.4 3 2.6 5 3 2.8.5 3.9 1.3 5 4q1.4 3.3 3.9 4c1.4.3 2.6 1.2 2.6 2 0 .7 1.4 2.3 3 3.6 1.7 1.2 3 2.7 3 3.3 0 1.1 5.3 5.5 6.5 5.5 1.6 0 11.8 10.2 14.5 14.4a18 18 0 0 0 4.5 5.2c.9.4 2.2 1.8 2.9 3.2.8 1.5 3.1 3.2 5.7 4.2 4.7 1.9 5.1 2.6 8.4 16.5 1.3 5.5 2.4 7.6 4.8 9.6 3 2.6 3.2 2.6 6.4 1 1.7-.9 3.6-2.6 4.2-3.9s2-2.2 3.1-2.2c2.8 0 6-1.8 6-3.3 0-.7.8-2.9 1.9-4.9l1.8-3.7-2.8-4.3c-1.6-2.3-3.7-4.6-4.9-5q-2-.7-2-3.6a13 13 0 0 0-2.5-6.2c-1.5-2-2.5-4.7-2.5-6.7 0-2.5-.4-3.3-1.8-3.3-.9 0-3.3-2-5.2-4.5-3.5-4.5-6.9-6.3-9-5-.7.4-1 1.6-.7 2.6s-.1 2.6-.9 3.6q-1.3 1.9-1.4.4 0-1.3-2.5-.7c-2.7.7-3.6-.5-6.7-8.4q-3.3-8.4-.3-11c.8-.7 1.5-2.3 1.5-3.7 0-2.4-4.2-11.6-6.6-14.3a22 22 0 0 1-2-7.5c-.6-4.9-1.3-6.5-4.2-9.5a20 20 0 0 1-6.7-16 99 99 0 0 0-3.6-21.8c-.5-1.3-.9-3.1-.9-4.1s-1.2-2.8-2.6-4.2a19 19 0 0 1-4.1-5.9c-1.3-3-1.6-3.2-2.5-1.6q-1 1.8 0 4c3.1 6.7 3.3 7.8 1.5 7.4q-1.7-.4-3.1-5.3c-.8-2.8-2.5-6.3-3.9-7.9-2.2-2.7-2.3-3-.8-5.2s1.4-2.4-.5-2.4q-3.8-.1-8.1-12.7-2-6.4-5.2-8.8c-9.3-7.5-9.2-7.4-9.2-15.9 0-4.3-.4-8-.8-8.3s-.6-1.6-.2-3q1.4-5.7-3.4-6.6-3-.6-3.6-2.9c-1.6-5.2-5.1-11.8-6.3-11.8-.7 0-1.8-1.1-2.4-2.5q-1.2-2.6-2.9-2c-1.9.6-1.8.9-3.4-9.8-.3-1.9-2.1-5.1-4-7.3-2-2.1-3.8-4.9-4.1-6.2a8 8 0 0 0-3.5-3.7c-1.5-.8-4-3.5-5.4-5.9-1.6-2.8-3.5-4.6-4.8-4.8q-2.3-.2-2.5-3a7 7 0 0 0-2.2-4.1c-3-2.1-4.4-9.4-2.7-14.2 1.5-4.2 1.2-20-.3-22-.5-.6-1.1-4.8-1.5-9.5s-.8-10-1.1-11.8q-.6-3.3.9-3.2c3.6 0 2.1-6.9-2.9-13.5-4.2-5.5-2.6-6 3.1-.9l11.3 10c9.7 8.7 16.7 10.9 19 5.9 1.4-3.1 2.2-3.1 5.6-.2a11 11 0 0 1 3.3 6.1c.3 2.1 1.1 3.9 1.7 4.1 10.5 3.1 13.7 6.2 12.9 12.5a44 44 0 0 0 4.3 23.3c2.4 3.6 2.8 5.5 3.4 14.2.6 8.8 1.1 11.1 4.8 19.4 2.3 5.2 4.2 9.9 4.2 10.4s1.4 2.5 3 4.4 3.6 5.5 4.3 8c1.1 4.2 3.2 6.8 8.3 10 1.8 1.1 1.8 1.2-.3 1.2-3 .1-2.9 1.8.1 4.2 1.3 1 2.9 3.1 3.5 4.7 1.3 3 5.7 6.2 8.8 6.2 1.5 0 2.3 1.4 3.7 6 1 3.2 2.4 6.4 3.1 7s1.5 2.4 1.8 4c.5 2.2 1.4 3.1 3.4 3.6 1.5.4 3.7 1.5 4.9 2.6 1.8 1.6 2.3 1.7 3.3.4 1.7-2 7.5.1 6.5 2.4a14 14 0 0 0 .5 12.5c1.6 2.8 1.7 3.5.6 3.5-2.3 0-1.8 2.8.8 4.1 1.2.7 4.3 2.9 6.8 5 3.3 2.8 5.6 3.9 7.9 3.9q3.2.1 4.6 1.7 2.7 3.4-.1 3.3c-2.4 0-1.8 1.9 2.3 7.2l3.7 4.9 5.5-.3 5.5-.2 3.5 6.7c1.9 3.7 4.3 7 5.3 7.3 2.4.8 2.2 4.3-.3 4.1-1.1-.1-2.2-.7-2.4-1.4q-1.5-3.9-4.5 4.2c-1.2 3.1-2.1 8-2.1 10.9 0 5.8.4 6.3 9.3 14.3 3.6 3.3 7.7 4.4 7.7 2.1q.2-.8 2.2.9a83 83 0 0 0 16.1 10.7c.3-.3 1.3.9 2.4 2.6s3.4 4 5.5 5.1c6.3 3.2 8.4 11 2.5 9.5q-6-1.6.2 5.4c3.2 3.7 4.1 4.3 5.3 3.2s1.8-1 2.7.2c.6.7 2.5 1.6 4.1 2 1.7.3 3 1 3 1.6q-.2 2-4.1-.1c-1.1-.6-2.5-.9-3.1-.7-1.7.6 9.2 8.8 11.6 8.8 3 0 9.5 7.1 13.9 15.1 2 3.7 4.4 6.9 5.2 7.3q1.3.6 1.5 2.1c0 .8 2.2 4.4 4.9 7.8 2.7 3.5 5.3 7.5 5.6 9q.7 2.7 2.7 2.7c3 0 8.3 4.6 10.3 9 1.5 3.3 2.4 4.1 5.4 4.6 5.7.9 5.9 1.1 7.1 5.4.8 3.1.8 4.5 0 5.5s-.8 2.9-.1 7.1c.6 3.2 1.1 7.1 1.1 8.8s1.4 5.8 3 9.1 3 6.6 3 7.3c0 2 3.9 7.2 5.4 7.2 2.3 0 4.4 3.3 3.6 5.5-.5 1.1-.9 3.7-.9 5.8-.1 4.6-1.1 6.7-6.2 12.8-4 4.8-4.6 5.9-3 5.9 1.4 0 9.1 5.3 9.1 6.2 0 1.2-6.4 3.8-9.2 3.8-1.3 0-3.9 1.4-5.8 3.1l-3.4 3.2 3.2 2.7c1.8 1.4 3.2 3.4 3.2 4.3s1.6 4.2 3.5 7.4 3.5 6.5 3.5 7.4 1 1.9 2.3 2.3a6 6 0 0 1 3.3 2.8c4.9 9.7 6.8 12.5 9.4 13.9l4.4 2.8a44 44 0 0 0 14.7 5.5q.8-.3.9 2c0 3 1.3 3.8 10 6.1q10.8 2.9 13 10.1c.6 1.8 1.9 3.6 2.8 3.9s2.8 2.2 4.2 4.2c1.3 2.1 3.1 4.5 4 5.3 1.7 1.7 11.5 5 14.8 5 1.2 0 3.1 1.1 4.4 2.4 1.8 1.8 3.7 2.5 8.4 2.9 3.3.2 8.3 1.5 11.2 2.7 4.5 1.9 5.6 2.1 8.1 1 2.5-1 3.4-.9 5.3.4 1.2.9 3 1.6 3.9 1.6 1 0 3.6 2.2 5.9 4.9 2.2 2.8 5 5.3 6 5.6s2.2 1.4 2.5 2.5c.3 1 3 3 6.1 4.5s6.2 3.8 7.1 5.1 2.2 2.4 3 2.4 2.7.6 4.1 1.3c7 3.6 10.2 4.8 16.7 6.6 3.9 1 9.5 2.8 12.5 4.1s6.5 2.4 7.8 2.7 2.7 1.4 3.3 2.4q2.4 4.4 10.1 4c2.6-.1 7 .5 9.7 1.3s5.1 1.3 5.3 1c.3-.2 2.2.5 4.3 1.6 2.2 1.1 5.1 2 6.5 2q2.5 0 6.7 4.4c3.1 3.3 5.7 4.9 10 6.2 3.2 1 6.6 1.7 7.6 1.6 1.1-.1 3.2.7 4.7 1.8 7.1 5 15 8.1 21.8 8.4 3.7.1 7.7.8 8.9 1.4 1.2.7 3.3 1.2 4.6 1.2a24 24 0 0 1 7.8 2.7c4.6 2.4 6.4 2.8 13.7 2.7s9.1-.5 14.4-3.3c3.3-1.7 6.8-3.1 7.7-3.1 4-.1 19.2-6.2 21.1-8.5 2.2-2.7 7.1-4.8 12.8-5.6 3-.4 5.6-1 5.9-1.3 1-1-.9-2.6-3.2-2.6-3.6 0-3.8-1.6-.4-3 2.4-1 3.5-1 5.4 0 1.2.7 2.8.9 3.4.6 1.4-.9 5.1.2 5.1 1.5 0 .5-1.1.7-2.4.3-1.8-.4-2.7-.1-3.6 1.5-1 2-.8 2.1 3 2.1 2.3 0 8.1 1.6 13.1 3.5 10.4 4 9.9 3.9 9.9 2.2 0-.6-3.4-2.5-7.5-4-4.6-1.7-7.5-3.4-7.5-4.3 0-1.9-.3-1.9 8.1 2.1 4.1 1.9 8.4 3.5 9.6 3.5 1.9 0 2.2.4 1.8 2.2-.4 2 .4 2.7 5 5q5.4 2.6 5.5 1.4c0-.6-.5-1.7-1.2-2.4s-.8-1.2-.3-1.2c.8 0 9.6 8.1 24.1 22.1 2.2 2.2 5.6 4.4 7.6 4.9q3.5 1 6.1 4.8c2.5 3.5 15.1 16.2 16.2 16.2 1.3 0 3.5-6.5 3.5-10.5 0-2.6.8-6 1.7-7.6 1.7-2.9 1.7-3-.9-5.6l-2.6-2.6 8-16.2 8.1-16.1 23.1-1.2a215 215 0 0 0 23.7-2c.4-.4.9-3.2 1.1-6.1l.3-5.5-3.5-.7c-3.9-.8-7-4.1-7-7.4 0-1.6-1.5-3.2-5.9-5.9-3.2-2-6.3-3.6-6.8-3.6s-2.9-2.2-5.2-5c-3-3.5-5.1-5.1-7.6-5.6-6.1-1.1-3.8-2.4 4.5-2.4h8v-21.9l3.3-.6c4.9-.8 42.3-3.5 49.7-3.5 10.6 0 14-.9 14-3.5 0-2.9 2.6-3.9 5.3-2 1.2.8 2.7 1.5 3.3 1.5s3.6-5.4 6.7-12c3.5-7.3 6.2-12 7.1-12 3 0 6.5-2.3 7-4.6a6 6 0 0 1 2.6-3.4q2-1 2-4.1c0-3.1.4-2.9 1.3-2.6q1.2.4 1.2 6.8c0 6 .1 6.4 2.8 7.3 2 .7 2.7 1.6 2.7 3.6 0 1.5.8 3.5 1.9 4.4 1.8 1.6 1.9 1.6 3-1.5.6-1.7 1.8-7.1 2.6-11.9s2.2-10.9 3-13.6 1.5-5.8 1.5-7c0-1.1.9-2.9 2-3.9s2-2.2 2-2.7c0-1.3-3.4-.9-5.7.7q-2.2 1.7-2.6.2c-.6-1.7 1.1-4.7 2.6-4.7.8 0 2.6-1.3 4.1-2.9 2.2-2.3 2.6-3.4 2-5.6-.7-2.6-.8-2.7-2-1q-1.3 1.6-1.4.7.1-1.4-3.1.4l-3.2 1.6.7-2.9c.4-1.5 1.8-4.4 3.2-6.4 1.7-2.5 2.4-4.9 2.4-8.2 0-2.7 1-7.3 2.4-10.7s2.2-6.8 1.9-8q-.6-2 1-2c2.3 0 7.7-4.9 7.7-7.1 0-1 1.4-4 3-6.6 2.4-3.7 3-5.8 3-10 0-3.3-.6-6-1.5-7.1l-3.8-4.4c-2.2-2.8-6.4-4.2-6.7-2.3-.5 3-2.3 3.5-10.9 2.8a59 59 0 0 1-12.5-2c-4.5-1.5-14.2-1.8-15.1-.3-.3.5-2.2 1-4.2 1-4.5 0-15.3 4.1-15.3 5.7q-.2 1.2-1.7 1.3c-1 0-3.2.8-4.8 1.9a31 31 0 0 1-11.4 2.5 75 75 0 0 0-26.9 7.1c-14 6.5-14.5 7.6-15.2 30.5-.5 16.5-.6 17.7-3 21.5-1.9 3.1-2.6 5.8-3.1 12.3l-.5 8.3-6 6a93 93 0 0 1-12.1 10.1q-6.2 4-6.3 6c0 1.6.5 1.8 3.5 1.2 3-.5 3.5-.4 3.5 1.4 0 1.1.7 2.5 1.5 3.2q3.6 2.9-2 2.2c-2.8-.3-4 .1-6.5 2.7q-3.1 3.2-6.4 3.1c-1.7 0-3.7.5-4.4 1.2q-1.3 1.4-1.2-.5c0-1-1.4-2.3-3.2-3.1-3.1-1.4-3.2-1.4-.8-1.6 2.3-.1 2.4-.2.7-1.4-2.5-2-21.2-3.2-23.2-1.6q-1.3 1.2-.9 2.1c.4.9-.8.9-2.4.9q-3.1 0-7.1 3.4a21 21 0 0 1-16.2 4.5c-1.9-.2-4.7.1-6.4.5l-6.7 1.7q-4 1-3.8 2.9c0 1.7-3.5 3.8-4.6 2.7-.3-.3-4.1.6-8.5 1.9-10 3.1-19.2 3.1-19.8-.1a6 6 0 0 0-2.2-3.3c-1.1-.7-1.9-2-1.9-2.8 0-2.2-3.8-5.4-6.4-5.4q-2.4-.2-4.4-2.7c-1.9-2.6-2.5-2.8-9.9-2.9-4.3 0-8.8-.6-10.1-1.3-3.8-2-4.7-.7-1.6 2.3 2.9 2.8 2.9 2.8.4 2.1-1.4-.4-4.2-.9-6.2-1.2-2.1-.3-3.8-1.1-3.8-1.8s-1-1.7-2.2-2.3q-2.8-1.2-.5-1.1c1-.1 2.7.4 3.9 1 4.3 2.3 2.9-.5-3-6.1-3.4-3.2-6.2-6.4-6.2-7.1s-1.6-3-3.6-5c-2.8-2.9-4.2-5.6-6-12.1-1.9-6.5-3.1-8.9-5.7-11.3a15 15 0 0 1-4.1-5.9c-.4-1.5-1.5-3-2.5-3.3q-1.8-.5-1.4-2.3c.5-2-5.2-7-8-7q-1.6-.1-1.7-1.3-.3-1.8-2.9-4.1c-1.6-1.6-3.9-5-5.1-7.7s-2.7-4.9-3.5-4.9-1.2-.6-.9-1.4-.1-2.8-1-4.3-2.2-5.2-3.2-8.2-2.7-7-4-8.9-2.9-5.3-3.5-7.6-1.5-4.9-2-5.8c-.5-1-.9-3-.9-4.5-.1-3.6-3.6-8.4-4.8-6.5-.7 1.1-1.2 1-2.6-.3q-3.3-3.1.7-2.3c2.1.3 2.2 0 2.2-7.7 0-4.4.4-8.6.9-9.4q1-1.4-.7-2.6c-1.2-.9-1.4-1.8-.7-4.1q.8-2.5.9-1.2c.1 2.3 2.1 3.4 3.2 1.7 1.1-1.8 1.2-6.6 0-7.3-.4-.3-1.1-2.6-1.4-5.1-.4-4.1-.1-6.8 1.8-15.2q.8-2.5-1.6-2.3c-1.8 0-2-.4-1.4-2.3.4-1.2.5-3.1.4-4.2-.2-1.1-.3-7.1-.2-13.3 0-6.1-.2-11.2-.6-11.2s-1.2.5-1.9 1.2c-.9.9-1.2.2-1.2-3.2s.3-4.1 1.2-3.2c2.3 2.3 2.9 1.2 2.7-4.8-.1-3.3.3-6.5.9-7.3.9-1 .8-1.8-.2-3.3-.9-1.1-1.2-3-.9-4.6s0-3.5-.8-4.4c-1.1-1.3-1-1.7.5-2.6 1.4-.8 1.5-1.3.5-2.4-1.6-2-.5-2.8 1.9-1.3 2.8 1.8 5.6.5 4.2-2q-.9-1.9-1-2.5c0-.9 2.3-.7 4 .4 1.2.8 1.1 1.4-.7 4.7a30 30 0 0 0-2.8 7.5c-.6 3.1-.4 3.8.9 3.8q1.5-.2 2.2-2.8c.3-1.5 1.6-5 2.9-7.7l4.9-12.2c2.4-6.4 2.6-7.7 1.6-10.8-1.2-3.8-4.2-4.8-5.8-1.9-.8 1.4-1.6 1.2-6.8-1.4a39 39 0 0 0-15-3.9 45 45 0 0 1-17.6-5.1 99 99 0 0 0-13.1-5.3c-2.5-.6-5.2-1.8-6-2.8a159 159 0 0 1-12.7-25.5c0-.9-.7-3.2-1.5-5.2-1-2.5-1.2-4.2-.4-6.1.8-2.1.5-3.1-1.6-5.9-1.4-1.9-3.2-3.4-3.9-3.4a29 29 0 0 1-9.6-10.1c0-.7-2.4-3.8-5.2-6.9-7.5-8.2-7.5-8.2-9.3-14.5-.9-3.1-2.3-5.9-3.1-6.2s-3.6-4.9-6.3-10.2-5.9-10.8-7.2-12.2-3.2-4-4.1-5.8c-1-1.8-3.2-3.8-5.2-4.6-1.9-.8-3.7-2.4-4.1-3.5s-1.4-2-2.3-2c-1 0-2.3-.9-2.9-1.9-1.4-2.3-9-4.1-17.2-4.1a24 24 0 0 1-8.7-1.5q-5.7-3-7.4.4c-.6 1.1-2.5 2.2-4.8 2.6-5 .8-8.7 5.5-10.5 13.2-.7 3.3-2.2 6.9-3.3 8l-4.2 4.7c-1.7 2-2.9 2.6-4.5 2.2-1.2-.3-3-.6-3.9-.6-1 0-3-1.4-4.5-3-1.4-1.7-3.6-3-4.7-3s-3.7-1.1-5.7-2.4c-1.9-1.3-5.3-3.1-7.4-4s-5.7-3.4-8.1-5.6-4.8-4-5.3-4-2.6-2.8-4.8-6.3c-3-4.7-4.2-8.1-5.2-13.7-.6-4.1-1.9-8.8-2.7-10.4a16 16 0 0 1-1.4-4.3c0-3.3-3.4-7.4-8.7-10.7-5.1-3.1-13.3-11.5-13.3-13.6 0-.5-1.2-1.2-2.7-1.8-1.6-.5-5.7-3.7-9.3-7.1-3.5-3.3-6.7-6.1-7-6.1s-1.9-2.2-3.5-5-3.8-5.3-5-5.6a11 11 0 0 1-3.5-2c-1.1-.9-7.6-1.6-22-2.3l-27.2-1.6-6.8-.5v9c0 4.9-.4 9-.8 9l-82.7-7.3-14-1.3-36-18.5a2069 2069 0 0 0-56.2-27.8A158 158 0 0 1 72 163.7c0-.6 1-2.1 2.2-3.4s2-2.5 1.7-2.7c-.9-.8-75.9-1.8-75.9-.9"/></svg>