<svg xmlns="http://www.w3.org/2000/svg" width="1365.333" height="1365.333" viewBox="0 0 1024 1024"><path d="M195.5 1.2a58 58 0 0 0-3.1 20.2c.5 4.3.2 5.4-1.6 7.3-2 2.1-2.1 2.7-1 6.7 1.4 5.3-.1 11.2-3.5 13.9-2 1.6-2.3 2.7-2.3 9.5 0 7.5.2 8 5.1 16.2 2.8 4.7 5.9 9.4 7 10.5 1 1.2 2.8 4.7 3.9 7.9s4.1 9 6.8 13c5.5 8 11.4 22.2 13 31.1.6 3.3 1.6 11.2 2.2 17.5.9 9.6.9 12.8-.4 19.5-2 10.3-2 13.9.1 16.1 1.7 1.7 1.6 1.7-1.6 1.1l-3.4-.7.7 8.7c.5 6.2 1.4 10.3 3.2 14.3a45 45 0 0 1 3 23.3c-.7 4.9-1.8 5.6-6.8 4.9-2.3-.4-3-1.2-4-4.6-2.2-7.9-4.3-8.9-22.9-11l-4.6-.5.4 7.7c.2 4.2.8 9.6 1.3 11.9s1 6.1 1 8.5c0 5.2 1.8 8 7.2 11.4 3 1.9 4.8 2.4 7.2 2 2.8-.5 3.7-1.6 7.4-9.1 4-8.1 4.4-8.5 7.4-8.5 1.8 0 5.7 1.4 8.6 3l5.2 3v15.3c0 16.7-.8 20.9-6.1 30.7-2.2 4.2-2.9 6.5-2.3 8.2 1.1 3.5 3.7 6.7 5.5 6.8q1.6 0 2.3 4.1c1.5 9.3 5.2 13.5 8.5 9.5 1.8-2.1 5.2-.8 11 4.3l5.5 4.8-2.3 6.1-2.3 6 2.3 3.1c2.2 3 2.6 3.1 9.3 3.1h7l-2 2.1c-1.8 1.8-2.4 1.9-4.1.8-3.2-2-4.9-.5-6.7 6-1.5 5.2-1.5 6.4-.3 9.3.8 1.8 2.4 4.2 3.6 5.2 2.1 1.9 2.1 1.9 2.1-.7 0-3.1.2-3.2 4-1.2q5 2.6 5 7.7v2.2l-1.6-2.2q-1.4-2.2-4.8-2.2-6.5-.1-5.3 6.7t7.7 8.2l3.2.6-3 3.8a19 19 0 0 0-3.7 8c-1.3 8.9-1.6 9.7-4 10.3-2.3.6-2.3.8-2.3 13.9.1 12.1-.1 13.5-2.1 16.4-1.2 1.7-2.7 3.1-3.2 3.1s-.9 2.6-.9 5.9c0 5.2.2 5.9 2.3 6.5l2.9.6c.3 0 1.2-2.4 1.9-5.3 1.3-5.7 3.8-8.6 5.2-6.1 1.1 1.9 3.6 1.8 5.9-.3q1.8-1.8 2.9-.6c1.1 1.2-.1 1.7-3.2 3.4a20 20 0 0 0-5.1 3.3c-1.1 1.6-1 6 .2 9.2q1.1 3 2.2 1.6c2.8-2.8 11.7.5 19.1 7.1 4.1 3.8 4.5 5.7 2.5 13.5-1.6 6.7-3.5 9.2-6.8 9.2-2.3 0-3 .5-3.5 3-1.1 5 .5 13 3.6 18.1 3.3 5.2 3.6 5.4 10.3 6.4 3.8.6 4.7 1.2 5.2 3.1a9 9 0 0 1 .1 4.3q-.5 1.9 3.2 5.4c4 3.8 14 10.7 15.6 10.7.5 0 1.8 2 2.8 4.5q2 4.7 3.9 4.5c2.3 0 12.1 9 15.4 14.2 1.3 2 4 7.8 6 12.9 2.1 5 6.1 12.7 9.1 17a35 35 0 0 1 5.3 10.4c0 1.9.7 2.6 2.8 3.1 5.6 1.4 11.7 7.1 17.3 16 1.1 1.8 2.9 3.6 4 3.9 2.9 1 4.9 6.4 4.9 13.3 0 8.9.9 11.8 4.9 16.5 2 2.3 4.2 5.9 4.8 8 1 3.4.9 4-1 6.1-2.9 3.1-9.3 4.2-10.7 1.8-2.4-4.3-2.4-4.3-7.3-2.6l-4.7 1.6 2.5 3c3 3.6 3.1 4.4.5 8.3-2.8 4.2-2.8 12.5 0 15 1.1 1 3.3 3.8 4.8 6.2 2.9 4.6 8.8 8.3 13.4 8.3 1.4 0 4.6.9 7.1 2 3.7 1.7 4.7 2.6 5.2 5.3 1.6 8.2 3.3 10.3 14.4 17.4a75 75 0 0 0 20.8 10.1 51 51 0 0 1 10.9 4.3c1 1.7 9.3 4.9 12.6 4.9q3 0 6 3c2.7 2.7 3 3.6 2.4 7-.5 3.4-.3 4.1 1.6 5.1 4 2 8.8 7.2 8.8 9.5 0 1.2.9 4.3 2 6.8l1.9 4.6h6.6c6.4 0 6.7.1 10.5 4 3.2 3.3 4.6 4 7.7 4 3.5.1 4.1.5 8.2 6.5 7.4 11.1 18.2 21 22 20.3 1-.2 2.6.4 3.5 1.1a43 43 0 0 0 13.3 5.1 24 24 0 0 1 6 3c2.6 1.7 5.3 3 6 3s3.6 1.4 6.4 3.1c4.8 3 5.4 3.1 12.4 2.6 6.5-.6 7.4-.4 9.1 1.4a18 18 0 0 0 4.6 3.5q2.7 1.3 3.8 5.7c1.6 6.6 4 10.5 11.1 18.3 3.7 4.1 8.8 10 11.4 13.2l4.8 5.9 8.1.6c10.7.8 14.7 2.1 19.6 6.2 2.2 1.8 4.9 3.7 6 4 1.1.4 2 1.5 2 2.5 0 2.5 8.7 9.4 13.7 11.1 2.1.6 5.5 2.7 7.6 4.5 2 1.9 4.5 3.4 5.6 3.4s2.9.8 4.2 1.9 6.7 3.7 12 6c6 2.6 10.8 5.5 13 7.7 3.9 4.1 9.4 6.7 12.1 5.8q1.7-.7 4.5 2.6c1.4 1.7 5 4.2 8 5.5 4.4 2 5.7 3.2 7.3 6.7 1.1 2.4 2 5.2 2 6.3s1.5 3.2 3.3 4.6a30 30 0 0 1 8.2 21.4c-.5 3.9-.3 4.9 2.1 8 1.5 2 4 4.5 5.6 5.6 2.7 2 3 2 4.8.4 1.4-1.3 3.5-1.6 9.4-1.4l7.5.2 3.9-5.9 9.4-14.5 5.7-8.7 8.3.5c7.3.5 9.1.2 14.4-2l6.2-2.5 4.5 5.2 4.4 5.1 13.4-.3c15.1-.3 18.2.6 18.7 5.1q.2 2.8 3 3.3c1.5.4 4 1.8 5.5 3.1 2.2 1.8 4 2.3 8.4 2.3 5 0 5.9-.3 8.7-3.2 1.7-1.8 3.7-4.5 4.3-6.1q1.2-2.8 3.8-2.7 2.4 0 2.5-1.5c.1-1.5.7-1.8 1.5-2.1 2.3-.9 1.8-7.2-1.1-14.5A116 116 0 0 1 923 965c-1.7-9.9-6.6-24.5-12.4-37-1.4-3-2.6-6.3-2.6-7.2q-.2-1.8-3.4-3.2c-4.5-1.9-5.6-4.2-5.6-11.4 0-7-3.3-15.3-14.2-35.2a68 68 0 0 0-10.9-16.4c-4.4-3.7-4.7-5.1-1.9-8.1 2-2.2 2-2.2.1-4.7a14 14 0 0 1-2.3-7.9c-.2-4.5-.6-5.5-2.3-5.7-2.4-.4-9.3-8.9-12.8-15.8a25 25 0 0 0-4.1-6.3c-2-1.7-3-6.9-1.7-8.5.7-.9.5-2.6-.9-6.2-3.7-9.8-5.5-11.9-15.3-17.3-5-2.8-10.9-5.6-13.1-6.2a69 69 0 0 1-22.7-17.3 43 43 0 0 0-7-7.6c-2.2-1.7-3.9-3.9-3.9-4.8s-1.4-4.6-3.1-8.2l-3.1-6.5L781 711c1.4-14.1.8-43.2-1.3-62.5l-1.3-12 3.2-12.2c1.8-6.7 3.7-12.9 4.2-13.9 1.5-2.8-1.8-8.3-7.5-12.5a42 42 0 0 1-10.4-13c-7.3-12.4-9.3-18.2-7.5-21.8.8-1.4 3.2-8.2 5.4-15.1 4.9-15.3 8.2-21.5 12.2-22.9l3-1-1.9-4.3-4.3-9.8-2.5-5.5 2.7-8.2a71 71 0 0 1 4.3-10.7c1-1.4 1.7-4.5 1.7-7.1 0-4.2.2-4.5 2.3-4 3.7 1 5.7-1.6 8.2-10.4l2.5-8.5-2.5-5.4c-1.4-3-2.5-6.8-2.5-8.4s-.7-4.3-1.6-6c-1.9-3.6-1.2-8.5 1.6-12.1s2.6-9.3-.5-15.2c-2.4-4.4-2.6-5.7-2.4-15.4.2-5.9 0-11.1-.3-11.7-.4-.5-1.1-4.5-1.7-8.8-1-7.3-1.8-9-8.5-20a608 608 0 0 1-18.9-35.1c-6.3-12.7-14.2-28.1-17.6-34.4-3.3-6.2-6.8-13.7-7.7-16.5-2.6-7.8-6.6-12.9-16.7-21-5.1-4-10.5-8.8-12.2-10.5a75 75 0 0 0-14.5-9.2c-9.8-5.1-13.8-8-26.5-19.2a227 227 0 0 1-21-21 46 46 0 0 0-10.5-10.4 96 96 0 0 1-11.6-8.9c-6.4-5.7-7.4-7.1-9.7-13.6-1.4-4-3.1-10-3.7-13.3a43 43 0 0 0-8.9-20.5 33 33 0 0 0-24.9-15.6 68 68 0 0 1-20.9-5.6 8 8 0 0 1-1.8-3.9c-.4-1.6-1-2.9-1.5-2.9-1.3 0-9 8.4-9 9.8 0 .7.7 4.2 1.6 7.7l1.6 6.4-4.9 6c-2.6 3.3-7 7.6-9.6 9.7s-4.7 4.1-4.7 4.7-2.7 4.5-6 8.8c-6.8 8.7-7.4 11.8-3.5 15.9l2.4 2.6-1.9 3.2c-1.2 1.9-2.8 3.2-4 3.2-3.3 0-16.7 13.6-17.5 17.6q-1.3 7.5-7.5-2.1c-2.9-4.6-4-5.5-6.4-5.5-1.6 0-4.4.9-6.3 2.1l-3.3 2.1.2-2.9q.2-2.9-3.4-8.3c-2-3-4.4-7.4-5.3-9.8q-1.7-4.2-3.5-4.2c-1.8 0-2.3-1.2-3-3.3-.6-1.7-2.6-4.9-4.4-7-3.2-3.6-3.5-3.7-4.8-1.9-.7 1-4.7 4.1-8.8 6.7-7 4.5-7.9 4.8-15.7 5.3l-8.3.5-2.5 4.3q-4 6.6-14 7.6c-2.1.2-3.7 1.4-5.9 4.5-2.8 4-2.9 4.4-1.7 8.4 1.6 5.4.2 8.9-4.8 11.7a82 82 0 0 0-9.3 6.7q-9.8 8-9.8 1.7c0-4.1-5.2-14.3-9.1-17.7a35 35 0 0 0-7.5-4.8q-8.4-3.8-5-9.2 1.7-2.6 1.1-5.4c-.3-1.6-.1-4.8.5-7.3 1-3.7 1.7-4.7 4.4-5.6 1.8-.7 4.4-1.2 5.8-1.2q2.5 0 3.6-2.3l3.2-4.8c2.1-2.5 2.1-2.6.4-8.7l-1.7-6.2 2.6-5.3c1.5-2.9 2.7-5.8 2.7-6.4 0-1.8-3.4-3.3-7.3-3.3-4.8 0-6.6-2.3-4.5-5.8a12 12 0 0 1 3.9-3.9c3.2-1.7 5-5.5 4.3-9.3-1-4.8-3.5-5.9-11.9-5.3-6.6.5-7.5.4-11.1-2.1l-3.9-2.7-3.3 3.6c-2.9 3.2-3.7 3.5-6.5 2.9-1.8-.3-3.8-1.1-4.5-1.7q-1.3-1-3.9.2-5.2 2.5-3.2-4.3c1.4-4.9.6-7.7-3.3-12.1-2.9-3.4-3-3.9-2.5-9.5q1.2-11.1-3.7-11-4.6 0-4.6-7.4c0-7.4-1.8-4.7-9.2.9-6.6 5-9.6 5.5-13.8 2.5-5.1-3.7-12-6-17.6-6-5.2 0-5.5-.1-6-2.9-.7-3.2-2.5-4.1-9.1-4.1a18 18 0 0 1-13.3-5.3c-2-1.8-5.1-4-6.9-5-2.5-1.3-3.1-2.1-2.5-3.5q3.2-6.9-1.9-15.7c-3.6-6.3-5.5-7.5-9.2-5.5-1.9 1-3.2.9-7.1-.4-5.7-1.9-5.4-1.9-5.9-.4m-70.8 42.3c-.8.7-1.8 3-2.1 5-.7 3.4-.8 3.5-5.4 3.5a48 48 0 0 1-10.2-1.4c-3-.7-7.4-1.6-9.7-1.9l-4.3-.5v4.9c0 4.7.2 4.9 4 6.9 2.1 1.1 4.8 2 6 2q2-.1 2.2 2.7l.5 8.3 1.1 18 .3 2.5 1.9-2.4a10 10 0 0 0 2-6.6c0-3.8.4-4.5 4-6.9 2.2-1.4 4.7-3.7 5.6-5.1q3.3-4.8 8.5.1c2.5 2.4 3.1 2.6 8.8 1.9 3.4-.4 6.1-.9 6.1-1.1l-2-4.4a14 14 0 0 1-.9-12.4c.6-1.3.9-3.6.5-5-.5-2.1-1.3-2.5-4.9-2.8-3.9-.3-4.2-.5-4.5-3.6-.3-2.8-.7-3.2-3.2-3.2a7 7 0 0 0-4.3 1.5"/><path d="M123.8 79.2q-5.7 3.4-5.8 13.7c0 2.6.4 3.1 2.5 3.1 2 0 3-1.1 5.5-6 2.7-5.4 4.1-13 2.3-13-.5 0-2.5 1-4.5 2.2"/></svg>