<svg xmlns="http://www.w3.org/2000/svg" width="1365.333" height="1365.333" viewBox="0 0 1024 1024"><path d="M47.6 196.7a9 9 0 0 0 0 4.7q.6 2.6-.5 2.6c-.6 0-.1 1.5 1.1 3.2 3.5 5.1 10.1 11.8 11.6 11.8.7 0 2.7.7 4.3 1.6q6 3 2.1-2.5a35 35 0 0 1-3.5-6.4c-.9-1.9-2.6-4.1-3.9-4.7-2.5-1.3-7.8-6.7-7.8-7.9 0-.4-.6-1.6-1.4-2.6-1.3-1.8-1.4-1.8-2 .2M0 200c0 2.5.6 3.3 3.3 4.5 2.5 1 3.2 1.9 3.2 4 0 3.3 3.1 5.8 4.4 3.7q.8-1.6 1.4 1.5c.3 1.5.1 3.2-.4 3.7-1.5 1.6-1.1 5.6.6 5.6q1.4-.2 1.5-2c.1-1.8.6-2 1.3-2 2.5 0 7.4 3.9 8.7 6.9s1.1 3.4-2 6.6c-3.3 3.4-3.3 3.5-1.5 5.5 1 1.1 2.4 2 3.2 2s1.3 1.2 1.3 3v3.1l-5.7-.3c-6-.2-10.3 1.3-10.3 3.6 0 .7 1.8 3.4 4 5.9s3.8 5.1 3.4 6c-.7 1.9 1.8 2.8 5.6 2s4.3-1.5 4.4-6.2q0-3.7 1.8-3.9c2.3-.4 3.4 4.1 1.9 7.4-.9 2-.8 2.6.4 3 2.4 1 1.7 2.9-1.5 4.1-3.7 1.4-3.9 2.9-.2 3.5 1.5.3 3.5.9 4.5 1.3 1.5.6 1.7.1 1.7-3.9V264h4.9c4.6 0 5 .2 8.5 4.7 2 2.5 3.6 5.6 3.6 6.9s1.1 3.1 2.7 4.2l2.6 1.9-2.9 3.7c-3.4 4.2-5.7 4.5-11.4 1.6-4.8-2.5-4.9-2.5-4.3 0 .3 1.1 1.9 3.1 3.5 4.3 8 6.1 9.7 8 11.2 12.4.9 2.6 1.6 5.8 1.6 7.3q-.1 2.6 4.6 7c2.5 2.5 5.4 6 6.6 7.8 2.3 3.7 8.7 8.2 11.8 8.2q1.9.1 2 1.7.1 2.3 1 3.3c.8 1.2 1.1 1.2 2.7-.2 2.1-1.8 4.3-1.3 4.3 1.1 0 .9 1.3 3.2 3 5.1s2.9 4.4 3 5.5c0 1.1 1.8 4.2 4 7s4.8 6.3 5.8 7.9c3.1 5.2 5.7 7.5 9.6 8.8 4.9 1.6 6.4 3.8 5 7.5-.9 2.6-1.4 2.8-6.2 2.8-2.9 0-5.2.3-5.2.6 0 1.4 3.9 3.9 6.2 3.9s5.8 2.7 5.8 4.6a28 28 0 0 0 5 5.9c2.9 2.8 5 5.8 5 7 0 1.8 1.2 2.4 7.7 4.1 7.6 1.9 7.6 1.9 8.7 5.9 1 3.6 1.5 4 4.6 4.3 1.9.2 4.1.8 4.8 1.4q1.2 1.2 2.6-.7c1.2-1.7 1.4-1.7 2.9.5q1.6 2.4.7 3.5c-1.2 1.4-.2 2.3 5.1 4.7 4 1.8 4.9 1.5 4.9-1.4 0-2.7 2.4-1.7 2.8 1.1.3 2 .8 2.2 3.5 1.8 4-.5 10.3 3.9 8.5 6-.6.7-1.7 1.3-2.4 1.3q-1.4 0-1.4 3.1c0 3.1.1 3.2 4 2.6 3-.4 4-.2 4 .8 0 2.1 1.9 2.8 3.7 1.3q2-1.7 1.1.2c-.2.8-1.9 1.6-3.6 1.8-4 .4-4.3 3.2-.7 5.6 1.4.9 2.5 2.3 2.5 3.1s.6 1.5 1.4 1.5 2.3 1.4 3.3 3.1c1.8 3 2.3 3.1 7.2 1.8q1.5-.2 1.9 1.6 1 4.5 4.7 4.5c1.8 0 2.6-.9 3.7-4.2q1.3-4.1 3.1-4.6c2.2-.4 2.3 3 .2 4.8-1.2 1-1.3 1.6-.4 2.6.6.8 1.8 1.4 2.5 1.4q1.4-.1.8 3-.9 4.8 2.3 1.9c1.5-1.5 4.3-.4 4.3 1.7a6 6 0 0 0 1.7 3.6q1.4 1.7.5 1.8-1.2 0-1.2 7.1c0 6.8.2 7.3 3.5 10.6a18 18 0 0 1 3.5 4.2c0 .3 2.4 2.7 5.4 5.3s6.4 6.8 7.6 9.3c1.9 4 2.6 4.5 5.5 4.5 4.2 0 6.4 2.4 4.7 5.1-1.4 2.1-1.6 5.9-.4 5.9.4 0 .8 1.6.8 3.5 0 4.9 1.3 5.9 5.2 4 4-2.1 4.6-3 3.2-5.5s-.3-8.3 1.3-7.7c.7.2 1.2 1.5 1.3 2.8.2 4.4.4 4.9 1.9 4.9.9 0 2-1.1 2.5-2.5q1.5-4.5 3.7-.7c.9 1.5.7 2.1-.8 3-1 .7-1.9 1.9-1.9 2.7q-.2 2.9 3.4 0a8 8 0 0 1 2.8-1.5c.9 0 5.8 5.2 5.8 6.2 0 .4-1.7 1.6-3.7 2.6l-3.7 1.9 2.8 1.8c1.4 1 2.8 1.6 3 1.4l1.3-2.2c.9-1.7 1-1.7 3.3.1l2.4 2 4.2-3.4c4.1-3.4 4.2-3.4 4.8-1.2.3 1.3.6 3.3.6 4.5q.1 2.1 1 2.3t1 1.4c0 .7 1.1 2.5 2.5 4s2.5 3.3 2.5 4.1c0 2.6 5.4 10.5 7.2 10.5a22 22 0 0 1 10.1 4.7c.4.7 1.9 1.3 3.3 1.3q2.6 0 3.1 2c.6 2.3 3.3 2.6 5.2.7 1.8-1.8 4.2 1.7 3.5 5.3s1.9 8.6 5.4 10.4c1.5.8 6.1 2.4 10.2 3.6s8.6 2.8 10 3.5c3 1.5 10.2 3.5 15.1 4.2q3.5.5 4.8-1.1c.8-.9 2.4-1.6 3.7-1.6 2.1 0 2.3.2 1.3 1.9-.7 1-.9 2.6-.6 3.5.7 1.8 4.2 2.2 5.2.6.8-1.2 2.5-1.3 2.5-.1q-.2.9-2 1.4c-3.4.9-2.2 3.4 4.6 9.4a30 30 0 0 0 20.6 8.9c5.1.6 6.7 1.3 11.1 5q7.9 7 7.7 2.6c0-3 1.6-4.5 3.9-3.7 2.1.6 3 4.5 1.1 4.5-1.7 0-1.1 2.4.8 3.7 2.5 1.5 8.7.9 8.8-.8.1-2.2 3.8-7.9 4.9-7.6.6.2 1.1 1.8 1.3 3.6.3 2.6 1.2 3.8 4.8 6.1 3.9 2.4 4.3 3 2.8 3.8-1.6.9-1.5 1.3.7 5.2 3 5.4 4.9 6.2 4.9 2.2 0-3.5 2.7-6.4 4-4.2.5.7.3 2.1-.3 3.2-1 1.6-.8 2.2.8 3.3 1.1.8 3.1 2.4 4.4 3.7l2.3 2.3-.6-3.3c-.3-1.8-.1-3.2.4-3.2q1 .2 1 2.2a8 8 0 0 0 1.5 4.2c2.3 3 1.8 3.6-2.5 3.6-3.3 0-4 .3-4 2 0 3.3 3.5 4.4 8.1 2.6 5.2-2.1 7-2 13.2.5 6.3 2.6 12 8.5 10.6 11-.8 1.5-.2 1.8 4.6 2.4q5.5.7 6 2.4c.7 2.2 6.1 8.1 7.4 8.1.6 0 1.1-1.8 1.1-3.9q.2-6.8 3-3.6 1.3 1.4 2.8 1.5c1.2 0 1.4-.9.9-4.3-.6-4-.4-4.6 2.3-6.5q5-3.9 5-.7c0 .8.9 2.3 2 3.2s2 2.5 2 3.4c0 2.4 4.4 4.9 8.6 4.9q7.4-.2 7.4 9.7c0 6.3.7 8.3 2.9 8.3 1 0 2.8 1.4 4.1 3.2l2.3 3.1-4.4-.7-7.9-1.2-3.5-.6 2.1 2.2c1.2 1.2 3.9 2.4 6.2 2.7 3.8.5 4 .7 3.9 3.9-.1 2.8-.5 3.4-2.2 3.4-1.2 0-3-.7-4.1-1.5s-2.7-1.5-3.8-1.5q-2-.2-1.2 2.2c.3 1.3.6 3.5.6 5 0 3.7 3.4 4.7 6.4 1.9s5-2.6 6.7 1c1.1 2.3 2.7 3.5 6.4 4.8 4.1 1.4 5.2 2.3 6 4.9.8 2.3 2.4 3.8 5.9 5.6 5.2 2.6 13.6 4.3 13.6 2.7 0-1 6.1-4.4 6.7-3.7.3.2-.1 1.4-.8 2.7-1 2-.9 2.5 1 4 1.1.9 2.1 2.2 2.1 2.8 0 1.5 2.7 1.4 3.3-.2q.5-1.2 1.2.6c.4 1 .1 2.7-.9 4.2-2.2 3.3-2 4.5.7 4.5 1.7 0 2.5-.8 3.2-3.2q1-3.3 3.2-3.6 2-.4 3.2-3.3c1.2-3.6 4.3-3.8 10.2-.9 2.9 1.5 4.1 2.9 4.6 5 .3 1.7 1.2 3 1.9 3q1.3.1 1.4 1.9c0 1.6-1.1 1.9-7 2.5-3.9.4-7 1.1-7 1.6 0 1.8 3.3 4 6.1 4 1.6 0 2.9.4 2.9.9 0 1.3-3.9 2.1-7.2 1.4-2.8-.5-4.7.6-4.8 2.9 0 .9 5.8 2.8 8.6 2.8 1.9 0 2.3.6 2.6 3.7.3 3.4.6 3.8 3.4 4.1s3.2 0 3.9-3q.7-2.9 1.2-2.1c1.1 2.8 2.3 1 2.3-3.2 0-2.6.9-6.3 2-8.4 1.6-3.3 2.5-3.9 5.7-4.4q3.8-.4 5.5 1c1.2 1.1 2.8 1.3 5.9.8 4.1-.7 4.2-.7 3.5 1.6-1.8 5.6-1.9 7.2-.7 6.4q1.4-.5 4.6 2.5c3 2.9 3.8 3.2 7 2.6q3.6-.7 4.4-2.8c.7-2 .8-2 3.8.9 1.7 1.7 4.9 3.9 7.2 4.9 2.4 1.2 4.1 2.6 4.1 3.6s.6 1.8 1.4 1.8 2.8 1.1 4.5 2.5c2.3 2 3.9 2.5 6.7 2.3q3.6-.2 4.1.9.3 1.2-1.1 1.3c-2.4 0-4.1 4.2-2.7 6.7 1.6 3.1 17.1 4.7 17.1 1.8 0-2 3.4-1.9 6.6.1 1.3.9 2.8 1.4 3.1 1 1.2-1.1-2.4-6.1-4.6-6.4-2.5-.4-2.8-3.4-.6-5.2.8-.7 1.5-1.8 1.5-2.4s.5-2.8 1.1-4.9q1-3.8 2.9-3.7c1.7 0 1.8.3.9 2.4-.9 1.8-.7 3.1 1 6.5 2.4 4.6 4.4 4.7 3.1.2-.6-2.3-.5-3.1.7-3.5 1.8-.7 3.3.1 3.3 1.8 0 .7 1.1 2.7 2.5 4.6q2.6 3.4 1.5 4.4c-.5.5-1 1.4-1 1.8 0 1.2 4.5.9 5.8-.4q1.3-1.4 1.2.3c0 .8-.9 2-2 2.7-2.6 1.6-1.7 3.2 1.8 3.2 3.2 0 13.2-9.3 11.3-10.4-.6-.4-1.1-1.5-1.1-2.4q0-1.8 1.2-.4c1.9 1.9 4.9 1.5 4.6-.6-.2-1.4.3-1.6 2.9-1.4 2.8.3 3.3 0 3.8-2.5.4-1.5 1.7-6.1 3-10.1 1.9-6.1 2.1-7.4.9-7.9-2.2-.8-1.6-3.1.8-3.5 4-.6 3-3.2-2.4-6.3q-5.2-3-5.9-5.7c-.4-1.5-2.1-3.9-3.8-5.4a24 24 0 0 1-4.8-5.5c-1.5-2.4-2.2-2.9-4.4-2.4-3.6.8-4.5-.9-1.4-2.3 2.2-1 2.5-1.8 2.5-6.7 0-5.3-.2-5.7-6-12.1-6.4-7.1-15.7-13.4-19.6-13.4-1.3 0-4.7-.9-7.6-2s-7.4-2-10-2c-4.8 0-4.8 0-4.8-3.4 0-3-.4-3.5-3.2-4.1q-5-1-13.7-.3-3.3.3-3.8-1-.4-1.1 2.1-1.2c2.5-.1 2.6-.6 2.6-1.5q0-1.5 3-1.5 7 0-3.1-6.9-9.2-6.3-7.4-1c.9 2.8-2.6 2.5-6.2-.5a16 16 0 0 0-4.8-2.8q-2-.3-1.7-2.4c.2-1.6-1.1-2.7-6.7-5.4-5.8-2.8-7.2-4-9-7.7q-2-4.3-8-8.6c-3.3-2.3-5.8-4.7-5.6-5.3s-1.6-3-4-5.4q-4.3-4.2-3.8-6.1.7-1.9-3.8-5.9a25 25 0 0 0-5.5-4c-.6 0-2.9-1.6-5-3.6l-3.9-3.7 4.7.6c2.6.4 4.9.3 5.2-.1s-.5-2.1-1.7-3.6c-2.2-2.7-2.3-2.7-5.4-1.1-1.8.9-3.3 2.3-3.3 3.1 0 2.2-5.7 1.7-9.3-.8-4-2.7-8.7-7-8.7-7.8 0-.4 1.1-.5 2.5-.2 2 .3 2.5 0 2.5-1.7q-.1-2-1.7-2.2c-1.6-.2-4.2-.2-7-.4-4.1-.1-6.4-1-10.7-3.8a41 41 0 0 0-8-4.3 8 8 0 0 1-4.3-3.4 18 18 0 0 0-5.7-5.1c-6.3-3.5-14-9.4-17.1-13.1q-3.6-4.4-11-5.1-2-.4-2 2.3c0 2.1-.5 2.6-3.3 2.8-3 .3-3.3.1-2.7-1.7.3-1.1.1-3.8-.5-6.1-.9-3.3-1.5-4-3.5-4q-4.2-.2-1-3c2.3-1.9 1.8-3.3-1-2.6q-2.6.7-2.5-.8c0-.8-1.6-2-3.5-2.7s-3.5-1.9-3.5-2.5q-.2-1.2-2-1.9c-1.8-.7-2-1.3-2-2.1s-.6-1.4-1.3-1.4-2.4-1.1-3.7-2.5q-4.8-5.3-3.7 1.2c1.1 7.6 2.3 10.8 4.5 11.8s3 2.5 1 2.5q-.9 0 .5 1.8c1 1 1.7 3.3 1.7 5 0 3-.2 3.2-3.6 3.2q-3.3 0-2.9-1c.3-.6 1.3-1 2.1-1s1.4-.3 1.4-.8c0-1.1-7.7-5.2-9.8-5.2-1.1 0-2.5-.7-3.2-1.5-1.3-1.6-.7-2 3.5-2.7 2.7-.4 3.2-4.8.8-7.1l-5-4.3c-1.8-1.4-3.3-3.5-3.3-4.7 0-2.7-4.6-10.4-7-11.7-1.8-1-1.9-.8-1.5 2l1 6c.7 4.3-2.1 3.9-3.9-.5-1.8-4.2-4.8-4.7-6.4-.9-1.1 2.2-.9 3 1.4 6l2.6 3.4h-2.6q-2.7.1-3.6-2.6-1-2.2-2-1.9c-1.7 1-1.2-7.1.5-8.5q3.8-3-2.7-3c-3.8 0-4.6-.4-6.5-3.5a15 15 0 0 1-2.3-4.3c0-.4-1.5-2.2-3.3-4q-5.4-5.2-12.2-2c-2.4 1.1-2.9.9-4.4-1.1-1.3-1.7-3.1-2.5-6.6-2.8-3-.4-6.7-1.8-9.9-3.8-6.3-4.1-7.6-5.3-9.8-9.4-1-1.7-3.2-3.9-4.9-4.9-4.9-2.7-8.9-6.2-8.9-7.9 0-1.4.2-1.4 1.8 0 1 1 2.2 1.7 2.7 1.7s1.6.6 2.4 1.4c2.6 2.2 8 3 8.7 1.3.9-2.5-2.3-7.4-5.3-8.2a15 15 0 0 1-5.9-3.7c-2.7-2.5-3.5-2.8-5.3-1.9-2.1 1.2-2.5.9-2.2-2.1.3-2.2-8.3-3.7-11.2-1.8q-3.5 1.8-3.7-3.1c0-2.1-2.4-4-9.2-7.3q-9.9-4.7-12.7-14.6a26 26 0 0 0-2.3-5.8q-1.2-1.3 1.1-1.2c1.9 0 2.1-.4 1.6-3.4-.5-2.4-.1-4.5 1.4-7.4 4.2-8.3 3.2-9.1-11.9-10.1l-9.6-.6-5.5-6.5c-3-3.6-7.3-7.5-9.6-8.6-2.3-1.2-3.8-2.5-3.4-3 .5-.5.5-3.6.1-6.9-.5-4.4-.3-6.3.7-7.3 1.8-1.8 1.8-2-2.1-6.2q-3.3-3.8-4.4-2.8-1 1-6-1.6c-5.7-2.9-7.8-3.2-8.6-1.4q-.4 1.4-1.6-.5c-.9-1.3-2.5-1.7-7.4-1.7-4 0-7.9-.7-10.7-1.9-2.4-1.1-7-2.4-10.1-3.1-4.5-.9-7.9-2.7-16-8.4a51 51 0 0 0-11.5-6.9c-.6.2-1.4 1.6-1.8 3l-.6 2.6-2-2.1a8 8 0 0 1-1.9-4.1c0-3.6-10.5-10.1-16.5-10.1-3 0-3.5-.3-3.5-2.3 0-2.4-10.4-17-12.5-17.5-.7-.2-1.8-1.6-2.5-3.2s-2.1-3.2-3.1-3.5a6 6 0 0 1-3-2.7c-2.5-4.7-8.2-9.8-10.9-9.8-3.8 0-8.7-1.9-9.4-3.6-.3-.8-1.4-1.4-2.4-1.4s-4-2.3-6.7-5q-5-5.1-7.5-5c-1.4 0-3.5-.7-4.6-1.5s-2.7-1.5-3.6-1.5c-2.2 0-2.9-1.3-4.2-7.1-.8-3.5-1.9-5.4-4.3-7.1l-9.5-7.1a112 112 0 0 0-37.8-16.2c-4.1-.6-5.3-1.2-6-3-1.1-3-4-4.6-6.8-3.8a10 10 0 0 1-5.2-.7c-3.5-1.4-7-.6-5.2 1.2.7.7 1.2 3 1.2 5.2 0 2.5.9 5.3 2.4 7.5 1.3 2 2.6 5.1 3 6.9l.6 3.3-2.5-1.8c-1.3-1-2.5-2.1-2.5-2.6s-.9-1.6-2-2.7c-2.1-2.1-9-2.9-9-1 0 2.3-2.2.7-3.8-2.8-1.4-3.1-2.1-3.7-4.4-3.4-3.1.4-13.4-4.6-16.4-7.9a14 14 0 0 1-2.8-5.1c-1.2-5.4-9.8-12.5-17-14.4-2.2-.5-3.4-2-5.7-7.1-2-4.6-3.3-6.3-4.3-6q-1.5.7-2.1-2.3c-.6-2.8-2.7-4.1-8.7-5.4-1.5-.4-4.3-2.2-6.2-4.1-4.3-4.3-5.6-4.4-5.6-.5m675.6 53.5q-1.4 1.5-8 1.5c-5.9 0-6.6.2-6.6 1.9 0 2.3 2.8 3.4 6.4 2.5q2.6-.6 2.6.7c.1.8 1.8 2.6 3.9 4 5.6 3.9 6 7.6 1.7 15.9-3.7 7.1-5 12.1-6.6 25-1.6 12.1-4.2 17.2-12.8 24.9-5.2 4.5-7.2 7-7.2 8.7q-.2 2.6 2.3 2.4c3.2-.1 9.8-1.7 16-4 4.8-1.8 5.6-2.5 6.1-5.3.3-1.8 2.9-6.5 5.6-10.6 5.6-8.3 6.8-13.8 2.8-12.7l-4.5 1.2c-3.6 1-4.4-2-3.1-13.2 1-8.8 1.5-10.2 4-12.7a9 9 0 0 0 2.8-5.7c0-2.5.5-3 3.5-3.6 2.1-.4 4.8-.1 6.5.6 2.4 1 3.3 1 4.5 0 2.5-2.1 1.7-4.1-3.6-8.9a37 37 0 0 1-7.5-9.4q-4-7.7-8.8-3.2m167.7 18.1c-2.6 1.1-3.5 2.3-4.6 6.1s-2.1 5.2-5 6.8c-3.1 1.7-4 1.8-5.4.7a24 24 0 0 0-17.5-4.9c-5.9.5-7.3 1-11.2 4.3-4.3 3.6-6.2 6.8-8.6 15.1-2.3 7.5-1.9 7.7 13.6 6.9l13.5-.8 2 2.6c1.7 2.2 2.9 2.6 6.9 2.6 3.5 0 5 .4 5.4 1.6s1.4 1.5 3.4 1.1c1.5-.3 3.8.1 5.3 1 2.3 1.4 2.7 2.4 3.1 7.7.3 3.4.1 6.3-.4 6.5-2.2.8-4.8 4.7-4.8 7.1q0 2.6-4 6.5a24 24 0 0 0-5 6.9c-.6 1.7-2.5 4.1-4.3 5.3l-6.3 4.8a38 38 0 0 1-16.5 5.5c-1.2 0-3.4-.9-5-2.1-2.2-1.5-4.1-1.9-8.1-1.7-5.3.3-5.3.3-5.6 3.8-.4 4.3 1.7 6.5 9.8 10.7 6.2 3.3 8.8 7 6.9 10.1-1 1.6-.7 2.5 1.4 5.6a29 29 0 0 0 4.6 5.3c1.2.8 3.2 3.6 4.6 6.3s5.5 7.9 9.2 11.7 8 8.4 9.4 10.3l2.5 3.4 11 .3c6 .2 12.5.8 14.4 1.3s6.8 1 10.8 1h7.2v4.9c0 6.5 2.8 9.5 9.6 10.5 5.8.7 8.4 2.9 10.9 9.4 1.9 4.6 8.7 11.2 11.7 11.2 1.1 0 3.3-.7 5-1.6s4.2-1.4 5.5-1.1c2.6.5 10-3.1 12.3-5.9.9-1 1.1-4 .7-10.7-.9-13.2 0-16.1 7.2-22.7 9-8.3 9.8-11 4.1-14.4-1.7-.9-3-2.1-3-2.7 0-.5-1.8-.9-4-.9-5.6 0-11.3-2.6-13.3-5.9-1.2-2.1-1.7-5.2-1.7-11 0-13.4-4-18.8-14.8-19.8a22 22 0 0 1-14.3-5.9 13 13 0 0 0-7.7-3.1c-7.5-.8-8.3-2.3-4.3-8 3.3-4.6 3.3-4.7 2.6-12.7-.4-4.5-.6-14.2-.5-21.5l.2-13.5 4.4-4.9c6.2-7 6-12.7-.5-12.7s-8-.9-9.3-5.3q-2.4-7.8-16.9-11.1c-8.2-1.9-12.3-1.9-16.6 0M637 343.1c-1.3.6-4.7.9-7.4.7-4.9-.3-7.5 1.3-3.9 2.5l3.5 1.9c2.1 1.5 9-.6 12.8-3.9l2.5-2.2H642c-1.4 0-3.6.5-5 1M981.5 516c-.9 2.9-10 9-13.5 9-1.8 0-3.3.6-3.6 1.5q-1.3 3.1-9.9-.5c-2.6-1.1-6.9-2-9.6-2-4.8 0-4.9 0-4.9 3.1 0 2 1.5 5.4 4.1 9.3l4.1 6.1-.6 7.8c-.6 9.1 1.1 14 6.1 16.9 4.2 2.4 6.4 5.3 5.7 7.2q-.6 1.5-2 1.6c-1.3 0-5.3 5.6-6.7 9.4-.7 1.7-.4 1.8 4 1.2a62 62 0 0 1 20.5.5c1.1.6 1.8 2.1 1.8 3.7s1.2 4.2 2.8 6.2c2.5 3 3.6 3.4 9.3 4.1 3.5.4 7.1 1 8 1.4q1.8.5 3.5-1.3a33 33 0 0 1 15.2-6.2c4.9 0 5.5-1.8 4.8-12.8-.3-5.5-.2-12.3.4-15.7 2.1-11.6 3-23.8 1.8-25.2-1.6-2-4.6-1.6-8.1 1.1-2.6 2-4.9 2.5-12.7 3.1-9.3.7-9.7.6-12.7-1.9a42 42 0 0 1-6.7-9.5c-3.5-6.7-3.6-7.2-2.2-10 .8-1.5 2.2-3.1 3.1-3.4q1.4-.8 1.5-3.1c0-3-2.7-4.2-3.5-1.6"/><path d="m530.9 700.2-.3 3.9c-.3 3.6-.2 3.7 2.6 2.7s3.3-2.2 2.2-5.2c-.5-1.3-4.1-2.3-4.5-1.4m-7.7 1.7q-1.6.9.3 1.5c.9.3 2.4.6 3.2.6q1.9.2.3-1.5c-1.4-1.7-2-1.8-3.8-.6m17.5 6.3c.8 5.9 1 6 5.8 2.7q4.7-3.2 3.6-4.2c-1.1-1-1.5-.6-2.4.2-1.2.9-1.6.8-2.1-.4-.3-.8-1.6-1.5-2.9-1.5-2.1 0-2.3.4-2 3.2m4.9 10.6c-1.5 1.7-1.6 2.4-.5 4.4 1.3 2.3 1.3 2.3 2.1-1q1.8-6.9-1.6-3.4m193.5 91.1q-1.8 1.8-3.3 1-1.5-.7-3.4.5c-1.8 1.4-1.8 1.5-.1 3.3 2.3 2.6 2.2 5.3-.3 5.3-2.3 0-2.5.9-.8 4.5.6 1.4 1.9 2.5 2.9 2.5s2.1.4 2.4 1c1.1 1.8 5.6 1.1 7.6-1.3 2.8-3.3 2.3-4-2.1-3.4-3.7.5-4 .3-4-1.9s.4-2.4 4.8-2.4c4.5 0 4.8-.1 5.8-3.6 1.1-3.4 1-3.7-2-5.5-3.9-2.4-5.1-2.4-7.5 0"/></svg>