<svg xmlns="http://www.w3.org/2000/svg" width="1365.333" height="1365.333" viewBox="0 0 1024 1024"><path d="M119.7 41.3c-2.8 1.7-3.5 1.8-5.7.6s-3.3-1.3-8.1.1c-3.1.8-6.3 2.1-7.2 2.8q-1.6 1.3-4.6.7a8 8 0 0 0-6 1.1c-2.4 1.4-3.5 1.5-5.3.7a97 97 0 0 0-17.5-4.5c-5-1-6.7-.9-8.6.1l-2.5 1.3 7 6.7c3.9 3.6 7.7 6.7 8.4 6.9 1.8.4 1.8 1.2-.1 3.9-1.4 2-1.3 2.5 1 5.9 1.4 2.1 2.3 4.5 2 5.3-.4.9-1.1 4.1-1.7 7.1s-2.5 7.5-4.1 9.9c-3 4.4-5.7 12.5-5.7 17.2 0 2-1.7 4.3-6.5 8.8q-10.4 9.8-4.5 11.4 4.5 1 1.7 14.2a69 69 0 0 0-1 18c.5 9.1.3 10.8-2.1 17.7a53 53 0 0 0-2.6 10.1c0 4.6-3.2 18.1-4.9 20.5-.9 1.2-3.3 3.2-5.4 4.3-3.6 1.9-4 1.9-5.6.5-2.6-2.4-7.8-2-11.5.9a12 12 0 0 1-7.1 2.5c-3 0-4.5.7-7.6 3.9-4.8 4.8-5.4 9.1-1.3 9.1q2.6-.1 4.6-2.5 4.1-5.4 7.1 1.2c3.4 7.5 3.6 7.6 12 6.2 6.8-1.1 7.6-1.1 10 .7 2 1.4 2.6 2.8 2.7 5.6 0 2 .5 4 1.2 4.4 2.2 1.4 11.3.3 16.8-2.1 3-1.3 6.6-2.7 8-3 2.2-.6 2.1-.4-.7 1.5q-3.3 2.2-3.3 4.6c0 3.3 1.5 3 6.6-1.1 2.3-1.9 5.2-3.5 6.3-3.5q2.1-.1 3.3-2.5c1.1-2.4 5.3-4.5 9.1-4.5 1.5 0 1.8.5 1.3 2.5-.7 2.8-.4 2.9 4.1 1.6 5.7-1.6 6.1-.4 7.8 26.6 1.8 26.8 2 25.5-4.6 34.8-3.5 4.8-7.2 14-8.9 21.5-1 4.6-1.8 6-4.6 7.8-4.3 2.8-4.5 6.1-.6 8.3 2.1 1.2 3.2 3 4.2 6.4 1.2 4.4 1.1 5.7-1.3 15.9-1.5 6.1-2.7 12.3-2.7 13.7 0 1.5-1.2 3.6-2.9 5.3l-3 2.9 2.1 1.7c2.2 1.7 2.2 1.7-1.8 3q-8.3 2.8-8.4 5.9 0 4 3.6 1.6c2.1-1.4 2.4-1.3 3.4.6q1.2 2 2.8 1.4l2.9-1.2q1-.6 1.8 7.3c.6 6.3 1.1 7.7 2.6 8.1 2.8.8 2.4 4-1.4 12.4-1.9 4.1-4 9.2-4.7 11.4-1.5 5-3.4 6.5-8 6.5-3.9 0-11.4 4.4-10.7 6.3.2.7 2.2 2.5 4.4 4.2 2.2 1.6 5.4 5.1 7.1 7.7 2.6 3.9 2.9 4.7 1.5 5.2s-1.4.8 0 2.4c.8.9 1.9 3.5 2.3 5.7s2.8 7.6 5.5 12c4.3 7.2 4.9 8.8 5.5 15.9.4 4.4 1.5 9.8 2.5 12 1 2.3 1.9 6.3 1.9 8.9 0 4.3-.6 5.8-5 12q-5 7-5 10.1c0 6.1-2 10.1-8.3 16.8-4.4 4.8-7 6.8-8.7 6.8-2.2 0-2.8.9-5.2 7.5-2.3 6.5-2.5 8-1.5 11.7q1.6 6.8 9 16.2a19 19 0 0 1 3.9 9.4 38 38 0 0 0 3.8 10.7c1.8 3.1 3.4 8 4.1 12.3 1 5.9 1.5 7.2 3 7.2 3.5 0 1.9 2.4-6.7 10.6-7.5 7-8.5 8.4-8.2 11 .3 2.8.5 2.9 6.8 3.4 5.6.4 6.6.8 7.9 3.1 1.6 2.9.8 7.9-1.2 7.9-.8 0-3.7.7-6.5 1.5-4.7 1.4-5.2 1.8-5.2 4.5 0 2.5.4 3 2.4 3 1.4 0 3.7.5 5.1 1q2.6 1 4.7-.1c2.7-1.4 3.5-.4 1.5 1.9-2.1 2.3-2.1 4.1-.2 6.9 1.4 2 1.4 2.6-.4 6.1l-2 3.9 2.4 3.9c1.4 2.2 2.5 5.5 2.5 7.6 0 4.3 1.5 4.8 6.4 2.3l3.2-1.5c.2 0 .4 2.2.4 4.8 0 2.7.5 7.4 1.1 10.5l1.2 5.7 4.1-.6c2.2-.4 4.5-1 5-1.5 1-.9 2.9 3.4 4.6 10.1.5 1.9 2 6.2 3.3 9.6l2.4 6-2.4 6.7a27 27 0 0 1-7.9 11.7c-5.5 5.2-6.5 7.8-3.9 10s1.7 3.6-6.2 9.1c-4.3 2.9-10 7.3-12.6 9.8-4 3.8-4.7 4.9-4.2 7s0 3.2-3.6 6.2l-4.3 3.6 3.7 1.2c4 1.4 4.2 1.7 2.7 5.5a8 8 0 0 0-.4 4.1c.7 1.7 4 2 4.9.5.3-.6 1.6-1 2.8-1 1.3 0 3.3-.7 4.5-1.6 2.1-1.5 2.4-1.4 5.1 1.5 3.7 4 6.7 4.1 7.6.2.7-3.3 2.6-4.1 9.7-4.1 7.6 0 14.7-1.9 15.9-4.2 1-1.9 1.8-2 10.5-1.5 8 .5 10.2 1 16.1 4a67 67 0 0 0 28.9 8.7c2.8 0 7.7.5 10.8 1.2l5.8 1.1 3.4 7.1c1.9 3.9 4.2 8 5.2 9.2 2.5 3.1 13 7 15.1 5.7.9-.6 5-1.6 9-2.3 7.2-1.2 7.4-1.2 9.8 1.3 2 1.9 2.3 2.9 1.5 4.3-1.4 2.6.5 7.4 2.9 7.4 3.3 0 9.4 3.7 10.7 6.4.9 2 .8 3.3-.4 6.3-1.5 3.4-1.5 3.8.3 4.9 3.8 2.6 6.3 5.9 6.3 8.3 0 1.3.9 3.8 2 5.6 1.8 2.8 1.9 4.5 1.5 13.6-.5 12.9.5 16.5 5.6 20.1 2.1 1.5 3.9 3.4 3.9 4.2 0 2-2.7 3.9-4.6 3.2-2-.8-4.3 1-5.5 4.3-.8 1.9-.3 3.4 2.3 7.7s3.6 5.3 5.3 4.8c1.1-.4 2.2-1.1 2.3-1.5.9-2.3 2.2.7 2.2 5.2 0 5.1 2.3 8.9 5.5 8.9q1.4.1 1.5 2.1 0 6.2 5.3 5.2c1.7-.3 3.6-1.2 4-2 .4-.7 1.7-1.3 2.7-1.3 2.4 0 2.8-4.1.5-6-1.7-1.4-2-6.2-.4-9.1.8-1.6 1.7-1.9 3.8-1.4 2.2.5 3.6-.2 7.4-3.6q7.7-6.6 7.7-.5 0 3.5 4.6 3.6c.8 0 1.4-1 1.4-2.1 0-2 .4-2.1 5.3-1.5l10.4.8c5.1.2 5.3.1 8.7-4.3 4.9-6.5 7.5-7.9 14.6-7.9q11.3 0 9-4c-.9-1.6-.6-2.2 1.7-3.4l2.8-1.4-4.7-2.3c-2.7-1.3-4.9-3.1-5.2-4.3-.8-2.8-.7-12.2.1-17 .6-3.7.7-3.8 4.2-3.2 2 .3 4.1 1.3 4.8 2.3 4 5.9 3.3 5.7 9.8 3.4a35 35 0 0 1 9.5-2.1c1.9 0 7.1-.9 11.5-2 6.6-1.7 8.4-2.6 10.7-5.5 1.6-1.8 3.7-3.7 4.8-4 1.7-.6 2-1.5 2-7.6 0-8 .5-8.3 8.7-5 7.2 2.8 9.5 2.9 12.9.2l2.9-2.3.5 4.9a25 25 0 0 0 1.3 6.1c1.3 1.9 2.7.4 2.7-2.8 0-1.6.4-3.2 1-3.5s1 .1 1 .9q-.2 3.2 4.3-.4c3.4-2.7 6.2-2.7 4.7-.1-1.4 2.8-1.5 2.8 3.8 5.3 4.2 2 6.4 2.3 21 2.5q16.3.2 17.8 1.4c1.9 1.6 1.8 4.6-.3 5.7-2.6 1.5-.8 3.9 3.4 4.5l18.3 1.8a94 94 0 0 1 26 4.9c8.3 1.5 21 7.5 27.9 13.1l7.1 5.7c2.1 1.6 7 .6 7-1.4 0-1.8 3.8-3.7 5.8-2.9.9.3 5.1 2.6 9.3 5.2 6.9 4.1 7.8 5.1 9.8 9.8 2.1 5.1 2.2 5.5.6 7.9-1.5 2.3-2.4 2.6-7.5 2.6-5.7 0-6 .1-9.4 4.4-4.3 5.2-4.5 6.4-.8 7.1l7.2 1.8c2.5.6 8.6 1.3 13.7 1.4q9.1.2 12.2 1.7a13 13 0 0 0 4.1 1.6c1.8 0 14-12.6 14-14.4q.2-1.5 2.8-2.2c1.5-.4 3.7-1.5 4.9-2.6 1.1-1.1 3.9-2.2 6.2-2.5 3.7-.5 4.1-.9 4.1-3.3 0-3.2 2.5-9.7 4.7-12.2 1.2-1.4 1.4-2.5.6-5.6-1-3.8 0-8.2 1.9-8.2.4 0 .8-1.9.8-4.2 0-3.1 1-5.9 4.1-11.1 2.2-3.7 4.9-7.1 5.8-7.5 2.8-1.1 9.1-7 9.1-8.5 0-1.1 1.7-1.3 7.9-.9l7.8.4 8-5.6 8.1-5.6h10.1c12.3 0 21.6 2.3 34.9 8.6 8.3 3.9 10 4.4 16.5 4.4 5.5 0 7.9-.5 10.2-2 1.7-1.1 4.2-2 5.6-2 1.5 0 3.2-.7 3.9-1.5q2.6-3.2 6.8.7l2.4 2.3 2.3-2.9c2.7-3.4 7.2-4.4 24.4-5.3q16.9-.8 18.6 4.8c.7 2.2 2.3 2.5 3.1.5q.6-1.3 2.5-.9c2.7.7 2.6-3.3-.2-4.7-1.9-1.1-1.9-1.3-.5-2.9.9-1 1.6-2.5 1.6-3.4 0-2.2 3.7-4.6 8.2-5.3 2-.4 4.7-1.7 5.9-3s3.1-2.4 4.1-2.4c2.4 0 7.8 7.6 7.8 11.2 0 3.1.3 3.3 3.1 1.7a72 72 0 0 0 10.9-15.3c0-.2-1.6-1.3-3.5-2.5-3.9-2.3-4.4-4-1.7-6.4q1.8-1.6 3.2-.7c2.4 1.5 3 1.2 3-1.5q-.1-2.5 3.1-4c3.5-1.8 3.6-4.8.2-5.3-3.3-.5-5-3.2-6.2-9.6s-2.6-8-7.9-9.5c-1.9-.6-5.6-3-8.2-5.5-2.7-2.5-5.6-4.6-6.5-4.6-2.3 0-12.4-9.8-14.6-14.2q-2-4-4.3-3.8c-1.3 0-3.4-.9-4.7-1.9-2.2-1.7-2.4-2.6-2.3-9.8.2-10.8 2.4-18 7.9-26.3 8.7-13.1 18.2-18 35.1-18 11.9 0 18.6 1.8 29.2 7.7l6.4 3.5 12.4-.7c8.6-.5 12.8-.4 13.7.4 1 .8 2 .4 4.2-1.9 1.6-1.7 3.5-3 4.3-3 4.2 0 9.8-2.9 15.1-7.7a25 25 0 0 1 7.8-5.3c1.1 0 3.4-1.6 5.3-3.5 1.9-2 4.4-3.5 5.6-3.5 3.2 0 3.8-1.6 1.3-3.8-2.4-2.3-7-3.5-8.3-2.1q-1 .8-1.8.9c-1.1 0-3-7.8-2.3-9.9.8-2.5 7.2-3.5 10.2-1.6s3.3 1.9 3.3-.3c0-1 1.1-2.5 2.5-3.2 2.2-1.2 2.4-1.8 1.9-4.9-.8-4.8-3-6.4-7.7-5.8-2.9.4-3.9.1-4.7-1.3-1.7-3.3-1.2-9.5 1-11.5 2.1-1.9 2.6-6.4 1.1-9.4-1.5-2.7.2-4.6 2.6-3 1.1.7 2.7 1 3.6.6 1.4-.5 1.4-1.2-.1-6.8-1.5-6.2-1.5-6.3 1.1-11.3 2.3-4.6 5.3-20.3 4.1-21.5-.2-.2-1.7-.4-3.4-.4-3.4 0-4.1-2.2-1-3a2.5 2.5 0 0 0-.2-4.9c-2.1-.3-2.3-.9-2.6-7.4-.2-5.9 0-7.3 1.7-8.8 1.5-1.4 2.4-1.5 4-.7q1.9 1 2.5 1.1c1.2 0 .5-2.8-.9-4-2.4-2-1.8-4.9 1.2-6.1q6.4-2.3 6.3-7.1c0-2.4-.6-3.2-3-4.1q-3-1.1-3-3.4a3 3 0 0 0-2-2.8c-1.6-.5-2-1.5-2-4.8 0-2.3-.7-5.4-1.4-6.9-.8-1.5-1.1-3-.7-3.3s1.1-1.6 1.3-2.9c.4-2-.1-2.7-2.3-3.6-3.3-1.4-4.2-3.7-3.4-8.4.5-2.6.3-3.6-1-4.3-1.8-1-1.7-4.4.1-14.6.5-3.2.4-3.7-1.3-3.7-1.1 0-2.7-.8-3.6-1.8-1.5-1.6-1.6-3.3-.8-13.7l.9-11.9 5-4.6c2.7-2.5 7.9-6.3 11.6-8.5l6.8-4-.4-8.3c-.2-7-.6-8.6-2.3-9.8-1.8-1.4-2-1.3-2.3.5s-1 2.1-7.8 2.1c-5.7 0-7.6-.4-8-1.5q-.7-1.4-2-1.5c-1.7 0-1.8-1.6-.3-5.9.6-1.7.8-4.3.5-5.7-.6-2.4-1-2.5-6.4-2.2l-5.7.3-.3 4.2c-.3 4.3-1.2 5-4.6 3.7q-1.5-.8-1.6-3.5 0-2.8-2-3.9c-1.6-.9-1.8-1.4-.8-2.9 1.6-2.7.3-5.5-2-4.2a92 92 0 0 1-10.5 3.1c-7.9 2-8.8 2-11.6.6-1.7-.9-4.2-3.6-5.7-6.1-1.9-3.4-3.2-4.5-5-4.5-1.3 0-6.4-2-11.2-4.3-4.8-2.4-12.2-5.6-16.4-7.2a34 34 0 0 1-17.8-14.1 21 21 0 0 0-13.7-6.4c-2.8 0-4.2-.6-5.1-2q-1.2-2.2-3-1.2a39 39 0 0 1-18.8-.3c-2.9-1.2-3.9-1.2-6.9.1-5.7 2.3-11.6 1.8-19.8-2-4-1.8-9.6-3.6-12.3-4s-5.7-1.5-6.8-2.4c-1.1-1-3.7-1.7-6.5-1.8-5.1-.2-7.6-.6-17.1-3.4-14.9-4.3-25.6-5.3-29.5-2.7a44 44 0 0 1-18.3 4.4c-6.5.5-10.1.1-20.3-2.2-6.8-1.5-14-3.6-16.1-4.6a61 61 0 0 1-18-16.4l-4.7-6.3-8.9-2.1a86 86 0 0 0-10.8-2.1 9 9 0 0 1-4-1.3l-6.5-3.6c-7.3-4-12.9-9.2-15.6-14.5a83 83 0 0 0-12.7-18.5 17 17 0 0 1-3.7-6.5q-1.1-4-4.8-7.3c-2.1-1.7-5.2-6-7.1-9.5a96 96 0 0 0-6.2-10.3 20 20 0 0 1-3.5-9.3c-.5-4.7-.3-5.5 1.6-6.8q2-1.6 2.1-4.5c0-2.4-.4-2.9-2.5-2.9-2.9 0-2.5-1.8 1.2-6.3 1.3-1.6 2.3-3.4 2.3-4 0-1.9-5.9-4.8-8.4-4.1-1.7.4-4.3-.7-9.4-4a39 39 0 0 1-7.5-5.8c-.2-.7.2-2.6 1-4.1s1.1-3.7.8-4.7c-.5-1.7-1.5-1.9-9-1.7-11.6.3-12.6-1-5.9-7.1 3.7-3.5 4.9-5.3 4.6-7-.5-3-2.6-2.8-10 1l-6.3 3.3.3 6.2.3 6.1-3.5.5c-4.6.6-6.7-.5-4.6-2.2s2-6 0-6.8c-.9-.3-2.9.1-4.4 1.1-4 2.3-5.1 2.1-9.3-2.2l-3.8-3.9 4.1-2.8c4.4-3.1 4.5-3.2 2.6-5.8-1.2-1.6-1.8-1.6-6.1-.5-4.4 1.2-4.9 1.1-5.9-.7-.6-1-2.1-2.8-3.2-3.9-1.8-1.6-1.9-2.2-.9-3.1 1.1-.8 1.1-1.9-.3-6.2s-2.3-5.5-5.6-7c-2.9-1.3-4.4-2.9-6.4-7q-4.1-8.3-4.2-3.3 0 1.8-.5 2c-1.8 0-5.8-3.8-7-6.6-1.6-3.8-4-4.5-5-1.4-.8 2.5-7.4 6-11.2 6-1.5 0-3.9-.9-5.3-2s-3.1-2-3.7-2q-1.3 0-.6-3c.5-2.5.2-3-1.4-3-1.1 0-3.7 1.2-5.8 2.6-3.7 2.5-3.8 2.5-5.9.5-2.6-2.4-7.1-3.7-8.1-2.1q-.7 1-4.1-2c-4.1-3.5-4.5-3.6-6.9-1-1.8 2-1.8 1.9-6.1-2-4.5-4.1-6.2-4.6-12.6-3.1-3.6.8-3.8.7-7.3-3.7a60 60 0 0 0-20.6-14.7c-3.5-.8-12.4-11-16.9-19.4-4.2-7.9-7.7-9.6-13.6-6.8-4.4 2.1-4.4 2.1-4.4-.3 0-2.5-2.9-3.8-4.1-1.9-.9 1.3-.6 5.8.7 10.4q.7 2-2.5 3.8c-3.9 2.3-22.8 2.4-29.1.2a79 79 0 0 0-21.7-1.5c-15.7 0-17.8-.2-21.5-2.1-4.4-2.2-7.7-5.5-7.8-7.7 0-1.8-3.4-1.5-6.1.6a23 23 0 0 1-11.8 4.2c-1.4 0-4.6.8-7.1 1.6a53 53 0 0 1-27.5 0c-2.2-1-7.6-2-12-2.3l-8-.6-3.6-4.6a44 44 0 0 0-7.9-7.6c-4.1-2.9-4.6-3-16.4-3-11.5-.1-12.4-.2-18.1-3.1l-6-3.1-.3-5.8c-.2-3.4.5-9.5 1.7-14.7 2.9-12.2 2.8-12.4-2.4-15.6q-4.4-2.7-4.5-4.8c0-1.2-1.2-3.7-2.7-5.6-1.6-2-4.1-6-5.8-9.1-3.4-6.5-6.5-7.6-11.8-4.4"/></svg>