<svg xmlns="http://www.w3.org/2000/svg" width="1365.333" height="1365.333" viewBox="0 0 1024 1024"><path d="M244.2 97.5c-5.1 1-7.1 2-10.3 5.1l-4 3.9-14.8.3c-12.4.3-14.9.1-16-1.2-1.8-2.2-2.5-2.1-21.2 2l-16.4 3.6-9 8.9c-7.9 7.8-9.5 8.9-12.5 8.9-6.1 0-6.3.5-5.5 12.7.7 10 .5 11.9-2 21.8a53 53 0 0 1-21.5 32.8c-2.5 1.7-7.5 5.7-11.2 9l-6.8 5.9v10c0 5.9-.7 12.5-1.6 16.1a23 23 0 0 0 1.1 16.7c1.2 2.2 1.1 2.7-.7 4.7-2.9 3.1-3.3 8.8-1 15.4l1.9 5.5-6.6 6.7a35 35 0 0 0-8.4 11.4c-3.2 9.1-3.1 9.5 8.1 24.4 8.4 11.1 10.2 14.2 10.2 17.1 0 1.9.7 5.8 1.6 8.8.8 2.9 1.3 6.2 1 7.4s-.3 3.8.1 5.9c.4 2.8 1.3 4.2 3.4 5.3 2.8 1.4 2.9 1.6 2.9 9.6 0 10.2-2.4 18.8-5.4 18.8-1 0-2.8-.8-3.8-1.7-3.6-3.2-7.3-.4-12.4 9.5-1.1 2.1 1.4 9 3.5 9.7 4.8 1.5 5 5.2.6 9.9-2 2.2-2.5 3.8-2.5 8 0 4.6-.4 5.6-3.2 8.3a13 13 0 0 1-8.3 3.8c-2.8.4-6.7 1.9-8.9 3.3-3.7 2.5-3.8 2.8-3.4 7.4.5 5.2-.1 6.2-4.5 7.3q-2.9.7-2.2 2.3.4 1.6-4.4 6.7c-5.8 6.1-7 9.4-4.7 12.7 2.9 4.2 1.5 10.9-3.3 15.2q-2.1 1.9-2.1 5.7c0 6-1.9 7.2-10.9 6.5-4.2-.4-9.6-.3-12.1.1l-4.5.8-1.2 8c-1.5 9.8-3.6 40.8-3.8 57-.1 7.5-1.1 16.7-2.5 24.6l-2.3 12.6 2.1 4.5c1.8 3.6 2.2 6.2 2.2 13.9 0 9.3.1 9.6 3 12.4 3.9 3.7 4.1 8 .4 8.9l-2.5.7.4 15.2c.2 8.4.7 16.2 1.2 17.4q.9 2.5-.8 2.3c-2.8 0-4.1 3.8-2.8 8.2.7 2.2.9 5.2.6 6.8q-.6 2.8 1 6c1.3 2.5 1.5 4.6.9 9.8-.3 3.7-1.1 7.3-1.8 8.1-1 1.3-6.7 17.3-6.3 17.8.2.1 9.7-.2 21.2-.8 11.6-.5 26.6-.6 33.5-.3 9.5.5 14.4.3 20.5-1 14.2-2.8 39.3-2.2 53.5 1.4 1.9.5 7 1.2 11.2 1.5 4.3.4 8.9 1 10.2 1.3 6.2 1.7 43.3 34.7 46.8 41.6 1.1 2.2 3.8 6.2 5.9 8.7 2.4 2.8 3.9 5.7 3.9 7.3s1.7 4.7 4.5 8.2c2.5 3.1 5.3 7.3 6.1 9.3 2 5.1 9.2 8.6 17.6 8.6 5.1 0 6.2-.3 7.7-2.4l1.8-2.4.6 2.4q.8 2.4-1.9 5c-2.5 2.6-2.6 2.7-7.7 1.3L230 833a78 78 0 0 0 7.1 34c6.9 17.6 14.2 32.3 17.9 35.6 3 2.8 22.7 18.6 24.3 19.6l7 3.3a20 20 0 0 0 13 2.1l23.2-1.5c21.8-1.2 35.7-3 37.6-4.7.9-.8 3.7-1.4 7-1.4 5 0 5.7-.3 7.7-3 1.9-2.6 2.9-3 6.7-3 4.3 0 4.5.1 3.9 2.5-.5 2-.2 2.5 1.9 3a9 9 0 0 0 5.6-.9c2.4-1.3 3.1-2.3 3.1-4.6 0-3.6.4-3.6 5.5-.5 2.2 1.4 5.2 2.5 6.6 2.5 4.1 0 12.2-3 14.4-5.4 1.8-1.9 3.2-2.1 16.8-2.4 12.7-.3 15.6-.6 21.2-2.8l6.6-2.4 3.9 2c5.2 2.6 8 2.5 12.1-.5 1.9-1.3 4.4-3 5.7-3.6q2-1.2 2.2-2.8c0-1.8-6.1-12.2-9.6-16.4-1.3-1.6-2.4-3.5-2.4-4.3 0-2.3 7.4 1.9 8.8 5 .6 1.4 1.6 2.6 2.2 2.6s2.2 1.2 3.5 2.6c2.2 2.3 2.7 2.5 4.2 1.3 1.5-1.3 1.6-1.1.9 1.4-.6 2.7.6 5.7 2.4 5.7 1.5 0 7-6.4 7-8.1q.1-4.8 3.1-4.9 1.7-.1 2-1.3l.3-3.8c.1-1.5 1.4-4.3 3-6.3 1.5-2 4-6.5 5.6-9.9s3.7-7 4.8-8.1c2.5-2.2 4.3-10 3.5-14.9-.4-2.7 0-4.2 1.6-6.3 1.1-1.5 2.1-4.1 2.1-5.9s.9-5.4 2.1-7.9c2.2-5.1 2.1-5.5-3-10.4l-2.3-2.3 2.2-2.4c1.8-1.9 2.2-3.2 1.7-5.9q-1.3-7.3 6.6-7.8c3.9-.3 4.4-.7 6.7-4.9a53 53 0 0 1 16.5-19c2.9-1.8 7-5.4 9-8.1 3-3.8 4.3-4.8 6.3-4.6 2.1.3 2.6-.3 3.6-3.7s1.8-4.2 5.4-5.5c3-1.2 4.7-2.6 6-5 1.4-2.9 2.5-3.6 6.5-4.5q7.5-1.6 7.7-7.9c0-1.1 1-5.1 2.2-8.8l2.2-6.9 3.9.7c3.9.6 4.1.5 12.6-7.8 13.3-12.9 14-13.5 15.2-11.8.5.8 1.3 3.1 1.9 5 1.5 5.6 4.9 7 17.2 7h10.4l2.2-5.3c1.2-2.9 2.2-6.1 2.2-7.1 0-3.4 2.3-9.6 3.5-9.6.7 0 1.5 1.3 1.8 3 .7 3.4 8.5 8.9 12.5 9 1.3 0 3.7.9 5.3 2.1 2.4 1.7 2.9 2.8 2.9 6.2.1 3 .8 5 2.5 6.9 2.1 2.4 3.2 2.8 7.9 2.8 5.3 0 5.5.1 6.6 3.5.7 2.1.9 5.6.5 8.7-.5 4.1-.2 6.3 1.3 9.8 3.3 7.6 4.8 8.4 14.5 7.7 12-.8 13.2-1.5 15.4-8.3.9-3.1 2.4-5.8 3.3-6.1 5.7-1.8 7-2.7 8.4-6.4 1.9-4.7 2-9.8.4-13.3-1.5-3.4-.1-4.9 11.4-12.8 4.7-3.2 9.2-6.6 9.8-7.4s2.3-1.4 3.6-1.4q2.4 0 2.4-1.7c0-2.4-8-14.3-9.6-14.3-1.7 0-1.9-2-.1-2 .6 0 2.3-1.8 3.5-3.9s6.2-7.7 10.9-12.5l8.4-8.8-1.2-4.8c-1.6-6.1-.8-8 8.3-22 6.3-9.5 6.8-10.8 6.3-14.2-.5-2.8 0-4.9 1.8-8.9 2-4.1 2.3-5.7 1.6-7.7-.5-1.4-.7-4.5-.3-6.9.4-2.6.2-4.8-.5-5.7-.8-1-.6-1.7.8-3 1.5-1.3 2.4-1.5 4.6-.6 1.5.6 2.9.9 2.9.8l3.5-4.6c2.8-3.7 3.2-4.7 2.6-8.1s-.4-3.9 1.7-4.5c1.3-.3 4.6-.6 7.3-.6 6.9-.1 14.4-4.2 16.8-9.3q1.9-3.6 4.4-4.3c3.8-1 5.6-6.3 6.3-19.4.6-8.6 1.3-12.7 2.9-16.3 1.2-2.6 2.5-6.9 2.8-9.6.5-4.6.4-4.9-1.8-5.3l-2.4-.3 2.5-2c1.4-1.1 4.4-4 6.7-6.3 3.5-3.7 5.3-4.6 10.9-5.9 4.2-1 7.7-2.5 9.5-4.2 2.6-2.3 3.1-3.6 4-11.5a58 58 0 0 1 1.5-9.7c.3-.5-.4-2.1-1.5-3.5a8 8 0 0 1-1.1-9.4q1-2 .1-4.3c-.8-2-.5-2.9 1.2-4.5q4.7-4.1 9-4.2c2.7 0 6.7-3.8 6.7-6.4 0-1 .6-4.8 1.4-8.5l3.6-17.6c1.2-6.1 3-12.4 4-14l5.9-9.6c2.2-3.7 5.9-8.9 8.1-11.7 3.3-4.3 4-5.9 4-9.6 0-4 .3-4.5 2.9-5.4 2.3-.8 3-1.8 3.6-4.9 1.1-6.8 11.9-16.3 15.9-14.1 5 2.8 7.2 2.7 14.2-.9 3.8-1.9 8.9-5.4 11.4-7.7a22 22 0 0 1 7.1-4.9c1.4-.4 5-1.8 8.1-3.1 4.9-2.2 5.8-3 7.3-6.9a29 29 0 0 0 1.8-7.7c.2-2.7-.3-3.5-3-4.9-4.2-2.1-4.8-3.9-2.3-6.6 2.7-2.9 4.1-10.6 4.5-25.3.3-11.7.2-12.3-1.9-13.3-1.1-.6-3.4-2.4-5.1-3.9a59 59 0 0 0-9.9-6.4c-6.4-3.5-7.4-3.7-12.5-3.1-4.9.5-5.9.4-8-1.6-2-1.9-2.2-2.8-1.7-6.8l.6-4.6-3.7-1.2c-3.2-1-4.3-.9-7.3.7-3.6 1.8-3.8 1.8-6.7 0a10 10 0 0 1-3.8-3.9c-.3-1.1-2.4-3.4-4.6-5.1l-3.9-3.2V192c0-6.3-.3-8.1-1.7-8.8-1.4-.9-1.4-1.1.5-2.1 2.7-1.4 3.2-8.1.6-8.1q-1.3-.1-.9-1c.4-.6.1-1.8-.6-2.6q-1.3-1.5-.1-2.6c1.4-1.4 1.6-5.8.4-5.8-.5 0-1.7.9-2.7 2q-3.9 4.2-7.2-.8-4.7-7.4-9.9-9.2c-2.5-.8-4.1-2.5-6.5-6.6a17 17 0 0 0-6.9-7.4c-4.6-2.3-5.1-3.1-6.1-8.5-.4-2.2-1.3-6.1-2-8.7a14 14 0 0 1-.2-8.3c1-3.1.9-3.5-.7-3.5-1.1 0-3.6 2.7-6.7 7.2-5.3 7.9-8.3 9.6-14.1 7.7-2.7-.9-4.5-.6-11 1.5-7.1 2.5-8.1 3.2-13.7 9.6-3.3 3.9-6.5 7-7.2 7s-1.7.9-2.4 2.1q-1 2.2-2.1 1.1-2-2.1-7.1 2.7c-2.1 2-2.6 3.1-2.2 5.2q.6 2.7-1 3.3c-.9.3-2.3 2.2-3.1 4.2l-1.5 3.7-6.7-.7a116 116 0 0 1-10.7-1.7 31 31 0 0 0-9.3-.5c-5.3.6-5.6.5-17-6.2a93 93 0 0 0-32.3-13.2c-11.2-2.9-12.4-3-34.5-3.1a317 317 0 0 1-25.9-.8 70 70 0 0 0-24 3.9c-3.8 1.1-12.8 2.7-19.9 3.5-7.1.9-13.4 1.8-14 2.1a100 100 0 0 0-21.6 15.6q0 1.8-2.3 1.8c-1.8 0-4.7 2.9-12.3 12.5l-9.8 12.4-4.6-.5-10.5-1.5q-6-1-8.6 0t-17-.4a110 110 0 0 1-27.4-5.3c-11.2-3.5-13.3-4.5-15.5-7.3-6.5-8.4-8.5-9.9-13.8-9.9-4.3 0-5.6-.5-9.4-3.7a156 156 0 0 0-25.8-16.6c-1.4-.4-6.9-1.2-12.2-1.7l-9.8-.9-17.4 10.4c-18.5 11.2-21 12-28.5 9.4-3-1.1-3.4-.9-8.6 4l-5.4 5.1h-16.9l-4-4.5a68 68 0 0 1-11.1-19.7 22 22 0 0 0-4.8-7.6c-1-.6-5.4-5.1-9.8-10.1-8.3-9.5-13-13.3-19.6-15.6-3.5-1.3-4.4-1.2-7.3.2-3.3 1.5-3.4 1.5-29.3-8.6a352 352 0 0 0-27.9-10c-1 .1-4.7.7-8.2 1.4"/></svg>