<svg xmlns="http://www.w3.org/2000/svg" width="1365.333" height="1365.333" viewBox="0 0 1024 1024"><path d="M969.1 9.4c-3 3.1-12 7.8-13.4 6.9-.7-.4-3-2.2-5.3-4S946 9 945.6 9s-.6 2.8-.6 6.2v6.3l-6.6 5.9a28 28 0 0 1-11.1 7c-3.8 1-4.8 1.7-5.7 4.2l-1.1 3.1-5-1.7c-4.8-1.6-5.2-1.6-10.8.3l-5.8 1.9.6 3.9c.5 3.1.4 3.9-.8 3.9a76 76 0 0 0-23.2 8.5 31 31 0 0 1-7.2 5.1l-5.3 2.9-5.8-3.2-5.9-3.2-1.6 5.2c-2.7 8.5-3.6 9.3-9 7.8-2.4-.7-5.4-1-6.6-.6q-2.1.6-4.7-1.4c-1.9-1.5-4.1-2.1-7.8-2.1-4.8 0-5.3-.3-7.5-3.7l-2.4-3.7-1.9 2.4q-2.8 3.6-.4 10.1 1.1 2.3-10.8 6.5l-3.8 1.4-7.2-6.5-7.3-6.4-2.1 3.8a18 18 0 0 0-2.2 7c0 1.8-1 5-2.2 7.1l-2.3 4H756v-4.4c0-2.5-.5-4.8-1.1-5.2-.6-.3-4.4 2.6-8.8 6.8-10 9.8-18 16-20 15.4l-5.4-1.2a8 8 0 0 1-6-4q-2.2-3.3-5.2-3.9l-13.9-3.2c-8.6-2-11.4-2.3-12.8-1.4a7 7 0 0 1-4.6.4c-2.9-.7-11.2-8.4-11.2-10.4 0-.7-2.6-6.5-5.7-13l-5.8-11.8-4-.1a75 75 0 0 0-14.2 3.2l-10.2 3.3-1.8 5c-1.6 4.4-2.2 5-5.9 6a35 35 0 0 0-15.8 13.3c-.9 1.8-2.8 3.8-4.2 4.4-1.9.9-2.4 1.8-2.2 3.7.2 2.1 1 2.7 4.1 3.2 4.9.8 5.1 1.2 3.3 4.8-.9 1.6-1.6 4.8-1.6 7 0 3.6-.4 4.4-3.7 6.5-5.9 3.9-8.5 4.1-13 1.3-2.7-1.7-4.8-2.3-7.1-1.9-1.7.2-3.2.7-3.2 1.1 0 .3.7 3.9 1.7 7.9l1.7 7.4-3.7 3.1c-4.3 3.7-12 18.2-11.1 20.9.3 1 2.3 2.3 4.5 2.9 3.3 1 4.1 1.8 5.1 5.2l1.2 4-5.7 5.2c-5.8 5.3-8.7 6.5-15.9 6.5a54 54 0 0 0-10.9 1.7c-6 1.4-7.2 2.1-9.3 5.3q-2.4 3.6-5.7 4.6c-2.5.7-3.6 1.8-4.2 3.9-.5 1.7-3.2 7.8-5.9 13.6l-5.1 10.6-8.1 4.1c-4.4 2.2-8.9 4.3-9.8 4.6-1.5.4-3.8 6.1-3.8 9.3 0 .6-2.1 1.5-4.7 1.9-6.4.9-14.2 4.9-17.5 8.9a11 11 0 0 1-6.5 4c-2.2.4-5.3 2-7.3 3.9a13 13 0 0 1-7.4 3.9c-2.2.4-4.3 1.2-4.8 1.9a26 26 0 0 0-.8 7.5c0 5.9.1 6.2 3.5 8.3 3.8 2.3 3.7 3.7-.5 7.5-2.1 1.9-2.2 1.9-3.9-.4s-1.9-2.3-4.9-.7c-4.1 2.1-4.1 2.1-10.6-2.2-4.8-3.1-5.9-4.4-6.9-7.9-1-3.7-1.5-4.4-4.5-4.9-1.8-.4-5.1-.4-7.2-.1-3.6.5-4.1.2-5.8-2.7-1.1-1.8-6-6.1-11-9.6a45 45 0 0 1-10.7-9.7c-1.7-3.1-1.7-3.3.4-5.9 1.1-1.5 2.1-3.7 2.1-4.9 0-2.2-.3-2.3-6.2-1.8-3.5.3-7.4 1.4-8.8 2.3-1.4 1-4.3 2.7-6.5 3.8a14 14 0 0 0-6.4 6.5 17 17 0 0 1-5.5 6.2c-3.9 2.2-5.4 4-12 14a58 58 0 0 1-15.9 17.5c-3 2-3.7 3.1-3.7 5.8 0 2.5-1.2 4.9-4.5 9.1l-4.6 5.8-8.5.6c-7.9.6-9 .4-13.6-1.9q-5.2-2.6-6.1-1.5c-1.8 1.8-3.5 1.3-8.9-2.4-7.1-4.9-8.9-5.2-14.2-2.1-4 2.3-5.8 2.7-16.3 3.1-18.7.7-21.2 1.2-25.5 5.3q-3.8 3.6-3.8 6.3c0 1.5-.7 4.3-1.5 6.2-2.2 5.4-1.9 7.8 2 11.7l3.5 3.6-1.4 7c-1.2 6.5-1.2 7.4.5 10.5 1.3 2.4 1.8 5.6 1.9 10.8 0 6.2.4 8.2 2.7 12 2.5 4.3 2.6 4.8 1.5 10l-1.8 7.8c-.5 1.8-.1 2.5 1.8 3.2 3.1 1.2 3.9 4.6 3.1 12.7-.7 7.7-3 10.4-8.9 10.4-3.4 0-5.1-.7-7.9-3.1-3.1-2.8-3.9-3-7.7-2.4-2.4.4-6.6 1.6-9.5 2.7a24 24 0 0 0-14.2 18.3c-1.4 7.7-1.4 8.5.4 7.9 1.8-.7 1.9.3.4 8-.8 4.3-.7 6.1.2 7.2s.2 2.2-3.9 5.9c-3.9 3.5-5.1 5.3-5.6 8.5-.5 3.4-1 4-3.1 4-1.3 0-5.3 2-8.9 4.5l-6.5 4.6-3.7-1.6c-2.9-1.2-7.9-1.5-23.9-1.5h-20.3l-11.3 4.7c-15.1 6.2-17.9 7.9-17.9 10.9 0 2.1.5 2.4 3.8 2.4 2 .1 4.8.7 6.1 1.4l2.3 1.3-2.3.6q-9.7 2.5-21.3-2.9c-6.6-3.1-7.6-4-7.6-6.3q-.1-4.2-7.5-15.4l-4-6.2c-.7-1.2-2.9-1.8-7.8-2.2-6.5-.6-6.7-.7-7.6-3.7l-.8-3.1-1.2 4.3a19 19 0 0 1-10.8 13.6c-4.9 2.6-6.2 4-8.6 8.8a37 37 0 0 0-3.4 10c-.5 4.2-.3 4.6 3.3 7.5 2.2 1.7 8.6 6 14.2 9.7 5.7 3.7 12.5 8.6 15 11q16 14.6 10.7 1.2c-.7-1.5.1-1.3 3.8 1.3 5.2 3.5 5.7 4.6 2.7 5.6q-1.8.6-2 1.5c0 1.1 19.3 23.2 24.6 28.1 2.2 2 6.6 5.5 9.9 7.9s11.9 10 19 17c7.2 6.9 15.8 14.6 19.3 17 7.2 5 7.5 6.5.6 2.6-5-2.8-5.8-2.8-4.8-.3 1 2.8 36.5 27.1 63 43.3l26.2 15.9 7.1 15.5c3.9 8.5 7.7 17.2 8.4 19.3a43 43 0 0 0 6 9.5q14.6 17.7 14.7 22.2c0 2.2 1.5 4.3 6.8 9.3a85 85 0 0 1 12.6 16.4 62 62 0 0 0 19.6 22.2c13.8 9.1 14.8 10.1 17 17.2l2 6.6 8.8 3.2c6 2.2 11.7 5.3 18.7 10.2l11.7 8.2q1.7 1.3 1.8 2.5c0 2.6 9.2 12.1 13.4 13.7 4 1.6 6 3.4 21.8 18.9 6.7 6.6 8.4 7.7 12.2 8.2 3.9.6 4.8 1.3 8.5 6.2 2.2 3 9.5 11.3 16.1 18.3 10.8 11.4 12 13.1 12 16.4 0 5.2 2.4 10.1 5.7 11.9 3 1.5 18 5.6 20.5 5.6 2.6 0 11-12.1 13.3-19.1 2.1-6.7 4.3-10.2 7.7-12 2-1.1 6.6 1.3 15.4 8.2a74 74 0 0 0 29.9 12.6c5.5 1.4 32.8 11.2 60.6 21.9 27.8 10.8 51.6 19.8 52.8 20.1 1.5.4 4.1-1 9.6-5.1 7.9-6 39.2-25.6 40.8-25.6.5 0 2.2 1.1 3.7 2.3a31 31 0 0 0 19 4.3c3.8-.6 4.4-.3 7.3 2.8 2.5 2.6 4.4 3.6 8 4.1 3.5.6 6.8 2.2 12.3 6.1 4.1 2.9 9.6 6 12.3 6.8l4.9 1.4 3.8-3.9c4.5-4.6 5.4-4.8 5.4-1.4 0 1.4 1.3 5.2 3 8.4 3.3 6.6 5.4 8.2 17.3 13.1 5.8 2.4 8.1 3.9 9.2 6.1 1.9 3.6 1.9 5.3 0 6.9-2.4 2-1.8 3.5 2.3 5.7 4.2 2.4 26.1 8.3 30.7 8.3 5.1 0 10.3-1.9 11-4 .5-1.6 1-1.8 3.3-.9a49 49 0 0 1 14.3 13.6q2 3.1 6.2 4.6c3.7 1.2 4.6 1.2 9-.5a16 16 0 0 1 5.6-1.4c.4.3 2.3-1 4.1-2.9q3.3-3.5 6.1-3.5c2.8 0 3.6-1 5.2-3 2.1-2.4 3.4-3 6.5-3 2.4 0 4.9-.8 6.5-2 1.8-1.5 4-2 8.1-2 3 0 6.7-.5 8.1-1.2 2.5-1.1 2.5-1.2 2.5-13.3 0-6.8-.3-13.7-.6-15.5-.7-3.4-1-3.4-9.7-1.7q-1 0-1.5-2c-.5-2-1.9-3.3-3.8-4.8-6.5-5-11-12.4-17.2-28.5a575 575 0 0 1-9.8-27.5 71 71 0 0 1-4.2-26.6l-.4-14.6 3.6-7.1c3.6-7.1 3.7-7.2 7.7-7.2s4 0 7-6.7c1.7-3.6 3.5-9.4 4-12.7 1.6-10.6 1.6-10.6 5.2-10.6 2.7 0 4-.9 7-4.5 3.3-3.9 4.3-4.5 7.7-4.5 6 0 7.5-2.9 6.6-12.7a54 54 0 0 0-5.2-17.9 51 51 0 0 1-4.4-14c-.1-10-3.8-16.4-9.6-16.4-3.8 0-4.8 2.5-3.8 9 .6 3.9.6 4-2.4 4-4.1 0-9.6-4.8-12.8-11.1-3-6-3-7.7-.2-8.1q2.2-.2 3.1-3.8c1.2-4.7 2.4-6 5.8-6 1.5 0 3-.4 3.3-.8s.1-6.6-.2-13.6l-.7-12.9-3-1.1q-3.1-1.1-2.7-2.8c.3-1.5 1.4-1.8 6.2-1.8 6.5 0 6.5-.1 7.6-7.8.5-3.9.2-5.7-1.6-9.1-2.1-4.1-2.2-4.2-5.9-3.6-3.6.6-3.9.4-4.5-2.1-.9-3.2-.8-3.3 3.5-3.5s9.9 3.2 9.9 6.1c0 1 1.2 2.8 2.6 3.9 2.6 2 2.6 2.2 1.1 5.3-.8 1.8-1.8 5.4-2.2 8-.6 4.2-.4 5 2.3 8.5 1.7 2.1 3.6 6 4.3 8.6s1.4 4.5 1.8 4.2c.3-.4.6-13.1.6-28.3v-27.7l2.9-7.5c1.5-4.1 4.6-9.8 6.7-12.7s3.9-6.4 3.9-7.8c0-2.2-.4-2.5-3.4-2.5-3.5 0-3.5 0-5.8 7.7-1.7 5.7-2.9 7.9-4.2 8.1q-2.1.6-1.1-1.4c.5-1.1.9-3.7.9-5.9l.1-4-4.4.3q-4.4.3-6.1-1.3c-2.4-2.2-3.4-7.9-1.9-10.7 1.4-2.6 1.4-5.4-.1-14.8l-1.1-6.5-4 .3-3.9.4v-6c0-8.6 2.2-11.2 9.8-11.2 5.1 0 6.4-.5 12.5-4.6 3.7-2.5 6.7-5.3 6.7-6q.1-1.3 1.8-2.1c6.5-2.4 9.1-7.3 6.7-13-.7-1.7-1.9-6.6-2.6-10.8-1.1-7.2-1.4-7.8-4.6-9.3-3.7-1.8-4-2.7-1.7-5.3 1.2-1.4 1.3-2.2.4-3.9q-1-2-.8-2.3l3.4-3c3-2.7 3.3-2.8 8-1.6 6.3 1.5 11.4 5.3 11.4 8.4 0 1.3-1.1 3.6-2.4 5.2q-2.5 2.9-1.9 5.5c.3 1.4 0 9.7-.6 18.5-1.4 18.8-2.2 20.3-10.3 20.3H921v11.3c0 10.9.1 11.5 3 16.1 3.1 4.8 3.3 8.6.5 8.6-1.3 0-2.5 3-2.5 6.7 0 2.9 3.6 3.1 8.3.6q3.2-1.7 13.4-2.3c5.6-.3 10.5-.9 10.9-1.3s.8-4.3.8-8.7c0-6.8-.4-8.5-2.2-10.8-1.3-1.5-4-6.2-6.1-10.4-3.6-7.2-4-8.6-4.6-19.3-.6-8.9-.4-13.5.9-20.3.9-4.8 2-14.1 2.5-20.7.5-7.3 1.6-13.8 2.7-16.7 1.6-4 1.7-5.3.6-10A704 704 0 0 1 936 430a117 117 0 0 1-.5-33.8c2.5-24.3 3.3-28.2 7-34.2 3.2-5.4 3.3-5.8 3.8-19.5a87 87 0 0 1 3.1-23.8 70 70 0 0 0 2.6-17.5c0-5.5.8-10.6 2.9-18 1.7-5.7 3.3-12.4 3.7-15 .9-6.5 2.7-9.7 9.8-17.3 8.5-9.1 19.2-23.5 23.5-31.6 2-3.7 6-10.5 8.9-15.1a95 95 0 0 0 7.3-13.6c1.1-3 3.6-7.6 5.6-10.2l3.7-4.8-.3-12.1c-.2-11.2-.5-12.5-3.6-19.5-1.9-4.1-3.7-10-4.1-13-.4-3.2-3-10.8-6.1-18A130 130 0 0 1 992 71.3c0-5.5-.2-6.3-1.9-6.3q-1.9.1-5 5c-1.9 3-3.8 5-4.9 5-1 0-3.5-1.7-5.5-3.8-3.3-3.4-3.7-4.3-3.7-9 0-4.9-.2-5.2-2.5-5.2-3.1 0-3.1-.2.5-7.5 1.6-3.3 3-6.5 3-7 0-1.1 13.8-8.6 15.8-8.5q1.1.1 1.2 3.7c0 2.1.9 5.1 1.9 6.7 1.6 2.3 1.7 3.3.8 4.7a4 4 0 0 1-3.3 1.9c-2.7 0-3.7 2.2-2 4.6.7.9 1.1 2.6.8 3.6-.4 1.7 0 1.9 2.8 1.6 3.6-.3 3.6-.3 12.2-18.8a93 93 0 0 1 11.5-19.2l6.2-7.7-12.2.6-12.3.6-1.2-2.7c-1.1-2.4-1.6-2.6-7.6-2.6-5.5 0-6.7-.3-7.6-2-1.6-2.9-7-2.7-9.9.4"/></svg>