<svg xmlns="http://www.w3.org/2000/svg" width="1365.333" height="1365.333" viewBox="0 0 1024 1024"><path d="M739 2.5a21 21 0 0 1-9.3 2.5c-7 0-20.7 3.8-24.4 6.6-3 2.3-4.5 6.4-2.4 6.4.5 0 1.3.9 1.6 2 .8 2.7 2.3 2.5 5.5-.5 2-1.9 4.5-2.7 12.4-3.9 7-1.1 10.5-2.1 12-3.5 1.2-1.1 3.9-2.8 6.1-3.7 5.4-2.2 9.5-5.2 9.5-7 0-2.2-5.9-1.6-11 1.1m118.1 13.9c-1.2 1.4-3.4 1.6-14 1.4l-12.6-.3-14.5 6.3a78 78 0 0 1-22.5 7.3c-4.4.5-10.5 1.4-13.6 1.9s-7.5 1-9.8 1c-3.1 0-5.8.9-9 2.9-8.4 5.1-10.6 5.5-20.2 3.7a91 91 0 0 0-13.4-1.6h-4.9l2.9 3c2.6 2.7 2.7 3 .9 3-1.1 0-2.9-.7-4-1.5-2.8-2.2-3.4-1.8-3.4 1.9q.1 6.5 8.2 6.6h3.8l-.6 4c-.7 4.4-1.1 4.1 7.7 5.9 5 1.1 6.1 1.8 9.5 6.1a19 19 0 0 0 6.4 5.5c2.2.6 2.3.8.7 1.6-2.1 1.2-7-1.9-8.9-5.7-.9-1.9-3-3.2-7.2-4.6-6.4-2.1-8.6-1.9-8.6.9-.1 1-1.2-.4-2.7-3.1l-2.5-5-1.4 2.5q-1.4 2.7-1.4.6c0-2.1-2.8-2.3-3.7-.1-.3.8.5 2.6 1.8 4.1l2.4 2.6-2.5-.6c-1.4-.4-3-.7-3.7-.7s-1.5-1.7-1.8-3.8l-1.7-8.2c-.8-3.6-.7-5.2.5-8.1 2.5-6 1.7-6.3-14.5-5.6-14.7.7-20.6 1.9-38.8 7.5a400 400 0 0 0-54.1 27 23 23 0 0 1-11 3.7c-7.5.8-10.9 3-16.3 10.3-2 2.8-7.5 7.7-12.8 11.5l-11.5 8.4q-4.6 3.8-6.3 22.4c-1.1 12.1-1.9 14.7-6 19.9-3.7 4.6-4.1 10.7-1 15 3 4.2 1.1 4.5-3.2.3-2.1-2-4-3.4-4.3-3.1-.7.7 5.9 14.2 8.6 17.6 1.4 1.9 1.6 3.5 1.2 9.5-.4 5.4-.2 8.1.9 10.2.9 1.7 1.8 5.1 2.2 7.6.6 4.2.5 4.7-1.4 5.2-2 .5-2.1 1-1.5 6.2l.7 5.6-5.1 4.7c-2.8 2.6-5.1 5.4-5.1 6.2q.1 4 7 9.4c4.9 3.9 9.8 4.7 12 2.1 1.7-2.1 8.6-1.9 11.8.3 7.8 5.4 17.7 6.7 21.4 3 1.3-1.3 3-2.1 4-2s3-.4 4.7-1.2c3.7-2 5.1-2 5.1-.1q0 3.5 10 3.5c5.6 0 6 .1 5.1 1.9-.8 1.3-2.5 2-6.5 2.3-4.7.4-5.8.9-8.3 3.8-1.5 1.8-3.1 4.2-3.5 5.2s-2.5 4.4-4.7 7.6l-3.9 5.8-.7 20-.7 19.9 3.9 5.4c2.1 3 6.3 7.3 9.3 9.7l5.5 4.3 12 .2c11.2.2 12.8 0 23.5-3.3 6.3-2 15.3-4.1 19.9-4.8 8.7-1.3 8.7-1.4 14.4-8.1 1.5-1.7 1.7-1.7 5.6.4 2.3 1.2 4 2.9 4 3.7s-1.7 2.9-3.8 4.7c-3.4 2.9-4.3 3.2-13.6 3.8-9.1.5-18.4 2.3-24.2 4.6-1.8.7-2.3 1.7-2.3 4.3 0 1.9-.6 3.7-1.2 4q-1.5.6 0 1.2c2 .9 5.7 10.1 7.2 17.5 1.3 6.4 1.2 6.9-1.6 15-5.6 16.2-20.4 34.7-30.4 38-1.9.7-5.4 2.9-7.8 5s-5.5 3.9-7 4.1q-2.6.4-4.7 3.4a27 27 0 0 1-5.8 5.9c-4.3 3-6.9 8.1-8.8 16.8-1.1 4.9-1.9 6.4-5.3 9.2-3.5 2.8-6 3.7-17.3 6.1l-13.2 2.7-5.7-4.9c-4.9-4.1-6.6-5-10.8-5.4-4.9-.5-5.2-.7-7.9-5.7-3.4-6.4-6.9-7.8-16.9-7-3.8.3-9.4.2-12.6-.3-5.1-.8-6.2-1.4-10.2-6-3.7-4.1-5.1-5-7.8-5-1.9 0-4.7.8-6.2 1.7-2.4 1.4-3.1 1.4-4.4.3-.9-.7-1.5-2-1.4-2.9q.5-1.7-3.2-1.9c-4.3-.4-9.4-4.1-8.5-6.2.3-.8 2.9-2.6 5.6-3.9a17 17 0 0 0 8-7c1.6-2.6 4-5.3 5.4-5.9s2.5-2 2.5-3c0-2.5 9.3-11.2 12-11.2 2.8 0 2.5-2.6-.7-6.4a56 56 0 0 1-4.4-5.6l-1.7-2.5.5 2.7c.6 3-2 12.4-4.2 15.2-1.2 1.6-1.7 1.7-3 .6-.9-.8-2.6-3.1-3.7-5.3-2.1-4.2-1.5-5.7 2.5-5.7 1.3 0 1.7-.9 1.7-4.1 0-2.5.9-5.5 2.1-7.5l2-3.4-2.6-2.4c-2-1.8-3-4.3-4.2-10.3-.8-4.3-2.1-8.5-2.8-9.3a52 52 0 0 1-5.5-17.2c0-1.6.7-4.3 1.6-6 1.5-2.9 1.8-3 6.4-2.5 2.9.4 5.2.1 5.9-.6 1.5-1.5 8.1 1.7 8.8 4.3.4 1.6 1.4 2 5 2 3.8 0 5.5-.8 11.5-5.2 7-5.2 8.8-7.7 8.8-12.4 0-3.9 4.2-7.4 8.7-7.4 3.2 0 4.2-.5 5.5-2.8 1.5-2.6 1.5-2.8-.8-5.5a11 11 0 0 1-2.4-5.7c0-5.8-1.7-7.7-7.5-8.5-3-.3-5.9-1.3-6.6-2.1s-2.4-1.4-4-1.4c-2.2 0-3.2.7-4.4 3-1.2 2.4-2.2 3-4.8 3-4.6 0-7.2-2.2-8.7-7.4-1.2-4.3-1-14 .6-22.8.9-5.2-3.4-16.7-9.1-24.2-2.5-3.4-5-8.2-5.9-11.6-1.6-5.5-1.8-5.8-5.4-6.4-9.7-1.6-15-.1-18.6 5.4a26 26 0 0 1-7.7 6.9c-4.2 2.4-5.6 2.7-8.2 2-1.8-.4-4.9-1.1-7-1.4-5.6-.9-11.7-6.7-11.7-11.1 0-1.9.5-4.2 1.1-5.2q1.2-1.9.2-4.8-1.5-5.1-11.3-2.4c-5.9 1.6-8 5.4-8 15a215 215 0 0 1-7.4 40.9c-.9 2.4-3.1 6.9-5 10a25 25 0 0 0-3.9 13.6 61 61 0 0 1-2.2 12.7c-1.4 3.9-1.5 6.2-.7 13.5.8 7.9.7 9-1 11.2-1.4 1.9-1.8 4.1-1.8 10.6 0 4.8-.6 10-1.5 12.5a82 82 0 0 0-2.6 10.8c-.5 3.7-2.3 10.9-3.8 16.2a98 98 0 0 0-3.5 15.5 143 143 0 0 1-10.8 37 719 719 0 0 1-36.1 70 193 193 0 0 1-18.2 23.5c-1.5 1.4-5.3 5.6-8.4 9.5a223 223 0 0 1-15.9 16.9 78 78 0 0 0-11.9 13.7q-1.7 3.8-3.4 3.9c-3.1 0-6.9 2.3-6.9 4.1q.2 1.8 9.2 7.4c5.1 3.2 11.1 7.2 13.3 8.9a86 86 0 0 0 18.8 12.1c1.4.4 3.5 1.7 4.7 3l2.1 2.3-5.8-1.3a35 35 0 0 1-9.5-3.4l-3.8-2.3v5.7l-4-4.5a88 88 0 0 1-6.7-8.4c-3.4-4.8-6.9-6.3-9.4-4-1.6 1.5-1.9 1.5-1.9.2 0-1.6-3.7-6.8-4.8-6.8-2.5.1-3.1 1.8-2.3 6.8.7 4.6.6 5.2-1 5.2-3.1 0-5.6-4.9-5.1-10 .2-2.5.9-5 1.4-5.7 1.1-1.4-2.4-5.3-4.8-5.3-7.3 0-9.9 13.2-4.8 24.4 2.3 5 2.4 5.9 1.3 9-1.1 3.2-1 3.7 1.4 6.6q6 6.9 2.2 15.3c-.6 1.4-.2 1.7 2.3 1.7 1.7 0 3.5.6 3.9 1.4.9 1.5 7.3 3.6 11.1 3.6s19.8 10.9 22.1 15c3 5.4 6 7.5 13.6 10 3.9 1.3 10.8 4.2 15.5 6.5s11 5 14 5.9l10 3.3c15.9 5.5 19.8 5.3 29.1-1.3l9.3-6.2c1.6-.9 4.4-3 6.2-4.6l3.4-2.8v3.6c0 2 .3 3.6.8 3.6 1.4 0 10.7-5.8 12.6-7.9q4.5-4.6 1.9 1.4c-2.5 5.3-.7 5.4 4.1.2q7-7.6 5.9-2.7c-.5 1.9-.2 2 3.8 1.4 2.4-.3 5-.8 5.7-1q1.4-.5.6 1.8-.9 2.5 1.2 1.3c1.1-.4 3.1-1 4.7-1.3 3.4-.5 3.8 2.1.5 3.9l-2.1 1.2 2.2 1.1 2.2 1.2-2.1 1.9c-1.2 1.1-1.9 2.7-1.7 3.7.5 1.6-.2 1.8-4.7 1.8-2.9 0-7.7-.7-10.7-1.6-3.4-1.1-9-1.7-15.4-1.6-10 0-10 0-20.5 5a72 72 0 0 1-25.8 8.2 28 28 0 0 1-7.2-1.5 29 29 0 0 0-14.9-.9c-2.4.5-3.9 1.9-6.6 6.4-3.1 5.1-4.2 6-11.7 9.6a33 33 0 0 1-18.2 4.2c-9.2.4-10.2.2-16.5-2.6-9.7-4.5-13.6-5-16.7-2.1q-4.4 4-.5 7.3c1.1 1 2.2 2.9 2.6 4.3.6 2.4.7 2.5 7.3 1.8 4.9-.4 7.1-.3 8.3.7 1.8 1.4 4.9 8.8 4.9 11.6 0 .9 1.6 2.7 3.5 4 4.2 2.6 4.3 4.3 1.4 13.1-2 5.9-2 6.3-.4 8.1 1 1.1 2.6 2.2 3.6 2.5q1.8.7 1.9 2.2a9 9 0 0 0 1.9 4.1 62 62 0 0 1 4.1 7.9c2.6 6 1.8 8.3-2.9 8.3a110 110 0 0 1-21.6 2.2l-12.4.3-4.5-4.4a55 55 0 0 1-8-11c-6.1-11.6-11.9-16.3-22.9-18.7-4.3-1-7.7-2.2-7.7-2.9s-.9-2-1.9-2.9c-1.8-1.6-4-1.8-20.8-1.4-20.1.3-20.5.4-27.7 6.2-4.5 3.6-8.1 3.1-9.1-1.3a10 10 0 0 0-2.6-4.7c-3.7-3.4-8.9-11.1-8.9-13.3 0-4.3 2.7-3.2 9.8 3.9 6.4 6.3 7.1 7.3 6.5 10-.7 3.8.4 3.8 5.2 0a21 21 0 0 1 6.4-3.7c3.6-1 17.8-.9 22.3.1 2.8.7 4.7.4 7.5-.9 2.1-1 4.1-2.2 4.4-2.7s-1-4.2-3-8.2l-3.7-7.1-12.4.2c-6.9.2-17 .5-22.5.8l-22 .9c-14 .3-11.5-.8-33.1 13.6a31 31 0 0 1-6.5 3.5c-6.1 1.9-7.7 7.1-3.6 11.5 1.3 1.4 5.3 4.4 8.8 6.8 5.5 3.5 7.2 5.4 10.9 11.8 5.5 9.6 7.4 10.9 16.5 10.9 6.2 0 7.5-.4 11.9-3.2 5.6-3.7 8.6-4.3 8-1.5-.5 2.1.3 3.2 3.9 5.5q2.6 1.8 2.7 4.1c0 3.3 3.2 5.7 8.7 6.7 2.6.5 5.3 1.5 5.8 2.3s2.4 2 4.1 2.9 3.6 2.3 4.3 3.1q2.7 3.1 6.4-.1 1.8-1.8 7.9-1.9c6.9-.1 7-.2 9.4-9.4 2-7.6 5.2-11.6 10.7-13.1 4.2-1.1 2.9-1.9 16 9.2 9.9 8.3 16.3 12 22.9 13.1 5.9 1.1 6.7 1 9.4-.9 1.8-1.3 5.1-2.2 8.8-2.5l5.8-.5 1.5 3.4c1 2.6 1.1 3.8.3 4.8-1.9 2.2 8.6 4.1 14.6 2.6 4.8-1.2 6.3-.6 6.4 2.5 0 1.1 7.2 5.5 10.9 6.6 1.4.4 3.9.1 6.2-.9 3.7-1.4 3.9-1.8 3.9-5.8 0-3-.6-4.7-2.1-6.1-4.6-4.2-6-10-3.8-16.2.8-2.5.7-3.5-.7-5.7-.9-1.4-1.5-2.7-1.3-2.9s7.8-2.9 16.8-6l16.5-5.7 2.8 2.8 2.8 2.8-2.5 5.3c-3.2 6.9-3.2 9.7 0 11.8 2.3 1.5 2.7 1.5 4.3.2q4.8-4 10.4-.8c5.6 3.2 8.2 2.6 12.2 1 2.1-.8 2.6-1.6 2.6-4.3 0-4 1.2-5.7 6.8-9.1 2.4-1.5 5.3-4.3 6.4-6.2 2.5-4.3 6.5-6.4 13.3-7.1s11.2 1.1 12.4 5.2c1.9 6.3 2 8.2.6 10.2-.8 1.1-1.9 4.1-2.6 6.7-.9 3.7-1.5 4.6-2.8 4.1a24 24 0 0 0-10.5-1.2c-2.4 1 0 5.4 3.3 6 7.4 1.5 15 1.8 18.9.8 4.1-1.2 4.2-1.1 7.3 2.4 1.7 1.9 3.8 3.5 4.6 3.5 2.4 0 16.1-12.8 18.2-16.9 1.1-2 2.4-5.5 3-7.8a14 14 0 0 1 3.8-6.3l2.6-2.1 2.6 2.5c1.4 1.4 3.8 2.7 5.2 3.1 2.3.6 2.7 1.4 3.7 6.9q2.4 12.6-.3 16c-2.2 2.9-1.8 7 .8 10.3a77 77 0 0 1 11.5 20.1l.8 3.7 8.9 1.3c7.1 1 9.5 1.8 11.4 3.7 2.3 2.3 2.4 2.7 1.4 8.2-.6 3.2-.8 6.2-.4 6.6a89 89 0 0 0 26.4-3c2.2-1.1 3.5-1.2 5.6-.4 1.4.6 4.5 1.5 6.8 2 3.9.8 4.4.7 5.8-1.6.9-1.4 3.8-3.4 6.5-4.5 2.9-1.2 5-2.8 5.3-4 .5-1.7 1.1-1.9 3.9-1.3 4.4 1 4.1.7 9.4 7.6 4.1 5.3 4.7 6.7 5.1 12.2.6 7.3 1.3 8 10.8 10.2l8.6 2.1c.9.3 2.3 1.9 3 3.6 2.2 5.3 6 6.8 17.6 6.8h10.1l1.2 3.7c.7 2.1 1.6 4.2 2 4.6.4.5 3.1-.3 5.9-1.7l5.1-2.6.9 2.2c2.2 6.1 2.1 7.3-1 10.3q-6.7 6.1-2.9 10c2.6 2.8 2.6 3.2-1 5-2.4 1.3-2.9 2-2.4 3.9.8 3.5-2 9.4-4.7 9.8-1.4.2-3.1 1.7-4.3 3.7l-2 3.4 3.2 2.7c4 3.3 3.8 4-3.4 13.7-6.7 9-6.9 12.3-.9 13.5 3.1.5 2.9 2.9-1.2 10.2-3 5.4-4.5 7.1-7.5 8.3q-3.7 1.4-4.8 4.6l-1.8 4.9c-.4.9-2.3 2.8-4.2 4.1-3.3 2.2-3.5 2.6-3.5 8.3 0 6.7 1.9 10.1 7.2 13.1 4.7 2.5 5.2 6.3 2.7 17.5-.5 2.3-.3 2.8 1.3 2.8 1.1 0 2.8-.6 3.8-1.4 1.7-1.2 2.2-1.2 4.3.5 3.1 2.4 3.8 1.9 4.6-3 .9-5.7 2.9-5.9 8.8-.6l5 4.5 4-2.1c3.1-1.6 4.3-1.8 5.4-.8q2 1.6 9.1-.6c1.7-.6 2.2-.2 2.5 1.7q.2 2.5 2.3 1.9c1.1-.2 5.3-.6 9.3-.8 6.6-.4 7.7-.2 9.7 1.7s2.9 2 5.1 1.3c1.5-.5 3.1-1.9 3.5-3 1.2-3.2-2.9-10.4-6.9-12.3q-3.1-1.4-3.2-3.5c0-1.8.5-2 5.4-1.7 6.5.4 7.6-1.2 4.8-6.9l-1.9-3.8 3.4-3.8c3.2-3.5 3.6-3.6 6.5-2.5 1.8.6 3.2 1.1 3.2.9l2-3.9c1.8-3.5 1.8-3.9.2-6.3-1.3-1.9-1.6-3.7-1.1-6.4.3-2 .2-4.9-.4-6.4-1-2.7-7.1-7.2-10.7-7.9-1.5-.2-2.1-1.5-2.6-5.8-.7-5.3-.6-5.6 2.2-8.1 3-2.5 3-2.6 1-4.4-1.6-1.4-2.7-1.6-5.7-1-2.1.5-6.9.9-10.8 1.1-3.9.1-8.7.9-10.7 1.8-2.1.9-4.7 1.6-6 1.6-2.1 0-2.1 0 .5-2.8l2.7-2.8-3.1-6.3a80 80 0 0 0-6.5-11.3l-3.6-4.8h3.4c5.3 0 7.4-1 8.4-3.8s1-2.7 3.9 2.5c2.3 4 3.6 5.3 5.3 5.3 3 0 6.6-3.9 9.6-10.5 2.5-5.6 7.3-9.7 17-14.5 4.1-2.1 5.2-3.2 6.3-6.6q1.4-4.3 3.6-4.7c1.2-.3 5.2-1.8 9-3.3 7.4-3.1 8.3-4.8 4.5-8.6l-2.2-2.2 2.2-1.4c1.2-.8 2.2-2.1 2.2-2.8q.1-2.5-9.8 1.8-6.7 2.8-10.6 1.2c-2.2-.8-2.3-12.6-.1-14.4 1.9-1.6 1.9-3.3-.1-7.1-1.5-3.1-1.5-3.1 2.5-7.2 9-9.3 13-14.5 15.9-21q3-6.8 4.9-6.7c2.8-.1 10.7-14.5 9.8-17.9a29 29 0 0 1-.7-6.4c0-3.4-.2-3.7-2.9-3.7-3.5 0-4.8-2.4-2.6-4.8 2.8-3.1 3.2-15.3.8-27.6a113 113 0 0 0-2.8-12l-10.6-13.5-9.9-12.4.6-4.6 1.2-10.3.6-5.6-3.8-2c-2.2-1-6.3-2.7-9.3-3.8-5.9-2.1-7.1-3.9-7.1-10.4q0-3.9 1.6-4.8c1.5-.9 1.5-1.2-.2-4-2.1-3.6-9.5-7.2-14.8-7.2-1.9 0-3.6-.6-3.8-1.2-.8-2.2 1.4-7.7 3.2-8.3q2.4-.8 4.4-6.8c.7-2.2-2.3-8.4-5.7-11.5-4-3.7-2.1-8.2 3.5-8.2 4.1 0 10.9-2.9 14.3-6.1 3.9-3.7 5.6-3.6 11.8.2 4.4 2.7 5.8 3.1 10.4 2.7 2.9-.3 5.6-.8 5.9-1.1.7-.7-3.1-10.3-5-12.6-.6-.8-2.6-2-4.3-2.8q-5.7-2.5-1-3.8c11.6-2.6 13.2-2.5 14.2 1.3a14 14 0 0 0 3.2 5.4c3.2 3.3 11.6 4.7 16.4 2.7 3-1.2 3.3-1.1 6.3 2.3 3.5 3.9 7.5 5.9 10.3 5.2q1.9-.5 6.5 3.5c2.5 2.3 5.6 4.1 6.8 4.1 2.1 0 2.2-.3 1.7-5.7-.3-3.2-.8-6.8-1.2-8.1q-.9-2.4.9-2.2 1.5.2 2.2 1.5t4 1.5c1.8 0 5.2.7 7.4 1.6 4.8 2 6.8 1.4 7.2-2.1.2-2.2 1.2-3 5.9-4.5a115 115 0 0 0 13-5.9c4.1-2.1 11.4-5.1 16.3-6.6 7.8-2.3 9.2-2.5 11.4-1.3 1.4.7 4.4 1.3 6.8 1.3 3.5 0 4.9-.6 7.9-3.5 4.6-4.4 5.7-6.5 6.4-11.5.6-3.7 1-4.1 4.9-5.3s4.2-1.6 4.2-5.2c0-3.1-.7-4.4-3.9-7.3a40 40 0 0 0-6.9-5.1c-1.7-.9-4-3.1-5.1-5-1.8-2.8-3.1-3.6-7.2-4.5-2.7-.6-5.9-1.1-6.9-1.1-1.7 0-2-.7-2-4.9 0-4.5.3-5.3 3.3-7.5a12 12 0 0 1 5.5-2.6c2 0 2.2-.5 2.2-5.9 0-9.3-.2-9.1 10.9-9.1 7.9 0 10.2-.4 13.1-2.1 4.9-2.9 6-4.7 6-9.5 0-3.7.5-4.7 4.2-7.8 2.5-2.2 5.2-3.6 6.9-3.6 3.5 0 8.5-5.5 12.4-13.8 2.5-5.4 3.2-6.2 5-5.7 6.5 2 9.6 2.7 10.2 2.1 1.5-1.5.4-6.8-2.1-10.4a22 22 0 0 1 2.4-28.7c2.6-2.7 2.9-3.8 3.2-12l.3-9-4.7-2.5c-4.1-2.2-5.3-3.7-9.7-12a33 33 0 0 0-6.5-9.8c-.8-.2-3.5 1.5-6 3.8l-4.5 4.2-9.3-3.1a104 104 0 0 0-17.3-4 38 38 0 0 1-18.5-6.2c-1.9-1-4.5-1.9-5.6-1.9-1.7 0-2.4-.9-3.3-4.4-.6-2.5-1.1-6-1.1-7.9 0-1.8-.7-5.5-1.6-8.1-1.8-5.4-1.4-6.4 2-4.8 2.9 1.3 3.6.7 3.6-2.9 0-2.6.3-2.9 5-3.5 2.8-.4 5-.9 4.9-1.3 0-.3-1.9-2-4.2-3.6-5.9-4.3-6.7-8.4-3.7-18.1 1.3-4.1 3.4-8.3 4.6-9.5 2.2-2.1 2.4-2.1 8.9-.4 5.1 1.3 7.4 1.4 9.7.6 3.9-1.4 10.5-1.4 11.3-.1.3.5 1.8 1 3.2 1s3.1.6 3.7 1.4 2.9 1.7 5.1 2.1c3.3.5 4.6.2 7.4-1.9 3.3-2.4 3.5-2.5 7-.9l5.2 2c2 .6 6.4-4.9 7.3-9.2.4-1.7 1.1-14.6 1.6-28.8l.9-25.8 2.9-5.2c2-3.6 3.1-7.3 3.6-12 .7-7 3.7-13.2 12.3-25 2.6-3.5 4-7 5.4-13.4 1-4.8 1.9-9.7 1.9-10.9s.7-2.7 1.5-3.4c2.7-2.2 2.8-7.7.5-20.3a480 480 0 0 0-4.6-21.5l-2.2-9.3 2.4-5.5c1.4-3.2 2.9-9.3 3.5-14.2 1.3-11 1.3-12.1 0-15.5-.9-2.4-1.6-2.7-5.4-2.7-6.2 0-13.5-2.5-18.9-6.5l-4.7-3.5-.3-6.7-.3-6.8-8.2-.3c-7.6-.3-8.9-.6-15.5-4.4-4-2.3-9-5.5-11.1-7.2-6.3-5.1-11-16.5-12.4-29.8-.6-6-.9-6.6-6.8-12.6-5.4-5.7-6.2-6.2-7.4-4.8M594.2 19c-3.3 2.7-4.1 9.3-1.6 12.1 1 1.2 3.2 2.6 4.9 3.3 4.2 1.8 12.3-.4 14.8-3.9 2.1-2.9 3.8-3 14.9-1.3 7.3 1.1 8.2 1 16.5-1.5a322 322 0 0 1 16.3-4.5c5.6-1.4 7.6-2.3 7.8-3.6.4-1.8-.3-1.8-10.9-1.1-6.2.4-12.4 1.2-13.8 1.7-3.2 1.3-35.1 2.6-35.8 1.5-.5-.9-8.9-4.7-10.1-4.7-.4.1-1.8.9-3 2M574 23.9a529 529 0 0 1-26.5 9.5c-22.8 7.9-25.9 8.7-35 9.3-12.3.7-14.1 1.4-15 5.1-.3 1.7-2.2 4.4-4.1 6.1-3.7 3.4-4 4.7-2.2 8.6.9 2.1 1.8 2.5 5.4 2.5s4.6-.4 6.5-3.3c3.5-5.1 4.8-5.7 12.2-5.7h7l8.6-6.4c8.4-6.2 8.7-6.3 16.3-6.9 8.6-.6 10.8-1.5 16-6.5 2.7-2.6 4.2-3.3 5.9-2.9 4.7 1.2 12.5-5.9 10.4-9.3-.8-1.2-3.5-1.2-5.5-.1M468.9 80c-5 1.5-23.9 12.1-25.4 14.3a9 9 0 0 0-1.5 4q.1 1.7-6.5 4.8a38 38 0 0 0-7.1 4c-.3.5-1.6.9-3 .9-2.2 0-2.5.4-2.2 2.7.3 2.7.6 2.8 6 3.1l5.7.3 6.8-6.2c8-7.4 8.5-8.1 8.1-11.6-.3-2.4.2-2.8 5.3-4.3a36 36 0 0 0 9-4.3 24 24 0 0 1 6.7-3.2c3.2-.7 6.2-2.8 6.2-4.6 0-1.1-4.4-1.1-8.1.1m-51.1 47.8a158 158 0 0 0-10.8 15.7c-4 6.6-9.4 15.1-11.9 19a24 24 0 0 0-5.2 15c-.4 4.4-.9 9.3-1.3 11-1 4.6 2.2 7.7 8.4 8.3 4.5.4 5 .3 5-1.6 0-1.2-.4-2.4-1-2.7s-1-1.5-1-2.5c0-1.8.2-1.8 3.5-.4 4.4 1.8 4.1 1.9 5.5-1.5.7-1.7 3-3.9 5.8-5.4 2.6-1.4 6.6-4.5 8.9-6.9 3.8-3.9 4.5-5.4 7.4-16.8 3.6-13.9 3.5-17.3-.6-23.4a12 12 0 0 1-2.2-6.2c.2-2.2-.4-2.9-3.4-3.9-3.6-1.3-3.7-1.2-7.1 2.3"/><path d="M588 340.6a52 52 0 0 0-13.5 9.3c-5.3 5.1-6.6 5.9-10.8 6.4-6.6.7-8.7 2.8-8.7 9 0 7.6-2.2 9.8-16.9 16.9a66 66 0 0 0-20.1 13.3 163 163 0 0 1-18.7 14.3A69 69 0 0 0 488 418c0 .6-2.3 2.1-5 3.5s-5.3 3.2-5.6 4c-.9 2.4 4.1 12 7.5 14.4 3.2 2.3 3.2 2.3 9.6.6s6.6-1.7 11.8.2c2.9 1.2 8.8 4.4 13.1 7.2s8.5 5.1 9.3 5.1 4.5 3.2 8.3 7.1c6 6.3 7.1 7.1 10.6 7.2a53 53 0 0 0 21.7-6.2c6.7-4.3 10.2-14.1 8.3-22.8-1.2-5.3.5-7 8.4-8.3 5.6-.9 7-1.5 7-3 0-.9 1.7-3.6 3.8-5.9 2.9-3.2 6.1-5.1 14.5-8.6 6-2.5 11.7-4.5 12.6-4.5s3.3-2.1 5.2-4.6l6.1-8.3a65 65 0 0 0 5.9-12.1c2.8-7.6 3-9.4 2.7-17.2-.3-6.6-.9-9.2-2.2-10.7-2.3-2.6-16-9.2-21.1-10.2a55 55 0 0 1-18.2-6.2c-2.9-2.5-6-2.1-14.3 1.9M209.4 621.9a57 57 0 0 1-9.5 3.6c-8.5 1.9-11.7 8.8-6.4 14 2.6 2.7 4 3.1 5 1.5.3-.6 2.4-1 4.6-1 3.6 0 3.9.2 2.9 1.9-1.5 2.9-1.3 3.1 2.5 3.1s4.3-1 2-5c-1.2-2.2-1.1-2.7.2-4.3 2.2-2.4 7.4-2.1 11.4.6 3.3 2.2 3.4 2.6 3.7 9.2.3 8.2 2.3 13.2 7.9 19.4 3.8 4.3 4 4.4 11.7 5 7.5.6 8 .8 11.1 4.4 2.4 2.8 4 3.7 6.4 3.7 1.7 0 7.4 2.1 12.9 4.8 9.4 4.7 9.9 4.9 16.6 4.4 6.6-.4 7.4-.7 13.3-5.5 4.9-4 6.3-5.6 6.3-7.8 0-2.9 1.1-2.5-13.5-4.5-3.3-.5-5.8-1.8-9.9-5.3-3.1-2.5-8.7-6.9-12.6-9.6-5-3.6-7.2-5.9-7.8-8-.8-2.8-1.3-3-6.3-3.6a21 21 0 0 1-11.1-4.6c-3.2-2.2-7-4.6-8.6-5.2s-3.6-2.5-4.5-4.1q-1.6-2.9-5.5-3.5c-2.7-.4-4.2-1.4-5.4-3.5-1.5-2.7-2.2-3-6.5-3q-4.8 0-10.9 2.9m-16.9 34.2c-2.2.4-9.6.8-16.5.9-16 .1-21.5 1.8-24.7 7.6-3.7 6.5-2.9 14.5 1.8 16.9 3.9 2.1 5.6 1.9 12.3-1.5 6.8-3.5 14.4-4.1 16.7-1.4q1.2 1.6 4.7 1.1c2.9-.5 3.5-.2 5.2 2.6 1.1 1.8 2 4.4 2 5.8 0 3.5 5.8 10.9 8.7 10.9 1.2 0 2.5-.5 2.8-1 1-1.6 2.1-1.2 6.8 2.4 4.1 3.1 4.7 3.3 9.3 2.6 10.6-1.7 20.4-6.1 20.4-9 0-1.1.9-2.8 2-3.7q3.8-3.4.2-6.6c-2.2-2-12.5-5.7-15.8-5.7-2.7 0-4.2-2.5-7-11.3-2.6-8.3-3.5-8.9-11.8-7.4l-6.8 1.1-2.2-2.7c-1.2-1.5-2.6-2.6-3.1-2.6zm41.1 51.4a8 8 0 0 1-5 2.5c-3.9 0-9.6 2.7-9.6 4.5a24 24 0 0 0 5.5 7.3c3.1 3.1 6.5 7.2 7.8 8.9s2.9 3.6 3.7 3.9c2.7 1.1 16.4 3.4 20.8 3.4 3.8 0 4.5.4 6.3 3.5 2.9 4.8 5 3.4 8.4-5.5 2.9-7.6 2.7-9.6-1.1-13.8a57 57 0 0 1-5.2-8.2l-2.8-5.5h-7.5c-5.4 0-8.1-.5-9.9-1.8-3.6-2.5-8.6-2.2-11.4.8M101.5 781a30 30 0 0 1-10.1 2.9c-5.5.1-10.3 1.8-13.6 4.9-3.4 3.1-3.4 3.9-.7 10.3l2.1 4.9-2.7 3.6c-2.7 3.6-2.8 3.9-1.5 8.3.7 2.5 1.6 6.4 1.9 8.6.5 3.5 1.6 4.7 8.4 10.2 6.2 4.9 8.4 6.1 10.5 5.8l7.5-1c5.5-.7 6-1.5 7.1-10.6l.7-5.7 5.8-.6c4.9-.6 6.1-1.1 8-3.6 1.2-1.7 2.7-3 3.4-3s7.7 3.6 15.6 8c13.3 7.4 14.9 8 20.1 8h5.7l1.2 5.7c.6 3.1 1.1 6.6 1.1 7.7s1.1 2.8 2.3 3.7c3 2.2 18.3 4.4 27.7 4 7-.2 7.6-.4 11.5-4 2.2-2 6.2-5.2 8.8-7 4.1-2.8 5.3-3.2 8.6-2.6 6.3 1 12.1-2.7 27.3-17.7 17.1-16.8 19.5-20 17.9-23.4a14 14 0 0 1-1.1-4.5q0-1.8-1.1-1.4c-.6.4-.7 1.9-.4 3.6.4 1.6.5 2.9.2 2.9s-2.1-1.4-4.2-3q-3.9-3.1-4.9-2c-.5.5-2.7 1-4.8 1-3 0-3.8.4-3.8 1.8 0 1.1 1 2.4 2.3 3q3 1.3.2 1.1c-1.1 0-2.9-.6-3.9-1.4-1.1-.8-3-1.5-4.3-1.5-2 0-2.1.3-1.3 2.6 1.7 4.3 1.2 4.3-3.4-.2-2.4-2.5-5.3-4.4-6.5-4.4a14 14 0 0 1-11.5-7.2 15 15 0 0 0-10.6-8c-2-.2-2.6.2-2.8 2.2a8 8 0 0 1-1.2 3.5c-.4.5-1 2.7-1.4 4.7-.7 3.8-.7 3.8-5.6 3.8-4.5 0-5.3.4-8.6 4-5.1 5.5-14.5 7.9-17.4 4.5a5 5 0 0 0-3.6-1.5c-1.4 0-3.3-.5-4.4-1.2-1.5-1-2.6-.9-5.5.5-3.2 1.5-3.9 1.6-6.8.2-1.8-.8-6-3.7-9.4-6.4-5.4-4.1-7.1-4.9-12.2-5.5-4.8-.6-6.8-1.4-10.1-4.1a45 45 0 0 0-19.1-7.4c-.8 0-4.1 1.3-7.4 2.9"/></svg>