<svg xmlns="http://www.w3.org/2000/svg" width="1365.333" height="1365.333" viewBox="0 0 1024 1024"><path d="M815.1 2.7q-3.4 2.4-5.5 1.6a17 17 0 0 0-4.6-.7c-2.3-.1-2.5.2-2.3 3.8.2 3.2 0 3.7-1.5 3.3-4.5-1.2-4.7-1.2-4.7 1.1 0 1.3-.7 2.7-1.5 3.2-1.1.7-1.2 1.4-.2 3.4.8 1.9 2 2.5 4.8 2.8 4.1.3 5.6 2.2 2.4 3.1q-1.8.6-2 2.5c0 1.1-.7 2.5-1.4 3.2-.9.7-1.5 2.9-1.5 5.3.1 2.3-.2 5.9-.6 8q-.8 3.7.8 6.1c2 3 1.4 3.6-2.9 2.9-3.2-.5-3.4-.4-3.4 2.1 0 1.5-.6 2.9-1.4 3.2s-1.2 1.3-.9 2.3a2 2 0 0 1-1.3 2.5c-1.4.6-1.6.1-1-3.3.3-2.2.2-4.2-.3-4.5s-.4-2.5.1-5.2c.9-4.1.8-4.9-1.1-6.7-1.9-1.9-2.4-2-4.4-.8l-2.2 1.4 2-2.4 2.6-2.9q3-2.6 2.7-11-.3-9.9-3.8-8.5c-1.7.6-7 8.6-7 10.4 0 .7-.9 2-2.1 3-1.5 1.2-2.3 3.6-3.1 9.6-.7 4.9-1.8 8.8-2.8 10a16 16 0 0 0-2.8 5.7c-.6 2.1-2 5.1-3.1 6.7-2.2 3-2.8 8.5-1.2 9.6 1.1.6.1 4.7-2.3 9.3-.9 1.7-1.6 4.4-1.7 5.9-.1 2.8-.1 2.7-1-.5q-1.9-6-4.5.9l-1.2 3.4-.1-5.1c-.1-3.8.5-5.8 2-7.8 1.6-2.1 2-3.6 1.6-6.2q-.5-3.4 1-6.3c1.6-2.6 1.5-3.1-.4-7.2l-2.1-4.4 3-5.5c1.7-3 3.9-6.6 4.9-7.9a8 8 0 0 0 1.9-4c0-1 .7-2.6 1.5-3.7.8-1 1.5-3.1 1.5-4.7 0-2.4-.3-2.7-3.4-2.7-1.9 0-3.6.5-3.8 1.2q-.5 1.1-2.6-1c-2.5-2.5-6.2-2.9-6.2-.7 0 1.5.4 2.5 2.8 7.2.9 1.7.8 2.2-.4 2.7q-1.4.4-1.8-.7c-1.2-4-1.7-4.8-3.1-5.3-.9-.4-2.2.1-3.1 1.2-1.4 1.8-1.5 1.7-.9-1.3.6-3.3-1.1-5.6-2.1-2.9-.9 2.4-3.1 1.9-3.8-.9q-.6-2.6-3.1-2.5c-2.9 0-4 2.7-2.9 7.3 1.3 5.3.4 7.8-2 5.8q-3.5-2.7-3.6 4c0 3.8.1 3.9 3.4 3.9 2.6 0 4.1.7 6 3.1 1.4 1.7 2.6 4 2.6 5.2 0 1.9-.3 1.7-2.8-1.2-3.7-4.5-6.5-4-7.3 1.4-.8 4.6-3 10.5-4 10.5-.4 0-.3-1.7.2-3.8 1.1-4.9.6-6.1-4.3-10-5.8-4.6-7.8-4.3-7.8 1.2 0 3.7-.5 4.8-2.7 6.5l-2.8 2 3.5 1.4c1.9.9 5.2 1.8 7.3 2.2 3.4.7 3.7.9 2.3 2.4a56 56 0 0 0-4.1 6.1l-2.6 4.5.6-3.6c.6-3.2.3-3.9-2.3-5.8-2.9-2.1-8.7-2.8-10.7-1.3-1.2.9-5.9 8-6.7 10.3-.7 1.7 2.4 5.2 5.2 6.1q1.4.5.3 1.1c-.6.4-2.3-.5-3.7-1.8a9 9 0 0 0-5.2-2.5c-2.8 0-7.8 4.4-7.2 6.3.7 2.2 7.2 4.7 12.1 4.7 4.4 0 4.7-.2 4.7-2.6q0-2.6 1.3-2l3 1.2q1.7.7 1.7 3.5c0 1.6.5 2.9 1.3 2.9q1 .1-.5 1c-4.5 2.7.2 11 6.1 11q2.7 0 1.2.9c-.7.5-2.1.6-3.1.4q-1.9-.5-3.3 2.2l-1.4 2.8-.6-3.2c-.4-1.7-1.3-3.1-2.1-3.1s-1.7-1.5-2-3.5c-.4-1.9-1.1-3.5-1.6-3.5s-1-1.4-1-3c0-3 0-3-5.8-3-3.4 0-6.6-.6-7.8-1.5a37 37 0 0 0-13-4.5c-2.1 0-4.4 3.5-4.4 6.6 0 2.1-4.1-.2-4.7-2.6-.4-1.6-.9-1.5-4.8 1.3-2.4 1.8-4.7 4-5 5-.7 2 1.9 5.7 4.1 5.7.7 0 1.8.8 2.3 1.8 1.1 2 10.2 7.2 12.9 7.3q1.6 0 .5.6c-.7.2-1.3 1.8-1.3 3.4 0 2.8-1.5 4-2.2 1.8q-.3-1.4-2.5 0c-1.8.9-2.3.8-2.8-.9-.8-2.5-5.8-5.2-8-4.4-1.3.5-1.5 1.5-1 4.3.5 3.2.2 4.1-2.4 6.9-2.6 2.7-3.1 2.9-3.1 1.2 0-1 .5-2.2 1-2.5 1.7-1 1.1-2.5-1-2.5-1.1 0-2.5.9-3.2 2-1.1 1.7-1.4 1.7-2.8.5s-1.9-1.3-3.4-.2-1.9 3.6-2.6 15.1a70 70 0 0 1-1.7 14.7c-1.3 1.3-1.4-14.1-.3-20.9 1-5.6-.1-9.3-3.3-12-1.7-1.4-4 .7-5.2 4.8a21 21 0 0 1-3.6 6 25 25 0 0 0-3.7 7l-1 3.5-.7-4.3c-.4-2.3-1.3-4.2-2-4.2-2.6 0-14.5 6.2-14.5 7.6q-.2 1.3-1.5 1.4c-1.8 0-1.9-.5-.3-2.9 1.5-2.5-.7-5.9-5.6-8.5-4.7-2.5-6.5-1.2-4.2 3.2 1.9 3.6 2.1 6.8.3 3.5-1.1-1.9-1.4-2-3.1-.8-1 .8-3 1.2-4.5.9-2.2-.5-3.1 0-4.5 2.1-1.7 2.6-1.7 2.7.6 3.3 2 .6 1.9.7-1.2 1.2-3.3.5-3.5.8-4.1 5-.4 2.6-.2 4.7.4 4.9.5.2 1.8 1.2 2.9 2.3 2.1 2.1 6.4 1.8 10.4-.7 1.1-.7 3.1-1.5 4.5-1.7 1.7-.2 3.1-1.6 4.8-5.1 2.6-5.2 4.9-5.2 3 0-.7 2.3-.7 3.7 0 5.2.6 1.1 1.1 2.9 1.1 4s1 3.7 2.1 5.8l2.2 3.8-2.6-3c-1.4-1.7-2.8-4.7-3.1-6.7s-1-3.9-1.5-4.2-3.2.3-6.2 1.4l-5.6 2c-.2 0-.3 1.1-.3 2.5 0 1.6 1.5 4.2 4 6.9 4.4 4.7 4.3 6.3-.1 4-1.8-.9-3.6-3-4.5-5.4q-1.7-4-3.4-4c-2.2 0-5 2.6-5 4.6q-.1 1.3-1.1.9c-.6-.4-.7-1.9-.4-3.5.8-3.7-4.9-10.8-7.1-8.9q-1.5 1.3-1.4-.1t-1.4-.1c-1.1 1-2 1-3.7.1-2.1-1.2-2.2-1.1-1.6 2.4.5 3.3.4 3.5-1.3 2.6q-4-2-4 .5-.2 1.4-1.5 1.5-2.9-.2 0 3.7c1.4 2 1.4 2.3-.4 3.3-1.1.5-3.3 1-4.9 1s-3.1.3-3.5.6c-.9 1 .4 3.4 1.9 3.4q1.3 0 1.4 1-.2.9-1.5 1c-2.2 0-1.8 2.8.5 3.5s2.7 2.5.6 2.5c-4 0-2.2 4.9 1.8 5.1q2.8 0-.6 1.2-2.6 1-2.8 1.9-.1.7-1.4.8c-2.1 0-2.7 2.7-1 4.5q1.5 1.6 3.4.5c2.5-1.3 3-1.3 3 .4 0 .7.7 1.9 1.5 2.6 2 1.7 4.5-.3 4.5-3.6 0-1.3 1.2-3.7 2.8-5.3 2.6-2.7 3-2.8 8.7-2.2 6.6.7 6.8.5-3.9 4.3-3.2 1.1-4.2 2-4.8 4.7-1.1 3.9-.2 5.4 1.6 2.8q2.6-3.5 2 .5l-.3 4.3c-.1 1.8-.7 2-5.2 1.6l-5-.3.7 3.7c.6 3.5.6 3.7-1.4 2.6-1.7-.9-2.3-.7-3.6 1.1-1.9 2.7-2.1 8.4-.3 9.1 1.2.5-2.5 2.3-5.9 2.9-1.6.3-2-.5-2.4-5.4-.3-3.1-.8-5.9-1.2-6.3s.5-2.3 1.8-4.2c2.6-3.8 3-5.3 1.4-5.3-.5 0-1.6-1.4-2.5-3s-2.2-3-2.9-3c-1.8 0-2.7 3.5-1.3 4.9q1 1 .1 1.1-1.3 0-2.1-1.1c-1.6-1.6-3.5-.1-2.8 2.2q.7 2-.8 1.3t-1 2c.4 1.8-.1 2.7-1.7 3.6-1.8 1-2.1 1.8-1.7 4.6.7 4-1 5.6-1.9 1.9-.5-2.2-.9-2.4-2.2-1.3q-2 1.8-.8-.7c.4-1 1-3.8 1.3-6.2.6-4.2.5-4.3-2.6-4.9q-6.2-1.2-1.7-3.9c1.4-.9 2.8-2.9 3.1-4.5s1.2-3.3 1.9-3.9c1.8-1.5 5-11.5 4.3-13.5-1.5-3.9-8.1.4-9.7 6.5q-1.1 4-3.6 5.1c-5.9 2.7-8.7 16.5-4.2 20.7 1.9 1.8 1.9 2.1.5 2.7-1 .3-1.7 1.7-1.7 2.9 0 1.3-.5 2.7-1.1 3-1.8 1.2-2.2-.3-1-3.4 1-2.4 1-3.4-.3-5.9-.9-1.7-1.6-4-1.6-5.2q-.1-1.8-.8-2c-.5 0-1.2-1.2-1.8-2.6l-.9-2.6-2.7 2.2c-1.6 1.2-2.8 2.8-2.8 3.7q0 1.5-1.9 1c-2.1-.5-3.7 2.9-2.2 4.7.5.6 1.2 2.2 1.5 3.6q1 3-.4.7c-1.4-2.2-2.1-2.1-7.6.3-4.3 2-4.8 2.7-4.5 6.2q0 1.5-.9 2.3c-1.6 1-1.2 5.1.8 7.5 1.6 2 2.1 2.1 4.1 1 2.4-1.3 7.1-.6 7.1 1 0 .6-1.3 1-2.9 1q-5.4 0-3.1 4c.8 1.5 2.1 2 5.1 2 3.2 0 4.1-.4 5.1-2.5 1-2.2 5-5.4 10.6-8.4q2.4-1.4 2.2.1c0 .8-1.6 2.2-3.6 3.3-3.1 1.6-3.5 2.3-3 4.6s0 3.1-3 4.8a14 14 0 0 1-5.6 2.1c-2 0-5.7 1-12 3.3-1.6.5-2.8 1.7-2.8 2.6 0 2.1-3.8 4.5-5.3 3.3-.7-.5-2.9-.9-5-.9-2.7-.1-4.1.5-5.2 2-1.3 1.9-1.8 2-3.5.9-2.9-1.8-7.2 1.3-6.5 4.6.8 3.4-.4 6.5-2.2 5.8-.8-.4-2.2.3-3.3 1.6a6 6 0 0 1-4.5 2.3c-2.4 0-3 .8-5.4 6.7a42 42 0 0 1-3.9 8c-1.6 1.6-1.6 6.8.1 6.8 1.7-.1 6.9-5.1 8.7-8.6.9-1.6 2.5-3 3.7-3.2a8 8 0 0 0 3.9-2.3c.9-1 2.5-1.9 3.5-1.9s1.9-.5 2.1-1.1 2.2-1.4 4.3-1.8c3.5-.6 4-1 4-3.3.1-3.1-.1-3 4.4-4.5 2.9-1.1 3.6-1 4.6.4 1.1 1.5 1.5 1.5 5.3 0a53 53 0 0 0 15.8-11.3l2.1-2.5-.5 3c-.2 1.7-.1 3.8.2 4.7.6 1.6.8 1.6 2.5 0 1-.9 2.8-3.6 4.1-6.1s2.9-4.6 3.8-5c1.2-.5 1.2-.2-.1 1.9-1.6 2.4-1.6 2.5 1.4 3.1 1.7.4 3.3 1.3 3.6 2.1 1 2.7 3.1 1.4 4.9-3 1.6-3.8 2-4.2 3.7-3.2 1.5.9 2.2.6 4.3-1.7q2.5-3 2.4-1.2c0 .8.7 1.8 1.5 2.1 1.9.8 7.4-1.7 8-3.6.4-1.1 1.7-1.4 5.6-1.1 4.1.2 5.4-.1 7-1.8 2.3-2.4 5.1-2.8 4.3-.6-1.1 2.8 6.8 1.9 9.6-1 1.3-1.4 2.7-2.5 3-2.5q.6.2.2 2.5-.5 2.3-1.7 2.5-1.7.3-2.9 2.5c-1.2 2.2-2.5 2.5-3.5 2.5s-3 .9-4.4 2q-4.5 3.5-4.7.6c0-.7-.7-1.9-1.6-2.7-1.3-1-2.5-.9-7.2.6-3.1 1.1-6.1 2.5-6.5 3.2s-2.1 1.3-3.7 1.3c-3.6 0-3.7.8-.8 4 1.3 1.4 3.3 3.9 4.5 5.7 1.9 2.8 2 3.4.8 4.7-.8.8-1.5 2.1-1.5 2.8-.1 1.3-2.3 4.8-3.1 4.8-.2 0-.5-3-.6-6.7-.1-4.1-.7-7.1-1.6-8-1.5-1.5-4.7-.8-4.7 1.2 0 .7-.6 1.8-1.4 2.4-.8.7-1.8 2.6-2.1 4.2-.9 4.1-2.9 5-2.3 1 .3-1.8.1-3.4-.3-3.7-1.8-1.1-8.9 4.2-10.5 7.9-1.6 3.5-1.6 3.8 0 5.6.9 1 3.6 2.2 5.9 2.6l4.2.7-4 1.9q-7 3.3-6 .6c.3-.7-.3-2.9-1.4-4.9l-1.8-3.7-3.2 2.3a33 33 0 0 0-6.6 8c-2.7 4.4-3.2 6.2-2.6 8.4.9 3.1.8 7.9-.2 8.9-1.2 1.1-.8 2.3.7 2.3 2.8 0 11.6-5.3 11.6-6.9 0-2 5.6-5.5 7.6-4.7 1.9.7 1.8 2.6-.1 2.6q-1.4.1-1.5 1.6 0 1.3-.9 1c-1.4-.9-4.1.5-4.1 2 0 .8-.7 2.6-1.6 4-1.3 1.9-1.4 2.8-.5 3.7.6.6 1.1 1.8 1.1 2.7q0 1.6 4.3 2.6c3.7.8 4.2 1.3 4.5 3.9l.3 3-1.8-2.2c-1-1.2-3.1-2.5-4.6-2.9a7 7 0 0 1-4.3-3.5c-.8-1.7-2.3-2.9-3.4-2.9-2.6 0-11.3 7.9-10.6 9.6q.3 1.2-1 1.8c-1.3.6-1.4 1.4-1.4 2.5s-2.3 3.9-5.2 6.5l-5.2 4.6 3.1.6c3.3.7 3.6 3.4.4 3.4-1 0-2.8 1.1-4 2.4-1.3 1.4-2.9 2.2-3.7 1.9-1.8-.7-3.6 4-2.8 7.2.8 3.1-.5 7.3-1.6 5.4q-.8-1.5-2.3-.1c-.7.6-3.3 1.9-5.7 2.7-6.6 2.3-7.4 3.3-5.4 6.4.9 1.4 2.3 3.1 3 3.7 1.2.9.2 1.5-4.6 3-3.3 1-6 2.3-6 3q-.1 1-1.5 1.8-3.5 1.5 1.8 3.4l3.2 1-3.1.1c-3 .1-3.1.3-2.8 3.8l.9 7.3.6 3.5-1.6-2.8c-1.8-3.1-1.9-3.1-4.6-1.6-1.9 1-1.9 1.2-.5 3.4 2 3 2.1 5.5.2 5.5-.7 0-1.6 1.4-2 3.2-.5 2.4-.1 3.7 1.6 5.5l2.1 2.3h-2.5c-1.4 0-3 .6-3.6 1.3-1.5 1.8 1.2 5.7 3.9 5.7 3.2 0 1.3 1.7-2.7 2.3-3.9.7-10.4 5-10.4 7.1q-.2 1.2-2.2 2.3a35 35 0 0 0-8.8 14.9c0 2.7 2.6 1.4 6.4-3.2 2.1-2.5 4-4.3 4.3-4.1.7.8-4.5 8.6-6.7 9.9-1.1.7-2 2.3-2 3.6s-.7 3.1-1.6 3.9q-1.7 1.5-.9 5c.4 2.5.2 3.3-.9 3.3-1.8 0-2.8 3-2.5 7.3.2 1.8-.5 4.4-1.5 5.9a35 35 0 0 0-4.6 16.9c0 2.6-.4 5.1-1 5.4q-1 .4-1-1.9c0-2.3-.6-2.6-1.2-2.6-2 .1-4.8 2.5-4.8 4.2 0 1.5-1.9 3.8-3.2 3.8q-.7-.1.2-2.1c.7-1.1.9-2.7.6-3.5-.5-1.3-.9-1.3-3.3 0-5.8 3-6.9 4.2-5.4 6 .7.9 2.4 1.6 3.7 1.6 2.4 0 2.4 0 .4 2-1.1 1.1-2 2.5-2 3.1s-1.1.8-2.8.4c-1.6-.3-4-.1-5.5.4-2.2.9-2.9.7-4.5-1.4-1.5-1.9-2.9-2.4-7.5-2.6-3.1-.1-5.8-.1-6.1.2-.2.2-.6 2.5-1 5-.6 4.3-.5 4.7 1.6 5.3 1.7.4 2.8 0 4.1-1.6 1.5-1.8 2-2 2.8-.7.5.7.9 1.7.9 2.1s1.6 2.3 3.5 4.3q3.5 3.5 2 3.5-1.4.2-1.5 1.5c-.1 1.3.2 1.5.4 1.5 1.3 0 7.7-2.7 10.7-4.6 3.4-2.1 3.6-2.1 5.8-.4l2.4 1.7-3.7.6c-4.3.7-9.9 4.4-9 5.9q.7 1-1.8.5-2.6-.7-3.8.8c-.7.8-2.1 1.5-3.2 1.5-1 0-2.1.7-2.4 1.5-.4.9-1.9 1.5-3.6 1.5-1.6 0-3.6.7-4.4 1.5q-1.4 1.3-.5 1.5 1.2.3 1.1 1.1 0 1.2-3.7.4c-3.7-.7-3.7-.6-2 1.2q3.2 3.4.2 3.3-1.4 0-1.5.9c-.1.9-1.6 1.2-3.5 1.5-2.9.6-3.7 1.2-4.1 3.6-.4 1.6-1.3 3.1-2.1 3.4-1.3.5-1.3.9-.2 2.3q2 2-.8 1.1c-2.4-.6-3.9 1.9-3.4 5.4q.1 1.7-1.3 1.8c-1.4.1-1.6.8-1.6 1.7q-.1 2.7-9.7 8.4c-3.5 2-4.3 4.3-1.8 5.3 2.3.8 1.9 4.6-.5 4.6q-2 0-2 2c0 1.7-.3 1.9-1.8 1.1-1.6-.8-2.4-.2-5.2 3.7-2.7 3.9-3 4.8-1.8 5.6 1.3.8 1.2 1.2-.4 2.8-1.9 1.9-2.5 5.8-.9 5.8.5 0 1.6-.6 2.3-1.3 1.4-1.5 7.3-3.7 9.6-3.7q1.4 0-1.1 2a10 10 0 0 1-3.4 2c-1.3 0-8.3 3.7-10.2 5.3A30 30 0 0 1 293 612q-1.8.2-2 1.5c-.2 1.3.7 1.5 1.5 1.5q1.4 0 1.5 2.4c0 1.4.5 2.8 1 3.1q2.5 1.5-1.5 3.3c-2.5 1.2-2.6 1.1-2-2.2.4-1.9.2-4.3-.4-5.5-1.3-2.3-3.7-2.8-4.3-1q-.3 1.4-2.7-.1c-2-1-3-.9-6.5.8-2.2 1.1-6 2.8-8.4 3.7q-4 1.8-3.3 2.8.9.8 3.1-.3c1.2-.6 2.5-.9 2.8-.5 1.1 1-2.9 3.5-5.7 3.5-5.1 0-16.4 4.5-15.8 6.3.2.6 2 1.3 4 1.5s3.7.7 3.7 1.3q-.1.8-1.1.9-1.2 0-.4 4.6.6 4.7-.4 3.9c-.6-.3-1.1-1.9-1.1-3.5 0-2.3-.4-2.7-1.9-2.3q-1.8.6-2.5 1.9c-1.1 2.7-2.6 1.4-1.9-1.7.6-2.9.4-3.1-1.8-2.4-1.3.4-3 1.2-3.7 1.8q-1.2 1-3.2-.8c-2-1.8-2.1-1.8-3.6.4-.9 1.2-2.2 2-2.8 1.8-.7-.3-1.8.4-2.4 1.4-1 1.5-2.4 1.9-6.6 1.9-4.4 0-6.1.5-8.8 2.7l-3.8 3.1q-.3.3.8 1.1c.6.4 1.4 2.1 1.8 3.8.5 2.6.2 3.3-2.8 5.1a9 9 0 0 1-5.9 1.5q-2.5-.5-5.5 2c-1.6 1.4-2.6 2.8-2.3 3.2.4.3 3.5.1 7-.6 11.8-2.1 13.7-2.1 18.6-.3 7.4 2.7 8 3.4 4.8 6-2.3 1.8-3.2 2-5.2 1.1q-2.3-1-4.7.1c-2.7 1.2-3.6.7-3.6-1.9 0-3.7-4.4-3.4-5.4.4-.5 2-.6 2-2.6-.6q-3.4-4.5-6-1.2c-1.3 1.6-5 2.1-5 .7s-7.5-.8-9.8.8q-2.2 1.5-2.5 5c-.2 3-.6 3.5-3 3.8-1.5.2-2.7 1-2.7 1.7q.1 3.5 9.7 3.5l5.8.1-4 1.5c-8.6 3.4-11.6 2.8-13.6-2.4-.7-1.8-1.5-2.3-3.5-2-2.9.3-3.9 1.7-4.9 6.1-.5 2.3-.8 2.6-2.4 1.7-1.1-.5-3.3-.7-5.1-.4-2.8.6-3.1 1-2.8 3.8.2 2.4.8 3.2 2.7 3.4 1.3.2 3.3-.1 4.5-.6 4.9-2.3 5.1-2.2 8.2 4.3l2.9 6.3-3.7.4-3.8.2 1.4-2.8c.8-1.5 1.2-3.5.9-4.5-.4-1.6-1.3-1.8-6.9-1.3-5.4.4-6.8.2-8.5-1.4-2-1.8-2.1-1.8-3.5.1-.8 1-1.4 2.1-1.4 2.4.1 1.2 2.5 3.8 4 4.3q1.8.4-.7 1.6c-2 1.1-2.4.9-3.9-1.3-.9-1.4-1.6-3.7-1.6-5.1-.1-2.8-3.6-5.8-6.5-5.2-2.7.5-2.5 5.8.2 6.8s4.2 2.9 5 6.1c.6 2.3.3 2.7-2.2 3.3-2.2.6-3.1.3-4.5-1.4q-1.7-2-1.8-1.5t-1.5-.5c-1.9-1.6-3.8-.4-2.6 1.8s-.4 5.2-2.7 5.2c-2.8 0-4.4 3.5-3 6.5s1.6 3 9.1.4c6.7-2.4 8.5-1.8 4.3 1.6q-2.9 2.3-2.3 3.9c.8 2.1-4.1 3.5-5.3 1.5-.7-1.1-1.3-.9-3 .6-2.9 2.6-2.3 6.6 1.3 8.3 3.2 1.5 3.6 3.2.7 3.2q-4.2.1 1 4.7 5.4 4.4.6 4.3a18 18 0 0 0-5.3 1.1c-2.6 1-2.7 1.2-.8 1.9q2.3.8.5 1.3c-6.9 2.2-10 2.8-11.8 2.3-3.1-1-5 2.9-2.2 4.4q2 1.1 2 0c0-1.6 5.1-3.3 6.3-2.1q1 .9 3.3-.6c2.3-1.5 2.4-1.4 2.4 1.2q0 2.6-2 3.2c-2.8.7-2.5 3.8.6 5.1q2.2 1.3 1.9 2.2-1.3 2.3-5.5-1a11 11 0 0 0-5.9-2h-3.3l2.3 1.9c2.2 1.8 2.2 2 .7 2.6-1 .4-1.8 1.8-1.8 3.1s-.4 2.4-1 2.4q-.9-.1-1-1.8c-.1-1.3-.8-.9-3.1 1.7l-3.1 3.3 2.1 2.1c1.9 1.9 2.2 1.9 3.8.5a13 13 0 0 1 6.8-2.9c1.6-.1 4.7-3.2 5.6-5.6.8-2.1 1-2.1 3.9-.7 1.6.9 3 1.9 3 2.4q.2.7 2 1.3c1.8.6 2 1.2 2 2.1 0 2 3.3 2.1 6.3.2 1.2-.8 5.4-1.8 9.2-2.4 3.9-.6 7.8-1.3 8.8-1.7q1.9-.8 1.2.8c-.7 1.7 3.4 3.2 4.9 1.7q1-.7 2.8 1.6c2.1 2.6 6.4 3.2 9.9 1.3 1.1-.5 2.9-.9 4-.7 1.9.3 1.8.6-1.1 3.8-2.5 2.8-3.8 3.5-7 3.5q-3.9-.1-5.2-1.7c-.7-.9-3.7-2.4-6.5-3.3-4.9-1.6-5.5-1.6-7.8-.1-2.2 1.4-2.5 1.5-2.5.1q-.1-1.3-1.2-1.5c-.7 0-2.3-.3-3.5-.6q-2.4-.7-2.3.9 0 1.5-5 2.7c-4.5 1.1-5.3 1-8.3-.9-3.9-2.4-8.2-2.7-9.4-.8-.4.7-2.9 2.4-5.6 3.7-4.2 2.2-4.5 2.6-2.5 3.1 2.2.5 2.2.6.4 1.6q-2 1-1.2 2.9.7 2.3 1.7.4 1.1-1.7 1.6-.3c.2.7 1.3 1.3 2.4 1.3s1.9.5 1.9 1.1c0 1.5 6.4 3.9 8.8 3.2q2-.5 2.2.6-.1 1-1.5 1.1c-2.2 0-1.9 4.4.5 6.5 1.1 1 1.8 2.1 1.5 2.5-.2.4-3.3-2.2-6.9-5.7-5.4-5.5-6.8-6.4-8.8-5.8-3.4 1.1-3.5 1.5-.8 3.5 4.6 3.4 6 5 6 6.5 0 2.1-1.7 1.9-2.4-.3-.6-1.7-7.6-6.8-7.6-5.5.1 2.1 4.8 8.9 6.8 9.8 1.2.5 2.2 1.8 2.2 2.8 0 1.7-.1 1.7-3 0-2.3-1.3-3.2-1.5-4.2-.5-1.9 1.9-2.5 1.4-3.2-3-1.1-6.5-2.9-3.3-2.1 3.6.8 5.8 2.4 7.3 4.1 3.6 1-2.3 2-1.7 5.2 2.7 2.5 3.7 2.9 6.8.7 7.7q-1.6.7-1.5-1.8 0-2.4-2.1-2.9c-1.9-.5-2.1-.2-1.7 2.4.3 1.7-.1 3.4-.8 4-1.1.9-1.1 1.4.1 2.6 2.2 2.1 1.9 4.2-.5 3.6s-2.8 1.8-.5 3.7c.8.7 1.5 2 1.5 3s.7 2.3 1.5 3q2.6 2.1 3-4.9l.3-4.9c.3-3.8 2.2-2.4 2.2 1.7q0 7.3 2.7 7.1 1.5 0 .8 2.1c-.7 2 .7 3.8 2.9 3.9.4 0 2.3-1.7 4.2-3.7 3.5-3.8 5.4-4 3.5-.5q-3 5.6 2 4.5l3-.6-1.4 3.4c-1.2 3.2-1.7 3.4-6.5 3.7-4.2.2-5.2 0-5.2-1.2q-.2-1.5-1.5-1.6c-1.1 0-1.5 1.1-1.5 4.2q0 4.3-.9 2.9c-.5-.8-.7-2.8-.5-4.5.6-3.8-.8-6.1-3.1-5.2q-1.8.4-1.3 3.7c.5 3 .5 3-3.5 2.4-4.6-.8-4.8 1-.3 3.5 2.3 1.3 2.8 1.3 3.6 0 .8-1.2 1-1.2 1.5.2.8 2-3 7.5-4 5.8-.3-.5-1.8-1-3.2-1-2.2 0-2.4.3-1.8 2.2a58 58 0 0 1 1.9 18c-.7 4.8.8 4.9 3.5.3 2-3.4 4.4-4.5 5.6-2.5.3.5-.3 2.3-1.5 4l-4 6c-1.1 1.6-2 3.9-2 5a13 13 0 0 1-2.7 5.7 16 16 0 0 0-3 7.2c-.1 2-.5 5.5-.8 7.9-.7 4-.6 4.2 1.9 4.2 2.1 0 3-.7 4.1-3.4.8-1.8 2.2-3.6 3.1-4 2.3-.9 3.3.3 1.1 1.5-2 1.1-2.4 6.3-.4 5.7.6-.2 1.8-1.9 2.6-3.6s2.2-3.2 3.1-3.2 2.1-.5 2.8-1.2q1.3-1.4 1.2.5c0 1.6.3 1.5 2.9-.4 5.2-3.8 15-1.4 16.4 4.2.8 2.9-1.2 3.4-2.3.5-.7-2.1-1.6-2.6-4.2-2.6-4.5 0-7.9 1-7.2 2.1q.7.8 2.5.9 2 0 1.9 2.1c0 1.1.8 2.3 1.8 2.5s2.2 1.6 2.9 3c1.3 2.7 1.3 2.7-4 3.8-3.3.8-4.6 3.4-2.6 5 2.5 1.9 4.9 5.9 4.9 8.3 0 3.1-1.1 2.9-4.5-.7-1.6-1.7-3.6-2.9-4.4-2.8q-1.6.3-1.9-2.5c-.2-1.5-.9-2.7-1.8-2.7q-3.1 0 1-3.9 4.4-3.9-1.4-6.1-5.7-2.4-4.6 3.1c.3 1.6.2 2.9-.3 2.9s-1.1 3-1.4 6.7c-.5 6.6-3.7 15.3-5.6 15.3-2 0 4.4 15.9 8.2 20.5a177 177 0 0 0 22.7 21.6c2.5 1.8 5.1 4.2 5.8 5.1.7 1 2.5 1.8 4 1.9q2.4 0 1.3.6c-1.9.7-6 5.5-6.1 6.9 0 1.3 5.8 3.9 12.3 5.5 2.6.6 4.7 1.5 4.7 2s1.1.2 2.5-.7q4.1-2.8 1.3 1.6c-1.6 2.6-.3 3.7 2 1.7 2.3-2.1 5.1-2.2 5.8-.2q.6 1.5 4.9 1.5c2.4 0 4.7.4 5 1 1 1.6 3.8 1.1 6.5-1 1.8-1.4 4.1-2 8.3-2 5.1 0 5.7-.2 5.7-2 0-3.3 2.7-3.5 5.3-.4 2.7 3.1 4.7 2.6 4.7-1.2 0-1.3.4-2.4.9-2.4s2.6-1.6 4.7-3.5 4.4-3.5 5.1-3.5c2.1 0 8.7-4.9 11-8.2 1.3-1.8 3.7-3.7 5.5-4.2q3.1-1 5.5-5.5c2.2-4.3 6.6-9.1 8.2-9.1q.8-.1 1.5-1.5.4-1.3-.4-1.5-1-.3-.4-1.4t2.8-.9c1.7.4 3.1-.5 5.7-3.4 1.9-2.2 4.2-4.2 5.2-4.6s1.7-1.7 1.7-3.1q0-2.5 2.4-3c2.4-.6 6.6-6.4 6.6-9.2 0-1.2.4-1.2 3.1.2q3.3 1.6 2 2.7c-2.4 2.4-1.3 3.9 2.4 3.3l6.9-1.2c2.8-.5 3.6-1.2 4.1-3.5.4-1.6 1.3-2.9 2.1-2.9s1.4-.5 1.4-1c0-2.4 2.9-.8 3.2 1.7q.2 2.9 2.6 3.1c2.2.3 3-1.2 1.2-2.3-1.2-.8 0-13.8 1.4-14.7 1.8-1.2.9-12.1-1.2-13.8-2.5-2.1-1.6-4.7 2-5.9 1.8-.6 3.9-1.8 4.9-2.7 1.5-1.4 1.7-1.3 2.3 1.1.4 1.5.3 3.2-.2 3.8-.5.7-1.4 2.6-2 4.4-.8 2.5-.8 3.3.4 3.7.8.3 1.4 1.9 1.4 3.7 0 2.3.5 3.2 2 3.6q2 .6 1.9 2.7-.6 6.6 1.9 7.3c2 .7 6.2 4.3 6.2 5.4 0 .4-1.6.5-3.5.2q-7.3-1.2 1.2 5.2l4.7 3.6 3.7-4.1q5.4-6 9.9-3c1.1.7 1.4 2.8 1.2 9.5-.3 9.5.2 10.2 5.9 8.7 2.9-.7 3.5-1.4 4-4.4a16 16 0 0 1 2.7-6.3 11 11 0 0 0 2.2-6.8c0-2.2.7-6.3 1.6-9.2 1.6-4.9 1.6-5.4-.9-14.2-2.8-10.6-2.6-13.9 1.4-16.2 1.7-.9 3.5-3.3 4.4-5.8 1.4-3.6 1.5-4.8.4-7.8-1.6-4.4-.5-5.5 5.6-5.5 3.6 0 4.7-.6 9.1-5.3 10.3-10.7 10.7-11.4 9.9-18-.6-5.7-.5-6.1 2.4-9.1 3.7-3.9 5.3-13.3 2.7-15.5-1.6-1.4-8.6-22.2-8.6-25.6 0-1-1.2-3.7-2.7-5.8-2.6-3.8-2.7-4-.8-5.3 1.1-.8 4.4-1.4 7.9-1.4 7.3 0 8.1-.5 9.1-5a16 16 0 0 1 2.9-6c1.3-1.4 2.8-4.5 3.5-6.9l1.3-4.4-6-8.6a31 31 0 0 0-9.4-10.3c-2.1-1-4.6-3.4-6.1-6l-2.5-4.3L396 734l1.8-22.5-3.5-9.4c-3.6-9.8-3.6-10.4-.9-19.9a18 18 0 0 0 .5-10.2c-.9-4.4-.8-5.3 2-10.9l3.1-6-3.5-7.7c-1.9-4.2-3.5-8.8-3.5-10.2s1.7-4.8 3.8-7.6l3.8-5.1-1.2-6-1.2-5.9 4.3-4.8c2.4-2.7 6.2-8.3 8.5-12.6q8.1-15.3 19.2-19.3l5.8-2.2 10.5 4.8c9.5 4.4 10.6 4.7 13.4 3.5q7.2-3 6.1-23l-.5-10.4-7.2-5.1a27 27 0 0 1-7.3-6.3c0-.7 5.4-10.4 12-21.4 9.6-16 12-20.8 12-23.8 0-2.2.8-4.8 2-6.2q2-2.5 2.5-9.4l2.2-21.2a61 61 0 0 0 .4-20.5c-.6-3.4-1.1-7.6-1-9.2 0-1.7-.1-3.9-.3-5-.3-1.8.4-2 7.2-2.5a28 28 0 0 0 13.8-3.9c7-3.8 9.1-7 7.1-10.7-2.2-4.3-.2-11.7 5.2-18.9 2.9-3.8 6.2-9.9 8.1-14.7 2.4-6.4 4.3-9.6 8.4-14l5.4-5.7v-9.7c0-8.8-.3-10.2-2.7-14.3-3.7-6.4-3.4-10.7 1.3-14.6 3-2.7 4-4.8 7.4-15.9 3.9-12.3 4.2-13.1 10.6-20.2 3.7-4.1 7-7.4 7.5-7.4s4.2 1.3 8.4 3 8 3 8.5 3c1.3 0 8-13.4 8-15.8 0-1-.9-4.5-2-7.7s-2-7.9-2-10.5c0-4.6.1-4.8 3.8-6.3 3.2-1.3 6.1-1.4 16.3-.8 12.2.8 14.7 1.4 30 7.6 1.2.5 2.3-.6 4.2-3.9l2.5-4.6-3.5-2.9-3.6-3 4.2-4.6c6.7-7.3 7.7-12.4 4-21.7l-3-7.5c-.7-2-.4-2.3 2.9-2.9 2-.3 5.4-1.9 7.4-3.5s3.9-2.9 4.1-2.9c.3 0 .8 1.5 1.1 3.4.5 2.8 1.2 3.5 3.6 3.8 2.5.4 3.1.1 3.6-1.9.4-1.3 1.5-3 2.6-3.7 1.9-1.3 1.8-1.5-1.3-6l-3.3-4.6 3.9-4c3.3-3.4 4.5-4 8-4 3.7 0 4.6.6 12.2 8.2 7.5 7.7 8.5 9.1 12.8 19.5 5.2 12.5 5 12.4 17.1 13.9 2.7.4 6.1 1.3 7.7 2.1 2.5 1.3 3.2 1.1 9.4-2.2 3.6-1.9 7.2-3.5 8-3.5s1.3-1.1 1.3-2.9c0-2.8 2.2-6.1 4-6.1.5 0 2.5 1 4.5 2.1s7.1 3.2 11.3 4.4c6.3 1.8 7.9 2.7 9 4.9 1.8 3.5 6.5 3.4 7-.2a5 5 0 0 1 2.4-3.3c1.9-1 2-1.7 1.4-7.6l-.7-6.5 4.6-4.6a24 24 0 0 0 7.5-14.3c0-.9-.9-3.8-2.1-6.3-1.8-4.2-2-6.1-1.6-17.4.9-22.2.9-24.1.3-25.1-.4-.6.2-2.7 1.4-4.8s3.5-7.3 5.4-11.5c3.8-8.4 5.4-9.8 11.6-9.8 3.5 0 5-.7 9.7-4.8 3-2.6 5.8-5.6 6.2-6.6 1-2.4 10.2-5.7 12.5-4.4q1.5 1 1.6 2.8c0 2 4.8 6.5 8 7.5 1.1.4 2.7 1.9 3.4 3.4 1.6 3 9.5 6.1 15.7 6.1 5 0 8.7 3 13.1 10.6l4 6.8-4.1 9.1a60 60 0 0 0-4.7 14c-.5 4.6-.4 5.2 2.4 7.9 1.7 1.6 3.7 2.6 4.4 2.4s2.1-2.8 3.1-5.6c1.5-4 1.7-6.5 1.2-11.4-.7-6.1-.6-6.4 1.9-7.7 1.4-.8 2.8-2.2 3.1-3.1s2.5-3.5 5-5.9c5.3-5 6.4-9 4.1-14.6-1.9-4.6-1.9-4.2 0-4.9q1.7-.5 4.2 1.9c3.1 3.2 6 3.9 11.7 3 3.6-.5 4.8-1.2 6-3.6 1.6-3.1 1.1-5.3-1.9-7.8-.9-.8-2-3-2.6-5-.9-3.4-1.3-3.7-4.7-3.8q-8.3-.3-8.3 2.2c0 2.4-1.5 1.7-3-1.3l-1.6-3q-.2-.2-1.7.4-1.7.5-1.1 3c.8 3-.8 4.9-5.7 7.5-5.1 2.6-5.2 2.5-1.4-1.7 3.3-3.5 3.7-6.9 1.1-8.6-2-1.4-5.5-.8-6.5.9s-1 1.7-1.1.1c0-1.4-.4-1.6-2.4-.8-2.4.9-2.4.8-1.9-2.4.5-3.1.3-3.5-3-4.5-2.8-.9-4.1-.9-5.8-.1q-2.2 1.3-2.8.1c-.4-.6-3.4-1.5-6.7-1.9-5.2-.6-5.9-1-6.2-3.1-.3-2-.1-2.2 1.5-1.5 2.5 1.3 27.1 1.1 31.2-.2 3.3-1 4.5-2.6 8.2-10.7 1.5-3.2 2.8-4.6 9.2-9.3q4.8-3.6 4.3-5.1c-.3-.8-.6-2.7-.6-4.3 0-2.2-.6-3-2.9-3.8s-3.2-.7-4.2.4-1.5 1-3-1.5c-.9-1.6-2.7-3.6-4-4.4-2-1.5-2.5-1.4-7.1.9l-4.9 2.5 1.7-2.5c2-3.2 1.2-5.6-2-5.6-1.9 0-2.3-.4-1.9-2.1.5-1.8.2-2-2.8-1.7-2.9.2-3.4.7-3.7 3-.4 3.4-2.2 3.7-2.2.4 0-1.3-.7-2.9-1.5-3.6-1.2-1-2.2-.6-5.6 2-2.3 1.9-4 2.7-3.9 1.9.5-3.1-.1-6-.9-5.4-.5.3-1.9-.8-3.1-2.5q-2.1-3-5-3c-4.1 0-8 1.7-8.6 3.7-.3 1-1.2 3.1-2 4.6-1.6 3.3-2 21.7-.4 21.7q1 0 1 1c0 .5-1.9 1-4.2 1-3.2 0-4.9.6-7 2.7-3.7 3.5-3.5 2.1.6-5.7 2.9-5.7 3.2-6.9 2.4-10l-1-3.5-1.3 2.6c-.8 1.4-2.5 3-3.9 3.7-3.2 1.4-3.2 1.4-.1-2.8 2.2-3 2.3-3.5.9-4.3-.8-.5-2.6-.6-4-.3-1.3.4-2.4.2-2.4-.3 0-1 3.4-2.1 6.7-2.1 1.7 0 2.9-1.3 4.8-5 3-5.9 3.1-8.6.5-12-1.5-2-2.1-2.3-3.1-1.3q-3 3-2.9-1.6c0-4-.9-4.2-4.9-1.4M708.5 81.2c-1.1 3.6-2.5 4.5-2.5 1.7q0-4 2.2-3.9c.5 0 .6 1 .3 2.2m-89.5 63q0 .8-1 .8-.9-.2-1-2.3-.1-2.6 1-.7c.5.8 1 1.8 1 2.2M608 166q0 2-3 0-2-1.1.8-1 2 0 2.2 1m-44.7 26.5q-.6 1.5-1 1.1-.4-.5.2-1.5c.9-1.6 1.5-1.3.8.4m2.7 9.9a10 10 0 0 1-2.7 2l-2.8 1.7 2.4-2q3.3-3 3.1-1.7m-82.7 129.3c-.7.2-2.1.2-3 0q-1.3-.5 1.2-.5 2.6 0 1.8.5"/><path d="M700.6 43.6c-.5 1.2-1.4 1.4-4.7.9-3.9-.7-4-.6-3 1.3.6 1.1 2 2.4 3.1 2.7 2.8.9 2.5 1.6-1.5 4.8l-3.5 2.8-1.7-3.5c-.9-1.9-2-3.3-2.5-3-1.3.8-.9 4.8.8 7.2 1.3 2 1.3 2.2 0 2.2-.8 0-2-.8-2.5-1.8-.7-1.4-1.9-1.7-5-1.4-3.8.4-4 .6-3.4 3 .5 2.1.3 2.4-1.2 1.8-1-.3-2.4-.1-3.1.5q-1.5 1.2-1.4 0-.2-1-2.5-1.1c-2.1 0-2.3.3-1.6 2.2.7 1.8 1.5 2.2 3.9 2q5.6-.7 3.2 4.9c-1 2.3-1 3.2 0 4.4 1.2 1.4 1.6 1.3 3.6-.6q2.2-2 4-1.5 5.7 2 11.9-5.6a66 66 0 0 0 6-8.8l4.4-8.1c2.2-4.1 2.2-4.3.5-5.6-2.3-1.7-3.1-1.6-3.8.3m-91.4 51.6q-2.8 2.9 1.2 6.7a11 11 0 0 1 2.9 5.1c1 4.8 6.8 5.3 9.6.8 1.2-2 1.2-2.3-.5-3.3-1-.5-4-3.1-6.6-5.8l-5.1-4.7q-.4 0-1.5 1.2m23.3 4.5q-5 7.3.3 10.9c2.3 1.8 3.1 1.9 5.6.9 2.9-1.2 3-1.5 2.7-7.1-.4-9.3-4.1-11.3-8.6-4.7m-34.5-.4q.1 1.5 1.3 2 1 .5-1.6 1.7c-3.4 1.6-3.2 4.4.4 4.8q5.1.5 4.7-6c-.2-2.5-.8-3.4-2.5-3.6q-2.3-.3-2.3 1.1m7 5c0 1.9 2.1 3.7 4.2 3.7 2.5 0 2.3-1.6-.4-3.4q-4-2.9-3.8-.3m-16.4 4.5c-1.3 2.1-1.8 9.2-.7 9.2q1 0 1.1-.9c0-.6 1.2-1.6 2.7-2.3 3.3-1.6 4.5-4.3 1.4-3.3-1.7.5-2.1.2-2.1-1.4 0-2.1-1.4-2.8-2.4-1.3m8.3 3.9v2.5q-.2.8-2.3.8c-3.4 0-4.2 1.7-1.9 4.2 1.8 2.1 1.8 2.1-1.1 1.4-2.4-.6-2.7-.4-2.2.9.3.9.6 2.1.6 2.6s.9.9 1.9.9c1.1 0 3.2 1.6 4.7 3.5q4.6 6.2 9.6 1.3c1.2-1.2 3.5-2.3 5.2-2.5 4.8-.5 5.3-.9 6-4.5l1.3-6.1q.5-2.7-.8-2.7c-.7 0-2.6 1.2-4.3 2.7-2.8 2.7-2.8 2.7-1.3.3 2.2-3.2 2.2-3.3-1.5-4.9-2.8-1.3-3.2-1.2-4.4.3-1.2 1.7-1.3 1.7-2.6-.3-1.6-2.7-6.7-2.9-6.9-.4m13.4 10.3q-.5 1.8-.9 2c-.4.2-.4-.9-.4-2s.4-2 .9-2 .7.9.4 2m31.8-10.6c-1.7 2-.4 5.6 1.8 5.6 2.8 0 4.7-2.8 3.4-4.8-1.4-2.3-3.7-2.6-5.2-.8"/></svg>