<svg xmlns="http://www.w3.org/2000/svg" width="1365.333" height="1365.333" viewBox="0 0 1024 1024"><path d="M176 269.5c-1.9.7-5.8 1.4-8.7 1.4-4.9.1-5.4.3-7.8 3.8-2.1 3.1-2.5 4.9-2.5 10.6 0 6.2-.3 7.2-3.2 10.8q-3.1 4-5.8 3.9c-1.5 0-3.5.9-4.4 1.9-1.5 1.6-1.6 2.5-.6 6.1 1 3.8.9 4.5-.8 6.2-1.8 1.9-2.1 1.9-5 .4-1.7-.9-5.4-4.1-8.3-7.1-4.7-5-21.7-18.5-23.3-18.5-.3 0-.6 1.2-.6 2.7 0 3.7-1 5-5.3 7.6-2 1.2-5.2 4.4-7.1 7.2a33 33 0 0 1-7.8 7.6c-3.6 2.1-4.4 3.1-4.6 6-.2 2-1.5 4.6-3.1 6.4a26 26 0 0 0-3.9 5.7c-.6 1.5-2.9 3.8-5 5.2q-3.9 2.4-8.7 10.6c-5 8.6-9.4 12-15.3 12-2.4 0-3.2.8-5.4 5.4l-2.7 5.4 2.8 3.7 2.8 3.8-2.4 4.3a20 20 0 0 1-5.8 6.4c-2.8 1.7-3.4 2.8-4 7.1-.6 4.5-1 5-3.6 5.6-2.2.4-2.9 1.1-2.9 2.9 0 1.4-1 3-2.5 4q-4.2 2.8-1 7c.8 1 1.5 3.1 1.5 4.6s.9 4.2 2 6a17 17 0 0 1 2 8c0 2.6.4 5.8 1 7.2q1.8 5-4 2.1c-1.6-.8-3-1.3-3-1s1.6 2.7 3.5 5.2 3.5 4.9 3.5 5.4-2 2.4-4.4 4.4q-4.5 3.6-5.1 6.8c-1.7 8.5-2.6 10.4-4.9 11.5-1.4.6-4.5 3.7-7.1 6.9-5.1 6.6-5.8 10.3-2.4 13.9 1.8 1.9 2.9 2.2 6.3 1.8 3.6-.5 4.4-.2 7 2.5q3 3.1 6 3.1c2.4 0 3.5.7 4.7 2.9A45 45 0 0 0 40.9 518c1.3 0 11.5 6.4 15.4 9.7 1.6 1.2 3.5 2.3 4.3 2.3 1.3 0 1.3-2.7 0-12.4 0-.5 1.9-1.6 4.5-2.4 4.4-1.4 4.6-1.4 10 1.8 2.9 1.8 6.5 4.5 7.9 6 1.4 1.4 4.5 3.4 7 4.4s6.6 3.1 9.2 4.8c3.9 2.5 5.6 2.9 9.9 2.7 4.6-.3 5.4 0 7.4 2.5 2.1 2.6 2.4 2.7 7.2 1.8 6.3-1.1 10.3.6 10.3 4.3q0 2.3 1.2 2.5c.6 0 4.5 1.7 8.6 3.7 6.3 3.1 7.7 4.2 9.2 7.7 1 2.3 4.5 8.4 7.8 13.6 6 9.7 8.5 11.6 11.7 9 1-.9 2.6-.7 6.6.7s5.5 2.5 6.5 4.8c1 2.4 3.4 4.1 12.6 8.7a180 180 0 0 0 16.2 7.3q5 1.7 6.7 5a10 10 0 0 0 5.8 4.4c2.1.6 4.2 1.8 4.5 2.6s1.8 1.5 3.5 1.5c2.4 0 3.6-.9 6.2-4.5l3.2-4.5h7.7c6.9 0 7.9.3 10 2.5 1.8 2 3.3 2.5 7 2.5 4 0 5.1.5 8 3.5 1.9 2 4.4 3.5 5.7 3.5s7.3 3.3 13.4 7.3l11.1 7.4 14.5-4.4c15.3-4.7 17.3-4.7 17.3.1a15 15 0 0 0 2.7 6.1q2.7 4 3.8 11c1.3 9.3 3 10.2 13.8 7.8l7.5-1.6 3 2.5c2.4 2 4.5 2.6 10.7 3.1 4.6.4 9.4.2 12.1-.4 4.1-1.1 4.7-1 6.8 1a8 8 0 0 0 4.4 2.1q2.2-.1 3.9 3.7c2.1 4.4 7 7.3 12.4 7.3 3 0 3.9-.6 6-3.7 1.3-2.1 3.8-4.5 5.6-5.3 3-1.4 3.1-1.6 1.8-4-1.9-3.3-1.8-3.7.4-5.9 1.4-1.4 4-2.1 9.3-2.6 8.3-.8 16 1 25.9 6.1 4.1 2 15.2 6.4 16.4 6.4.1 0 2.2-2.9 4.6-6.5 3.4-4.9 5-6.5 6.8-6.5q2.4 0 9.2-6.5c3.7-3.6 7.2-6.5 7.8-6.5s1.7 1.2 2.5 2.7q1.3 2.9 7.6 5.3c6.3 2.4 6.6 3.3 7.3 5 .7 1.4 1.6 2.8 2 3.1.5.4 7.3 1 15.1 1.4 18.5.9 20.3 1.3 27.3 7.1 6.7 5.5 6.7 5.6 8 22.5l.6 8.6 5.7 3.1c4.5 2.5 7 3.2 11.2 3.2 4.7 0 5.8.4 8.3 3 2.3 2.4 3.7 3 7.2 3 3.9 0 4.5.3 6 3.4 1.2 2.6 2.4 3.6 4.9 4.1q3.5.5 3.4 2.4c0 1 1.2 2.6 2.6 3.6 2.2 1.4 2.7 1.5 3.7.2 1.3-1.5 12.1-2.9 15.7-2 1.6.4 2 1.4 2 4.3 0 2.2-.7 4.5-1.6 5.4-1.4 1.5-1.3 1.7 1.7 3A26 26 0 0 0 673 727c1.4-1 6.6-3.7 11.5-5.9a37 37 0 0 0 11.6-7.5c1.6-1.9 4.4-3.7 6.9-4.5 3.9-1.2 4.2-1.1 6.1 1.3 1.5 2 3 2.6 5.8 2.6 3 0 4 .5 5.4 2.9.9 1.6 1.7 3.7 1.7 4.6 0 1 .9 5.7 2.1 10.6 1.8 7.9 2.3 8.9 4.3 8.9 1.2 0 3.2.7 4.4 1.6a7 7 0 0 0 4.8 1.1c2-.3 2.4 0 2.4 1.9 0 3.4 2.6 3 4.5-.6.8-1.6 2.9-3.7 4.5-4.5 1.7-.9 3-2.4 3-3.4q0-2 4.5-3.7c4.2-1.6 4.6-1.6 6.4 0 1 .9 3.6 2 5.7 2.3 2.2.3 4.7 1.2 5.6 2.1 1.4 1.1 2.9 1.3 7 .7 11.1-1.6 24.3-.4 27.1 2.4.6.6 2.9 1.1 5.2 1.1 2.2 0 4.9.7 5.9 1.5a9 9 0 0 0 4.4 1.5c1.4 0 4.8 2 8.3 4.9 6.6 5.5 11.2 6.8 20.1 5.8 7.8-1 19.2-6.9 22.4-11.6 1.4-2.2 3.8-4.4 5.3-5.1 1.6-.6 3.8-2.4 5-4.1s2.6-2.9 3-2.9c.5 0 1.9 2.9 3.1 6.5 3 8.9 5.6 11.8 12.6 13.8 4.9 1.4 5.9 1.4 6.8.2s1.9-1.2 5.6-.2c2.5.7 5.6 2 7 3 2.4 1.7 2.6 1.7 4-.2.8-1 2.2-3.2 3.1-4.8 1.4-2.6 2.4-3.1 9.1-4.3 7.1-1.2 8-1.1 14.2 1l6.6 2.2 2.9-2.4c1.7-1.3 3-3.1 3-4.1.1-2.1 3.4-2.3 5.1-.2.7.8 2.7 1.5 4.5 1.5 2.9 0 3.3-.4 3.9-3.5.7-3.4.7-3.4 5.1-2.8q4.5.5 6-.7c1.3-1.1 1.7-.8 2.5 1.7.8 2.1 2.9 4 7.5 6.6l6.8 3.7c.3 0 2.3-3.1 4.6-6.8q4-6.8 4.1-10.3c0-6.5 2.1-15.2 5.2-21.3 3-5.9 3-6.2 2.3-16-.7-10-.8-10.2-5.6-17.4-5.1-7.7-5.2-8-4.9-12.4.1-2.8-3.3-6-11.2-10.2-3.6-1.9-3.7-2.2-4.9-10.5-1.4-9.8 0-23.2 2.7-26.2 1.5-1.7 1.5-2.1-.5-5.2-1.7-2.8-2.1-5-2.1-12 0-8 .2-8.9 3.5-14.4a86 86 0 0 0 6-13.3c2.1-6.2 2.5-8.6 1.9-13.6-.5-4.9-.3-6.7 1.1-8.8 2.4-3.7 1.6-10.6-1.9-14.6a18 18 0 0 1-3.2-5.6l-.6-2.5-2.4 2.2c-1.3 1.2-2.4 3.1-2.4 4.1q0 3.6-7.7-.4c-3.8-2-4.4-2.1-6.9-.8a19 19 0 0 0-5.3 5.8c-4.1 6.9-4.4 7.2-6.8 6.6q-2.4-.6-2.3-3.4c0-2.5-.5-2.9-3.8-3.5-2.2-.3-5.4-.1-7.7.7-3.2 1-4.4 2.2-6.1 5.7-3.5 7.2-9.7 8.8-16.2 4.2-4.1-2.9-7.1-2.6-12.2 1-3.7 2.7-4.9 3.1-8.8 2.6-3.7-.4-5.3 0-8.1 1.9-3 2-4.8 2.4-11.7 2.4-8 0-8.3-.1-14.7-4.5-13.3-9.1-16.2-10.5-21.9-10.3q-5.4.3-10.3-2c-2.7-1.1-8.4-3.2-12.5-4.4-7-2.1-7.6-2.6-9.5-6.4-2.7-5.5-4.4-7.4-6.6-7.4q-2 0-1.9 2.3c0 4.5-4.1 6-9 3.3-5.3-3-8.4 2.5-7 12.6 1.4 9.6-1.3 12-14.5 12.9l-9 .6-5.4-4.1c-5.9-4.4-6.5-5.6-7.5-13.7a22 22 0 0 0-2-7.4c-2-2.7-7-1.1-10.6 3.5-2.9 3.7-3 4.1-3 13.9 0 9.4-.2 10.4-2.4 12.6s-2.8 2.2-6.6 1.4a30 30 0 0 1-12.7-6.1c-.5-.7-1.3-2.2-1.6-3.3-1.1-4.2-8.3-19.2-10.2-21.7a20 20 0 0 0-4.5-3.8c-3.3-1.7-7.9-7.1-8-9.2 0-1-.9-4.2-2-7.2-1.9-5.1-2.2-5.4-4.7-4.7-2 .5-2.9 1.6-3.6 4.2-.5 1.9-1.2 3.8-1.6 4.2-1.2 1.2-10-1.1-12.9-3.3-3.8-3.1-10.4-2.6-17.7 1.1l-6 3.1-13.5-.6c-12.1-.5-13.8-.9-17.2-3.1-7.4-4.9-8-7.6-3.9-18.5s1.8-19.6-5.7-21.8c-7.7-2.3-11.4-.7-13.3 5.9-1.6 5.1-3.7 6.2-11.9 6.2-8.3 0-10.9-1.3-21.3-11-9.3-8.5-11.9-9.9-19.8-10.8-4.9-.5-6.3-1.2-11.2-5.5-5.7-5.2-9.2-7-13.2-7-3.8 0-7.5-3.9-8.1-8.5-1-8.1-3.8-14.8-6.7-16.4q-2.8-1.6-3.3-5.2-.5-3.7-3.1-4.8c-2.6-1.2-2.7-1.4-.7-10.9.6-2.9.4-3.3-2.7-4.6a30 30 0 0 1-7.4-5.5 19 19 0 0 0-4.7-4.1c-.5 0-1.8 1.1-3 2.5-2.7 3.1-4.1 3.1-9.5-.1-4.8-2.8-6.8-2.6-11.8 1a40 40 0 0 1-5.7 3.5q-2.6 1.4-2.8 2c-.2 2.3-5.5 6.5-10.1 8s-5.5 2.3-6.3 4.9q-.8 3.1-2.6 3.2a44 44 0 0 1-10.1-6l-10.2-7.2c-1.1-.7-2.4-3.9-3.2-7.3-1.3-5.6-2-6.6-9.5-13.8-4.5-4.2-9-7.7-10-7.7q-5.2.1-5-4.1c0-2.3-.9-3.5-4.1-5.6-3.4-2.2-4.4-2.5-6-1.5-1.4.9-2.5.9-4.3.1-1.9-.9-2.9-.8-4.7.5-3.5 2.4-6.6 2-8.2-1q-1.2-2.6-9.3-6c-6.7-3-8.9-3.5-14.6-3.3s-7.3-.2-11.2-2.5c-5.6-3.3-6.2-4.2-3.6-5.6 1.1-.6 2-2 2-3.1 0-1.6-1.9-2.9-8.6-6a29 29 0 0 1-9.1-5.7 16 16 0 0 0-15-10.2c-2.9 0-5.3-.4-5.3-.9 0-1.9-6.7-4.9-12.5-5.6-6.3-.7-17.2-4-19.2-5.9-.9-.8-.9-2.1 0-5.4l1.1-4.2-9.4-9.5-9.5-9.5-9 .1c-7.5.2-10.5-.3-17.5-2.6-10.2-3.4-27.9-4.4-34-2"/></svg>