<svg xmlns="http://www.w3.org/2000/svg" width="1365.333" height="1365.333" viewBox="0 0 1024 1024"><path d="M544.5 1q-.8 1.2-4.2.5c-2.6-.5-4-.2-5.4 1.1-1.7 1.5-2.5 1.6-5.3.6-4.6-1.7-6.3-1.5-6.9.9-.4 1.5.5 3 3.5 5.7a98 98 0 0 1 21.6 24.7 96 96 0 0 0 4.8 7.6 34 34 0 0 1 4.4 14.5c0 3.5-2.2 5.9-4.5 5-3-1.1-2.8 2.5.3 5.7 1.7 1.8 4 5.4 5.3 8.2a28 28 0 0 0 7.5 9.5c2.9 2.5 5.3 5.2 5.3 6.1.1.9.8 2.2 1.6 2.9s1.5 2 1.5 2.9c0 1 5 7.5 11.1 14.5 13.2 15.4 26.1 34.3 28.1 41.1 1.3 4.7 1.6 5 4.8 5.2 1.9.2 4.3-.3 5.2-1.1 1.6-1.2 1.7-1.6.3-4.4a10 10 0 0 0-2.9-3.5c-.8-.3-2.9-2.7-4.7-5.3q-3.4-5-1.5-4.1 1.7.6 2.6.7c.4 0 2.7 1.6 5 3.5 6.1 5.1 11 4.7 5.5-.5-2.7-2.5-3.3-5-1.2-5 .7 0 2.1 1.6 3.1 3.5 1.1 1.9 2.5 3.5 3.2 3.5s1.8.9 2.4 2 1.8 2 2.6 2q1.4 0 1.2 1.2c-.8 2.2-2.4 1.9-3.8-.7-1.6-3-4.5-3.4-3.7-.5q.4 1.8-.4 2-1 .5-.9 3.5c0 2.9.4 3.6 2.7 4.1 1.4.4 3.4.2 4.4-.5s2.1-1.1 2.4-1.1.5 4.5.5 10c0 9.2-.1 10-1.9 10-2.8 0-3.7-2.1-1.6-3.6 1.7-1.3 1.6-1.5-1.7-2.8q-3.5-1.5-4.1-3.8c-.4-1.3-1.3-3.2-2-4.3-1.3-1.6-1.7-1.7-3.1-.6q-1.5 1.1-1.6.5c0-1.3-2 1.9-2 3.3 0 .6 2.1 3.5 4.6 6.5a67 67 0 0 1 13.6 25.5q3 16.4 7.8 10.8c.7-.9 1.9-1.4 2.7-1.1q1.2.4 1.3-.9c0-1.8 4.3-4.1 9.5-4.9q4.4-.6 1.8.4-2.1.9-2.3 1.5c0 1.9 2.3 4.5 3.9 4.5 1 0 3.4.6 5.2 1.4 3.5 1.5 3.2 1.8-2.3 3-4.2.9-9 5.5-8.2 7.8q.6 2.1-.7 1.6c-.8-.3-1.5-1.9-1.7-3.6s-.7-3.2-1.3-3.2q-.8-.2-.6-2.3c.2-1.9-.3-2.2-3.5-2.5-2.1-.2-3.8.1-3.8.5s2 5.9 4.5 12a265 265 0 0 1 10.9 33.6c1.4 4.8 2.6 9.8 2.6 11.1 0 2 .4 2.2 2.6 1.8 1.4-.2 2.8-1.1 3.1-1.8.8-2.2 3.2-1.7 2.6.5q-.3 2-4.9 2.4c-6.5.7-7.6 2-6.8 8.1q1.2 10.2 4.5 5.4c1.6-2 1.9-2.1 2.4-.6q1.3 3.7-3.1 3.8c-2 0-2.4.5-2.4 3.1v3l3-1.8c2.3-1.3 3.3-1.4 4.1-.6 2.2 2.2-.9 4.5-5.5 4.2-7.6-.6-8.2.1-7.8 8.6.3 5.8.1 8-1.1 9.3-1 1.2-1.7 5.2-2.2 13.2-.4 6.3-1.3 14.6-2.1 18.5-1.4 6.5-1.9 7.5-7.7 13.2l-6.1 6.3H632c-5.5 0-7.2.4-11 3-2.5 1.6-5.2 3-6.1 3s-2.2.6-2.8 1.4-3.8 2.5-7 4c-4.9 2.2-6.3 3.4-8 6.9a20 20 0 0 0-2.1 6c0 3.1 3.3 10.2 6.7 14.4a21 21 0 0 0 15.3 8.8c10.6 1.1 16.4 3.4 19 7.2a22 22 0 0 0 5 5.1c1.4.8 3.9 3 5.7 4.9s4.2 3.3 5.5 3.3 3.4.7 4.6 1.6c1.4.9 3.4 1.4 5 1.1 4.8-.9 12.5 2.9 18.5 9.1 12.2 12.9 14.6 24.8 9.4 46.7a58 58 0 0 1-10.8 22.1c-1.6 1.5-2.9 3.7-2.9 4.8q-.3 4.5-5.2 8.6c-1.6 1.2-2.8 2.8-2.8 3.7 0 .8-3.4 4.8-7.6 8.7-8.4 7.9-9.2 10.7-4.3 13.5 2.3 1.3 3.3 1.3 6.8.1q4.2-1.3 4.1-3.2 0-1.8-.9-1.3t-1.6-.6c-.8-1.3 2.3-3.8 4.8-3.9 2.2 0 2.3 4.1.2 7.4-1.1 1.7-1.3 3-.6 4.8 1.4 3.7 3.7 4.1 8.4 1.4 4.4-2.4 8.9-2.8 10.9-.8q1.2 1.1 2.6 1.2c1.1 0 1.3.9.8 3.9-.7 4.7 1.4 11.5 3.8 11.9 2.2.5 11.1-3.3 15.2-6.4 1.7-1.3 3.6-2.4 4.2-2.4s2.9-1.5 5-3.4 5-3.8 6.5-4.1c1.4-.4 4.5-2.8 6.9-5.3 2.3-2.6 5.5-5.5 7-6.4s2.8-2.3 2.8-3 1.5-3.2 3.4-5.5 4.1-6.3 5.1-9c1-2.6 3.2-6.4 5-8.3s3.6-5.1 4-7c1.2-5.5 5.3-13 7.3-13 1-.1 3.4-2.7 5.6-6.1 2.3-3.6 5-6.5 6.5-7 5.4-1.9 5.9-2.9 9-16.3q.7-2.9 5-6.1c6.1-4.2 7.9-7 9.2-14 .6-3.3 2.4-8.5 4-11.6s2.9-6.7 2.9-8c0-2.4 1.3-4.9 5.8-10.8l2.3-3.1h-3.9c-5 0-7.2-2.3-7.2-7.8 0-3.5-.3-4.2-2-4.2-3.9 0-1.9-7.7 3.5-13.8 2.4-2.6 4.5-5.9 4.7-7.2.4-3.1 7.1-6.9 18.1-10.5 6.2-2 9.9-2.5 17.7-2.5 6.1 0 10.1.4 10.6 1.1.4.6 1.9.9 3.6.5 3.3-.6 4.8 1.4 2.8 3.9q-1.6 1.8.6 9.7c.8 2.9 2.4 2.1 4-2 .9-2 2.5-4.7 3.6-5.9 2-2.2 1.7-4.3-.6-4.3-2.8 0-3.3-2.5-2.4-12.5.5-5.4 1.4-10.5 1.9-11.1.5-.7.7-2.3.4-3.6-.7-2.7 2.7-6.8 4-4.9 1.1 2 4.2 1.2 5.3-1.4q1.2-2.4 3.2-2.5 1.8-.1 2-.8c0-.5 1.8-2.6 4-4.8q4-3.9 4-6.5c0-1.5 1.1-3.5 2.7-4.9l2.7-2.3-2.3-.9q-2.6-.7-1.2-2.2c.6-.7.8-1.6.4-1.9q-.4-.7.6-2.1 1.3-1.4.1-2.1c-1.5-.9-1.2-4.1.5-5.5 1.4-1.2 1.4-1.5 0-3-2.1-2.3-1.9-3.5.7-5.2 2.1-1.4 2.2-1.7.8-4.2-1.2-2.4-1.2-3 .3-5.5.9-1.6 1.7-4 1.7-5.4 0-2.4 6.8-13.8 9-15.2.5-.3 1-1.5 1-2.5 0-2.4-4.5-4.8-10.5-5.7-3.7-.5-4.6-1-5.1-2.9q-.8-2.3-2.3-2.4-1.7 0-2.5-.7c-.8-.7-4.1-.8-8.2-.8-7.2-.1-7.6 0-9.2 2.7-.9 1.5-2.8 3-4.3 3.3-1.5.4-3 1.3-3.3 2.1s-1.4 1.4-2.5 1.4-2.3.4-2.6 1-1.5 1-2.7 1q-2 0-1.5 1.4c.5 1.4-.4 2.1-1.9 3-1.3.9-2.4 2.5-2.4 3.6 0 1-.8 2.1-1.8 2.4s-2.8 2.4-4.2 4.6a26 26 0 0 1-6.3 6.5c-3.3 2.1-5 2.5-11.7 2.5-6.4 0-8.1.3-8.9 1.7-.8 1.5-1.3 1.5-3.7.4q-3-1.2-1.5-2.1c2-1.2-3.8-4-8.2-4-1.8 0-4.2-.7-5.3-1.5s-2.6-1.5-3.4-1.5c-2 0-15.1-6.3-21-10-2.5-1.5-6.1-3.1-8-3.5s-5.8-2.5-8.6-4.6c-5.1-3.7-7.9-4.2-4.8-.8.9 1 1.3 2.3.9 2.8-1 1.7-2.3 1.3-2.1-.7q.1-1.7-1.7-1.4c-1 .2-3.8-.7-6.2-1.9-4.7-2.4-7.1-6.3-6-9.8q.6-2-.4-2.1-1.3-.2-1.1-1.5c.2-1.3.5-1.5 1.1-1.5 1.4 0 .3-7-1.9-11.9-.9-2-1.9-7.7-2.3-12.6q-1.2-16.2-3-18c-.5-.5-.9-2.1-.9-3.6 0-3.7-2.1-5.2-5.4-3.9-1.4.5-2.6 1.4-2.6 2q-.1.9-1 1c-2.7 0 4-7.9 6.8-8q1.3-.1 1-2.3c-.3-2.3-2.3-2.6-8-1.2-3.8 1-9-2.9-8.1-6.2.9-3.8-3.6-11.6-6.1-10.7-.7.3-1.9-.2-2.6-1.1-.7-.8-2.5-1.5-4.1-1.5-2.5 0-2.9.4-2.9 2.9 0 2.1.9 3.6 3.5 5.5 2.9 2.3 3.4 3.2 3.4 6.9.1 8.9.2 9.8 1.6 8.7q1.2-1.2 1.9.6c.9 2.3.8 2.4-1.8 2.4q-5.9 0-.2 10.5c1.8 3.3 3.6 7.8 3.9 10s.8 4.7 1.2 5.7q.8 1.6-2.2 3.2c-6.9 3.7-7.5 3.8-10 1.5-1.9-1.9-2.3-3.2-2.3-8.1s-.5-6.6-2.5-9.3c-2.8-3.6-8.3-5.1-11.9-3.2q-2.2 1.3-1.2-.8c.3-1 .1-2.4-.5-3.1-1.3-1.6-6.4-1.9-5.4-.4 1.3 2-2.4.9-3.9-1.2-1.4-1.9-1.6-1.9-2.2-.5-.8 2.1-2.4 2.2-2.4.3s-9.9-3.3-11-1.6q-.8 1.4-2-1c-1.3-2.5-.8-3.6 1.2-2.4 1.5.9 8.8 1.3 8.8.5 0-.4-1.1-3.3-2.5-6.6l-2.4-6 3.4-1.8c4.3-2.2 4.6-4 .5-2.5q-6.8 2.3-5.6-3.4c.3-1.7.1-3.7-.5-4.4-.9-1.1-.5-1.6 1.5-2.4 2.9-1.1 3.4-2.8 1.1-3.6s-.1-3.1 3.8-4c3.1-.6 3.1-.7.8-1.5q-2.3-.9-1.7-2.4l1.2-2.9q.4-1.4-1.5-2.1c-3-.9-7.7-6.9-12.6-15.7-.5-1-1.7-1.8-2.7-1.8-.9 0-2.6-1.2-3.8-2.8-1.9-2.3-2.1-3.5-1.6-8.4.6-6.1.1-6.8-5.4-6.8q-2.8.1-3.4-2.3c-1-3.6-.7-3.8 2.7-1.7 1.7 1.1 3.8 2 4.5 2s2.4 1.2 3.7 2.6c1.5 1.6 3.1 2.4 4 2 1.7-.6 2-2.2.5-3.1-1.4-.9-1.2-6.2.3-6.8q1-.5-.5-.6c-2.6-.1-3.9-3.4-3.2-8.5.6-3.8.4-4.6-1-4.6q-1.6 0-1.6-2.4c0-1.3-.7-2.6-1.5-3s-1.5-1.7-1.5-3.1q0-2.6-1.8-2.5-3.9-.1-2.2-2.5.9-1-2-4.5c-2.3-2.7-2.8-4-2.3-6.4.3-1.7 1-3.7 1.6-4.4q1.1-1.3-1.2-1.2-2 0-2.1 1.6.2 1.8-2.5 1c-2-.5-2.6-.2-3.1 1.9-.5 2.2-1.1 2.5-3.8 2.3q-3.1-.3-3.7-2.3c-.6-2-1.3-1.9-3-1.8-2 .3-2.4-.2-2.6-2.3q-.2-2.8 1-1.5c1.3 1.3 5.4 1.5 6.2.2.9-1.5-3.7-4.1-7.2-4.1-2.5 0-3.3-.4-3.3-1.8 0-2-2.9-5.2-4.7-5.2q-1-.1-2.3-1.5-1.3-1.6-4.1-1c-2 .5-3.3.1-4.8-1.4-1.2-1.2-3-2.1-4-2.1-1.1 0-2.3-.5-2.6-1s-1.7-1-3-1q-2.5 0-3.1 2.4c-.7 3-2.9 4-5.4 2.6-4.4-2.4-4.9-8.3-.9-9.3 2.1-.6 2.1-.6.2-3.1-2.2-3.1-2.9-3.2-3.6-.6q-.6 1.9-2.6 2c-3 0-3.6 2.4-1.5 6 2.1 3.5 1.1 6.3-2.5 6.8-3 .5-3.8-2.5-1.7-6.1.9-1.6 1.5-3 1.4-3.1l-3.1-1.4a6 6 0 0 1-3.3-4.1c-.3-1.5-2.4-5-4.5-7.7a53 53 0 0 1-5.7-8.7q-1.7-3.7-5-4.9t-2.7-2.6c.3-.7.5-1.9.5-2.5s1-.1 2.3 1.1c2.8 2.6 3.7 2 3.7-2.5q0-3.4 1.6-3.3c2 0 1.3-2.4-.8-2.8q-1.5-.2-2.3.8m50.9 51.5q-.7 1.3-1.6 1.5-.9 0 .2-1.5 1.2-1.4 1.6-1.5c.4-.1.1.7-.2 1.5m-20.5 30.2-3.1 3.7q-.8.7-.8-1.1c0-2.5 2.5-5.3 4.7-5.3 1.3 0 1.2.6-.8 2.7"/><path d="M701.1 131.3c-.6.6-1.1 2.1-1.1 3.4s-.4 2.3-.9 2.3q-.7.2-.7 2.2.3 2.1 1.6 2.3t1.2 1.8c-.4 2.1 8.6 10.9 10.8 10.5 2.4-.5 2.4-4.5.1-6-2.2-1.3-2.8-4.3-1.1-5.3s1.1-2.5-1.3-3.6a9 9 0 0 1-3.7-4.5q-2.3-5.6-4.9-3.1m-19.4 10.4c-.4.3-.7 1.5-.7 2.5 0 2.6 2.4 1.7 2.8-1 .3-2.1-.8-2.9-2.1-1.5m-9.7 44.1q-.2 1-2.5 2c-2.9 1.3-3.3 3.2-.7 3.2 1.7 0 6.2-3.8 6.2-5.3q-.2-.6-1.5-.7c-1.3-.1-1.5.4-1.5.8m14.8.9q-1.6.5-1.8 1.4c-.2.9-1 .9-2.2.8-3.5-.3-5.8 0-5.8.8 0 1.3 8.9 4.6 10.5 3.9q1.5-.5 1.5 1.3c0 1 .7 2.4 1.5 3.1 1.3 1.1 1.5.8 1.5-1.9 0-1.7-.5-3.1-1.1-3.1s-.9-1.4-.7-3.2c.3-3.2-.4-3.9-3.4-3.1m57.2 59.4c0 .9.7 2.2 1.5 2.9s1.5 2.3 1.5 3.6c0 3 4.3 5.5 6.2 3.6 1-1 .1-2.4-4-6.5q-5-5-5.2-3.6m-225.2 241c-3 2.2-3.8 4.5-1.3 3.5 2.2-.8 1.8 1.2-.4 2.4q-3.8 2-2.6 0 .4-1-.8-1c-1.2 0-4.8 3-8.9 6.7s-9.7 8.4-12.4 10.3l-4.9 3.5-.5 15.5a95 95 0 0 1-3 24.4c0 1.9-.7 4-1.7 4.7s-4.2 5-7.4 9.4-6.7 8.8-7.6 9.8c-2.9 3-8.4 5.4-14.1 6.1-9.2 1.2-10 1.8-9.5 6.9.5 3.7.2 4.8-1.6 6.3q-2.1 1.8-2.1 5.6c0 2.1-.4 3.8-1 3.8q-.9.2-1 2c0 1.2-.9 3-1.9 4.1-1.4 1.5-2 3.9-2.3 8.9-.3 5.9-.8 7.4-3.5 10.8a23 23 0 0 0-3.9 6.8 65 65 0 0 1-15.6 23.2 71 71 0 0 0-8.6 9.4q-1.6 2.6-2.5 2.8-1.5.5-5.7 4.1a34 34 0 0 1-11.1 6 57 57 0 0 0-10.8 4.9c-2.4 1.7-4.9 3-5.5 3-1.2 0-6.6 5-6.6 6.2q.2.7 1.8.8c1.5.1 1.5.2-.2 1.5a8 8 0 0 1-3.3 1.5c-1.8 0-12.1 7.8-13.3 10-.5 1-2.7 2-4.9 2.4-3.9.6-8.3 4.4-9.5 8.4-.8 2.3-9.4 7.8-11.6 7.4-.9-.1-2.3.4-3 1.3s-2.6 1.5-4.2 1.5c-3 0-13.4 5.6-20.3 11l-7 5.4c-1.6 1.3-4.6 3.1-6.5 4.1s-5.2 3.3-7.3 5.1c-3.1 2.9-4.5 3.4-8.6 3.4q-5 0-5.5-1.5c-.5-1.4-1.1-1.3-4.5.5-2.2 1.1-5.1 2-6.3 2-4.3 0-6.3 1.1-8.8 4.8a33 33 0 0 1-12.7 11.3c-5.7 3.3-6.1 4-3.9 5.9 2.2 1.7.8 4-2.4 4q-2.9 0-3.5 1.8c-.3 1.1-1.6 2.4-2.9 3-2.8 1.2-8.5 8.3-7.9 9.8.8 2.2-1.6 6.4-3.6 6.4-3.4 0-9.1 3.2-9.1 5.1q-.1 1.7-2.2 2.1-2.3.4-2.6 2.5c-.3 2.1-1 2.3-2.2 2.3q-1.7.1-2.4 1.5t-2.3 1.5c-1 .1-2.9.9-4.1 2-2.4 1.9-2.4 2-.7 7 .9 2.7 1.5 5.5 1.3 6.2-.3.7-1-.9-1.7-3.4-2.1-7.6-6.6-7.3-11.9.6l-3 4.5 2.1 1.5q3.3 2.1-.7.4c-2.5-1.1-3-1-4.6 1-1 1.2-2.3 2.2-2.8 2.2s-1.6.7-2.3 1.6c-1.1 1.4-.9 1.9 1.4 3.6 1.5 1.1 2.7 2.4 2.7 2.9s-.9 0-2.1-1.2c-1.1-1.1-2.6-1.8-3.2-1.6-1.4.4-1.6 7-.3 10.6 1.3 3.7-1.3 1.5-3-2.6l-1.5-3.4-1.9 2.3c-1.6 2-1.7 2.5-.4 3.9q3.1 3.1-1 2.2c-3.1-.6-6.6 1.3-6.6 3.7 0 1-.6 2.5-1.3 3.2s-1.9 2.9-2.7 4.8-1.7 3.7-2.2 4a9 9 0 0 0-1.4 3.8q-1 6.2 5.9 2.7a11 11 0 0 1 5.2-1.3q2.2.4-3.2 2.2c-4.1 1.4-5.3 2.2-5.4 3.9s-.2 1.8-.6.5q-.5-1.8-3.2-1.8c-5.6 0-8.5 1.9-11.5 7.3l-2.8 5.2 4.1-3.9 4-3.9 1 2.4c.8 2.2.5 2.5-2.4 3.4-4.4 1.3-5.9 3-2 2.1l6.5-1.2a59 59 0 0 1 14-2c6.9-.4 7.3-.3 5.6 1.1q-2 1.5-8.2 1.5c-3.4 0-7.8.7-9.7 1.5-2 .8-4.8 1.5-6.1 1.5-3.3 0-7.6 3.9-7.7 7-.1 1.4.6 4.2 1.5 6.3 1.5 3.3 1.9 3.7 4.4 3.1 1.5-.4 3.6-1.5 4.8-2.5a8 8 0 0 1 5-1.9l2.9.1-3 1.5c-3.9 2.1-5.5 4.2-5.5 7.2q-.1 2.8 1.3 1.3 1.4-1.1 2.5.1c.9.9 1.5.7 2.6-.8 1.4-1.8 1.5-1.8 2.1-.1.8 1.9-1 4.7-3 4.7q-1.3-.1-1.7-1.1t-1.7.5c-3 3.6 9.4 10.7 13.8 7.9q1.5-1 5.3.3c2 .7 7 1.5 11 1.9l13.1 1.1c5.5.5 5.7.4 5.7-1.9 0-6.2 9.2-7.8 16.3-2.8 5.5 3.8 8.1 6.7 6.8 7.6-1.6.9-1.3 2.5.4 2.5.8 0 1.5.9 1.5 1.9 0 1.5.9 2 4.8 2.3 2.9.3 5.2 0 6-.7 1.1-1 2.3-1 4.9-.2 3 .9 3.7.8 4.8-.6 1.1-1.6 1.5-1.6 5.1-.1 5.1 2.1 7.2 4.1 9 8.3s1.8 3.9-.8 4.3c-2.2.3-2.2.5 1.3 4.2 3.6 3.9 3.6 3.9 10.4 3.7 3.8-.1 8.4-.9 10.3-1.7s6.3-1.4 9.8-1.4c5.5 0 6.4.3 6.4 1.8 0 4.2 2.1 5.3 10.9 5.5 6.9.1 8.5-.2 9.6-1.6s1.3-1.6 1.9-.2c.6 1.7 4.1 2 5.1.5.3-.6 2.1-1 3.8-1 5 0 9.8-1.7 11.5-4.1 1.2-1.7 2.2-2 4.8-1.6q3.3.6 4.4-.8c.6-.8 2.5-1.7 4.2-2s3.2-1.5 3.5-2.4c.2-1 2-2.4 3.9-3.1q3.6-1.4 2.9-2.9c-.4-.9-.9-2.8-1.2-4.2-.4-2.3-.1-2.7 2.6-3.2 3.5-.7 21.7-13 23.1-15.7.6-1 1-3 1-4.5 0-6 12.3-12.6 24.3-13 5.9-.2 7.1-.6 9.2-2.9 2.8-3 3.4-7.6 1-7.6q-1.5-.1-2.2-1.6c-.3-.8-1.7-2-3-2.5-2.4-.9-2.4-1-.9-3.2.9-1.2 2-3.1 2.5-4.2s1.7-2.7 2.6-3.5c2.8-2.3 7.5-9.7 7.5-11.9 0-1.1.8-2.4 1.8-3 1.4-.8 1.5-1.3.5-3a10 10 0 0 1-1.3-3.8c.1-2.8 3.8-10.5 6.5-13.3l5.8-6c3.4-3.5 7.7-9.3 7.7-10.4 0-.3-1.5-1-3.2-1.5l-3.3-.9 3.7-.1c3.4-.1 3.8-.4 4.3-3.4.6-2.9.7-9.1.4-19.9q-.1-3.7 2.9-8.7c1.7-2.7 3.2-6.6 3.4-8.7.3-3.3 1.3-4.6 7.8-10.3 5.9-5.2 7.5-7.1 7.3-9.1q-.1-2.1.4-.8.4 1.6 1.5 1.8a92 92 0 0 0 17.8-10.2q.1-.6 1.3-.3c.6.3 4.5-1.1 8.5-3 15.3-7.3 26.5-11 36.7-12 3.3-.3 8-1.1 10.3-1.7 3.4-.9 4.6-.8 5.1.1 1 1.6 10.7 6.1 13.2 6.1 2.3 0 2.5-1.3.4-3-1.7-1.4-2.1-9-.5-9q1 .2 1.2 1.7l.3 3.8.4 3.2c.2 1.9 4.2 1.5 6.8-.5 1.9-1.5 5.3-8.7 5.3-11.3 0-1.3-9.7-5.9-15.8-7.5-4-1.1-6.4-1.2-9.1-.4-4.5 1.2-5.1 1.2-5.1 0 0-.6 1.3-1 2.8-1q5.7 0 2.5-3.2c-2.1-2.4-3-17.9-1.3-24.7 1.8-7.5 5.5-10.5 17.7-14.5 2.9-1 5.9-2.6 6.6-3.6s3.1-2.6 5.4-3.5 4.5-2.6 5.1-4.1c.7-1.3 1.6-2.4 2.2-2.4q.9-.1 1-2.1c0-1.1 1.1-3.5 2.4-5.2 4-5.4 10.7-19.7 10.1-21.6q-.6-1.8 3.5-5.5 6-5.4 7.5-2.6c1.1 1.7 2.3.2 1.8-2.3-.5-2.7.8-4.5 10-13.4 4.7-4.7 5.7-6.2 5.7-9 0-2.6 1-4.5 4.3-8.1 6.5-7 18.7-22.2 18.7-23.3 0-.5-1.4-.9-3-.9-3.6 0-5-2.7-5-9.5 0-3.7-.3-4.4-2.4-4.9-5.9-1.5-7.2-6.8-3.1-12.2 1.4-1.8 2.5-3.7 2.5-4.3s.5-1.1 1-1.1q1 .1 1 1.5c0 1.4.7 1.5 1.5 1.5s1.5-.5 1.5-1q.1-1 1.1-1c1.6 0 3.8-3.1 3.9-5.2 0-1 1.5-2.8 3.4-4q3.4-2.2 3.9-5.3c.6-3.7.4-3.9-2.2-2.4q-2 1.4-1 2.6 1.3 1.3-1.3 1.8c-1.3.4-2.9.5-3.4.3s-2.3.9-3.9 2.4c-1.6 1.6-3.9 2.8-5 2.8-1.1.1-3.1.7-4.5 1.5s-3.6 1.4-4.9 1.5c-4.7 0 .4-3.5 6.9-4.8q9.9-2 5.4-5.8-2.9-2 .9-.9c2.3.5 3 .2 3.4-1.5q.5-1.8 1.4-2c1.2 0 1.1-2.7-.1-3.5-.6-.4-1.7-.1-2.5.5q-1.7 1.6-1.5-.9.1-1.9 1.3-2.2.8-.1-1.8-1c-2.2-.6-3.3-.4-4.7.8-1.7 1.5-1.8 1.4-1.8-1.5 0-3.5-1.9-4.3-2.7-1.2q-.8 3.3-2.9 1-1-.9-2.6.9c-1.4 1.6-1.4 2.2-.3 3.1q1.3 1.2 2 0c.9-1.5 2.5-1.2 2.5.5q0 1.3-1 1.5-.8.2-.4 1.5t-.9 1.5q-1.4-.1-2-1.3-.4-1.2-3.1 1.2c-2.8 2.6-3.7 8.6-1.3 9.4q.8.5-2 2c-4 2.1-6.5 2.2-3.5.1 2.5-1.7 2.9-5.2.7-6-2.2-.9-1.8-2.4.5-2.4 1.1 0 2.4-.8 2.7-1.8a12 12 0 0 1 2.8-3.5c2-1.8 1.9-1.8-1.9-1.3-2.1.3-4.4 1.3-5.1 2.3-1.2 1.6-1.4 1.5-1.3-1.5.1-2.8.4-3.2 2.8-3.2 3 0 9-4.5 9-6.8q0-1.3 2-.7 2 .8 2-.9c0-2.6-3.6-1.9-7.3 1.4-1.9 1.6-3.7 3-4.1 3-1.5 0-.4-5 1.7-7.3 5.6-6.5 6.2-7.6 5.8-10.9q-.6-7.2-2.7-1.9c-1 2.5-1.8 3.1-3.2 2.7-4.2-1.4-9.8 12.7-6.1 15 1.3.8-3.6 5.4-5.8 5.4-.7 0-1.3 1.1-1.3 2.4s-.7 3-1.6 3.7c-1.3 1.1-1.7 1-2.5-.4-1.4-2.5-2.6-2.1-6.3 1.8-1.9 1.9-4.3 3.5-5.4 3.5-3.9 0-7.3 2.3-7.9 5.2q-.5 2.8-3.9 4c-1.9.7-3.4 1.8-3.4 2.5s-.4 1.3-1 1.3a1 1 0 0 1-1-1c0-.6-1.1-1.5-2.5-2s-3.2-2.4-4.1-4.2-2.6-3.9-3.6-4.6q-2-1.4-1-2.5c1-1.3.9-8.4-.2-9.4-1.2-1.2-.6-2.3 1.2-2.3 1.5 0 1.9-.8 2-4.5q0-4.5-1.5-5.3-1.4-.9-1.5-1.8-.5-4.2-2.4-4.4-1.3 0-1.4 1.2 0 1-.6.5c-.4-.3-1.6 0-2.8.8-2.6 1.9-6.6 1.9-6.6.1 0-.8-1.6-2.3-3.5-3.5-2-1.1-3.8-2.9-4.1-3.8-.3-1-1-2.6-1.5-3.6q-1-1.7.1-1.7.9-.2 1-2.8c0-1.5.9-3.8 1.9-5.1 2.4-3.1 10-4 15.4-1.8q6.8 2.7.7-.8a31 31 0 0 0-12.2-1.5c-7.8.1-9.7.4-12 2.1M207.9 810.9q1.2.9.9 2.1-.3 1-2.2-.9c-1.9-2.1-1.2-2.8 1.3-1.2M150 867.2c0 1.3-4.3.6-4.7-.8q-.2-1.1 2.2-.7 2.3.6 2.5 1.5m241.4 39.3c-1 .8-2.5 1.5-3.1 1.5q-1.2.2-1.3 1.5c-.1 1.3-.8 1.5-1.7 1.5-1.4-.1-1-.8 1.5-3 1.8-1.7 4-3 4.9-3 1.5 0 1.4.2-.3 1.5m-153.5 51.4q1.3 2-.7 2.3-2 .7-1.6-1.6c.4-3.4.8-3.5 2.3-.7m.9 9c.4 2.7-1.2 2.1-2.9-1-.9-1.8-.8-2 .8-1.7 1 .2 1.9 1.4 2.1 2.7m-40.6 9.7a5 5 0 0 0-2.2 4.5c0 1.6-.5 2.9-1.2 2.9s.3 1.5 2.1 3.3c2.9 3.1 3.1 3.6 2 6-.7 1.5-1.8 2.7-2.6 2.7s-1.3 1.3-1.3 3.9c0 3.7-.1 3.9-3.9 4.5-4.3.7-5.3 2.2-4.5 6.6.6 2.6.3 3.1-3 4.7-3.2 1.5-3.7 2.1-3.4 4.8.3 2.5.8 3.1 3.2 3.3q2.9.3 3.8-1.2 1-1.3 2.3-.9 1.7.3 5-3.1c3.1-3.3 3.8-3.6 6.9-3 2.6.4 4.2.1 6.3-1.3 3-2.1 10.5-4.3 14.7-4.3q2.6 0 2.6-1.6t2.1-1.1q2.4.6 1.1-.5c-1.3-1.1-.7-1.5.4-2.5 2.1-2.1 1.7-4.2-.9-4.8-1.3-.4-2.7-.5-3.3-.4H222q-1.7 0-.2-.9 1.1-.8-3.8-2.2c-2.7-.7-5-1.7-5-2.2 0-1.5 3-2.1 4.5-.8 1.8 1.5 8.8.4 8.2-1.3-.2-.6-1.9-1.9-3.8-3-4.1-2.2-6.9-5.3-6.9-7.7 0-3-3.5-5.1-9.2-5.5q-5.5-.5-7.6 1.1"/></svg>