<svg xmlns="http://www.w3.org/2000/svg" width="1365.333" height="1365.333" viewBox="0 0 1024 1024"><path d="M512.8 1.2c-2.6.6-5.6 2-6.9 3.4-3.2 3.4-3.7 12-1.4 22.9l1.8 8.4-2.8 4.3c-3.4 5.1-4.8 11.4-3.2 14.3.6 1.1 1.6 4.9 2.3 8.5 1.1 5.9 1.1 6.7-.9 10.5-3 5.9-5 14.7-3.4 15.7 2.1 1.3 10.6.9 14.4-.7 3.6-1.5 3.8-1.5 5.5.7 1 1.3 2.1 3.4 2.4 4.8l2 7.2c2.4 8.1 2.3 8.3-6.3 11.3-6 2.1-10.8 2.9-20.8 3.5a105 105 0 0 0-23.6 4c-1 0-3 1.1-4.5 2.4l-2.8 2.3 4.1 2.6c2.3 1.5 4.4 3.6 4.8 4.8s.4 5.7 0 10.2c-.7 7.6-1.3 9.2-10.2 27-7.2 14.6-11 23.8-16.3 39.6a701 701 0 0 1-9 26.1c-1.8 4.6-2.3 8.5-2.9 23a83 83 0 0 0 .2 19.5l27.4 45.3 26.3 43.3-21.5 66.8c-11.9 36.8-29.5 92.4-39.3 123.7l-17.8 56.7-32.4 11.5c-67.2 23.7-165.1 56.6-239.8 80.8-70.5 22.7-77.3 25.1-76.9 26.9.2 1.1 19.1 47.6 42 103.2 23 55.7 41.7 102 41.7 102.8 0 .9 2 2.7 4.4 4.2l4.4 2.7 16.2 38.5c8.9 21.2 16.5 38.9 16.9 39.4 1 1 13-1.8 22.2-5.3a61 61 0 0 1 29.3-4c5.6 1.6 8.2.4 14.1-6.5q8-9.5 17.1-9.5c2.3 0 6.9-.3 10.3-.6 6.1-.7 6.2-.8 9.6-5.8 5.9-9 6.2-9 54.6-10.2l25.6-.6.7 2.6q.5 2.6 5.8 5.2c4.7 2.4 5.7 2.6 10.3 1.7 7.7-1.6 23.7-6.4 26.5-8.1 4.8-3 18-16.7 19.1-19.9.7-2.3 1.9-3.5 4.5-4.3 3.3-1.1 3.4-1.3 2.8-5a15 15 0 0 1 1.1-8.2c4.1-10 3.9-12.2-1.6-18.6-4.5-5.1-4.6-7.4-.8-13.8 3.2-5.3 12.5-14.4 14.8-14.4.5 0 1.5-1.9 2.2-4.3a39 39 0 0 1 3.5-8.2c2.5-4.4 5.5-5.9 19.4-9.8 11.3-3.1 14.1-3.6 30.4-4.7a123 123 0 0 0 18.5-2.2c1.4-.5 11.6-1.1 22.6-1.2l20-.3.5-3.2q.5-3.1 3.5-5c1.7-1 4.2-3.9 5.5-6.5 2-3.7 3-4.6 5.2-4.6 4.1 0 7.8-5.4 7.8-11.4 0-3.6.9-6.3 3.5-11 2.5-4.5 3.5-7.5 3.5-10.7 0-2.4.9-7.3 2-10.7 1.1-3.5 2-9 2-12.1 0-5.6.2-5.9 4.8-10.2 2.6-2.5 6.6-6.8 9-9.7 8.4-10.1 16.9-14.5 43.7-22.9 4.4-1.3 11.6-3.9 16-5.6 7.9-3.1 8.2-3.1 29.5-3.5 20-.3 21.7-.5 23.7-2.4q2.1-2.1 4.7-1.4c1.9.5 2.9 0 4.5-2 2.6-3.4 2.6-6 0-10.3a10 10 0 0 1-1.5-7.5c.6-3.9.5-4.2-2.3-5.2-2.5-1-3.1-2-4.1-6.7-1-5.1-.9-6.3 1.4-13.7 1.4-4.5 2.6-8.9 2.6-9.8s-2.5-5.4-5.5-10L724 663l-.3-11.2c-.2-10.9-.1-11.4 2.6-15.4a51 51 0 0 0 7.6-20.9c.7-3.9 1.8-9.9 2.6-13.5a64 64 0 0 0 1.5-13c0-8 2.5-12.2 10-17.1 4.9-3.1 5-3.4 5-8s.3-5 5.5-9.6c5.1-4.5 5.5-5.1 5.5-9.3.1-5.6 2.2-8.5 7.9-10.5 4.8-1.7 12.8-2 15-.6 1.2.8 1.3 1.4.2 3.7-.7 1.5-1.6 5-2.2 7.8-.5 2.7-1.6 5.8-2.5 6.7a5 5 0 0 0-1 4.2c.6 2.7 3.7 3.7 11.3 3.7 2.4 0 5.5.7 6.9 1.7s4.5 1.9 6.9 2.3c4.2.6 4.5.5 5.6-2.2.6-1.6 2.3-3.8 3.7-4.9 2.2-1.7 2.9-3.8 4.9-13.6 2.5-12.5 4.7-17.8 9.4-22.5 1.6-1.6 2.9-3.4 2.9-3.9s1.8-1.8 4-2.9c3.7-1.9 4-2.3 4-6.3l-.1-4.2-2.9 3.5c-4 4.7-4 1.5 0-3.5 1.7-2.1 3-4.6 3-5.7 0-1 1.5-3.2 3.4-4.9 2.4-2.1 3.8-4.4 4.6-8q2-7.9 16.3-21.8c2.6-2.6 5.8-6.3 7-8.3a93 93 0 0 1 25.4-21.8c10.2-6.7 11.4-7.7 12.7-11.8.9-2.4 3.2-6.7 5.3-9.5 4.5-6.2 8.2-15 8.3-19.3q.1-4.7 7.6-13.7c1.3-1.6 2.4-3.4 2.4-4.1s2.3-3.5 5.1-6.1c4.7-4.4 5.1-5.1 4.5-8.3-.3-2.1 0-4.5.9-6.3.8-1.5 1.5-3.5 1.5-4.5s3.2-5.9 7.2-11.2l7.1-9.6.8-9c.5-5 1.2-11.2 1.7-13.8a20 20 0 0 0-.1-8.8c-1-3.5-1.7-4.2-4.9-5.2q-3.8-1.2-6-.1c-1.8.8-3.3.3-7.8-2.4-4.9-3-6-3.3-10.4-2.7-4.6.6-5 .4-9-3.3a67 67 0 0 0-7.2-6.1 148 148 0 0 1-12.6-11.7c-9.2-9.3-9.6-10-11.7-17.3-2.6-9-5.8-12.8-14.3-17.4q-5.7-3-5.8-4.9c0-1-2-4.1-4.5-6.9s-4.5-5.7-4.5-6.5-1.3-3.6-3-6.1a29 29 0 0 1-3.6-8.1q-.5-3.3-3.9-5.3c-5.9-3.6-14.5-13.8-14.5-17s-3.9-7-7.2-7c-2.6 0-9.4-5.1-13.5-10.3-.6-.8-3.4-2-6.2-2.7-4.7-1.1-5.3-1-8.3 1.1-2.6 1.9-5 2.4-12.2 2.9l-9 .5-6.5-3.9c-8.9-5.4-18-7.6-31.5-7.6-10.4 0-11.1-.1-13.7-2.6-3.2-3-8.1-4.3-16.7-4.4-5.1 0-7.5-.6-13.1-3.5a86 86 0 0 0-15.3-5.5 134 134 0 0 1-51.1-22.7l-9.8-6.8-7.8-14c-7.7-13.9-7.8-14-15-18.5-6.3-4-7.8-5.5-12.6-13.3-3.1-4.9-6.6-10.3-8-12.1-3.5-4.6-8.9-16.6-12-26.9-2.6-8.5-2.7-8.7-5.3-8.1l-4.4 1.5c-.9.5-3.7.9-6.1.9q-8.4 0-10.8 8.1c-.9 3-1.7 3.9-3.4 3.9-1.3 0-2.8.7-3.5 1.5-2 2.5-4.1 1.7-8.7-3-4-4.2-4.3-4.9-4.3-10 0-2.9.5-5.7 1-6 1.8-1.1 1-4.2-1.5-5.9-2.7-1.8-3-1.8-9.7-.4"/><path d="M853.3 531.9q-6.5 5.4-6.3 11.8c0 3.8-4.3 8.9-8.2 9.7-2.8.6-3.7 1.6-6 6.4-2.4 5.2-2.6 6.4-2.1 14.4.6 9.7 1.9 12 4.8 8.8 1-1.1 2.6-2 3.6-2s2.5-1.3 3.3-2.9 2.6-3.6 4-4.5c2.4-1.5 2.6-2.3 2.6-8.1 0-8.1 3.3-14 8.3-15.1 8.9-1.8 11.6-11.2 5.3-18.2-3.8-4.2-4.8-4.3-9.3-.3"/></svg>