<svg xmlns="http://www.w3.org/2000/svg" width="1365.333" height="1365.333" viewBox="0 0 1024 1024"><path d="M587.9 302.4c-11.5 2.5-13.2 3.6-12.3 8.1.5 3 .1 3.8-4.3 8.2a45 45 0 0 0-6.4 7.9 15 15 0 0 1-6 5.3c-2.4 1.2-5.4 3-6.6 4-2.5 2.1-3 6-1.1 7.9q1.3 1.2.1 2.3c-.9.9-1.8.8-3.5-.3-4.4-2.8-7.7-3-11.5-.7-3.1 2-3.5 2.6-3 5.5.4 2.4 0 3.7-1.3 4.9-2.3 2.1-3.8 1.3-5.6-3.1-.8-1.9-2.1-3.4-3-3.4s-6.9 5.7-13.6 12.6-13.4 13.2-14.8 13.9c-3 1.6-22.5 6.6-36.8 9.6-5.3 1-10.7 2.8-12.4 4-1.6 1.2-5.8 3-9.1 4.1-3.4 1-10.7 4-16.2 6.7s-11.6 5.2-13.6 5.5c-2.1.4-4.7 1.9-6.5 3.7a242 242 0 0 1-15.2 13.5c-9.6 8.1-13 10.4-15.3 10.4-3.3 0-7.9 2-9.8 4.4a9 9 0 0 1-4.4 2.1c-1.8.4-6.1 2.3-9.5 4.2-7.4 4.1-16.2 6-34.2 7.4-6.9.6-14 1.4-15.8 1.9q-3.4.9-11.5-.6c-4.5-.7-12-1.4-16.7-1.4-7.8 0-8.9-.3-13.7-3.3a203 203 0 0 1-29.6-31.5c-.5-1.2-1.9-2.2-2.9-2.2s-2.3-1.1-2.9-2.4q-1.8-3.5-9.4-3.6c-1.3 0-2.9-1-3.8-2.4-1.5-2.2-1.4-2.6.4-6l1.9-3.6h-2.4c-1.4 0-3.2-1-4.3-2.5a10 10 0 0 0-5.3-3.2c-2.9-.5-3.3-.4-2.4.8.6.8 1.4 2.4 1.6 3.6.6 2.1.3 2.2-4.3 1.6-4.5-.5-4.9-.4-4.9 1.5q0 2 5.1 5.3a16 16 0 0 1 7 7.5c1.6 3.6 2.5 4.3 5.6 4.9 2.1.3 5.5 1.7 7.6 3.1 3.1 2 3.7 3 3.7 5.8s-.5 3.6-3 4.6c-2.4 1-3.7 1-5.6.1-1.4-.6-4-1.1-5.9-1.1-2.9 0-3.6-.4-4.1-2.5q-1.4-5.6-7.7 2c-2.1 2.5-4.4 4.5-5.1 4.5s-2-1.8-2.9-4c-1.3-3.3-2-4-4.2-4q-2.7 0-3.2 1.9c-.5 2-6.2 4.1-10.9 4.1-3.7-.1-6.5-1.7-9.9-5.8-2.1-2.5-3.4-3.2-6.3-3.2-4.4 0-11.7-2.1-13.4-3.8-.9-.9-.8-2 .2-5.1 1.1-3.5 1.1-4.6-.4-8.3-2.3-6.1-2.1-8.3 1-9.7 2.2-.9 3.1-.9 5 .4a10 10 0 0 0 4.4 1.5c1.7 0 2-.6 2-4.3s-.6-4.9-3.3-7.5l-3.3-3.2-2.9 3q-2.9 3-5.6 3c-1.5 0-4 .5-5.5 1-3.8 1.5-6 .5-12.1-5.3-4-3.8-5.3-5.7-5.3-7.8 0-2.6.4-2.9 3-2.9 3.7 0 4.1-2.9.9-6.1-2.2-2.2-2.2-3.4.1-11.7 1.5-5.1.6-6.5-7.9-12-3-1.9-9.4-7-14.2-11.3s-9-7.9-9.3-7.9c-.2 0-.6 1.2-.8 2.7-.3 2.5-.7 2.8-3.4 2.5-2.9-.3-3.2-.1-3.8 3.7-.3 2.3-1 4.1-1.4 4.1-1.2 0-7.4-4-11.7-7.5a89 89 0 0 0-9.6-6.4 19 19 0 0 0-12-3.1c-15.1 0-17.9 2.4-13.8 11.2 1.2 2.6 2.1 5 1.8 5.2l-6.3 3.3-6 2.8.2 17c.1 9.3.5 24.5.8 33.7l.7 16.6 3 .6c3.1.6 11.3 6.4 15.6 11 1.5 1.6 4 2.8 6.7 3.2 4 .6 4.4.9 6.4 6l2.2 5.4-2.3 4.7c-2.2 4.3-3.3 5.3-11.7 9.6-9.1 4.7-9.5 5.1-11.9 10.5-3.1 7.1-2.6 10.6 3.1 19.2 4.1 6.2 4.3 6.9 5.4 18 1.6 16.8 1.1 19.6-4.8 24.2a40 40 0 0 1-10.8 5.6c-7 2.3-15.2 7.6-15.2 10 0 2.8 7.1 9 11.1 9.7 3.4.6 4 1.4 9.2 11l5.6 10.3-.7 8.7c-.5 4.7-.5 8.8-.2 9s2-.3 3.8-1.1c3.4-1.4 3.6-2.4 1.2-9.4-.5-1.4-1.1-6.4-1.5-11.2-.5-7.9-.4-9.1 1.9-13.5 2.3-4.7 2.8-5 10.3-7.6 6.6-2.2 9.8-2.7 20.8-2.9l13-.3 7.3 3.7c4 2.1 8.4 3.8 9.7 3.8q5.1-.1 4-9.1c-.6-4.1-.4-4.9.9-4.9.9 0 1.8 1.1 2.1 2.5 2.1 10.4 2.2 10.4 8.7 7.7 2.9-1.2 7-2.2 9.1-2.2 3 0 3.7-.4 3.7-1.9q-.1-2 3.5-2.5c4.3-.8 5.5-.2 5.5 3 0 1.9.5 2.4 2.3 2.4 3 0 5.7-2.9 5.7-6.2 0-2.2.5-2.6 3.5-3q7.9-.9 3.1 5.5c-3.1 4.1-3.3 6-.7 8.4q2 1.9 1.1 3.3-3.1 4.9 2.5 5c3.3 0 3.7.4 5.5 4.5q2 4.6 4 4.5c2-.1 2-.7 2-2.4 0-1.4-.5-2.8-1.1-3.2-2.3-1.4 2.5-2.7 10.1-2.9 4.2-.1 8.2-.5 8.8-.9.6-.3 1.5 0 1.9.9.5.8 2.2 1.7 3.9 2.1 2.9.5 3.3.3 5-3.3q2-3.6 4-4.1c2-.3 2.1-.1 1.1 3.8-1.4 4.9-.8 5.4 7.3 7 3 .6 9 2.3 13.2 3.6q13 4.4 11.3-.9c-.4-1.2-.9-3.8-1.2-5.7l-.6-3.5 2.5 3q4.8 5.8 4.8 9.3c0 1 1.8 3.3 4 5.1s4 3.6 4 4.1-1.5 1-3.2 1.2c-2.9.3-3.3.6-3.3 3.3 0 2.4.5 3.1 2.3 3.3 1.3.2 2.7 1.4 3.2 2.6s1.6 2.6 2.4 2.9q1.5.8 1.6 2.4.3 2.3 1.9 4.2c1.5 2 1.9 2.1 2.4.7.9-2.3 2.6-2 3.8.8q1.2 2.4 0 4.4c-1.4 2.7 1.2 9.2 4.1 10 2 .5 2 1 1.6 11.9-.3 6.2-.4 11.3-.2 11.3l3.1-1.1c4.4-1.8 10.3-2.7 10.9-1.7.3.5-.9 2.2-2.6 3.8l-3.1 2.9 3 1.5c1.7.9 4.3 1.6 5.8 1.6s6.2 1.1 10.3 2.4 11.2 2.7 15.8 3.1c6.3.6 8.5 1.2 9.2 2.5.5 1 2.4 2 4.2 2.4s4 1.6 4.8 2.7q3.8 5 5.8-5.6c1.9-10.1 1.8-10.4-2.6-9.8-2.8.4-4.1 0-5.5-1.5-1.7-1.9-1.7-1.9 1.7-2.5a19 19 0 0 0 7.1-3.3c4.3-3.3 4.6-7.4 1.1-15.1-2.4-5.1-2.4-5.1-.4-5.6 1.2-.4 4 .5 6.8 2.1 4.1 2.3 5.1 2.5 7.4 1.4l2.6-1.2-1.6-4c-1.7-4.3-1.4-6 .9-4.2q1.3 1 2.7.2c3.6-2.3 4.3-1.3 3.7 5.5-.2 3.7-1.1 7.3-2 8.3q-4.4 4.9-.2 8.1c1.5 1.1 3.6 2.3 4.6 2.6q2.2.6.9 2c-.6.7-.8 2.5-.4 3.9.3 1.5.1 3.2-.6 4.1a3.4 3.4 0 0 0 2.6 5.5c1.8 0 2.7.9 3.8 3.4a7 7 0 0 0 4.5 4.4q3 1.1 3.1 3c0 1.1.9 3.1 2 4.5 2.2 2.7 2.6 5.2 1 6.2-1.2.7-.3 5.2 1.6 7.9.7 1.1 2.1 5.3 3 9.3 1 4.6 2.6 8.5 4.1 10.3 2.9 3.5 2.4 6.7-1.4 7.6-2.1.6-2.4 1.1-2 3.8.2 1.7-.2 4-1 5.2-1.8 2.8-.7 5.4 2.3 5.4 1.9 0 2.4.5 2.4 2.4 0 3.3 5.2 4.8 10 2.8 2.7-1.1 5.9-1.3 14.2-.7 10.2.6 11 .5 16.4-1.9a26 26 0 0 1 12-2.6c3.5 0 6.6-.5 7-1.1q.8-1 4.5-.5c2.1.3 4 .2 4.4-.4.9-1.5 9.7-1.1 11.9.5 2.5 1.9 4.6.3 4.6-3.6 0-3 5.7-9.9 8.2-9.9.8 0 2.3-.9 3.3-2 1.7-1.8 1.6-2.1-.9-6.4-1.4-2.4-2.6-4.9-2.6-5.4s2.3-2.3 5-4.1c5-3.3 5.1-3.3 14.8-2.8 5.3.3 11.4.9 13.5 1.3 2.8.4 4.4.2 6.5-1.2 1.5-1 4.7-2.1 7.2-2.5 11-1.8 18.1-6.3 19.7-12.7.5-2.2-.1-3.2-4-6.6s-4.8-4.8-5.3-8.6c-.6-4.3-1.7-5.7-20.3-24.6-15.9-16.3-20.7-20.5-25.2-22.6-5-2.3-6.1-3.4-9.3-9.2-4.3-7.6-7.7-10.4-14.1-11.3-4.5-.6-4.7-.7-8.1-7.4-3.2-6.4-3.4-7.5-3.4-16.5s.2-10 2.7-13.3c5.4-7.3 10.6-12.1 13.3-12.1 1.5 0 7-.7 12.4-1.5a57 57 0 0 0 22.5-7.9c7.1-3.6 17.1-9.2 22.2-12.6a57 57 0 0 1 12.6-6.6c2.5-.5 3.3-1.2 3.8-3.5q.6-2.9 5.8-6.6c2.9-2 7.2-5.4 9.7-7.4s7.4-5 11-6.6c10-4.5 19-11.5 19-14.8 0-.3-1.7.8-3.8 2.4-5.1 4.2-9 4.8-16.3 2.6-6.7-2.1-7.6-4.4-2.1-5.7l6.4-1.6c2.8-.6 3.3-1.4 4.6-6l1.5-5.3-3-3.2c-5.6-5.9-5.6-6.5-.6-12.9 3.7-4.9 4.9-5.8 7.6-5.8 4.6 0 7.7-1 7.7-2.5q0-2.5 9.4-2.5c4.8 0 5-.1 12.3-7.9 8.8-9.5 15.3-13.1 23.6-13.1 3 0 7.4-.7 9.8-1.5 3.4-1.2 8.2-1.5 20.7-1.4 15.1.2 16.4.4 19.3 2.5 1.8 1.3 7.2 3.2 13 4.5a51 51 0 0 1 16.7 6.3 21 21 0 0 1 10.3 11.1c3.5 6.9 3.6 7 7.4 6.9 2.2-.1 4.1-.6 4.2-1.1s.9-1.8 1.6-2.7c1.1-1.6 1.8-1.1 6 4.7 5.9 8 7.4 9.3 12.2 11q3.9 1.3 4.5 3.6c.5 2 .6 2.1 2.8.6 1.2-.9 2.2-2.2 2.2-3 0-2.2 3.7-3.8 4.4-2q.4 1.4-.9 2.3c-2.5 1.4-2.9 6.5-.7 8.6 1.9 1.7 2.1 1.7 4.7 0s2.8-1.7 4.1 0q1.3 1.9 1.6 2.8c.2.5 2.2 1.2 4.4 1.5 3.3.4 4.3 1.1 6.2 4.4 2.7 4.7 2.9 7.9.3 7.9-1 0-2.4.7-3.1 1.5-1.1 1.3-.9 1.9.8 3.8 1.2 1.2 2.4 4.2 2.8 6.7.9 6.2 2.7 9.4 7.3 13.1 2.2 1.7 4.2 4.3 4.6 5.8 1.2 4.8 5.3 10.1 8 10.1 1.9 0 2.6-.7 3.4-3.8 1.3-4.6 1.4-7.7.1-11.6-2-6.4-4-16.7-3.5-17.6 1.1-1.8 3.5.3 4.5 3.8.5 2.1 1 5.6 1 7.9q0 6.6 3 2.8c1-1.2 1-2.1 0-4.4-2.9-7 2.5-9.5 6.7-3.1l3.9 5.9 1.7 2.4 1.2-3.9c.6-2.2 1.7-4.9 2.4-5.9q1.5-2.9.8.5l-.8 3.9c-.5 2 2.8 2.6 4.8 1 1.5-1.3 1.4-6.1-.3-11.7-.5-1.8-.2-2.2 1.4-2.2 2.8 0 3.4 1.2 3.4 7.4q.1 9.2-4.4 9.8c-2.5.3-4.3 5.9-2.5 7.7 3.4 3.4 12.7-3.9 12.7-9.9 0-2.5.4-3 2.5-3 1.4 0 4.3 1.2 6.5 2.6s4.3 2.5 4.6 2.2-.7-3.5-2.2-7.2c-1.4-3.6-2.4-7.3-2-8.1.8-2.2 3.6-.7 3.6 2 0 1.2.9 3 2 4 1 .9 2.5 3.4 3.1 5.4s1.9 4.1 2.7 4.7c1.4 1 1.3 1.2-.6 1.8-2.9 1-2.8 3.2.4 5.2 2.9 1.9 5.4 6.3 5.4 9.4 0 1.2 1.2 3.7 2.6 5.5q4.2 5.5 13.5 5.5c5.3 0 19.3 10.1 22.5 16.2 2.7 5.2-1.5 3.3-9.1-4.1-5.2-5.1-8.1-7.1-10.8-7.6-5.8-1.1-6.1-.2-1.2 3.5 4.6 3.4 4.6 3.5 2.1 3.8-1.5.2-4.2-.5-6-1.6s-5-2.5-7.2-3.2c-4.1-1.3-8.4-4.6-8.4-6.4 0-.6-1-4.1-2.1-7.8q-2.2-6.7-4-7.3a3 3 0 0 1-1.9-2.8c-.1-6.5-3.5-9.3-4.6-3.7-.8 3.6-2.4 4-2.4.6 0-2.6-2.4-5.1-3.9-4.1-.6.3-2 3.8-3.2 7.8-1.1 4-3.2 9.1-4.6 11.5l-2.4 4.3-3.5-2-3.8-2.1c-.2 0-1.5 1.8-3 4-2.5 3.7-2.6 4.4-1.5 8a14 14 0 0 0 3.1 5.6c2.9 2.7 2.4 8.8-1.3 14.6-1.7 2.7-4.1 5-5.3 5.2-6.4 1.3-8.3 1.3-10.6.1-2.9-1.7-7.4-1.9-9.9-.5-1.5.8-1.7 1.6-1.1 4.7.3 2.1 1.1 4.7 1.7 5.8s1.4 4 1.8 6.4q1.6 9.5 7.9 15.9c11.3 11.5 18.1 23.1 17.1 28.9-.7 4 1.6 7.9 5.3 8.8 4.4 1.1 10.9 8.6 11.7 13.7a27 27 0 0 0 2.6 7.4 65 65 0 0 0 18.1 16.3c4.6 2.6 6.5 4.5 9.4 9.3 3.8 6.6 19.4 23.8 22.6 25a33 33 0 0 1 5.1 3.1c5.8 4.3 6.5 4.2 7.2-1.1.3-2.6 1-6.7 1.6-9.2s1.8-7.3 2.5-10.8a34 34 0 0 1 12.7-19.1c5.4-3.3 5.8-6.9 2.7-22.1-1.8-8.8-1.8-10.1-.5-13.3s1.7-3.4 4.6-2.8 3.5 1.3 5.3 6.9c1.6 4.7 3.7 7.9 8.9 13.7 6.1 6.8 7.2 7.5 10.5 7.5 2.9 0 4.1-.6 5.5-2.8 1.1-1.5 5.3-4.5 9.5-6.8 7-3.8 7.9-4.6 12.1-11.7 3.2-5.3 5.4-8 7.4-8.6 3.7-1.3 4.2-3.3 2.4-9q-1.6-5-.7-8.4c.6-2.7.4-3.9-.6-4.8-2.4-2-1.6-4.5 3.3-10.2 3.4-4.2 6.7-6.6 12.5-9.6 4.4-2.3 9.3-4.1 10.8-4.1q2.9 0 4-2.1c.9-1.7.7-2.6-1.4-5.4a66 66 0 0 1-8.6-23.2c0-5.1-8.2-20.6-12.2-23.1a20 20 0 0 1-9.7-12.7c-.7-2.8-3-8.7-5.3-13.2-3.6-7.5-4.5-8.5-9.2-11l-5.1-2.8-.3-6.7c-.2-5.7 0-7 1.8-8.8 1.1-1.1 2.9-2 4-2s2-.5 2-1c0-2.4-3.2-7-7.1-10.3a16 16 0 0 0-9.8-4.3c-4.6-.5-6.3-1.3-9.5-4.3-2.1-2-4.5-5-5.2-6.8s-2.6-3.8-4.1-4.5c-1.6-.7-3.9-3.4-5.3-6-4.1-7.6-5.7-8.8-11.1-8.8-4.4 0-5-.3-7.5-3.8l-5.6-7.4a12 12 0 0 1-2.8-7.2c0-4-1.4-5.7-8-9.6a15 15 0 0 1-6.2-6.8c-1.9-3.9-11.6-13.2-13.9-13.2q-2 .1.8 4.8l1.7 2.7-2.5-2.1c-1.3-1.2-4.2-3.1-6.4-4.2s-5.1-3.2-6.4-4.6a45 45 0 0 0-20.9-11.6 73 73 0 0 1-9-2.1c-1.5-.6-6.5-1.7-11.1-2.5-5-.9-14.2-3.7-22.2-6.9-7.5-3-14.2-5.5-14.8-5.5s-1.8-1.1-2.7-2.5c-1.2-1.9-2.5-2.5-5.3-2.5-2 0-6.5-.7-10.1-1.6a46 46 0 0 0-15.3-.8c-8.3.6-8.9.5-12.5-1.9-3.1-2.2-4.8-2.6-9.7-2.5-3.3 0-6.8.5-7.7 1s-3.7 1.3-6 1.8l-9.6 2.1c-5 1.1-5.4 1.1-7.4-1.1-2-2.1-2.7-2.2-13.7-1.9l-11.6.4-.3-4.8c-.4-5.7.9-7.7 5-7.7 4.8 0 10.8-4.1 10.8-7.4 0-.3-6.2-.2-13.7.1-10.6.4-14.5 1-16.8 2.3-5.4 3.2-9.9 3.3-17.3.7-5.4-2-8.7-2.5-17.2-2.5-5.8 0-12.1-.5-14-1.1s-6.6-1.1-10.3-1.1c-6.2 0-6.8-.2-6.2-1.9.9-2.8-1.8-3-12.6-.7"/><path d="M123 347.1c-2.9 1.2-4 2.6-4 5.6 0 2.4 5.3 7.3 8 7.3.9 0 2.3.7 3 1.5 1.1 1.3 1.5 1.3 2.1.3 2.2-3.4.1-13.1-3.1-14.8-2.2-1.2-2.7-1.2-6 .1m20.7 15.5q-.3.8 1.8 2.6a6 6 0 0 1 2.4 5.1c0 1.8.4 4.8.9 6.7l1 3.5 1.3-3.1c.7-1.7 2.7-3.9 4.6-4.9 4-2.2 4.2-4.2.6-5.1-1.6-.4-4.4-1.8-6.3-3.1-3.5-2.3-5.2-2.8-6.3-1.7m-20.6 9.7c-1.5 1.9.8 11.7 2.8 11.7 2.9 0 8.1-4.1 8.1-6.5 0-4.6-8.1-8.4-10.9-5.2m28.3 10.5c-2.4 1.6-.2 15.2 2.6 15.2.4 0 1.5.3 2.3.6q1.6.7 2.7-3c1-3.2.9-4.2-1-8-1.1-2.4-2.8-4.7-3.6-5-1.9-.7-1.7-.7-3 .2m14.3 9.8c-.9 1 1.1 4.2 3.3 5.4 2.1 1.1 6-.2 6-2 0-1.7-8-4.6-9.3-3.4M698.3 491q-4.6 1.7.8 5.8l2.9 2.4v-3c0-1.7.3-3.7.6-4.6q1-2.7-4.3-.6m10.1 4.2c-2.7 1.3-3.4 4.6-3.4 16.5 0 9.1.1 9.7 3 12.9 1.6 1.8 3.2 4.9 3.6 6.9.6 3.6 1.2 3.9 5.1 2.9l2.3-.6-2-2.8c-1.1-1.6-2-3.9-2-5.2 0-2 .7-2.6 4.2-3.4 3.1-.7 4.7-1.7 6-3.9 1.7-3 1.7-3.3-1.7-13.5l-3.3-10.5-4.9-.2a18 18 0 0 0-6.9.9m-33.4 9.7c0 1.5 5.1 5.1 7.1 5.1 2.4 0 2.6-4.5.3-5.4s-7.4-.7-7.4.3m4.4 17.1c-2.2.9-3.1 3.5-4.1 12.1-.4 4.1-.2 4.7 2.1 6.3l2.6 1.7 2-4.6c1.1-2.5 2.6-4.8 3.4-5.1q4-1.4-.1-7.4c-2.9-4.3-2.8-4.3-5.9-3M219 656.6c-3 3-6.2 5.6-7.2 6-.9.3-2 1.5-2.3 2.7a21 21 0 0 1-5.3 6.3l-4.6 4.2 3.8 5.5c2.7 4 5 6 7.8 7.2 3.3 1.3 4.4 2.5 6 6.4 1.7 3.9 2.9 5.3 6.6 7 4.3 2.1 17.9 5 23.5 5.1 2.5 0 2.7-.3 2.7-3.9 0-2.1-.5-5.2-1.1-7-1.1-3-1.3-3.1-6.7-3.1-4.9-.1-5.9-.4-7.6-2.6-2.6-3.7-1.7-11.7 1.9-15 3.1-2.9 3.3-6 .3-7-3.5-1-5.8-3.5-5.8-6.1 0-2.9-3.4-9.9-5.2-10.5-.7-.3-3.8 1.9-6.8 4.8m115.5 5.2c-1.1.4-4.5 2.3-7.5 4.3s-6.6 4-8 4.4c-5.8 1.7-6.6 4.5-1.3 4.5q3.6 0 10.4-4.1t8.8-3.4c3.3 1 11-2.9 11.1-5.8 0-.9-10.7-.8-13.5.1m-120.8 49.9c-1.3 1.4-1.3 1.9.6 5.2l2.4 4c.6.8 5.1-4 5.6-5.9.3-1.3-.5-2.2-3.3-3.3-3.4-1.3-4-1.3-5.3 0"/></svg>