<svg xmlns="http://www.w3.org/2000/svg" width="1365.333" height="1365.333" viewBox="0 0 1024 1024"><path d="M508.7 1.4c-.3.8-2 2.2-3.8 3.1-2.7 1.4-3.8 1.5-7.3.5-9.4-2.6-17.3 1.1-9.4 4.4 4 1.7 6.9 4.8 9.6 10.2 1.2 2.3 3.7 5.4 5.7 7 3.6 2.9 3.6 3 2.2 6.3-1.3 3-1.2 4 .4 9.5 2.5 8.2 1.9 10-3.2 9.3-5.2-.7-5.8.3-10.6 18.2l-3.8 14.3-19 20.4a321 321 0 0 1-28.9 28.3l-9.9 7.9-36.1 12.1-36.1 12.2-5.2 6.7-8.8 11.4c-3.2 4.1-3.5 4.9-2.5 6.8s.9 2.6-.8 4.2c-2 2-2 2-4.3-1.1-2.7-3.6-5.6-4-6.8-.9-.4 1.3-1.1 5.9-1.4 10.3-.6 7.6-.8 8.2-4.4 11.5-3.4 3.2-3.9 4.1-4.4 10a44 44 0 0 1-2.7 11.5 59 59 0 0 0-2.9 12c-.7 6.5-1 7.1-4.3 9.2-8.4 5.3-9.2 6.3-8.5 10.3.6 3.4.4 3.8-2 4.4-2.2.6-3.6 2.5-6 8.3-.1.2-3.5-.4-7.6-1.3-9.8-2-13.7-5.6-17.4-16.3-2-5.7-3.6-8.4-6.3-10.7-3.3-2.8-4-3-7.1-2.2-2.8.8-4.1.6-7.1-1.1a16 16 0 0 0-5.6-2.1c-1.1 0-3.9-1.6-6.3-3.5l-4.5-3.6-5.1 5.1c-4.4 4.4-5.6 5-9.2 5-6.1 0-7-2.2-3.1-7.7q4.9-6.7-.1-8-2-.4-2.6-4.4c-1.1-6.3 1.2-7.9 7.9-5.3q1.6.6 1.6-.9c0-.9 1.5-2 3.4-2.7l3.5-1.1-.6-8.7c-.3-4.8-1.2-9.6-1.9-10.7-.8-1.1-1.4-2.8-1.4-3.9s-.9-3-2.1-4.2l-2.1-2.2-2.9 3.2a23 23 0 0 1-7.6 5.1c-11.9 4.5-20.8 11.7-21.7 17.5-.5 3.4-1 3.8-4.1 4.4-2.8.6-3.5 1.1-3.5 3.1 0 1.7-2 4-7.5 8.5-7.4 6-7.5 6.2-7.5 10.8 0 2.6-.7 7.2-1.5 10.2s-1.5 6.6-1.5 7.9c0 2.4 4.1 8.2 10.9 15.4l3.6 3.8-2.2 4.2c-4.4 8.5-4.2 9.5 3.4 16.8 3.7 3.6 8 7.3 9.4 8.3 4.8 3 4.4 15.6-.5 18.8-1.7 1.2-9.1.9-10.3-.3-2.4-2.4-5.2 8.5-3.3 13 .9 2.4 3 4 15 11.7 1.9 1.3 6 2.6 9 3s6.8 1.6 8.5 2.8 8.4 4.8 14.9 8.1c13 6.5 17.8 10.5 20.6 16.9 1 2.2 3.2 5.4 5 7.1a94 94 0 0 1 16 23c.7 2.2 3 5.9 5.1 8.3a19 19 0 0 1 4.4 8.2c.7 4 10.7 17.9 12.9 18 1.3.1 13.9 19.3 16.6 25.3 1 2.3 3.6 5.6 5.8 7.4 4.3 3.5 5.9 8.1 4.1 11.5-.9 1.6-.5 2.9 2.3 7.1a30 30 0 0 1 5.8 14.2q0 2.3 3 3.5c1.7.7 3 1.7 3 2.2s1.1 2 2.4 3.3c1.7 1.7 3 5.2 4.6 12 1.9 8.4 2.6 9.8 5.4 12 3.1 2.3 3.4 3.1 3.9 9.7.5 5.7 1.3 8.2 4 12.7 1.9 3.1 4.1 7.6 4.8 10.1a69 69 0 0 0 14 20.6 55 55 0 0 1 12 27.3l.8 7.8 4.9 3c9.2 5.3 11.1 7.5 17.1 19.9 3.1 6.6 6.5 14.9 7.5 18.6l1.8 6.8 8.4 5.7c8 5.4 8.4 5.8 8.4 9.4 0 2.9 1.2 5.5 5.6 11.8 3 4.5 6.4 8.5 7.4 9.1q1.8.9 2.5 6 .7 4.9 3.6 8.6c1.6 2 2.9 4.3 2.9 5.1s2 3.6 4.5 6.2a34 34 0 0 1 6.1 9.4c1.4 4.2 1.4 5.1 0 10.1-.9 3-1.6 6.6-1.6 8.1 0 2.4-.3 2.7-2.5 2.3-3.5-.7-4.8 3.6-1.7 5.8q2.1 1.3 2.7 6.8c.6 4.8 1.1 5.7 4.4 7.8 2.6 1.7 3.6 3 3.6 5 0 1.9 1.2 3.7 4.4 6.4 4.5 3.9 8 10.1 8.1 14.1q.1 2.1 1.4 2.3c.7 0 3.6 1.8 6.4 4s6.7 4.7 8.9 5.6q7.6 3.1 11.9 11.6c1.4 2.7 3.7 5.4 5.3 6.3 2.2 1.1 2.8 2 2.4 3.5q-.4 1.8.4 2c.6 0 3.5 2.5 6.7 5.5 3.1 3 8 6.7 10.9 8.1 2.8 1.5 7.8 4.4 11 6.5 3.2 2.2 7 4.2 8.5 4.5 1.5.4 4.5 2.3 6.7 4.4 4.7 4.4 9.5 6.4 13.2 5.7 2.3-.4 4.1.7 12.3 8.3l9.5 8.8 7.5 1.1c11.5 1.8 15 3 21 7.2 3.1 2.1 6.3 3.9 7.1 3.9.9 0 2.6 1.1 3.9 2.5s3.1 2.5 4.1 2.5 5.4 1.6 9.9 3.5 9.1 3.5 10.3 3.5a48 48 0 0 1 14.5 4.4q3 1.6 3.7 4.5.6 3 3.1 3.5c1.4.4 4.8 2.5 7.6 4.6a19 19 0 0 0 6.8 4c1.1 0 3.3 1.8 5 3.9q3.1 3.8 6.3 4.5c1.8.3 6 2 9.4 3.8 5.6 2.8 6.6 3.7 9.3 9.1 1.6 3.3 3 7.5 3 9.3 0 2.6.7 3.8 3.8 6 2.1 1.5 5 4.4 6.5 6.5 2.2 3 3.5 3.8 7.3 4.4 4.1.6 5.6 1.6 11.8 7.7 3.9 3.9 10.3 9.1 14.1 11.6 6.1 4 7.8 4.6 13.5 5a31 31 0 0 0 13-1.8c8.3-2.8 11-4.8 13.9-10.4l2.3-4.5-2.1-7.8c-1.9-7-1.9-7.9-.5-10 1.2-1.9 2.3-2.3 5.3-2.2 2.8.2 4.7-.4 7.3-2.4 3.1-2.4 3.7-3.5 4.3-8.3s.4-5.8-1.2-6.9c-4.8-3.5-5.1-3.9-4.2-7 .6-2.1 2.2-3.8 5.8-5.7 2.6-1.5 5.7-4 6.6-5.5 1-1.6 4-5.3 6.7-8.4 2.6-3 4.8-6.2 4.8-7s2.1-2.5 4.6-3.8c4.4-2.4 4.5-2.6 3.9-6.1-.7-3.9.6-5.6 8.3-11.7l2.4-1.8-4.5-3.3c-3.5-2.5-5.6-3.2-9-3.2q-4.5 0-6.4-1.8c-2.1-1.8-8.7-21.6-9.7-28.7-.7-5.5 3.8-15.1 8.8-19 4.7-3.6 5-7.7.7-9.9-1.6-.9-4.3-3.3-6-5.4-2.6-3.4-2.9-4.3-2.2-7.3l1.5-6.1q.6-2.7 2.9-3c1.8-.2 2.3-1 2.5-4.1q.2-3.8 2.7-5.3c1.3-.8 2.6-2.6 2.9-3.9s2.4-3.8 4.6-5.5c3.3-2.6 4-3.8 4-6.6 0-3 .5-3.6 3.8-5.1l4-1.9a35 35 0 0 0-5.5-11.1 21 21 0 0 1-3.4-10c-1.1-9.2-1.2-8.8 1.4-12 2.1-2.6 2.2-3.5 1.9-16.1-.2-7.2-.8-13.2-1.3-13.2s-8.6 3.4-18 7.6l-17.2 7.6-12.6-6.5c-13.8-7.1-29.7-12.7-36.3-12.7h-4.1l2.3 2.4 2.3 2.5-2.7.7a71 71 0 0 1-30-5 26 26 0 0 0-8.1-3.6c-2.7-.7-6.8-2.3-9-3.5a28 28 0 0 0-10.8-2.8c-10.8-1-16.1-6.1-15-14.5q1-8.9-7.3-15.3a16 16 0 0 1-5-5.3c-.9-2.8-5.3-8.6-6.5-8.6-2 0-7-4.2-8-6.6-.5-1.6-.4-5.3.3-10.2 1-6.5 1.8-8.7 5.5-13.9 3.6-5.1 4.3-7 4.2-10.1-.2-2.9.5-4.9 3-8.6 3.3-4.7 3.3-4.8 1.8-9.2-1.6-5-1.4-5.1 5.4-2.7 7.3 2.6 14.6.8 24.8-6.2q8-5.6 11-5.5c7.2 0 17.4-8 24.7-19.2 3.6-5.6 4.4-7.7 4.4-11.4 0-4.2.4-4.9 5.3-9.4 4.7-4.3 5.6-5.8 7.6-12.5 1.4-4.8 1.9-8.8 1.6-10.8-.5-2.5-.2-3.7 1.4-5.1 2.3-2.1 1.9-3.6-1-3.6-2.8 0-19 11.1-23.1 15.9-1.9 2.3-4 4.1-4.5 4.1s-3.9 1.9-7.3 4.2a42 42 0 0 1-10.4 5c-2.2.5-13.2 1.2-24.3 1.5l-20.3.6v-6c0-4.6-.4-6.4-1.9-7.7-1-1-2.4-3.7-3-6.2-1.3-5.1-4.1-8.4-7.2-8.4-1.2 0-3.7-.9-5.5-2.1-2.8-1.7-6.1-2.2-19.6-3a150 150 0 0 1-17-1.7c-.4-.4.7-2.5 2.3-4.7 6.2-8.6 6.9-10 6.9-14.5 0-3.8-.8-5.7-5.1-11.8-2.8-3.9-5.8-7.2-6.7-7.2-2.8 0-7.2-5.1-7.2-8.3 0-2.3-1.3-4.2-5.9-8.6-4.9-4.7-6.1-6.6-7.6-11.9-1.5-5-2.6-6.9-5.6-9.3-4.6-3.7-5.8-7.5-3-10.2 1.6-1.6 1.7-2.4.9-4.3q-1.2-2.2-3.2-2.4c-1.3 0-4.3-2.1-7.1-5-3.8-3.9-4.6-5.3-3.7-6.2.7-.7 1.2-2.4 1.2-3.9 0-3.4 1.9-5.4 6.6-6.9 5.3-1.8 6.5-6.6 2.8-11.1-1.2-1.3-1-2.7 1.2-9.1 2.1-6.4 3.2-8.2 7.3-11.6 7.1-6 14.2-10.2 17.2-10.2 2.9 0 7.3-3 9.1-6.3.6-1.2 1-4.9.9-8.2-.1-5.2-.5-6.4-2.9-8.6l-2.8-2.5 1.8-4c1-2.1 1.8-4.6 1.8-5.5s2.5-3.8 5.5-6.3c6.8-5.9 8.6-10.8 6.2-17.3-1.6-4.2-1.5-4.3.9-7.2 1.9-2.3 2.4-4 2.4-8.4 0-6.2.2-6.5 8.5-9.8 3.3-1.3 6.9-3.3 8-4.5s3.6-2.7 5.5-3.4c4.8-1.8 5.8-2.7 6.5-6.1q.6-2.9 2.5-2.9c3.2 0 12.9-4 14.2-5.9.7-.9 4-3.4 7.3-5.4 5.5-3.4 6.7-3.7 13.5-3.7 4.1 0 9.7-.7 12.4-1.5s6.2-1.5 7.7-1.5c1.6 0 3.2-.7 3.8-1.7.8-1.5 1.5-1.6 6.3-.6 4.2.9 5.8.8 8-.3 1.5-.8 3.7-1.4 5-1.4q2.4.1 4.3-3.7c4.3-8 4.9-8.4 13.4-8.4h9.6c4.6 0 8.5 1.4 8.5 3.1 0 2.2 7 5.4 9.8 4.5q2.1-.4 4.7 1.1c1.4.9 2.7 1.5 2.9 1.3l2.5-4.1 2.2-3.6-5.5-3.1c-6.2-3.6-7.1-4.5-8-8.6a21 21 0 0 0-3.9-6.5c-1.8-1.9-4-4.5-4.9-5.8l-1.6-2.4-4 2.5a12 12 0 0 1-14-.3l-2.3-1.9 18.6-28.8c17.9-27.9 18.5-28.8 16.3-29.8-3.1-1.3-6.8-4.6-6.8-5.9a33 33 0 0 0-10.1-4.9 46 46 0 0 1-15-8.3c-8.6-7.6-9.3-7.9-13.2-5.6a57 57 0 0 1-14.1 4.3c-10 2-11 2-11.8.5-.5-.9-1.7-1.6-2.7-1.6s-2.9-.8-4.2-1.9-4.8-2.9-7.7-4.1c-6.3-2.7-6.1-2.8-18.5 6.9-7.5 5.8-9.6 7-13.5 7.3-2.6.3-5.7.1-7-.4a37 37 0 0 0-16.6.3c-1.9.9-2.9.9-3.9.1s-2.3-.7-5.2.3c-2.2.8-4.7 1.4-5.5 1.4s-4.4-2.6-8-5.8c-6.2-5.6-6.4-6-5.2-8.5 1.8-4.1 1.4-11.8-1-18.1-2-5.3-2.3-5.6-4.9-5-4 .9-9.1-.3-12.4-2.9-2.6-2.1-2.8-2.9-3-9.2a19 19 0 0 0-1.8-9.5 30 30 0 0 0-13.5-9.4c-1.8-.3-3.7-1.5-4.2-2.6q-1.1-1.7-2.5-1.9-2.1-.5-5.4-3.5c-2.8-2.6-4.7-3.5-7.4-3.5s-4-.7-6.2-3.6q-2.7-3.4-2.2-6 .4-2.3-1.9-5.6a12 12 0 0 1-2.4-4.6c0-2.3-4.2-9.1-6-9.7a9 9 0 0 1-3.2-3.3c-1-1.7-3.2-3.4-5.6-4.1-2.9-1-4.3-2.3-6.1-5.7-2.2-4-2.7-4.4-6.2-4.4-2.9 0-4.2-.6-5.6-2.6-1-1.4-4.6-3.7-7.8-5-8.5-3.6-9.2-3.7-9.8-2"/></svg>