<svg xmlns="http://www.w3.org/2000/svg" width="1365.333" height="1365.333" viewBox="0 0 1024 1024"><path d="M470.5 2.9a42 42 0 0 0-7.4 5.5c-2.4 2.6-2.4 2.6-.5 4.1 3.1 2.4 5.9 1.5 5.9-2 0-3.8 2-3.6 7.9.6 3 2.3 4.8 2.9 6.8 2.5 1.5-.3 3 0 3.4.6q.7 1 10 .5c8.3-.5 9.5-.3 11.6 1.5 1.8 1.6 3.2 1.9 6.7 1.4 4.7-.6 8.3.9 14.9 6.6 5.8 5 11.3 8 13.5 7.4a3 3 0 0 1 3.2 1.1c1.1 1.4 1.4 1.4 3.9-.2l2.7-1.8-2.7-2.8c-1.5-1.5-4.1-3.1-5.8-3.5s-5.6-3.1-9.1-6.4c-10.4-9.8-18-14-25.4-14-2.1 0-4.1-.4-4.6-.9A213 213 0 0 0 477 0c-.8 0-3.7 1.3-6.5 2.9m-13.9 12.2c-3.9 3.1-3.3 6.4 1 5.3 1.5-.4 2-1.4 2.1-4 .1-1.9 0-3.4-.2-3.4zM443.5 32q-.3 1 2 2c4.8 1.8 7 .9 4.3-1.8-1.5-1.5-5.4-1.6-6.3-.2m131 5.8c-1.2 1.2-.3 4 1.9 6.1q2.5 2.5 2.9.9.6-1.4.6.4c.1 2.5 2.1 3.2 3.5 1.3 1.2-1.6 1.6-1.6 6.8 0 5.5 1.8 12.1 1.4 10.2-.5-1.3-1.3-25.2-8.9-25.9-8.2M620 53.9c-1.7 3.4-1.2 6.1 1.1 6.1 3.1 0 10.9 4.1 12.1 6.4.6 1 .8 4 .5 6.5q-.8 8 3.4 8.1c4.3 0 5.4-12.7 1.6-19.5-4.4-7.8-16-12.6-18.7-7.6m25.1 42c-3.7 1-3.8 3.1-.2 3.1 2.9 0 3.1.2 2.5 2.7a9 9 0 0 1-2.3 4.1q-2.1 1.7.2.8c1-.3 2.7-.6 3.8-.6s1.9-.7 1.9-1.8c0-2.7-2-9.2-2.8-9.1zm2.1 15c-1.1.6-1 1.1.3 2.5.9.9 2.4 1.6 3.3 1.7q1.6 0 .5.6c-2 .8-1.5 2.3.7 2.3q4-.1 2.1-5.3c-1.1-2.8-4.2-3.6-6.9-1.8M654 134c0 .5 1.4 1 3 1s3-.5 3-1-1.3-1-3-1-3 .4-3 1m3.9 9.9-2.4 1.9 2.8 1.1c3.5 1.4 4.7.7 4.7-2.5q-.1-4.4-5.1-.5m.1 7.1c-.9 1.6-.8 2.1.4 2.6 2.6 1 5.1 0 5.1-2.1 0-2.8-4-3.2-5.5-.5m2.6 15.1q-4.7 3.7.5 4.9c2.8.7 4.8-1.3 4.9-4.8q0-4.2-5.4-.1m3.2 13.6c-2.7.7-2.2 2.3.7 2.3q2.5 0 2.5-1.5c0-1.5-.2-1.6-3.2-.8m.2 6.8-3.5 1.3 2.8.7q5.3 1.3-.4 6.6l-3.1 2.9h4.2c3.6 0 4.1.2 3 1.5-1.5 1.8-.5 3.5 2.1 3.5 1.8 0 1.9-.5 1.4-6.8-.8-8.4-1.3-11.2-2.3-11.1-.4 0-2.3.6-4.2 1.4m.5 20.6c-.4.5 0 1.8.9 2.8 1.2 1.3 1.3 2 .4 2.9s-.8 1.2.4 1.2c.8 0 2.1.7 2.8 1.5 1 1.2.8 1.6-1.1 2.4-2.4.8-2.4.8 1.1 3a19 19 0 0 0 4.4 2.1c1 0 .3-5.5-1.5-12.3-1.1-4.2-1.5-4.7-4-4.7-1.5 0-3.1.5-3.4 1.1m4 17.8c-.8 1.4 7.2 27.1 9.2 29.2.8.9 2.9 4.8 4.7 8.7 2.6 5.3 4 7.1 6 7.6 1.4.3 2.6 1.1 2.6 1.7s2.4 3.9 5.4 7.3 5.8 7.4 6.1 8.9c.4 1.6 2.5 4.2 4.5 5.9 2.1 1.6 4.4 4.3 5 5.9.7 1.6 1.8 2.9 2.4 2.9a47 47 0 0 1 13.1 14.4c1.1 2.1 2.9 4.2 4.1 4.6a13 13 0 0 1 4.3 3.7c2.4 3.2 2.4 3.2 7.4 7.4 2.8 2.3 3.7 3.8 3.5 5.8q-.3 5.4 3 4.7 1.7-.5 4.2 3c1.4 1.9 3.7 4.1 5.3 5 1.5.8 2.7 1.9 2.7 2.4s3.4 4.8 7.4 9.5a151 151 0 0 1 11.7 14.5c1.8 0 13 8.7 22.7 17.5 8.7 8 11.2 10.8 12.2 14.1a10 10 0 0 0 4.1 5.8c2.9 1.7 2.9 1.7 2.9-.6 0-1.3.3-3.2.6-4.4q.7-2-3-6.2c-1.9-2.4-3.7-5-4-6s-2-2.6-3.7-3.6a221 221 0 0 1-33-31.4c-1.4-2.6-6-8.3-10.2-12.7s-8.6-9.6-9.9-11.6-3.7-4.6-5.5-5.8a779 779 0 0 1-57.8-64.1 34 34 0 0 1-4.7-7.4 77 77 0 0 0-5.3-9.1c-1.3-1.7-2.6-4.1-3-5.5s-1.8-5.1-3.1-8.2c-1.3-3.2-2.4-6.8-2.4-8.1s-.6-3-1.2-3.9c-1.6-2-7.4-3.3-8.3-1.9m-106 75.2c-.7 3.2-5.2 8.1-12.6 13.8-4.7 3.5-6.3 3.7-20.2 1.5-3.7-.6-3.7-.6-2.7 2.1 1.5 4.1 1.2 6.1-1.5 9.4-1.4 1.6-3.3 5-4.1 7.4-1.8 5.3-8.2 10.7-12.9 10.7-5 0-6.2 1.7-6.8 9.3-.4 5.7-1.1 7.7-4.2 12.4-2 3-4.5 5.8-5.6 6q-1.7.6-1.9 1.8-.3 1.7-2.2 2.8c-1.8 1.3-2 1.8-1 2.5 2.3 1.6-1.3 8.6-5.4 10.5a27 27 0 0 1-17.9.3c-3.1-1.3-3.5-1.9-3.5-5.1q0-3.6-1.7-4.1c-1-.3-4.4-1.7-7.5-3.2-5.6-2.5-5.8-2.7-5.8-6.4 0-2.8-.5-4-1.7-4.5-1-.3-3.8-1.4-6.2-2.6-3.6-1.6-4.5-1.8-5.2-.6-.5.8-.6 2.3-.3 3.4 1.5 4.9 1.5 9.7 0 12.9-.9 1.9-1.6 4-1.6 4.7s-.8 2.1-1.7 3.1c-1.3 1.5-1.5 2.3-.6 3.6 2.1 3.4 2.4 7.7.8 11.5-1.2 2.8-1.3 4.2-.5 5.7.9 1.6.7 2.7-1.1 5.1-4.3 6.1-12.9 7.5-23.7 3.8-5.6-1.9-6.2-2.3-5.5-4.3 1.9-5.7-.6-11.3-6.7-14.4a21 21 0 0 0-7.3-2.2q-3 0-5.8-3.1c-1.6-1.8-3.2-2.9-3.5-2.6-1.3 1.3 2 9.5 5.2 12.7 1.8 2 3.7 5 4 6.9a8 8 0 0 0 4 5.3c3.8 2.2 4.2 3.1 5.9 12.4q2 12 6.7 12.6c1.4.2 2.5 1.8 3.8 5.8 2.8 8.8 3.2 11.2 1.9 12q-1.3.7.5 3.1c2 2.9 2.1 10.7.2 15.3-1.9 4.5-8.4 11.6-10.6 11.6-1 0-3.9.9-6.5 2-4.6 2-12.1 2.6-14 1.2a16 16 0 0 1-2.8-3.4c-1-1.6-3.3-3.2-5.7-3.9-2.2-.7-4.7-2.3-5.5-3.6q-2.8-4.2-3.8-.4c-.5 2.2-8.3 5.1-13.6 5.1-2 0-6.4-1-9.8-2.2a29 29 0 0 1-12.4-8.4l-6.1-6.2-.2-6.5c-.1-6.1-.3-6.6-2.6-7.2q-4-.9-4-5c-.1-1.1-.7-3.4-1.4-5l-1.4-3-1.1 2.7c-.6 1.6-1.6 2.8-2.2 2.8s-.9.7-.5 1.5q.4 1.4-.9 1.5-2.7.2-.2 2.9c1 1 .6 1.7-1.8 3.7-1.6 1.3-4 2.4-5.3 2.4-3.1 0-8.2-2.7-8.2-4.5 0-2.2-2.8-4.4-4.9-3.8-1 .3-2.2 0-2.5-.6-1.3-2.1-4.1-1-5.7 2.2-.8 1.7-2.5 3.6-3.7 4.2-1.9.8-2.1 1.5-1.6 4.5a19 19 0 0 0 6.2 10.3c1.8 1.6 1.9 2.3.9 4.4s-.8 2.8.8 4.2c1.1.9 2.5 2.9 3 4.6.9 2.4 1.6 3 4 3 1.7 0 3.5.3 4.2.8a3 3 0 0 0 2.5.2c.7-.3 2 .8 3 2.5 1.5 2.5 2.3 3 5.7 3q4 0 5.4 2c.7 1 3.5 2.8 6.1 4 4.5 1.9 15.6 11.8 15.6 13.9q.1.9 1.5 2.1a4 4 0 0 1 1.5 3.3c0 3.2 3.2 13.7 4.1 13.7.5 0 2.9 1.6 5.5 3.5 2.5 1.9 5.4 3.5 6.4 3.5s3.2 1.1 4.8 2.5c1.7 1.4 3.4 2.5 4 2.5s3.9 1.3 7.4 3c3.4 1.6 7.1 3 8.2 3s3.5 1 5.5 2.2c2.8 1.8 4.7 2.2 9.1 1.9 3-.1 6-.7 6.7-1.3.6-.5 2.8-.6 4.7-.2q3.6.6 5-.5t15.3-1c21.2.3 22 .3 23.3-2.1.6-1.1 1.9-2 2.9-2s2.4-.6 3-1.4 2.4-1.6 3.9-1.9q16-3.1 16.6-16.8c.1-4.6-.1-5.1-4.4-8.9-2.8-2.4-5.5-3.9-7.2-4q-2.6 0-3.3-1.9c-.3-1-1.4-2.6-2.5-3.6s-2-2.9-2-4.3-1-3.2-2.2-4.2-3.4-4.9-4.7-8.8c-2.1-6-2.3-7.5-1.3-9.7 1.1-2.4 1-2.7-.8-3.2-2.4-.7-2.4-.5 0-5.3 1.1-2.2 2-5.4 2-7.2q0-3.1 2.5-5.8a38 38 0 0 0 4.8-7.1c1.7-3.4 2.7-4.3 4.4-4.2q2.2.3 4.9-3.3c1.5-1.9 4.1-4.2 5.8-5.1s3.4-2.1 3.8-2.7l6.9-8.8q9.2-11.4 14.3-9.5c1.8.7 3.1-.3 5-4 .9-1.8 2.9-4.1 4.4-5s3.1-2.4 3.5-3.1c.5-.7 2.3-2.6 4-4l8.2-7.3c2.7-2.6 6.5-5 8.2-5.4 2.4-.5 5.1-2.8 10.2-8.5 3.8-4.3 7-8.2 7.2-8.7s1.6-1.6 3-2.4l7.9-4.2q5.4-3 6.3-1.8c.6.6 3 1.1 5.4 1.1 3.5 0 5.6.9 11.5 5 6.4 4.3 7.5 4.7 8.7 3.5 1.3-1.3 1.2-1.8-.7-3.8q-4-4-.8-15.2a55 55 0 0 1 9.5-18.9c1.2-1.1 2.1-2.5 2.1-3.3 0-1.6-.2-1.6-3.3-.2-1.9.9-3.1.7-5.5-.5-1.7-.9-4.4-1.6-6-1.6-3.9 0-5.8-1.7-8.2-7.3-2.1-5-2.6-9.6-1.2-11.3 1-1.2.3-17.4-.8-17.4-.5 0-1.1 1.4-1.5 3.1m264.9 120.3c-2.7 2.3-2.7 2.4-1.2 4.8 1.5 2.3 2.4 2.6 10.5 3 7.8.4 9.3.8 13.3 3.5 5.7 3.9 10 7.9 10 9.3q.1.9 1.4 1 1.9.3 3.3 2.5a202 202 0 0 0 34.3 20.1l6.8 1.6c3.6.9 4.6.8 5.3-.3q2.3-3.5-1.8-4.2a56 56 0 0 1-17.8-6.1c-12.6-6.9-16-9.1-17.5-11-.8-1.2-2.5-3-3.9-4.1l-7.5-6.6c-9.3-8.3-23.5-15.9-29.8-15.9a10 10 0 0 0-5.4 2.4m90.9 43.3q-3.2.5-4.4 2.4-1 2-.7 2.3c.3.3 1.9 1 3.8 1.9 3.2 1.5 3.5 1.5 3.8 0 .3-1.2 1.2-1.4 4.5-.9 4.9.8 6.1 1.7 7.7 5.6.7 1.7 1.8 3 2.5 3s1.8.7 2.5 1.5c2.9 3.5 5.3-3.1 3.1-8.8-.7-1.9-2.7-3-9-5a48 48 0 0 0-9.3-2.5zm-194.6 29c-.3.4-.8 3-1.2 5.8-.9 6-4.5 13.5-7.4 15.2-1.1.7-2.9 3-4 5-1 2.1-3.6 4.8-5.8 6.1-17.3 10.4-16.9 10.3-26.1 10.9-4.8.3-10 1.2-11.7 2.1A115 115 0 0 0 650 549c0 1.1-11.4 9.7-15.3 11.6-3.7 1.8-5 4.4-2.2 4.4.9 0 2.8.8 4.2 1.7 2 1.3 5.7 2 13.7 2.4 6.1.4 13.5 1.3 16.4 2 6.7 1.7 7.9 1 11.5-6.4q2.8-5.6 7.9-9.9c2.9-2.4 8.6-7.5 12.7-11.4q7.7-7.1 13.8-9.9c6-2.7 6.5-2.7 13.9-1.6a51 51 0 0 1 11.8 3.1c.2 0 .3-3.4.1-7.6-.2-6.2-.9-8.7-3.7-14.1a28 28 0 0 0-5.3-7.9c-1.4-1-2.1-3-2.5-7.1-.4-5.1-2-7.7-3.3-5.6m-533.3 43.9c.3.9.6 2.9.6 4.5q0 2.8 1.3 2.9 1.8.3 2.5 2.5c.7 1.4 1.9 2.8 2.7 3.1q1.4.8 1.5 3.9c0 2.6-1 4.4-4.7 8.2a46 46 0 0 0-5.8 6.7c-1.1 2.1-2.3 2.8-7.6 4.5-6.7 2.1-8.4 1.5-12.4-3.9-2-2.8-4.1-5-4.5-5s-1.8-1-2.9-2.1c-1.5-1.6-2.7-2-4.5-1.5q-5.2 1.4-1 10c.8 1.6 1.4 3.5 1.4 4.2 0 2.3-3.7 2.5-7.4.4-4-2.4-7.6-1.9-7.6 1 0 2.4 4.4 5.8 8.6 6.6s8.4 4.6 8.4 7.6c-.1 3.3-2.5 9.6-4.6 12-1 1.1-3.9 3.3-6.4 5l-4.5 3-7.8-1.1c-9.4-1.3-11.7-2.4-11.7-5.6 0-2.1-.5-2.5-2.9-2.5-1.6 0-3.4-.7-4.1-1.5-1.8-2.2-3.9-1.8-5 1-.5 1.3-2.7 3.6-5 5.1-3.2 2.1-3.8 3-2.9 4 .6.8 1.6 1.4 2.1 1.4s2.2 1.3 3.8 3c2 2.1 2.6 3.6 2.2 5.5-.5 2.7-4.6 5.5-8 5.5-5.2 0-16.1 7.7-14.5 10.3q.3.8-.7 2.2c-.9 1.1-.9 2.3 0 4.9 1.5 4.8.5 7.3-3.6 9.1-3.5 1.5-4.4 4.1-2.2 6.3 1.7 1.7 3.8 1.5 3.8-.4q0-1.7 2-1.1c1 .3 2.7-.1 3.7-.8s2.7-1.2 3.8-.9q2.1.4 3.9-1.5c1.8-1.9 2.9-2.1 4.1-2.1 1.3 0 3-1.1 3.8-2.4 1.8-2.7 6.6-4.3 7.7-2.5.9 1.4 7 .8 13.6-1.4 2.9-1 7.1.7 7.9 3.2.8 2.7 2.5 2.7 3.2.1q.6-1.8 1.9-2t1.4-2.5c0-2.9 0-2.9 3.5-1.3 2 .9 3.1.8 5-.2 2.3-1.2 8-1.1 18.9.6q4 .7 4.7-.7c1.2-2 7.1-1.2 12.4 1.7 7.1 3.7 9 3.3 12-2.5q4-8 8.7-8.1c.9 0 2-.9 2.3-2.1a7 7 0 0 1 3.1-3.1c2.7-1.3 3.2-3.3.9-4.2q-1.3-.6-1.5-2.2-.4-2.3-2.8-4.9c-2.8-3.1-2.9-3.4-2.6-14.2.1-6.3.7-12.1 1.4-13.4 2.1-4.1 6.3-7.9 8.6-7.9 1.2 0 2.7-.6 3.3-1.4 1.4-1.6.4-4.6-1.4-4.6-2.2 0-4.5-2.9-4.5-5.6 0-1.3 1.1-4.2 2.5-6.3 1.3-2.2 2.7-5.1 3.1-6.5s1.2-3 2-3.7q3.3-2.8-1.5-5.4c-1.7-.8-3.6-2.3-4.3-3.3a58 58 0 0 0-13.2-9.2q-1 .1-2 1.4a5 5 0 0 1-3.2 2q-2.2.9-2.7-1.4c-.4-1.5-1.3-2-3.7-2s-3.1.3-2.6 1.6m693.7 65c-1 2.2-.8 3.1.8 5.7a9 9 0 0 1 1.4 6.2q-.7 3.5.7 1.8c1.2-1.1 1.4-3.1 1-9.7-.2-1.7.4-3.4 1.4-4.1q2.7-2.3-1.9-2.5-2.1.1-3.4 2.6m-700.6 56.2q-.5.6-.5 2c0 2.4-4 7.2-6 7.2-1 0-2.7 1.3-3.6 2.9-1 1.6-2.7 3.4-3.8 3.9-1.9.8-2 1.6-1.7 9 .3 8 .2 8.2-2.3 9.2-3.6 1.3-4.3 3.7-1.8 6.1s4.1 2.4 6.9.4c2.1-1.5 2.4-1.3 5.7 2.2 2.1 2.3 3.6 4.8 3.6 6.4 0 1.4.6 3.4 1.4 4.5 1.5 1.9 1.5 1.9 3-.1q1.5-2 1-5.2c-.5-2.8-.3-3.2 2.6-3.8 2.7-.6 3.1-1.1 2.7-3.1-.2-1.4 0-2.7.5-3s2-2.4 3.5-4.7c2.4-3.8 2.5-4.5 1.7-11.6l-.9-10.6c-.2-4.7-2.5-11.5-3.8-11.6l-4.4-.3c-1.8-.2-3.5-.1-3.8.2m696.1 12.1c-.3.4-.8 3.3-1.2 6.4-.6 4.8-.3 6 1.6 8.9l2.4 3.4q.3.3 2.4.8c2.1.7 2.2.5 2.2-5.2 0-9.2-4.8-18.5-7.4-14.3m-258.3 43.8c-2 1.3-2.3 2.4-2.3 8 0 6 .1 6.4 2.2 6.1 1.6-.2 2.6-1.6 3.9-5.3 3.3-9.5 1.9-12.8-3.8-8.8m7.1 27.1c-1.5 4.8-2.4 6-5.1 6.5-4.1.8-6.7 9.1-5.8 18.2.9 7.7 3.7 11 11.1 12.9 4.1 1 5.3 1.9 7.6 5.7 6.4 10.4 7.4 16.9 3.7 24.5-1.6 3.4-3.2 4.9-7.5 7-3 1.4-5.4 3-5.4 3.5s2.2.9 4.9.9c4.1 0 5.1-.4 5.6-2 .3-1.1 1.7-2.3 3.1-2.6 1.3-.3 2.4-1.2 2.4-2 0-1.8 4-4.4 7-4.4 4.2 0 9.8-2 10.4-3.7.4-.9-.1-2.4-.9-3.3-1.4-1.6-1.5-2.2-.1-5.3.8-2 2.6-4.6 4-5.8a7 7 0 0 0 2.6-5.3c0-1.7 1.7-6.4 3.7-10.4 3.3-6.3 4.1-7.2 6.5-7.2 3.2 0 3.8-2.2 1.3-4.6-3.8-3.9.4-11.5 8.6-15.7a25 25 0 0 1 8.1-2.7c3.3 0 5.8-.9 5.8-2.1q-.1-.8-1.3-.9a13 13 0 0 1-4.3-1.4c-3.6-1.8-7.8-1-21.4 3.9-7.9 2.8-10.6 2.8-14.2-.3-4.6-4-5.9-4.3-18.6-4.7-9.9-.3-11.4-.1-11.8 1.3m-24.6 82.3c-2.3 1.3-2.3 2.9 0 2.9 1 0 2.7.7 3.8 1.5a7 7 0 0 0 3.2 1.5c1.5 0 8.2-5.1 8.2-6.3 0-1.1-13.2-.8-15.2.4M865.5 859c-3.8 2.1-8 3.9-9.3 4-1.2 0-3.8 1.5-5.7 3.4a41 41 0 0 1-7.4 5.7c-3.3 1.8-3.8 2.5-3 4 .9 1.7 1.3 1.6 5.8-1.6 2.7-1.9 5.5-3.5 6.3-3.5s2.3-.9 3.3-2 2.7-2 3.7-2c4.2 0 14.8-7.6 14.8-10.7 0-1.9-.8-1.7-8.5 2.7M409 871.8c0 1.6 2.5 3.2 5 3.2 2.4 0 2.4-.1-.8-2-3.6-2.2-4.2-2.4-4.2-1.2m9.4 19.6q.5 3.3-.4 4.1-1.2 1.1-.8 2.4c.2 1-.3 2.5-1.1 3.4-1.2 1.5-.9 1.7 3.2 1.7 3.7 0 5.3.6 8 3 1.9 1.6 3.9 3 4.4 3 1.5 0 9 8.3 9.8 10.9 1.1 3.7 4.6 9.1 5.5 8.6.5-.3-.3-3.3-1.7-6.7q-2.5-6.2-1.9-9c.5-2.6.4-2.8-3-2.8q-7.6 0-11.2-7.6a40 40 0 0 0-5.7-8.2c-1.9-2.2-3.5-4.5-3.5-5.1s-.5-1.1-1.1-1.1q-1 0-.5 3.4m108.3 61.4c-.9 1-1.7 2.3-1.7 2.9s-.6 1.6-1.4 2.2c-1.8 1.5-2.5 5.5-1.4 7.5 1.6 2.9 4.8 1.9 6.4-2a20 20 0 0 1 3-5.1c1.9-1.9 1.8-2.6-.9-5.1-2.3-2.2-2.4-2.2-4-.4M480 991.7c-8.3 4.4-8.6 4.4-13.3 3.3-5.6-1.4-6.5-1-4.9 2.5q1.2 2.5 3.6 2.5c3.7 0 6.9 5 5.6 8.5-.5 1.4-1 5-1 7.9 0 4.5.3 5.4 2.3 6.5 1.8 1 2.8.9 5.2-.3a15 15 0 0 1 4-1.6c.6 0 2.1-1.2 3.4-2.5s2.7-2.2 3.2-1.9q1.1.4 2.5-.7c2.1-1.8 1.7-24-.6-26.7-1.4-1.8-1.8-1.7-10 2.5"/></svg>