<svg xmlns="http://www.w3.org/2000/svg" width="1365.333" height="1365.333" viewBox="0 0 1024 1024"><path d="M474.2 1.6c-3.1 2.1-1.4 5 3.8 6.5 3.5 1.1 4.2 1 6-.6 2.5-2.2 2.5-3.7.2-5.8s-7.1-2.2-10-.1m-13.6 18c-.7 2.8.9 6.4 2.8 6.4 1.6 0 2.6-3.2 1.9-5.9-.8-3-4-3.3-4.7-.5M505 31.7c-2.4 3-2.3 6.1.2 7.7 2.1 1.2 4.9-1 7.2-5.7 1.1-2.4 1.2-3.3.3-3.9-2.4-1.5-5.6-.7-7.7 1.9m-35.6 2.4c-1.6 1.7-1.6 2.2-.4 2.9 2.9 1.8 5.7 1.1 6.2-1.5.3-1.3.3-2.7 0-3-1.2-1.1-4-.4-5.8 1.6M431 56.4c-3.1 3.2-5.2 4.6-7.1 4.6-3.3 0-3.7 1-4.4 11.3a63 63 0 0 1-6.6 26.2c-2.1 4.5-4.5 10.7-5.3 13.7-.8 3.1-2.1 7-3 8.6-2.3 4.4-2 8.7.9 14.1 3.2 6 4.5 14 4.5 27.4v10.9l-3.4 3.9-3.3 3.9.4 18.8c.5 18.4.5 18.8 3.3 23.4q4.4 7-1 6.8c-.9 0-3.1 1.3-5 3-5.4 4.5-13 3.7-13-1.5 0-2.8-2.4-5.3-9.2-9.7-3.8-2.4-4.8-3.6-4.8-5.7 0-1.5-.6-3.5-1.3-4.4-1.1-1.6-1.4-1.6-3.3-.2-1.9 1.3-2.2 2.7-2.7 12.2-.3 6-.8 12-1.2 13.4-.6 2.1-.1 2.9 2.9 5 4.1 2.8 4.5 4.7 5 24.9.3 13.7.5 14.5 7.1 23 3.7 4.9 4.3 6.3 4.9 12.5 1.2 12.8 1.8 16 3.4 17.7 1.9 2.2 5.1 2.3 8.1.2 2.9-2.1 4.8-.6 3.1 2.6-1.9 3.5-.4 7.8 3 8.5 2.2.5 3.7 1.9 5.7 5.7 3.5 6.2 8.1 9.4 10.8 7.4 2.6-1.9 3.3-11.8 1.1-17-1.6-3.8-1.6-4 .5-6.2l2.2-2.3 4.1 2.9c2.3 1.6 7.6 3.9 11.9 5.1 6.6 1.9 8 2.7 9.8 5.6s2 3.9 1 5.9c-1.1 2.5-5.4 3.4-6.6 1.4-1.3-2.1-3.4-.9-4.1 2.4-.4 2.5-2.6 5.4-8.1 10.7l-7.5 7.3 1.5 13.4c.9 7.4 1.8 13.6 2.1 14 .8.8 5.6-3.9 5.6-5.5 0-2.2 4.6-1.5 7.8 1.2q3 2.5 4.1 7.1c.9 3.5 1.5 4.4 2.4 3.5 1.9-1.9 4.3-1.3 8.6 2.3 4.6 3.8 12.5 6.2 17.4 5.1 1.8-.3 5.6-.9 8.5-1.2 4.6-.4 5.2-.7 5.2-2.8 0-1.3-1-3.2-2.3-4.2q-5.4-4.3 4-6.4a25 25 0 0 0 8.5-3.7c2.6-2.2 3.5-2.4 8.6-1.8 7.5.9 17.3 6.7 24.4 14.5 4.6 5.1 6.2 6.1 12.5 8.1 9.6 3 12.4 6.4 13.5 16.4.8 7.8 2.9 10.5 8 10.6 3.9 0 5.2-2.9 4.3-9.9a26 26 0 0 0-7.1-16c-3.2-3.7-3.5-4.5-3.3-9.8q.2-5.8-2-11.1a37 37 0 0 1-2.1-6.7c0-3.2 4.2-1.2 11.3 5.4 4.1 3.8 8.4 7.4 9.6 8.1s3.3 3.6 4.6 6.6c2.1 4.8 2.7 5.4 5.4 5.4 1.7 0 4.3 1.1 6.3 2.7 6 4.9 18.3 16.7 20.4 19.8 2 2.7 2.1 3.2.7 5.8-.8 1.6-1.3 4.2-1.1 5.9.3 2.9.7 3.3 5.4 4.3 2.8.6 6.6 2.3 8.5 3.7s5.1 2.8 7.2 3.1c2 .3 4.9 1.5 6.4 2.6l2.6 2.1 5.1-4.3c6.8-5.8 7-5.9 11.1-5.1 5.6 1 4.2 6.4-1.6 6.4-5 0-5.9.9-5.9 5.9 0 5.9 1.1 7.5 5.2 7.5 2.7.1 3.4.5 3.6 2.5.4 2.7 3 7.1 4.2 7.1.4 0 2.4-2.6 4.5-5.7 4.3-6.4 5.6-13.2 3.5-18.2-.9-2.4-.9-3.4.5-6.1.9-1.7 1.5-4.8 1.3-6.8-.2-3-.8-3.8-2.5-4q-2.4-.5-2.3 1.7c0 1.1-.7 2.7-1.6 3.5-1.4 1.5-1.8 1.4-4.5-1.5-2.6-2.8-3.4-3.1-8.1-2.9-10 .4-10.7-.4-6.7-8.1a15 15 0 0 0 1.7-4.3l-3-1.9q-2.8-1.8-2.8-4.3c0-3.7-5.5-10.4-8.6-10.4q-2.3 0-3.9-3c-3.5-6.8-.9-8.5 13.4-8.5h10.5l1.8-3.1 1.9-3.2-13.5-6.6c-7.4-3.6-14-6.6-14.7-6.6s-2 .7-2.9 1.5c-1.4 1.2-2.3 1.3-5.1.3-4-1.3-4.9-2.4-4.9-6.1 0-3.3-1.6-3.5-7.7-1-4.4 1.8-5.8 4.3-2.4 4.3 2.6 0 2.9 1.4 2.2 9.8-.9 9.6-3.2 11.3-9.9 7.2-3.1-1.9-3.3-2.3-2.7-6.3 1.1-7-1.6-15-6.8-20.5-3.2-3.5-4.6-5.9-5.1-9.1-.5-3.6-.9-4.2-2.4-3.5-.9.5-7.8.8-15.2.9h-13.5l-4.7 3.4c-3.9 2.8-4.8 4-4.8 6.5q0 5.4-6.6 11c-4.7 3.9-13.2 3.7-21.7-.5-7.4-3.7-11.7-7.5-11.7-10.3 0-1.2-1.1-4.4-2.3-7.1a50 50 0 0 1-3.1-8.5c-.3-1.9-1.7-5-3.1-7q-4.5-6.7 1.6-10.4c3.4-2 3.5-2.6.9-4.9-1.1-.9-2-2.6-2-3.7 0-1-1.3-3.4-2.9-5.2s-3.4-5.1-4.1-7.3-1.8-4.7-2.5-5.5-1.6-2.9-1.9-4.6c-.4-1.7-2.1-4.4-3.7-6-5-4.7-7.4-10.4-4.4-10.4.8 0 2.6-1.7 3.9-3.8s3.2-4.5 4.2-5.4c6.9-6.1 7.3-6.7 7.9-11.2.6-3.6.4-5.1-.9-6.5-2.3-2.6-2-5.8 1.3-12.6 4.2-8.4 6.2-10.4 12.9-12.4 3.2-1 7.8-3.2 10.2-5q7.5-5.6 3.1 2.8c-4.6 9-1.4 9.5 6.2 1 4.7-5.2 5.6-6.7 5.9-10.7.9-9.7 4.9-21.9 9-27a58 58 0 0 0 10.4-24.7c.6-5.7.4-6.6-2-10.1a16 16 0 0 1-2.6-5.7c0-3-5-8.7-7.6-8.7-4 0-9.3-9.3-10.5-18.5a86 86 0 0 0-1.5-8.8c-.3-1.6-.2-4.5.4-6.5.6-2.1 1.5-7.1 2.1-11.2.9-5.9 1.8-8.1 4-10.5 6.5-6.9 7-9.8 2.9-15.7-1-1.5-2.5-4.3-3.3-6.2-2.4-5.7-6.5-4.5-6.5 1.8 0 3.2-7 9.6-11.6 10.7-6.5 1.5-10.2 1-16.2-2-3.1-1.5-8.8-3.9-12.7-5.1-3.8-1.3-11.3-5-16.5-8.3l-9.5-5.9-8.5-.3c-4.7-.1-10.1-.5-12-.9-3.2-.7-3.8-.4-8 3.8"/><path d="M512.4 303.5c-1.2.8-2.4 1.2-2.6.9q-.6-.2-1.7 1c-1.5 1.8.5 7.1 3.8 10q2.1 1.9 2.1 5.6 0 5 3.7 5c.3 0 .3-2.4 0-5.3-.2-2.8 0-7.6.6-10.5 1.1-4.9 1-5.5-.8-6.8-2.3-1.7-2.6-1.7-5.1.1m156.4 60.7c-1.5 1.1-1.5 2.4-.7 10.4l1 9.2-3.6 7.1a26 26 0 0 0-3 8.1c.8 1.3 5.1 1.3 7.5 0q2-1 4.6.1c1.6.5 4.5.7 6.6.4 3.3-.6 4-1.2 5.8-5.2a26 26 0 0 0 2-8.6c0-3.4-.7-4.8-5-9.3-2.7-2.9-5-6.1-5-7.2 0-2.4-4-6.2-6.6-6.2-1.1 0-2.7.6-3.6 1.2m-158.2 40.4a12 12 0 0 0-.6 3.3c0 .9-1.3 3-3 4.6s-3 3.2-3 3.7 2.9 2.7 6.4 5c3.8 2.6 6.7 5.3 7.4 7 .6 1.5 1.4 2.8 1.9 2.8s2.5-1.5 4.5-3.4c6.8-6.3 7.3-15.9.8-17.2-2.3-.5-3-1.2-3-3 0-2.6-1.1-3-4.1-1.4-1.6.9-1.9.7-1.9-1 0-2.5-4.5-2.8-5.4-.4m-69.9 5.4c-3.1 2.5-9.7 2.6-21.7.5-13.4-2.4-13.2-2.4-15 5.3-.9 3.5-.4 3.8 6.5 4.4 2.4.2 3.1.8 3.3 2.8s2.6 4.2 9.2 9c4.8 3.6 9.1 7.4 9.4 8.5s1.1 6 1.8 10.9l1.2 8.9 5.8 5.5c4.8 4.6 5.8 6.1 5.8 8.8 0 4.4 7.7 14.7 12 16.3 1.7.5 3.4 2.1 3.9 3.4s2.3 3 4.1 3.7c2.8 1.1 3.3 1.1 5.3-.8 1.2-1.1 3.8-2.4 5.7-2.9 2.9-.8 3.7-1.6 4.7-4.9a32 32 0 0 0 1.2-7.1c.1-2 1.2-4.5 3-6.5 1.5-1.8 3.4-4.3 4-5.6 1.5-2.9.5-8.1-2-10.5-2.7-2.6-2.6-13 .1-17.5q4.3-7.2-.7-9.3c-6.8-2.7-9.1-4.3-10.6-7.4-2.1-4.4-10.7-9.5-16-9.5-3.7 0-9.6-2.4-14.9-6.1-3.2-2.3-3-2.3-6.1.1m145.7 24.5q-1.3 3 3.4 3.8 3 .6 6.4 5.4c4.1 5.7 9.3 8.9 13.1 7.9 3.5-.8 3.4-2-.5-4.8a69 69 0 0 1-8.8-8c-4.8-5.1-6-5.8-9.3-5.8q-3.7 0-4.3 1.5m46.7 27.1-3.5 1.5 3.7 3.7c2 2 4.5 5.8 5.6 8.4 1.7 4 4.4 6.8 6.5 6.8.3 0 .6-1.8.6-4q.1-4-1.9-5c-1.1-.5-2.8-3.5-3.8-6.7-1.1-3.1-2.3-5.8-2.9-5.9-.5-.2-2.4.4-4.3 1.2m87.2 6.1a7 7 0 0 1-1.5 2.4c-1.2.8-29.5.3-33-.6a7 7 0 0 0-4.8.5c-2.2 1.2-2.2 1.2-.2 3.3a23 23 0 0 1 5.5 12.6c.8 6.7 8.5 13.4 18.3 16 3.2.9 4.4 1.8 5.8 4.8a29 29 0 0 0 20.6 16.6c1.3-.3 1.5.7 1 6.1-.5 5.7-1 7-3.9 10l-3.3 3.4 3.1 1.6c1.7.9 3.5 2.5 4.1 3.6s3.1 4.4 5.6 7.3c10.8 12.7 12 13.2 27.1 12.4l11.3-.6 6.2 3.9c3.3 2.2 7 4 8.2 4 1.6 0 .5-1.4-4.7-6.4a40 40 0 0 1-6.7-7.4q-.2-1-2.2-1.4-2.4-.2-2-2.3c1.6-9.3 1.7-8.6-2.7-12.4l-4.2-3.6-1.6-12.5a95 95 0 0 1-1.3-22c.1-1.4-.2-5.3-.6-8.8-.6-5.7-1-6.6-4.7-9.7a20 20 0 0 0-4.9-3.5c-.4 0-.8-1.5-.8-3.4 0-2.5-1-4.5-3.7-7.5-3.5-3.9-4.4-4.3-10.3-5.1-3.6-.4-7.8-1.3-9.3-1.9-4.4-1.7-9.7-1.4-10.4.6m-195 3.7c-2.8 1.8-3.2 2.7-3.3 6.4 0 2.4-.8 5.7-1.7 7.3-1.5 2.5-1.6 3.5-.5 7.4.7 2.5 1.2 5.8 1.2 7.3 0 1.7 1 3.8 2.4 5.1l2.4 2.3.7-8.9c.4-4.8 1.4-12.2 2.3-16.3 2.7-13 2.2-14.5-3.5-10.6m85.7-.4c-2.1 1.3-1.6 21.9.6 23.6q1.3 1 1.4 2c0 .8-3.1 5.8-7.3 11.7-1.7 2.4-1.7 2.8-.2 5.6.8 1.7 1.7 3.1 2 3.1 1.4 0 9.7-10.3 11.6-14.3s2.6-4.7 5.4-4.7c2.3 0 4 1 6.6 3.6 4.5 4.8 16.5 12.8 33.1 22.2l5.7 3.3-.8-2.8c-.5-1.6-1.8-4.7-3-7s-2.1-5.3-2.1-6.6-1.2-3.4-2.6-4.8a20 20 0 0 1-4.1-6.2c-1.2-3-2.7-4.4-7.3-6.7a31 31 0 0 1-8.3-6 50 50 0 0 0-10.8-7.4l-8.2-4.4-3.8 2.4c-3.8 2.4-3.8 2.4-4.9.3a9 9 0 0 1-.5-5q1.2-4.4-2.5-1.9m-57.4 7.9c-1.9 2.1-1.9 2.2.4 4.6 1.3 1.4 2.8 2.5 3.4 2.5s2.8 1.1 4.8 2.5c4.3 2.9 6.3 3.1 7.6.9s.4-5.6-2.1-8.8c-3.1-3.8-11.3-4.8-14.1-1.7m-180.4 17.4-2.2 2.3 2.5 2.4c1.4 1.3 2.5 3.3 2.5 4.4s1.7 4.1 3.8 6.5c3.8 4.4 3.9 4.4 6.2 2.8 2.6-1.8 6.5-2.3 7.4-.8 1.8 2.9 13.6 1.6 13.6-1.5 0-.8-1.8-3.3-4-5.5-3.3-3.4-4.9-4.2-8.7-4.7a25 25 0 0 1-10.7-4.4 30 30 0 0 0-7.1-3.8c-.6 0-2.1 1-3.3 2.3m-2 20.4c2 4.5 7 13.3 7.8 13.8.5.3.7 2.5.3 5.2l-.6 4.6 3.2-1.9c4-2.3 4.7-3.6 5.6-9.5.7-4.5.6-4.6-2.2-5.2-1.7-.3-4.9-2.2-7.2-4.1-3.8-3.2-7.8-4.8-6.9-2.9m147 1.5c-.5.7-1.3 3.4-1.7 5.9-.7 4.6-.6 4.7 4.5 9.5l5.2 4.8-.7 14.7a112 112 0 0 0 .6 23.4l1.3 8.8-3.2 2.6c-4.7 3.9-5.4 6.9-4 16.7.9 6.6.9 9.7 0 14.1-.6 3.1-1 5.8-.8 6.1.3.2 1.8.1 3.5-.3 2.4-.5 2.9-1.1 2.8-3.2s1-3.6 5.6-7.4c6.4-5.2 12.5-7.7 26.7-10.8 12.4-2.8 18.5-6.6 20.1-12.4 1.5-6 9.5-13.8 17.5-17.2q6.4-2.7 6.4-4.4c0-6.9 2.4-24 3.7-25.9.8-1.3 1.2-2.6.8-3-1.1-1.1-9.9 1.9-14.5 4.9l-4.5 3-.3-2.5q-.4-2.6-4-5.1c-4.3-3-5.9-3.1-8.5-.8-1.4 1.3-3.6 1.8-8.2 1.8-5.5 0-6.8-.4-9.2-2.6-3.2-3-15.7-10.2-25.3-14.6-3.6-1.7-7.4-4-8.4-5.1q-3.2-3.7-5.4-1m173.3 14.7c-1.6 5.2 4.1 11.9 9.1 10.7 2.2-.6 2.5-1.1 2.2-4.4-.2-2.9-1-4.1-3.7-5.9q-6.3-4.2-7.6-.4"/><path d="m684.3 543.7 1.7 6.8c.7 2.7 2.1 7.1 3.2 9.7 1.5 3.3 1.9 5.6 1.4 8.2-.7 3.7 1.8 15.1 3.6 16.2.5.3 2.2.9 3.8 1.4 2.9.8 3.1.7 5.6-4.1l2.5-5 4.5 3.3c5.9 4.2 5.8 4 8.6 13.9l2.5 8.6-2.4 2.7c-2.7 3.2-2.8 4.8-.8 10.6.8 2.3 1.5 7.5 1.5 11.4 0 9 1.7 12 6.4 11.3 2.5-.4 3.6.1 5.7 2.6q2.4 2.8 3.7 2.3c1.9-1.1 1.4-7.8-.8-11.1-2.5-3.8-2.5-4.6.1-7.9l2.1-2.7 2.5 3.5c2.8 4.2 6 4.7 11 1.6l3.3-2-2.2-5.2c-1.1-2.9-2.9-8.1-3.9-11.6-1.3-4.7-3-7.7-6.8-11.9-5.4-6.1-5.6-6.7-6.6-20.3-.8-11.6-3.1-20.9-6-24.5-2.2-2.8-2.4-2.9-3.7-1.2a23 23 0 0 1-8.3 3.8c-11.1 3.1-15.5 2.3-15.5-2.6 0-3.1-1.9-4.6-4.3-3.4-1.6.9-2.4.5-4.9-2.5q-3-3.6-5.5-3.6-2.7-.1-2 1.7m-319.5 9.1c-5.1 3.1-3.2 4.5 4.6 3.6 5-.6 5.6-.9 5.6-3s-.5-2.4-3.7-2.4c-2.1 0-5 .8-6.5 1.8m-21.8 6.7q.1 2.6-2 2.5c-2.3 0-3.8 5.8-2.2 8.5 1.1 2-.5 7.5-2.5 8.8q-3.6 2.3 3.3 12.2c3.8 5.4 4.5 7.1 3.9 9.3l-.7 2.7-2.1-2.6c-1.2-1.4-3-2.9-3.9-3.2s-2.2-2.4-2.9-4.6q-1.8-5.6-4.1-3.6c-.5.6 2 9.9 4.6 17l1.4 4-4.7 5c-2.5 2.7-5.6 6.3-6.9 7.9-1.8 2.3-2.5 2.6-3.6 1.7-2.5-2.1-9.1 3.2-12 9.5a15 15 0 0 1-6.1 7.5q-3.4 2.2-3.1 3.5.6 1.8 1.1 2.6c.3.7.1 2-.5 2.8q-.9 1.8-2.2.2c-2.2-2.2-3.5-1.3-7.7 5.2-2.5 3.8-9.7 11.6-17.7 19.2a91 91 0 0 0-19.8 23.3c-.9.8-1.6 2.4-1.6 3.7 0 2.3-.3 2.4-6.3 2.4-5.6 0-6.7.3-8.8 2.6a17 17 0 0 1-4.6 3.5c-1.2.4-3.1 2.5-4.1 4.5a11 11 0 0 1-4.9 4.8c-3 1.1-24.9 24-29.6 31.1a14 14 0 0 0-2.7 7.5c0 1.9-.9 5-2 6.8-2.1 3.3-2.6 6.2-1.2 6.2.4 0 2.8-2 5.2-4.5 4-4 4.9-4.5 9-4.5q8.1 0 11.3-9.5c1.3-3.7 2.3-4.5 13.6-10.7 14.8-8.1 17.5-10.3 22.3-18.2s6-8.6 12.6-8.6c5.2 0 5.5-.2 11.2-5.8 3.2-3.2 6.9-6.6 8.2-7.4 1.4-.9 4.1-4.7 6.1-8.5 2.1-4.1 4.7-7.5 6.4-8.5 2.8-1.6 2.9-1.9 2.5-8-.4-5.5-.3-6.1 1-5s1.7.5 2.3-4.3c.6-5.4.8-5.6 6.7-9.7 3.8-2.5 8.6-4.7 12.7-5.7l6.6-1.7 4.5-8.6c6.6-12.7 8.6-14.4 17.1-15 7.5-.6 9.4-1.7 12.4-7.1 1.7-3.3 1.7-3.3-1.4-8.4a17 17 0 0 1-3.1-8.9 14 14 0 0 0-2.5-7.6c-2.7-4-3.1-7.5-1.3-12.4a12 12 0 0 0 0-7.5c-.9-3.5-.8-4.8.5-6.9 1.5-2.6 1.4-3-1.2-7.4-3.1-5.2-6.5-6.4-6.5-2.1m320.4-.8c-.4 1-1.7 4.3-3.1 7.3a40 40 0 0 0-3 12.5c-.4 5.9-1.3 8.5-5.5 16.5-2.8 5.2-7.3 15.1-10.2 22s-8.7 18.3-13 25.5c-10 16.4-12.1 25.1-10 40.9l.7 4.7 3.8-3.7c3.1-3 3.9-4.5 3.9-7.4 0-2.6 1.1-5.3 4-9.3 2.7-3.9 5.1-9.4 7.6-17.4 4.7-15 9.6-21.9 18.1-25.4q5.6-2.2 8.3-6l2.7-3.8-1.4-8.8c-1.2-7.6-1.2-9.5.2-15.5.8-3.7 1.5-10.4 1.5-15a96 96 0 0 1 1.7-17.4l-3-.8c-2.1-.5-2.9-.2-3.3 1.1"/><path d="M607.5 584.1c-2.8 1-6.7 1.8-8.7 1.9-2.7 0-4.4.7-6.3 2.7-2.4 2.5-2.6 3.4-2.1 8.2.5 5.2.4 5.4-4 10.1-2.4 2.6-4.4 5.6-4.4 6.6 0 1.1.9 5 2 8.8 1 3.8 2.2 9.5 2.6 12.6.6 5.1.3 6.3-1.5 8.9q-2.2 3-4.6 3.1-2.4 0-4.1 2.9c-1.5 2.6-2.6 3-9.1 4-4.1.6-8.5 1.1-9.8 1.1-1.9 0-2.6.7-3.4 3.7-.6 2.1-1.1 6.1-1.1 8.9 0 5 .2 5.3 9.1 15.5 6.5 7.5 9.8 10.5 11.7 10.7 5.6.7 10.6 5.7 16.3 16.1q3.6 6.7 5.6 6.9c6.4.9 17.3-5.6 17.3-10.4 0-1.3.9-3.8 2-5.6 3.7-6 2-11-6.2-18.6l-4.3-4.1 1.8-4.9a45 45 0 0 0 1.7-12.8c0-8.6 1-11.4 7.4-21.8 2.7-4.5 3.6-7.1 3.6-10.3 0-4.5 1.8-9 4.3-11.2.9-.6 3.3-5.8 5.5-11.4 7.6-19.4 6.7-22.2-7.8-22.9-6.5-.3-9.8 0-13.5 1.3m-42.4 22.1c-6 7.3-6.8 9.6-4.9 13.5 1.2 2.4 1.9 2.8 4.8 2.5 3.6-.2 7-3.2 7-6 0-.9 1-3.6 2.1-6 1.7-3.4 2-5.1 1.3-7.1-1.7-4.7-4.6-3.8-10.3 3.1m213.1 10.1c-3.6 1.7-6 7.4-6.3 15.3-.3 5.5 0 7.5 1.3 8.7a16 16 0 0 1 2.3 6.4c.8 5.8 2.9 9.3 5.4 9.3s3.1-1.9 3.1-11.4c0-7-.3-8.6-2-10.1-2.3-2.1-2.6-6.2-.5-8.9 1.5-2 2-6.3.9-9-.7-1.8-1.1-1.9-4.2-.3m-98.7 21.1c-1.1.7-3.6 1.8-5.6 2.5-3.2 1-3.7 1.7-4.3 5-.8 5.4-3.4 8.1-11.2 12.1l-7.3 3.7c-.2.2.4 2.3 1.4 4.8 1.8 4.9 1.5 5.9-3 9.7l-2 1.8h2.2c1.2 0 3.4-.5 5-1.1a110 110 0 0 1 18.5-1.2l15.7-.2 4.8-4.6q4.8-4.8 8.6-5.3c3.5-.7 3.8-1 3.1-2.9-.4-1.2-.9-5-1-8.5-.2-7.8-1.5-9.5-6.4-8.7-3.5.6-3.8.4-5-2.6-2.1-4.9-9.4-7.4-13.5-4.5m67.5 2.1c0 3.4 2.6 7.2 6.2 9.1 3.8 2 4.4 1.3 3-3.4q-1.8-6.2-6.9-7.6c-2-.6-2.3-.4-2.3 1.9m61.3 6.2c-3.8 3.6-6.3 7.1-6.3 9 0 1.4 10.8 8.3 13.3 8.6 1.8.2 2.3-.4 2.5-3.1q.4-3.4-1.2-3.2c-2 0-2-.4-.1-4 1.4-2.7 1.4-3.3.1-5.8-2.8-5.4-3.9-5.6-8.3-1.5m-44.1 12.9c-2.2 1.5-2.3 2.1-1.6 8.2.4 4.1 1.9 9.3 4.1 14a76 76 0 0 1 7.3 26.3c0 3.5-.5 5.1-2.3 6.7-4.3 4-13.4 2.3-17-3.1q-1.6-2.5-5.1-2.9l-3.6-.4v4.2c0 7.2-1.2 13.4-2.6 13.4-3 0-6.3-2.4-8.3-6.1-1.9-3.4-2.7-3.9-5.8-3.9-4.9 0-11.3 2-11.3 3.6 0 .7.5 2.5 1.2 3.9.9 1.9.8 3.4-.2 6.6-1.2 3.5-1.2 5 .1 9.9 1.8 6.9.9 9.5-3.3 10.4q-9.4 2-12.8-1.9c-2.9-3.1-7-3.2-9.8-.3a49 49 0 0 0-5.2 9.3c-3 6.6-3.1 7.2-1.6 10.2l1.5 3.1-8.7 1.2c-13.5 1.8-14.1 1.9-14.8 4.3q-.5 2.2-6.1 4.6c-3.1 1.4-7 4-8.6 5.8-1.7 1.8-3.4 3.3-3.9 3.3-1.9 0-.5-3 2.8-6 3.2-2.8 3.9-4.2 5.8-12.8l2.3-9.7-2.1-6.2c-2.1-6.7-4.2-8.4-10.1-8.2-4 .1-10.1-1.4-15.5-3.9-5.1-2.4-6-2.1-6.1 1.6 0 2-1.2 3.6-4.9 6.4-4.4 3.4-5.6 3.8-10.7 3.8-6.5 0-12.3 2.7-12.3 5.7-.1 1-.7 3.6-1.5 5.7-1 2.9-1.1 4.5-.3 6 1.7 3.1-2.6 6.1-10.9 7.6-3.7.7-13 3.7-20.5 6.7a187 187 0 0 1-16.7 5.9q-3 .6-7 5.9l-3.9 5.2 2 8.3c2.3 8.9 2.4 8.4-2.8 11.5-1.2.8-1.8 2.8-2.2 7a25 25 0 0 1-1.8 8c-.8 1.1-1.4 2.7-1.4 3.6s-1.4 2.2-3.1 2.9q-6 2.4-3.9 11c1.9 7.5 4.4 9.7 12.7 11 4 .6 7.7.9 8.2.6s1.2-2.2 1.6-4.3 1.5-5.4 2.6-7.5c1-2 1.9-5.3 1.9-7.1 0-1.9.7-4 1.5-4.7s2.2-3.7 3.1-6.6c1.2-4.4 2.3-6 6-8.6 3.5-2.5 4.4-3.7 4.4-6.1q0-3-2.1-3.4c-2-.6-2-.6.2-2.9 1.2-1.3 2.8-2.4 3.4-2.4s2.2-1.1 3.4-2.4c2.5-2.6 9.4-4 12.3-2.5 1.4.8 1.8 2.2 1.8 6.8 0 5.4.3 6.2 3 8.5 2.6 2.2 3.4 2.4 5.6 1.4 1.8-.9 2.7-.9 3.6 0q1 1.3 4-1.3c1.6-1.4 3.4-2.5 3.9-2.5s.9-1.3.9-2.8c0-2.7 3.4-7.2 4.5-6 .3.2.8 1.8 1.1 3.5.5 2.6.2 3.2-1.6 3.8-2 .6-2 .8-.5 2.5 1.3 1.5 2.7 1.7 6.8 1.3l5.2-.4 1.8 4c1 2.2 3.2 5 4.8 6.2 2.9 2 3.1 2 5 .4 2.6-2.5 2.5-3-2.1-8.2l-4-4.6 3.5-3.8c1.9-2.2 3.5-4.1 3.5-4.4s-.7-2.2-1.5-4.2c-2.7-6.4-2.5-6.6 6.8-5.8 6.8.6 8.8 1.2 11.7 3.5a68 68 0 0 0 20.4 9.6c5.3 1.6 6.3 2.5 10.5 8.1 3.7 5.1 5.1 6.2 7.5 6.3 2.6 0 2.8.2 2.1 2.7-.3 1.6-3.8 7-7.7 12.1a117 117 0 0 0-10.8 16.7 14 14 0 0 0-2.6 4.3l-1.5 3.7 3.8 3.2 3.9 3.2-1 7.5-.9 7.5 4.1 6.8c2.2 3.7 6.9 9.5 10.4 12.9 6.1 5.9 7 6.4 28.1 14.7 26 10.3 29.7 10.9 35.3 5.3q3.4-3.4 3.4-6.3c0-3.8 4-6.4 6.5-4.3 3 2.5 3.6 4.7 2 7.7-.8 1.5-1.5 3.2-1.5 3.6 0 .5-1 1.7-2.2 2.6-2.7 2.3-2 5.2 2.6 11.3 2 2.6 3.6 5.9 3.8 7.9.5 5.5 3.2 5 10.5-2.3 4.4-4.4 6.7-7.5 7.4-10.3.6-2.2 2.8-5.8 4.9-8.1q3.7-4 5-9.3c1.3-5.5 1.1-7.2-2.2-22.3l-2.1-9.8-6.2-3.9c-6.7-4.1-10.8-8.9-11.9-13.5-1.2-5 8-20.5 12.2-20.6 2.8 0 6.2-4.8 6.2-8.7 0-3.4.7-4.6 5.5-9.3l5.5-5.4v4.1c0 3.6.5 4.5 4.5 7.7 2.5 2.1 4.5 4.5 4.5 5.4s.9 4.9 2.1 8.8c1.7 5.6 2.7 7.4 5 8.8 2.8 1.7 2.9 2 2.9 9.5q0 14 6.6 21.3c3 3.4 3.3 3.5 3.8 1.5.3-1.2.6-7.9.6-14.8 0-9.9-.3-12.9-1.5-13.9-1.6-1.3-3.1-7.7-2.1-8.7.3-.4 2.2 1.2 4.2 3.5q7.5 8.9 6.4-1.3a6 6 0 0 0-1.1-2.9q-2.2-2.6 1.5-2.6c3.6 0 7.1-3.4 9.1-8.7 1-2.6 3.5-7.4 5.7-10.5 4.7-7 5.1-12.1 1.3-16.6-2.2-2.6-2.5-3.9-2.5-10.9v-8l-3.9-1.8c-2.2-.9-5.4-3.2-7.1-5l-3.2-3.3 2.1-6.4c1.2-3.5 2.5-9.1 2.8-12.6l.6-6.2h-3.7q-6.8 0-3.2-6c2-3.6 2-5.5-.1-9.2-2.4-4-7.8-7.1-13.3-7.8-5.1-.6-6.8-3.3-2.8-4.6 1.3-.4 4.4-2.8 6.9-5.4s5.2-4.9 5.9-5.2c1-.3-.4-3.5-5-11.4-5.4-9.2-6.5-11.8-6.8-16.7-.4-5.4-.6-5.7-3.1-5.7-1.4-.1-3.8-.6-5.3-1.3-3.3-1.5-7.8-7.9-7.8-11.2 0-1.9-1.3-3.1-6.3-6a42 42 0 0 0-7.5-3.5c-.5 0-5.5-3.4-11-7.5s-10.4-7.5-10.9-7.5-1.9.7-3.1 1.6"/><path d="M714.3 699.2a14 14 0 0 0-1.8 4.9c-.6 3.1-.3 3.9 1.6 5.3 4.8 3.3 8.9 1.2 8.9-4.6a9 9 0 0 0-1.2-4.1c-1.8-2.2-6.2-3.1-7.5-1.5m-79.6 4.3c-2.7 3.3-2.8 3.5-1.1 6 1.3 1.9 2.5 2.5 5.4 2.5 2.1 0 4.7-.8 5.9-1.8l2.2-1.7-4.2-4.3a20 20 0 0 0-4.8-4.1c-.3 0-1.9 1.6-3.4 3.4M194 777.1c-.9 1.6-.9 2.4-.1 3.2 1.2 1.2 3.1-.6 3.1-3 0-2.2-1.9-2.4-3-.2M172.4 793c-4.9 1.9-3.2 10.1 2.3 11.5 3 .7 2.6 1 4-3.8 2-6.7-.7-10-6.3-7.7m352.3 87c-2.6 1.6-6 3-7.6 3s-3.5.8-4.4 1.8c-1.6 1.7-1.4 2 2.9 5.6l4.5 3.8-4.7 5c-4.1 4.4-4.5 5.2-3.2 6.5 1.4 1.3 2.9.8 13.6-4.4 8.3-4 12.5-6.6 13.6-8.5q1.7-2.8 6.2-3.9c6.3-1.6 5.6-3.5-1.8-4.8-5-.9-6.7-1.6-8.6-4.1-2.9-3.8-4.6-3.8-10.5 0m-70.1 48.7c-3.4 2.5-3.7 3.1-3.2 6.2.6 4.2.6 4.1 5.7 5.2 3.2.8 5.3.6 9.1-.7 3.5-1.1 6.5-1.4 10-1 2.8.4 6.4.2 8.2-.4 2.8-.9 3.2-1.4 2.8-3.9-.4-3.2-1.1-3.5-10.5-4.7-3.5-.4-6.1-1.2-6.4-2q-.4-1.4-6.2-1.4c-4.5 0-6.4.5-9.5 2.7m-65.3 53.9c-6.5 3.2-16.3 11.7-16.3 14.2 0 1.8 14.2-2.6 16.9-5.2 2-2 3.8-2.6 6.9-2.6 4.9 0 5.9-1.4 4.5-6.3-1.2-4.3-3.3-4.3-12-.1m-40 33.1c0 3.8.5 7.1 1.1 7.5 2.3 1.6 3.4.6 4-3.8.4-3.4.2-5.3-1.1-7.5q-4.2-7.2-4 3.8"/></svg>