<svg xmlns="http://www.w3.org/2000/svg" width="1365.333" height="1365.333" viewBox="0 0 1024 1024"><path d="M369.7 1.3c-.2.7-2.8 1.9-5.6 2.6q-5.3 1.3-5.1 3c0 2.8-5.6 8.1-8.5 8.1-4.3 0-8.5 2.7-8.5 5.5 0 2.2-.4 2.5-3.6 2.5-2.7 0-3.7.5-4.1 2q-.5 2-5.9 4c-6.5 2.4-8.1 2.5-12.5.6-2.9-1.2-3.7-1.2-5.3 0-1 .7-2.3 1.1-2.9.7q-1-.4-2.1.9-1.6 1.8-3.3 2.7c-1.3.6-2.3 2-2.3 3q.1 1.9-4.5 3.1c-3.7 1-4.5 1.7-4.5 3.6 0 1.3-.4 2.4-1 2.4s-1 1.5-1 3.3-.9 5.1-2 7.2-1.9 4.8-1.6 5.7q.3 1.6-.6 1.5c-.5-.1-1.5 1.5-2.2 3.5-.8 2.1-2.8 5.4-4.5 7.4-5.3 6-6.7 9.8-5.4 14.5q1.1 4.1.1 7.5c-1.2 4.6-.5 6.6 3.3 8.8 2.3 1.3 3.4 1.5 4.2.7 4.9-4.9 13 9.5 14.4 25.4a42 42 0 0 0 2.5 11.4 127 127 0 0 1 5.5 39.2l.6 17.7-3.6 8.8a54 54 0 0 0-4.8 30.9c.5 6.1 1.9 14.4 3 18.5a75 75 0 0 1 1.8 24c-.1 14.9.1 17.1 2.2 23.3 1.8 5.2 2.1 7.9 1.6 11.6-.7 5.4-.1 7.2 4.3 11.9a23 23 0 0 1 4.1 6q1.3 3 4.1 3.5c1.6.4 3.1 1.4 3.5 2.4s1.9 3.3 3.5 5.2c2.5 2.9 3.1 3.2 4.5 2.1s2.3-.8 6.3 2c4 2.9 5 3.1 7.4 2.2q2.7-1 3.4-.1.4.8-.5.9c-2 0-1.2 2.9 3 11.2 6.5 13 26.7 66.2 30 79.3 1.1 4.4 4.7 16.8 7.9 27.5 5.1 17.4 9.3 37.6 11.5 55.5l2.5 18c2.4 16.4 4 41 3.1 46.1-.4 2.2-.4 7.5.1 11.9a50 50 0 0 1-.2 12.5c-1.7 8.3-2.2 17.7-1 18.5 2.1 1.3 5-2.6 5.1-6.9v-4.1l1.6 3.2q1.7 3.3 3.9 3.3c1.2 0 2.9 1.1 3.8 2.5l1.7 2.6-4.2-.3q-4-.2-5.3 1.3c-1 1.3-6.7 4.3-7 3.7l-1.3-2.8c-1-2.4-1.1-2.4-2.3 2-2.3 7.7-7.9 14.3-11.6 13.5q-2.1-.6-3.2 2.1c-1.6 3.4-1.6 3.4 1.3 3.4 2.1 0 2.4.3 1.6 1.7l-1.7 3.8c-.6 1.9-.7 1.9-1.3-.3s-.7-2.1-2.8-.7-2.2 2.4-2.5 17.8l-.3 16.2-3.1 4.5c-1.7 2.5-3.5 5.6-3.9 7s-1.8 4.6-3.1 7.2c-1.9 3.8-3.1 4.9-6.5 6-3.1 1-4.7 2.3-6 4.9-2.9 5.5-3.8 6.1-7.5 5.4-3.3-.6-7.9 1-11.4 4a47 47 0 0 1-14.1 5.5c-2.6 0-12.2 4.6-14.1 6.6-1.7 2-4.2 8-5.2 12.6-.4 1.6-1.3 2.8-2.1 2.8s-2.8 1.8-4.3 4c-1.5 2.1-3.2 3.9-3.9 4q-1 .1-1.7 1.8a7 7 0 0 1-3.1 3.2 7 7 0 0 0-3 4.2c-.4 1.5-2.2 4.5-4.1 6.4s-3.2 4-2.9 4.4-.9 1.3-2.6 2-3.7 2.4-4.6 3.7c-.8 1.2-2.4 2.3-3.4 2.3-4 0-1.8 12.2 3 16.4 2.8 2.6 2.9 11.5.1 17-1.7 3.5-1.8 4.2-.5 6.5 1.4 2.5 1.4 2.6 1.5.3 0-4.2 3.9-10.3 7.5-11.8 1.9-.8 4.2-1.4 5.2-1.4s3.4-1.1 5.4-2.4c3.5-2.4 3.9-2.4 13.9-1.5 9.2.7 10.9 1.2 14.6 3.9 2.3 1.6 4.7 3 5.3 3 3.4 0 5.7 15.5 2.9 20-1 1.5-1 2.7 0 5.4s1 4.2-.2 7.7l-3.1 11.9a83 83 0 0 1-3.1 10.9c-1.9 4.6-1.8 5.1 1.7 10.4a15 15 0 0 1 3.1 9.3c0 2.6.3 5.6.8 6.8.7 2 .8 1.9 2.1-.9 1.9-4.3 6-10.8 7.8-12.2 2.1-1.8 6.8-1.6 7.5.2.3.8 1.3 1.5 2.1 1.5q1.4.1 1 1c-.7 1.2 1.6 7 2.8 7 .4 0 1.9-.7 3.2-1.6q2.6-1.6 3.8-.6c.6.5 3.2 1.7 5.7 2.5 3.4 1.2 4.4 2 4.2 3.4-.2 1-.8 2-1.3 2.1a22 22 0 0 0-3.9 7.8c0 .1 1.7 0 3.7-.3 3.3-.6 3.6-.4 2.9 1.3-2.4 6.1-3 10.5-1.7 11.3q1.3.9.7 3.7l-.8 2.9 2.9-2.8c1.6-1.5 3.6-2.7 4.4-2.7 1.6 0 7.8-5.7 14.7-13.5 4-4.6 4.3-4.8 5.7-2.9s1.5 1.9 5.2-.2q3.7-2.2 3.9-4.3c.2-3.8 15.2-25.1 17.6-25.1.5 0 4.5-2.7 8.9-6.1s9.4-6.6 11.3-7.4a31 31 0 0 0 6.5-4.4 76 76 0 0 0 21.2-21.3c.9-2.2 1.8-2.8 3.8-2.6 1.4 0 5.6-1.5 9.2-3.5 3.6-2.1 7.5-3.7 8.7-3.7 1.4 0 4.6-2.4 8.5-6.3 3.4-3.5 7.5-7.1 9-8.1 1.6-1 3.6-3.1 4.5-4.7 1-1.6 2.4-2.9 3.3-2.9s2.9-1.6 4.6-3.5 3.8-3.5 4.6-3.5c1.8 0 17.7-15.1 17.7-16.7 0-.6 2.2-2.8 4.9-4.7 4.2-3.1 5.3-4.6 7.1-10.1 1.2-3.5 2.7-6.6 3.3-6.8q1.4-.3-.1-2.7c-1.2-2-1-2.5 2.1-5.5 4.7-4.6 5.3-8.2 1.9-11.7-2.1-2.3-2.2-2.8-.9-2.8 2.1 0 2.1-.9.2-3.7-1.3-1.9-1.3-2.5-.1-5 4-8.1 4.8-16.2 1.6-17q-1.8-.6-1.5-1.3t-.5-1.5c-.9-.7-.3-1.6 1-3.2 2.6-3.4 2.5-4.9-.5-6.9-1.4-.9-2.5-2.5-2.5-3.6 0-3.3-3.2-7.8-5.6-7.8q-4.7.1-4.3-7.2c.1-4.4-1.5-15-2.6-16.8q-.4-1 .9-1 1.6 0 1.6-2.6c0-2.4-.3-2.6-3.1-2-1.7.3-3.9.6-4.9.6s-2.6 1.3-3.7 3l-1.9 2.9-6.9-4.8c-5.3-3.7-7.1-5.6-7.5-7.8q-.5-2.8-2.5-2.8c-1.1 0-2.9-1.5-4.2-3.5a67 67 0 0 0-5.1-6.5l-2.7-3.1-2.7 1.9c-2.3 1.7-3.3 1.8-8.1 1q-8.8-1.6-12.5 3c-1.9 2.3-10.7 5-13.4 4.2-2.7-.9-7.8-5.4-7.8-7 0-.6-1.6-2.5-3.5-4.2q-3.4-3.1-3.5-5.6c0-2.2-.8-2.8-5.2-4.3-2.9-.9-5.8-2.1-6.5-2.6s-4.4-1-8.3-1.1l-7-.1-1.1-3.5c-.6-2-2.3-5.1-3.6-6.9-5.8-7.7-9.2-17.5-11.9-33.9a107 107 0 0 1-1.4-35.5c1.2-20.2 3.7-38.5 5.6-40.9.6-.8 1.4-3.7 1.7-6.4a252 252 0 0 1 4.5-21.1 75 75 0 0 1 8.9-24.6 166 166 0 0 0 7.2-13.2c1.1-2.7 4.2-6.8 6.7-9.1 3.7-3.5 4.5-4.8 4.2-7.1-.3-2.7-.7-2.9-5-3.2-3.8-.2-4.8 0-4.8 1.2 0 2-1.9 2-4.7.1q-2.1-1.5-2.5-5.3-.9-8.8-8.9 1l-9 10.3c-14.9 16.1-14.7 15.9-17.6 12.5q-4-4.6-2.9 2c.3 2.2.2 4-.2 4-1.4 0-3.1-4.6-2.5-6.8q.6-2-2.7-4.3c-4-3-14-21-14-25.2 0-4.3-3-15.9-4.6-17.7-3.5-4-17.4-37.3-16.1-38.6a125 125 0 0 0 31.3 8.6c1.8 0 3.6.4 3.9 1s2.1 1 3.8 1c1.8 0 6.1 1.4 9.7 3.1 4.7 2.2 8.9 3.3 15.5 4 11.2 1.2 13.1.8 14-3.1.4-1.6 1.3-3 2-3s1.6-.7 1.9-1.6q.6-1.3 1.6-.9c.9.6 9.2-.4 18.3-2.2 2.8-.5 2.8-.4 1.4 1.9-2.4 3.7-3.1 10.3-1.3 12.1q1.5 1.4 2.4 1.9c1.1.4 5.8 11.7 6.5 15.4.8 4-1.7 7.7-4.4 6.9-1.6-.5-3.9 1.2-10.5 7.9-9 9.1-9.1 9.3-2.1 11 3.6.8 5 0 15.3-9 13.6-11.9 20-15.8 25.7-15.9q4.7-.2 5.8-1.6c1.2-1.9 1.1-2.6-.2-3.5q-.9-.8 3.3-5.3a46 46 0 0 0 12.3-21.5c.9-1.6 2.7-7 4.1-11.9 1.3-4.8 3.6-11.8 5-15.5s4.3-13 6.4-20.7a165 165 0 0 1 10-28.1c0-.6.6-1.7 1.4-2.3s1.6-3.4 2-6.2a14 14 0 0 1 2.6-6.9c2.5-2.5 2.5-5.5 0-8-1.8-1.8-2-3.3-2-12.9a34 34 0 0 0-1-11.6q-1-.7-.2-1.8c.8-1.1.5-5.3 0-11.2-.9-9.7-1-10.1-4.6-13.8-2-2.1-5-4.6-6.7-5.4-1.6-.8-4.1-2.5-5.5-3.8a62 62 0 0 0-25.9-11.5 220 220 0 0 1-65.6-28.6c-6.5-4.6-14.9-13-24-23.9a30 30 0 0 0-11.4-9.6q-5.6-2.5-10.1-7.9a29 29 0 0 0-8.5-7.1c-4.8-2.2-16-2.6-16.8-.6-.2.7-2.5 1.8-5.1 2.5s-5.4 2.1-6.3 3.2q-1.8 2-5.5 2c-2.1 0-3.8.4-3.8 1q.1.9 1 1c1.8 0 1 2.2-1 2.7-1.7.4-2 1.4-2 5.4 0 3.6-.9 6.9-3.5 12.1-4 8.1-9.8 16.4-12.5 17.8-1 .5-2.1 2.3-2.5 4-.4 1.6-1.1 3.2-1.6 3.5-1.2.8-1.1 5.2.1 6q1.1.7-.1 2.1c-.6.8-.9 2.3-.6 3.4s-.1 2.3-.8 2.8-1.7 2.3-2.2 4.2c-1.8 7-2.8 2.7-3.4-14.7-.5-14.7-1-18.9-2.8-24.3a66 66 0 0 1-2.8-15.4l-.6-8.9 14.1.7c13.5.6 14.3.5 16.3-1.5l2.1-2.1-6.1-5.6c-3.4-3.2-6.1-6.5-6.1-7.5s-2.4-3.9-5.3-6.7c-5.4-5.1-5.4-5.2-6.7-13.8-1.7-11-1.7-19.7-.1-21.6s13.5-5.8 15.5-5c1 .4 3.7-1 7.1-3.5 3-2.3 6.6-4.6 7.9-5.3q2.6-1 3.2-4.5c.3-1.8 1.4-3.8 2.3-4.3s3.2-3.1 5.1-6q3.6-5.2 5.5-4.8a22 22 0 0 0 8-3.6l9.2-5.6 3.3-2-.4-10.3c-.4-9.5-1.9-15.7-3.7-15.7q-.7.1-1.2 1.3m310.9 832.9c-5.7 5.1-5.7 5.2-3.4 6.4 1.4.8 6 1.3 11.5 1.4 9.2 0 9.3 0 10.8-2.9.8-1.7 2.5-3.1 3.7-3.3l2.3-.3-2.7-2.8c-2.5-2.5-3.1-2.7-8.3-2.1q-5.4.6-6.8-.5c-1.1-.9-2.6 0-7.1 4.1m6.5 22.2c-2.2 2.4-3.7 2.8-15.9 4.4-5 .6-6.8 1.3-8.2 3.2-1.7 2.3-2.5 2.5-9.4 2.4-5.8-.1-7.6.2-7.6 1.2 0 .7-2.3 2.3-5 3.5q-5 2.1-4.9 3.8c.1.9-.2 2.4-.6 3.5q-.7 1.8.3 3.7c1.7 2.7 1.5 3.2-1.1 2.5-1.9-.4-2.6 0-3.5 1.8a6 6 0 0 1-4.4 3.1c-5.1 1.2-6.8 2.6-9.9 8.7-2.2 4.4-3.9 6.3-6.9 7.8-3.5 1.8-3.9 2.3-3.4 4.8.4 2.1.1 2.9-1.7 3.7-1.3.5-3.2 2.8-4.4 5l-5.3 9.9c-1.8 3.2-3.2 7-3.2 8.4 0 2.6-4.6 10.8-8.6 15.2a90 90 0 0 0-7.4 12.8c-3.7 7.3-5.7 10.2-7 10.2-1.4 0-1.8.7-1.6 3.2l.1 3.3-5.8.3-5.8.3.3 4.2c.3 3.8.6 4.3 4.1 5.6 3.2 1.2 4.7 1.2 8.7.2 4.4-1.1 5.3-1.1 8 .5q3 1.8 3 4.1.1 2.1 1 2.3c.6 0 1-1.5.9-3.3-.3-4.6 2.1-10.5 4.5-11.1 4.8-1.3 12.4-.6 14.7 1.4q2.1 1.8 1.1 2c-2.1 0-6.2 5.1-6.2 7.6q-.1 4.6-8.2 4.2-4.5-.3-4 1c.1.7-.7 2.5-1.8 3.9-2.9 3.7-2.5 5.2 2 9 3 2.6 4 4.2 4 6.4 0 3.8 2.8 3.9 4.1.1.5-1.6 2.3-3.9 3.9-5.1 2.7-1.9 2.9-2.6 2.4-6.1-.9-5.3 0-8.1 3.5-11.7 2.3-2.5 3.9-3.2 7.5-3.4 3.9-.3 4.9.1 6.2 2q1.7 2.2 2.6 1.3c.9-.9 2.5-.8 4.3-.5 2.8.5 3.4.2 4.1-2 .5-1.5 2.9-5.1 5.4-8.1 4.1-5.1 4.8-5.5 8.8-5.6h4.2v4.5q0 4.5-1.6 5.3c-1.4.8-1.5 1.5-.5 4.3.6 1.9 1.4 5.1 1.8 7.2a8 8 0 0 0 3.5 5.5c2.6 1.5 2.9 1.5 5.5-.4a24 24 0 0 1 12.3-4.4c2.9 0 5.9-2.8 7.8-7.3 1.4-3.2 4.9-3.6 8.7-1.1 2.9 1.9 2.4 3.4-1.2 3.4-2.5 0-2.6 0-.8 2 2.5 2.8 6.8 2.6 8-.2q1-2.4 4.4-2.6c1.8-.2 5.1-1.5 7.2-2.9q3.8-2.6 6.4-2.1c4.1.8 9.2-4.5 10-10.4.7-5.3 1.7-4.6-9.8-6.8-3.6-.7-6.1-1.8-6.4-2.8q-.9-2.1 3.1-11.3.9-1.7-1.9-2.3-10.9-2.9-6-12.6c1.3-2.5 1.3-3 .1-3q-4 0-4.1 9.4v6.1l-3.2.3c-3.7.4-4-.5-2.2-5.7q1.2-3.3.1-4.3-1.1-1.4-2.8 5c-1.7 6-2.6 7.3-3.9 5.2-.4-.6-2.3-.7-4.6-.4q-4 .7-3.9-.5c0-1.9 5.6-7.1 7.7-7.1 1 0 2.8-1.5 4.1-3.4s3.4-3.7 4.8-4c2.8-.7 2.3-2.6-.7-2.6q-4 .2.9-3.7c2.3-1.9 2.5-2.4 1.2-3.3q-1.9-1.1.7-1c3.9 0 3.4-1.8-.7-2.5-2.4-.4-4-1.2-4-2.1 0-1.6 3.9-6.3 9.5-11.3 15.6-14.2 15.6-14.2 16.2-20.8.7-7.7-.1-11.1-3-12.3q-2.5-1-.4-.9c1.9-.1 2.2-2.8.8-9.9-.9-4.7-5.3-10.2-8.2-10.2-.9 0-1.9-.8-2.1-1.8s-2.3-3.2-4.5-5l-4-3.1zm63.7 45.7c-1 .6-1.8 1.9-1.8 2.9 0 2.5.5 2.5 3.1-.1 2.3-2.3 1.4-4.3-1.3-2.8m3.7 11.9c-.3.6-.4 1.9 0 3 .7 2.2-2.1 7-4.1 7q-1.3.1-1.4 1c0 1.7 3.1 2.4 5.1 1.2a7 7 0 0 1 3.3-1.2c2 0 2.7-6.9 1-9.8q-2.4-3.6-3.9-1.2"/><path d="M727.6 918.5q1 4.2-3.6 1.2-4-2.2-4 4.9c0 2.4-1 4.1-4.5 7.3-2.4 2.2-5.1 4.1-6 4.1q-2.6 0-.5 5.5c.9 2.3 1.4 2.6 3.6 2.1q2.6-.7 4.5.9c2.1 2 3.9 1.2 3.9-1.8 0-1.2.9-3.7 2-5.5q3.6-5.8.3-6.4c-2-.4 8.1-9.4 11.2-9.9a3 3 0 0 0 2.3-2.7c.3-2-.1-2.2-4.7-2.2-5 0-5.1.1-4.5 2.5"/></svg>