<svg xmlns="http://www.w3.org/2000/svg" width="1365.333" height="1365.333" viewBox="0 0 1024 1024"><path d="M593.3 5.3c-2.7 4.6-3.8 5.5-8 6.8-3.8 1.1-5.1 2.1-6.2 4.6s-2.6 3.6-7.4 5.4c-8.7 3.3-11.9 6.5-15.3 15.5l-2.9 7.5-12.7 7c-7.1 3.9-17.4 8.9-23 11.3-9.8 4.1-11.5 4.4-38.4 8l-28 3.7-10-2.2c-5.4-1.1-11.6-3-13.6-4-2.8-1.4-5.9-1.9-12.6-1.9q-9 0-14.3-1.8c-5.4-1.8-5.7-1.8-49.9 1.9-43.8 3.6-44.5 3.7-46.2 1.8a14 14 0 0 1-2-3.1c-.4-1-2.9-.9-11.1.3-10.3 1.5-10.8 1.5-15.8-.6-4.5-1.8-6-1.9-11.9-1.1-6.5.9-6.9.8-12.4-2.2L246 59h-18.2c-25 0-52.3 1.8-57 3.7-3.4 1.4-4 1.4-6.1 0-4.1-2.7-7.2-1.1-13.1 6.7-6.9 9-8.9 15.4-8 25.1l.6 7 7.7 8c4.3 4.4 10.5 11.9 13.8 16.6 5 7.1 6.1 9.4 6.5 13.7s1.3 6.1 4.7 10.2c4.1 4.8 4.3 5.4 5.2 14.7.8 8 2.7 14.9 10.1 37.3 5 15.1 10.1 29.5 11.4 32 3.4 6.5 7.8 25.3 11.9 51 3.1 19.2 4.3 24.4 8.5 35.5 2.6 7.1 5.1 14.9 5.5 17.2.4 2.4 1.1 4.3 1.6 4.3s.9 1.1.9 2.5 1 4.5 2.1 6.8c1.7 3.2 2 4.7 1.2 6.7q-1.8 5 3.7 8.3c2.5 1.5 2.9 2.5 3.6 8.3.4 4.2 1.7 8.7 3.6 12.3 1.6 3.1 6.9 15.1 11.9 26.8l9 21.2-.7 39.3-.7 39.3-6 13.5c-4.9 11-10.3 26.9-9.4 27.6 3.7 2.7 4.5 2.4 10.1-4a35 35 0 0 0 9.6-27c0-14.3.5-15.8 6.2-20.1 4.8-3.8 5-3.8 6.8-1.9 1.6 1.5 2.1 4.5 3.1 15.7a72 72 0 0 1 .3 14.6c-.5.4-2.9 1.4-5.4 2.1-4.2 1.2-4.3 1.4-2 2.1l2.5.7-2.2.7c-3.2 1-2.9 2.3 1.8 7.1l4 4.1-.7 7.2-.7 7.1h-14.5c-12 0-14.9.3-16.3 1.6-1.8 1.6-1.8 1.8.2 4.5 2 2.9 2.2 2.9 12 2.9h9.9v4.2l.1 4.3 3.3-3.6 3.4-3.7.6 3q1.7 8.5-1.5 25.2c-2 10.7-2.2 11.3-6.7 15.8-4.1 4.2-5.2 4.8-10.1 5.4-5.2.6-5.9 1-9 5.1-3.2 4.3-3.3 4.9-2.8 10.7.3 3.3.9 7 1.2 8.2.5 1.7-1.6 3.9-13.9 13.7-8 6.4-16.9 13.2-19.8 15.1s-8.3 6.3-12 9.8l-6.7 6.3-1.5 13.7-1.5 13.8 3.3 9.7q4.4 13 12 24.5c1 1.5 4.5 4 7.9 5.6s7.9 4.5 10 6.3l3.9 3.4-1.6 5.5c-2.4 7.9-9.4 16.5-22.2 26.8-10.1 8.2-11.3 9.6-13.7 15.4-2.7 6.2-3 6.5-11.4 11.3a73 73 0 0 0-19.5 16.9c-6 6.5-14 16.5-17.8 22.1s-13.1 17.8-20.7 27-15.4 18.9-17.3 21.5c-5.6 7.5-27.9 34.7-35.8 43.7-9.2 10.4-10 13.3-5.1 19.4l3.3 4.2 14.8-.7c13.6-.7 17.3-.4 28.5 1.9 1.3.3 4.1 3.3 6.9 7.3 4 5.9 5.8 7.4 12.3 11 4.2 2.2 12.8 6.3 19.2 9 10.5 4.5 12.4 5 22 5.6l26.8 2.2c15.1 1.3 16.8 1.3 20.8-.2 3.7-1.4 5.3-1.5 11.3-.5 5.6.9 9 .8 18.2-.5 14.2-2 25.1-1.4 34 1.9 3.6 1.4 9.9 3.1 14.1 3.7 6.7 1.1 8.7 1 19.3-1l11.9-2.2 11-8.8a869 869 0 0 0 28.5-24.4l17.5-15.6 17.5-7.4 23.4-9.8c5.2-2 6.9-3.5 15.1-13.3a586 586 0 0 1 45.7-47.9c3.6-3.1 16.1-12.9 27.6-21.9a185 185 0 0 0 35.5-32.8c10.5-12 19.4-20.9 33.3-33a1179 1179 0 0 0 32.4-29.5 367 367 0 0 1 56.1-45.8c4.2-2.7 8.3-6.2 9.2-7.8 1.7-3 7.9-6.2 14.4-7.4 5.7-1 13.4-5.8 18.8-11.5 4.7-5 5-5.1 9.5-4.7 2.6.3 6 1.4 7.6 2.5 5.1 3.6 6.8 3.6 12 .3 2.6-1.6 5.3-3 6-3s1.7-2.3 2.4-5c.9-4 2-5.6 4.9-7.7 2-1.5 5.6-4.6 8.1-6.9 3.3-3 5.9-4.5 9.9-5.4 4.2-1 5.7-1.9 7-4.2 4.7-8.7 7.2-11.8 9.1-11.8 2.7 0 10-5.8 10-8 0-1 1.1-3.4 2.5-5.4 3.5-5.2 3.5-12 0-14.8-2-1.6-2.5-2.8-2.5-6.5 0-4.2.4-4.9 4.9-9q5-4.4 5.5-7.8c.4-2 2.8-6 5.6-9.3 5-6 12-19.1 12-22.5 0-1 2.2-6 4.9-11s6.5-14.2 8.5-20.2a42 42 0 0 1 10.2-18.8c3.7-4.2 7.7-8 9-8.3 3.1-.8 6-4.9 6.9-9.7.8-4.2 7.1-13.6 11.5-17.4 1.7-1.3 3.7-3.7 4.6-5.2s4.3-4.2 7.6-6c3.7-2.1 7-4.9 8.8-7.5 4.9-6.8 6.9-8.4 12.2-9.1 6.7-.9 9.7-4.2 6.6-7.3q-1.5-1.3 1.8-1.2c2.5 0 3.7-.9 6.1-4.3 1.7-2.3 3.6-6.1 4.2-8.5.9-3 2-4.6 4.2-5.8 2.2-1.1 4.1-3.7 7-9.7 2.1-4.4 3.9-8.8 3.9-9.6s1.2-3.4 2.6-5.9c2.1-3.5 2.4-4.9 1.6-6.7q-1-2.1.1-9.8c1-7.2.9-7.9-1.6-14.4-1.5-3.8-3.6-11.8-4.8-17.9-1.5-8-3.9-15.6-9.2-28.6l-7.1-17.8-7.8-7.7-7.8-7.8-2.7 1.7c-2.1 1.3-2.9 2.9-3.9 7.7-.7 3.3-1.5 6.5-1.8 7-1.2 1.9-6 1.7-12.2-.5a40 40 0 0 0-10.8-2.4c-3.3 0-5.7-.9-10.4-4-5.3-3.4-6.6-4.8-9.7-11.2-2-4-7.5-14.1-12.2-22.3-6.7-11.9-9.4-15.7-12.9-18.3s-4.4-3.9-4.4-6.2-.8-3.5-3.9-5.5c-3.3-2.2-3.9-3.3-4.5-7.1q-.6-4.5.9-7.4c2-3.8 2-3.7-1.6-4.5-2.3-.5-3.5-1.7-5.2-5.1-1.1-2.4-2.8-4.6-3.7-4.9s-2.2-2.3-2.9-4.5-1.8-4-2.5-4q-1.4-.1-2-4.5c-.7-4.1-1-4.5-3.5-4.5-2.2 0-2.9-.7-3.9-3.4-.7-1.8-3.1-5.5-5.3-8l-4.1-4.6-3 2.1c-1.6 1.2-3.4 3.2-4 4.5s-1.9 2.4-3 2.4c-1.5 0-1.8-.8-1.8-5 0-4.7-.2-5.2-3.4-7.1-1.9-1.1-3.7-3.1-4-4.4q-1.4-5.5-9.6 1.7a101 101 0 0 1-18 13.8c-.6 0-3.2-1.1-5.8-2.4-3.4-1.8-12.9-11-34.7-33.6l-30-31.2-1.1-13.2a58 58 0 0 0-2.8-16.3c-.9-1.8-1.6-4.7-1.6-6.5 0-2.4-1.4-5.2-5-10.2-2.7-3.8-5-7.7-5-8.7s-.7-3.7-1.7-6c-1.2-3.1-1.3-4.6-.6-5.9l5.8-10.3 4.6-8.6-4.8-6.5c-4-5.4-6.2-7.3-13.3-11.2a39 39 0 0 1-11.7-8.9c-2.6-3.5-3.9-4.3-7.5-4.8-2.4-.3-5.4-.4-6.6 0q-2.2.5-6.3-2.2c-4-2.6-4.3-2.6-7.8-1.2-6.4 2.8-7.6 2.9-9.6.7-3.1-3.5-5.7-2.5-9.2 3.3"/></svg>