<svg xmlns="http://www.w3.org/2000/svg" width="1365.333" height="1365.333" viewBox="0 0 1024 1024"><path d="m299.5 10.1-32 9.9L204 32l-68.6 13-5.1 1.1-8.3 23.2c-4.6 12.8-9.1 24.8-10.1 26.7s-10.3 17.1-20.7 33.8l-19 30.2.5 31.8.5 31.7-6.6 24.7-18.7 71c-14.4 55.3-14.2 53.5-5.3 61.5 3.3 2.9 6.8 5.3 7.9 5.3s5 2.4 8.6 5.4c4.8 3.8 7.9 5.5 10.9 6 2.7.4 5.7 1.9 7.9 3.8 3.4 3 3.6 3.5 3.3 8.4-.4 5.1-.3 5.2 2.7 5.9 2.7.6 3.1 1.1 3.1 3.9q0 3.2 2.6 5.7c1.5 1.3 3.5 4.4 4.5 6.7 1.1 2.4 3.9 6.7 6.3 9.5 5 5.9 7.2 10 9.2 16.7 1.6 5.4 8 12 11.6 12a19 19 0 0 1 7.2 3.9l7.7 5.5q2.6 1.7 3.3 5.5c.5 3.3 1.3 4.3 5 6.5 2.5 1.4 5.5 2.6 6.9 2.6 2.7 0 6.1 3.2 7.6 7.2q1 2.8 3.3 2.8c1.4 0 3.5 1.4 5.3 3.4q3.1 3.5 12.5 7.6a73 73 0 0 1 12.7 7c1.7 1.6 6.2 4.4 10 6.4 9.4 5 9.9 5.5 10.7 10.5q.6 4.4 5.1 10c2.5 3.2 4.5 6.4 4.5 7.3 0 2.6 3.5 4.8 7.7 4.8 2.2 0 6.6.9 9.8 2s7 2 8.4 2 6.8 1 11.9 2.2c8.2 2 9.5 2.6 11.2 5.3 1.1 1.7 3.9 4.5 6.4 6.3 4.1 2.9 5.1 3.2 12.3 3.2 6.2 0 8.3.4 10.3 2 2.1 1.7 4.1 2 13 2 6.5 0 12.4-.6 15.5-1.5l4.9-1.5 11.6 7.7 29.9 19.6a264 264 0 0 1 29.2 21.3 93 93 0 0 0 14.1 11.1c1.5 2 5.2 4.3 6.9 4.3.7 0 3.2 1.6 5.6 3.6s6 4 8.1 4.6 4.6 1.8 5.7 2.7 5.1 3.5 8.9 5.6 10.5 6.2 14.8 9.2c6 4 8.8 5.3 11.5 5.3 2.1 0 4.5.8 5.6 1.8 1.7 1.6 9.3 3.1 23.8 4.8 4.4.6 4.9.9 10.8 9 3.5 4.6 7 8.4 7.8 8.4.9 0 3.6-1.6 6-3.6l4.5-3.7 5.1 5.1c2.9 2.7 6.7 5.7 8.5 6.6s3.2 2.3 3.2 3.1q-.1 1.6 3.8 1.5c2.1 0 4.2.4 4.7.9s4 1.1 7.7 1.3c6.7.4 6.8.4 13.6 6.8 5.5 5.1 7 7.2 7.1 9.5q.2 3 4.8 9c2.6 3.3 5.7 7.8 6.8 10a16 16 0 0 0 5.8 6c4.2 2.3 4.6 4.2 2.4 13.6-1.3 5.5-6.3 11.9-9.2 11.9-.7 0-2 .9-3 2s-2.7 2-3.7 2-3 .8-4.4 1.7c-2.3 1.4-2.5 2.2-2 5.4.5 3.4.3 3.8-3.4 6.3-3.6 2.4-3.9 2.8-2.9 5 1.8 3.9.4 7-3.6 8.5-2 .7-3.4 1.8-3.2 2.4 1.9 4.5 1.9 4.7.3 4.7-2.3 0-4.2 4-2.5 5.1.8.5 2 .9 2.7.9 2.5 0 1.1 3.8-2.7 6.8-2.2 1.8-4.3 3.2-4.6 3.2s-2.2 1.6-4.2 3.5c-2 2-4.8 3.8-6.2 4.1-6.4 1.4-8.1 2.6-8.1 5.6 0 1.6-.6 3.1-1.5 3.4-1.2.5-1.2.9.1 2.9 2.2 3.3.9 5.5-3.3 5.5-3.2 0-3.5.2-2.8 2.2 1.2 4.2.4 9.3-2 12.9-3 4.3-3.1 6.3-.4 8.2 2 1.5 2 1.5.1 2.9-1.1.7-2.4 3-3 5.1-1 3.5-.9 3.8 2 6s2.9 2.5 1.7 6.5c-1.1 3.7-1.6 4.2-4.1 4.2-2.8 0-2.8 0-2.8 6.6 0 6-.3 6.9-2.9 9.3-1.6 1.5-4 3.2-5.5 3.9q-4.5 2.1-.9 6.4c1.5 1.7 1.5 1.8-.4 1.8-1.1 0-2.8.9-3.8 2a16 16 0 0 1-5.4 3.1c-4.4 1.4-7.2 4.6-6.5 7.5.9 3.4-2.1 8-5.5 8.7-2.7.6-3.2 1.2-3.7 4.7s-1 4-3.4 4c-6 0-8.3 8.6-3.5 12.8 1.9 1.7 2.5 3.1 2.5 6.5 0 2.4.2 4.6.5 4.9s3.4-.3 6.7-1.3c4.4-1.4 8.7-1.9 14.8-1.8 6.2.2 9.9-.3 13.3-1.6q4.6-1.8 7.9-1c1.8.4 8.5 1.1 14.8 1.5 30 2.2 39.5 4.1 45.7 8.9 2.9 2.3 10 4.6 17.8 5.7a27 27 0 0 1 8 2.5q2.9 2 9.2 1.9c5 0 7.5.7 13.4 3.5 5.2 2.5 8.7 3.5 12 3.5 5.2 0 12.6-2.9 15.4-6 1.3-1.4 3.1-2 6.3-2 4.1 0 4.9.4 9.8 5.5 3 3 6.1 5.5 7 5.5s3.3-1.4 5.4-3c3.6-2.8 4.3-3 12.9-3 7.7 0 9.1.3 9.1 1.6 0 3.8 8.1 13 12.2 13.9 3.6.8 7.4-2.2 8.3-6.6q.7-3 2.5-2.9 4 0 4-8.9c0-4.7.2-5.1 2.4-5.1q2.4.1 6.8-5c4.1-4.8 4.5-5 9.6-5 2.9 0 6.9.7 8.9 1.5 1.9.8 5.7 1.5 8.4 1.5 4.7 0 4.9.1 7.5 4.6 2.4 4.1 10.9 10.4 13.9 10.4.6-.1 2.5-2.1 4.3-4.5 2-2.7 5.1-5.4 7.9-6.7 4.2-2 4.9-2.8 5.8-6.8a33 33 0 0 1 2.5-6.6c1.2-1.9 1.1-2.5-.9-5-1.9-2.4-2-3-.8-3.2.9-.2 2.4-2.3 3.6-4.6 1.7-3.8 2.3-4.3 4.5-3.9 1.4.3 3.7.2 5.1-.1 2.2-.6 2.5-1.2 2.5-4.7 0-2.4.9-5.8 2.1-7.9 2-3.6 2.7-3.9 8.6-5 3.5-.6 7.5-1.5 9-2.1 2.1-.8 3-.6 4.8 1.1 2.5 2.3 2.7 2.3 7.8.9 3.6-1 3.7-1.1 3.7-5.7 0-4.3.4-5.2 4.5-9.2 2.8-2.7 6.5-5.1 9.3-6.1 4.3-1.4 4.8-2 6.3-6.2 2.4-7.3 4.5-9 10-8.3 4.6.6 4.7.6 7.1-3.4 2.2-3.8 2.3-4.6 1.4-10l-1-5.9 5.2-4.6c3.7-3.3 5.5-5.8 6.3-8.8.6-2.3 1.8-5.6 2.7-7.2a53 53 0 0 0 3-18c0-1.1 0-4 .2-6.5.6-9.5.5-14.6-.3-17.7-.7-2.9-.6-3.3 1-3.3q4.4.1 4.3-6.9c0-2.6.7-5.5 1.5-6.5q3.2-4.2-.6-9.1c-1.6-1.9-2.3-4.6-2.7-9.5-.4-6.7-.4-6.9 1.8-6.3 2 .5 2.2.3 1.9-3.8-.1-2.4.3-5.4.9-6.6 1.2-2.3.5-7.6-1.7-13.7-1.4-3.5 1.3-9.5 7.2-16.3 2.5-2.9 5.1-7 5.7-9 .7-2.1 2.8-6.2 4.8-9.1 3.4-5.1 3.5-5.5 2.3-8.9-1.4-3.9-.9-10 1.6-16.6.8-2.3 1.8-7.2 2.3-10.9.5-4.9 1.5-7.5 3.5-10.2 3.1-4 9.5-21.5 9.5-25.8 0-1.5-1-4.8-2.2-7.3l-2.2-4.5 4-4.3c7.6-7.9 9.4-19.3 3.7-23.5-2-1.5-2.6-3.1-3.5-9.5-1-6.8-.9-8.2.7-11.7 1.5-3.3 2.3-4 4.7-4 4.5 0 3.8-3.9-1.4-7-2.3-1.4-6.6-5-9.7-8.1a50 50 0 0 0-17.2-11.1c-10.9-5.2-11.8-5.4-14.3-4.1-1.5.8-5 1.7-7.7 2-3.6.4-6.5 1.6-9.8 4-13.4 9.7-15.6 10.7-28 12.3-3.6.5-8.6 1.3-11 1.8a13 13 0 0 1-8.5-.5c-2.3-.8-6.2-1.3-8.8-1.2-3.7.2-5.3-.3-8.1-2.4l-3.5-2.6-.7-13.8c-.8-17.1-1.5-20-6.1-24.3l-3.6-3.5.1-15c0-8.3-.2-21.2-.5-28.7-.5-13.7-.5-13.7-3.5-16.2-2.4-2.1-2.9-3.2-2.9-7 0-2.4-.9-6.5-2-9.1s-2-6.1-2-7.8a44 44 0 0 0-1.5-8.7c-2-7.3-1.9-8.4.8-11.7 1.9-2.4 2.2-3.9 2.1-10.5-.1-8.5-.8-9.8-6-12.3-5.5-2.6-7.6-7.9-6.8-16.9l.6-7.3-6-4.3c-4.4-3.1-6.4-5.2-7.3-7.8l-1.1-3.5-6.3.6a20 20 0 0 1-7-.1c-1-1-10.6-1.1-13.2-.1q-2.1.7-2.8-.1c-.4-.6-2-1-3.6-1-7.8 0-23.6-12.9-26.1-21.2l-1.1-3.9-8.1.3-8.1.3-1 5.4c-.9 5.1-1.4 5.7-6.8 9.4-3.1 2.1-5.7 4.5-5.7 5.3 0 2.1-1 1.7-4.3-1.4-2.7-2.5-2.9-2.6-4.1-1q-1.4 1.8-5.4 1.8c-3.7 0-4.3.4-6 3.6l-1.8 3.5-3.7-3c-4.1-3.2-12.7-4.8-21.2-3.9-3.8.5-4.4.3-5.4-1.8-.8-1.9-1.9-2.4-4.8-2.4-2.1-.1-4.9-.7-6.3-1.4-1.4-.8-3.1-1.1-4-.6-.8.4-4 1-7 1.4-4.3.5-6.7.2-10.8-1.4-2.9-1.1-7.6-2-10.7-2-2.9 0-5.7-.5-6.1-1.1q-1-1.4-6.7.6-1.4.6-4.7-4.4c-2.7-4.2-3.7-5.1-6.4-5.3-5.7-.2-9.1.3-12.1 2.1-2.3 1.3-4 1.5-7.5.9-5.6-1-12.6-5.7-12.3-8.4a60 60 0 0 1 3.7-14.6c1.2-2.8 1.3-4.4.6-6.3a61 61 0 0 1 .6-19.2c.2-1.3 1.9-3 3.9-4.1l3.6-1.8-3.7-1.3-3.6-1.3.5-5.7c.4-4.6.1-6-1.5-7.8-1.8-1.9-1.9-2.7-.9-7.2.7-3.2 2.7-7.3 5.6-11.2 5.1-7 5.8-10.4 2.1-11.3s-3.7-4.6-.3-7.5c4.8-4 6-7.5 5.2-15a35 35 0 0 0-1.7-8.5c-.8-1.4-.4-2.4 1.5-4.5 1.3-1.4 2.7-3.8 3.1-5.4.6-2.4.2-2.9-3.1-4.5-2-.9-4.7-2.8-6.1-4.1l-2.3-2.3 2-2.2a8 8 0 0 0 2.1-4.8c0-2.1-.8-2.9-3.7-4.1l-3.8-1.5 4.7-2.8c2.6-1.6 4.7-3.1 4.8-3.4a37 37 0 0 0-4.1-5.3c-3.8-4.4-4.2-4.6-6.2-3.2s-2.1 1.3-3.4-2.3c-.7-2-1.3-5.3-1.4-7.2s-.6-5.3-1.3-7.5c-1-3.3-1-4.4.2-6.3 1.3-2.1 1.1-2.6-3.2-7.6-5.5-6.4-6.6-9.1-6.6-15.8 0-5.4-.3-5.5-6.4-3.2q-1.7.7-1.6-1.5 0-2-1-2.1a1 1 0 0 1-1-1q.1-1 1.8-1c1.7 0 2.3-.5 3-1.2.9-.9.7-1.7-.9-3.5-2-2-2.1-2.6-.9-6.6.6-2.4 1-5.7.9-7.3-.2-1.6.3-4.4 1-6.2 1.2-2.9 1.2-3.8-.4-7-.9-2-2-6.5-2.3-9.9l-.5-6.2-53.6-30A4079 4079 0 0 0 440 4.6C438.4 4 344.1-.1 336.2.1c-2.9.1-17.1 3.9-36.7 10"/></svg>