<svg xmlns="http://www.w3.org/2000/svg" width="1365.333" height="1365.333" viewBox="0 0 1024 1024"><path d="M329 60.9c-3 1-7.3 2.7-9.6 3.9s-9 2.8-15.2 3.8l-11.3 1.7-12.5 11.3a122 122 0 0 1-22.7 17.1 86 86 0 0 0-17.2 12.3 90 90 0 0 1-13 10.3 33 33 0 0 0-15 16.5c-2.1 4-4.7 7.8-5.8 8.4s-7.2 2.9-13.6 5.1l-11.6 4-19.2.5c-19.2.4-19.3.4-26.5-2.4-4-1.5-8.2-3.4-9.3-4.1s-3.4-1.3-5.2-1.3c-2.6 0-3.9.9-7 4.5a21 21 0 0 0-4.5 8.3l-1.3 7.4q-1.5 7.2 4.6.7l2.9-3.1v4.3c0 4.9-3.1 10.9-5.5 10.9q-1.4 0-1.5-2.5c0-1.4-.7-2.8-1.5-3.1-2.9-1.2-4.2 1.4-4.8 9.4a63 63 0 0 1-2.3 13.5l-1.8 5.7 2.7 5.2c3.6 7.4 7.9 29.9 7.1 37.5-.6 6.1-5.2 21.4-9 29.8-3.6 8.2-9.3 13.7-21.2 20.4-5.9 3.3-14.2 7.6-18.4 9.5-7.5 3.5-7.8 3.6-16.9 2.9l-9.2-.6-2.6 3.1a27 27 0 0 1-7.1 5.5 16 16 0 0 0-7.2 7.5 50 50 0 0 1-9.4 11.6c-6.5 6-6.8 6.5-6.8 10.7.1 4.5 2.2 11.1 4.2 13.1.7.7 1.2 2.2 1.2 3.5s1.1 4.1 2.5 6.3c2.2 3.5 2.4 4.3 1.3 6.3a33 33 0 0 0-1.9 9.7l-1.4 14.6c-.5 4.3-.3 9.8.4 13.9 1.1 6.3 1.7 7.3 6.4 11.9a67 67 0 0 1 9.1 11.9c2.2 3.7 4.2 6.7 4.6 6.7s4.6 3.6 9.5 8a45 45 0 0 0 12.7 9 18 18 0 0 1 13.1 14.7c.6 3.1 4.9 9 21.3 29.4l6.1 7.6.6 10.8c.5 8.8 1 11.2 2.6 12.9 1 1.1 2.1 3.2 2.3 4.5q.5 2.5 5.8 6.9c3 2.4 7.4 6.1 9.7 8.3 2.4 2.1 4.7 3.9 5.2 3.9 2 0 2 3.3 0 7.1-1.7 3.4-2 5.9-2 15.7 0 6.4.4 13.3.9 15.2s.5 4.6.1 6-.7 4.5-.8 6.9a59 59 0 0 1-2.2 11.8 44 44 0 0 0-1.7 12.6c.3 4.6.6 5.2 2.6 5.5q4.2.7 4.2 9.6c0 3.3.7 5.2 3 8.1 1.9 2.4 4.2 7.9 6.5 15.4 3.9 12.6 5.8 15.2 12.8 17.3q3.8 1.1 4.3 3.5c.5 1.7 1.3 2.3 3.5 2.3 4.3 0 9.6 2.5 10.9 5.2 1.9 3.5 6.2 7.8 7.9 7.8q6.3 0 7.6 8.7c.9 5 1.4 5.8 3.5 6.1 1.3.2 4.8 2.4 7.6 4.9 4.8 4 5.6 5.3 8.3 13.6 2.4 7.2 3 10.3 2.6 14.2q-1 8.1 5.3 9.9a11 11 0 0 1 4.2 4.2c2.1 3.3 5.4 4.6 6.2 2.3q.3-1.3 3.8-.1c1.9.6 9.4 2 16.6 3.1a228 228 0 0 1 58.1 16.1q.2-.1.3-1.3c0-1.4-4.4-5.8-7.4-7.4a10 10 0 0 1-3.1-4.6c-1.2-3.4-1.1-3.6.6-2.7 1 .6 2.7 2.3 3.8 3.9 1.1 1.5 3.5 3.4 5.2 4.1 2.7 1.1 3.5 1.1 6-.4 3.4-2 3.5-1.7 1.2 4.2l-1.7 4.5 4 3.6c2.2 2 6.2 5.2 8.9 7.1a48 48 0 0 1 17.4 22.7c2.2 6.7 2.6 7.4 8 10.9 3.1 2 7.7 5.5 10.4 7.7 4.1 3.4 6.1 4.2 15.5 6.2 24.4 5.3 29.4 6.8 30.3 9.3.8 2 1.2 2.2 2.3 1.2 1.8-1.4 3.6 1.2 6.1 8.7 1.4 4.6 2 5.3 4.3 5.3 1.4 0 3.3.6 4.1 1.4 1.9 1.6 23 7.6 27 7.6 2.8 0 7.1 4.2 10.1 10 .7 1.4 1.9 3.3 2.8 4.3 1.4 1.5 1.7 1.6 3.2.2 1.1-1 4.6-1.8 9.6-2.1 7.7-.6 8.2-.5 17.4 3.6a37 37 0 0 0 13.4 4.1c3.3-.1 4.8.6 8.8 4a59 59 0 0 0 26 10.4c4 .5 6.9 1.6 9.9 3.8 2.3 1.7 6.8 4.3 10.1 5.9 3.2 1.5 7.8 4.1 10.2 5.7l4.3 3 3.3-2.3 3.4-2.3 4 2.3c3 1.6 6.6 2.4 13.6 2.8 10 .7 15.4 0 23.4-3l4.8-1.9 1.7 2.5c2.8 4.3 6.4 7.1 13.1 10.1 3.6 1.7 11 5.7 16.6 8.9 12 7.2 13.7 7.3 30.3 3 6.2-1.7 13.8-3 16.7-3 7.6 0 15.4 1.9 16.1 3.8 1.1 3.1 3.6 5.2 6.2 5.2 3 0 13.3-2.9 20.6-5.7a123 123 0 0 1 17.2-4.2l12.2-2.3 6.3-6.3 6.3-6.3 22.5 1 22.5 1 14.8-4.6a253 253 0 0 1 32.4-7.6 427 427 0 0 1 18.5-3c.5 0 2.1-1.2 3.5-2.6 2.5-2.5 2.8-2.6 7.2-1.4 2.5.7 6 1.2 7.6 1.2 4.1-.1 37.7-10.8 44.7-14.3 7.8-4 17-12.7 19.9-19 3.5-7.5 5.8-11.9 10.7-19.8l4.3-6.9-2.7-5.4c-2.4-4.8-2.7-6.4-2.8-17.3-.1-9.5-.7-13.6-2.6-19.9-2.2-7.4-2.3-8.2-1-15 2.3-12.1 2.4-19.5.2-25.1-1.7-4.4-1.9-7.7-2-28.5 0-16.4.4-25.8 1.4-31 .8-4.1 1.4-9.6 1.4-12.1 0-2.6.9-6.6 2-9s2-5.3 2-6.5c0-1.1.9-2.9 1.9-3.8 1.6-1.5 1.8-2.2.9-4.8-.7-1.8-.8-6.2-.4-11.1.7-8.4 2.3-12.2 7-16.6 1.4-1.3 2.8-3.7 3.2-5.4a25 25 0 0 1 9.8-13.5c5-3.6 5.6-5.6 5.6-19.7 0-5 .3-9.9.6-11 .4-1.2 3.7-3.5 8.5-5.9l7.9-4v-5.4c0-3-.8-7.4-1.9-10a56 56 0 0 1-2.5-18.2l-.5-13.5-7.6-7.2c-5.3-5.1-7.5-7.9-7.5-9.7q.1-7.3-21.2-12c-1.5-.4-3.3-1.6-3.9-2.9a57 57 0 0 0-17.1-16.8c-5.9-3.5-7.4-3.9-13.4-3.9-6.6 0-6.7 0-10.3-4.2a44 44 0 0 1-5.7-8.9c-5.7-12.2-17-26-24.5-29.9-2.6-1.4-4.7-3.8-7.3-8.3a41 41 0 0 0-5.8-8.5 213 213 0 0 1-22.3-21.7l-4-6.4c-1.1-1.7-3.9-5.8-6.2-8.9a22 22 0 0 1-4.3-7.7c0-1-1.2-2.9-2.7-4.1-2.8-2.2-2.8-2.3-2.5-12.7l.3-10.5-6.1-4.2c-6.3-4.3-7-5.4-11-16.7-2.5-7.1-2.8-7.4-9.4-9.9-6.9-2.5-12.1-7.8-12.9-13-.4-2.2-1.7-5.6-3-7.5s-2.6-4.9-3-6.6-1.8-4.8-3.2-6.8c-2.8-4.3-2.9-5.3-1.3-14.1.9-5.2.8-10-.8-27.1-1.6-18.4-2.1-21.1-4.2-24.2-1.3-1.9-4-7.6-5.9-12.6a332 332 0 0 0-9.7-22 61 61 0 0 0-24.8-28.3c-3.8-1.7-4.9-2.9-6.3-6.6-1.9-5.1-4.7-7.9-16.5-17a111 111 0 0 0-35-18.3c-3.5-.7-8.5-2.6-11-4-4.1-2.5-5.6-2.7-17-3.1l-12.5-.3-9.4-4.7a85 85 0 0 1-12.5-7.2 53 53 0 0 0-19.9-9.6c-8-2.7-10.3-3.1-12.5-2.3q-5.7 2.3-16.5-3.3a20 20 0 0 0-9.8-2.9c-2 .1-5.8-.3-8.4-.9-4.2-.9-5.3-.8-8.9 1-2.3 1.1-8.7 3-14.4 4.1l-10.3 2.1-7-3.1A36 36 0 0 0 520 95c-1.7 0-6.2-1.8-10.3-4.1-4-2.3-8.9-4.4-10.9-4.6-2.1-.3-4.7-1.6-5.9-2.9-1.3-1.4-3.4-2.4-4.9-2.4s-4-.5-5.7-1a261 261 0 0 0-31.4-1.3c-31.9-.3-34.6-.8-42.8-7.6l-8.5-6.9-4.1-3.3-22.6.7c-16 .5-23.2.3-24.7-.5-3.9-2.1-13.3-2.2-19.2-.2"/></svg>