<svg xmlns="http://www.w3.org/2000/svg" width="1365.333" height="1365.333" viewBox="0 0 1024 1024"><path d="M274.8 2c-2 1.1-4.1 2.8-4.7 3.7-.5 1-2.4 2.2-4.3 2.8-2.7 1-3.4 1.7-3.6 4.5q-.4 3.4-4.4 7.9a51 51 0 0 0-5.4 7.3c-1.9 3.7-8.8 7.2-11.3 5.9q-1.7-1-6.9.3c-7.2 1.9-10 4.3-10.4 8.8l-.3 3.7-4.3-1.9c-4-1.8-4.4-1.8-8.6-.3l-4.4 1.6-3.9-3c-4.5-3.6-5.7-3.9-10-2.9-3.5.8-7.3 5.8-7.3 9.5 0 1.6-.6 2.1-2.7 2.1q-2.7 0-6.5 3.7c-3.5 3.4-4.2 3.7-12.5 4.4l-9 .8q-.3.3-.3 1.6c0 .9-1 2.9-2.2 4.5-1.7 2.4-1.9 3.4-1.1 5.3 1 2.1.8 2.5-1.7 3.4-3.2 1.2-4.7 6.4-3 10.7q1.4 4.2 6 1.4c2.5-1.6 6 1.3 5.2 4.4-.4 1.7-1 1.9-4.2 1.4-3.9-.6-5 .3-5 4 0 2.2 5.9 5.4 8.9 4.8 1.5-.3 4.1.3 6.1 1.3 2.9 1.5 3.5 2.4 3.7 5.1.1 3.2 0 3.3-2.9 2.7-5.5-1.3-6.6 4.4-1.8 9 3.5 3.4 3.8 5 1 6.7-1.1.7-2 2-2 2.9 0 1-1.2 2-2.7 2.4q-2.5.8-1.5 1.2c1.8.7 1.5 2.2-1.3 5.9-3.3 4.3-3.2 5.1 1 6.8 1.9.8 3.5 2.2 3.5 3 0 2.3 1.3 2.6 5.2 1.4 2.8-.8 4.6-.7 8.4.6 2.6.9 5.7 1.6 6.9 1.6s3.4 1.3 4.9 2.9c2.3 2.4 2.6 3.2 1.7 5s-2.3 2.1-8.4 2.3l-7.2.3-.9 4.3a17 17 0 0 0 .8 9.8l1.7 5.4-3.2 2.8c-3.6 3.2-3.6 5.7.3 10.5 1.8 2.2 3.4 2.9 7.7 3.4 4.7.5 5.6 1 8.2 4.6 1.6 2.2 2.9 4.6 2.9 5.3 0 .6 3.4 2.6 7.6 4.4 6.1 2.5 8.5 3.1 11.8 2.6 9.1-1.4 8.9-1.4 9.9 2.5 1 4.1 2.7 4.8 12.1 5 2.8 0 7.1.4 9.5.7 4.4.7 4.5.8 6.4 6.6 2.2 6.7 1.7 7.6-4.6 7.6-2.8 0-5-.9-8.4-3.5-5.4-4.1-11.1-4.9-12-1.5-.6 2.4-1.5 2.4-7.9.5a36 36 0 0 0-7.8-1.5c-2.6 0-2.8.3-2.3 2.7q.6 2.8-1.9 7l-2.5 4.3h-6.8c-6.1 0-6.9.2-7.8 2.2s-.5 2.9 2.4 6.1c1.8 2.1 3.1 4.3 2.7 4.9s-.8 6.2-.8 12.5l-.1 11.3h3.5c2.8 0 3.9.7 5.7 3.2l2.2 3.2-4.2 2.4a51 51 0 0 0-6.5 4.6c-1.7 1.5-4.3 2.2-9.9 2.7-8.1.8-8.4 1-10.3 6.9-2.1 6.4-1.2 7.2 7.2 6.4 7-.6 7.7-1 17-7.5 5.3-3.8 10.1-6.9 10.6-6.9s2.1.9 3.5 2c2 1.6 3.1 1.8 4.9 1.1 4.4-1.7 13.9.2 19 3.7 5.9 4 6.6 6.2 3.7 10.9a12 12 0 0 0-2 8.3c.2 3.6-.2 5-1.8 6.4q-2.2 1.8-2.1 6c0 5.9-2.8 12.5-5.5 13.2-1.8.4-3.2 2.7-6 9.4-2 4.9-4.3 9.1-5.1 9.4s-1.4 1.7-1.4 3c0 2-.7 2.7-3.2 3.4-3.2.8-3.3 1-3.1 5.8.5 8.7 0 9.4-6.1 9.4h-5.3l-.6 3.5c-.4 2.5 0 4.5 1.3 6.8 1 1.8 2.1 6.1 2.5 9.7l.7 6.5-3.6 1.7c-4 1.9-5.6 5.9-3.7 8.9.6 1 1.1 3 1.1 4.3 0 1.4.6 2.9 1.3 3.3s1.7 2.6 2 4.8q1.3 7.3 8.1 7.5 3.3 0 6.1 3c3.1 3.2 5.6 3.7 9.4 1.6 2.2-1.2 9.3-.8 10.8.8.3.3 1.6 4.7 2.7 9.8l2.2 9.3 4.7 2.3c2.5 1.2 5.7 3.6 6.9 5.2 2 2.8 2.6 3 6.4 2.4 4.1-.6 4.1-.5 3.7 2.1q-.6 2.6 1.4 4.8c1 1.2 2.4 3.4 3.1 4.9.6 1.6 1.8 2.8 2.6 2.8s3.3 1.6 5.6 3.5c4.1 3.4 7 4.5 7 2.5q.1-1 1.5-1c1.4 0 1.5.4 1.5 1q.1.9 1.6 1c1.2 0 1.4.7.9 3.2-1.1 4.9-2.1 6.4-5.2 7.7-1.6.6-4.1 3.2-5.7 5.7l-2.9 4.6-12.6-.7c-11.3-.7-13.2-1-20-4.2q-13.6-6.2-19.3-6.3-2.6 0-2.8.3c-.2.3 1.1 3.5 2.4 7.4a77 77 0 0 0 13.2 21.5c5.9 7.9 13.8 17.8 17.6 22.1 3.7 4.3 7.7 9.5 8.8 11.7s2.7 4.3 3.6 4.8 2.7 3.4 3.8 6.3c1.8 4.4 2 6.2 1.3 9.6q-.8 4.2-2.3 4.3c-1.1 0-1.4 1.4-1.4 6 0 6.8-1.2 8-7.9 8-2.3 0-4.1.4-4.1.8s-.6 1.7-1.4 2.7c-1.3 1.8-1.6 1.4-5-5.3-3.2-6.4-3.9-7.2-6.5-7.2a11 11 0 0 0-5.3 1.9 16 16 0 0 1-6.4 2.6c-6.7 1.1-7.1 1.4-8.4 5.8-.7 2.3-1.8 5.1-2.6 6.2-1.7 2.3-1.7 5.5-.1 11.2 1.1 3.9 2.3 5.1 15.2 14.3 11.6 8.3 14.5 10 17.6 10 3.7 0 3.7 0 6.4 7.5 2.7 7.3 2.8 7.4 8.1 9.6 5.7 2.4 5.9 2.7 7.9 12.9 1 4.6 2.2 6 5.4 6 2 0 4.7 2.1 11.1 8.7 6.9 7.2 8.9 9.9 10.6 14.8 2.3 6.7 2.9 6.9 11.1 4.4 4-1.2 4.5-1.1 10.4 2 4.7 2.4 6.4 2.9 7 2 .6-1 1.8-.6 4.9 1.5l4.2 2.8 2.8-2.7 2.7-2.6 6.1 9.4c5.4 8.1 6.9 9.6 11.7 12q5.5 2.7 4.9 4.1c-.3.8 1.2 2.8 4 5.1 4.1 3.4 4.8 3.6 9 3s5.3-.3 17 5.9a76 76 0 0 0 15 6.6c4.6 0 5.4.8 4.6 4.7-.6 2.6-.4 4.6 1.1 8l1.9 4.8c0 .8-6.7 3.3-10.1 3.8-7.6 1.1-10.6 3.2-13.9 9.6-3 6-3.1 6.1-7.1 6.1-2.3 0-7.3-1.1-11.2-2.5l-7.2-2.6-8.9 3.1c-5 1.6-10.2 3-11.8 3q-5 0-4.1 6.8c.4 2.4 2 4.5 5.9 7.9 3 2.6 5.4 5.1 5.4 5.6 0 1.7 5.2 7.6 8.4 9.5 2.7 1.6 3.4 2.9 4.5 7.6.7 3.1 1 7.4.6 9.5-.5 3.2-.3 3.9 1.7 4.8 4.5 2 14.7 11.7 15.3 14.5.4 1.4 2.4 4.7 4.6 7.1 3.2 3.7 3.8 5 3.3 7.4q-.6 2.9 2 8.7c1.5 3.3 2.6 7.7 2.6 10.1 0 5.3 2.1 7.6 4.8 5.1q3.4-3 4.6 0c.5 1.4.9 1.3 3.2-.5l2.5-2 10.7 6.9a56 56 0 0 1 23 22.7 38 38 0 0 1 7.1 22.7c-.3 6.9.9 11.4 3.2 12.6 3.4 1.9 7 10.6 7.6 18.4l.5 7.1-4.1 3.8c-5.1 4.7-5.3 7.7-1 13.5 1.7 2.3 3.4 4.2 3.7 4.2l5.6-1.5c2.8-.8 6.4-1.3 8-1 2.8.5 3.6 0 8.9-6.4 3.4-4.2 5.7-7.9 5.7-9.3-.1-1.3-.9-5.7-1.9-9.8a27 27 0 0 1-.3-15c1.6-8.9 3.2-11 8.2-11 2.9 0 4.1-.6 5.4-2.5 1.3-2 2.5-2.5 5.6-2.5 3.3 0 4.4-.6 7-3.8 2.6-3.3 4.3-4.2 11.3-6.2s9.1-3.2 14.9-8.2l6.6-5.9 5.9 2.6c3.2 1.4 7.9 4.7 10.6 7.3 4.2 4.1 4.7 5.1 4.7 8.9s.2 4.3 2.6 4.3c1.4 0 3.5.5 4.6 1.1 1.5.8 3.1.7 6.4-.6 4.8-1.8 5.4-3.4 3.3-9.3-1-2.8-.6-3.7 5.7-13.1l6.6-10 5.2-.3c5-.3 5.1-.4 5.4-3.6.2-1.8 1-3.6 1.7-3.9 2-.7 10.3 2.6 11.8 4.7 1.1 1.6 1.7 1.6 9.3-.7l8.1-2.4 3.6 3.6c2 2 4.5 3.5 5.9 3.5 2.7 0 10.3-3.3 11.2-4.9.4-.6 2.3-1.1 4.1-1.1 2.9 0 3.9-.6 5.7-3.5 1.3-1.9 3-3.5 3.8-3.5.9 0 2.4-1.6 3.4-3.5 3.2-5.9 4.2-6.2 7.9-2.7 2 1.9 4.3 3.2 5.9 3.2 2.1 0 2.9-.8 4.4-4.6l1.9-4.6 5.8 4.7c5.3 4.3 6.4 4.8 11.9 5.1q6.1.4 8-1c1.6-1.1 2.6-1.2 4.5-.3 2.1.9 2.7.8 4-.8a4 4 0 0 1 3.8-1.7q2.4.3 3.7-1.7c.9-1.6 2.3-2.1 5.2-2.1 3.1 0 4.7-.7 7.2-3.1 3-2.9 3.5-3.1 6.2-2 1.6.7 5.3 3.7 8.3 6.7 2.9 2.9 5.8 5.4 6.4 5.4s2.1-1.4 3.3-3c2-2.7 2.8-3 7.6-3h5.3l1.8-6.6c1.6-6.1 2.1-6.8 6.4-9.5 4.6-2.8 4.7-3 7.5-12.8l2.7-9.9-1.9-3.9a44 44 0 0 0-10.1-10.2l-8.1-6.5c0-2.3 3.4-16.5 4.4-18.5a10 10 0 0 0 .9-6.4c-.4-2.7 0-4.3 1.6-6.5 4.6-6.5 4.5-7.3-1.5-15.6a42 42 0 0 1-5.4-9.2c0-.8 1.5-2.3 3.3-3.2a36 36 0 0 0 7.1-5.7c3.3-3.3 4.5-3.9 7.5-3.6 2.8.2 4.2-.4 6-2.2l2.3-2.5 6.3 2.9 6.4 2.9 4.3-2c2.4-1.1 5.7-2 7.4-2 4.6 0 8.3-5.3 10-14.3a22 22 0 0 1 2.6-7.9c17.4-10.3 17.2-10.2 20.7-16.8 1.9-3.5 4.7-7.5 6.3-8.8 4.4-3.7 5.5-6.8 6.3-17.3l.7-9.7-3.8-1.2c-8.3-2.7-13.5-8.5-22-24.5-6-11.1-11-15.8-20.1-18.5-6-1.8-7.8-2.9-10.3-6-2.3-2.9-4-4-7.1-4.5a8 8 0 0 1-6.2-4c-1.7-2.6-3.1-3.5-6.4-4q-4.5-.6-4.3-2.3a95 95 0 0 0-4-12.6c-3.4-9.4-4-12.1-4-19.1v-8l-8-8c-7.5-7.4-8-8.2-8-12.2 0-2.3-1.4-7.5-3.1-11.9l-3.1-7.7 2.1-5.4c1.5-3.8 2.1-7.8 2.1-13.1 0-5.5.6-9 2-12.1a25 25 0 0 0 2-9.6v-5.2l9.1-1.9c8.7-1.7 9.3-2 11.6-5.6 1.9-2.8 4-4.3 8.4-6l5.9-2.3v-8.7c0-10.3.7-12.6 6-18.6a22 22 0 0 0 6.1-17c-.6-3.5-.9-3.7-11.6-8.3-6.1-2.6-12-5.8-13.3-7-2.9-3-5.6-10.5-7.1-19.3-.7-3.8-2.1-8.6-3.1-10.6l-1.9-3.8 5-.4c6-.6 9.9-3.7 9.9-8 0-3.1 1.6-6.8 3.4-8 2.3-1.6 7.9-.7 13.6 2.2q12.9 6.4 16.1-1.2c4-9.6-4.6-19.8-18-21.1-6.3-.7-6.4-.7-16-9.6-9-8.3-10.1-9-15.9-10.1l-6.2-1.3-3.8 3.5q-3.9 3.6-9.3 4.8c-7.2 1.7-7 1.5-12.8 9a94 94 0 0 0-10.8 20.4c-5.3 12.6-6.1 14-9.1 15.3-5.5 2.3-11.2-.5-18.1-8.9-4.6-5.6-5.8-8-7.2-13.9-.9-3.9-2.3-7.7-3.1-8.5s-7.8-3.2-15.6-5.4a95 95 0 0 0-27.5-4.6c-20.7-.8-24.9-2.6-26.2-10.6-1.2-8.5-1.6-9.3-4.8-11.5a45 45 0 0 0-21.8-4.5c-6.1.5-8-.6-13.4-8-4.3-5.9-4.4-6.2-2.9-8.9 1.5-2.9 4-3.5 13.4-3.2 5.8.2 15.6-2 17.8-4 2.3-2.1 3-7.8 1.3-10.6-.5-.7-5.3-3.2-10.8-5.5-8.2-3.4-10.7-5-14.7-9.4-4.5-4.8-4.8-5.5-3.8-7.7q1.2-2.5 3.6-2.5c4.4 0 5.3-1 8.6-9.4 3-7.8 3.5-8.5 8.5-11.5 5.2-3.1 5.3-3.3 4.4-6.4l-.9-3.4c0-1.4-6.8-7.3-9-7.8-1.6-.3-4.7-2.4-6.9-4.6-3.8-3.8-4.2-4-9.8-3.8q-14.3.5-23.5-4.3c-7.1-3.8-9.1-6-11.3-12.6-.9-2.8-1.9-5.2-2.2-5.2s-2.6 1.2-5.1 2.6l-4.4 2.6-2.7-2.6c-1.5-1.4-3.5-2.6-4.4-2.6s-2.5-.8-3.5-1.8-3.3-2.4-5.2-3.2c-1.9-.7-7.5-5.3-12.5-10.1a55 55 0 0 0-11-9.1q-2-.3-4-5.8c-2-5.3-2.2-5.4-8.3-7.4-7.3-2.3-7.7-3.7-2.7-8.6 5.3-5.1 4.7-8.7-2.7-16.7L487 138l1.6-3.7c3.3-7.8 3.5-8.9 2.9-14.4a25 25 0 0 1 .9-10.9c3.3-11.1 1-15.1-5-8.6-3.4 3.7-6.1 4.4-10.7 2.7-2.6-1-9.9-13.1-11.3-18.6a66 66 0 0 0-10.7-17.8q-1.8-1.7-7.4-1.7c-5.9 0-8.8-2.1-11.3-8-.9-2.2-2.2-3.2-5.1-4l-7.8-2c-4.4-1.2-10.5-7.7-9.5-10.3.9-2.4-5.1-13-9.9-17.4a18 18 0 0 1-4.9-6.4c-.2-1.6-1.4-2.5-4.7-3.5-2.4-.7-5.4-2.2-6.6-3.4-2-1.9-3.1-2.1-7.2-1.5-4.3.6-5.1.4-7.2-1.9-3.2-3.4-5.6-3.3-9.8.5l-3.6 3.1-3.6-3.5c-6-5.7-13.7-6.7-19.3-2.3A56 56 0 0 1 318 13c-2.4 0-6.2-2.3-16-9.8C297.8.1 297.4 0 288.1 0c-7.5.1-10.4.5-13.3 2"/></svg>