<svg xmlns="http://www.w3.org/2000/svg" width="1365.333" height="1365.333" viewBox="0 0 1024 1024"><path d="M917.7 211.4q-1.6 2.3-5.4 2.9-7.8 1.2-8.7 7.1c-.4 1.9-1.3 4.8-2.1 6.3s-1.5 3.1-1.5 3.5c0 .5 2.5.8 5.6.8 3.3 0 5.3.4 4.9 1-1 1.5-7.5 2.3-10.9 1.3q-3.1-1-5.1.1a258 258 0 0 0-23.5 15.7c-4.1 3.1-8.6 6.2-10 6.9s-4.7 3.7-7.3 6.6c-2.7 3-5.7 5.4-6.8 5.4q-1.8 0-1.9 1.9c0 3.2-5.2 13.4-8.7 17.1a21 21 0 0 0-3.9 5.3c-.7 2.2 2.2 5.7 4.7 5.7 1 0 3.9 1 6.4 2.2 3.5 1.7 4.5 2.7 4.5 4.6q0 2.3-1.2 1.9c-1.2-.4-3.2.6-5.4 1.9-3.5 2-4.4 2.1-5.9 1q-2-1.3-.7-2c1.9-1.1 1.4-4.3-.7-4.9-2.5-.6-6.1 1.9-6.1 4.1 0 .9.7 2.6 1.5 3.6 2.4 3.2 1.8 7.4-1.3 10.4-1.6 1.5-3.7 4-4.8 5.6l-3.7 5.5a8 8 0 0 0-1.1 6.3c.5 3.5.4 3.8-2.3 4.3l-5.1 1.6c-3.4 1.3-4 1.1-4.4-1.3-.5-3.3-6.2-4.9-11.3-3.1-8.3 2.9-11 5.5-14.5 14.5a49 49 0 0 1-5.3 10.5c-2.1 2.4-4.7 3.1-4.7 1.3 0-1.6-5.8-1.2-9.2.6-6.5 3.3-10.7 3.7-7.7.7 1.5-1.5.3-3.3-2.1-3.3-1 0-4.7 1.9-8.2 4.3s-10 6-14.6 8.2a45 45 0 0 0-9.3 5.2c-.6.7-2.2 1.3-3.4 1.3-1.3 0-2.6.7-2.9 1.6-.9 2.2-.8 2.4.9 2.4q3.2-.1-.9 4.7c-1.8 2.1-2.1 3.3-1.5 5.1.7 1.9 1.2 2.1 2.8 1.2 2.5-1.3 3.1-1.3 3.1.2a11 11 0 0 0 2.4 4.2l2.3 3-2.7 1.5c-10.1 5.9-13.7 8.7-15.2 12.3-1.4 3.2-2.1 3.8-4.7 3.8-1.6 0-3.3-.5-3.6-1-.8-1.3-4.5-1.3-4.5 0 0 .5.6 2.7 1.4 4.7.8 2.1 1.7 5 2 6.5l1.2 4.2c.5 1.3-.1 1.6-3.5 1.6s-4.9-.7-8.5-4c-2.4-2.2-5.1-4-6.1-4-1.7 0-1.7-1.1 0-5.2q.9-1.8-1.8-2.3c-1.3-.4-3.9-2.6-5.7-5.1-4.6-6-8.7-7.3-14.2-4.4q-4.2 2.2-7.4 1.7c-3.8-.6-5 0-6.4 3.7-.8 2.3-.7 3.2.5 4.6 4.3 4.8-2.4 10-13 10-4.8 0-5.4-.2-5.7-2.3q-.4-2.1-1.8-1.8l-6.6 1a22 22 0 0 0-8.1 2.9q-5.4 3.9-7.1.7c-.7-1.4-1.1-1.3-2.7.5-2.1 2.4-4.8 2.6-6.5.5s-2.3-1.9-4.3 1.4c-2.2 3.8-2.1 4.4.3 3.8 3-.8 2.5 1.7-1.1 4.7a70 70 0 0 1-7.5 5.2c-2.6 1.5-4.7 3.6-5 4.9-.6 2.4-3.4 4.3-3.4 2.3 0-1.8 5.2-12.8 6.1-12.8 1.8 0 4.7-4.4 5.9-8.8a22 22 0 0 1 3.5-7.2c4.3-4.7 8-13.2 7.9-18 0-3.7-.9-5.7-4.5-10.8-3.4-4.9-4.8-6.2-6.3-5.8-1.1.3-2.4-.1-3-.9-1.6-2.2-11.9 1.8-13.5 5.1-1 2.3-3.1 3.1-4.4 1.8-.3-.4.1-2 .9-3.5 1.3-2.6 1.3-3-.1-3.5-.8-.4-3.7-.3-6.3.1l-4.7.7 2.8-2.9c1.5-1.6 2.7-3.2 2.7-3.6 0-1-6.7-2.6-8.8-2.1-3.1.9-7.2 8.6-7.2 13.6 0 2.4.5 4.9 1.2 5.6.9.9.1 1.2-3.6 1.2-4.6 0-4.8.1-4.2 2.5.5 2.1 0 2.9-3.3 5.1q-7.5 4.8-4.6-.9c1.7-3.2.7-3.4-4.4-.8-2 1.1-4.9 2.2-6.4 2.6q-3 .5-2.2 2.3c.4 1.4-.6 2.3-4.8 4-2.9 1.2-5.6 2.2-6 2.2s-3.3 2-6.6 4.5-6.5 4.5-7.2 4.5-2 .7-3 1.6c-1.4 1.2-1.6 2.2-.9 4 .5 1.3.7 3.1.4 3.9-.4.9.2 2.5 1.1 3.5q1.6 1.8 1.4 2.3c-.2.5-2.6 1.3-5.4 2.5-5.5 2.5-8.5 2.8-16.1 1.7-4.9-.7-5.2-.6-6 1.6-.4 1.3-.8 3.5-.9 4.9s-.6 4.1-1 6.1c-.6 3.1-.3 4.1 2.2 7l4.9 6.4 2.1 3.1-3.4-.4c-2.7-.3-4-1.3-5.8-4.2a25 25 0 0 0-5.5-6c-2.9-2.1-3.5-2.2-7.3-.9-5.5 1.7-5.4 1.5-2.6 3.8l2.4 2-2.2.1q-2.1-.1-2.3-1.1c-.2-1-1.2-.9-2.7-.7q-2.9.2-3.1 2.5c-.4 2.6 2.5 7.3 4.4 7.3 1.6 0 5.4 5.7 5.4 8 0 .8-1.2-.2-2.6-2.2q-2.6-3.7-5.9-4.2a10 10 0 0 1-4.5-2.1c-1.4-1.6-.6-6.8 1.6-10.2 2.1-3.3 1.8-14.2-.4-17.1-1.6-2-2-2.1-3-.9-1 1.1-.9 1.7.3 2.7 1.7 1.4 2 6.6.6 10.3a5 5 0 0 1-3.9 3.2c-1.6.3-4 1.7-5.2 3-2.2 2.3-2.3 2.8-1.2 7.6 1.7 7.3 1.5 11.3-.7 13.3-1 .9-2.6 3.5-3.7 5.7-1.4 3.3-1.6 4.4-.6 6s1 2.5.1 4c-.9 1.7-.8 2.5.4 3.6 1.2 1.3 2.1 1.3 5.1.3 3.1-1 3.9-.9 6.3.8 4.6 3.3 6 5.5 6.6 10.4.5 3.6.3 4.7-.9 5.2-2.3.9-2.4.8-2.4-2.4 0-1.6-.8-4.5-1.7-6.5-1.5-3.2-2.1-3.5-5.8-3.5-5.7 0-7.8 2.4-8.3 10-.4 5-.7 5.9-2.6 6.4q-2.3.4-3.7 5.3c-1.2 3.9-2.2 5-5.9 7-2.5 1.3-4.7 2.8-4.8 3.3-.5 1.5-3.9 1.2-7.2-.5-3.4-1.8-3.9-3.5-1.1-3.5q5 0 5.1-3.1c0-1 1.9-3.1 4.4-4.8 5.4-3.7 8.6-7.6 8.6-10.4a8 8 0 0 1 2.3-4.5l2.2-2.4-2.2-1.8c-2.8-2.3-2.9-5.4-.3-12 1.1-2.8 2-6.2 2-7.6s.9-4.2 2-6.4c2.2-4.3 2.6-10 .9-13.1-.9-1.7-.3-3.2 3-8.9 5.1-8.6 5.3-12 .9-15.2a35 35 0 0 0-6.6-3.5l-3.4-1.1-3.8 6.1c-5.9 9.3-7.6 11.3-12.7 14.3a25 25 0 0 0-5.5 3.8c-1.3 1.8-.9 3.4.9 3.8 1.5.3 1.5.4 0 1.9-.9.9-1.9 3-2.3 4.5-.4 1.6-1.8 4-3.2 5.3l-2.6 2.3 3.5 2.9c2.7 2.2 3.3 3.3 3.1 5.8-.2 1.7.5 4.4 1.5 6.1l1.8 3.1-3.3 3c-3.2 2.9-3.5 2.9-4.8 1.2-.7-1-1.4-3.1-1.4-4.7 0-1.8-1-4.1-2.6-5.7a42 42 0 0 1-7.7-11.8c-2-3.8-3.8-5.7-6.5-6.9-5.1-2.3-9.2-5.7-9.2-7.5q-.1-1.5-1.1-2.3c-.6-.3-.9-1.4-.6-2.4.3-1.1-.6-2.9-2.3-4.5l-2.8-2.7-2.1 2.1c-2.7 2.7-2.6 4.7.5 9.2 2.1 3.1 2.5 4.6 2.2 9.5l-.3 5.9-3.7.3c-2.7.2-3.9.9-4.4 2.4q-.6 2-1.6 1-1.2-1.1.6-3.6 3.8-5.7-1.3-5.6c-1.6 0-4.1.4-5.4.9-1.9.7-3.5.4-7.3-1.5-3.6-1.8-5.8-2.3-8.1-1.9-1.8.3-4.1.1-5.2-.5-1.8-.9-1.8-1.2-.5-3.9.8-1.6 2.4-3.2 3.7-3.5 5.4-1.5-1.3-2.2-16.6-1.9-8.9.2-17.7.4-19.6.3-2.6 0-4.3.8-6.7 3.1l-3.2 3.1-3.9-1.8c-3.6-1.8-3.8-2.1-3.5-6.4.4-7.3.5-7.4 7.2-6.7l6 .7v-4.6c0-5.4-1.6-8.7-6.4-13.3l-3.6-3.5v4.5c0 5.3-1.8 8.3-6.8 10.8-3.5 1.8-3.7 2.2-3.7 6.7s-.3 5-3.5 7.1l-4.8 3.3q-1.3 1.4-1.2-1.9c0-1.7-1-4.5-2.3-6.4-2.1-3.2-2.4-3.3-5.2-2.1-1.7.7-6.4 1.3-10.6 1.4h-7.6l-2.6 5.3a28 28 0 0 0-2.7 6.5c0 1.9-3.9-.8-4.6-3.3-.4-1.1-1.2-2.7-1.9-3.5s-1.5-3.2-1.8-5.3q-1-6.8-4.8-6.7c-2.7 0-4.2 3.7-3.6 9s-.2 7.4-2.9 6.8c-5.7-1.1-7.6-15.5-2.9-22.4 1.3-2 2.7-4.3 3-5.2s2-2.6 3.8-3.7c3.3-2.1 4.7-5.9 2.9-7.7q-1-1 .4-4.4c.8-1.8 1.4-4.6 1.4-6.1s.4-3.3.8-4c.4-.6.7.8.7 3q0 4.2 4.3 12.6c2.3 4.6 4.2 9.2 4.2 10.2 0 2.8 6.3 8.5 11.6 10.5 4.5 1.7 5 1.7 11.3.1 7.3-2 8.1-2.7 8.1-7.7 0-2 .7-4.5 1.5-5.7 1.4-2 1.4-2.8-.5-8.2-1.1-3.3-2-7.8-2-9.9s-.7-5.5-1.4-7.4c-.8-1.9-1.2-4.5-.9-5.7q.6-2.2-1.6-4.2c-1.1-1.1-2.1-2.6-2.1-3.5s-1.1-1.9-2.4-2.5a6 6 0 0 1-3-4.1c-.9-4.8-.8-5.1 1.9-3.4 2.4 1.6 2.5 1.6 2.5-.9 0-3.9-1.7-6.4-3.8-5.8-1 .2-2.4-.3-3.1-1.1s-2.9-1.6-5.1-1.6c-2 0-5.1-.5-6.9-1.1-4.2-1.5-7.3-.6-11 3.2q-3.2 3-3.1 6.2a29 29 0 0 1-1.1 6.9c-.9 3.6-1.2 3.8-4.9 3.8-4.8 0-10.5 4.5-11.5 9-.7 3.2-4.1 8-5.6 8-1.7 0-10.4 4.2-11.1 5.4q-.6 1 .2 2c1.6 1.6 1.1 3.4-1.1 4.1-1.6.5-1.9 1.4-1.7 3.8.3 3.1.2 3.2-4.2 3.7l-4.5.5-1.7 6.9a26 26 0 0 1-3.1 8.3c-1.7 1.7-15.8 3.2-30.1 3.3-9.8 0-9.9 0-8.1 2 1.7 1.9 1.7 2.1.2 3.8-2.2 2.4-2.1 3.4.4 6.6 1.2 1.5 1.8 3 1.4 3.4s-1.2-.1-1.9-1.1q-1.2-1.5-2-1.7c-.3 0-2.7-1-5.1-2.1-4.2-2-4.7-2-6.4-.5-.9.9-2.8 1.6-4 1.6-2.3 0-7.4 3.4-12.2 8.2-1.6 1.6-3.8 2.8-5.3 2.8q-2.7-.2-3.7 2.7c-2.7 6.6-3.5 8-7 12.3-3 3.7-3.5 5.1-3.1 7.9q.5 3.2 2.3 3.8c1.7.5 1.7.8.5 3.2-1.4 2.6-1.3 2.7 1.5 4 2.5 1.1 2.9 1.8 2.9 5.1 0 3-.5 4-2 4.5-1.1.3-2 1.5-2 2.5s-1 2-2.3 2.4c-2.3.5-4.7 4.2-4.7 7.1 0 .8-.7 3.5-1.6 6.1-1.6 4.6-1.5 4.8.6 6.4q2.3 1.7 1.1 2.4c-.6.4-1.1 1.6-1.1 2.8q0 2-1.6 1.4c-.9-.3-2.7-.6-4-.6s-2.4-.6-2.4-1.3-.6-2.2-1.4-3.2c-1.2-1.6-1.6-1.7-3-.6-.9.7-1.6 2-1.6 2.8s-1.3 2.8-3 4.3c-2.1 2-3 3.7-3 6 0 3 .2 3.2 2.9 2.7 2.4-.5 3.5 0 6.5 2.9 5.3 5.2 5.7 7.9 1.4 11.9-4.8 4.3-5.3 6.5-2.8 10.8l2.1 3.6-2.5 4.4c-2.6 4.4-2.6 4.4-.6 6.2 1.1 1 2 2.8 2 4 0 2.7 1.5 4.1 5.3 5 2.4.6 2.7 1.2 2.7 5 0 3.4.4 4.4 2 4.8q1.9.6 2 2.5.3 2.7 2.3 4.9c2.5 3 5.2 10.7 4.3 12.2-.3.5-2.1 1.2-4 1.5-3.8.7-5.2 2-6.1 5.7-.4 1.5-2.3 3.7-4.6 5.2l-3.9 2.6-2.2-3c-2.4-3.2-5.3-3.7-10.7-1.8q-6.3 2.3.9 6.9a20 20 0 0 1 3.7 2.6c-.7.7-13.5-3-14.9-4.3-2.2-2-5.3-.9-4.3 1.5.4.9.9 3.3 1.2 5.2.5 3.3.5 3.4-1.2 1.8s-2.2-1.5-5.9-.2c-2.2.8-4.6 2.2-5.3 3.1-1.1 1.4-1.6 1.2-4.4-2.1-1.8-2-3.6-3.6-3.9-3.6-1.1 0-3 4.9-3 7.6 0 2.1 5.3 13.8 7 15.4 1.1 1 3.2 11.6 3.1 15.7-.1 3.7.2 4.4 2.8 5.8 2.9 1.5 5.9 6.6 7.4 12.7q.8 2.6 2.3 2.8c.8 0 3.5 2 6 4.5 3.4 3.5 4.4 5.3 4.4 7.8 0 1.8.5 3.8 1 4.3q1.2 1.1-.5 2.4-3.6 3 2 3c2.7 0 4.6 1 8.7 4.7 6.2 5.4 6.3 5.6 4.3 7.3q-3.3 2.7 1 7.8c1.9 2.2 2.7 4.6 3.1 9.4.4 3.4 1.4 7.5 2.2 9 1.5 2.5 2 2.7 5.7 2.1 2.2-.3 4.6-.9 5.4-1.3 2.2-1.2 4.1-8 4.1-15.4 0-5.8.5-7.7 3.1-12.2 4.4-7.7 5.1-11 3.4-14.5-.8-1.5-1.5-3.2-1.5-3.6 0-.5 3-1.7 6.6-2.7s7.9-3 9.5-4.3c2.6-2.3 2.8-2.3 3.8-.5.7 1.4 1.8 1.7 4.5 1.4q3.7-.4 3.6.8 0 1.3 1.8-.3t4.1-1c2.3.6 2.4.4 1.8-3.6-.4-3.4-.2-4.1.9-3.7 2.1.8 2.5-.7 2.5-9 0-6.9-.3-8-2.5-10.3s-2.5-3.1-1.6-6q.9-3.4 0-5.2c-1.6-2.9-1.2-3.9 2.3-5.4 4.5-2 7-4.5 8.6-8.3 1.1-2.7 1.9-3.3 3.7-2.9q2.2.5 4.4-2.5c1.1-1.5 2.8-2.8 3.7-2.8 1.3 0 1.5.9.9 6.4-.5 5.3-.4 6.5 1 7 2.7 1 3.4.7 5.5-2.9 1.6-2.6 2.8-3.5 4.8-3.5 1.5 0 3.1-.4 3.7-1 .5-.5 4.1-1.4 7.9-2.1 11.6-1.8 11.8-1.8 13.6 2 .9 1.9 1.9 2.9 2.2 2.3 1.2-1.8 4.9 0 6.9 3.4 1.1 1.8 2.7 3.6 3.6 3.9 2.7.9 6.2 9.6 5.5 13.9q-.8 5.5 2.4 2.5c1.5-1.5 3.3-.3 3.3 2.1 0 3 4.2 5.3 7.4 4 4.9-1.8 9.2-1.3 11 1.5 1.7 2.5 4.4 3.2 6.2 1.6.5-.5 2.1-.7 3.7-.4q3 .4 1.7 1.8c-1.5 1.8-.2 6.4 2.1 7.8q1.8 1.2 1.9 2.4c0 2.1 4 2.6 5.5.7 1.2-1.8 1.4-1.7 2.6.8 2.4 5.5 10.5 5 13.1-.7 1.5-3.5 1.5-3.6-1.4-7.3-6-7.4-5.8-9.2.8-9.2 2.8 0 3.3-.4 3.8-3.4.7-3.7 3.6-7 4.3-4.9.2.7 2.1 1.7 4 2.4 3.2 1 3.8.9 5-.6 1.1-1.6.9-2.1-1.7-3.7-3.3-1.9-3.6-2.8-1.8-4.6q1.4-1.3-.4-1.2c-2.2 0-1.3-3.2 1.4-4.9 1.8-1.1 2.5-1 4.8.7 4.2 3.2 11.1 4.1 41.6 5.9 7.4.4 10.4.1 16.3-1.7 6.6-1.9 7.5-2 9-.6a25 25 0 0 0 5.4 3.1c4.5 1.9 5.4 4.8 3.6 11.2-1.1 4.1-1.1 4.7.6 5.9q1.7 1.3 3.6.4c2.5-1.4 2.5-1.4 3.9 2q1.3 3.4 2.6 1.9c1-.8 1.9-.7 3.6.5 1.2.9 3.1 1.6 4.2 1.6 1.9 0 1.9.1-.2 1.6q-2.2 1.6-2 3.7c.3 1.8 1.1 2.1 6 2.4 3.1.2 6-.1 6.3-.7s1.6-1 2.9-1 2.6-.3 2.9-.6a81 81 0 0 1 11.5-4.4c.1 0-.2.9-.8 1.9-1.9 3.6-1 6 3.7 10.8 4.1 4.2 5.4 6.9 11.5 22.8a235 235 0 0 0 7.9 19q1 1 2.9-1.3c1.9-2.3 4-2.2 4 .2 0 3.8 14.5 8.8 16.4 5.7.8-1.2 5.4-1.5 8.1-.5.9.4 2.7 2.8 4.1 5.5s3.3 5.5 4.4 6.1c1.1.7 2 2.1 2 3 0 2.9 4.9 5.3 10.6 5.3 5.5 0 7.7 1.2 10 5.7 1.2 2.3 2.1 2.8 5.4 2.8 3.2 0 3.9-.4 4.2-2.2.2-1.9 1.3-2.4 6.6-3.4 6.1-1 8.2-2.4 8.2-5.2 0-1.1 13.4-8.2 15.7-8.2.5 0 1.8-.9 2.7-1.9s3.3-2.2 5.2-2.6 4.2-.9 5-1.2 1.4.1 1.4 1.1c0 1.3 1.1 1.6 5.6 1.6 4.8 0 5.9.4 7.6 2.5 3.7 4.7 6.6 5.5 19.4 5.1 10.2-.3 12.2-.7 14.1-2.4 2.6-2.4 3.1-7.3.8-9.2s-2.9-7.5-1.1-10.2c.9-1.2 1.6-3 1.6-4s.4-1.8.9-1.8 1.4-1.5 2.2-3.3c1.7-4.2 1.6-4.2 3.4-2.7.9.7 3.7 1.7 6.3 2.2 2.6.4 8.5 1.8 13.2 3.1l8.5 2.4 1.4 4.2c1.1 3.6 2.1 4.6 5.7 6.2q8.8 4 14.1.1c4.9-3.5 8.4-4.4 16.3-4.4q15.8 0 19.5 3.3c3.9 3.5 7.3 4 18 2.6 8.6-1.2 10.4-1.7 12.7-4 1.5-1.5 3.6-2.7 4.7-2.7s2.9-1.3 4-2.9a10 10 0 0 1 4.6-3.5q2.4-.6 2.5-2.6c0-1.1 1.1-2.6 2.3-3.5 1.3-.8 2.9-2.6 3.5-4a13 13 0 0 1 3.7-4.1c2.3-1.5 2.7-1.5 5 0 2.9 1.9 7.6 2.1 9.3.3a32 32 0 0 1 11-1.7c9.7-.5 9.7-.5 10-3.2.2-1.6 1.8-4 3.8-5.7q5.4-5 2-9c-1.1-1.3-1.2-3.2-.4-9.6 1.8-16.2 2-19.3.8-21.5-.9-1.7-1.7-2-3.9-1.5q-5.7 1.3-2.5-7.1c1.2-3.1 2.5-4.6 4.8-5.5a36 36 0 0 0 7.2-5.1c5.1-4.7 8-5.8 15.4-5.8 3.2 0 6.2-.4 6.5-1s2.3-1 4.5-1c2.9 0 4.8.8 8 3.5 2.3 1.9 4.6 3.5 5 3.5s3.7 2.8 7.3 6.2a223 223 0 0 0 11.1 10.3 18 18 0 0 1 4.6 5.2c0 .7 1.7 2.1 3.9 3.2 3.6 1.9 3.9 1.9 6.2.3 1.3-.9 4.5-2.4 7-3.2 4.2-1.4 5.1-1.4 8.8-.1 3.3 1.2 4.8 1.3 7.1.4 1.7-.6 3-.8 3-.5s1.7 2.6 3.9 5c3.3 3.6 4.4 4.2 7.9 4.2 3.1 0 4.5-.5 5.6-2.2.9-1.2 3-2.7 4.8-3.3 2.6-.8 3.2-1.5 3-3.4-.1-1.3.9-3.6 2.4-5.4s3.3-4.6 4-6.4c1.6-3.6 5.4-6.4 5.4-3.9 0 .8 1.2 2.4 2.6 3.5 2.2 1.7 2.5 2.6 2 5.2-.4 2.3.3 5.5 2.8 11.8 3.1 8 5.2 16.9 4.7 19.8-.1.7.3 2.2.9 3.3.9 1.6.6 2.2-1.5 3.6-1.4.9-4 2-5.8 2.3-2.4.5-3.5 1.4-4.2 3.6a22 22 0 0 1-2.8 5.5c-1.7 2.4-1.7 2.5 0 3.5a55 55 0 0 1 15.3 18.4c0 1.2-1 4-2.2 6.1-1.8 3.1-2 4.2-1.1 5.1 1 1 1.9.7 4.3-1.6 2.6-2.5 3-3.6 3.2-9.4.2-5.4.6-6.6 2.1-6.9 1-.2 2.4.4 3.1 1.4 1.1 1.5 1.8 1.5 6.4.5 6.1-1.5 9.4-5.7 11.1-14.1.7-3 1.9-6.6 2.8-7.9 1.2-1.8 1.4-3.6.8-7.5-.3-2.8-.6-5.6-.5-6.1l.7-19.8c.4-17.1.2-19.4-1.7-25.1-1.1-3.4-2-7.8-2-9.7 0-8.9-1.3-21.5-2.5-22.9-.7-.8-1.6-2.6-2-4a61 61 0 0 0-12.2-19.1 37 37 0 0 1-10-20.1l-.5-3.6 6.7 2.6c4.8 1.9 7.1 3.4 8.1 5.4.8 1.6 4.3 5.7 7.9 9.2 3.5 3.5 8 9.1 10 12.4 2.2 3.7 4.9 6.9 7.3 8.3 2 1.3 4.1 3 4.6 3.8.5.9 2.9 3.7 5.3 6.2s4.3 5.5 4.3 6.6c0 2.2 5.9 7.3 8.4 7.3 2 0 2.1-3 .1-5.6-2-2.7-1.8-5.1.5-5.7 4.5-1.2.3-6.4-7.2-8.9-3.6-1.2-9.8-6.5-9.8-8.3 0-.6-1.3-2.9-3-5.1-5.8-7.7-3.2-13.4 6.5-13.4l5-.1-4.5-1.8c-8.7-3.5-19.8-9.8-24.6-13.9a20 20 0 0 0-6.5-4.2c-2.8 0-9.2-5.6-10.3-9-.8-2.4-2.5-4.2-6.1-6.3a88 88 0 0 1-9.6-6.8c-4.5-3.7-6.8-4.7-8.2-3.3-.4.4 1.4 2.6 3.8 4.9q6.9 6.5 3 6.5c-3.2 0-2.8 3.1.8 6.8 3 3.2 6.7 9 6.7 10.7 0 1.2-3.8.4-4.4-1-.3-.8-1.7-2-3.1-2.5q-2.6-1-2.5-3.5c0-2.4-.2-2.5-6.4-2.5-3.6 0-6.8-.5-7.1-1-1.1-1.8-7.8-1.1-11.2 1.2-3.6 2.5-4.1 3.9-1.7 5.8 3.5 3 3.5 4.6-.1 8.4-1.8 2-3.6 3.6-3.9 3.6s-.6-1.3-.6-2.9c0-2.7-3.3-6.1-6-6.1-1.6 0-1.1 3.8.7 4.8q1.5 1 1 2.6c-1.1 2.8-3.3 1.7-5.6-2.9-1.2-2.5-2.5-4.5-2.9-4.5s-2 1.4-3.5 3c-4.4 4.7-9.7 5.2-9.7 1.1 0-1 1-5.6 2.1-10.2a102 102 0 0 0 2.4-26.1c.2-9.7.8-18.5 1.3-19.4q1-1.7-.6-6.1a11 11 0 0 1-.6-8.2c.6-2.2.7-4.6.3-5.3-1.4-2.2-1-7 1-11.3 2.3-5.1 12.6-14.5 15.8-14.5 2.8 0 4.2-2.8 2.2-4.2q-1.2-.9-.4-1.4c3.8-1.6 7.7-4.8 8.5-6.9.5-1.4 1.6-2.5 2.3-2.5q1.4 0 1.3-3c-.1-1.6-.4-3-.8-3q-.8-.1-.8-1.3c0-2 11-10.7 13.5-10.7 1.2 0 2.8-.7 3.5-1.5s1.7-1.2 2.2-.9 0 1.7-1.3 3c-2.6 2.8-1.9 5.7 1.3 5.2q2.2-.2 3-3.6c.5-1.8 1.5-3.5 2.3-3.9q1.5-.5 1.5-4.8c0-3.8.3-4.4 2.3-4.7q2-.4 2.1-1.3c-.1-.6.5-1.9 1.2-3a7 7 0 0 0 1.4-3.2c0-2-4.7-1.5-6.3.7-1.3 1.9-1.5 1.9-2.9.3-2-2.4-4.8-11.7-4.8-16.2 0-2-.7-4.5-1.5-5.5-.8-1.1-1.5-3-1.5-4.2s-.7-2.7-1.5-3.4c-2.1-1.7-1.8-7 .5-10a10 10 0 0 0 2-5.3q-.1-2.9 2-2.7c1.6 0 2-.7 2-3 0-1.7.3-3 .8-3s2.8 2.4 5.4 5.2c4.2 4.7 4.7 5 4.8 2.9 0-2.3.1-2.4 2-.6 1.1 1 2.3 1.5 2.6 1.2s-.1-5-1-10.3q-1.6-9.8-.6-10.8c1.4-1.4 1.2-4.6-.2-4.1-.7.2-3.2-1.3-5.6-3.5-3.4-3-4.2-4.4-3.7-6 .9-2.8 7.5-9.7 7.5-7.8 0 .9-.7 2.1-1.5 2.8-2.6 2.1-1.8 5.4 1.5 6.7 1.6.6 3.8 2.5 4.7 4.2s2.6 3.1 3.6 3.1q1.5.1 1.7 1.6c.2 1.5.8 1.8 1.8 2.1 1.7.4 1.8 1.3 1.4 7.9-.4 6.2-.2 7.7 1.2 8.7 1.1.8 2 3.5 2.5 7 .4 3.2 1.3 6.3 1.9 6.9.7.7 1.2 2.5 1.2 4.2 0 1.6.9 3.9 1.9 5 1.1 1.2 2.8 5.4 3.9 9.3 1.6 6.1 1.7 7.5.6 8.4q-1.2 1.2-.8 3.5c.4 1.4.1 3.1-.7 4-1 1.3-1 1.7.2 2.5q1.4.8 2.6.9c1.1 0 3.6 5.8 4.7 11.2 1.5 6.9 17.1 19.5 32.6 26.3 3.6 1.6 8 4.1 9.7 5.7q3.3 2.8 8.3 3.4c3.5.5 6.4 1.7 9.5 4.1 4.7 3.6 10.2 6 11.2 4.9.3-.3.1-3.1-.6-6.1s-.9-5.9-.6-6.5c.8-1.3-3.5-8.7-6.9-11.9-2.3-2.1-2.6-3.3-2.6-8.8q0-6.4 1.3-6.3.9-.2-.8-1.3c-8.2-4.8-11.5-9.2-11.5-15.1 0-2.6.6-3.8 2.1-4.6 1.6-.9 1.9-1.7 1.4-3.8-1-3.9-2.4-5.2-5.6-5.2-1.6 0-4.8-1.4-7.4-3.2q-8-5.6-2-10.6c3-2.6 2.5-4.4-1.8-6.4-2.4-1.1-3.6-1.2-4.9-.5-2.3 1.5-8.5-1.5-9.8-4.7a8 8 0 0 0-2-3.1c-1.5-.9-4 1.3-4 3.6s-2.8 2.5-5.3.6c-2.6-1.9-8.7-11-8.7-12.9 0-1-1.1-2.4-2.3-3.3-4.8-3.1-5.4-9-1.3-12.4 1.5-1.2 1.5-1.6.2-3-.8-.9-1.8-3.6-2.2-6-.7-4.3-.7-4.4 1.9-3.8l4.1 1.3c2.1.8 2.2-3.9.1-5.6-1.8-1.5-1.9-3.2-.4-10.1 1.4-6.5 3.7-8.9 8.7-8.9 5.1 0 5.6-.7 2.7-4.4a21 21 0 0 1-3.1-6.1c-.4-1.7-2-5.5-3.5-8.6-2.8-5.7-4.2-12.7-5.9-30.9-.4-4.7-1.1-9.6-1.4-11-.6-2-.1-3.2 2.4-5.5 3.5-3.4 3.8-5.5.9-8.1-2.1-1.9-6.2-2.3-16.9-1.5-2.5.2-5.5 0-6.7-.4-2-.6-2.3-.4-2.3 2 0 2.3-.3 2.6-2.2 2.1-1.3-.3-2.9-.6-3.5-.6-1.8 0-1.6-2.5.2-4 .8-.7 1.5-1.9 1.5-2.6q-.1-1.3-1.5-1.4c-1.1 0-1.5-1.2-1.5-4.6 0-3.9-.5-5.1-3.2-7.6-2.9-2.7-3.6-2.9-8-2.3l-4.8.7v-3.1c0-2.9.1-3 2.9-2 1.8.6 4.2.7 6.2.1 3.1-.8 3.4-1.2 3.4-4.8.1-6 2.2-8.4 7.1-8.4 4.2 0 7.2-2 5.9-4-.9-1.4 3.2-4.7 6.8-5.5 3.3-.8 4.9-4.2 4.1-8.5-.7-3.2-1.4-3.6-3-2q-1 1-4.8-1.5c-2-1.4-5-2.5-6.6-2.5-3 0-4-1.3-2-2.5 1.7-1 1.2-4.8-.5-4.1q-1.6.7-1.5-2.3c0-2.4-2.5-6.1-4.2-6.1-.3 0-1.3 1.1-2.1 2.4"/><path d="M832.4 235.2c-2.4 1.1-4.4 4.8-4.4 8.1 0 3.1 4.7 9.7 6.9 9.7 1.6 0 2-1.1 2.6-8 .5-5.8.4-8.5-.5-9.5-1.4-1.7-1.7-1.7-4.6-.3m-320.1 99.3q-3 3.3-2.7 5c.4.8-.1 2.6-1 4-1.6 2.4-1.5 2.6.4 4.8l2.1 2.2-2.5.3c-2 .3-2.6.9-2.6 2.7 0 3.6 3.8 4.4 6.3 1.4l1.9-2.4-.7 4.2q-.6 4.2.3 4.3 1.2.3 1.4 2.2c.2 1.3 1.6 2.8 3.3 3.7l4.5 2.3c3.4 1.9 4.2 2 7 .8s4.4-5 2-5c-.5 0-.7-2-.3-4.8.4-3.7.1-5.6-1.3-7.6l-1.8-2.8-1.8 2.4-1.8 2.3v-2.7c0-1.5-.7-3.1-1.6-3.6-1.4-.8-1.5-1.7-.8-4.8l.8-4.6c.1-.9-6.3-7.8-7.2-7.8-.4 0-2.2 1.6-3.9 3.5m203.4-2.2c-.3.8-2.6 2.4-5 3.5-2.5 1.2-5 2.9-5.5 3.8s-1.2 1.5-1.5 1.5c-1.6-.2-1.7 0-.6 2 .8 1.6 1.7 2 3.7 1.6 10.6-2.1 13.2-3.8 13.2-8.7 0-3.9-3.2-6.6-4.3-3.7m-25.2 12.8c-2.2 1-5.2 1.9-6.7 1.9-3.5 0-3.7 2.4-.5 5q4.6 3.7-3.6 1.8-7.8-1.7-7.7 3.4c0 2.8 4.7 11.6 6.9 12.8 3.2 1.7 9.1 1.3 9.8-.8 1.7-4.7 5.9-10.1 8.3-10.4q2.5-.3 2.8-2.5c.3-1.8 0-2.1-1.3-1.7-2.7 1.1-9.5-1.6-9.5-3.8 0-2.4 1.6-2.3 2.3.2.6 2.3 5.3 3.7 7.6 2.3 1.8-1.1 2.8-6.3 1.3-6.3q-.9-.2-1.5-2c-.6-2.5-2.9-2.4-8.2.1m-152.4 15.3c-.7.8-1.9 5-2.7 9.3l-2 11c-.6 2.9-.4 3.3 1.4 3.3 1.2 0 2.9-1.1 3.8-2.5s2.5-2.5 3.6-2.5c3.1 0 8.7-3.9 9.4-6.5 1.1-4.5-6.5-11.7-8.8-8.4q-.9 1.5-.6-1.6c.3-3.3-2.1-4.6-4.1-2.1M704.5 373c-.3 1-.3 3.5 0 5.3l.7 3.5 3.7-1.5c2.1-.8 5.1-2.6 6.7-3.9 2.8-2.3 2.8-2.4 1-3.9-1.1-.9-4-1.5-6.7-1.5-3.9 0-4.9.4-5.4 2m-288 18c-1.6 1.1-4 2-5.2 2s-2.5.5-2.8 1c-1 1.6-6.8.8-9.2-1.3-2.1-1.9-2.4-1.9-5.7-.3-1.9.9-5.1 1.6-7.3 1.6s-4.8.8-6.3 2c-1.4 1.1-3.9 2-5.7 2q-3.2 0-5 2.5a42 42 0 0 1-16 11.5c-2.1 0-2.4.4-2 2.2.7 2.5-1.6 4.7-5 4.8q-2.2 0-2.3 1.5c-.1 1.5-.9 1.5-2.5 1.5-2 0-2.7.6-3.1 2.9-.8 3.7-6.2 8-7.5 6-.7-1.1-1.5-.8-3.4 1.4-3 3.4-3.2 5.3-.5 6.7q1.8 1 2 2-.2 1-2 1-2.1 0-2 2.4c0 3.2 1.9 4.4 3.5 2.3q2.9-3.9 1.3 1.6c-.8 2.8-.6 3.8 1.3 6.9 1.3 2.1 3.1 3.7 4 3.8s2.8.9 4.2 2 2.9 2 3.4 2 .8-4.4.5-10.5c-.5-10.3-.4-10.6 2.4-14.6 1.6-2.3 4.4-5.2 6.4-6.4 1.9-1.2 4.1-3 4.9-3.9.7-.9 1.7-1.6 2.2-1.6 1.3 0 13.2-8.9 14.2-10.5.9-1.7 6.4-4.5 8.7-4.5.9 0 2.4-.8 3.4-1.9 2.1-2.3 11.2-4.6 23.6-6.1 8.6-1 9.8-1.4 12.7-4.2q6.3-6 2.7-8.5c-2.5-1.8-4.4-1.6-7.9.7m-2.5 55.9c-1.4 2.6-1.3 3.8.4 4.4 3 1.2 5.6-.4 5.6-3.4 0-2.4-.4-2.9-2.5-2.9-1.4 0-2.9.8-3.5 1.9"/></svg>