<svg xmlns="http://www.w3.org/2000/svg" width="1365.333" height="1365.333" viewBox="0 0 1024 1024"><path d="m219.9 78.5-4.4 4.4L169 96.5l-48.8 14.3c-2.2.7-.7 2.7 20.5 26.8l24.1 27.6c1.1 1.4.3 2.2-6.6 6.4-7.9 4.7-7.9 4.7-11.7 13.3-2.1 4.7-4.2 9-4.7 9.6s-8.8 2.6-18.4 4.6-17.6 3.8-17.8 4l-6.7 10a90 90 0 0 1-16 18.2l-9.7 8.7-27.1-4.3-27.2-4.4-1.4 2.7c-1.8 3.5-5.4 22.7-6.4 34.7a71 71 0 0 1-9.5 28.8c-1.7 2.5-1.6 2.7.3 5.8l2.1 3.2v-2.6c0-3.6 2.2-5.4 4.8-4a24 24 0 0 0 12.8.7c4.5-1.6 19.9 16.9 22.8 27.3 1.4 5 2.7 7.2 7.6 12.1 3.3 3.4 6.3 7.3 6.6 8.8 1.2 5.7 2.8 8.4 7.6 12.7q4.9 4.4 6 8.1c.5 2.1 2.8 5.9 5.1 8.5 2.3 2.7 6.9 10.4 10.2 17.1 5.9 12.1 6.6 12.9 14.1 17.4 1.7 1 1.8 1.5.6 4.8-2.2 5.9.8 10.9 6.5 11.1 1.6 0 8.9 8.8 11.4 13.7 1 2 1.9 4.8 1.9 6.1 0 1.4 1.7 4 4.5 6.7 4.4 4.3 4.5 4.6 4.5 10.5 0 7.9-.8 10.5-3.1 10.5-2.5 0-2.4.6 1 4.9a75 75 0 0 1 11.1 18.7c.1 4.6 5.7 7.9 10.2 6q1.7-.8 3.5 1.4c2 2.4 12.4 8 14.8 8 .8 0 3.2 1.5 5.2 3.3 2.1 1.9 5.9 4.8 8.5 6.6 2.9 1.9 5 4.2 5.3 5.6l1 4.8a43 43 0 0 0 5.9 9.8c4.1 5.7 5.7 8.9 6.9 14.2.9 4.3 2.5 8 4.4 10.2 6.3 7.7 7.5 9.5 6.1 9.5-.8 0-2-.6-2.7-1.3-1.6-1.4-1.6-1.6 3.3 8.8 2.1 4.4 4.4 8.8 5.3 9.7s1.9 3.4 2.3 5.5c.8 3.1.6 4.1-1.1 5.9a46 46 0 0 0-4.9 19.9c0 2.4.8 5.2 2.1 7 1.1 1.6 3.2 5.5 4.5 8.5 2.7 5.8 2.7 12 .2 17.5-.9 2-.3 3.8 4.3 12.5 4.4 8.4 6 10.5 8.7 11.7s3.1 1.7 2.2 2.8-.6 1.6.9 2.7c1.1.8 3.7 4.6 5.8 8.5q3.9 7.3 9 11.2c4.6 3.7 5.7 4.1 10.6 4.1 5.1 0 5.9.3 10.3 4.4 2.7 2.4 7.6 5.7 10.9 7.4 5 2.5 6.4 3.8 8.2 7.6 2 4 2.7 4.6 5.3 4.6 1.6 0 3 .1 3 .2l1.4 4.3c1.2 3.4 1.2 4.1-.1 5-1.2.9-.6 1.9 3.5 5.7s5.1 5.7 6.6 11.1c1.8 6.7 3.6 9.2 7.1 9.9 2 .4 2.1.8.8 6.8q-.5 2.6 1.6 4.4a7 7 0 0 1 2.1 5.2c0 4.6 1.5 8.1 3.8 8.8 2.5.8 6.8 7.2 7.5 11.2.3 1.8 2 5.3 3.7 8a21 21 0 0 1 3 6.5c0 .9.7 2.2 1.5 2.9a26 26 0 0 1 4 5.7 14 14 0 0 0 6.9 6.3c2.4 1 5.3 3.2 6.5 4.9s4.2 4.4 6.5 6.1c4.8 3.2 7.6 8.9 9.6 19.1 1 5.2 1.3 5.6 3.5 5.1 3.1-.5 7.5 4 7.5 7.8q0 2.6 3 4.8c3.6 2.7 6.3 8.6 5.5 12.2-.4 1.9.1 3.2 2 5 1.4 1.3 2.5 3.2 2.5 4.2 0 2.3.1 2.3 5.9-.6q8-4.2 8.1-10.1c0-2.1.5-2.5 3.1-2.5 3.3 0 3.3-.4.3-7.9-1.7-4.1-1.7-6-.3-17.3l1.2-8.8 4.7-3.5c6.7-4.9 12.3-4.9 18.7 0 6.2 4.7 11.5 6.1 17.3 4.6 2.5-.7 5.2-1.9 6.1-2.7q1.6-1.4 8-1.4c6.6 0 13.5 2.6 86.7 32.6l11.2 4.6v26.5c0 14.6.4 26.3.9 26.1s27.2-30.1 59.5-66.5a4558 4558 0 0 1 59.3-66.3l77.2-18 76.6-18.1 74.1-26.1 74.1-26 15.7-51.4c8.6-28.3 15.4-52 15-52.7-2-3.5-20.8-33.3-21.6-34.2q-1-.9-2.3.9c-1.3 1.8-3.4 1.6-60.7-6.3-32.6-4.5-60.5-8.4-61.9-8.7-2-.4-8.4-7.8-26.7-30.8-21-26.4-24.1-30.8-24.4-34.2s-.8-4.1-4.2-5.8c-3.2-1.6-4.2-1.7-5.9-.7q-2 1.3-2.9.3c-1.7-1.7.1-6.1 4.3-10.7 3.3-3.6 3.8-4.6 2.5-5.1-.8-.3-2.7.3-4.2 1.5-2.7 2.1-2.7 2.1-4.1.1-1.2-1.7-2.1-1.9-7.5-1.3l-6.2.6-3.8-4.4q-3.8-4.4-6.5-4.5c-2.1 0-2.9-.8-3.9-3.5-.7-1.9-1.3-4.4-1.3-5.6-.1-1.2-1.4-3.6-3.1-5.3-3.3-3.4-3.8-4.7-4.8-14-.7-6.2-.9-6.6-4.5-8.5a57 57 0 0 1-13.7-13.9c0-.4 1.4 0 3 .9s3 1.3 3 .9a18 18 0 0 0-3-4.1c-1.6-1.8-3-4.3-3-5.5 0-1.1-1.6-3.8-3.5-5.9-2.6-2.9-3.5-4.8-3.5-7.3 0-4.4 1.1-5.1 4.3-2.6l2.5 2 1.6-2.5c.9-1.4 1.6-4.5 1.6-7.2 0-4.3-.4-5.1-4.4-8.8-4.7-4.3-6.2-7.9-5.2-12 .6-2.4.7-2.5 3.2-.9 4.1 2.8 3.8.8-.6-4-3.4-3.7-4.9-4.6-7.6-4.6-1.8 0-3.9-.7-4.6-1.6l-5.9-6.8a50 50 0 0 1-5.8-7.4q-1.3-2.4-2.9-1.7c-4.4 1.8-4.8 1.6-7.2-3.5a30 30 0 0 0-5.7-8.1l-3.4-2.9h3q5.5.1 2.5-3.8c-1.2-1.8-2.5-2.2-6.9-2.2s-5.6-.4-6.5-2q-1-2-4.6-2c-2.8 0-3.6-.5-4.4-2.6-1.3-3.3-1.3-7.7 0-6.9.6.3 1 1.6 1.1 2.8q-.1 3 1.1-.6c1.2-3.4-.3-6.1-6.3-10.9a32 32 0 0 1-10.4-21.3c-1.1-10.7-.6-10.5-22-10.5h-18.3l-2.6-3.4c-1.4-1.9-2.6-4.7-2.6-6.2s-1.6-5.5-3.5-8.9l-3.4-6.2-21.9-3.2c-16.9-2.6-22.4-3.1-24-2.2-1.1.6-3.8 1.1-5.9 1.1-4.7 0-80.2-7.8-81.1-8.4-.4-.2-29.2-24-64-52.8L365 133.4l-16.3-7.2a192 192 0 0 1-39.8-23.4 726 726 0 0 0-25.4-16.9c-1.1-.4-14.4-3.1-29.5-5.9s-28-5.3-28.6-5.5-3.1 1.6-5.5 4M352 879.6q.2.7 1.7 1.9c1.4 1.1 1.5 1.5.4 2.8-1 1.3-1 2.1.1 4.4.7 1.5 2.1 2.9 3.1 3.1 1.4.3 1.7-.4 1.7-3.5 0-5-2-8.7-4.8-9.1q-2-.2-2.2.4"/><path d="M348.7 887.6c-.9 1 1.7 5.5 5.1 8.8 2.7 2.5 3.4 2.7 5.9 1.9q5.1-1.7 5.3 1.2.1 1.3 1.6 1.9c4.5 1.7 4.7-4.4.3-8.5-3.7-3.4-4.9-3.6-4.9-.9 0 3.3-5.5 2.7-7.7-.8q-3.6-5.7-5.6-3.6"/></svg>