<svg xmlns="http://www.w3.org/2000/svg" width="1365.333" height="1365.333" viewBox="0 0 1024 1024"><path d="M622 1c0 .6-1.1 2.2-2.5 3.5-1.8 1.9-3.5 2.5-6.8 2.5h-4.5l2.9 7.4 2.9 7.4-3 7.1a56 56 0 0 1-5.6 10.6c-1.5 2-2.5 3.7-2.3 3.8l3.7 2.3 3.2 2-3.1 4.2c-1.7 2.3-3.3 4.2-3.5 4.2s-4.9-2.2-10.3-4.9l-9.8-5-12.4-.2a61 61 0 0 0-15.1.9c-2.6 1.1-2.8 1.6-2.8 6.4 0 2.9.7 8.1 1.5 11.6l1.5 6.3-4 7.9-4 7.9-8.4-4-8.5-4.1-2.8 2a79 79 0 0 0-7.5 6.9c-4.6 4.7-5.9 8-11.4 27.3-.2.9-1.9 2.3-3.7 3.3-2.6 1.4-3.7 3-5 6.9l-1.6 5.1 3 4.4c3 4.3 3 4.4 2.3 13.9l-.7 9.5-5.7 5.2a28 28 0 0 0-8.6 12.2 66 66 0 0 1-9.2 15l-6.3 8 .5 6.3c.7 8.5-.3 10.3-7.7 13.5a29 29 0 0 1-14.3 2.7h-8.1l.8 4.2a59 59 0 0 1 0 33.2c-1.7 8.2-3.1 17.4-3.1 20.4 0 3.8-.6 6.2-2 8.2a21 21 0 0 0-2.7 6.1c-.3 1.8-6.4 12-13.5 22.6L411 335.3c0 .2 2.9 2.5 6.5 5.2 7.1 5.4 6.8 4.6 7.9 20.1.7 8.7-1.7 15.5-6.4 17.9-2.9 1.5-3.3 1.4-12.9-3.5-10.6-5.3-12.9-5.6-19.3-2.3a59 59 0 0 0-17.9 17.8c-2.6 4-6.3 9.1-8.4 11.4-3.9 4.3-3.9 4.5-2 12.2.4 1.8-.6 4.1-4.4 9.2l-4.9 6.8 3 9.2 3.1 9.2-3.1 5.1c-2.9 4.7-3.1 5.4-2.3 10.4.8 4.8.6 6-1.7 10.8l-2.7 5.3 2.8 10.7 2.7 10.7-2.5 20c-1.3 11-2.5 21.6-2.5 23.6 0 4.7 4.7 11.4 8.7 12.2 2.3.5 3.7 2.1 7.5 9l4.7 8.4-1.4 5.8c-.7 3.2-2 6.2-2.9 6.7s-2.5 2.6-3.6 4.7c-1.9 3.7-2 3.8-8.6 4.4-4 .3-7.2 1.1-8.1 2-1.4 1.4-1.3 1.8.6 4.3 1.1 1.4 2.1 3.8 2.1 5.1 0 3.6 4.9 22.5 6.5 24.9 2.1 3.3.8 11.2-2.7 15.7-2.8 3.6-3 4.3-2.4 9.7l.7 5.9-8.3 8c-8 7.8-8.4 8.1-12.1 7.5q-8.5-1.5-6.4 7.1c1.3 5.6-.5 10.5-3.8 10.5-2.8 0-5.5 3.9-5.5 7.7 0 1.5.7 5.3 1.5 8.3 1.8 6.7 2.1 13.9.8 16.5-.6 1.1-1.3 3.6-1.7 5.5s-1.5 5.3-2.5 7.5c-1.1 2.2-2.4 5.2-3 6.7q-1.1 2.7-3.1 3c-5.5.4-5.5.4-5.2-2.8.5-4.6-3.5-14.4-5.8-14.4-3.2 0-7.1 4.2-7 7.5l.6 19.3c.2 9 .8 17.2 1.4 18.2q2.3 4.1-1 4c-3.3 0-2.4 3.4 1.3 5.1q3.1 1.4 3.5 3.6.4 2.1 1.2 2.3c1.4 0 5 4.2 5 5.8q0 1.5-2.4.8-2.5-.7-4 1.5c-1.3 1.9-1.3 2.3.5 4.3 1.8 1.8 4.8 2.7 10.2 2.7q1.5 0 1.7 1-.2.8-2.3.9c-1.2 0-3.9 1.1-6 2.5-3.6 2.5-3.7 2.6-2.1 5q2.5 4 3.9 1.5a10 10 0 0 1 3.5-2.5l2.9-1.5-.6 3.8c-.3 2-1.4 4.7-2.5 5.8-1.7 1.9-1.8 2.5-.7 4.3.8 1.1 2 2.2 2.9 2.4q1.5.3-1.3 1.7c-3.8 1.8-3.1 4.4 1.3 5q3.5.5 2.3 1.3c-1.8 1.1-1.6 3.2.3 5.1.8.9 1.2 2.1.9 2.7-2.2 3.4-1.3 18.9 1 18.9.7 0 2.3-2.1 3.5-4.8 2.5-5.2 3.7-4.4 2.1 1.3q-1 3.7.1 5.5c.9 1.4.9 2.2-.2 3.5s-1.1 1.8-.1 2.5q1.4.7.2 1.4c-1.2.7-.5 1.6.9 3.4q2 2.5 1.6 4.8-.6 2.2 2.1 5.3c1.5 1.7 2.7 4.3 2.8 5.8 0 2.2.7 3.1 3.2 4.2 3.9 1.7 7.1 7.6 7.5 13.8.2 2.4.8 4.3 1.4 4.3.7 0 1.4 1 1.7 2.1.5 1.7 1.2 2.1 3.7 1.7 2.6-.4 3.1-.1 3.7 2 .9 3.5-1.9 11.6-4.1 12-1 .2-2.2-.2-2.6-.8-.6-1-1.5-1-3.9.1-3.6 1.6-3.9 2.9-1.1 5.4 1.1 1 2 2.4 2 3.2q.1 1.3 1.5 1.9c.8.4 1.5 1.7 1.5 3 0 3.5-3.9 3.2-7.5-.6-3-3.2-6.5-4-6.5-1.5 0 2.1 3 9.6 5.2 12.7 1 1.5 2.7 5.3 3.8 8.4 1.8 5.7 1.8 5.7-.2 7.4-2.6 2.1-1.9 3.4 3.3 6 3.4 1.8 3.9 2.4 3.7 5.2-.3 2.6.2 3.5 2.5 4.6 4.9 2.4 2.5 7.5-4.1 8.8-3.7.8-4.2 3.2-1.2 5.9 2.7 2.5 2.5 4.9-.5 6.3-2.9 1.3-3.3 3.2-.7 3.2.9 0 2.9.6 4.3 1.4s4.3 1.6 6.5 2a28 28 0 0 1 7.3 2.7l3.4 2 4.5-3.2c3.4-2.5 5.7-3.3 9.1-3.4 2.5-.1 5.6-.5 6.9-.9 1.6-.5 3.5 0 6.7 1.8 5.3 3.2 10.5 3.5 10.5.7 0-1 .7-2.1 1.5-2.4a13 13 0 0 0 3.5-4.8c2.2-4.3 2.1-5.4-1.1-10.9-2.3-3.9-2.7-5.9-1.8-10.3.9-5.1 4.2-10.3 7.1-11.3.9-.3 2.5-1.8 3.5-3.5 2-3.4 3.2-3.6 6.4-1 3.4 2.6 7.4 1.2 6.5-2.4-2-8.1-2.1-7.5 1.5-7.7l4.9.1c5.5.7 9.1.7 9.6 0 .9-1.5 4.4-1 4.4.5 0 2.4 1.9 2.9 4.5 1.2 1.3-.9 3.1-1.3 4-1s2.1.2 2.8-.3c3-2.1 11.7.8 11.7 3.9 0 2.3 2.5 2.3 4.9-.1a52 52 0 0 0 8.6-17.1c.9-3 2.5-7.5 3.5-10s2.1-5.8 2.5-7.3a5 5 0 0 1 2.8-3.6c2.9-1.1 4.2-5.4 5.8-18.6.7-6.3 1.7-10.3 2.5-10.8 1.9-1.1 1.8-7.2-.1-9.1-1.7-1.7-2-4.2-.5-5.1.6-.3 1-1.7 1-3.1 0-1.3.5-2.4 1-2.4q1-.1 1-1.4.1-1.8 1.9-2.8c1-.7 2.4-3.1 3-5.3l2.3-7c1.7-5.1 1.5-6-.9-5.8-3.3.4-3-3.5.4-6.3l2.7-2.1-3.7-5c-4.8-6.6-4.8-7.7.2-6.9 3.5.5 3.9.4 4.5-1.8a9 9 0 0 0-.6-5.1c-.9-2.1-.9-2.8.1-3.5q1.3-.9.9-3.3-.5-2.6 1-3.2 1.3-.6.9-1.9c-.3-.7 0-1.9.6-2.5q1.3-1-1.1-4-2.2-3-.9-3.4 1.2-.4-1.1-3-2.4-2.5-1.1-2.9c2.1-.7.2-3.7-3.4-5.2-1.9-.8-3.8-1.9-4.1-2.5-.9-1.5-.4-1.4 4.5.5 3.5 1.4 4.6 1.5 8 .4 3-1 3.9-1.8 3.9-3.5s-.7-2.4-2.9-2.8c-2.3-.5-2.8-1-2.4-2.6s-.2-2.2-2.8-3q-5.1-1.4 1.1-.6c9.5 1 11.6.2 10.4-3.9-.5-1.6-.2-1.8 2-1.2q2.6.8 3.8-1.4 1.4-2 4.5-2c2.6 0 3.4-.5 3.9-2.5.3-1.4 1.2-2.5 2-2.5s1.4-1 1.4-2.6q0-2.3 1-1.9t1-.9q.1-1.4 1.3-1.4 1.1.3 1-2.5-.3-4.3 2.4-1.6 1 1.2 1.8-3.7c.4-2.7 1.3-5.6 1.9-6.6 1.1-1.6 1.2-1.1.8 3.1-.3 4 .1 6 2.4 10.8l2.8 5.8.6-3.2a24 24 0 0 1 9.9-14.3c2.1-1 4.1-2.6 4.4-3.5s1.8-2 3.2-2.7c3.3-1.5 4.1-4.4 1.9-6.9q-2.8-3.1 1.6-.9c1.6.8 2.6.4 5.4-2.4 3.2-3.3 3.4-3.7 2.3-6.6-1.3-3.6-3.5-4.5-10.2-4.5-5.1 0-7.5-1.7-3.3-2.4 1.3-.1 3.9-2.1 5.9-4.2 2-2.2 4.5-3.9 5.7-3.9q2 0 2.2-1.5c.2-1.5.8-1.9 1.8-2.2q3.5-1.4 2.6-4.6c-.5-1.5-.2-1.6 2.2-.7q5.2 2 1.9-2-3.1-3.2 3.5-2.7c2.2.2 2.5-.2 2.6-3.3.1-1.9.4-4.3.8-5.2.9-1.9-2.5-5.8-4.9-5.8q-1.3-.1-1.5-1.8c0-2-2-7.7-3.8-10.8-1-1.9-1.8-2.1-5.7-1.7-4.3.5-4.5.5-4.5-2 0-1.5.8-3.4 1.9-4.4 2.7-2.6 3.7-6.3 1.7-6.3q-1.5-.2-2.2-2.5a8 8 0 0 0-2-3.6c-.8-.6-1.4-2.4-1.4-3.9 0-3.4-2.5-5.9-4.2-4.2-.9.9-.8 2.1.5 4.7.9 2 1.7 4 1.7 4.5 0 1.8-4 1-5.7-1q-1.7-1.8-2.6-2c-1.2 0-4.6-4.2-4.7-5.8q-.1-1-1.5-1.2-1.6.2-1.5-4c0-3.7-.2-4-2.8-4-1.5 0-4.4 1.1-6.5 2.5s-4.2 2.3-4.7 2-1-2.4-1-4.6V633h-5.5c-4.8 0-5.5-.2-5.5-2q-.1-1.9-1.7-2-2.2.2.3-1.4c2.2-1.7 2.7-6.6.6-6.6q-1.3-.1-1.1-2.3c.1-1.2-.3-3.5-.9-5-1.5-3.6-1.5-3.7.5-5.9 1.5-1.7 1.5-1.8 0-1.8-1.9 0-1.8.2-2.3-6.5q-.4-5 1.2-6.6 1.5-1.7.8-4.3t.5-2.6c1.6 0 1.3-3-.4-3.6-2.1-.8-2.7-3.8-1.4-6.8.9-1.9.9-3.2.1-4.9-2.2-4.5-2.4-6.8-.7-9.3q1.5-2.6 1.1-5c-.7-2.8-.4-2.8 4-1.2q3.4 1.3 4.3 4 2.5 7.4 4.6-3.9c.6-2.9.5-3.1-2.3-2.9s-2.9 0-2.2-2.6c.7-2.2.5-2.8-.9-3.3-1.5-.4-1.7-1.4-1.4-4.8.2-2.3.9-5.4 1.5-6.9s.8-3.1.5-3.5c-.3-.5.5-3.1 1.8-5.8q2.3-4.8 1.8-7.3c-.5-2.2-.4-2.3 1.5-1.1 1.7 1.1 2.4 1.1 3.4.1s.3-1.5-2.6-2.7c-2-.9-4-2.3-4.3-3.3a8 8 0 0 0-2-2.7c-1.1-.8-1.2-1.7-.3-4 .6-1.6.9-3.8.6-5-.3-1.1-.1-2.7.4-3.4.7-1.2 1.1-1.2 2.4-.2q1.5 1.4 1.6 2.7c0 1.6 3.6 3.7 5 2.9q.8-.6.3-2c-.9-2.4.5-4.9 2-3.6 1.5 1.2 3.7-.3 3.7-2.5q.2-1 2-1.7c2.6-.7 3.8-3.7 1.8-4.8s-2-6.7 0-10.1c1.8-3.1 3.2-3.6 3.2-1.3 0 2.1.8 1.9 3.5-1.3 1.3-1.5 2.2-3.4 1.9-4.4-.6-2.1 1.4-3.4 2.2-1.4q1.2 2.9 4.7.3c1.5-1.1 1.5-1.5.3-3.9-1.3-2.5-1.3-2.7.7-3q2-.4 2.2-1.8.1-1.6-4-1.6c-5.8-.2-6-.3-4.9-1.4.6-.6 2.8-1.1 4.9-1.2 4.6-.2 7.6-2.7 6.8-5.8-.4-1.7.5-3.2 4.2-6.8l4.8-4.6 1.9 2.4c1.8 2.2 1.9 2.2 3.8.5 1.1-1 2.2-2.7 2.6-3.9s1.4-3 2.4-4.1 2-3.3 2.2-4.9c.2-2.4.9-3.1 3.7-3.8 3.4-.9 3.5-1.4 1.6-6.1q-.6-1.5.3-1.7c1.1 0 6.2 6.4 6.2 7.8q.2 1 2 .5 2-.5 2-3.5c0-3.7 3.5-8.3 6.3-8.3 1.8 0 2.1-.5 1.9-2.9-.3-2.5-.1-2.8 1.8-2.3 2.8.7 5-.1 5-2 0-.8.5-2.4 1.1-3.5 1.1-2 1.2-2 2.7 1.3l1.5 3.4.9-3.8c.6-2 1.6-3.7 2.4-3.7s1.4-.6 1.4-1.4 1-1.6 2.1-1.8q2.2-.1 3.5-4.6a20 20 0 0 1 2.7-6 50 50 0 0 0 5.7-15.1c0-.8 2.9-4.2 6.4-7.5 3.5-3.4 7.5-8.4 9-11.3 2.8-5.6 3.6-9.7 1.4-7.5q-2.6 2.4-2.8-.3-.1-1.4-1-1.5t-.4-2.4q.7-2.5-1.4-3.5c-1.1-.6-2.2-.8-2.4-.5q-.6.2-2.1-2c-1.5-2.2-1.5-2.5 0-3 1.4-.6 1.4-.8-.1-2.4-.9-1-1.6-2.3-1.6-2.8s-.9-1.7-2-2.7c-2.4-2-2.5-3.1-.5-5.1.8-.8 1.5-2.2 1.5-3.1q0-1.6 1.5-1.2 1.6 1 .8-2.3c-.5-2.6-.3-3 1.6-3q2 0 1.7-.9c-.8-1.2 3.2-6.1 5-6.1q1.6.1.8-2.3c-.4-1.2-.7-3-.6-4s-1-4.1-2.4-7a27 27 0 0 1-2.4-7.3c0-2.3 3.2-5.8 4.3-4.7q.6.5.7-.4t3.9-.6c6.2.8 10.6-4.1 6.1-6.9q-4.3-2.8 1.4-2.8c1.9 0 3.8-.5 4.1-1s2.1-1 3.9-1h3.3l-1.1-3.5q-1-3.4-2-2.5-1.4 1.2-1.8 1c-1.2 0-1-4.8.2-5.5q1-.4 1 .5.1 1.2.8.6c.5-.3.9-2.5.9-5 .1-5.6.9-7.1 2.9-5.5.8.6 1.4 1.7 1.4 2.5 0 1.5 3.5 2.8 5.1 1.8.7-.4.9-2.4.6-5-.2-2.4-.2-4.6.1-4.9.9-.9 4.2 2.7 4.2 4.6 0 1 .5 2.1 1 2.4s1 1.7 1 2.9c0 2.7 2.9 5.9 3.1 3.5v-2.2q.1-.6 1.4-.7 1.4.1 1.5 2.2c0 2.3 0 2.3 2-.2 1.1-1.4 2-4 2-5.8 0-2.9.3-3.3 2-2.8l4 1.2a53 53 0 0 0 19.3-3.3q3-1.5 2.1-3.1l-2.3-6.2c-.9-2.5-2.2-5.5-2.9-6.7s-1.2-3.1-1.2-4.3q0-2-3.5-3.7-6-2.9-8.2-14.8c-.8-4.5-.6-5.6 2-11 2.7-5.5 2.9-6.5 2.4-13.7-.4-4.8-.3-7.8.3-7.8 1.5 0 1.1-3.1-.8-6.6l-4.1-7.5a31 31 0 0 0-3-4.9 28 28 0 0 1-5.1-11.4q-.1-2.7 2.6-3.7c2.6-.9 2.6-1.2 2-6.6-.8-6.9-1.5-7.9-6.7-8.7-3.9-.6-4-.7-3.4-3.9.3-1.7 1.1-4.2 1.8-5.5.9-1.8.8-3-.4-5.5-3.8-7.8-3.9-11-.2-17.9 1.2-2.4 1.2-3.1-.1-5.5a21 21 0 0 0-4-5c-1.4-1.3-2.6-3.2-2.6-4.3 0-2-.9-2.4-4.1-2.1q-1.7.3-2.4-3.6-1.6-8.4-6.3-10.6c-1.5-.6-2.9-1.4-3.2-1.8a29 29 0 0 0-11.5-4.9q-2.3-.1-2.5-1-.4-1.2-2.5-1a12 12 0 0 1-9.9-5.9 8 8 0 0 0-4-3.5 5 5 0 0 1-3.1-2.5c-.3-1.1-2.1-2.9-4-4s-3.5-2.7-3.5-3.6-1.7-2.5-3.8-3.9-4.3-3.1-5.1-4-2.8-1.6-4.8-1.6c-3 0-3.4-.3-2.8-1.8 1.6-3.9 1.7-5.3.1-7.7a10 10 0 0 1-1.6-4.3c0-1.8-1.8-4.2-3.2-4.2q-.7.1-.8 1m-24.3 832c-2.1 2.4-3.4 3-6.5 3s-4.1.4-4.5 2q-.6 1.8-1.6 2c-1 .2-1.1-.9-1.1-2 0-2.6-3.4-2.7-5.2-.1a15 15 0 0 1-4.6 3.5c-2.4 1.2-4 3.3-6.2 8.2-1.9 4.2-4.5 8-7.2 10.4-4.3 3.8-4.3 3.8-2.9 7.1 2.2 5.4 2.6 13 .7 14.1s-2.1 3.4-.2 4.5q1.9 1.3 3 10.3.4 2.3 1.9 2.8c1.8.4 2.4 2.2.6 2.2-.5 0-1.6 1.5-2.4 3.4s-1.9 3.8-2.5 4.1c-1.9 1.2.1 2.5 3.9 2.5q6.5 0 5.4-7.7-.6-3.2 1.4-5c1.1-1.1 1.8-2.4 1.6-2.9-.5-1.5 7.2-7.4 9.6-7.4 3 0 3.7-2.1 1.1-4-2.1-1.5-2.1-1.8-.5-3.3.9-.9 3.6-2.9 6.1-4.3s4.4-3 4.4-3.5-1.3-1.5-2.8-2.3q-6.4-3.4-4.3-6c.7-.8 1.1-2.9 1-4.8-.5-6.5 0-8.8 1.9-8.8 2.1 0 4.2-1.8 4.2-3.7 0-.8 1.6-2.7 3.5-4.4s3.5-3.7 3.5-4.5 1.1-2.4 2.4-3.5c2.5-2.1 2.5-4.9.1-4.9-.7 0-2.5 1.3-3.8 3m-86.5 47.2a101 101 0 0 0-4.2 12.3 61 61 0 0 1-11 22.2c-1.5 1.1-2.3 2.7-8.4 16.7-2.7 6.2-3.5 14.3-1.5 16.3.7.7 1 3.8.7 8.2-.4 6.9-.3 7 1.7 5.7 2.9-1.9 5.4-7.5 5.5-12.2a58 58 0 0 1 5.4-18.9c.8-2.2 1.5-4.9 1.6-6.1 0-1.2 1-3.6 2.3-5.5 2.8-4.2 4.4-8.3 5-13.1.3-2.1 1.9-6.6 3.6-10.2s3.1-7.5 3.1-8.9c0-1.3.9-3.6 2-4.9 1.9-2.4 1.9-2.6.1-4.2-2.7-2.4-3.6-2-5.9 2.6"/></svg>