<svg xmlns="http://www.w3.org/2000/svg" width="1365.333" height="1365.333" viewBox="0 0 1024 1024"><path d="M530.5 216.5c-17.1 1.3-53 6.2-65.9 9.1-8.7 1.9-10.8 3-20.8 11-8.6 7-9.7 7.3-19 4.9-2.2-.6-3.4 0-7 3.3a46 46 0 0 1-7.3 5.5c-1.6.8-8.8 7.8-16 15.5l-13 13.9-13 .6c-7.1.4-14.8 1-17.1 1.3-4 .6-4.1.5-9-5.5q-8-10-9.8-3.8c-.6 2.7-4.4 4.7-8.9 4.7a11 11 0 0 0-4.7 1q-1.7 1 4.5 1h6l5.8 9a42 42 0 0 1 5.7 11.4c0 3.3.9 3.3 5.5-.4 4-3.2 7.5-3.9 7.5-1.6q0 1.5-3.7 1.8-3.9.3-3.8 1.8c0 .8-2 2.5-4.5 3.8-5.4 2.8-15 12-15 14.3 0 1.3-1.2 1.9-5 2.4q-5.1.7-6 2.6c-1 1.7-.7 1.9 3.7 1.6s4.8 0 6.5 3.3l1.8 4.2c0 1.6-4.3.7-6.7-1.2a9 9 0 0 0-4-2c-2.4 0-8.7 3.7-11.8 7-3.4 3.7-9.8 8-11.8 8-2.5 0-4.7 3.6-4.7 7.4 0 4.8 1.3 7.2 5 9.1 2.5 1.3 6 6 6 8 0 .4-1.7-.7-3.7-2.4-3.9-3.2-8.3-4-10-1.9-.6.7-1.3 5.5-1.5 10.6-.6 10.7-.9 11.1-9.7 16.2-5.3 3.1-6.2 4-7 7.5l-.9 4-.1-3.3c-.1-3.8 2.6-8.3 7.6-12.6 2.7-2.3 3.3-3.5 3.1-5.9q-.1-3.2-2.8-3.8-2.3-.6-.8-.8 3.6-.2 4.9-10.4c.4-3.2 1.4-6.6 2.3-7.6 1.7-1.8 2.1-5.8.8-7.7-2-3-8.8-4.4-10.9-2.3q-3.6 3.4-9.6-5.4c-2.2-3.2-4.7-5.7-5.7-5.7s-4.2 2.7-7.2 6q-9.2 10.1-6.6 3c.8-2.6.7-3.4-.7-5-1.8-2-1.8-2 1.4-.9 3 1.1 3.5.9 6.6-2.1 3-2.9 3.8-3.2 7.1-2.6q3.7.8 7.7 4.8c3.7 3.7 4.3 4 7.6 3.3 2-.4 5.9-.8 8.7-.9 4.8-.1 5.2-.3 10.6-6.4 3.1-3.5 5.8-7.3 6-8.5.2-1.7 1.5-2.5 5.9-3.7 4.3-1.2 6.7-2.6 10.5-6.5 7.9-7.8 10.4-11.7 10.4-15.8 0-3.2-.4-3.8-2.7-4.3-1.6-.4-3.6-1.6-4.7-2.6-1.8-1.9-2.9-1.9-7-.3q-2 .9-1.4-.6c.7-2 7.3-2.3 10-.5 3.6 2.6 4.8 2 4.8-2.3 0-2.2-.4-4.3-1-4.6s-1-1.4-1-2.4q.1-2-2.4-1.4c-3.8.8-4.5-3.2-1.2-6.6 5-5.2 3.6-8.4-10.2-23.7-8.3-9.2-9.5-10.1-14.2-11.2-7-1.6-10.9-1.5-22.5.7a81 81 0 0 0-32.5 12.9c-15.6 9.1-29 19.3-31.9 24.1l-2.5 3.9-10.5.6c-7.3.5-12.2 1.3-15.6 2.7a65 65 0 0 1-11.5 3.4c-9.4 1.8-14.9 5.1-17.6 10.6-1.2 2.4-4.3 11.6-6.8 20.4-3.5 11.8-5.4 16.7-7.4 18.8a18 18 0 0 1-12.8 4.7c-1.7 0-3.6.6-4.1 1.2a56 56 0 0 0-4.3 24c0 8.8-.4 11.6-3.1 19.5-2.5 7.6-3.6 9.5-6.4 11.4-4.4 3-4.8 5.1-2 9.2a41 41 0 0 1 3.2 6.2l.9 2.8 2.8-2.7c1.6-1.4 3.9-2.6 5.2-2.6q2.4.1 4.2-3.6 2-4 2.8-2.3c.4.8.8 2.3.9 3.4 0 1.5.8 2.1 3.2 2.3q3.2.4 4.3 2.3c1.4 2.6 2.3 2.4 5.9-1.1 2.3-2.4 3.2-2.7 3.8-1.6.4.7 2.5 3.2 4.5 5.5 3.3 3.5 4.1 3.9 6.2 3.1 3.1-1.1 4.6-5.6 4.8-14.3.2-4.1.6-6.6 1.3-6.4.5.2.9 1.5.8 2.8-.4 4.5.8 8.8 3.2 11.8 1.5 1.7 2.3 3.6 1.9 4.5-.8 2-2.4 1.1-2.4-1.5q.2-3.3-3.4-.6-2.8 2-1.2 9.2 1 4-.5.7c-1.4-2.6-2.9-2.9-3-.5q.1 2.4-1-.2-1.2-2-6.2-3.4c-10.5-2.7-11.1-2.7-14.5 1.5-2.9 3.5-3 3.8-1.5 6 .9 1.4 2.5 2.4 3.9 2.4q2.4 0 1.8 1.5c-.3.8.3 3 1.5 4.8q2.2 3.4 2.1 8.8c0 8.7-1.5 8.6-2.8-.2-1.6-10.1-1.8-10.5-5.2-11.9q-4.9-2-5 1.8c0 .9-1.4 2.3-3.1 3.1-3.6 1.6-5 .8-2-1.1 1.2-.7 2.1-2.3 2.1-3.5s.5-2.5 1-2.8c1.4-.9 1.3-3.5-.2-3.5-.7 0-2.4-1.1-3.8-2.5l-2.6-2.5-3.7 2.6c-2 1.3-3.7 3.1-3.7 3.9q-.1 1.4-2.4 1.5c-1.3 0-2.6.7-3 1.5q-.4 1.6-5.5 1.5c-9.8 0-10.2-1.8-3.5-15.1a37 37 0 0 0 4.2-11.5c-.2-1.8-2.1 1-7.7 11.2-5.6 10-8.1 13.6-9.8 14q-5.8 1.6-3.9 7.9 1.5 5.3 3.1 2.5c.5-.8 5.2-.4 6.3.6.2.1-.6 1.2-1.7 2.3-2.2 2.2-2.7 5.6-1.2 8q.9 1.4 1.5.2.8-1 1.7-1.1c.6 0-.2 1.1-1.7 2.3l-2.8 2.4 2.3 3.1c1.3 1.8 3.1 3.2 4.3 3.2q2.2-.1 1.2 1.7-1.2 2.7-.2 7.8.2 2-1.2 2c-1.1 0-1.6-1.3-1.8-4.7s-.8-4.8-2.1-5.3c-1.1-.3-2.1-1.5-2.4-2.5-.4-1.6-1.4-2-5.1-2-2.7 0-4.6-.5-4.6-1.1s-.9-.9-2-.6-2.2.2-2.4-.2c-.5-.8 1.7-7.9 3.6-11.5 2.2-4.4-1.2.2-7.7 10.3a43 43 0 0 0-6.1 11.7q.5 1.3-3.2 1.9l-4.7 1c-.6.1-1.9 5.6-2.9 12.1l-1.8 11.9-8.3 13.5C24.1 533.3 18 549.2 6.4 591.4l-6.6 24L2 617c1.2.9 8.5 5.5 16.3 10.2 18.1 10.9 31.8 15.5 32.9 11 1.1-4.2-1.5-8.3-12.6-19.9l-11.4-11.9 4.5-6.3 4.5-6.2-6.2-5.7c-3.5-3.1-6.9-6.1-7.6-6.5-1.1-.6-.9-1.8 1.2-5.9l2.6-5 3.1 2.9 14.1 12.7 10.9 9.7 7.2-7.1 7.2-7.2 2.2 3.1 2.2 3.1-7.1 8-7 8.1 3.7 4.4c2 2.5 4 4.5 4.2 4.5s4-3.4 8.2-7.6c7.1-7 7.8-7.5 9.8-6.3 1.1.8 2.1 2.1 2.1 2.9s-4.6 6.1-10.2 11.7l-10.1 10.2 2.6 4c2.8 4.1 4.1 4.9 5.2 3.1q.6-1 2.2-1c1.3 0 1.2.5-.7 2.5-3.1 3.4-1.9 4.3 2 1.5 2.6-1.9 3.4-2 4.1-.9 1.2 2 1.1 3.2-.7 5.7-1.5 2.2-1.3 2.5 7.2 11.8l8.7 9.5 4.8-4.7 4.7-4.6 1.7 2.5c1.6 2.5 1.6 2.8-.6 6.7q-2.2 4-1.3 5c1.2 1.2 26-19.6 25.8-21.5-.1-.7-2.7-4.6-5.8-8.7-5.5-7.3-5.6-7.6-5.6-14.1V614h10v5.7c0 5.6.3 6.1 6 13.3a69 69 0 0 0 6.7 7.7c.5.1 3.1-1 5.8-2.5l5-2.7.1-11.8q.2-16.8 2.9-12.7c.4.6 1 5.8 1.2 11.4l.6 10.3 7.8.6c5.7.5 9 .2 12.3-.9l4.6-1.6v-6.7c0-7.8 1-9.3 7.6-11q7.2-1.7 7.4 1.6c0 .8 2 3.8 4.5 6.6 2.5 2.9 4.5 6.2 4.5 7.4 0 2.2.4 2.3 7 2.3h7l2-4c1.1-2.1 2-5 2-6.3 0-1.8 1.3-3.1 6.4-5.9l6.3-3.5 6.4 4.5c3.5 2.4 8.5 6.4 11.1 8.8a71 71 0 0 0 16.2 11.2c2.6-3.4 3.6-5.8 3.6-8.5V624h-6c-7.3 0-7.6-1-2-6.5 4.2-4.1 5.2-7.9 2.8-10.4q-1.7-1.4.3-.6 1.7.6 3.9-2.4c2-2.9 5-4.2 5-2.2 0 .5-1.2 2.3-2.6 4l-2.6 3.1 1.7 5.5c1.5 5.3 1.7 5.5 5 5.5 2.8 0 3.5.4 3.5 2q-.1 2-2.5 3c-2.2.8-2.3 1.2-1.4 3.9a14 14 0 0 0 2.9 4.6c2.2 2 11.2 4.5 16.5 4.5 2.9 0 4.4.5 5.3 2 2.3 3.7 9.5 2.1 10.6-2.4.6-2.3.9-2.4 3.5-1.5 2.7.9 2.9 1.3 1.9 3.4-3 6.5 2.9 11.3 14.9 12.1 6.7.5 8.3.3 10.9-1.4 1.7-1.1 3.7-3.4 4.5-5 1.3-3 1.4-3 9-2.9s7.6.2 6.2 2.4a6 6 0 0 0-.8 4.5 54 54 0 0 0 10.9 14.8c.6 0 3.8 2.6 7.1 5.9q6 5.9 11.7 8c4.9 2 5.9 2.8 7.3 6.4q3.5 9 15.5 14.7c5.3 2.6 7 3.9 7 5.4 0 6.6 13 12.3 25.6 11.3 8-.7 8.4-.4 8.4 5.7 0 3.6 3.4 7.6 6.5 7.6 1 0 5.4 3.7 9.8 8.2 7.3 7.6 8.1 8.1 8.5 5.9.2-1.3-1.3-7.1-3.3-12.8s-3.5-10.6-3.3-10.9c.3-.2 3.6 3.4 7.4 8.1 6 7.4 7.3 8.5 10.1 8.5q3.3 0 6.6-3c3.1-2.7 4.2-3 10-3 7 0 7.6.4 8.6 5.4.7 3.3 1.5 3.8 11.9 8 7.5 3.1 8.8 2.7 16.4-4.1 2.9-2.7 6.8-5.9 8.6-7.1 1.7-1.3 3.2-3 3.2-3.9q0-1.6 1.8-.7c.9.5 5.4 1 10 1.2 6.3.3 8.2.7 8.2 1.8s-1.9 1.4-9.1 1.4c-6.8 0-9 .3-8.7 1.2.5 1.3 3.1 2 13.4 3.6 5.8.9 10.4 3.5 10.4 5.8 0 1.7 4.4 6.4 6 6.4q1.1 0 .4-3.6c-1.1-5.7 1.5-3.9 6.3 4.6q4.3 7.8 4.8 5.8c.4-.9.2-2.6-.4-3.7-1-1.8-.7-2.2 1.9-3.6 1.6-.8 3-1.9 3-2.3l-1.9-9.4c-2.1-10.2-1.7-11.4 4.4-12.3 3.9-.6 4.1-.5 6.3 3.5 2.6 4.5 10.3 10 14.3 10 1.9 0 4.9-2.5 12.5-10.3 5.6-5.6 11.4-12.2 13.1-14.7s4-5.4 5.2-6.4c1.2-1.1 3.2-3.7 4.3-5.8 1.6-2.7 2.8-3.8 4.5-3.8 2.4 0 7.6-2.2 10.3-4.5.8-.6 4-2 7-2.9 3-1 7.1-3 9-4.5s7.6-4.4 12.6-6.5l9.1-3.8 10.2 1.5c10.1 1.5 10.2 1.5 17.4-.9 4-1.4 13.3-3.9 20.6-5.5 11.3-2.6 14.4-3.7 19.3-7.1 11.4-7.7 29.1-12.4 51.8-13.8 12.4-.8 14-1.1 19.1-3.9 5-2.7 7-3.2 15.5-3.7q10-.5 24.8-4.2c14.8-3.7 15-3.7 19.4-8.5 2.5-2.6 6.8-6 9.6-7.6a149 149 0 0 0 14.6-10.9c10.8-9 14.8-11.3 17.8-10.5 1.2.3 5.2 0 8.9-.7 8.7-1.5 15.2-6.3 23.8-17.7 5.7-7.5 6.5-9.3 10.4-22.5 2.4-7.8 6.2-19.7 8.6-26.3a95 95 0 0 0 5.5-22.5c.7-6.1 2.5-14.2 4.2-19.4 2.7-7.7 3-9.8 2.6-17-.4-7.8-.6-8.5-4.5-13.6l-4.1-5.4 1.7-3.5c3-5.9 4.3-10.9 3.7-13.9-.6-2.3-1.9-3.2-10.4-6.6-9.8-4-15.3-4.8-21.6-3.1-3.3.9-4.1 0-5.7-6.2-.9-3.5-1.6-4.3-4.1-4.8-4.6-1-15.5 1.4-18.8 4.1-1.5 1.3-3.3 2.4-4 2.4q-1.3 0-.3 1.2c1.8 2.3 2.4 7.7.9 8.5-.7.4-1.5 1.8-1.8 3q-.8 2.4 1.1 2.3c3.9 0 5.7 5.3 2.1 6.3q-1.9.4-2-.8c0-1.8-2.6-2.6-5.8-1.9-1.5.4-6.3 2.4-10.8 4.4a66 66 0 0 1-25.3 6.6 43 43 0 0 0-11.5 2.5c-6.1 2.8-10 2.5-12.5-.9-2.3-3.2-6.3-4.7-18.4-6.6a64 64 0 0 1-12.9-3.6 64 64 0 0 1-18.4-17.9q-1.7-3-5.3-3.6c-2-.4-4.7-1.3-6-2.2-1.8-1.2-4.4-1.4-11.2-1.1-8.1.4-9.1.7-11.9 3.3a16 16 0 0 0-3.6 4.9c-.3 1.2-1.7 3.7-3.1 5.7a13 13 0 0 1-14.4 4.9c-7.9-2.3-12.5-.2-18.1 8.4l-2.8 4.1 3.6 3.6c3.9 4 3.8 5.4-.4 7q-4.2 1.7-4.2-3.7c0-2.2-3.5-4.4-7-4.4-1 0-2.6 1-3.4 2.2q-1.6 2.2-1.6.8c.1-2.2 1.9-4.1 7.6-7.9q5.1-3.5 7.3-7.7c2.8-5.8 5.3-7.2 15.2-8.5 9.3-1.2 12.2-3.3 13.5-9.5.4-2.4 1.8-4 5.4-6.3 2.7-1.8 5.2-4.2 5.6-5.4s1.4-3.3 2.3-4.6c.9-1.4 2.1-5 2.7-8 1.1-5.4 1.1-5.8-1.9-11.1-1.7-3-5.9-8.8-9.5-12.8-7.9-9-8.7-12.2-4.8-20.7a30 30 0 0 0 2.6-8.6c0-2.7-.3-2.9-3.9-2.9-2.1 0-6.5-.3-9.8-.6l-6.1-.7-3.5 5.6c-2 3.1-5 6.3-6.6 7.2-4.4 2.2-7.1 8.1-7.1 15.6v6.1l-9.7-.7-9.8-.7-3.4 3.6a15 15 0 0 1-7 4.2c-2 .4-4.6 1.6-5.8 2.7-2 1.8-2.3 3-2.3 9.7 0 8.5-.9 10-8 13.5-1.9.9-5 3.3-6.8 5.3l-3.3 3.7 1.5-3.9 1.6-4.1c0-.2 2-1.2 4.3-2.3 6.3-3 7.8-5.8 7.5-14-.2-5.2.1-7.5 1.5-9.5a69 69 0 0 1 26.6-13.3c6.4-.8 7.7-2.3 5.7-6.2a28 28 0 0 0-14.1-11.1 77 77 0 0 0-30.9-3.2c-3.3.6-6.2.8-6.5.4l-5.2-7.9c-5.5-8.3-11.9-13.9-17-14.9-4-.7-17.8 1-21.6 2.8-1.6.7-2.8 2.7-4.1 7.1-1.1 3.4-3.8 9-6.1 12.5a35 35 0 0 1-12.8 12.2 59 59 0 0 1-11.4 6.4 5 5 0 0 0-3.8 3.5c-.5 1.6-2.8 4.1-5 5.6-3.7 2.4-4.6 2.6-9.8 2l-8.8-.9-3-.2-.5 7.8c-.5 7.2-2.2 10.6-2.8 5.5-.7-5.9-1.2-7-2.7-5.8-1.3 1.1-1.5.7-1.5-2.3 0-2.7 1-4.6 4.5-8.5 6.3-7 6.2-7.3-3.7-8.7-2.6-.3-5.7-1.5-7-2.6l-2.3-2 4.5.4a35 35 0 0 1 17.8 6c3.5 3.2 8.7 5.8 10.4 5.2.7-.3 2.3-2.3 3.6-4.5 1.2-2.2 2.7-4 3.3-4s4.3-1.5 8.3-3.3c9.2-4.3 13-9.4 14-18.9.9-9.2 9.3-26.3 14.8-30.1 4.9-3.4 7.9-9.5 6.8-14-1-4.6-11.8-18.7-14.3-18.7-3.6 0-20.7 15.3-20.7 18.6s-1 5.4-2.6 5.4q-2.5 0-.3-4.2 1.8-3.6-3.7-3.8c-4.4 0-5.3 1.9-4.5 9.7.7 7.1.6 7.2-2.4 9.6a23 23 0 0 1-5.4 3.2c-2.2.7-2.2.5 1-4.1 3.2-4.7 3.4-5.3 3.1-12.5s-.2-7.7 2.4-9.4c2.4-1.6 2.8-1.6 3.6-.2s1.6 1.3 7.1-1a34 34 0 0 0 15.5-11.9c2.9-3.9 3.3-5.1 2.7-8a16 16 0 0 0-3.4-6.6l-2.8-3.1-4.8 1.6a33 33 0 0 1-9.6 1.7h-4.7l.5 3.8q1.2 7.7-6.5 5.4c-2-.6-6-.8-8.8-.5-3.8.4-5.8.1-7.7-1.2-2.3-1.5-2.8-1.5-5.6-.1-4 2.1-7.5 2.1-6.7 0l.6-2.1q.1-.4 1.5.7c1.3 1.1 2 .9 4-1 2.4-2.2 2.7-2.3 9.4-1.1 3.8.7 8.9 1 11.3.6 4.3-.6 4.3-.7 4.3-4.6 0-6.1 2-7.4 11.3-7 6.2.2 8.1-.1 9.1-1.3 1.2-1.4 1-2.2-1.2-5.5a36 36 0 0 0-20.4-14c-4.8-1.5-9.8-3.3-11-3.9-1.8-1-2.8-.8-5.9 1q-4 2.3-3.2.8l1.3-3.2q1.5-3.6-11.3-5.9c-5.4-.9-7.8-.9-9.7-.1-2.1 1-3 .7-7.2-2.7a37 37 0 0 0-15.7-7z"/><path d="M845.3 328a6 6 0 0 0-2.9 3.5c-.6 2.3-1 2.5-6.5 2.5-5.2 0-5.9.2-5.9 2 0 1.1 2 5.2 4.5 9.1 4.2 6.5 5.1 7.3 11.8 10.3 4 1.8 8.9 3.9 11 4.6 2.2.7 6.9 3.3 10.5 5.8 3.7 2.5 9.4 5.4 12.7 6.4 7.8 2.5 9.6 3.7 12 8.4 1.1 2.2 2.5 4.2 3 4.6 1.8 1.4 3.5.8 3.5-1 0-2.7 2.5-5.8 3.5-4.3a2 2 0 0 1-.3 2.3c-1.4 1.4 4.9 12.9 7.9 14.5 1.3.6 2.9 2.3 3.6 3.7 1.6 3 1.4 2.9 8.5 1.5 22-4.4 27.8-6.3 27.8-9.5q.2-1.2 2.3-1.9c2-.7 4.3-2.4 8.4-6.7 1.5-1.5 1.8-1.5 4.6.3 2.8 1.6 4.5 1.8 16.1 1.2 16.7-.7 19.4-2.6 14.6-9.8-1.4-2.1-2-4.7-2-8.8 0-5.1-.4-6.2-2.8-8.7-2.6-2.6-5-3.5-13.3-5.4-1.6-.3-4 .2-6.3 1.4-2.9 1.4-3.6 1.5-3.2.4.6-1.7.2-1.7-4.6-.3q-3.8 1-3.8 2.7c0 1.7-6.7 6.2-9.2 6.2-.6 0 .5-1.8 2.7-4 2.1-2.2 3.6-4.2 3.3-4.6s-11.6-.8-25-1-25.8-.6-27.7-1c-2.4-.4-5.8-2.7-11.5-8-4.4-4.1-8.6-7.4-9.2-7.4s-3.8-1.2-7-2.6q-22.3-10-31.1-6.4m-38.2 36.2c0 1.8.8 5.3 1.8 7.8 1.6 3.9 2.3 4.6 5.6 5.2 2.1.5 4 .7 4.2.5.2-.3-.2-2.6-.9-5.2-1-3.5-2.3-5.6-5.4-8.1a23 23 0 0 0-4.8-3.4c-.3 0-.6 1.5-.5 3.2"/><path d="m880.4 382.7 1.1 5.1c.5 2.6 2.3 4.4 8.3 9 13.5 10 14.2 10.2 14.2 3.4q.1-8.3-6.4-8.2c-3 0-8.6-2.6-8.6-3.9 0-.5-1.3-2.3-2.9-4-3.2-3.4-6.5-4.2-5.7-1.4M188.6 619.9c-.3.5.2 2.3 1.1 4.1 1.2 2.6 1.3 3.7.4 5.1-.6 1-1.1 3.4-1.1 5.3 0 3 .4 3.6 4 5 4.9 1.9 11.4 2.2 10.8.3-.3-.6-1.5-1.4-2.9-1.5-4.1-.6-4.6-2.2-.6-2.2 3.4 0 3.7-.2 3.7-2.9 0-5.1-1.7-7.7-6.9-11s-7.6-3.8-8.5-2.2m46.7.4c-3.7.8-4.3 1.3-4.3 3.6 0 4.1 3.5 9.1 6.5 9.1q2.5 0 2.5 1.8c0 2.1 7.6 6.2 11.5 6.2 2.6 0 6.7-4.5 6.3-6.9-.2-.8-1.9-1.9-3.8-2.4q-7-1.7-7-6.8c0-2.1-.7-3.2-3-4.4-3.2-1.7-2.9-1.7-8.7-.2m-12 32.2c-.6 1.8-9.3 6.5-11.8 6.5-1 0 .9 2.3 4.3 5.5 4.3 3.9 6 6.2 6.1 8.2l.4 9c.2 5.3.6 6.6 3.1 9.2 1.7 1.7 3.4 3.1 3.8 3.1.5 0 2-2.4 3.3-5.4 2.4-5.3 2.5-5.5 7.2-6.1 14-1.7 24.9-3.8 25.5-4.9 1.7-2.5.6-4.9-4.1-9.5-5.7-5.6-8.6-6.4-18.7-5.5-4 .4-8.8.4-10.8 0-3-.6-3.6-1.1-3.6-3.2 0-1.4.5-3.5 1.1-4.6.9-1.6.8-2.3-.2-2.9-2.2-1.4-4.9-1-5.6.6M167.1 663c-4.3 3.4-5 4.5-4.5 6.4.3 1.4-.1 3.7-1 5.4-2.4 4.7-2.1 8.9.9 10.8q5.7 3.6 6.3-2.8t6.3-6c2.7.2 2.9 0 2.9-3.3 0-4.7 1.4-7.2 5.3-9.5q3.1-2 1.6-2.4l-4.8-1.5c-5.5-1.8-7.7-1.3-13 2.9m103.2-.8c-3 3.8-1.7 7.8 2.6 7.8s5.4-2 3.1-5.8q-3.2-5-5.7-2m1.4 10.4c-.4.4-.7 1.8-.7 3.1q0 2.4 2.1 2.3c1.6 0 2-.5 1.7-2.7-.3-2.6-1.8-3.9-3.1-2.7m-71.6 4.3a11 11 0 0 1-5 3.6c-4.1.9-4.9 2.2-5.3 8.5l-.3 5.5-6.5.5c-5.8.4-6.5.7-6.8 2.7-.3 2.1 0 2.3 4.7 2.3 3.8 0 5.1.4 5.1 1.4 0 2.4-6.3 6.6-9.8 6.6-1.8 0-3.2.4-3.2 1 0 1.3 6 2.7 14.9 3.4 8 .7 10.1-.1 10.1-3.9q.2-5 6.2-4c3.3.6 9.8 5.6 9.8 7.5q.2.9 2.1 2.1c1.7.9 2.5.7 4.5-1.2 1.3-1.2 2.4-3.3 2.4-4.6s.8-3.5 1.7-5c1.7-2.5 1.6-2.6-1-4.9a23 23 0 0 0-6.8-3.6c-4.6-1.3-5.9-3.5-5.9-10.1q0-6.7-5.7-9.6c-2.9-1.5-2.9-1.5-5.2 1.8m69.4 8.3c0 3.2-.2 3.3-4.5 3.6-4.6.3-8 2.4-8 4.9q-.2 1.2-1.7 1.3a7 7 0 0 0-3.2.9c-1.1.7-1 1.4.8 4 2 2.7 2.8 3.1 7 3.1 4.6 0 4.8.1 4.4 2.4q-.6 2.4 1.6 3.5c1.9 1 2.1.9 2.1-1.2 0-1.3.9-3.2 2-4.2s2-2.6 2-3.5q.1-3 5.1-3c1.6 0 1.8-.5 1.3-2.8a34 34 0 0 0-7.9-11.9c-.6-.2-1 1.2-1 2.9"/><path d="M245.7 684.2c-3.1 1.7-4 4.7-2.2 7.4 2.2 3.4 6 3.2 7.3-.4l1.7-4.3c.8-2.1-4.3-4.2-6.8-2.7m46.5 9c-.7.7-1.2 2-1.2 2.9 0 1-.4 2.1-1 2.4-2 1.3-1 5.3 2.1 7.9 3.5 3 4.7 3.2 7.4 1.2 2.6-1.9 2.6-8.3 0-10.2l-4.1-3.4c-1.6-1.4-2.4-1.6-3.2-.8m-10.9 7.7c-2 3.3.7 11 3.9 11.1q.7-.1 2.2-1.5c1.3-1.3 1.3-2-.2-5.7-2.3-6-3.9-7.1-5.9-3.9M229 704l-2.1 2.9 2.4 5.3c1.8 3.8 2.2 5.8 1.5 7.1-1.6 3.2-.4 4.8 5.3 7.1 3.1 1.3 7.9 4.1 10.5 6.3 2.7 2.3 6.3 4.8 8.1 5.7 3.1 1.5 3.2 1.5 5.3-1.1a16 16 0 0 0 2.6-5c.4-1.2 1-2.3 1.6-2.3 1.2 0 5.8-4.6 5.8-5.8 0-.5-2.4-.9-5.2-.9-7.2.2-14.6-3.5-17.3-8.5a12 12 0 0 0-4.7-4.9c-2.3-.9-2.8-1.8-2.8-4.4 0-3.6-1.3-4.5-6-4.5q-2.9 0-5 3m-29.5 21c-1 1.1-2.6 2.2-3.5 2.5-1 .3-2 1.9-2.4 3.6-.4 2.3-1.5 3.4-4.7 4.7l-4.2 1.8 3.9 3.2c2.4 2 4.5 3 5.4 2.6.8-.4 3.7-1.1 6.3-1.7 4.3-.9 5-.8 7.1 1.2l2.4 2.2.7-2.8c.3-1.5 2.2-4.7 4.1-7l3.5-4.3h-4.2c-3.3 0-4.9-.6-7.1-2.7-1.5-1.5-2.8-3.3-2.8-4 0-1.9-2.4-1.6-4.5.7m17.5 14.9c0 1.1-.9 4.1-2 6.7-1.9 4.3-1.9 4.9-.5 7.1 2.5 3.7 5.2 2.5 6.9-3.1.5-1.5.9-1.6 2.2-.5 1.3 1 1.7 1 2.5-.2 2-3.1.4-9.4-2.7-10.8-3.8-1.7-6.4-1.4-6.4.8m284.2.4c-2.1 1-2.3 1.5-1.7 5.5 1.2 8.2 2.2 8.9 6.7 4.5 3.4-3.2 3.6-6.8.6-9.4-2.7-2.1-2.6-2.1-5.6-.6m46.3 10.3a47 47 0 0 1-8.2 4.4q-1.2.2-2.1 1.7c-.8 1.4.1 2.2 5.6 4.7q6.7 3.2 7 1.8c.5-1.6 2.2-1.5 2.2.2 0 .8 3.4 2.4 8.5 4.1l8.4 2.7 2.9-2.3c1.6-1.3 3.7-2.9 4.7-3.4q4.1-2.7-6.8-9.1c-3.4-2-7.1-4.4-8.2-5.3-4.9-4.2-6.5-4.1-14 .5m-52.5 7.1c0 .5 1.9 2.5 4.3 4.4 2.3 1.8 10.3 9.3 17.7 16.5 14.3 13.9 16.3 15.4 20.5 15.4 3.3 0 11.8 7 13.5 11 1 2.4 2 3 5.5 3.6 4.7.7 6.8-.1 10.4-4l2.4-2.6h-4.7c-5.4 0-6.7-1.6-4.5-5.7l1.4-2.6.9 3.2c.7 2.5 1.4 3.1 3.7 3.1 1.5 0 3.9.4 5.3 1q2.6.9 5.1 0c2.1-.8 2.5-1.6 2.5-4.9 0-2.2.5-4.3 1-4.6s1-1.7 1-3c0-2.9-7.1-7.5-11.6-7.5-2.3 0-3.8-1-6.7-4.5-4.2-5-5.5-5.3-13-3-5.1 1.5-4.9 1.6-9.5-3.9-1.4-1.8-4.8-2.1-5.7-.6-.3.5-2.2 1-4.1 1-2.9 0-3.8-.6-5.2-3.1-2.8-5-11.9-9-21.9-9.7-5.1-.3-8.3-.1-8.3.5"/></svg>