<svg xmlns="http://www.w3.org/2000/svg" width="1365.333" height="1365.333" viewBox="0 0 1024 1024"><path d="M889 180.7c-3 .8-6.6 2.3-8 3.2s-5.2 2.4-8.4 3.1c-5.8 1.4-6.1 1.3-10.7-1.3s-4.8-2.6-9.1-1a35 35 0 0 0-8.8 5.8c-4.7 4.4-10.2 7.1-11.9 6-.6-.3-3.2.3-5.7 1.4a23 23 0 0 1-6.5 2.1c-2.6 0-3.4 3.6-1.4 6.7 1.2 1.8 1.5 3.5 1 6.2-.4 2-.9 9.7-1.1 17.1l-.3 13.5 7.9 8 8 8 .6 7.7c.7 7.5-.6 13.8-2.7 13.8-2.3 0-10.1-6.6-12.1-10.3-1.9-3.4-3.4-4.6-8.4-6.7a38 38 0 0 1-10.2-6.6c-4.6-4.5-8.8-6.1-21.2-7.9-10-1.4-15.1.2-23.2 7.2l-6.1 5.2-11.6-.5c-9.4-.5-12.1-1-14.4-2.6q-5.7-3.9-9.7 2.7c-3 4.9-9 7.8-14.1 7-4.6-.8-10.1.8-14.6 4.3-2.7 2-3.3 3.1-3.3 6.3 0 2.1-.6 5.9-1.2 8.4-1.1 4.1-1.9 5-6.8 7.9-3 1.9-7.3 3.6-9.5 3.9s-4.8.8-5.7 1.2c-2.1.9-5.8-4.7-5.8-8.8 0-2.9-2.8-4.7-7.4-4.7a6 6 0 0 1-3.9-1.8c-1.5-1.7-3.5-1.8-21.9-1.7-19.1.2-20.6.3-24.6 2.5-4.2 2.2-4.7 2.2-13 1.1-5.3-.8-9.8-2-11.4-3.2-2.4-1.6-4.5-1.9-16.4-1.9s-14.1.3-16.9 2-3.4 1.8-5.1.5c-3.2-2.4-9.4-1.8-14.1 1.3a31 31 0 0 0-10.8 13.4c-.4 1.3-1.5 3.4-2.6 4.7-1.6 1.9-2.2 2.1-3.4 1.1a5 5 0 0 1-1.5-3.4 11 11 0 0 0-1.8-4.8c-1.6-2.5-2-2.6-3.8-1.4a24 24 0 0 1-5.7 2.5c-2.1.7-4.5 2.3-5.3 3.6-1.5 2.3-1.7 2.3-5.6.9-3.4-1.2-4.3-1.2-6.8.1-3 1.5-9 9.6-12.8 17a83 83 0 0 0-4.9 25.4c.1 2.5-.4 3.8-2.3 5.2-2.9 2.2-11.7 3.9-14.6 2.8-1-.4-4.6-.8-8-.8-7-.1-7.7.4-11.4 8.6q-3.4 7.3-8.5 7.3-1.4.2-1.5 2.3c0 3.4-3 5.7-7.6 5.7-2.1.1-5 .7-6.4 1.5s-3.8 1.4-5.4 1.5c-3.8 0-9.3 4.3-10.1 7.8-.3 1.6-.1 4 .4 5.4q1.5 4-2 12.9c-1.9 4.9-8.9 3.7-8.9-1.4 0-.9-1.4-4.9-3.2-8.7q-5.7-13-10.4-7.9c-3.3 3.6-4.9 4-10 2.2-8.7-2.9-11.9-5.7-11.9-10.3 0-2.2-.4-2.5-3.5-2.3-7.4.3-20.7 2.4-24.3 3.8-5.3 2.1-8.4 1.9-13.6-1.2l-4.5-2.6-8.8 1.8c-7.4 1.5-9.3 1.6-11.6.5-1.7-.7-6.6-1.2-12.8-1.1l-10.1.1-3.4-5.6c-6.9-11.4-7.3-11.8-12.4-13.6a138 138 0 0 0-10.8-3.3c-5.6-1.5-5.9-1.5-10.8.9-6.1 2.9-8.5 2.4-14.9-3.1a52 52 0 0 0-26-11c-9.4-1.4-9.7-1.4-20.8 1.3l-11.3 2.7-5.8-3.2c-5-2.6-6.9-3.1-13-3.1-6.7 0-7.1.1-7.1 2.2-.1 1.3-.7 3.4-1.5 4.8s-1.4 5.2-1.5 8.5c0 4.2-.8 7.6-2.5 11.3-1.4 3-2.5 6.2-2.5 7.2 0 3.1-4.7 3.8-12.2 1.9q-4.3-1.2-12.2-.3l-7.8.9-2.6 4.5a31 31 0 0 0-3.1 7.5c-.6 2.5-1.9 3.5-8.6 6.8a57 57 0 0 0-11.5 7.2c-4.1 4-9.6 6.5-14.2 6.5-7.3 0-7.8.5-7.8 8.1 0 5-.4 7.2-1.6 8.1a36 36 0 0 0-6.5 6.4c-.8 1.1-3.4 3.1-5.9 4.5-5.2 2.8-5.9 4.7-3.1 8.6 1.1 1.5 2.7 5.7 3.7 9.3s2.4 7.3 3.2 8.2c1.4 1.6 1.4 4.2 0 13.3-.2 1.6.3 2.1 3.3 2.3 3.1.3 4.2-.3 7.1-3.2 2.7-2.8 3.7-3.2 5.2-2.4 1 .5 3.4.8 5.4.5 3.1-.3 4.1 0 6.2 2.5 2.3 2.7 2.7 2.8 5.6 1.7 2.7-1.1 3.6-1 6.7 1 4.4 2.7 7.7 6.7 7.7 9.2 0 2 2.3 2.2 20 2.4 5.7.1 10.5 1.8 11.4 4.1.8 2.1-3.9 15-6.7 18.3a22 22 0 0 0-3.1 4.8c-.3 1-2.9 3.1-5.7 4.7a79 79 0 0 0-12.1 9.2c-5 4.6-7.7 6.4-9.7 6.4-2.1 0-3.4.9-5.2 3.7-2 3.1-3.1 3.9-6.4 4.3-3.9.5-4 .6-4.3 4.6q-.3 4 1.3 5.4c3 2.5 1.9 7.5-3 13a22 22 0 0 0-4.5 6.3c0 2 4 6.9 10.3 12.7l5.8 5.3 4.5-2.1c2.4-1.2 4.9-2.2 5.5-2.2s2.2-.9 3.6-2c2.1-1.7 4.1-2 11.3-2h8.7l.7 3.7c.3 2.1.6 7.1.6 11.1 0 7-.1 7.4-3.6 11a32 32 0 0 0-4.9 6.3c-.8 1.4-3.1 4.3-5.3 6.5a15 15 0 0 0-4.7 7.9c-.4 2.2-1.3 5.4-2.1 7.2-1.9 4.2-1.8 7.2.6 10.8 1.2 1.9 2 4.7 2 7.5 0 6.1 3.7 11.5 8.8 12.9a44 44 0 0 0 10 1.1h6.3l8.3 7.8c11.4 10.8 14.4 12.9 19.8 14.1 2.6.6 5.8 1.6 7.1 2.2 3.9 1.8 13.7 15.9 19.2 27.9l5 10.9 7.8 5c9.5 6.2 10 8.3 3.5 14.6a43 43 0 0 0-6.3 7.6A29 29 0 0 1 133 770c-4.6 0-11.4-2.2-17.3-5.5-4.5-2.6-5.4-2.7-12-2.1-6.7.6-9.4 1.4-7.2 2.2.6.2 2.5 1.4 4.4 2.7l5.4 3.4q4.1 2.3 3.1 6c-.5 1.8 0 2.5 2 3.3 3.3 1.2 3.3 3.6 0 4.4q-2.6.8-4.3-.9c-2.2-1.9-3-1.9-5.2.1-1.3 1.2-2.2 1.3-3.8.5a10 10 0 0 0-3.9-1.1 35 35 0 0 0-14.4 5.2c-1.8 1.8-4.6 1.7-11.5-.3-2.7-.9-3.4-.7-5.8 1.7-2.2 2.2-3.2 2.5-6.1 2-3.1-.6-3.4-.5-3.4 1.7 0 2.9 2.9 5.7 5.8 5.7 2.7 0 2.7.6.2 5.5-2.3 4.5-2.6 8.4-.7 10.7a66 66 0 0 0 27.2 14.2c4.1.5 6 .1 10.3-1.9 3-1.4 5.9-2.5 6.5-2.5s2.5-1.3 4.2-3l3-2.9 5.9 2.1c5.7 2.1 6 2.1 10.6.5 7.3-2.6 8-2.4 8 2.6 0 6 2.4 8.1 8 7.2 3.4-.6 4.4-.4 5.5 1.2q1.4 1.9 2.8.8l3.9-2.7c1.7-1.3 5.1-1.9 12.4-2.3 12.8-.6 15.9-1.6 21.1-6.6l4.2-4.2-1.9-2.7q-2-2.6-.9-4.1c.5-.7.9-3 .9-4.9 0-3.2.5-3.8 5-6.3l5.1-2.9 4.4 3.6c2.4 2 5.3 4.9 6.4 6.5 1.9 2.6 2.8 2.9 9.8 3.5 11 .9 11.1.9 15.5-1.3l4.1-2 4.9 5.5q5 5.4 7.3 5.4c2.2 0 9.5-3.6 9.5-4.7 0-.3-1-1.3-2.1-2.2-4.7-3.7 1.1-12.1 8.3-12.1 2.7 0 2.7 0 3 8.2.3 7.4.5 8.3 2.3 8.6q2 .2 4.3-3.3c2.4-3.8 4.3-4.2 11.8-2.5a30 30 0 0 0 23.4-2.7 99 99 0 0 1 13-5.3c5.8-1.5 6.3-2.1 10.2-9.1q3.3-6 5.2-5.9c1.1 0 3.5-1 5.3-2.3l3.3-2.2v-12.6c0-11.1.2-12.8 1.9-14.3 1.1-1 2.8-1.6 3.8-1.4 1 .1 3.2-.3 4.9-1 2.8-1.2 3.4-2.2 4.7-7.5.9-3.4 1.9-8.5 2.3-11.2q1.2-9 4.1-6.4c1 .9 2 .9 3.9 0 1.4-.6 2.9-1.1 3.4-1.1s1 4.4 1 10.3v10.3l4.6 4.5c2.5 2.4 5.6 6.1 7 8.2 3.1 4.7 9.9 9.7 13.4 9.7q2.6 0 5.8 3.3l3.2 3.3-1.5 4.5c-.9 2.4-1.9 7.4-2.2 11.1l-.6 6.8h2.7a10 10 0 0 0 5.3-2c2.5-2 2.5-2 5.4.1a16 16 0 0 1 4.4 5c1.2 2.2 2.3 2.9 4.4 2.9 1.6 0 3.1.6 3.4 1.4s2.7 2 5.3 2.8c4.3 1.2 5 1.8 7.8 7.3 1.7 3.3 3.6 7.1 4.1 8.5 1.4 3.6 5.8 3.7 17.4.5 13.5-3.8 14.5-4.9 15.1-17.3l.5-9.7 3 .2q3 .3 5.5 3.2c4.9 5.9 11.2 10.1 15.2 10.1 2 0 4.9.5 6.5 1.1s5 1.3 7.7 1.5c8.1.6 11.6 2.2 13.2 6 2 4.8 7 10.1 10.7 11.3 2.1.7 4.7 3 7 6.1q6.8 9 15.1 6.2c1.8-.7 4.9-1.2 6.9-1.2 3.4 0 4.1-.5 8.3-6.4 5.9-8.2 9.8-9.8 17.8-7.3a39 39 0 0 0 9.4 1.7c3.7 0 4.8-.6 10.4-6.1l8.6-8.2c1.2-1.1 2.2-2.8 2.2-3.7 0-1.8-4.2-5.3-7.7-6.4-1.1-.4-3.9-2-6.2-3.6a45 45 0 0 1-12.8-24.9 33 33 0 0 0-2.3-9.6c-3.4-7.4-3.5-8.9-.1-10.2a10 10 0 0 0 4.8-4.9c1.8-3.8 1.9-3.8 7.1-3.5 5 .2 5.2.1 5.2-2.3q0-2.6 1.4-2c1.8.7 5.6-4.2 5.6-7.3 0-2.8-4-10.1-7-12.8-1.4-1.2-2.8-1.6-5-1.2-4 .9-4-1.4 0-5.5q3-3 2.1-4.2c-.5-.6-1.5-3.7-2.2-6.9s-1.8-6.5-2.5-7.5c-1.8-2.5-5.7 0-8.6 5.7-2.2 4.3-2.3 5-1.1 10.6 2 9.5.4 10.8-5.9 5a20 20 0 0 1-4.9-7.5c-1.1-3.4-1.6-4-4.1-4-2.7 0-2.8-.2-2.8-4.4 0-5.1.8-6 4.4-4.6 2.3.8 2.9.4 6.8-3.9 2.4-2.7 5.8-5.6 7.6-6.5 2.7-1.4 3.2-2.2 3.2-5.4.1-5.6 3.2-8.5 11.9-11.1q7.5-2.3 9.4-4.8c1.9-2.4 2.3-2.4 12.5-2.1l10.5.3-.2-6.3c-.2-5.2.1-6.6 1.6-7.8 2.9-2.2 6-1.7 8.3 1.4 1.7 2.2 2.7 2.7 5 2.4a10 10 0 0 0 7.2-6.7c.3-1.8 1-2 6.1-1.7 5.7.4 5.7.4 7.2-3.1.8-1.9 2-3.7 2.7-4s5.3 2.3 10.1 5.5l8.8 5.9 2-2.5a6 6 0 0 1 4.8-2.6c1.6 0 4.2-.5 5.9-1.1 2.6-.9 3.3-2 5-7.2q1.9-6 1-7.9c-1.8-3.6-.9-9.4 1.8-11.9 1.4-1.3 3.5-4.2 4.6-6.3 2.1-4.2 2.1-3.8.1-25.2q-.5-6.1.8-8.5a27 27 0 0 0 2-6.4 65 65 0 0 1 2.9-10.1l2.3-6.2-2.2-2.7a25 25 0 0 0-13.6-9q-4-.6-7.6-4.6c-2.1-2.2-5-4.2-6.8-4.5q-3-.6-3.7-2.8c-.4-1.1-1.7-3.3-2.9-4.8-3.3-3.9-4.1-13.7-1.6-20.8 1.1-3 2.4-5.6 3-5.8s3.2-3.5 5.7-7.3c4.1-6 4.6-7.3 3.6-9.3-1.7-3.9.1-4.6 11.8-4.6 8 0 11.1-.4 12.8-1.6 2.8-1.9 4.9-.6 5.4 3.4.3 2.4.8 2.7 4.3 2.9 3.4.2 4.4-.2 6.5-2.9 2.3-3 3.8-10.5 4.2-21.4 0-1.8 2.4-3.1 14.2-7.9 12-4.9 15.3-5.9 22.6-6.4a27 27 0 0 0 13-3.2c2.5-1.4 6-2.9 7.9-3.3 2.1-.4 5.8-2.6 9-5.5a37 37 0 0 1 8.1-5.6c3.8-1.2 8.7-5.3 9.9-8.4.9-1.9.9-4 .2-7.2l-1.1-5.1c0-.3 2.4-.8 5.3-1.1 8.4-.7 12.7-2.3 16.6-6.1 2-2 4.3-3.6 5-3.6s3.2 2 5.6 4.5c4.6 4.7 5.4 4.9 20 4.6l7-.1c3-.1 4.4.4 5.4 2 1 1.5 2.4 2 6 2 6.8 0 7.4-.7 6.9-8.1-.3-5.4-1-7.3-4.4-12.4-3.6-5.3-4-6.5-3.6-10.6.3-3.3-.2-5.8-1.7-8.7s-2.1-6-2.1-10.6c0-5.8.3-6.7 2.8-9l7.2-6.5q4.4-4 7.1-4.1 5.7 0 5.9-2.5c0-1.9 2.7-2.6 5.7-1.4 1.6.6 4.2.8 5.9.4q3.1-.6 4.4 1c.7.8 2 1.5 3 1.5s2.5.9 3.5 2c2.3 2.5 8.3 4.6 9.7 3.2 2-2 14.4 7.5 18 13.9 2.2 4 3.6 4.7 5.5 2.8q.9-1.1 6.1 1.5 7.8 4 13.7 1.7c1.1-.5 3.3-.4 4.9.2 2.1.7 3.6.6 6.2-.6 6-2.9 3.5-5-5.4-4.6-4 .2-6.1-.4-10.8-3.1-11.4-6.4-13.4-7.9-13.4-10.3 0-2.3-1.4-11.7-2.6-17.4a11 11 0 0 0-8.6-8.2c-2.7-.6-3.4-1.3-4.3-4.4a35 35 0 0 0-14.5-17.2c-2.7-1.4-5.1-3.3-5.4-4.2s-2.6-3-5.1-4.5c-5.5-3.4-6.2-4.8-4.3-9.6 1.3-3.3 1.8-3.7 4.6-3.5s3.2 0 3.7-3c.4-1.7.5-5.5.3-8.2l-.3-5-4-.3c-2.2-.1-5.7-.7-7.8-1.4-3.3-1-3.8-1.5-3.5-3.7q.6-5.2-4.2-5.1c-2.6 0-3.1-.5-4.7-5.7a22 22 0 0 0-5.1-8.9c-3.3-3.2-3.3-3.3-1.8-6.3q2.8-5.2-2-7.2-2.5-.7-2.4-3.7c0-2.3.7-3.2 4.3-4.9s4.5-2.8 5.8-6.9c1.3-4.4 1.3-5.4-.1-10.2-1.1-3.9-2.1-5.4-3.7-5.8q-2.1-.7-2.3-2c0-.7-1.2-1.6-2.7-2s-4-2-5.4-3.7c-2.1-2.4-3.8-3.2-8-3.8a38 38 0 0 0-17.9.8"/></svg>