<svg xmlns="http://www.w3.org/2000/svg" width="1365.333" height="1365.333" viewBox="0 0 1024 1024"><path d="M473.7 264.2c-.9 1.3-4.9 5.8-9.1 10.2l-7.5 7.8-6.5-.7c-5.8-.6-6.9-.4-9.6 1.5q-3 2.2-3 4.5c0 1.3-.9 4.6-1.9 7.3-1.4 3.5-1.6 5.3-.9 6.6 1.1 1.9-.3 3.6-2.8 3.6-1.2 0-4.4 6.9-4.4 9.4 0 1.8-11.2 3.1-13.9 1.6-2.9-1.5-9.7-1.2-11.1.5-1.5 1.9-12 2.1-12 .3 0-.6.5-2.6 1.1-4.3 1-2.6.8-3.9-1-7.9a30 30 0 0 1-2.1-9.5c0-7.6-1.6-8.6-15.2-9.5-9.2-.7-10.1-.6-16.5 2.2-6.8 2.8-6.9 2.8-9.8 1-3.5-2.1-7.3-2.3-14.5-.7-4.5 1-5.3.9-6.4-.7-1-1.3-2.1-1.6-5.2-1.1-4.7.8-6.9 3.2-7.7 8.4-.5 3.2-1.3 4.2-4.1 5.6a13 13 0 0 0-6 6.4c-3.9 7.4-5.1 8.6-7.9 7.9q-5-1.2-6 7.8c-.6 5.6-3 8.2-12 13.1a166 166 0 0 1-27.3 8.5q-.3.1-.4 1.3c0 .8-1.3 2.5-2.9 4a10 10 0 0 0-3.6 7.1c-.4 2.4-.4 4.9-.1 5.4s-.5 3.4-1.9 6.4c-1.4 2.9-2.5 6.4-2.5 7.8s-.9 3.6-2 5c-1.4 1.8-2 4.1-2 8-.1 8.9-2.4 16.8-5.9 20.4-3.1 3.1-3.2 3.1-15.6 3.4l-12.4.4-2 3.1c-1 1.8-2.2 5.4-2.6 8.2s-1.6 6.8-2.7 9l-2.1 4.1-8.6.2c-9.6.2-7.9-.8-17.5 10.7-4.3 5.2-8.7 7.5-14 7.5-4.3 0-10.4 2.8-11.1 5.1-.7 2-7.9 3.3-13.5 2.4q-3.8-.5-4.8-2.9c-1.4-3.2-7.5-4-10-1.3q-4.7 5.4-11.2 3.8c-3.7-.8-6.9-3.3-7-5.3 0-.4-1.1-1.3-2.4-2-10-5.5-12.9-6.8-17.2-7.3-4.6-.7-5.3-.4-9.1 2.6a79 79 0 0 1-7.5 5.4q-3.3 2-6.5 8.7c-2 4.1-4 6.9-5.3 7.3-1.1.3-3 2.5-4.2 4.8a60 60 0 0 1-4.3 7.2c-1.3 1.6-2.6 4.1-3 5.5s-1.8 3.8-3 5.5c-1.2 1.6-2.7 5-3.4 7.5-2 7.4-3.2 9.8-5.7 11.5-2 1.3-2.4 2.4-2.4 6.6 0 2.7.5 7 1.1 9.5 1.1 4.4 1.1 4.6-1.9 7.7a19 19 0 0 0-3.6 5.4c-.4 1.2-1.6 2.5-2.7 2.8q-2 .7-1.4 2.5.7 2-1.7 2.2-2.2.4-5.1 5c-2.6 4.2-2.8 4.8-1.5 7.3 1.3 2.3 1.3 3.3 0 7.1-.8 2.4-1.8 4.4-2.3 4.4s-.9 2.5-.9 5.5c0 4.7.3 5.5 1.9 5.5 3 0 9.3 6.8 8.5 9.2-.8 2.6 1.5 10.8 3.1 10.8 2.7 0 4.8 3.8 4.1 7.8q-.6 4 1 7.1c.9 1.8 2.1 5.9 2.7 9.3 1.4 7.2 5.3 12.3 11.1 14.2 3.2 1.1 4.5 2.4 7 7 2.8 5.2 3 5.8 1.4 6.9-1.9 1.5-2.1 2.3-1.9 10.4l.1 6.3h3c1.7 0 4.6.9 6.6 1.9 3.1 1.7 4.9 1.9 12 1.4s8.4-.4 8.4.9c0 2.9 4.5 5.8 9.9 6.5 4.9.6 5.4.9 8.9 5.9 2 3 4.4 5.6 5.2 5.9 2.3.9 9.1 10.3 10.2 14.1 1 4 7.9 9.9 12.5 10.9 2.6.5 3.4 1.4 4.4 4.3q2.6 8.1 8.5 8.2c3.1 0 7.4 3 7.4 5.2 0 .4 3.4 3.6 7.5 7.2a31 31 0 0 0 11.3 7.1c2 .4 4.3 1.2 5.1 1.8q2 1.6 25.6 1.7c2.8 0 6.7-.7 8.7-1.6 3.7-1.7 3.8-1.6 5.7.7l1.9 2.4 2.4-2.3c3-2.7 6.3-2.8 15.3-.2a124 124 0 0 0 16.9 3c5.6.6 12.7 1.4 15.8 2 5 .8 7.4.5 18-2.1 6.8-1.7 12.7-3.4 13.1-3.8.5-.5 2.5 0 4.5 1q6.3 3.2 8.9.8c1.2-1.2 5.3-1.3 16.7-.3 4.9.4 9.2.2 11.5-.5 4.6-1.4 9.6-6 11.5-10.5 1.3-3 1.9-3.5 6.4-4.1 3.1-.4 5.8-.2 7 .4 3.5 1.8 7.2 1.4 7.2-.9 0-1-.9-2.4-1.9-3-1.1-.5-2.1-2-2.3-3.2q-.3-2.3-4.5-4.2c-4.4-2.2-5.7-4.2-6.8-11-.5-3-.1-4.8 1.7-8.2 2-3.9 2.1-4.6.9-8s-1.2-3.9.5-5.1c1-.7 2.7-1.3 3.8-1.3 3.7 0 5-1.7 5.1-6.2q.2-9.2 3.8-10.4c2-.7 14-1.4 22.7-1.4 2.6.1 4.1-.6 5.6-2.6l2.2-2.7 3.5 2.7c3.5 2.7 3.6 2.7 6.8 1.1 2-1.1 4.4-1.5 6.4-1.2 1.8.3 3.7.1 4.2-.4.8-.8 7 .6 17.7 4.1 2.5.8 3.2.6 4.4-1.1.7-1.1 4.1-3.3 7.5-4.8 5.2-2.4 7.2-2.8 12.2-2.5 3.3.2 7.3.7 8.8 1 2.1.5 3.4.1 5.2-1.6l2.4-2.3 1.9 2.3 1.8 2.2 2.7-3.2a10 10 0 0 0 2.7-7.3q.1-4.1 2-6.7c1.1-1.4 2-3.9 2-5.7 0-1.7.5-3.5 1-3.8s1-1.7 1-3c0-1.9.7-2.4 3.9-3 2.8-.5 5.4-2 9-5.5 4.5-4.4 5.5-4.9 8.4-4.4 5.1.9 5.4 1.1 6.1 4.1 1.5 5.7 6.4 8.3 9.1 4.7 1.1-1.5 1.5-1.5 5.6.3 2.4 1.1 5.3 3 6.4 4.2 1.9 2.2 1.9 2.4.2 5.3q-1.9 3.1-.7 4.2 1 1 2.1-.1c1.1-1.1 2.5-.9 4-.6 2.1.4 3 .1 3.5-1.1.6-1.5.9-1.4 3.9.4 1.8 1.1 3.9 2 4.8 2 1.8 0 3 4 1.6 5.7-.6.6-.8 1.7-.4 2.3q1.8 3.2 8.5-3.9c5.9-6.1 10.2-8.1 16.3-7.4 4.3.5 4.7.3 5.6-1.9.5-1.4 3.5-4.9 6.5-7.8 4.3-4 5.6-6 5.6-8.1 0-2.8.1-2.9 5.5-2.9 5.8 0 11.5-2.8 11.5-5.7 0-1.9 1.4-1.6 6.9 1.2l4.8 2.4 2-2.2c1.2-1.2 3.3-4.1 4.7-6.5s3.3-4.5 4.1-4.8 1.7-2 2-3.7a17 17 0 0 1 3.8-6.5c3-3.1 3.8-5.2 6.6-17.2 1.4-5.7 2.2-7 4.7-7.6 2.6-.7 4.9-3.8 3.9-5.4q-.4-.9.7-1.7c5.1-3.2 8.7-12 5.6-13.9-1.8-1.1 2.2-3.4 4.9-2.8q2.4.8 2.3-.9c0-2.5 1.9-3 4.6-1.2 2.3 1.5 2.7 1.5 5.2-.2 4.1-2.8 10-5.3 12.5-5.3 1.2 0 3.1-.6 4.2-1.4s6.3-1.6 12-2c5.5-.4 10.9-.9 12-1.2 1.5-.4 2.3.2 3.2 2.6q1 3 3.5 3.1c10.4.3 11.1.5 12.2 2.3 2.8 4.8 4.5 5.7 10.4 5.5 6.6-.2 15.2 1 17 2.4.6.5 1.2 1.8 1.2 2.8q.2 1.9 2.6 2.9c3.4 1.3 3.3 1.3 4.4-1.4q.9-2.4 5.7-4.2c2.6-.9 5.5-2.3 6.4-3.1.8-.7 2.3-1.3 3.2-1.3s1.9-.5 2.2-1.1q.7-1 2.3.4c2.5 2.2 9.2 3.8 11.2 2.7 1-.5 2-2.7 2.4-4.9.7-4.5 1.6-4.9 13.1-5.4 5.1-.2 6-.5 6.3-2.2q.9-4.7 3.9-2A61 61 0 0 0 838 551c.4 0 1.1 1.9 1.6 4.2q1.8 8 13.9 8.2c4 .1 4 .1 4.7 4.6 1.2 7.8 2 10.4 4 12.4 2.5 2.3 4.8 7.7 4.8 11q-.1 2.5 2.3 2.8 2.1.4 2.5 2.4c.2 1.2 1.2 3 2.3 4s1.9 2.3 1.9 3.1q.1 1.2 2.8 1.3c1.5.1 3.8.7 5.1 1.4q2.4 1.4 5.2.6c1.6-.5 3.8-.6 5-.3q3.8.9 3.9-4.5c0-2.5 2.2-2.9 4-.7q2.5 2.9 5.1-.1 1.2-1.6 4.6-1.1c1.8.3 3.3.2 3.3-.3 0-2 3.4-4 6.6-4 1.9 0 4.8-.7 6.5-1.5 2.8-1.5 3.2-1.4 5.8.4 2.6 1.9 2.9 1.9 4.5.3 1.4-1.4 1.8-1.5 2.5-.3 1.1 1.8 11.1.5 11.1-1.4q.2-1.4 1.7-2.3c1.6-.9 1.6-1.1 0-2.7-2.2-2.2-2.3-13.4-.1-23 .9-3.9 1.9-11.3 2.3-16.6q1.1-14.8 5.5-14.9 1.3-.1 2-1.5c.3-.9 2.1-2.5 4.1-3.6s3.5-2.9 3.5-4q.1-2 7.8-7.3c7.6-5.3 7.9-5.7 9.5-11.5 2-7.1 2.1-9.7.6-10.7-1.7-1-.3-6 2.7-8.9 2.3-2.3 2.6-3.2 2.1-7.3l-.7-5.7c-.1-.6-.2-2.9-.1-5.2.1-3.8.5-4.6 4.1-6.9l4-2.7V452c0-5.4.4-7 2-8.5 1.1-1 3.5-5.1 5.4-9.1 3.5-7.2 3.6-7.3 6.8-6.8 4.3.7 7.8-1.6 5.9-3.9-.9-1.2-1-2.1-.2-3.6.6-1.1 1.1-3.8 1.1-6s.5-5.2 1-6.7c2.2-5.6-1.7-8.9-6.9-5.8-2.8 1.6-3.2 1.6-7.3.1-2.7-1.1-5.6-1.5-7.5-1.1-2.8.5-3.3.2-6.6-4.9-4.1-6.1-6.8-7.4-13.6-6.2-2 .3-6.8.1-10.5-.5-5.4-1-6.5-1.5-5.6-2.6.7-.7 1-2.3.8-3.6-.3-2-1-2.4-6.6-2.9q-6.3-.5-8.5-2.7a38 38 0 0 0-10.1-4.5c-4.8-1.5-8.3-3.2-8.9-4.3s-1.2-4.8-1.3-8.4c-.2-5.6-.5-6.6-2.8-8.3-1.4-1-2.6-2.3-2.6-2.8s-1.7-3.6-3.7-6.9q-5.8-9.3-11.2-7.5c-1.5.4-2.5-.2-4.3-2.7q-2.2-3.4-4.5-3-2.1.4-3.9-2.7c-2-3.4-3.7-3.4-8.5 0-2.1 1.4-2.5 2.4-2.1 4.5.4 2.3.2 2.6-1.2 2.1l-2.2-.7q-.4-.2-.4-2.3c0-2.1-1.3-3.6-2.9-5.1a14 14 0 0 1-3.5-5.2c-.5-1.9-1.3-2.4-4-2.4-6 0-9.7-1.2-12.7-4.2-2.7-2.8-3.2-2.9-5.8-1.8-1.6.6-3.7 1-4.7.9-1.1-.2-4.5.5-7.7 1.5-3.1 1.1-6 1.6-6.3 1.3s-2.1.1-3.9.9q-7.2 3-11.8-.6a9 9 0 0 0-4.8-2c-1.2 0-3.2-.8-4.3-1.8-2.5-2.2-13-4.7-14.8-3.5a26 26 0 0 1-4.8 1.8c-3.1.9-3.5 1.5-3.8 4.8q-.2 3.8-2.7 5.3c-3.1 2-5.4 1.2-10.5-3.7-3.7-3.6-4.3-3.9-5.8-2.6-.9.8-3.8 1.8-6.4 2.1-4.4.7-4.8.9-4.8 3.5 0 2.7 4.1 8.1 6.1 8.1q.8.2.9 1.5.1 1.6-3.8 1.5c-2.8 0-4.6.8-7 2.9-1.7 1.7-3.2 3.5-3.2 4.2 0 .6-1.1 2.2-2.5 3.5s-2.5 3.1-2.5 4.1q.2 2-4.7 3.1c-4.4 1.2-4.7 1.2-7.4-1.4q-2.7-2.7-4.8-1.9-3.3 1-1.2-2.4.9-1.5-1.2-4.3c-2.1-2.8-2.1-2.8-4.1-.9-1.9 1.7-2.5 1.8-5.8.8q-3.8-1.2-3.8-3-.1-1.7-1.5-2.3a3 3 0 0 1-1.5-2.6q0-2.1-1.7-1.4c-1.8.7-3.3-.9-3.3-3.7 0-1-1.2-3.4-2.6-5.3-3.1-4-7.4-4.5-11.4-1.4-3.2 2.5-4.1 2.5-7.4-.1l-2.6-2v2.3c0 1.5-1.6 3.9-4 6.3-3.9 3.9-4 3.9-7.7 2.6-2.1-.7-4.9-2.4-6.3-3.6a23 23 0 0 0-10.8-5.6c-2.8-.6-3.5-.4-4.8 1.5-.8 1.3-2.6 2.8-4.1 3.5-2.3 1.1-2.9 1-4-.5-1-1.4-2.4-1.7-6.1-1.5-2.6.1-4.8.4-5 .5-.1.2.2 1.5.8 3q1 2.7-.1 7.2l-1.1 4.4-5.2-.1a43 43 0 0 1-7.6-.8c-4.1-1.3-9.5 2.5-13.6 9.5-.9 1.6-1.4 1.7-2.7.6s-1.8-.7-3.1 3.9c-.9 2.9-1.6 5.8-1.6 6.4s-.9 2.4-2 3.8-2.5 4.9-3.1 7.9c-2.8 13.9-3.5 15.2-5.8 12.5-.6-.8-2.8-1.9-5-2.5q-4-1.2-4.5-3.6c-.7-2.7-9.1-9.6-11.8-9.6q-4.7 0-6.7 4.8a10 10 0 0 1-3.7 4.1c-5.8 2.6-21.4 0-21.4-3.5 0-2.7 6-13.4 8.4-14.9 2.7-1.8 2.5-5-.5-6.6q-2-1-1-2.6a59 59 0 0 0-1.7-23c-1-2.4-2.4-4.3-3.1-4.3s-3.2 1.2-5.4 2.7q-3.7 2.6-4.5 1.6c-1-1.5-5.2-3.5-8.7-4.3-2.9-.6-3-.8-3.5-7l-.5-6.5-3.7.3c-4.4.4-8.8-2.1-8.8-5.2 0-1.1-.7-3-1.5-4a9 9 0 0 1-1.5-4.8q0-2.7-2.1-3.9c-1.9-1-2.1-1.7-1.5-6.8s.4-5.9-1.6-7.8a29 29 0 0 0-4.5-3.2 4 4 0 0 1-2.3-3.5c0-4-4.9-4.9-7.3-1.4"/></svg>