<svg xmlns="http://www.w3.org/2000/svg" width="1365.333" height="1365.333" viewBox="0 0 1024 1024"><path d="M476.6.9c-2.6.5-3.2 1.4-5.3 8.1a35 35 0 0 0-1.9 10.1c.5 2.6.5 2.6-34.1 12.9-38.8 11.7-33.4 11.1-51.8 5.5-9.9-3-14.4-5.7-15.8-9.5-.6-1.6-2-3.1-3.2-3.4-2-.5-25.9 5.4-44.4 10.9a57 57 0 0 1-11.7 2.5c-5.1 0-14.5 3.9-18.4 7.6-2 1.9-4.3 3.4-5.3 3.4s-3.5.7-5.8 1.7c-4 1.6-4.1 1.7-3.6 5.4.6 4.8-2.6 15.7-7.6 25.6-4.8 9.5-8.8 13.9-13.3 14.7-2.9.6-3.4 1-2.9 2.7.4 1.2.4 3.6.1 5.4-.5 2.7-1.4 3.6-4.7 4.9-4 1.6-4.1 1.8-3.4 5.2.3 2 .3 6 0 8.9-.7 5.2-.7 5.3-4.9 6.1-3.7.8-4.4 1.5-6.8 6.2-1.9 3.8-2.5 6.2-2.1 8.6.5 3.1.2 3.5-3.3 5.2-4.4 2.1-5.3 4.8-3.4 9.5 1.1 2.4 1 3.3-.2 4.7-4 4.5-8.6 14.9-9.1 20.4-.7 6.9-1.1 7.8-4.2 7.8q-2.4 0-3.1 2.2c-1.4 4.7-3.3 5.8-9.9 5.8-5.5 0-6.3.3-7.5 2.4-1 1.9-1 3.4 0 7.5.6 2.7.9 5.4.6 5.9s-2.2 1.3-4.1 1.6c-3.1.6-3.5 1.1-3.5 3.6q0 3-2 4.2c-2 1.2-1.8 1.9-1.4 3.3.4 1.7-.4 2.5-4.5 4.4-4.5 2.2-5.8 2.3-14.4 1.7l-9.5-.7-4.6 4c-5.3 4.6-5.3 4.6-9.2 2.6-3.4-1.8-5.8-1.9-8.5-.5-1.5.8-1.9 2.1-1.9 5.7 0 3.7-.6 5.3-2.7 7.5l-2.7 2.8 1.8 8.5a33 33 0 0 1 1.1 9.4c-.3.5-1.8 1.2-3.4 1.6-3.2.7-6.3 5.5-8.1 12.7-.9 3.4-2.3 5.7-4.9 7.9A62 62 0 0 1 89.2 307c-1.2 0-3.7 2-6.1 4.9-3.7 4.4-4.5 4.9-9.7 5.5-6.6.8-11-1.3-14.2-6.9q-3.2-5.6-11.6-7c-3.2-.6-4.1-.4-6.4 1.8a53 53 0 0 1-13.7 6.2 177 177 0 0 0-13.7 5.2c-3.9 1.9-4.4 5.3-1.8 11.8 1.9 4.6 2 6 1.1 8.6a28 28 0 0 0-.5 13.3c1 2.6 5.3 1.9 8.5-1.3 2.3-2.4 2.9-3.8 2.9-7.5 0-2.4.5-4.8 1.1-5.2.9-.5 1 1.1.5 5.9-.8 7.4.1 8.8 4.1 6.2q2.4-1.7 6.2-1.1l4.9.8c2 .2 1.4 1.8-1.1 2.7-1.7.7-2.4.5-3.1-1-1.1-2.3-2.5-2.4-3.2-.4-.9 2.2 9.2 11.1 15.3 13.4 5.9 2.3 7.5 2 11.8-1.9 2.2-2 4.9-3 10.5-4 9.2-1.5 10-1.8 10-3.6q.2-1.3 1.5-1.4 2.9-.1-.1 3.1c-1.4 1.6-1.4 1.8.5 2.9 3.1 1.6 13.9.2 17.6-2.3 1.7-1.1 4.5-3.4 6.3-5.1 2.9-2.7 3.2-2.8 3.2-.9q.2 2-6.9 6.6l-7 4.6-9.8-.9-11.4-1.2A60 60 0 0 0 58 374.4c0 1.8 3.7 6.4 6.2 7.7a84 84 0 0 0 32.2 1c8.3-1.3 14.3-.8 18.9 1.6 4.6 2.3 2.5 2.4-4.1.2l-6.2-2.1-12.4 2.1c-6.8 1.2-13.7 2.2-15.3 2.2a152 152 0 0 1-29.9-3.6c-2-.8-4.2-1.5-4.9-1.5a54 54 0 0 0-15.9 13.2c-1.6 6.1.6 22.9 4 30q1.6 3.5.9 5.5c-.7 1.7-.8 1.7-1.5-.2-.6-1.7-.8-1.5-1.5 1.5-.4 1.9-.8 6.2-.8 9.5 0 6.6 2.8 13.6 6.3 15.5q4.5 2.6 7.6 16.8c1.6 7.5 2.2 8.8 6.8 13.8 6.1 6.7 10.3 8.1 17.2 5.7 3.4-1.1 5.5-2.9 8.8-7.2 6.3-8.1 6.8-8.5 11-7.1 4.8 1.6 5.8 3 4.1 6l-3 5.8a25 25 0 0 1-8.8 8C62.8 508.7 61 510.2 61 513.1c0 1.5.4 3.9 1 5.3s.6 2.6.3 2.6c-.4 0-3.6-3-7.2-6.6-8.9-8.9-15-11.4-28.1-11.4-7.4 0-10.4-.4-13.3-1.9a12 12 0 0 0-3.7-1.5c0 .3.9 2.3 2.1 4.5 1.8 3.6 1.9 5.1 1.3 13.3-.5 7.3-.3 9.8.9 12.2A62 62 0 0 0 31 547q11.1 8 12.5 16.3c.4 2.1 2.1 5 4.3 7.1 6.4 6.4 9.4 19.4 7.2 31.1-.7 3.6-1 6.9-.6 7.2.3.3 3.2-1.2 6.3-3.4 3.2-2.2 8.6-5.4 11.9-7.1s7-4.3 8-5.7c1.1-1.4 3.7-3.2 5.9-4a33 33 0 0 1 16.8-.6q2.5 1 4.3-.4t2.7-1.5c1 0 .9 4.4-.3 7.4-.8 2.2 0 3.7 7.7 13.8 4.7 6.2 10.1 12.9 11.9 14.9 1.7 2 3.5 4.7 3.9 6q1.7 5.7 7.7 6.5 6.9 1.2.6 2.9c-2.7.8-3.4 1.7-4.2 4.9-1.2 5.2.9 17 3.9 22.2 1.3 2.3 2.2 4.4 1.8 4.7-.3.3-.2 2.7.1 5.2l.7 4.5 9.2 4.4c5.1 2.5 11 5.6 13.2 7.1l4 2.5-4-.6c-2.2-.3-5.2-1.4-6.6-2.4a65 65 0 0 0-8.9-4.5c-7.5-3.2-11-2.8-16.5 1.5-2.1 1.7-6 3.8-8.6 4.7-4.1 1.5-4.8 2.1-4.3 3.8 1 3 9.2 11.8 12.8 13.7 3 1.6 7.9 6.5 15.8 16 3.1 3.8 4.9 4.9 12.3 7.4 9.6 3.2 8.9 3.4 12.7-3.5 2.1-3.8 7.5-5.4 13.3-4.1 2.2.5 5.4 1 7 1 3.6 0 6 1.4 5.1 2.9q-.7 1.2-3.6-.4c-4.3-2.2-14.2-2-16.4.4-2 2.2-3.9 12.7-2.7 15a24 24 0 0 0 8.8 7.5c1.7.9 4.1 3.3 5.3 5.4 1.7 3.1 3.2 4.2 7.4 5.6q5.3 1.9 9.2 1.2c2.3-.4 5.3-.2 6.9.4 7.5 2.9 20.4 6.2 24.6 6.3s5.1-.4 13.4-7.4l13.3-10.8q6-4.4 10.7-10.8 1-1.5 3.8-.8c3.2.8 3.6 2.5.7 2.5q-2.1-.1-3.9 4.4-2 4.1-4 4.9c-2.1.5-4.5 4.9-5.6 10a7 7 0 0 1-3.7 4.5c-5.4 3-8.8 6.3-8.8 8.7 0 2.5 4 6.9 8.3 9.2 3.1 1.6 2.7 1.7 9.8-3.8l7.4-5 4-2.3-1.6 2.4c-.9 1.4-3.6 4-6 5.9-2.4 1.8-4.5 4-4.7 4.8s1.2 3.2 3.2 5.3c2 2.2 3.6 4.5 3.6 5.1s.9 4.2 2.1 8c2.5 8.3 4.8 9.9 13.6 9.9 3.1 0 7.7.7 10.1 1.7 3.4 1.3 5.2 1.4 8.7.6s4.2-.7 3.8.4c-.9 2.2-5.9 4.3-10.4 4.3-4.7 0-15.6 1.8-17.9 3-.8.4-3.1 3.7-5.1 7.4s-4.8 7.9-6.3 9.4c-3.2 3.4-3.2 5.5-.3 10.7 2.2 3.9 2.4 4 8.1 4.3 3.3.2 7.2-.2 8.8-.9 2.4-1 3.2-.9 4.9.7 1.9 1.7 1.9 1.9.3 2.4-1.9.7.7 2.4 14.5 9.6 9.5 4.9 7.5 5.7-2.7 1a62 62 0 0 0-27.6-5.6c-5.8 0-7.6.4-11.2 2.7a17 17 0 0 0-4.4 3.5c0 .9 3.1 1.8 25 6.9 18.5 4.4 48.7 15 86 30.2 10.7 4.3 20.7 8 22.1 8a9 9 0 0 1 4.7 2c1 1 7.7 4 14.8 6.8l17.7 7c2.6 1 5.5 1.9 6.5 1.9s4.1 1.1 6.8 2.5 9.2 4.4 14.4 6.6c5.2 2.3 12.7 6.2 16.5 8.8s17.6 9.9 30.5 16.1a202 202 0 0 1 26.2 14.2c1.5 1.5 3.4 2.8 4.4 2.8.9 0 3.2 1.3 5.1 3s4 3 4.7 3 2.1 1.9 3 4.2c1 2.7 3.3 5.7 6.2 8l4.6 3.8 4.2-3c2.2-1.6 5.7-3.3 7.6-3.6l3.5-.7-2.4 2.6a48 48 0 0 0-4.6 6.4l-2.3 3.7 5.2 2.2 13.5 5.8c11.3 4.9 15.9 5.5 20.6 2.6 3.2-2 4.1-2.1 8-1.1 6.1 1.5 6.4 1.5 7.6-1.5.7-2.1.6-3.1-.8-4.6-1.6-1.8-1.5-1.9.5-3.4 1.2-.8 2.2-1.9 2.2-2.3a75 75 0 0 1 11.4-13.1c3-3 3.5-4.4 3.7-8.5.1-2.8-.1-6.5-.6-8.3l-.8-3.4 5.3.3c4.8.3 5.4.1 6.2-2.2 1.3-3.2.1-14.4-1.8-18.1l-1.6-3 4.2.7 4.2.7-1.7-3c-1.7-2.7-1.7-3.1-.1-5.3.9-1.3 1.6-3.9 1.7-5.9.1-4.2 2.1-10.2 3.7-10.8.6-.2 1.4 1.3 1.8 3.2.3 2 .9 3.6 1.3 3.6s1.9-2.5 3.4-5.5c2.4-5 3-5.5 6.7-6.1q4.2-.7 5.7-3c.9-1.4 3.2-2.8 5.7-3.4 9.6-2.5 14.7-5.2 18.2-9.8 1.9-2.5 3.4-4.9 3.4-5.4s2-3.3 4.5-6.1c2.5-2.9 4.5-6.2 4.5-7.4 0-2.1 3.6-5.7 6.8-6.8 1-.2 2.8-2.4 4.1-4.8 1.7-3.1 3.9-5.2 7.5-7.2 2.8-1.5 7.8-5.4 11.1-8.6s8.1-6.7 10.7-7.9c2.6-1.1 5-2.9 5.3-4.1.4-1.1 5.4-5.5 11.2-9.9 8.7-6.5 11-7.8 13.2-7.4s3.7-.2 7.2-3c2.4-2 8.5-6.3 13.4-9.7 10.9-7.4 13-9.3 15.8-14.1 1.5-2.8 2.5-3.7 3.9-3.2 1 .3 3.1-.3 4.8-1.3 2.2-1.3 3-2.5 3-4.6 0-6 2.4-11 7.7-16.3 2.9-2.9 6.3-5.4 7.5-5.6 1.7-.2 3.4-2.6 6.8-9 4.5-8.5 8-12.2 14-14.8 1.4-.6 3.4-2 4.6-3.1s4.9-2.5 8.2-3.1c10.2-1.9 9.6.9 10.2-49.8l.5-43.4 6.3-1.9c4.6-1.4 6.2-2.3 6.2-3.7 0-1 1.7-4 3.8-6.7 2.1-2.6 5.7-8.3 8-12.5 4.3-7.6 4.3-7.7 10.8-9.8 5.9-2 7.7-2.1 18.8-1.5 11.9.7 12.5.6 15.5-1.6s3.2-2.2 6.8-.5c2.9 1.4 3.8 1.5 4.2.5.7-2.1 8.2-9.8 13.1-13.4 6.1-4.4 6.9-7.3 3.7-12.8a27 27 0 0 1-3-11c-.6-6.1-.4-7.4 1.8-11.5 1.4-2.6 2.5-5.7 2.5-6.8 0-1.2.9-4.1 2-6.5s2-5.9 2-7.7 1.2-5.1 2.7-7.5c2.4-3.8 2.7-5.3 3.1-16.9l.5-12.6 3.8-1.8c2.2-.9 3.9-2 3.9-2.4 0-1.3-13-6.2-19.5-7.5-5.3-1-6.5-.9-10.3.7-2.4 1-5.9 1.8-7.8 1.8-6 0-10 3.7-15 13.9-4.9 10-5.1 10.3-17.6 20.3a95 95 0 0 0-13.1 12.8c-6.1 8.2-15.2 15.6-20.4 16.4-4.1.7-4.2.7-6.8-3.8l-2.7-4.6h-8.3c-7.9 0-8.4-.1-10.4-2.7l-2-2.8-3.9 8.5c-5.5 11.7-11.2 17.6-11.2 11.5a14 14 0 0 0-1.1-4.8c-.9-2-.6-3.2 2-7.4 1.9-3 3.1-6.4 3.1-8.4 0-4.9 2.1-7.3 9.4-10.7l6.4-3v-5.1c0-6 2.8-18.2 5.3-23.3 1.1-2.1 1.9-5.3 1.9-7.1q0-3.4 3.1-7.3a74 74 0 0 0 11.9-19.3q-.1-2.2 2.3-2.1c1.2 0 3.9-1.1 5.9-2.5q3.7-2.5 8-2.5c3.8 0 5.1-.7 10.8-5.6 7.3-6.2 7.8-7.1 7.9-13.4.1-6.5-1.3-10.7-4.7-13.5s-5.6-9.8-4.1-12.6c1.3-2.6 1.2-2.9-1.7-2.9-2.2 0-3.1-1.1-7-9.4-3.7-7.9-4.8-9.4-7.2-9.9-2.7-.6-2.8-.7-4.5-13.3-1-7.5-2.8-15.6-4.4-19.8a53 53 0 0 1-3.1-20.8c-.3-13.1-.2-13.9 2.3-18.8l2.6-5-9.3-6c-7.7-5-10-6-13.6-6-2.3 0-5.3-.7-6.5-1.5-1.8-1.2-3.8-1.3-11.2-.5-12.3 1.3-13.3 1.3-13.9-.8-.3-.9.8-6.7 2.4-12.7 3.6-13.1 3.7-15.5 1-16.2q-1.8-.6-2-1.8c0-2.3 3-3.8 7.8-4 3.6-.1 5.8-.9 9.5-3.5 5.6-4 5.9-5.9 2-13l-2.8-5 2.3-3.9c3.3-5.9 2.9-9.3-1.5-14.2a45 45 0 0 0-7.6-6.6c-2-1.3-5.3-4.6-7.3-7.3s-4.2-5-5-5-2-1.4-2.9-3c-1.8-3.6-2.2-3.6-5.1-.9-2.1 2-2.4 2-5.3.4a23 23 0 0 0-7.4-1.7h-4.2l.3-5.3.4-5.2-6.4-4.6c-10.1-7.5-12.4-9.7-9.8-9.7.6 0 2.1-.7 3.4-1.5 2.2-1.4 2.3-1.9 1.2-4.6s-.8-3.7 1.7-8.1c1.6-2.8 2.7-5.1 2.5-5.3L816 158l-6.9-3.6c-.2-.2.2-1.7.9-3.3 1.1-2.8.9-3.3-2.4-7.7-2-2.6-3.6-5.3-3.6-6s-1.7-2.5-3.8-3.8c-3.5-2.2-4-3.1-5.1-8.8l-1.7-7.6q-.3-1.2-6.8-1.2c-5.7 0-6.5-.3-8-2.5-.9-1.3-1.6-4.4-1.6-6.8 0-4.3-4.3-18.6-7.3-24.2-.9-1.7-4.5-5.6-8.1-8.8s-6.6-6.4-6.6-7.1c0-1.9-11.7-12.8-17.1-15.9-2.5-1.5-6.8-3-9.5-3.3q-7.9-1.1-11.7-4.8-1.4-1.6-2.2-10.8c-1.1-14-6.3-22.8-13.6-22.8-3.5 0-3.7-.2-4.3-3.8l-.6-3.9-39.7-.6a5938 5938 0 0 0-179.7.2"/><path d="M261.2 762.3c-2.3 2.4-2.9 5.7-1.2 5.7 2.4 0 6-3.4 6-5.6 0-3-2-3.1-4.8-.1M92 781.5c-1.9 1.9-4.2 3.5-5.2 3.5-4 0-.2 4.4 4.5 5.2 3.1.6 3.3.1 1.2-2.6s-1.9-3.3.8-4.2c2.9-.8 5.8-3.4 5.1-4.5q-1.4-2.6-6.4 2.6m162-1.1c0 .3 1 2.6 2.2 5.1 2.3 4.6 3.5 5.3 6.8 3.5 2.3-1.2 1.6-4-1-4-1 0-3.2-1.2-4.9-2.6s-3.1-2.3-3.1-2m-45.5 4.8c-1.6.6-3.9 1.8-5 2.8q-4.6 3.8-7.3 1.8a56 56 0 0 0-23.7-.8c-1.4 1.1-1.4 1.5.1 3.1 2.3 2.5 1 3.7-1.5 1.5q-2-1.9-2.7-.5-.6 1.3-2-.6c-1.1-1.4-2-1.6-5.1-.9a49 49 0 0 1-9.9.5c-4.5-.2-6.3.1-7.3 1.3-.8.9-2 1.6-2.7 1.6s-3 1-4.9 2.2c-3.8 2.5-4.7 5.8-1.6 5.8 1 0 2.2.7 2.5 1.6q1.4 3.1-.5 1.9c-.6-.4-3.9-.9-7.4-1.1-4.6-.2-6.7.1-7.5 1.1-1.6 1.9-.3 4 1.5 2.5 1.6-1.4 9.3.7 14.5 3.9 2.2 1.3 5.2 2.1 8.1 2.1s5.1.6 5.9 1.5c.9 1.1 3.5 1.5 10.6 1.5 8.9 0 9.5.1 12.7 3 2.6 2.3 4.4 3 7.5 3 2.3 0 4.5.6 5.2 1.5.9 1.1 2.3 1.3 5.1.9a13 13 0 0 1 12.1 3.5q6 5 13.8 5.1 3.6 0 7 2.5c1.9 1.4 4.1 2.5 5.1 2.5s2.2.7 2.9 1.5 2.3 1.5 3.7 1.5q2.4 0 7.9 5.7c5.9 6.2 5.9 6.1 4.2 16.7-.5 2.9 2.2 4 6.9 2.7 4.9-1.3 5.3-2.3 5.3-14.8v-9.2l5-6.2c4.4-5.5 5-6.8 5-10.9 0-3.7-.5-5.1-2.5-7-2.8-2.6-3.5-6.6-1-5.6 1.8.7 3.5-2.3 3.5-6.2 0-2.8-1.4-4.6-5.5-6.8l-6.8-3.7c-5.5-3.1-7.4-3.3-12.2-1.2q-6.5 2.6-3 6.5c2.1 2.3 1.5 3.5-1.3 2.6-3.9-1.3-4.3-8.7-.6-10.6q9.3-5.2-4.4-9.4c-5.3-1.5-14.7-1.2-15.8.5-.9 1.5-5.4 1-6-.6q-1.2-2.5-7.9-.3m60.5 8.3c0 1.4 6.7 5.5 9 5.5s.8-2.6-2.6-4.8q-6.3-3.9-6.4-.7M111 802q.1.9 1 1.5t1 1.6c0 1.5-1.9 1-3.9-1q-2.9-2.7-3.1 0c0 1.2 6.6 4.9 8.8 4.9q2 0 2.6-2.6.6-2.4.4-2.9c-1.3-1-6.8-2.2-6.8-1.5m162 18c0 1 .9 2.4 2 3q3.5 1.8 1-3.1c-1.4-2.5-3-2.4-3 .1m6.7-.1c-.7 2.9 2.7 5.8 4.8 4.1.8-.7 1.5-2.3 1.5-3.6 0-2-.5-2.4-2.9-2.4q-2.9 0-3.4 1.9"/></svg>