<svg xmlns="http://www.w3.org/2000/svg" width="1365.333" height="1365.333" viewBox="0 0 1024 1024"><path d="M471.4 96.4c-.3.8-1.7 2.2-3 3.1-2.4 1.5-2.8 1.5-7.1-1-3.8-2.3-4.9-2.5-6.9-1.6-2.9 1.3-3 2.8-.4 6.1 2.4 3.1 2.4 3.9.4 6.1-1.3 1.5-2.7 1.7-7.8 1.2s-7.1-.1-11.1 1.6c-4.3 1.8-5.9 2-11.3 1.3-5.2-.7-7.8-.5-14.8 1.3-9.1 2.4-11.4 2-15.2-2.4-1.4-1.6-2.6-1.8-7.3-1.4l-5.6.5.5 4.4c.4 4 .3 4.3-2.3 5-1.5.4-5.4.4-8.6.1-5.7-.5-6.1-.4-9.5 2.8-5 4.7-7.4 5-16.8 2.2-4.5-1.4-13.2-3.2-19.4-4-10.3-1.3-11.9-1.3-16.3.1-3.9 1.3-5.6 1.4-7.9.5s-3.9-.8-7.2.5l-4.1 1.6-3.4-3.9a23 23 0 0 1-4.1-6.9c-1.2-4.5-5.4-4.7-11-.6-3.6 2.6-5 3-10.6 3q-9.6 0-9.6 4.3c0 .7-1.4 3.2-3 5.7-1.7 2.6-3 5.8-3 7.6s-.8 3.8-1.9 4.8-2.3 3.6-2.6 5.8q-.7 4-3 5a7 7 0 0 0-3.8 7.9q.3 2.4-3.1 8c-3 4.7-4 5.6-6 5.2-1.7-.4-3.3.5-6 3.2-3.5 3.5-3.7 4-3.5 9.3a26 26 0 0 1-7.2 20.2l-3.9 3.5-2.5 16.5c-3.8 24.7-5.4 28.8-15.2 39.4a30 30 0 0 0-7.6 11.3q-1 4.2-10.3 15.7a71 71 0 0 0-9.8 14.3q-.7 2.9-4.7 5.3c-3 1.8-7.2 6.8-15.2 18a495 495 0 0 1-22.1 28.5c-6.1 7.1-12.7 15-14.6 17.5s-8.9 10.2-15.6 17.1c-9.4 9.9-12.5 13.8-13.9 17.7l-1.8 5-27.1 10.6c-14.9 5.8-28.4 10.6-30 10.6s-5.3.8-8.3 1.7c-6.5 2-6.9 4.2-1.5 7.8a26 26 0 0 1 6.7 7.5c1.6 2.7 3.2 5 3.6 5s1.7-2.8 3-6.3l2.5-6.2 5.2-.3c4.5-.3 6.1.2 10.3 2.7 2.7 1.7 6.1 3.1 7.4 3.1 3.4 0 9.5 4 12.9 8.5 1.6 2.1 4 6.9 5.3 10.9 1.4 3.9 3.5 8.2 4.8 9.6a15 15 0 0 1 2.9 8c.3 3 1.1 5.7 1.7 5.9a55 55 0 0 1 16.6 16.4c4 6.2 5.2 8.9 5.6 13 .8 8.1 2.8 14.1 5.4 16.1 2.4 1.7 2.4 1.7 1.8-1.1l-.6-2.8 1.7 3c1.3 2.1 1.7 4.7 1.5 9.2l-.2 6.1 3.5 1.3c2 .7 3.6 1.8 3.6 2.5s.7 1.8 1.6 2.5c1.5 1.2 1.6 4.3 1.2 27.6-.3 19.8-.1 26 .8 25.3.7-.6 1.3-5.7 1.6-12.7.5-11.6.6-11.8 3.6-14.3a30 30 0 0 0 7.5-14c.5-2 1.6-2.8 4.9-3.7 4.1-1.1 4.1-1.1 2 .5-1.2.9-3.2 3.8-4.5 6.4-2.2 4.3-2.2 4.8-.7 4.8.9 0 2.5.9 3.5 2q4.4 4.8 11-2.1a73 73 0 0 1 8.5-7.3c5.9-4 13.4-12.2 12-13.1-.5-.3-1-1.8-1-3.2v-2.6l2.1 2.7c2.6 3.3 7.9 3.7 7.9.6 0-2.6 4.3-3.7 7.3-1.8 1.9 1.3 3.3 1.3 9.7.2s7.8-1.1 9.8.2c3.8 2.5 2.1 5.5-1.9 3.3-1.7-.8-3.6-.8-8 .1-5 1.1-6.4 1-9.7-.3-4.2-1.7-5.2-1.4-5.2 1.4 0 1.7-2.7 2.9-6.6 2.9-1.1 0-3.6 1.6-5.5 3.6s-5.3 4.9-7.6 6.5c-3.1 2.2-4.3 3.7-4.3 5.4 0 2.9.5 3 4 1 2.9-1.7 7-2 7-.5q.2.9 2 1 2 0 2-1.9c0-1 1.1-2.6 2.4-3.5 2.2-1.4 2.9-1.4 6.3-.1 3.8 1.3 3.8 1.4.8 1.4-6.3.2-7.5 1-7.5 5.1 0 2.1-.6 4.3-1.4 4.9s-1.6 2.4-1.9 3.9-1.6 5.5-2.8 9a19 19 0 0 0-1.6 6.8c1 1 4.4-1.9 5.4-4.7 1.7-4.3 3.3-3.5 3.3 1.6 0 4-.3 4.5-2.2 4.5-3.1 0-4.1.9-5.3 4.5-1 2.8-1.3 2.9-5.8 2.6-5.8-.3-6.2 1.4-.7 3 4.7 1.4 5 3.1 1.5 8.3-2.3 3.3-2.3 3.6-.5 3.6 3.3 0 3.2 3.5-.2 11.4-2.9 6.9-3.6 7.7-6.8 8.6-1.9.5-4.3 1-5.2 1q-1.8 0-1.8 2.3c0 2.7 1.7 4.7 3.5 4.1.7-.3 1.8.8 2.4 2.5 1.2 2.8 1.6 2.9 8.9 3.5 13 1 172.2 6 172.7 5.4.3-.3 2.5-5.8 4.8-12.2l4.2-11.8 10.5-4.3 10.4-4.3 6.9 3.5 6.9 3.4 12.7-5c14.2-5.8 18.1-6.2 26.6-3 3.1 1.2 6.6 1.8 7.8 1.5q2.3-.5 13 4.1c12.8 5.5 15.8 8.8 16.7 18.2.5 5.3.7 5.6 6.5 10.2l6 4.7 7.9-4.4 7.9-4.4 11.2 3.5 11.3 3.5 2.2 7.3 2.6 8.7c.2.8 3.7 3.7 7.6 6.5 6.1 4.2 8.4 5.2 14.3 6.1 6.4 1 7.5.9 13.5-1.3 3.6-1.3 9-3.8 12-5.5a47 47 0 0 1 21.9-6.8c3.1-.1 8.5-.7 12.1-1.5 5-1 7.6-1.1 11.3-.2 5.4 1.2 5.9 1.8 17 17.8l6.6 9.6-8.7 8.5c-8.4 8.2-8.9 8.5-14.4 9.2-3.1.3-9.4 1.5-14 2.6s-10 2-12.1 2c-3.1 0-4.9.9-9 4.4a23 23 0 0 1-12.4 5.9l-7.3 1.4-3.7-2.8c-3.6-2.7-4.4-2.8-13.9-2.9h-10l-5.6-5a39 39 0 0 0-11.4-7.1 59 59 0 0 1-10.1-5c-4.6-3.2-6.3-3.4-12.7-1.8-4.1 1-4.5.9-12.1-3.7-4.7-2.8-8.5-6-9.6-7.9-2.4-4.1-11.8-8.5-18-8.5-8-.1-11.4-1.6-23.1-10.3-9.6-7.3-11.8-9.5-13.8-13.7-2.1-4.5-2.7-5-5.5-5-2.3 0-5.3 1.5-10.1 5l-6.8 5-3.1 11.2-3 11.3-7.5 3.7a26 26 0 0 1-15.7 3.7c-7.6.1-8.9-.2-15.8-3.6l-7.5-3.7-7.9 3.9-8 3.9-9.3-2.1c-7.7-1.8-9.7-1.9-11.8-.9q-2.6 1.2-9.2.8c-3.8-.2-6.8-.3-6.9-.1a926 926 0 0 1-3.3 29.6c-.5.6-109.3-1.9-144.6-3.3-12.8-.5-15.3-.4-14.2.7 1.8 2 1.5 2.7-1.9 4.5-2.6 1.3-3 2-2.6 4.2q.4 2.6-1.7 6.1a56 56 0 0 0-3.3 6.3c-2.1 4.7-9.3 32.5-9.3 35.6 0 1.6-.6 3.2-1.4 3.5s-1.6 2.3-2 4.4l-1.2 6.8-.5 3 1.5-2.5 1.5-2.5.1 3.6c0 2.2-.7 4.2-1.7 5a21 21 0 0 0-4.3 8.4c0 1.2 2.8.3 6.2-2 2-1.4 4.8-2.5 6.2-2.5q2.5-.1 2.6-1.4c0-1.8 8.6-6.7 10.4-6 .8.3 3.2-.4 5.5-1.5 6.4-3.3 7.1-2.9 7.1 3.4 0 5.3-.1 5.5-4.4 8.4a19 19 0 0 0-5 4.6c-.8 2.2-2.6.9-2.6-1.9 0-2.2-.2-2.3-8.2-1.8-8.3.4-8.3.4-12 4.5l-3.8 4.2.6 7.5c.5 6.2.3 7.8-.9 8.9-.9.7-1.3 1.9-1 2.7.6 1.5 5.8 2 6.7.6.3-.5 4.6-3.3 9.5-6.3 7.6-4.5 9.1-5.8 9.1-8 0-3.7 1.8-4.9 7.5-4.9 4.3 0 5.5.4 7.9 2.9 3.2 3.3 7.1 4.4 8.7 2.5q2.7-3.1 2.9 1c0 1.4 1.1 3.3 2.5 4.4s2.5 2.7 2.5 3.5c0 1.8 4.6 5.4 7.5 5.8 2.6.4 6.5-1.8 6.5-3.6 0-1.1 1.3-1.5 5-1.5 5.7 0 6.4 1.3 2.7 4.8q-2.2 2.2-8.4 2.8c-5.2.6-6.8.3-12.1-2.1-4.7-2.1-7.2-2.6-10.2-2.2l-4 .5-3-6.4c-1.7-3.5-3.7-6.4-4.3-6.4-.7 0-3.7 2.4-6.6 5.4s-7 6.2-9.1 7.1c-4.3 1.9-5 4.1-5 15.9 0 5.5-.3 6.7-1.2 5.8-.7-.7-1.5-3.3-1.8-5.9-.5-4.4-.7-4.8-3.8-5.4-1.8-.4-4.2-1.5-5.3-2.5-1.9-1.7-2-1.7-4.1.4-2.9 2.9-3.7 9.9-2.1 18.9 1.8 9.5 5.4 15.3 9.7 15.3l13.6.5 23.8.6 13.2.1 17.4-9.4 17.3-9.4 5.2 1.7c4.7 1.6 6.1 1.7 16.8.4l11.7-1.3 5.9 2.9c5.3 2.7 6.4 2.9 12.5 2.4 5-.5 10.6 0 22.2 2 8.5 1.4 16.6 2.6 18 2.7 1.4 0 21.9-10.1 45.6-22.5l43.1-22.4 103.4 6.2L615 855l52.5 3.1 5.5 2.8c5 2.6 5.8 2.7 8.5 1.5 4.6-2 11.2-1.7 14.6.7 2.1 1.5 3.7 1.9 5.9 1.4 1.8-.4 5 0 8 1 4.2 1.4 5.5 1.4 8.4.4 3.1-1.1 3.8-1.1 5.6.6q4.5 4.2-1.5 11.2c-3.2 3.8-3.5 4.6-3.5 10.6v6.4l3.8.7c2 .3 5 .6 6.6.6 1.8 0 4 1 5.6 2.5 2.4 2.3 3 2.4 5.8 1.4l3.2-1.1v-7.9c0-7.6.1-7.9 2.8-9.3 2.9-1.5 2.9-1.4 9.3 5 3.5 3.6 8 7.4 9.9 8.4s4.6 3 5.9 4.4c2.3 2.4 3.1 2.6 11 2.6h8.6l6.8 6c3.8 3.3 7.2 6 7.6 6s3.1-.7 6.1-1.6c5.5-1.6 5.8-1.6 18.3 1.7 3.5.9 4.1 1.7 6.8 7.7l3.3 7c.2.2 8-2 17.2-4.9 15.6-4.8 17.2-5.4 20.9-9.3 3.8-4 4.5-4.3 17.2-7l13.1-2.9 7.4 4c6.9 3.8 7.6 4 14.2 3.5a33 33 0 0 1 10.6.8c3.5 1.2 5.3.9 20.4-2.9a93 93 0 0 1 26.3-4.1c8.3.1 10.5.5 14.3 2.4 4.5 2.4 4.5 2.4 8.2.5 2.7-1.4 3.5-2.3 3.1-3.8q-.5-1.9 1.6-2.6c2.1-.6 2.1-.6-.3-3.8a30 30 0 0 1-3.7-7.1 10 10 0 0 0-5.1-5.7q-3.8-2-3.8-3.9t.8-2c.4 0 2.2-.9 4-2l3.4-2.1-2.6-3.4c-1.4-1.8-2.6-4.3-2.6-5.4s-.4-3.1-.9-4.4c-.8-2-.4-3.4 1.9-7.1 2.7-4.2 3.3-4.6 7-4.6s5.2-1.2 3-2.5c-.5-.3-1-3.7-1-7.4a42 42 0 0 0-1.5-11.1c-1.2-3.4-1.3-5-.4-8.1 1-3.2 1.9-4.1 6-5.8 4.3-1.7 4.9-2.4 4.9-4.9 0-3.6-1.9-9.2-3.1-9.2q-.8.2-1.9 2c-1.3 2.4-6.6 2.9-5.7.6q2.3-6 .5-13.3c-1.1-4-2.3-5.9-5.3-8.3a29 29 0 0 1-5.7-6.1c-1-1.6-2.5-3.2-3.3-3.5-1.3-.5-1.3-.9 0-2.7a8 8 0 0 0-.1-9.5c-.9-1.3-1.3-2.9-1-3.7.7-1.9-1.3-8.5-3.5-11.7a11 11 0 0 1-1.9-6q-.1-8-6.5-7.1-3.5.6-5.3-.9c-.9-.9-2.7-1.9-3.9-2.2q-2.1-.8-2.3-2.2c0-1-8.5-6.4-10.2-6.4-.2 0-.2 1.7 0 3.8.3 2.8-.1 4.2-1.7 5.6a7 7 0 0 0-2.1 4.3c0 2-.5 2.3-3.4 2.3-3 0-3.5.4-4.1 3-.5 2.3-1.2 3-3 3-2 0-2.5-.7-3.1-3.7a32 32 0 0 0-3.1-8c-2.3-4-2.3-4.2-.7-8 2.7-6.3 2-10.8-2.6-16.9-2.2-3-5.3-6-6.9-6.8a22 22 0 0 1-8.7-11.2c-.4-1.6-2-4.6-3.7-6.7-3.2-4.2-6.8-17.4-4.9-18.6l10.4-6.9 9.6-6.3 1.1-8.8c1.6-12.8 1.6-13.3-2.9-18.4a30 30 0 0 1-5.5-8.9c-1.4-4.2-1.4-4.6 3.8-20.7 5-15.6 5.3-16.8 4.4-22.5-1-7.6-3-10.5-9-13.4-4.5-2.1-4.7-2.4-4.7-6.3q-.1-8.2-8.7-12c-6.5-2.8-7.9-5.1-8.8-13.9-1.3-13.4-1.1-14.6 1.7-17.5 1.5-1.4 4.5-5.1 6.9-8.1 3.9-5.1 4.1-5.7 3.7-10.6-.4-3.9-1.1-5.6-2.9-6.9-6.9-5.2-7.7-6.1-8.7-10.1-1-3.7-1.8-4.7-5.9-6.8-3.6-1.9-5-3.3-5.7-5.7q-1-3.2-3.4-3.8c-1.3-.3-6.1-2.6-10.7-5.1-6.7-3.6-8.5-5-8.9-7.2l-1.7-9.2c-1.4-7.5-3.9-10.9-11-14.6-6.4-3.2-11.8-8.5-12.5-12.3-.5-2.5-1.1-3.1-3.3-3.1a30 30 0 0 0-6.6 1.5c-5.4 2-6.5 1.9-6.5-.7 0-1.3-2.3-4.4-6-7.9-3.3-3.3-6.2-7-6.6-8.6-1.4-6.5-1.3-6.4-4.9-5.7-3.1.5-3.5.3-6-3.6-4-6.3-4-6.5.5-7.9 3.7-1.1 4-1.5 4-4.6s-.5-3.7-3.7-5.3a39 39 0 0 0-6.6-2.6c-3.8-.9-6.9-7.5-5.6-12a27 27 0 0 0-3.3-15.4q-1.2-1.2-9.1-1.2c-7.7 0-8.3-.1-11.4-3.2l-3.2-3.1 2.4-2.9c3.7-4.3 3.2-7.2-2.2-13.4-4.1-4.6-5.3-5.4-8.3-5.4-6.8-.1-8-.8-8-5.1q0-3.9 2.6-7.6l2.6-3.8-4.6-4.2q-4.8-4.1-4.6-6.8c0-2.6.2-2.6 4-2 3.6.6 4 .5 4-1.4 0-1.2-.8-2.4-1.7-2.7-9-2.9-11.3-5.9-11.3-14.7 0-5.4-.3-6.2-4-10.6-3.5-4.1-4-5.4-4-9.7 0-6.3-4.6-14.8-8.6-15.8-1.4-.4-3.8-1.6-5.3-2.7-2.3-1.7-3.1-1.8-5.4-.8q-5.6 2.4-5.7-3c0-2.7.4-3.1 4.3-3.8 3.3-.7 4.3-1.3 4.5-3.1.3-2 0-2.2-2.5-1.7l-6.4 2c-2.8 1-4.6 1.1-7.3.4-3.2-.9-4.3-.7-8.4 1.7-9.9 5.6-22.7 1-15.6-5.7 4.9-4.6 1.6-7.2-4.1-3.3-2 1.3-4.9 2.4-6.6 2.4-3.9 0-8.6 2.5-9.4 5-1 3.1-3.5 2.4-5.1-1.6-1.2-2.8-1.3-4.3-.5-6.7 1.4-4 1.4-4.7-.4-4.7-2.8 0-6-2.2-8.2-5.5-2-3-2.7-3.4-5.1-2.9-4.1.8-5-2-1.7-5.1l2.6-2.3-2.8-2.1-2.8-2.2 2.3-1.5c1.2-.9 2.2-2.2 2.2-3 0-1.8-3.8-3.7-6.1-3.1q-2 .6-3.4-2.3c-.8-1.6-2.5-3.7-3.8-4.7s-2.7-3-3-4.4c-.4-1.6-2.5-3.8-5.7-5.8-5.2-3.4-6.2-5.8-3.5-8.1 1.4-1.2 1.3-1.6-1.1-4.2-1.5-1.5-3.8-2.8-5-2.8q-2.1 0-4.8-4c-3.2-4.9-6.2-5.3-7.1-1-.4 1.6-1.3 3-2.1 3-1.8 0-2.8-4.1-2.1-9.1.6-4.4-1.1-6.1-3.8-3.9-3.8 3.1-6.1-2.3-2.9-6.8q1.4-2.1 1.3-2.6l-5.4-1.9c-9.2-3.2-19.1-1.9-24.8 3.2-1.8 1.5-2.1 1.4-4.4-1.3l-2.5-2.9-5 1.8q-5.1 1.8-6 .7-1.1-1.2-3-.1-2 1.1-3.4-.2c-1.3-1-1.3-1.4.1-2.9a7 7 0 0 0 1.5-2.3c0-1.3-4.6-.7-6.6.8-1 .8-3.3 1.5-5 1.5q-3.1 0-4.6 2.1c-1.2 1.9-1.7 2-3.7 1q-2.3-1.3-1.2-2.4 1-1.2-.9-3.7l-1.8-2.4-1.9 2.3c-1.6 1.9-2.3 2.2-3.9 1.4-1-.6-3.3-.9-5-.6q-3 .4-4.3-1.1c-1.5-1.8-5.1-2.2-5.1-.6 0 .5-1.5 1-3.4 1-2.7 0-3.9-.7-5.6-3s-2.9-3-5.6-3q-3.4.1-4 1.4"/><path d="M148.1 580.6c-2.5.7-5.4 2.3-6.6 3.4-2.3 2.1-8.9 2.8-10 1-1-1.6-5.2-1.1-8.9 1.1-3.1 1.8-3.6 2.6-3.6 5.9q0 6.8 5.5 5.4c2.6-.6 2.6-.5 1.5 1.6-.6 1.2-1 3.9-.8 6s0 3.6-.4 3.4q-.8-.6-.8-1.7c0-.7-.9-2.3-1.9-3.6-1.3-1.8-2.3-2.2-4-1.6-2.2.7-2.3 1-1.6 7.4.4 3.6 1.3 7.3 2.1 8.2s1.4 2.5 1.4 3.7.3 2.2.8 2.2c1.1 0 7.4-4 9.9-6.2 1.2-1.1 4.4-2.8 7.2-3.7 4.5-1.4 5.6-2.4 10.5-9.5 5.2-7.4 5.5-7.7 6.6-5.6 1.2 2.1 1.3 2 3.2-3.1 1.1-3 2.2-7.2 2.5-9.5.4-3.6.2-4.1-2.2-5.2-3.2-1.5-4.7-1.4-10.4.4m-7.4 36.6c-6.1 4.2-9 8.3-9.5 13.3-.9 8.2-.6 12.2 1.1 14.8 1.6 2.5 1.9 2.6 4 1.3 1.2-.8 3.9-1.8 5.9-2.1 2.9-.6 4.3-1.6 5.9-4.4 1.2-2 3.1-4.5 4.1-5.7 1.8-2 1.8-2.1-.2-3.9-2.6-2.4-2.5-4.1.5-8.1 2.9-3.8 3-4.4 1-4.4-.9 0-2.7-1.1-4.1-2.5s-2.6-2.5-2.7-2.4z"/></svg>