<svg xmlns="http://www.w3.org/2000/svg" width="1365.333" height="1365.333" viewBox="0 0 1024 1024"><path d="M852.1 1.5c-1.8.8-4.3 1.5-5.5 1.5-3 0-7.4 4.8-8.2 9-.4 1.9-1.6 4.6-2.6 6-1.9 2.7-3.3 3.5-15.3 9.1a52 52 0 0 0-7.5 4c-1.3 1.8-9.9 4.2-14.7 4q-5.3-.2-9.9 1.9c-3.7 1.6-6.8 2-14.5 2-9.4 0-10 .1-11 2.3-1.4 3.1-8.6 6.7-13.4 6.7-2.2 0-6.7 1.1-10 2.5S731.9 53 730 53s-5.1.4-7 1c-2.6.7-5 .6-9.3-.5-3.2-.8-7.5-1.5-9.5-1.5a9 9 0 0 1-5.9-2.1c-1.9-1.9-2.5-2-3.8-.9-.9.7-2.8 1.4-4.3 1.6-6.3.6-14.4 2.4-17 3.8l-5.9 3.1c-1.8.8-3.3 1.9-3.3 2.3 0 1.5-12.9 4.3-22.5 4.7-5.5.3-11.9.8-14.3 1.1-3.8.5-4.9.2-8.7-2.5-5.1-3.7-8.4-3.9-17.4-1.1a80 80 0 0 0-21.8 10.4c-.4.8-2.4 2.1-4.3 3-6 2.9-9.7 5.1-13.1 8.1a77 77 0 0 1-27.4 12c-10.7 2-11.2 2-12.9-1.4-2-3.8-6.1-5.1-14.3-4.4-6.8.5-9.9-.2-21.1-4.8-3.1-1.3-3.7-1.2-9.2 1.9a29 29 0 0 1-7.8 3.2c-1 0-2.9 1.2-4.3 2.6-4.6 4.9-8.6 6.7-13.7 6.1-4.5-.5-4.8-.3-10.2 4.6s-13.8 9.7-17.1 9.7c-.9 0-2.3 1-3.1 2.2-1.4 2.1-2.1 2.2-10.9 2a42 42 0 0 0-13.4 1.1 21 21 0 0 1-11 .5l-11.3-1.4c-3.4-.4-5.5-1.6-9.8-5.5-3-2.7-5.9-4.9-6.5-4.9s-3.2-1.7-5.8-3.8-6.3-4.8-8.3-6.1a137 137 0 0 1-26.3-29.5c-2.1-3.7-4.4-7-5.1-7.3s-2-2.8-3-5.6q-3-9.7-6-9.7c-.8 0-3-1.6-5-3.5-1.9-1.9-4-3.5-4.7-3.5-.7.1-10.2 13.4-21.2 29.6L250.3 100c-3 3.7-2.9 5.4.6 9.8 1.7 2.1 4.1 7.4 5.6 12.4 2.6 8.8 4.4 11.2 13.6 18.3 1.6 1.3 3.4 4.5 4.7 8.5l2.2 6.5 6.5 1.9 6.4 1.8 1.6 7.7 2.2 9.4c.2.9 2.2 2.6 4.3 3.7 3 1.5 4.2 2.9 5.1 5.8 1.4 4.9 6.7 9.2 12.8 10.5 4.1.9 5.9 2.4 17.6 14.3l13 13.3 41.5 14c22.8 7.7 73.9 24.6 113.6 37.5l72.1 23.6h71.6l-6.9 7.3a21665 21665 0 0 1-155.3 159.9L420.5 530l-8-.5c-16-1-65.5-2.6-66.3-2.1-.4.2-9.4 2.7-20.1 5.5-15.1 4-21.9 6.3-31.4 11-16.3 7.8-19.7 10.5-22 16.9-1 3-4.1 7.9-7.3 11.7-5.2 6.1-5.8 6.5-9.8 6.5-2.4 0-7.3 1.1-10.9 2.5-5.6 2.1-9.3 2.6-24.1 3.3l-17.5.9-3.9 3.4c-2.2 1.9-4.8 4.9-5.7 6.7s-2.3 3.6-3.1 3.9-2.4 2.3-3.5 4.5-4.4 7.2-7.3 11.2L161.1 641a218 218 0 0 1-26.6 32L121 686.5l-.2 137.6-.2 137.6 21 28.2a438 438 0 0 1 22 31.3l1 3.2 5.7-8.7c3.2-4.8 6-9.5 6.4-10.4.3-1 2.1-3.5 3.9-5.5 1.9-2.1 3.6-4.9 4-6.3q.6-2.3 2-2.5c1.5 0 3.4-3.4 6.5-11.4 1.1-3.1 2.4-5.6 2.9-5.6 1.1 0 7-8.7 7-10.3 0-.7 1.4-1.7 3-2.2q3-1 10.3-10.1a521 521 0 0 1 41.3-45.8 542 542 0 0 0 28.9-31.1l10.7-11.7a207 207 0 0 1 16.5-15.9c4.8-4.1 10.6-9.2 12.8-11.4a71 71 0 0 1 14.2-11.5c.5 0 1.6-.8 2.5-1.8l6.3-5.7 10.3-9.5a392 392 0 0 1 76.6-53.2c3.9-1.7 16.8-9 28.6-16.3s24-14.6 27-16.3c5.1-2.9 28-24.9 28-26.9 0-.5 1.2-1.6 2.8-2.5s5.4-4.3 8.7-7.5l10.5-9.8c2.5-2.3 6.1-5.9 8-8a59 59 0 0 1 6.7-6.6c1.8-1.5 4-4.1 5.1-5.8 2.6-4.2 26.8-30.2 35.5-38 3.9-3.5 9-8.9 11.4-11.9 3.8-4.9 9.7-11.5 29.4-32.7a78 78 0 0 0 9.4-13c2.1-3.9 4.6-7.9 5.6-9.1s4.3-6.6 7.4-12.3c3-5.6 9.3-15.3 14-21.4l16-21c15.4-20.2 39.6-64.6 38.1-70.1a95 95 0 0 1 8-25.3c.8-1.2 1.4-3.3 1.4-4.7s2.1-5.2 4.8-8.8c2.6-3.5 7.6-11 11.1-16.8s7.9-12.1 9.7-14c3.3-3.5 13.6-23.1 14.9-28.3a8 8 0 0 1 3-4.3c1.9-1.3 2.3-2.6 2.7-9.4.4-7.4.7-8.2 4.3-12.6 2.2-2.6 5.9-5.9 8.3-7.3 8.2-4.8 11.3-8.1 11.9-13.1.3-2.5 1.2-4.9 1.9-5.3.8-.4 2.1-2.2 3-4s3.5-5.4 5.6-8.2c3.3-4.1 3.9-5.6 3.5-8.1s0-3.7 1.8-5.4 2.5-3.7 3.1-9.1l.6-6.8 6-4.7c7-5.5 11.8-11.7 11.8-15.2 0-2.9 3.4-8.7 5.5-9.6q1.3-.6 1.5-1.6a36 36 0 0 1 4.1-7l4.2-5.8-2-2.5c-1.9-2.5-1.9-2.7-.2-12.9 1-5.7 3-13.7 4.5-17.8 2.3-6.4 2.5-8.1 1.6-11.4q-1-3.9 0-6.8c.6-1.6.8-4.9.4-7.4-.5-4.2-.4-4.5 3.2-6.9 5.1-3.3 20.5-6.7 22.4-4.9.7.7 3.1 1.6 5.3 1.9 3.8.6 4.2.5 5.3-2 1.4-3.1.2-5.5-2.7-5.5-.9 0-3.8-.8-6.4-1.7-4.1-1.5-4.9-1.5-5.7-.3q-.8 1.5.1 2.6 2 2.4-7.4 2.4h-5.2l3.3-2.2c2.7-1.6 3.2-2.6 2.8-4.4s-.1-2.3 1.6-2.6c2-.3 2.3-.8 2-3.8a11 11 0 0 0-1.3-4.5c-.5-.5-.9-6-.9-12.2 0-9.7.3-12 2.4-16.8 2.7-5.9 2.2-7.5-2.3-9-1.2-.3-2.3-2.1-2.8-4.3-.8-3-.5-4.7 1.3-8.8 1.2-2.8 2-6.3 1.7-7.6-.6-3.3 1.8-8 6.3-12 2.9-2.7 3.5-3.8 3.1-6.3-.3-1.6.2-4.3 1-5.8 1.6-3.2 1.1-5.9-1-5.2-.7.3-3-.1-5-1s-5-1.5-6.6-1.5-3.3-.4-3.6-1-3.8-1.9-7.8-3-8-2.5-8.9-3c-2.3-1.3-3.6-1.2-7.7.5"/></svg>