<svg xmlns="http://www.w3.org/2000/svg" width="1365.333" height="1365.333" viewBox="0 0 1024 1024"><path d="M743.5 1.5c-1.6.8-4.5 1.4-6.3 1.5-1.8 0-5.5 1.1-8.2 2.5-6.7 3.4-6.6 5.3 1.1 13.8 5.7 6.3 6.3 6.7 10.3 6.7 2.4 0 6.9 1 10.2 2.1 4 1.5 9.3 2.3 16.9 2.6 6 .3 12.4 1.2 14.3 2l3.3 1.4-2.2 3.2-2.4 3.5c-.1.1-3.7-1.4-7.9-3.4-7.6-3.6-7.7-3.6-10.9-1.9-3.1 1.6-3.4 1.6-8.5-.4-7.7-3-9.1-2.7-13.5 3-2 2.7-4.2 4.9-4.7 4.9-2 0-2.3-3.3-.8-6.1 1.5-2.6 1.5-2.8-1-5.2a25 25 0 0 0-22.9-5.3c-4.7 1.3-4.9 1.2-10.3-2.4-5.7-3.8-25-10.9-37.4-13.7-5.4-1.3-11.8-1.6-26.6-1.5-10.7.1-23-.3-27.2-.9a86 86 0 0 0-31.9 3.2c-4.2 1-12.2 2.4-17.7 3l-10.1 1.2-3.9 4.6A50 50 0 0 0 537 36c0 .5 1.2 1.2 2.8 1.8 2.5.9 2.7 1.3 2.4 5.5-.3 3.3-1.1 5.2-3.1 7.1l-2.7 2.6-10.2-1.2c-8.9-1-10.4-1.5-11.7-3.5-1.4-2.1-2.3-2.3-8.9-2.3-6.4 0-7.8-.3-11.2-2.8-5.1-3.7-6-4-17-5.6-6.9-1.1-11-2.4-16.2-5.1-7-3.6-19.5-6.5-28.6-6.5q-4 0-7-2.4c-3.8-2.8-7.3-4-19.6-6.7-17.6-3.9-20.7-4.1-29.5-2l-8 2-7.5-3.4c-10.8-4.7-11.4-4.9-22.6-4.6-8.6.2-11.2-.2-17.4-2.3A48 48 0 0 0 309.6 4c-2.3 0-8.6-.7-14.1-1.5a68 68 0 0 0-15.3-.9c-5.1.6-5.4.8-7.8 5.5L270 12h-5.5c-5 0-5.6.3-7.9 3.3-1.5 2-2.6 4.7-2.6 6.5s-3.1 10.3-6.9 18.9C239.4 58.5 239 59.8 238 73c-1.4 17.8-5 34.1-9.2 41.4-2 3.4-3.2 4.3-8.5 6-6 1.9-6.2 2.1-8.7 7.7-1.3 3.1-3 9.5-3.7 14.1-1.3 9.5-2.5 11.6-11.6 20.4-3.5 3.4-6.3 6.6-6.3 7.1s.6 1.8 1.4 2.8c1.2 1.7 1.9 1.8 6 .8l4.6-1v8.9c0 6.7.4 9.7 1.7 11.9 1 1.6 2 2.9 2.4 2.9.6 0 3.3-5.1 3.2-6l-.8-3.1c-.6-2.3-.3-2.7 1.9-3.1s3.5.4 7.8 5.1c9.1 9.9 9.9 14.7 3.5 20.9l-4.4 4.3-2.8-4.6c-2.7-4.2-3.2-4.5-7.1-4.5-5.9 0-9.4 3-9.4 7.9 0 2.1-1.1 6.5-2.5 9.9-3.2 7.9-3.1 9.2.5 12.7 1.7 1.6 3 3.7 3 4.8 0 1.6-.5 1.8-3.8 1.2-3-.5-4.7-.1-8.3 1.9-2.4 1.4-5.4 2.6-6.7 2.6s-3.5.6-5 1.4a70 70 0 0 1-28.1 0c-5.2-2.2-10.5-1.7-16.9 1.5l-5.8 2.9-3.9-2.9c-3.3-2.5-4.8-2.9-9.9-2.9-5.8 0-6.5.3-12.8 5.1a24 24 0 0 0-8.7 9.4c-1.6 3.7-2.5 4.5-5.6 5.1-2 .3-6.7.4-10.5.2l-6.8-.5-5.9 7.6c-3.2 4.2-7.8 9.4-10.2 11.7l-4.4 4.1 1.2 6.5c1.2 6.3 1.4 6.5 4.9 7.4 3.7.9 3.7.9 4.2 7.1.4 5.4.9 6.7 4.1 10 3.4 3.5 3.7 4.4 4.2 11.3.9 11.1-1 17.4-11.3 37.9-4.9 9.8-9 18.3-9 18.8s-1.3 1.9-3 3.1c-3.5 2.6-3.8 5.6-1.5 14.2.8 3 1.5 7.7 1.4 10.5v5l-10.5 8a67 67 0 0 0-14.5 13.7c-3.5 5.2-3.9 6.3-3.9 12 0 3.5.7 8.5 1.5 11.2s1.5 8.1 1.5 12c0 10.9 2.1 17.5 6.7 21.1 2.1 1.6 5.6 5 7.8 7.4l9.6 10.5q5.6 6.1 8.4 13.1a69 69 0 0 0 8.5 13.9c5.5 6.9 5.5 7 6.1 15.3.5 7.6.8 8.7 4.5 13.9 3.4 4.9 5.3 6.4 13.9 11.1 10.4 5.6 12.8 7.7 17.2 15.4 2 3.4 4.1 5.5 8.2 7.7 5.3 2.9 5.7 3.4 7.9 9.9l2.3 6.8-2.5 10c-1.5 5.5-2.6 10.5-2.6 11.2 0 2.1 7.2 6.1 13 7.2 3 .5 6.6 1.4 7.9 1.9q2.5.9 6.5-.3c3.7-1.1 4.5-.9 11.2 2.2 4 1.8 7.9 3.3 8.6 3.3 2.6-.1 10.2-6.8 11.4-10.2 1-2.9 1.5-3.3 4.3-3 1.8.1 5 1.1 7.1 2.2 5.8 3 8.5 2.6 11.3-1.5 2.7-4 3.1-3.8 6.5 3a32 32 0 0 1 2.1 19.3c-.9 3.3-.9 4.8.6 9.2 1.6 4.9 1.6 5.4 0 9.6s-1.6 4.9 0 11.4c1.8 7.2 2.4 7.8 6.8 6.1 2-.8 2.9-.6 4.1.8 1.6 1.7 1.5 1.9-.9 2.5-2.1.5-2.5 1.2-2.5 4.5s.6 4.5 3.9 7.4c7 6.4 8 9.8 6 21.1-.8 4.8-.7 7.1.3 10.6 1.2 4 1.8 4.6 4.8 5 2.7.4 3.5 1.1 4.1 3.3.7 2.7.5 3-3.6 4.8l-4.4 1.9 1.5 3.5c.8 1.9 1.4 5.4 1.4 7.9 0 4.3.1 4.5 5.5 7.5 3 1.7 6.8 3.1 8.5 3.1 2.4 0 3 .4 3 2.2 0 4.5 1.2 6.5 4.6 8.1 2.5 1.2 3.4 2.3 3.4 4.1 0 1.4 1.4 4.1 3 6a26 26 0 0 1 6 14.6c0 2.3.6 2.9 4.1 3.9 4.7 1.4 5.6 3.2 4 7.7-1.1 2.9-.9 3.7 1.1 6.8 1.3 2 3.8 4.3 5.6 5.3s3.2 2.5 3.2 3.6c0 2.8 2.5 6.9 6.9 11.2 3.1 3 4.1 4.7 4.1 7.1 0 2.6.6 3.7 3 5 1.6 1 3.5 3.1 4.1 4.7 1.1 2.7 1 3-2.5 5.9l-3.8 3.1 7 3.2q7.1 3.3 8.5 6.1c1.4 2.7 1.3 3.2-.9 7.6L299 910l4.7 2.8c2.6 1.5 6.9 4.7 9.6 7.2l4.9 4.5-.5 6c-.5 7.4 1.5 11.3 11.5 22.5 3.8 4.1 9.6 11.4 13 16.1l6.3 8.6 15.4.5 15.4.5 4 4.3c4.1 4.3 10.5 7.9 14.3 8 1.7 0 2.4.9 3.3 4.4 1 4.2 1.3 4.5 6.3 6 9.1 2.6 13 2.9 19.3 1.2 5.6-1.4 6.2-1.4 10.3.4 2.4 1.1 6.6 3.6 9.3 5.6 6.3 4.6 12.9 5.4 22.3 2.9l6.5-1.8 6.6 4.2a87 87 0 0 0 32.8 10.1c2.6 0 7.5-.8 11-1.7a21 21 0 0 0 11.3-6.9c6-6.1 7.2-10.1 4.9-15.7-1.9-4.6-1.9-8.7 0-17.9.9-4 1.3-8.4 1-9.7s-5.1-6.9-10.5-12.6a61 61 0 0 1-10-11.8c0-1.9-.9-2.6-7.5-5.3-4.9-2-5-2.1-5.7-7.3-.5-4.4-1.2-5.8-4-8.1-3.2-2.8-11.3-6-14.8-6-5.3 0-6.8-4.4-2.7-7.7 1.2-1 2.9-3.4 3.7-5.3.7-1.9 2.4-5.7 3.7-8.3l2.4-4.8 3.4 2.1c4 2.5 3.8 2.6 12.8-5.4 6-5.4 6.6-6.4 6.1-8.9-.3-1.6-.3-7.5.1-13.3.7-9.2 1.1-10.9 3.2-13.5q2.5-3 5.6-2.9c4.9 0 13.2 4.4 18.7 9.9 4.9 4.9 5.4 5.1 14.8 7 13.8 2.7 14.8 3.2 15.5 7.8.6 3.2 1.3 4.1 5 6.1 4.1 2.2 4.5 2.2 8.7.7 2.5-.9 7.2-1.9 10.5-2.2 3.7-.4 7.8-1.6 10.7-3.3 4.4-2.4 5.1-2.5 10.6-1.7 4.3.8 9.1.6 18.5-.6l12.7-1.6 6.9 2.3 6.9 2.4 3.3-3.4c2.4-2.4 3.6-4.9 4.4-9.1l1.1-5.6 6.5-2.5c4.6-1.7 7.5-2.2 10.4-1.8 14.3 2 12.7 2.3 17.8-3.4a35 35 0 0 0 4.7-5.9c0-1.2 7.2-3.1 11.4-3.1 3.2 0 3.8.4 5.3 3.5 2.5 5.2 5.6 5.6 10.1 1.2 6.4-6.1 16.1-11.7 20.3-11.7 2.7 0 5-.9 8.3-3.5a42 42 0 0 1 5.1-3.5c1.6 0 0 5.3-3 9.7a24 24 0 0 0-3.5 6.8c0 .8 2.4 3.1 5.3 5 3.7 2.5 6 4.9 7.5 8.1 1.3 2.5 3.6 6.3 5.3 8.4 2.8 3.5 3.7 3.9 11.9 5.5l8.9 1.7 5.3-4.7 5.3-4.6 7 .6c3.9.3 8.6.9 10.6 1.2l3.5.5-1 4.8q-.9 4.9 0 7.1c.9 2 .6 2.7-1.8 4.7-3.3 2.8-3.5 5.4-.8 9.2 1.1 1.5 2.4 3.9 2.9 5.2q1 2.5 4.1 3.2c6.7 1.3 9.6.7 16-3.5l6.2-4 6.2 2.2 6.3 2.3 3.6-2.8c3.3-2.6 4.6-4.8 8.2-15.4q.6-1.1 5.8-1.2h5.4l8.6-9.3c7.3-8 8.8-10.2 10.2-15.3.9-3.2 3.4-8.6 5.5-11.9s4.4-8.6 5.1-11.8c1-4.7 2.3-7 6.5-11.7 2.9-3.2 9.1-11.5 13.8-18.3 7.5-11 8.6-13 8.6-16.8 0-3.6.6-4.9 3.6-8 3.5-3.6 3.6-3.7 1.5-4.8-3.3-1.8-2.9-10 .7-16a46 46 0 0 0 5.2-11.7c0-.2-1.4-1.9-3.2-3.9-2.7-3.2-3.2-4.5-3.6-10.8-.3-5.9-.1-7.5 1.2-8.6q1.6-1.2 1.6-6.7c0-5.2-.1-5.5-2.9-6-1.7-.4-3.8-1.5-4.7-2.5-1.5-1.7-1.4-2.3 1.7-9.9 2.4-5.8 4.2-8.5 6-9.5a35 35 0 0 0 10.7-13c1.1-2.2 4.3-6.2 7.1-9 5-4.8 5.1-5 5.1-10.9 0-5.6.2-6.1 3.9-9.3 2.2-1.9 5.9-6.9 8.5-11.8 4.2-7.7 4.6-9.1 4.6-15.4 0-7.2 2.2-20.6 4.1-25.2.9-2.4.6-3.4-2.7-8.3-2.7-4.1-4.2-5.5-5.3-5.1-7.1 2.8-9.8.6-13.6-10.5a79 79 0 0 0-7.6-15.1c-4.8-7.3-5.3-7.8-12.9-11.2l-7.8-3.5-1.2-5.5c-.9-4.7-1.7-5.9-5.1-8.3a22 22 0 0 1-5.9-6.3c-1-2-4.1-5.8-6.9-8.5-3.7-3.6-5.1-5.9-5.6-8.8-.7-4.1-5.8-10.9-11-14.7-7.3-5.3-7-4.6-4.5-8.1 1.2-1.7 2.9-5.7 3.7-8.8s2.3-7.3 3.4-9.3l1.9-3.8-4.2-3.5a16 16 0 0 0-5.7-3.6c-.9 0-3.2-.5-5.2-1-3-.8-3.8-1.7-4.7-4.9a33 33 0 0 1-1.2-8.5c0-9.6-2.3-24.3-5.1-33.3-2-6.5-3.3-13.6-4.3-23.9-1.3-13.8-1.2-14.9.4-17.8 1.6-2.7 1.8-5.6 1.7-23.4l-.1-20.3-5.2-3.4-5.1-3.4-.6-13.3c-.3-7.3-1.1-15.7-1.8-18.7l-1.3-5.4 3.5-3.1c4.1-3.6 5.9-9.2 5.9-18.6 0-8.6 3.2-14.5 11.4-21.1 6.2-4.9 7.6-7 7.6-11.5 0-1.1 1.6-3.6 3.6-5.5s5.2-6.6 7.1-10.4c2-3.9 5.4-10.1 7.6-13.9 4-6.8 4.3-7 13.3-11.2 11.8-5.5 16.2-10.4 29.4-32.4a120 120 0 0 1 14.1-15.1l11.7-10.9.4-6.3c.4-4.6 0-7.5-1.3-11-3.1-7.9-2.5-13.9 2.2-22.9 3.1-6 7.9-17.7 7.9-19.3 0-.1-1.8-1-4.1-2a13 13 0 0 1-5.6-4.9c-.8-1.7-3.1-4.8-5.1-6.9-3.1-3.2-4.2-3.7-8.2-3.7-6.6 0-11-1.5-20.6-7.1-7.9-4.5-9-4.9-13.3-4.3-3.2.4-8.6-.3-17.6-2.1a370 370 0 0 0-32-5.4c-3.3-.5-10.5-1-16-1a74 74 0 0 1-34.4-7c-6.5-3.3-9.1-4.1-13.6-4.1a35 35 0 0 1-11.7-2.4c-5.8-2.2-8.5-2.5-34.3-3.5A221 221 0 0 1 758.1 2c-10.8-2.3-10.6-2.3-14.6-.5"/></svg>