<svg xmlns="http://www.w3.org/2000/svg" width="1365.333" height="1365.333" viewBox="0 0 1024 1024"><path d="M748.5 4.2c.4 2.4 1.4 5.1 2.3 6.1 1.4 1.6 1.3 1.9-.8 4.2-1.3 1.4-3.3 2.5-4.4 2.5q-2.1.1-3.8 3c-1.4 2.5-2.3 3-5.6 3-2.3 0-4.5.6-5.2 1.5q-2.5 2.9-6.8-.1a7 7 0 0 0-4.8-1.1c-1.9.3-2.9-.3-4.5-2.4-2.2-3.1-4.4-3.7-5.2-1.5-.3.8-1.6 1.6-2.9 1.8q-2.3.1-2.9 3.6c-.4 1.8-.3 3.5.2 3.8 1.8 1.1.8 5.9-1.7 8.5l-2.6 2.8 3.1 4.6 3.1 4.6-1.6 5.7c-.9 3.1-2.3 6.4-3 7.3q-2.6 3-.1 2.9c3.2 0 6.7 2.5 6.5 4.7-.2 1.2.8 3.3 2 4.6 3 3.2 2.5 5.9-1.3 7.3-7 2.4-9.1 4.4-10.1 9.9-.5 2.9-.6 5.9-.2 6.6.4.8 1 2.7 1.3 4.3s1.4 3 2.5 3.3c1.6.4 2 1.4 2 5.2.1 2.5.7 5.7 1.5 7.1 3.1 5.3 1.4 13-3.3 14.9-2.4 1-3.1 2.2-4.2 6.5-1 4.1-1 5.8-.1 7.5q2.5 4.3-4.6 5.6c-4.2.8-7.3 2.5-7.3 4.2 0 1.9-2.4 2.2-4.3.4-1.8-1.5-2-1.4-3.8.8-1.9 2.4-2 2.4-5.3.6-3.1-1.7-3.6-1.7-8-.2-5.7 2-7.6 1.4-7.6-2.3 0-2.1-1-3.7-4-6-3.7-2.9-4.4-3.1-8.8-2.5-4 .6-5.1 1.2-7.4 4.6-3.1 4.4-3.8 9.9-1.3 9.9 3.1 0 7.5 3 7.5 5.1 0 1.9.4 2 4 1.4q6.4-1 2.5 2.5c-.8.7-1.5 2.1-1.5 3.2 0 1-.7 3.2-1.4 4.7-1.3 2.4-1.3 3.5 0 8.7.9 3.2 2.4 6.4 3.5 7.2q1.9 1.3 1.9 4.7-.1 3.4 1.9 4c1.7.5 1.8 1 .9 3.6-.8 2.4-.7 3.8.8 7 1.9 4.4 2 3.8-2.7 13.1q-.7 1.6 1.8 7.8c2.6 6 2.7 6.1 6.2 5.8 3.2-.3 3.7-.7 4.5-4.1q1-3.7 2.3-3.3c.7.3 2.5-.6 4-2 1.4-1.3 3.3-2.2 4.2-2l5.4 1.1c2.1.3 3.7 1.2 3.7 1.9q.2 1.3 2 1.9c1.8.6 2.4 1.7 3 3.1.5 1.4 1.4 2.6 2 2.6q.9.1 1 1.4c0 2.8 4.5 6.6 10 8.6q9.8 3.6 8.7.6-.4-1.4 2-2.7c2.1-1.1 2.7-1.1 3.1-.1a32 32 0 0 0 5.2 5.8c4.3 4.1 4.8 5 4.3 7.6q-.7 3.1 1 4c.9.4 1.4 1.5 1.1 2.2q-.5 1.3 2.8 1.9c2.8.5 3.8.1 6.4-2.7 3.1-3.2 3.2-3.3 9.5-2.5 3.5.4 6.7.6 7 .3 1-.6 2.1 3.7 1.9 7.8q-.1 3.6 1 3.8c1.1.2 1.1 1.3.9 3.2-.1 1.8.1 4.4.5 5.6l.8 2.4 2.8-2.7c1.5-1.5 3.6-4.7 4.5-7.2 1.6-4.2 1.6-4.7.2-5.7-.8-.7-2-3-2.6-5.3s-1.8-4.6-2.6-5.3-1.5-1.8-1.5-2.5q0-1.3-1-1.7c-2.1-.7.3-4.7 3.6-5.8 2.9-1 3.2-1.4 2.4-3.1-.9-1.6-.7-1.9.9-1.9a5 5 0 0 0 3.3-1.5c5.1-6.1 7.8-8.5 9.6-8.5a4 4 0 0 0 3.2-2c1.3-2.4 5.6-2.6 8.5-.4q2 1.3 1.6 4.9-.2 6.8 5.5 2.6a10 10 0 0 1 4-2.1c4.4 0 3.5-10.3-1.1-11.4-3.2-.8-4.3-4.5-1.9-6.3 1-.7 2.3-1.3 3-1.3s.9-1 .6-2.6c-.3-2 0-2.6 1.7-3.1 1.5-.4 2-1.2 1.9-3.2-.4-5.6.2-8 2.1-8.6 1.7-.5 2-1.7 2.3-8.3.2-4.2 0-7.9-.4-8.2a9 9 0 0 1-1.3-3.3c-.4-1.6-1.4-3.1-2.1-3.4q-1.3-.7-1.4-2.2-.2-2-2-2.9c-2.1-1.3-2.9-7.5-1.1-8.6q.8-.8-.2-3.5-2.1-5.5 3-6.7c4.9-1.2 18.9-13.7 19.5-17.4q.2-2.5 3.3-3.3c1.7-.5 4.2-1.5 5.6-2.2q2.6-1.2 4.3-.3c.9.5 2.1.6 2.7.2s2.1.6 3.4 2.2l2.3 2.8 4-3.4c2.2-1.9 4.5-4.5 5.1-5.8s2.5-2.8 4.1-3.4c3.1-1 6.7-6.8 5.5-8.7-.3-.6-.1-2 .5-3.1.9-1.7.7-2.2-1.3-3.1a8 8 0 0 1-3.4-4c-1.3-3.3-4.3-4-4.3-.9 0 1.6-.7 2-3.4 2-1.9 0-3.7-.4-4-.9s.8-2.6 2.4-4.6c3.9-4.9 4-8.5.3-8.5-1.4 0-3.4-.7-4.4-1.6-1.5-1.4-1.9-1.3-3.9 1.6l-2.2 3-4.1-2.2a19 19 0 0 1-5-3.6 3 3 0 0 0-2.1-1.2c-1.4 0-3.9-4-3.5-5.6.4-1.3-1.1-5.4-1.9-5.4q-.8.2-2.5 2-1.7 2-5.2 2c-5.7 0-11 3.3-12.9 8-1.8 4.5-2.2 4.7-5.4 2.4-2.3-1.6-2.9-4.8-1.2-5.9.6-.3 1-1.5 1-2.6q.1-1.9 2.5-2.9c2.4-1 2.5-1.7 2.5-2.9 0-2.4 2.3-4.3 4.3-3.5 1.9.7 3.7-2.4 3.7-6.5q0-3 2-4.1a7 7 0 0 0 3-3.5c.7-1.8 1.9-2.5 5.4-3a18 18 0 0 1 6-.2c.9.4 3.7-.1 6.3-.9l6.2-2q1.6-.3-1.7-3.7a13 13 0 0 1-3.2-4.1c0-1.3 5.9-8.2 9-10.4 2.7-2 3.1-2.1 6.4-.7 1.9.8 3.7 2.4 4.1 3.5s1.4 2 2.4 2 2.6.9 3.6 2c2 2.2 3.3 2.4 5.4 1.1 1.7-1.1.7-4.5-2.2-7.3q-2-2-1.1-2.5a12 12 0 0 0 2.8-1.6c2.4-1.7 1.1-6.5-1.9-7.7a9 9 0 0 1-3-1.9q-.6-1.2-2.5-.1-4 2.2-7.2-.7c-1-.9-2.8-2.1-4.1-2.7a5 5 0 0 1-2.5-3.6c-.5-3-2-5-3.8-5-.8 0-3.7-1.6-6.4-3.5S828.8 4 828.5 4s-.5 1.3-.5 3c0 4.7-1.8 7.4-7.3 10.7l-5.1 3.1-1.3-2.5c-.7-1.4-1.3-3.2-1.3-3.9 0-1.6-1.6-1.9-2.5-.4-.3.5-1.3 1-2.1 1s-2.2.7-3 1.5q-3.3 3.3-6.1-1.3c-2.2-3.4-3.3-4.2-5.9-4.2-1.1 0-3-1.1-4.2-2.5q-3.5-4.1-6-1.3c-1 1-1.9.8-4.3-.6-1.6-1-3.7-1.5-4.5-1.2-1.9.7-6.4-1-9.1-3.6-2.6-2.4-2.5-2.4-3.9 1.7-1.2 3.8-4 4.4-5.5 1.2-1-2.3-4.6-4.7-7-4.7q-1 0-.4 4.2M504.5 292c-2 2.3-6.1 2.6-10 .8q-2.6-1.3-4.4-.1a7 7 0 0 1-4.4.6c-1.9-.4-3.2.2-5 2.1-2 2.2-3.3 2.6-7.6 2.6-3.7 0-5.3.4-5.7 1.5-.8 2.1-5.7 1.9-10.2-.4q-11.7-5.7-18.6 1.8c-1.7 1.9-1.8 1.9-6.3-.1-4.2-1.8-4.9-1.9-8.3-.5-3.3 1.3-3.8 1.3-4.7-.2-1.6-2.5-4.4.3-3.7 3.7.4 1.9-.4 4.1-2.5 7.5-1.7 2.6-3.1 5.4-3.1 6.2s-1 2-2.2 2.6c-3 1.5-11.3 9.9-12.1 12.1-.3 1-1.9 2-3.4 2.4-5 1.2-11 5.4-12.3 8.4-1.5 3.7-7.4 9-9.9 9q-1.8-.1-8.5 10.4c-6.3 9.8-6.9 10.4-12.1 12.4-3 1.2-7.8 3.6-10.7 5.5-4.9 3.1-5.5 3.3-8.5 2.1a48 48 0 0 0-13-1.6l-9.8-.3-4.7 4.7c-3.8 3.8-4.8 5.4-5.4 9.4-.8 5.6-1.6 6.4-6.2 6.4-3.3 0-9.5 3.4-14.4 7.9a26 26 0 0 0-5.3 10.2 36 36 0 0 1-4.1 9q-1.3 1.2-8.2.6c-8.1-.8-7.9-.9-18.7 10.2-6.6 6.8-8.4 8.1-11.1 8.1-1.7 0-3.7.7-4.4 1.5s-2.4 1.5-3.9 1.5q-6.5 0-8.8 6.5a17 17 0 0 1-2.7 5.3c-1.1 1.1-1.1 2.2.1 6.4 1.2 3.8 1.3 5.6.4 7.5-.6 1.3-1.1 3.5-1.1 4.8s-.4 2.6-.9 2.9-1.1 3.2-1.5 6.5q-.7 5.8-2.6 7.6c-1.1 1-2.3 3.4-2.6 5.4s-1.5 4.4-2.5 5.4a8 8 0 0 0-1.9 5.2c0 1.9-1.1 5.5-2.5 8.1s-2.5 5.3-2.5 6.1c0 1.6-4 3.3-7.9 3.3-3.8 0-15 11.5-15.3 15.7-.6 10.2-2.2 18-4.2 20.2-.8.9-1.7 3.2-2.1 5.1-1.1 6-1.6 7-3.1 7q-1.3 0-1.4 1 .1.9 1.1 1c1 .1.8.8.4 1.9q-.7 1.8 3 5.6c3.4 3.7 4.5 6.5 2.5 6.5q-1 0 0 1.9c1.3 2.6.3 5.1-2.1 5.1-2.1 0-2.5 2-.8 3.7q1.2 1-.1 3c-1 1.5-.7 2.7 1.9 7.1s2.9 5.7 2 7.4a15 15 0 0 0-.9 9.8c2.8 5.8 3.2 7.2 2.8 10.2-.3 1.9.1 4.7 1 6.5 1.2 2.6 1.3 3.5.2 4.8-.7.8-2.1 1.5-3.1 1.5s-2.3.9-2.9 2c-1.2 2.2-.1 2.7 1.8.8.9-.9 1.8-.6 4.1 1.6 2.6 2.5 2.7 3 1.9 6.9-1.7 8.1-1.1 10.8 3.7 15.7 2.5 2.5 4.5 5.1 4.5 5.7s.9 1.5 2 1.8 2 1.3 2 2.1.9 2.3 2 3.4c3 3 4.2 6.7 2.9 8.9-.9 1.3-.8 3.3.1 7.7 1.5 6.5 1.8 27.3.6 31.6-.7 2.4-.5 2.8 1.2 2.8 1.1 0 2.5.7 3.2 1.5s1.8 1.5 2.4 1.5 1.9 1.8 2.9 4 2.7 4.4 4.1 5c3.2 1.2 4.2 5 1.3 5-2.7.1-7.1 3.6-6.2 5 .3.5 1.4 1 2.4 1 1.1 0 2.4 1.2 3.1 3.1 1.2 2.8 1.6 3 4.6 2.5s3.6-.2 6.8 3.6c3.7 4.3 4.6 8.4 2.4 10.6q-1.4 1.3.1 1.2c.9 0 1 1.2.5 4.7-.7 5.1-1.6 6.3-5.1 6.3q-2.2-.2-2.8 3.1c-.9 4.1-.1 4.6 4.1 2.5 3.3-1.5 3.8-1.5 6-.1 1.3.8 2.4 2.4 2.4 3.5s.7 2 1.5 2 1.5.6 1.5 1.4c0 2 5.7 3.8 8 2.6 2.5-1.4 12-1.3 12 .1 0 .6 1.9 4.3 4.2 8.2 4.2 7.3 4.9 10.7 2.5 13.6-.7.9-1.9 2.9-2.5 4.4-1.1 2.6-1 2.9.7 3.4 2.8.7 4.5 5.3 3.1 8.5-1 2-.9 3.1.4 5.6 2.1 4.1 2 5.8-.5 7.6q-1.9 1.4-1.4 2.6c1.3 2.2-.4 6-2.8 6l-2.2.1 2.4 1.9c2 1.7 2.3 2.7 1.9 6.4-.3 2.4-.1 5.2.5 6.1.8 1.5.5 2.2-1.2 3.6-2.2 1.8-2.2 4.7-.1 7.4 1.3 1.6-.1 6.5-2.1 7.5q-1.7 1-4.4 0c-1.4-.5-3.7-1-5.1-1-1.9 0-2.4.5-2.4 2.7 0 1.4-.7 3.5-1.7 4.5-1.5 1.7-1.5 1.8 1 1.8 2.1 0 3.3 1 5.7 4.7a28 28 0 0 1 3 6c0 .7.9 2.2 1.9 3.2 1.6 1.6 1.9 2.8 1.4 5.8a13 13 0 0 1-1.8 5.3c-2.4 3-2.6 3.8-.5 3.3 2.4-.6 2.9 2.4.5 3.3-1.7.7-2.2 9.4-.5 9.4q1 .1 1 1.6-.1 1.8 2.6 1.1c2.1-.4 2.6 0 3.1 2.5q.6 3 2 2.4a6 6 0 0 1 2.3-.6c.4 0 1-1.8 1.3-4.1.7-5.1 1.1-5.6 4.6-4.2 2.5.9 3.2.7 5-1 1.7-1.8 2.5-1.9 5.5-1 3.2 1 3.7.9 5.1-1.3.8-1.3 2.4-2.4 3.5-2.4 2.7 0 4-2.8 2.7-5.7q-1.1-2.4.1-3.5 1.3-1.4 1.2.6c0 2.5 3.4 1.6 3.8-1q.3-2.1-2.2-3.7c-2.4-1.6-2.4-1.7-.9-5.6.9-2.4 1.2-4.7.8-5.8q-1.7-3.4 1.2-6.6c1.9-2.1 5.2-2.2 5.9-.2.3.8 1.4 1.7 2.4 2q1.7.6 1.3 2.4-.6 1.8 2 2.5c1.8.4 2.7 1.7 3.7 5.1.7 2.4 1 5.1.7 6q-.8 1.6 2.2 1.5 2.7 0 3.5-1.6.6-1.3 1.6-.9c.5.3 2-.1 3.4-1 2.4-1.6 2.4-1.5 3.1 1.4.6 2.9 3.5 4.5 3.5 2q.1-1 1.9-.4c2.3.7 3.5-2.9 1.9-5.8-.8-1.6-.7-2.2.6-2.9 1.5-.9 1.5-1.1-.1-3.8-1.4-2.4-1.5-3.4-.5-5.5.7-1.4 1.2-3.7 1.2-5 0-2.6 5.2-7.1 7-6 .6.4 1-.8 1-2.8q.2-5.5 4.5-4.1c1.9.8 2-1.9.1-3.5-2.1-1.8-3-6.9-1.5-8.7 1-1.2 1-2.5 0-6.5q-2.8-10.6 3.6-16.4c3.1-2.8 3.3-3.4 2.3-5.9-1.6-4.4-.5-6 5.8-8.3q10.2-3.6 12.2 1.1a10 10 0 0 0 2.3 3.5c1.3 1 1.7.9 2.7-.9.6-1.1 1.6-1.8 2.2-1.4.5.4 1.4.1 1.8-.6 1.2-2 3-.2 3 3 0 1.7.7 3.3 1.8 3.9 1.4.8 1.5 1.3.5 2.9s-.8 2.2.9 3.6c1.5 1.3 2.3 1.5 3.4.5.8-.6 1.4-1.8 1.4-2.5 0-1.8 1.1-1.8 6 .2 2.2.9 4.7 1.4 5.5 1q1.4-.4 1.5.4.2 1 1.5 1c1.2 0 1.3-.9.9-4.4-.6-3.8-.3-4.6 1.5-5.8 1.1-.7 2.1-1.9 2.1-2.7q-.1-1.4 2.3-.6c1.2.4 3.6.8 5.2.8s3.3.4 3.7 1c.6 1.1 10.8 2.8 10.8 1.8 0-.3-1.2-1.8-2.7-3.4-2.7-2.8-2.8-2.9-.9-4.3a8 8 0 0 1 3.7-1.4c1 0 2.1-.9 2.4-2 .4-1.1 2-2.7 3.6-3.5 1.6-.9 2.9-2.2 2.9-3 0-.9 1.6-3 3.5-4.8 6.2-5.8 6.2-5.8 7.5-4.2.7.8 1.9 1.5 2.7 1.5q1.5.2.3-1.9-1-2 0-4.6c.8-2.2 1.4-2.4 3.7-1.8 3 .7 3.7.8 9.7.5 3.6-.2 3.8-.4 3.3-2.9-1.1-5.8 1.8-7.2 15.8-7.8 9.5-.4 11.7-1.5 14-6.5 1.5-3.3 1.6-4.5.7-6q-1-1.9-.2-2.5c1.5-.9 1.2-7.5-.3-7.5-.7 0-3.2-1.6-5.4-3.5s-4.8-3.5-5.7-3.5q-1.7.1-1.6-3.5c0-4.7 4.2-9 7.2-7.4 1.1.6 3.6.8 5.5.4 3.5-.6 3.5-.7 3-4.7-.8-5.6-.1-6.8 3.9-6.8q3.4 0 4-1.5c.8-1.9 6.6-5.5 9.1-5.5 1 0 4-1.4 6.6-3a21 21 0 0 1 6.1-3c1.1 0 2.6-2 2.6-3.5 0-1.1-4.2-1-5.7.1-2.9 2.2-3.3 1.7-3.3-4q0-5.5 1.8-7.6c1.8-2.2 1.9-2.2 5.1-.6 1.8 1 3.9 1.5 4.7 1.2 2.4-.9 1.5-3.4-1.7-4.5q-3.4-1-2.4-2.8c.4-1 1-2.6 1.2-3.6.8-2.6 6.3-2.2 10.7.8 2 1.4 3.9 2.5 4.1 2.5.3 0 .5-2.9.5-6.5 0-5.7-.2-6.5-1.9-6.5-2.7 0-3.9-5.6-1.7-7.8 1.4-1.5 1.9-1.4 5 0 3.2 1.6 8.4 1.3 11.5-.6 1.9-1.2 1.2-3.9-1.6-6.1-2.1-1.7-2.5-2.7-1.9-4.8.8-3.5 5.4-6.7 6.6-4.7 1.4 2.3 5.8-.3 6.2-3.7.3-2.4.8-2.8 4.1-3.1 3.9-.3 4.2-1 3.7-7-.1-1.3 1.1-3.4 2.9-5.3 2.4-2.4 3.1-3.9 3.1-7 0-3.3.4-4 2.5-4.5q2.6-.5 2.5-3c0-2.5 3.5-4.2 6.5-3.1 2.1.9 7.5-1.2 11.7-4.6 3.1-2.5 3.9-2.7 5.8-1.7s2.4.9 3.2-.1a19 19 0 0 0 3.8-10.4c0-3.3.2-3.5 3.4-3.5q6.7 0 6.6-2.7 0-1.5-1.9-1-2 .5-2.4-1.5-.9-2.3 1.5-1.4 2.2.5 5.5-2.4c1.9-1.7 4-3 4.7-3q1.4 0 2-5.3c.4-2.9 1.6-6.6 2.6-8.2a12 12 0 0 0 2-4.8q-.2-1.7 3-1.7c3.2 0 3.3-.6 3.8-2.1l.8-2 1.8 2c1.8 2 5.6 2.8 6.8 1.5s-.6-4.5-2.8-5q-2.2-.7-2.4-2.4-.2-2.4-.6-3.4-.8-1.8 1-1c1 .4 3.3-.2 5.2-1.2 3.1-1.7 3.4-2.2 3.4-6.7 0-3.7-.4-4.9-1.7-5.3-4-1.2-4.6-2-4.6-6.4 0-2.5.3-5.6.7-6.8.6-1.8.3-2.7-1.4-3.9-3-2.1-2.3-5.7 1.2-6.1 3-.4 4.5-3.5 3.5-7.2a4 4 0 0 1 .7-3.3c1.5-2 6.5-3 8.1-1.7q1.3 1.2 1.8-.3t-4.9-4.7c-5.3-3.2-5.4-3.9-5.4-5.2 0-1-.7-3-1.6-4.3-1.5-2.3-1.4-2.7.7-7q2.3-4.4 4.1-4.5c1.1 0 2.8-.5 3.9-1 1.9-1.1 1.9-1.2.2-4s-1.6-3.1-.1-4.7c1.4-1.4 2.2-1.5 4.3-.5 4.5 2.1 8 1.5 9.5-1.6.7-1.5 1.2-3.5 1.1-4.5s.4-2.9 1.3-4.1c1.6-2.6.4-4.9-2-3.9-.8.3-3.2-1.3-5.5-3.6s-4.5-4.1-4.9-4.1-1.4-1.6-2-3.5-1.6-3.5-2.1-3.5c-1.6 0-4-7.3-3.3-10.3.8-4-3.6-10.7-7.1-10.7q-2.5 0-4.6-3.3c-1.7-2.7-1.9-4.1-1.3-8.7l1-8.5c.1-1.7.5-4 .9-5.1q.9-2.2-1.6-3.8c-2.2-1.5-2.4-2.4-2.5-11-.1-7.4-.6-10-2-12q-3.4-4.4-3.4-1c0 .9-1.1 2.7-2.5 4s-2.5 3.2-2.5 4.3c0 2.8-.8 3-7.2 1.9-4.9-.8-6.3-1.6-9.8-5.4-5.4-5.9-5.6-10.6-.5-16.3 4-4.4 4.6-8.8 1.7-11.4-2.3-2.1-6.6-2.2-9.7-.1q-5.6 3.9-9.2-3.6c-2.8-5.4-3-12-.5-14.3 3.9-3.8 7.9-6.4 10.5-7.1q3.1-.6 2.2-2.4c-.4-.9-1.1-3.3-1.4-5.2-.7-3.4-.8-3.5-5-3.2-3.4.2-4.9-.2-6.7-1.9-2.1-1.9-2.9-2.1-5.6-1.2-2.4.7-4.1.6-6.3-.3-1.6-.7-4-1.3-5.2-1.4s-2.6-.6-3-1.3a36 36 0 0 0-6.5-4.9c-5.9-3.9-6-4-7.3-14.3q-1.3-9.1-5.6-11.5c-3.3-1.8-11.2-4-21.8-6s-17.1-4.3-17.1-5.9q-.2-1-2.2-1.1c-1.3 0-4.1-1.2-6.3-2.5-4.8-3-4.7-3-7-.5m-235 702.4q-3 2.5-5.2 1.9-2.4-.6-2.3 1.1c.1 1.7-.6 1.5-2.3 1.1q-2.2-.7-4.5 1.8-2.3 2.4-4.3 2c-2.1-.6-5.2 1.4-4.3 2.8.2.5-.2 1.9-1.1 3.2-.8 1.3-1.2 2.7-.8 3q.4.7-.5.7-1.1.2-1.2 1.5c0 1.2.8 1.4 3.9.9 3.4-.5 4-.3 4.6 1.5.3 1.1.3 2.6 0 3.2-.4.6.2 1.9 1.3 2.9 1.8 1.7 2.1 1.7 4.2.3 1.8-1.3 2.7-1.4 4.2-.4 2.4 1.5 7-1.2 6.1-3.6-.4-.9 0-2.1.8-2.7s2.5-2.4 3.8-3.8l2.4-2.7-2.7-3.1c-3-3.6-3.3-5-1.1-5q1.4 0 1.5-2.4c0-1.4.5-2.8 1-3.1 1.2-.7 1.4-3.5.3-3.5-.5 0-2.1 1.1-3.8 2.4"/></svg>