<svg xmlns="http://www.w3.org/2000/svg" width="1365.333" height="1365.333" viewBox="0 0 1024 1024"><path d="m283.5 222.6-6.7 1.9c-4.2 1.2-5.9 2.2-6.4 3.8-.3 1.2-2.4 4.1-4.6 6.4q-7.2 7.3-13.7 3.8a15 15 0 0 0-5.1-1.5c-1.8 0-2 .6-2 6.8 0 4.9-.8 9.3-3 15.7l-3 9.2c0 .2 2.4.3 5.3.3 4.8 0 5.7.4 11.5 5l6.2 5.1v22.5l-4.7 6.8c-4.4 6.3-5.4 7.1-12.8 10.3a117 117 0 0 1-35.9 9.2 86 86 0 0 0-16.5 3.4c-18.2 15.5-19.6 16.9-27.7 29.8-4.5 7.1-8.7 13.5-9.3 14.2-.5.7-11.7 5.5-24.7 10.7-22 8.8-24.1 9.8-30.2 15.2a36 36 0 0 1-10.5 7c-3.2 1-4.4 2.1-6.8 6.4-3.9 6.9-11 13.4-14.6 13.4-1.7 0-4.6 1.4-7.1 3.5-2.4 1.9-7.2 5.1-10.7 7.1-5.9 3.5-6.4 4-8 9.3-1.6 5.5-2 5.9-8.6 9.6a24 24 0 0 0-10 8.7 39 39 0 0 1-7.1 7.9c-2.4 2-5.2 5.8-7.5 10.3l-3.6 7.1 1.7 7.2 1.8 7.2-4.7 8.5-4.6 8.5 4.3 2.4c26 14.9 26.3 15 35.5 13.1 2.9-.6 5.1 3 3.2 5.2q-1.1 1.4-.3 2.4c1.6 1.6 33.3 19.9 42.2 24.5 11.6 5.8 30.8 22.6 30.5 26.5-.2 2.1 1.7 13.3 3.3 19.2.3.9 2.4 3.1 4.7 4.8l4.2 3.1 15-.2c8.6-.1 17.8.3 21.5 1 5.8 1 7.1 1 11.9-.7l5.4-1.8 17.9 5.7a93 93 0 0 0 29.1 6.5c10.9.7 11.3.8 15.2 4.1 4 3.5 4.1 3.5 11.5 2.9 4.1-.3 17.4-.2 29.5.3 19.7.7 22.4.6 26.1-.9l4-1.7 3.8 3c4.2 3.3 8.1 4 21.2 3.8l8.2-.2 18.8 10.2a918 918 0 0 0 33 17c8 3.8 19 10.2 25.5 14.7 7.4 5.2 18 11.1 30.2 17 10.3 5 18.7 8.8 18.7 8.6s-1.2-2.1-2.6-4c-2.4-3.1-2.5-3.4-.7-3.4 1.1 0 3 1.1 4.3 2.5s2.8 2.5 3.3 2.5 2.5.7 4.4 1.7l3.5 1.6-2.9 1.2c-2.7 1.2-2.5 1.4 12.6 8.9a71 71 0 0 0 17.7 7.4c2.1-.3 1.6-1-4.7-6q-11.2-9.4-.6-3.4c2.3 1.3 6 2.7 8.2 3.1 3.6.5 4.3 1.2 7.2 6.4 2.4 4.3 2.9 6.1 2.1 6.9-1.4 1.4-2.4.6 9.9 8.1a152 152 0 0 0 54.4 19c18.7 3.3 40.8 8.3 68 15.5a94 94 0 0 1 27.5 10.4c6 3.3 11 5.7 11.2 5.2s-.2-2.6-.8-4.8c-1.5-5.8-6.5-9.8-13.2-10.7a30 30 0 0 1-9.3-3.1c-2.2-1.2-6.5-2.6-9.5-3s-7.1-1.5-9-2.4l-3.4-1.8 5.2-.7c2.9-.4 5.2-1 5.2-1.4s-3.5-4.1-7.7-8.4l-7.8-7.7-9.5 1.1c-5.3.6-9.9 1.6-10.5 2.3-1.3 1.6-7 3.6-10.3 3.6-1.4 0-4.4-1.1-6.6-2.4a31 31 0 0 0-9.3-3.1c-3.1-.4-5.8-1.4-6.9-2.6-1.6-1.8-1.6-1.9 1.2-1.9 1.6 0 3.5.4 4.3.9q1.5.9 4-.3a29 29 0 0 1 15.4-.1q1.9.8 3.5-.9c1.6-1.6 1.6-1.9 0-4.6l-1.7-3 3.2-.8q3.3-.8 3.5-3 1-4.7 3.8 1.2l1.6 3.3 9.2.7c10.4.8 11.5 1.6 20.4 13.3l4.7 6.3h8.6c6.5 0 9 .4 9.9 1.5 1.1 1.3.3 1.5-5.9 1.5-7.4 0-7.7.2-6.5 4.7.6 2.1 1.2 2.3 8.4 2.3 4.2 0 9.1.5 10.8 1.1 2.5.9 4.1.7 7.7-.6 4.8-1.9 5.6-3.7 3-6.5-2.2-2.4-3.2-9-1.4-9 2.5 0 3.6 1.4 8.3 10.7l4.6 9.2-3 6.3c-1.7 3.5-3 6.8-3 7.4 0 1.4 4.4 3.4 7.3 3.4 3.6 0 19.7-3.2 19.7-3.9q-.2-.6-2.6-2.2c-2.5-1.5-2.4-1.6 5.8-3.3 4.6-1 10.2-2.8 12.4-4.2l4.2-2.4.6 2.3c.9 3.4.8 3.5-2.9 4.7-3.2 1-3.3 1.3-2.3 3.6.6 1.3 2.1 2.7 3.2 2.9l15.2 3.5c19.5 4.5 29.8 5.2 55.1 4.1 18.5-.9 21.9-1.3 23-2.7 1-1.4 2.4-1.6 9-1.1 4.3.4 16.3 1.1 26.7 1.7s19.2 1.3 19.7 1.6 8.5 1 17.7 1.5 17.9 1.2 19.5 1.5c2.5.5 2.7.3 2.7-2.8 0-2.8-.7-3.8-5-6.7-8.5-5.8-7.9-6.4 13.8-15.6l18.7-8 11.8-11.5c14.4-13.9 14.4-13.9 3.4-24.6-6.4-6.3-8-7.4-14.2-9.3l-7-2.1-3.3-8.8c-2.7-7.1-3.1-9.3-2.3-11.5a144 144 0 0 1 15.2-23.7c1.4 0 1.1 1.8-.7 4.5-3 4.6-1.2 8.4 6.1 13.2 3.6 2.4 6.9 4.3 7.3 4.3 2.1 0 5.2-5 5.8-9.2.6-4.3.9-4.7 5.8-7.1a36 36 0 0 1 9.4-3.2c3.5-.6 4.8-1.5 7.7-5.2s3.5-5.5 3.5-9.3c0-4.2-.4-5-3.8-7.7-3-2.4-5-3.1-10.7-3.7-11.3-1.1-11.3-1.1-13.1-7.3a37 37 0 0 1-.9-14.3c.6-8.2 1-9.2 4.1-12.9 6.9-8.1 11.4-22 11.4-35.5 0-10 1.7-14.3 9.4-23.6 2.5-3 4.6-5.8 4.6-6.1s-1.6-2.6-3.5-5c-5.1-6.4-4.7-9.4 1.7-14.4 8.1-6.4 8.9-11.2 2.9-18.3a79 79 0 0 1-7.5-11.9c-3.2-6.5-4.1-7.5-9.8-10.7-5.6-3.1-6.9-4.4-11.3-11.7a45 45 0 0 0-6.7-9.3c-1.3-.8-3.6.3-11 5.2l-9.4 6.2-7.8-1.5a32 32 0 0 0-15.4-.1c-7 1.3-7.9 1.3-11.1-.4l-3.5-1.8-11.2 5.6c-10.4 5.1-11.6 5.5-15.1 4.6-3.3-.8-4.2-1.7-7.7-7.9-10.7-19.3-15.6-29.8-15.6-33.5s-.1-3.8-7.1-6.9c-8.3-3.6-9-3.6-21.7-1.5a39 39 0 0 1-18.7 0c-11.1-2-18.5-2.1-18.5-.4 0 .7.9 4.2 2.1 7.8 1.9 6.2 1.9 6.6.2 9.7-1.9 3.6-6.9 5.9-10.7 4.9-1.8-.4-3.2.4-6.5 3.9-5.3 5.7-8.1 7.1-15.6 7.8-9.1.9-19.1 4.4-23.3 8.1-7.1 6.2-8.3 6.6-19.2 6.6-9.6 0-10.4.2-14.5 3a15 15 0 0 1-7.9 3c-2 0-3.8.6-4.3 1.4s-2.4 1.7-4.3 2c-3.2.6-4 .2-9.1-4.4-4.8-4.2-5.9-5.8-7-10.2-.6-2.9-2.5-9.1-4-13.7a42 42 0 0 1-2.5-9c.2-.3 1.1-3 1.9-5.8 1.6-5.2 1.6-5.3-.9-8.2-1.5-1.8-5.3-4-9.5-5.7a45 45 0 0 1-10.3-5.8c-6.4-6.3-8.8-7.6-13.6-7.6q-4.8 0-6.4-1.8-4.6-5.2-18.1-3.1c-9.6 1.4-11.6.6-16.2-6.7-2.8-4.3-2.9-4.4-8.3-4.4-3 0-7.7-.8-10.5-1.9-4.3-1.6-5.1-2.4-6.3-5.9-1.2-3.8-1.2-4.3 1.2-8.1a19 19 0 0 0 1.8-14.9c-.7-2.2-.7-2.2-6.6 1.5l-5.9 3.7-4.7-1.7a96 96 0 0 0-12.6-2.9c-9.2-1.3-11.6-3-13.4-9.5a68 68 0 0 0-22.6-29.9c-6.3-4.6-8-5.4-11.7-5.4-9.1 0-20.7-5.7-20.7-10.1 0-4.7-3-8.9-9.8-13.8-9.2-6.7-12-11.1-13.7-21.6-.7-4.5-1.8-9.1-2.3-10.2-.6-1-4.8-3.9-9.4-6.5a32 32 0 0 0-18.3-5.3 41 41 0 0 1-23-7.1 31 31 0 0 0-12.1-4.3c-4.2-.6-12.8-3.4-21.6-7a68 68 0 0 0-22.4-6.7l-7.9-.6-16-10.3c-21.3-13.7-23.8-14.4-32.5-10-6.1 3.1-6.9 3.1-12.8.1-2.6-1.3-5.1-2.2-5.7-2"/></svg>