<svg xmlns="http://www.w3.org/2000/svg" width="1365.333" height="1365.333" viewBox="0 0 1024 1024"><path d="M94.4 224.1a7 7 0 0 0-.8 7.9c1.1 2.3.8 2.9-2.6 6.7-2.8 3.2-4 3.9-4.9 3q-1-1.3-2.5.3c-3 3.3-4.9 15.1-2.6 16.5q.8.6.4 1.9c-.3.8.2 2.9 1.2 4.8s2.1 5.3 2.5 7.8c.6 3.7.4 4.9-1.3 6.7-1.6 1.7-1.9 3.1-1.5 6.5.9 8 2.7 11.3 7.6 13.9l4.6 2.4-.2 5.2a27 27 0 0 1-2.6 10c-2 4-2.2 5.5-1.4 8.8 2.3 10.6 2.2 11.7-2.7 20.3a65 65 0 0 0-4.6 9.1q-.1.9-1.4 1.4c-1.3.5-1.6 3-2 7-.9 8.9-3.9 17-8.1 21.9-3.8 4.5-4.2 6.3-2 9.2 1.7 2.3 2 7.2.5 8.1-.5.3-1 1.3-1 2.2a37 37 0 0 1-7.9 15.1q-2.2 1.1-2.1 4.6c0 1.9-.4 3.7-.9 4.1a27 27 0 0 0-3.6 5.3c-2.5 4.4-2.6 5.3-2 12.4.6 6.9.5 8-1.4 10.4-2.4 3.1-2.7 6.6-.6 8.4 1.7 1.4 1.2 4.6-2.1 14.4-2.8 8-6.7 13.6-9.5 13.6-1.1 0-2.3 1-2.8 2.2a40 40 0 0 1-14.4 15.2c-12.5 9-15.3 13.3-10 15.6 5.1 2.1 7.3 3.4 7.9 5 .4.8 1 8.5 1.3 17.1.5 13.5.9 16 2.5 17.8s1.7 2.5.8 4.7c-.7 1.3-1.2 4.8-1.2 7.7.1 4.8.2 5 1.5 3.3.8-1.1 1.7-3.6 2.1-5.5.3-2 .9-4.8 1.4-6.3.7-2.1.4-3-1.6-4.9-3.1-2.9-3-4.4.6-9.8 3.3-4.9 3.7-6.6 1.6-7.8-2-1.2-4.6-6.8-4.6-10 0-1.6-.8-4.5-1.9-6.5-1.9-3.8-1.8-8.8.2-8.8.6 0 1.8-.6 2.6-1.4s2.9-1.6 4.5-2l2.9-.7-.7 5.4q-1.3 11.9 3 11.7c2.1 0 2.4.5 2.4 3.6s.3 3.5 2 2.9q1.8-.5 2 .3c0 1.2-2.7 8-4.1 10.6-5 8.7-8.9 23.5-5.5 20.7.8-.6 1.6-2.4 1.9-3.9.6-3.3 2.8-9 6.1-16.2l2.6-5.5-.7 5.5c-.3 3-.9 6.2-1.3 7s-.4 2.6-.1 3.9c.6 2.1.8 2 2.9-2.1 1.5-3.2 2.2-6.3 2.2-10.6 0-4.4.4-6.1 1.5-6.6 1.3-.5 1.5.2.9 4.3l-.6 4.9 4.3-.9q8-1.8 7.9-6.6c0-2.2.3-2.4 3-1.8s3 .4 3-2q-.1-2.9 1.8-2.3 3.6.8.6 10.3c-1.9 6.1-1.4 11.7 1.2 14.6 2.3 2.6 1.4 13.8-1.7 20.1q-2.1 4.5-1.5 6.4c.6 1.5 1.7 0 4.9-6.6a33 33 0 0 0 4.5-18.4c.3-8.1.7-9.9 2.1-10.3 1.3-.3 1.5-1.4 1.2-5-.2-3.5 0-4.4 1-4.1q1.3.6 1.7 2.4a50 50 0 0 0 2.1 6.4c1.1 2.5 2.7 6.6 3.6 9.2l1.6 4.6 3.4-2.1c3-1.9 3.4-2.7 3.5-6.4 0-2.3.5-5.4 1.2-6.8 1.4-3.2.4-4.3-2-2.2-2.7 2.5-3.2 2.1-3.2-2.3s.1-4.6 3.5-2.4c2.7 1.7 4.5 1.2 4.5-1.4 0-.9.4-2.3.9-3.1.7-1.1 1.5-1 4.1.9q3.3 2.4 4.3 1.1c1.2-1.2-1.4-4.7-4.4-5.6q-1.8-.7-1.9-1.7-.3-1.6-2.9-4.3c-4.2-4.8-5.1-12.2-2.1-17 1.5-2.5 2.1-4.7 1.8-7.6-.2-3.2.1-4.4 1.6-5.3q2-1.4 2.4.3a17 17 0 0 0 2.8 3.8c1.8 1.8 2.4 3.5 2.4 6.6 0 2.4-.5 4.8-1.1 5.4-1.1 1.1 1.1 9.4 3.1 11.8.5.6 1.2 3.1 1.5 5.5.4 2.5 1 5.6 1.5 7 1.4 4.1 2 12 1 12-.5 0-1.4-1.8-2-4.1-1-3.5-1.4-4-3.4-3.5a6 6 0 0 1-4.4-1c-4.8-3.3-5.8 1.7-1.2 6.1 3.4 3.3 4.8 7.1 6 16.5.5 3.6 1.4 8.4 2.1 10.7q3.8 12.2-19.2 55.5c-2.3 4.5-2.6 5.5-1.8 8.3.5 1.6.7 7 .6 12-.2 8.4-.4 9-2.4 9.3q-2 .4-3.4 3.4l-1.3 3.1-.9-2.7c-1-3-4.3-3.3-4.1-.3l.2 8.8.2 7.1 2.5-1.6c2.4-1.6 2.5-1.5 2.5.2 0 1-1.1 2.9-2.5 4.2s-2.5 3.2-2.5 4.2a29 29 0 0 1-9.3 13.7c-1.3.5-3.2 2.2-4.2 3.8-2.3 3.6-6.6 8.3-7.7 8.3-1.4 0-.9-5.7.7-7 .8-.7 1.5-2.1 1.5-3.1s.9-2.4 2-3.1c2.7-1.7 2.7-5.8 0-5.8-1 0-2.4.8-3 1.7q-1.2 1.9-1.6.6c-.8-1.9-8.4-.5-11.1 1.9-2.4 2.2-4.9 7.5-4 8.5.4.3 1.5 0 2.4-.7 1-.7-.4.8-3 3.3-4 4-7.7 6-7.7 4.2 0-1.2 2.4-5.5 3.2-5.5.4 0 1.6-1.5 2.5-3.4l4.2-7.7q2.5-4.5.7-3c-2.1 1.8-2 1.2.8-5.4 1.4-3 2.2-5.5 1.7-5.5-2.6 0-8.1 8.6-8.1 12.8 0 2.8-2.3 6.9-7.5 14-4.6 6.1-6.1 6.7-8.9 3.7-1.3-1.4-2.8-2.5-3.5-2.5-1.3 0-1.4-1.2-.2-6.3q1.7-7.8-3.8 1.7l-3.1 5.5-5.7.3-5.8.3v7l7 .8q11.9 1.2 8.7 5.7c-1.4 2.2-1.1 2.6 6.5 9 3.6 3.1 4.3 4.3 4.8 8.6.7 4.9.6 5.2-2.6 7.7l-3.4 2.7h2.6c1.4 0 3.4-.9 4.3-1.9 1-1 3.3-2.2 5.1-2.5 5.9-1.1 10.4-4.1 18.8-12.2 1.9-1.8 4.8-3.4 7-3.8 2-.4 4.5-1.5 5.5-2.5s3.4-2.1 5.5-2.5 4.7-1.6 5.8-2.7c1-1 2.8-1.9 3.9-1.9s3.2-.7 4.5-1.6a13 13 0 0 1 6.2-1.4c6.2.3 6.9.1 10.7-2.9 2.6-2 5.2-3.1 9.3-3.6a41 41 0 0 0 9.1-2.1c1.8-.7 5.7-1.6 8.5-2 2.9-.4 5.7-1 6.2-1.4s4.4-1.2 8.5-1.9 8.9-1.7 10.5-2.3c2.4-.8 4.2-.6 9 1.2 3.3 1.2 7.4 2.5 9.2 2.7 4.4.7 9.9-2.7 10.6-6.6l1.3-5.5c.5-2.2.3-2.5-1-2-1 .4-2.6-.1-3.9-1.3s-3-2.3-3.9-2.6c-1-.4-1.8-1.6-1.8-2.7s-.6-2-1.4-2-2.9-1.3-4.7-3a32 32 0 0 0-6.6-4.5c-1.8-.9-3.3-2-3.3-2.5q-.1-1-1.4-1c-.7 0-1.6-.9-1.9-1.9q-.5-1.9-3.3-2.3c-2.3-.2-3-.9-3.2-3s-1-2.9-3-3.3c-1.5-.3-5-1.7-7.7-3-7-3.5-16.5-3.5-21-.1a38 38 0 0 1-16.2 4.6c-2.2 0-1.5-3.5 1.2-6 2.8-2.7 3.1-4.4 1.1-9-1.6-3.9-.4-10.6 2.4-13a15 15 0 0 0 3-3.9c1.2-2.3 1.1-2.3-1.4-1.7s-2.6.5-2.6-3.9c0-4.7 2.5-8.5 5.5-8.5q1.4-.2 1.5-2c0-2.5.8-2.5 3.9-.1 2 1.5 2.2 2.1 1.2 3.9a18 18 0 0 0-1.1 6.6c0 3.9.3 4.6 1.9 4.6 3 0 5.1 1.1 5.1 2.6q0 1.3 1 1.4c1.6 0 4.4 6.3 4.1 9.2q-.3 2.6 1.8 3.8c1.7.9 2.1.8 2.1-.5q.1-1.4.8-1.5c.5 0 1.5-1.8 2.2-3.9 1.4-4.3 1.6-3.8-8.2-15.6q-4.7-5.5-1.3-8.5 1.4-1.2 1.5-2.5c0-1.5-4.3-3.5-7.6-3.5q-2.6 0-3.1-2c-.5-2-1.4-2-2.9-2-2.8 0-2.9-.5-.8-5.6 2-4.7 2.9-5.4 7.6-5.4 3.2 0 3.9.4 4.4 2.5 1 3.9 3.1 5.1 5.4 3 2.1-1.9 2.6-5 1-6s-1.2-4 1-6.8c2.7-3.4 2.7-5.1-.1-3.7-3.1 1.7-3.8.2-.9-2 2.1-1.6 2.3-2.2 1.4-3.8q-1.2-1.8-.3-6.3l.9-5.2q.2-.7 2.1-.7t3.5 3.6c1.5 3.6 1.5 3.7-1.2 6.5-3 3.1-2.5 5.1.6 3.1 2.6-1.6 3-1.5 3 .8 0 1.1.9 2.5 1.9 3.2 1.8 1.1 1.8 1.3.3 2.5s-1.5 1.4-.2 2.3c3.4 2.2 4.1-.2 2.6-8.8-.7-3.8-.6-4.2 1.3-4.2 1.1 0 2.3.4 2.6 1 .9 1.5 4.1 1.2 5.5-.5 1.7-2.1 3-1.9 3 .5 0 2.7 2.9 3.8 4.5 1.7q1.8-2.6 7.1-1.1 2.3.5 1.6 2.7c-.5 2-.4 2.1 1.2.7 1.6-1.3 2.1-1.1 4.5 1.8 1.4 1.8 3.4 3.2 4.4 3.2 1.3 0 1.7.8 1.7 3.2 0 5.6 1.3 6.5 5 3.5 4.1-3.5 6.5-3.4 8.7.3.9 1.6 2.3 3 3 3s2.3 1.1 3.5 2.5c1.7 2 3.1 2.5 6.9 2.5s4.7.3 4.3 1.5q-.8 1.3-2.9 1.5c-4.6 0-8.5 1.3-8.5 2.8 0 1.1.9 1.4 4.5 1 3.8-.5 4.5-.3 5.1 1.4.5 1.8 1.2 1.9 7.7 1.3q20-1.8 37.3 1.9c9.5 2 11.3 2.1 12.9 1 1.9-1.4 10-1.9 12.9-.8.9.3 1.6 1.7 1.6 3.1a12 12 0 0 0 2.5 5.7c2.8 3.7 3.2 8.6 1.5 17.7l-1 5.4 3.7 3.2c3.1 2.6 4.7 3.2 8.4 3.3q4.5 0 5.9 1.5c.7.8 2.2 1.5 3.4 1.5q2.1.2 3.8 3c1 1.7 2.5 3 3.6 3 2.2 0 14.7 8.8 16.6 11.6 2 2.9 2.6 6.7 1.8 9.9l-.8 2.9-4.1-5.4c-10.9-14.6-20.6-20.7-12.4-7.8 1.6 2.5 3.4 4.9 4 5.2.6.4 1.1 1.6 1.1 2.6 0 1.1.9 2.4 2 3s2 2 2 3.1q.1 2 2 2.6c1.1.3 2 1.4 2 2.4s.6 2.2 1.4 2.6a69 69 0 0 1 6.7 7.2c4.5 5.4 5.1 6.6 4.1 8.2a9 9 0 0 0-1.2 4.3c0 1.9-.8 2.7-3.5 3.6q-3.5 1.2-3.5 3.1.1 1.7 1.5 1.9c2.2 0 1.8 2-1 4.6a7 7 0 0 0-2.5 5.2c0 1.6-.9 4.1-2 5.5-1.4 1.8-2 4-2 7.8 0 3.3-.6 5.9-1.5 6.9-1.9 2.1-2.3 11-.8 16.7 1 4 .9 4.3-.8 4.3-1.1 0-2.3-.8-2.6-1.8-1.2-3.2-5.3-6.2-8.6-6.2-3.9 0-10.7-6.2-10.7-9.8q.2-3.8-6.7-3.6c-1.8 0-3.3-.5-3.3-1.1s-1.1-1.7-2.5-2.3-2.5-1.9-2.5-2.8c0-2-8.4-10.4-10.4-10.4q-1.5-.1-1.6-1c0-1.6-8.1-10-9.1-9.4-.5.2-.6 1.9-.2 3.6.5 2.8.4 2.9-1.4 2a48 48 0 0 1-11.6-11.4c-.3-1-1.9-2-3.4-2.4s-3.7-1.5-4.8-2.4a24 24 0 0 0-5-3.3c-1.6-.8-4.6-3.1-6.4-5.1s-4-3.6-4.6-3.6-1.9-1.3-2.8-3c-1-1.7-2.3-3-2.9-3-.5 0-3-1.8-5.5-4s-5.1-4-5.8-4-1.9-1.8-2.8-4q-1.5-4.2-3.6-4c-1.1 0-2.5-.8-3-1.8-.6-1.1-3.2-4.3-6-7.2-4.7-5.1-5.1-5.4-9.4-5.1l-4.4.2-1.2-4.5c-.6-2.5-1.7-4.6-2.4-4.6-2.8 0-9.7-9.6-9.7-13.4 0-.8 1.1-2.7 2.4-4.3 2.5-3.1 2.4-5.3-.3-5.3-2.2 0-5.1-3.1-5.1-5.3q0-1.5-1-2.2c-.5-.3-1.7-2.3-2.7-4.3-1.6-3.2-1.8-3.4-2.1-1.5-.5 3.2-4.8 6.3-8 5.7-3.6-.6-7.8 3.2-8.4 7.6-.4 2.6.3 4.5 3.4 9.1 2.1 3.2 3.8 6.5 3.8 7.3s.6 1.9 1.3 2.3 2.7 3.2 4.2 6.1c3.6 6.7 13.9 14.7 17.3 13.5.7-.3 2.9.5 5 1.7a16 16 0 0 0 7.3 2.3c3 0 4.1.7 7.5 4.8 2.4 3 4.7 4.8 6.1 4.9 1.2 0 2.4.8 2.7 1.8s3.1 3.7 6.1 6.1 5.5 5 5.5 5.7q.2 1.3 1.5 1.4a3 3 0 0 1 2.2 1.3c.4.8 1.5 1.6 2.4 1.9.9.4 2.2 2.8 2.9 5.5 1.6 6 2.6 7.3 5.6 7.3 1.3 0 2.9.9 3.6 2s2.3 2 3.5 2q2.2 0 2.3 1.5.1 1.3 1 1.5t1 1.5c0 1.3.9 1.5 2 1.5q2 0 2 2.1.1 2 2 2.6c2.5.7 2.6 3.3.2 3.3a6 6 0 0 1-5.4-4q-.3-1.5-4.5-1.2-4.2.5-4.6-1.2c-.3-.8-2.2-2.2-4-3a13 13 0 0 1-5.3-4.5c-1-1.8-2.9-3.4-4.1-3.7q-2.1-.7-2.3-2c0-1.7-7.9-5.4-11.4-5.4-3.3 0-3.4 2.4-.2 4.5 1.3.9 2.6 2.5 2.9 3.5q.6 1.9 2.6 2c1.1 0 2.6.9 3.3 2s1.8 2 2.5 2 1.3 1.1 1.3 2.4c0 1.9.6 2.5 2.7 2.8 2 .2 2.9 1.1 3.8 3.8q1.2 3.6 4.1 4.3l5.9 1.9c1.7.6 8.9 1.4 16.2 1.7 12.1.6 13.4.8 15.7 3 2.8 2.7 3.5 6.1 1.1 6.1-.8 0-1.9.8-2.4 1.9-1.8 3.2 2.9 4.5 17.9 5.1 10.8.4 13.4.8 13.2 1.9-.7 3.1 1 7.1 2.9 7.1 1.6 0 1.8.5 1.3 2.5s-.1 2.6 1.9 3.4c2.5 1 4.7 5.4 4.7 9.6q0 2.3-2.5 2.9c-3 .8-3.3 2.6-.6 3.3q1.8.6 2.4 2.4c.7 2.5 2.8 2.4 8.6-.5q7.1-3.8 7.1 1c0 2.7 5.1 2.1 12.2-1.4 6.3-3.1 8.5-3.7 15.9-4 5.5-.2 9.5 0 10.9.8 3 1.6 9.2-1.5 8-3.9-5-10.2-5.1-13-.5-17.5 1.9-2 3.5-4.1 3.5-4.8s.9-3.8 2.1-6.8c3-8 3.8-10.7 5.5-18.9 2.1-9.8 4.4-15.3 6-14 1 .8.8 1.8-.6 4.2-2.1 3.6-3.6 16.5-2.2 18.6 1.8 2.6 3.5.1 2.8-4.1-.5-2.8-.1-5.2 1.3-8.4 2.2-4.9 3-5.3 4.9-2.4.7 1.1 1.9 2 2.7 2q1.4 0 1.5 2.5c0 2.4 3.4 5.3 4.3 3.8.3-.5.2-4.1 0-8.1-.6-7.2-.6-7.2-3.5-7.2-2.3 0-2.8-.4-2.4-1.8l1.2-4.7a89 89 0 0 1 28.9-40.6c13.6-8.6 15.8-9.2 15.3-4.1-.2 2.1.1 2.7 1.7 2.7s2.1-.8 2.3-3.3c.3-3.1.5-3.2 4.5-3.2 2.3.1 5.3.7 6.7 1.5 3.2 1.8 8 1.9 8 .2q-.2-1.4-2.2-2.5l-2.3-1.1h2.2c1.2-.1 3.3.3 4.7.9 1.4.5 2.6.6 2.6.2s-1.5-1.2-3.2-1.7q-5.8-1.9.6-4c6.4-2.1 3.9-2.8-1.4-4.4-11.2-3.4-12-4.6-1.7-2.7 5.4 1 6.7 1 6.7 0q0-1.3-1-1.9c-.5-.3-1-1.9-1-3.6 0-2.4-.4-2.9-2.4-2.9-1.3 0-6.5-2.2-11.7-4.8-7.1-3.6-9.5-5.3-9.7-7q-.4-4.5 11-4c4.8.2 6-.1 7.8-2 2-2.2 5.3-2.8 8.4-1.6 2.6 1 1.9 2.7-2.9 7.4-2.5 2.4-4.5 4.8-4.5 5.2s1.5.8 3.4.8c2.7 0 3.9.7 5.6 3 2.3 3.3 4 3.9 4 1.5 0-.8.6-3.3 1.2-5.5 1.2-3.9 3-5.1 4.3-3q.7 1 2.5 1c1.8 0 2 1 2.5 2.7a17 17 0 0 0 2.5 5.3c1.7 2.4 1.7 2.8.4 4.2-1.2 1.2-1.3 2.2-.3 5.9a87 87 0 0 1 1.1 21.6c-.2.7-1.5 1.3-2.8 1.3-2.7 0-3.2-2.6-1.1-6.1 1-1.7 1-2.3 0-2.6-.7-.3-1.3-1.7-1.3-3.3q0-6-3.1-6-1.9 0-1.9-1.9c0-1-.7-2.5-1.6-3.2s-2-2.4-2.5-3.6c-.7-2-1.2-2.2-2.9-1.3-1.8 1-2 1.7-1.4 5.6q.6 4.4-.6 6-1.4 1.5-.2 2.6c1.2 1.1.8 1.7.1 3q-2.3 4.6 3.4 4.8c4 0 7.1 2.8 6.1 5.5-.9 2.1 1.1 3.5 5.2 3.5 3.4 0 10 5.9 7.6 6.7-1 .4-1 1 .3 2.9 1 1.5 1.7 5.6 2 11.1.8 13.2 1.5 17.6 3.5 19.8.9 1.1 2 2.8 2.3 3.7 1 2.8 8.1 2.4 10.8-.5l3-3.2a62 62 0 0 0 10.9-12.2c0-.6 3.3-2.7 7.3-4.7a35 35 0 0 1 17-4.2c7.9-.6 9.7-1 9.2-2.1l-.5-1.9q-.2-.4-2-.4c-2.5 0-14-5.7-14-6.9a28 28 0 0 0-4-6c-4.1-5.1-4.9-7.5-3-8.6 1.7-1.1-.9-3.5-3.7-3.5-1.3 0-5.6 1.6-9.4 3.6s-7.2 3.4-7.5 3.1c-.9-.9 3.9-6.8 6.9-8.3 1.5-.8 2.7-2.2 2.7-3q0-1.7 1.8-.9a31 31 0 0 0 15.1.6 9 9 0 0 0 3.9-3.7c.9-1.8 1.9-2.4 4.4-2.4 3.9 0 5.1.7 6.7 3.7q1.3 2.3.1 4.2c-.5 1.1-1 3.2-1 4.8 0 6.8-2.4 9.3-9.9 10.3l-4.3.5 4.1 4.7a19 19 0 0 0 11 6.7c3.8 1.2 7.5 2.1 8.3 2.1.7 0 2.2.7 3.3 1.5 1.9 1.5 1.9 1.6-.3 3.7-2 2-2.5 2.1-4.4.9-2.1-1.3-2.5-1.1-6.1 3l-3.8 4.3 4.3 2.3c6.8 3.5 9 3.1 13.1-2.6 2-2.7 5.3-6.2 7.4-7.7 2.1-1.6 4.4-3.7 5.1-4.6.7-1 1.9-1.8 2.7-1.8.7 0 3.2-1.5 5.4-3.4s5.8-4 7.9-4.7c2-.6 4.9-2 6.3-3q6.3-4.5 20.5-5.5c7.3-.5 9.6-.4 12.2 1 1.7.9 4.7 1.6 6.6 1.6q8.4 0 8.6 5.2c0 4.2 4.1 5.9 7.3 3.1 3-2.7 5.8-3.3 19.8-3.9l11.9-.5v2.9c0 1.7.6 3.2 1.4 3.5s1.6 1.8 1.8 3.4c.2 2.2.9 2.9 3.1 3.1 1.5.2 2.7-.1 2.7-.5s.6-1.8 1.4-2.8c1.3-1.9 1.4-1.9 3.7.3 1.3 1.2 3.3 2.8 4.3 3.5 2.7 2 1.5 8.4-2 9.7-1.3.5-2.4 1.4-2.4 1.9 0 1.3 9.4 4.1 13.8 4.1q3.4 0 5.1 2.1l1.7 2.2 2.7-2.7c2.2-2.2 3.1-2.5 5.9-1.8 1.8.4 5.8.7 8.8.7 5.4 0 5.4 0 6.5-3.7 1.5-5.4 4.1-7.5 11-9.1 8.5-1.9 8.2-4.1-.6-4.5-5.9-.3-7.5.1-14.1 3.2-5.9 2.9-8.1 3.4-11.1 2.9-3.3-.5-4.1-1.2-6.2-5.2-2.6-5.2-5.6-7.1-11.3-7.1-2.3 0-5.1-.9-7.4-2.5-2-1.4-4.1-2.5-4.6-2.5s-1.3-1.6-1.6-3.5c-.7-3.7-1.5-4.1-4.5-2.5-1.4.7-2.3.4-3.6-1-1.4-1.6-2.6-1.9-5-1.4-4.2.7-5.7-2.2-2.6-4.8q3.4-2.5 1.1-6.9c-.9-1.5-2.2-1.9-7-1.9-3.2 0-6.2-.5-6.5-1-.8-1.3-4.2-1.3-5 0q-.5 1.1.5 2.5c1 1.4.9 1.8.7 2.3q-.5.8.3 2.2c1.2 2-8.9 5.4-12.3 4.1q-2.3-.9-4.1.1c-1.8 1-2.1.6-3.1-.2s-2.2-.7-5 .4c-3.4 1.4-3.9 1.4-7.4-.4-3.3-1.7-3.7-2.2-3.3-4.9q.4-3-.8-3.1c-.7 0-2.7-.7-4.6-1.6-4-1.9-9-1.3-12.7 1.6-2.8 2.2-11.7 2.9-11.7.9 0-1.8-6.5-.4-10.1 2.1a18 18 0 0 1-7 2.7 12 12 0 0 0-6.2 2.9c-1.2 1.3-2.7 2.4-3.3 2.4-2.8 0-6.4 4.2-6.4 7.4 0 4-2.5 7.6-5.2 7.6-1.2 0-3.6-1.1-5.4-2.5s-3.6-2.5-4.1-2.5a6 6 0 0 1-2.2-.9c-1.1-.7-.6-1.8 2.8-5 4-3.8 4.6-4.1 10.1-4.1 3.4 0 6.2-.5 6.6-1.2.7-1-1.4-3.2-4-4.1-2.5-.9.7-2 5.4-1.8s5 0 5-2.4c0-2.1.5-2.5 2.9-2.5 1.7 0 3.3-.5 3.6-1s2.1-.8 4.1-.4c3.2.6 3.4.4 3.4-2 0-2.6 1.3-3.5 2.5-1.5 1.5 2.3 13-1.9 14-5.1q.7-1.8 1.5-2c1.5 0 5.5-4.3 6.8-7.3 1.2-2.8 1.3-2.9 7.2-2.2 9.1 1.1 13.1 0 15.9-4q2.4-3.4 6-4.6c2.9-.9 4-1.9 5.4-5.3.9-2.2 1.7-4.9 1.7-5.9s.7-2 1.5-2.3q1.4-.7 1.5-2 0-1.4 3.6-1.4c1.9 0 4.3-.4 5.3-.9 2.1-1.2 9-1.4 14.4-.5q3.9.5 6.4-.7c2.4-1.3 9.1-1.5 26.9-.8 4.4.2 5.6-.2 9-2.9 2.2-1.7 5.5-3.5 7.4-3.8 1.9-.4 6.5-2.7 10.3-5.1a24 24 0 0 1 9.9-4.3 12 12 0 0 0 6.3-2.5 35 35 0 0 1 13.6-5.5c.8 0 3-1.6 4.9-3.5s4.3-3.5 5.5-3.5q4.3-.2 4.5-5c0-2.2.6-2.8 4-3.6l3.9-1.1-1.9 2.7a19 19 0 0 0-2.6 5.6c-.3 1.6-1.7 4-2.9 5.4-1.7 1.8-2.4 4.1-2.8 8-.5 6.5-9.7 28.8-14 33.9a12 12 0 0 0-2.7 5.5c0 2.8-1.8 4.6-4.5 4.6-3.2 0-6 6.7-5 11.7l1.2 6.6c.3 1.5-.2 4.2-1.1 6.1s-1.6 3.9-1.6 4.4 2 3.7 4.5 7q4.4 5.9 3.9 7.6c-1 2.5-3 1.9-4.4-1.4-1-2.5-1.8-3-4.6-3s-3.4.4-3.4 2c0 2.8-2.5 3.5-5.5 1.6-3.2-2.1-3.5-2.1-3.5 1.1q.1 7.6 6 7.9c1.9 0 5 .7 6.7 1.5 2.9 1.2 3.6 1.1 6.3-.5l3.1-1.7 1 3c1.4 3.9 4.2 4.1 12.7.6 3.4-1.4 7.3-2.5 8.7-2.5 3.9 0 6.5-1.8 6.5-4.4 0-1.5 9.9-17.4 24.8-39.8 13.6-20.5 25.8-40 27.1-43.3s6.1-13 10.6-21.5c10.1-19 11.7-22.6 16.6-36.4 3.9-11.1 6.8-15.4 12.1-18.2 3.2-1.7 7.1-.5 8.8 2.6s6.2 2.6 10.6-1.2c2.1-1.8 6.6-7.6 10-12.8q10.7-16.2 16.4-17.2 2.5-.2 5.5-5c3.6-5.6 7.4-6.5 9.3-2.3 1.2 2.5 3.2 3.4 3.2 1.4 0-.6 1-1.9 2.1-2.8q2.2-1.6 2.6-6.8c.5-4.4 1.1-5.7 4.9-9.4 5.8-5.7 5.8-7.3-.1-6.4-4.2.6-4.9.4-8.2-2.5-2.9-2.6-4.1-3.1-6.7-2.6-3.3.7-6.4 3.1-5.3 4.2.4.4 1.8.2 3.2-.4 2.1-1 2.8-.9 4.3.6 1 .9 2.9 2.5 4.2 3.4 2.1 1.5 2.3 1.9 1 2.8-.8.6-2.6.8-4 .5l-9.9-1.9c-4-.8-8-2.1-8.8-2.9-1.3-1.3-1.2-1.4 1.3-.9l2.7.5-2.2-3.1c-1.2-1.7-3-3.3-3.9-3.6-1-.4-2.6-2.3-3.5-4.4-.9-2-3.4-4.9-5.5-6.3-3.7-2.7-3.8-2.7-6.1-.8-1.3 1-3 1.9-3.9 1.9-2.2 0-10.2-4-10.2-5.1q-.2-.8-1.9-.9c-1.7-.1-2.1-.6-2.4-1.4s-1.8-2-3.4-2.8q-3-1.3-3.3-4.5a9 9 0 0 0-3.2-5.2 12 12 0 0 1-3.3-5.2 16 16 0 0 0-2.8-5.3l-4-4.5-1.7-2.2-5.3 4q-5.3 3.9-4.9 5.7.7 5 5.2 2.2c1.6-.9 3.2-1.3 3.4-.9.3.4-1.1 1.3-3 2s-3.4 1.7-3.4 2.2c0 2.2 2.1 4.9 3.3 4.2q1.2-.7-.1.9c-1 1.2-1 2.1-.1 4.2 1.5 3.3 2 3.3 5.9-.4 1.8-1.7 3.5-2.8 3.7-2.6.3.3-1.1 1.9-3.1 3.6s-3.6 4-3.6 5c0 5.3-2.3 1.7-6-9.6-4.1-12.2-4.2-12.7-3.5-21.5.6-7.8.9-8.9 2.6-8.9 2.4 0 2.6 4.7.4 7.6-1.4 1.8-2.1 6.4-.9 6.4.3 0 2.6-1.4 5.1-3.1 3.5-2.4 4.4-3.6 4-5.3-.3-1.1-.9-6-1.2-10.8-1-11.6-1.7-11.9-12.7-4.4-3.4 2.3-7 5.9-8.9 8.8a48 48 0 0 1-8 9.1q-5 4.4-5.2 7.2a30 30 0 0 1-7.8 14.4c-2.2 2.4-3.9 4.9-3.9 5.6s-2.9 4.7-6.4 8.9c-6.4 7.7-6.4 7.8-7.1 15.4-.9 11.6-1.3 12.5-6.1 18.2-2.4 2.8-4.4 5.6-4.4 6.1s-1.6 2.7-3.5 4.8a14 14 0 0 0-4.2 9.2c-.6 4.9-1.2 5.8-7.2 11.9-11.5 11.4-12.1 11.7-24.6 12.9a649 649 0 0 0-33.7 3.9c-4.7.6-7.4 1.4-9 2.9a18 18 0 0 1-7 3.3c-2.9.8-6.5 2.7-9 4.9-2.4 2.1-7.2 5.7-10.8 8.1s-9.6 7-13.5 10.1a167 167 0 0 1-30 18.4 52 52 0 0 0-11.6 7.8c-2.1 2-4.5 3.7-5.4 3.7s-3.3 1-5.2 2.1c-3.2 2-4.3 2.1-14.5 1.5a50 50 0 0 1-19.7-4.2c-4.7-1.9-10.8-4.8-13.6-6.3-16.6-9.7-25.4-13.9-29.8-14.6l-4.7-.6-8.3 7.6-8.2 7.6-7-.6c-3.8-.4-8.5-1.3-10.4-2.1-1.8-.8-4.6-1.4-6.1-1.4s-3.3-.7-4-1.5-2.6-1.5-4.2-1.5-4.6-.9-6.6-1.9a34 34 0 0 0-7.7-2.7c-2.2-.3-5.6-1.5-7.5-2.4-1.9-1-7.3-3.2-12-5s-10.2-4.5-12.2-6.1-4.3-2.9-5.1-2.9c-1.6 0-2.7 4.2-2.7 10.6 0 3.6-.3 4.2-1.6 3.7s-1.5-1.5-.9-4.9c.7-4.8 1-4.6-11-5.9q-11-1.3-12.1-6c-1.1-4.7-19.2-18.8-26-21.9-1.7-.8-5-4-7.4-7.1s-5.8-6.9-7.6-8.3-3.9-4.1-4.8-5.9-4.3-5-7.5-7.2-6.8-5.5-7.9-7.3c-5-7.8-7.3-10.8-8.2-10.8a1 1 0 0 1-1-1c0-.6-2.5-3.5-5.5-6.5a37 37 0 0 1-7.4-9.8c-1.1-2.5-2.8-4.8-3.8-5.1-1-.4-3.3-3.8-5.1-7.7a27 27 0 0 0-5.3-8q-1.7-1-1.9-1.9a39 39 0 0 0-4-7.2c-2.2-3.5-4-6.9-4-7.6s-1.6-2.9-3.5-4.9c-1.9-1.9-3.9-5-4.5-6.9s-1.5-3.4-1.9-3.4a33 33 0 0 1-9.1-9.5c0-.7-2.3-4.5-5.2-8.6s-6.8-10.2-8.8-13.6a30 30 0 0 0-14.8-13.7c-3.1-1.6-6.1-4-7-5.7-.9-1.6-2.1-2.9-2.5-2.9a73 73 0 0 1-13.6-14.9c-2.9-5.3-12.4-16.1-14.2-16.1-1 0-2.4-.9-3.2-2-.7-1-3.8-3.4-6.8-5.2s-6.8-4.3-8.4-5.4a45 45 0 0 0-16.1-7.4c-1.4 0-5.2-1.6-8.3-3.5a38 38 0 0 0-9.8-4.1 11 11 0 0 1-6.2-3c-1.2-1.3-2.5-2.4-3.1-2.4-.5 0-1.8-1.7-2.9-3.8s-2.7-4.5-3.7-5.3a31 31 0 0 1-6.4-13.7c0-5.6-3-12.7-6.5-15.2a23 23 0 0 1-5.7-6.8c-2.4-4.5-15.2-15.2-18.2-15.2-.8 0-2.1-.9-2.8-2s-1.8-2-2.4-2c-.7 0-1.9-1.1-2.7-2.3-.9-1.4-4.1-3.4-7.4-4.6-7.7-2.9-9.1-4.1-9.5-8.1q-.2-3.9-1.4-1.9M878 440q0 .9-.7 1l-3.3.6c-2.4.5-2.4.5-.6-1 2.2-1.8 4.6-2.1 4.6-.6m128.9-166.5a101 101 0 0 0-32.8 21.4 43 43 0 0 1-9.6 6.8c-13.1 6.3-28.5 16.5-28.5 18.9 0 .7 1.3 2.2 2.8 3.3 2.4 1.7 2.7 2.5 2.4 5.5-.4 3.3-.2 3.6 2.1 3.6 1.3 0 3-.6 3.6-1.4q1.5-1.5-.8-2.1c-2.5-.8-2.8-3.3-.5-4.2.9-.3 2.6.5 4.3 2.1 1.5 1.4 3.1 2.6 3.5 2.6s2.2 1 3.9 2.3c4.1 2.9 9.1 4.7 11.7 4q2.1-.4 2-3.7c0-2.8.5-3.4 3.6-4.5 1.9-.7 4-2.3 4.5-3.5 2-4.2 6-5.5 26.9-8.6 7.6-1.1 10.8-2.9 13.3-7.5a71 71 0 0 0 4.7-23.7v-7.7l-3.7-2.6c-4.1-2.8-7.9-3.1-13.4-1M907 340.9l-3.5 1.8c-1.2.6-4.9 1.4-8.3 1.8-5.8.7-6.3.9-7.6 4-1.1 2.7-2.1 3.3-5.5 3.9-2.2.3-4.1 1.1-4.1 1.6s-1.3 1-2.9 1c-2.6 0-3.3.7-6.1 6.3-4.9 10-4.1 18.4 2 20.5 2.7 1 6.3.1 7.5-1.8.4-.6 1.6-.8 2.7-.4q3.8 1.2 3.8-5.4c0-2.8.5-3.4 4-4.8 3-1.2 4-2.2 4-3.9 0-1.2.9-3 1.9-3.9 2.4-2.2 3.4-5.6 1.6-5.6q-1.4.1-2.3 1.6c-1.3 2.4-3.2.8-3.2-2.6 0-2.6.4-2.9 4.6-3.8 4-.9 4.9-.7 6.5.9 2.4 2.4 4.4 2.4 6.9-.1 1.1-1.1 2-2.7 2-3.5 0-2 3.7-1.9 4.8.1.5.9 3.1 2 6 2.6 4.4.8 6.4.5 13.2-1.7 4.5-1.4 8.9-2.5 9.8-2.5s2.3-.4 3.1-.9c1.1-.7.7-1.2-1.5-2.3-2.4-1.2-3.3-1.3-5.4-.2-1.4.8-3.4 1.4-4.5 1.4s-3.1.7-4.5 1.5a24 24 0 0 1-15.2.4q-2-1-1.4-3.4c.5-1.9.1-2.3-2.5-2.9-3.7-.7-4-.7-5.9.3m61.3 18.8c-1.5.6-1.7 4.3-.3 4.3 1.2 0 2.4-2.5 1.8-3.8-.1-.5-.9-.7-1.5-.5m-6.7 9.9q-.6 1.5-.1 2.3c.8.7 3.8-1.2 4.3-2.7.6-1.9-3.5-1.4-4.2.4m-9.1 4.4a37 37 0 0 1-9.5.9c-11 .2-11.6.4-12.7 6.2-1.1 5.4-1.4 4.9 7.4 11.7 2.4 1.9 4.4 2.8 4.8 2.2s2.4-1.9 4.6-3 3.9-2.7 3.9-3.6 2-3.8 4.4-6.6c6-6.9 4.5-11-2.9-7.8"/><path d="M904.3 391.2c-1 1.3-4.1 6.7-6.7 12-4.3 8.6-4.8 10.2-4.2 14 .8 5.3 6.2 11.9 17.1 20.8 4.1 3.3 7.6 6.9 8 7.9.5 1.7.9 1.6 4.1-1.3 5.6-4.9 6.7-7.8 6-15.8s.4-12.8 4.5-17.3c2.7-3.1 4.3-9.6 3-12.8-.6-1.6-1-1.4-3 1.4a21 21 0 0 0-3.1 5.8l-.8 2.6-.1-2.6c-.1-1.4.5-3.4 1.3-4.4 1.1-1.5 1.1-2.4.1-4.8s-2.6-3.5-7.6-5.3c-8.5-3.1-15.9-3.2-18.6-.2M23.7 587.7q-1.7 2 1.3 6c1.2 1.6 2 4.1 2 6.5 0 4.3 2.6 9.8 4.7 9.8q2.5 0-.1-4.3c-.8-1.2-1.7-4.4-2.1-7a14 14 0 0 0-2.6-6.8c-1.2-1.2-1.8-2.7-1.5-3.5.6-1.4-.5-1.9-1.7-.7m138.9 4.4c-1.3 6.6-.7 9.9 2.3 12.9 1.6 1.6 3.8 4.7 5 7 1.9 3.6 1.9 4.3.7 6.3-1.4 2-1.2 2.6 2.1 6.9 2.5 3.5 4.2 4.8 5.9 4.8 2.2 0 2.3-.3 1.4-2q-1.1-1.8-2.5-2c-1.4 0-2.1-2.2-1.5-4.5.2-.6.5-2.8.7-5.1.3-3.3-.1-4.5-2.2-6.4a7 7 0 0 1-2.5-5.3c0-2.4-.3-2.7-1.4-1.8-1.7 1.4-3.2-.3-2.8-3.1.2-1-.2-2.7-.8-3.8-.9-1.6-.8-2.5 0-3.5 1.5-1.8.5-3.5-1.9-3.5q-2 0-2.5 3.1M35.7 607.7c-.9 2.1-2.2 4.9-3 6.3s-2.2 5.6-3.1 9.4q-2.6 11.4 2.7 12.4c1.5.3 1.7-.5 1.7-6.1 0-4.5.8-8.8 2.8-14.3q4-11.2 1.3-11.4c-.4 0-1.5 1.7-2.4 3.7m105.4-.8q-1.7.9.7 2c1.1.6 2.8 1.1 3.8 1.1 1.6 0 1.6-.1-.1-2-2-2.2-2.4-2.3-4.4-1.1m-74.4.9c-1.5.3-1.7 1.2-1.5 4.5.4 5.4 2.1 5.1 3-.4.9-4.8.9-4.7-1.5-4.1m72.9 5.1c-.7 1.1 2.2 2.3 3.5 1.5q.8-.6.4-1.5c-.8-1.2-3.2-1.2-3.9 0m.7 4.8c-.7 1.7 2.8 5.3 5.2 5.3q1.2.1.8 2-.4 2 1.1 2.6 1.8.7.6 1.9c-1.2 1.4 1.5 2.5 6.3 2.5 2.6 0 3.8-2.2 1.8-3.5-.5-.3-1.2-1.9-1.6-3.5s-1.3-3-2-3q-1.3-.2-1.7-2.3c-.2-1.8-.9-2.2-3.5-2-1.8.2-3.5-.2-3.8-.7-.9-1.5-2.5-1.2-3.2.7m27 10.9q-.4 1.5.7 2.4 1.3.7.2 2.6c-1.1 2 .5 5.4 2.5 5.4 2.8 0 3-9.5.4-11-2.6-1.3-3.1-1.3-3.8.6m-114.6 7.1c-1.3 1.2-.7 5.4.9 6 .8.3 2.3-.1 3.2-1 1.4-1.5 1.4-1.8-.3-3.7-1.9-2.1-2.8-2.4-3.8-1.3m138.3 7.1c0 1.1.7 2.5 1.5 3.2s1.5 1.9 1.5 2.6.9 2.3 2.1 3.5a38 38 0 0 1 6.9 12.5c0 1.5 3.8 4.4 5.7 4.4s1.6-1-3.4-9.4c-8.9-14.6-10.2-16.5-12.4-17.7-1.6-.8-1.9-.6-1.9.9m-158.4 6.7c-1.6 3-3.2 5.5-3.6 5.5-1.4 0-8 10.8-8 13.2 0 2 .5 2.5 2.2 2.4s2.4-.9 3-4.3c.6-4 6-13.3 7.6-13.3.4 0 1.4-1.3 2.4-2.9 1.3-2.3 1.4-3.3.5-4.5-1-1.4-1.6-.8-4.1 3.9m32.8 1.3c-.6.4-1.3 1.5-1.7 2.4-.3 1-1.3 1.8-2.1 1.8-2.1 0-5.6 5.3-5.6 8.4 0 1.5-.7 3.8-1.6 5.1-2.2 3.4-5.4 16.8-4.3 17.9q.9.8 2.4-2.5c2.2-4.6 3.5-6.8 6.8-11 1.5-2 2.7-4.1 2.7-4.6s1-1.8 2.3-2.6q2.7-1.8.5-1.6c-2.2-.1-2.3-2.4-.3-4.1.8-.7 1.5-2.7 1.5-4.4s.5-3.7 1.2-4.4c1.3-1.3 0-1.6-1.8-.4m592.9 1.8c-.3.8-.1 2 .6 2.7 2.2 2.2 1.2 3.7-2.5 3.7-4.5 0-10.4 2.7-10.4 4.8 0 .8.7 2.3 1.6 3.3 1.5 1.7 1.5 2.1-.5 5.2l-2.1 3.4 4.2.6c3.4.5 4.7.2 6.4-1.4 1.2-1.2 3.4-1.9 5.7-1.9 3.6 0 7.7-2.7 7.7-5.1 0-.6-1-4.2-2.2-7.9-1.6-5-2.9-7.2-4.6-7.9-3-1.4-3.2-1.4-3.9.5m-423 5.9q-.6 1.8 1.9 3.8a17 17 0 0 1 3.8 5.4q1.3 3.2 3.1 3.3c3.3 0 3-1.9-1.2-7.2-4.9-6.3-6.7-7.5-7.6-5.3m-207.8 9.6c-.8 2.3.7 4.5 2.4 3.5.6-.4 1.1-1.8 1.1-3.2 0-3-2.6-3.2-3.5-.3m248.5.2c0 2.2 6 13.7 7.2 13.7 1.5 0 .1-4.6-2.9-9.7q-4.2-7.2-4.3-4m-66 5.1c0 1.9 5.1 3.1 6.1 1.5q1.8-2.9-3.2-2.9-2.8 0-2.9 1.4m527.5.6q-.5 1.1 0 3.1c.5 1.6 1.4 1.9 3.8 1.7q3.1-.4 3.2-1.7c0-1.8-6.1-4.5-7-3.1m-715.4 4c-1.5 4.4-1.4 9 .2 9 1.7 0 3.9-3.7 2.6-4.5q-.8-.8-.4-2.6c.4-1 .2-2.6-.3-3.5-.8-1.4-1.1-1.1-2.1 1.6m146.9 7c0 1.7 9 10 10.8 10 2.6 0 7.2 7.5 7.2 11.6 0 1.9.5 3.4 1 3.4q1 .1 1 1.3c0 .8 1.7 2.7 3.8 4.4l3.7 3-.1-10.2c0-11.3-1.3-14.4-6.9-16.5l-7-3c-11.6-5.2-13.5-5.8-13.5-4m30.6 17c.9 6.8.9 6.9 4.6 6.1 2.7-.6 3.3-1.2 3.3-3.1s-.6-2.6-2.5-2.8a8 8 0 0 1-4.3-2.5c-1.7-2.2-1.7-2.1-1.1 2.3m78.8 12.5c.3.9.6 2.1.6 2.6s1.6 2.5 3.6 4.5c3.4 3.2 6.7 5.1 12.3 6.9 2.1.6 2.1.5.9-1.5-.7-1.2-2.8-2.8-4.6-3.5-2.9-1.3-3.2-1.7-2.2-3.5s.8-2-1.9-2c-2.3 0-3-.5-3.3-2.3q-.2-2.3-3.2-2.5-3.3-.5-2.2 1.3"/></svg>