<svg xmlns="http://www.w3.org/2000/svg" width="1365.333" height="1365.333" viewBox="0 0 1024 1024"><path d="m320.5 14.6-29.1 14.5 4.4 28.7c3.3 22 4.5 33 5 47.2l.7 18.5 11.4 16.7c10.9 16.2 11.3 16.9 10.2 19.9-.6 1.8-1.1 5.1-1.1 7.5 0 4.1.3 4.5 3.9 6.4a49 49 0 0 1 11.2 10.7l8.6 10.4c1.1 1.3.3 3.4-5.3 14.2-6.5 12.6-6.5 12.7-9.9 31.9-4.1 23-5.1 33.7-11 113.8-4.3 58.8-4.6 61.5-6.8 63.9-1.2 1.4-15.1 15.8-30.9 32.1-30.9 31.9-44.4 47.9-58.8 69.6-5 7.6-10.5 15.3-12.1 16.9-2.5 2.7-2.9 3.9-2.9 8.7 0 5.5-.1 5.6-4.2 8.1-3.8 2.2-4.1 2.8-4.2 6.8-.1 3.9-.4 4.4-3.1 5.2-8.4 2.6-7.8 1.6-7.3 13 .4 6.1 1.9 16 3.9 24.7 3.2 14.4 3.3 14.5 12.5 29.8a246 246 0 0 1 9.8 17c.3.9 2.6 3 5.1 4.6 4.4 2.7 4.9 2.8 12.6 2.2 7.1-.7 8.2-.5 10.9 1.4 3.5 2.5 5.5 8.6 4.6 14.2-.6 3.6-.4 3.9 4.5 7.8 2.8 2.2 5.7 4 6.4 4s1.9.7 2.6 1.7 2.9 2.2 4.7 3q3.3 1.3 3.2 3.7c0 1.3.7 4.3 1.6 6.7 1.1 3.2 1.4 6.2.9 11.2-.8 8.4-.3 10.1 4 12.6 3.3 1.9 3.4 2.1 2.8 7-.5 4.4-.3 5.4 2.1 8.1 2.9 3.5 3.4 7.5 1 10.1-1.4 1.5-1.2 2.1 1.5 6.5l3.1 4.8-2 2.1a9 9 0 0 0-2 5.2c0 1.6-.9 5.6-2.1 8.9-1.8 5.2-2 7.3-1.5 17.9.5 10.4 1 12.7 3.6 18.3 1.7 3.5 3 7.7 3 9.2q0 2.9 1.8 3.4c2.3.8 5.2 5.7 5.2 9q0 2.5 3.6 5.2a27 27 0 0 1 5.9 7.3c1.7 3.3 3.9 5.6 7.9 8.1 3.1 1.9 5.6 3.8 5.6 4.1 0 .4-3.3 1.6-7.2 2.7-7 1.8-7.5 1.9-10.8.2-4.7-2.3-11.3-3.2-14.5-2a10 10 0 0 1-6.2.1c-2.8-.8-4.6-.5-9.8 1.4-5.9 2.3-6.7 2.3-10.3 1.1-6-2.2-23.5-4.7-27.3-4s-6.1 3.1-9 9.5c-1.5 3.5-3 5.1-5.9 6.4-3.2 1.5-6 4.8-6 7.3 0 .4 1.8 1.8 4 3.2a30 30 0 0 1 8 8.5c2.1 3.3 5.9 7.7 8.4 9.7 2.4 2.1 4.9 5.2 5.6 7 .8 2.5 4.6 5.9 15.4 14.2 7.9 6 16 11.6 18 12.4q3.8 1.3 3.6 3.7c0 2.5 2.9 5.5 5.3 5.5q1.5 0 1.7.8c0 .4 2 3 4.5 5.9 3.3 3.8 5.7 8.2 9.1 17 2.6 6.5 5.5 13.5 6.5 15.5 1.1 2.2 1.9 5.8 1.9 8.7 0 4.7.3 5.2 3.7 7.6 2.1 1.4 4.6 2.5 5.5 2.5 2.2 0 2.2-.6-.2 5.8a30 30 0 0 0-2 7.7c0 2.3.3 2.5 5 2.5 3.8 0 5.5.5 7.1 2.1 1.9 1.9 2.9 2.1 7.6 1.6 3.5-.4 6.9-1.5 9.4-3.1 2.1-1.4 5-2.6 6.4-2.6 3.3 0 9.4-2.6 12.1-5.1 1.2-1.1 3.4-2.3 5-2.8q3.1-.5 3.2-3.5c.2-1.5 1.1-3 2-3.3.9-.4 3-1.7 4.5-3 3.8-3.1 4.4-2.9 5.2 1.4.4 2.1 1.1 4.4 1.7 5 .6.7.8 1.9.5 2.7q-.6 1.5 5.8 6c5.4 3.7 6.6 4.2 7.6 3 .6-.8 1.7-1.4 2.3-1.4.7 0 2.9-.9 5.1-2a30 30 0 0 1 7.2-2.6c2-.4 5.8-2.9 9.8-6.4 6.1-5.4 7.2-5.9 13.8-7.1a27 27 0 0 0 10.6-3.7c3.1-2.3 3.8-2.4 11.7-1.8 7.2.5 9 .3 12.2-1.3 3-1.6 7-2 21.7-2.6 9.9-.4 18.5-1.2 19.2-1.7s1.9-3.2 2.8-5.8c1.4-4.3 2.4-5.3 7-8a62 62 0 0 0 18.3-20.7c1.3-2.3 3.2-4.5 4.3-4.8 2.6-.9 2.4-2-.9-4.2-3.9-2.5-11.5-11-10.8-12.1.3-.5 2.3-2.1 4.5-3.6 3.5-2.5 5.3-2.9 16.3-3.7 31.2-2.3 43.1-4.1 49.3-7.6 2.3-1.4 4.9-1.7 11.7-1.4 8 .2 9.2 0 13.8-2.5 2.8-1.5 5.6-3.9 6.3-5.3.9-2 2.2-2.7 5.2-3.1 3.2-.4 4.1-1 4.3-2.7s1-2.3 3.2-2.3q2.8 0 5.2-3l7-8.5c3.1-3.5 5.2-7.1 5.9-10q1-4.6 2.9-4.5c1 0 3.1-2 4.9-4.8 3.3-5.1 9.2-9.2 13.5-9.2 2 0 3-.9 4.7-4.3 3.8-7.6 6.5-10.3 11.4-11.7 5.8-1.6 6.5-3.2 6.5-15 0-12.6 1.5-14.9 9.1-15 1.5 0 3.3-.7 4-1.6s2.3-2 3.6-2.5 2.3-1.7 2.3-2.7q0-4.2 6.2-4.2c2.9 0 6.1-1.3 12.2-5 9.3-5.6 11.9-6 27.5-3.9 4.5.6 8.5.9 8.7.6.9-.8 5.4-18.9 5.4-21.5 0-1.8-2.2-7.4-3.5-9-.1-.1-2.1.4-4.3 1.2-4.2 1.5-4.2 1.5-4.2-.9 0-1.9-1-2.8-4.2-4.3a33 33 0 0 1-8-5.8l-3.6-3.9.8-8.5a96 96 0 0 1 4-18.7l-4.2-.5-4.1-.3-2.8-12.5c-1.5-6.9-2.8-14.9-2.8-17.8l-.1-5.3-6.2-2.8-6.3-2.8-4 2c-3.5 1.8-13.7 5-14 4.4l-2.8-3.8c-3.4-4.5-3.5-8.9-.4-18.2 1.7-5.5 2.8-7.4 5.2-8.8 14.3-8.3 15.4-9.1 16.6-14.1.9-4.1.9-5.2-.5-7.3-.9-1.3-1.6-3.8-1.6-5.4q0-3-2.2-4.6t-3.9-8l-1.5-6.4 6-6c3.4-3.2 9.6-8 13.9-10.6q9.8-5.9 9.7-8.8c0-.3-2.3-1.1-5-1.8-4-1-4.9-1.6-4.4-2.8 1.4-3.3-.3-12.1-2.7-13.9-1.5-1-1.6-1.7-.7-4.2.9-2.7 1.9-3.3 9.9-5.7 7.2-2.2 8.8-3 8.3-4.2-3.3-7.8-3.4-8.5-.3-10.3q3-1.8 2.9-4.4c0-3.4 4.7-9.4 8.7-11.1q3.2-1.3 3.3-3.3c0-1 .4-2.2 1-2.5s1.6-2.9 2.5-5.8l1.6-5.2-3.6-3.3c-5.2-4.8-4.8-7.6 1.9-13.4l5.4-4.8 8.9.6c7.8.6 9.4.4 12.9-1.4a52 52 0 0 1 25.4-2.4c3.6.5 6.7.8 6.9.6s-1.6-54.4-3.9-120.6c-2.9-85.2-4.5-120.6-5.3-121.4C824.5 243.2 353.7 1.5 351 .6a302 302 0 0 0-30.5 14"/></svg>