<svg xmlns="http://www.w3.org/2000/svg" width="1365.333" height="1365.333" viewBox="0 0 1024 1024"><path d="M401.4.8c-.6.4-1.9 2.2-3 4-1.5 2.7-2.4 3.2-4.4 2.9-1.3-.3-3.6.1-5.1.8-2.1 1.2-3.2 1.2-6.5 0-5.9-2-11.4-2.9-11.4-1.8 0 .6.9 1.8 2 2.8a19 19 0 0 1 3.6 6.2l1.7 4.4-3.4 3.4c-2.9 2.9-4.2 3.4-8.4 3.6-2.7.1-7.1-.4-9.6-1.1-4.2-1.2-5-1.2-9.1.9l-4.6 2.2-.6 6.7c-1.2 11.6-1.3 12-5.4 13.2-5.1 1.4-4.9 1.4-5.7-2.8l-.7-3.7-2.6 3.1a16 16 0 0 1-6.7 4.3c-2.2.6-5.5 2-7.4 3.2-1.9 1.1-3.7 1.6-4 1.1-1-1.6-15-1.3-18.1.3-3.8 1.9-3.6 2-4.8-1.4a10 10 0 0 0-5.1-5c-6.6-3.4-8.1-2.6-8.1 4.4 0 3-.5 3.5-6 6.1-5.7 2.8-6 3.1-6 6.5 0 2.7-.6 4.1-2.2 5.2-2 1.2-2.3 2.2-2.1 6.8.1 3-.2 5.6-.9 6q-1.1.7.6 3c2.3 3.3 1.9 5.9-1.4 9.9-1.7 1.9-3 4-3 4.7s-.9 2.2-2.1 3.4l-2.1 2.1 2.6 2.7c2 2 2.6 3.7 2.6 7 0 2.3.7 5.5 1.4 7q3.1 6.2-2.8 7.6c-1.7.4-4.7 1.6-6.6 2.7-4.8 2.8-12.6 2-15.5-1.7-1.2-1.4-2.9-2.5-3.9-2.5-2.1 0-2 .2 2.3 6.2 3 4.1 3.4 5.4 3.5 11.4s.4 6.9 2.1 7.2q1.9.4 4.1-2.4c2-2.5 2.5-2.7 4.8-1.6q2.6 1.2 2.6 3.5c0 1.3.7 3.2 1.5 4.3s1.5 3.3 1.5 5c0 1.6.7 3.9 1.5 5 2.1 2.7 1.8 6.1-.5 7.4-1.1.6-2 1.7-2 2.4 0 2.8 12.6 20.1 17.1 23.6a169 169 0 0 1 23.4 27c1.9 3.8 9.1 10 11.5 10 1.1 0 2.3.8 2.7 1.7.3 1 1.5 2.8 2.6 4s1.7 2.9 1.3 3.8-.2 2.5.4 3.5q1.1 1.8-.5 2.4c-1.5.6-1.9 4.4-.9 8.3.3 1.2 1.9 2.6 3.5 3.2 2.2.8 2.9 1.6 2.9 3.7 0 1.5.6 3.5 1.3 4.3a43 43 0 0 1 4.7 14.2c0 2.6.5 2.4 5.2-2.1 4.4-4.2 8.5-5.2 10.6-2.7 1.4 1.7-.3 8.8-2.4 10-.8.4-1.4 2.2-1.4 4 0 5.1-1.1 6-5.6 4.8-5.5-1.5-6.3-1.4-7.6 1.4-.9 2-1.4 2.2-2.5 1.3s-1.8-.8-3 .5c-1.4 1.3-1.4 2-.3 4.7.9 2.2 1 5 .4 10.3-.4 3.9-.7 13.2-.6 20.5.1 12.7.1 13.2-1.8 12.2-1-.5-2.7-1-3.8-1-2.3 0-6.2 4-6.2 6.4q0 1.9-1.7 1.1c-4.4-1.9-5.9-1.7-7.1.9-.6 1.5-2 2.6-3.1 2.6-3.3 0-4.2 8.6-1.4 14.1a35 35 0 0 1 2.4 8.4c.4 2.7 1.6 7.5 2.8 10.5 1.7 4.6 2.8 5.9 6.6 8 3.4 1.9 4.5 3 4.5 4.8q-.2 2.7 1.9 1.9c1.6-.4 2.2.3 3.2 4.5q1.2 5 3 5.5c1 .3 2.3 2 2.9 3.9 1 2.8 2.6 4.1 9.8 8.1 11.4 6.2 15.6 10.1 17.2 15.9 1 3.4 2 4.8 3.9 5.5 3.1 1.2 4.1 2.6 4.1 6.1q.1 2.6 2 3.8c1.7.9 2 2.1 2 7.1 0 3.5.7 7.3 1.6 9.1q1.7 3 .9 7.2l-1.1 9.8c-.4 4.2-1 5.7-2.3 6.1-2.8.7-3.5 9.5-1 12.3 1 1.1 1.9 3.2 1.9 4.7a33 33 0 0 0 8.5 15.9c1.4 1 2.5 2.6 2.5 3.3s1.5 2.5 3.3 3.9c2.9 2.3 3.2 3.1 3.3 7.8 0 2.9.7 7.8 1.6 10.8.8 3 1.6 6.3 1.7 7.2l.3 4.6c.1 2.5.4 2.8 3.1 2.4 3-.5 3.1-.2 1 5.5q-.4 1.3 1.1 1.9c1.3.5 1.6 2.4 1.6 10.9 0 9.2-.2 10.4-2.1 12.1-1.2 1-3.3 4.3-4.6 7.3s-3.3 6.6-4.4 7.9a10 10 0 0 0-1.9 4.3q-.1 1.9-2.5 2.5c-2.1.5-2.5 1.2-2.4 3.8.4 5.7-14.9 25-19 23.9q-3.5-.9-3.6 5.2c0 2.4-.4 3-2.1 3-1.3 0-3.9 2.1-6.8 5.4-4.5 5.3-4.6 5.7-4.6 12.2 0 3.7-.7 8.3-1.5 10.2-.8 2-1.5 4.9-1.5 6.5q0 2.8-6.6 12.3c-8.3 11.8-8.3 11.7-9.4 9.9-.9-1.3-1.1-1.3-2 0-.5.8-1 2.7-1 4.3 0 2.9-.1 3.2-4.3 11.3a30 30 0 0 0-2.7 6.3c0 1.6 1.6 1.4 3.4-.5 3.1-3.1 4.6.7 2.7 7l-3.2 11.1c-3.6 13.3-4 14.4-5 15.1q-1 .4-2.4-.6c-1.3-1-1.8-.6-3.1 2.6-1.7 4-1.8 8.4-1.1 73.6l.2 22.7 2.9 3c3.8 3.9 7.7 4.1 10.3.5 1.7-2.3 1.8-3.3 1-7.6-.7-3.5-.7-6.5.1-10 .7-2.7 1.2-6.2 1.2-7.8 0-2.3.3-2.7 2-2.3s2 1.4 2 5.9c0 10.8 4.1 14.2 5 4.1.3-3 .7-5.8 1-6.1 1-.9 11.5 5.1 11.8 6.7.3 1.3 1.4 1.6 5.5 1.4 5-.2 5.1-.2 5.8 3.3.6 2.7.4 3.8-.8 4.7-1.5 1.2-1.5 1.5.4 3.5 2.4 2.7 4.3 8.7 4.3 14 0 2.8.8 4.7 3.2 7.3l3.1 3.6 1.4-3.1c.7-1.8 1.3-5.7 1.3-8.6 0-3 .4-5.4 1-5.4s2.1 1.8 3.5 4c1.3 2.1 3.4 4.4 4.5 5s2 2.1 2 3.6c0 1.4.9 4.2 2 6.2 1 2 2.2 4.9 2.5 6.4.7 3.8 4.5 6.1 7.8 4.9 2.6-1 2.9-.7 5.1 6.2q.6 1.7 3.5 1.7c4.6 0 5.6 1.8 5.3 9.1-.1 3.5-.5 7.9-.8 9.7-.5 2.6-.3 3.1.8 2.7.8-.3 2.1.1 2.8 1s1.8 1.5 2.4 1.5c1.7 0 5.6 4.3 5.6 6.2q.2 1.5 2.5 2.2c1.4.4 2.5 1.2 2.5 1.9s1.4 3.2 3.1 5.6c3 4 3.4 4.2 6.8 3.6 9.8-1.6 9.1-1.1 9.1-7.1v-5.5l3.8.7c4.8.9 5.2 1.1 5.2 3.4 0 3.9 2.2 7 5.6 7.6a9 9 0 0 1 4.5 2c.6.8 1.8 1.4 2.7 1.4.8 0 3.9.8 6.8 1.7 5 1.5 5.5 1.5 7.2 0q3.3-3.1 3.2-.2c0 .8.9 1.5 1.9 1.5 2.4 0 3.3 2 4 9 .6 5.1.8 5.5 3.4 5.8 1.6.2 3.5-.2 4.3-.9 1.1-.9 1.8-.8 3.4.6 1.8 1.6 2.1 1.7 4.5.1 2.5-1.6 2.5-1.6 2.5.9 0 1.5-.4 3.5-1 4.5q-1.1 1.8.5 3 1.5 1.3 1.5 6.2c0 4.5-.3 5-3.5 6.9-1.9 1.2-3.5 2.9-3.5 3.8s-.5 2.2-1.2 2.9c-1.4 1.4 3 7.5 7.1 9.7 1.6.8 3.2 2.2 3.5 3.1.6 1.5 1.1 1.3 3.7-1.2 1.7-1.6 3.7-4.4 4.4-6.2 1.1-2.4 2-3.2 4-3.2 1.4 0 3.3-.9 4.2-2s2.6-2 3.5-2c1 0 3.6-1.2 5.8-2.6 4.6-3.1 5.4-2.7 9.5 4.2 1.4 2.5 3 4.2 3.5 3.9s2.7.3 4.9 1.4l3.9 2 1.2-2.8a9 9 0 0 1 4.3-4.2l3.5-1.5c.2-.1-.3-1.5-1.1-3.1-1.3-2.4-1.3-3.3-.2-6.1.8-1.7 1.9-3.2 2.5-3.2q2-.2 9.1-9.1l2.9-3.7-6.4-3.7a76 76 0 0 1-27.5-28.5 79 79 0 0 0-10-13.7l-9.1-3.4c-4.1-1.6-7.6-2.5-7.8-2s-1.3 2.2-2.4 3.6c-2 2.6-2.4 2.7-10.9 2.3-8-.3-9-.6-11.6-3-1.6-1.5-4.3-3-6-3.4-2.6-.5-4.2-2.2-8.8-9.2-3.2-4.7-7.7-10.6-10.1-13.2-5.6-6-9.6-17.1-12.4-35-4.6-28.6-10-45.9-15.2-48.6q-5.8-3-2 .9c1.2 1.3 2.5 3.8 2.8 5.7l.7 3.5-2.8-2.5a29 29 0 0 1-4.6-6.1c-1-2-3-4.5-4.5-5.6-2.5-1.8-2.6-2.5-3.9-18.2-.9-10.1-2-17.4-3-19.3-.8-1.7-1.5-4.6-1.5-6.4 0-6.7-7.5-9.2-17.4-5.8-2.6.9-5 1.3-5.3 1-.4-.3-1.6.2-2.7 1.3-2.4 2.1-8 2.8-14.1 1.7-3-.6-4.5-1.6-5.8-3.7-1.6-2.9-1.6-3 1.4-5.7 3-2.6 3-2.8 1.5-5.7-.9-1.7-1.6-4.6-1.6-6.6 0-2.7-.8-4.3-3.5-6.9-3.5-3.4-3.5-3.4-3.5-12.4.1-5.7.6-10 1.4-11.5a15 15 0 0 0 .9-8c-.5-4.8-.2-5.9 1.6-7.5q4.3-3.7-.5-3.6-2.9.1-2-1.6c.3-.9.6-2 .6-2.5q.1-1 1.9-.4c4.4 1.4 10.9-8.2 6.6-9.9-3.2-1.2-.4-10.6 4.5-15.1 2.7-2.5 5-6.7 5-9.5q0-3.4 2.7-.9c3.3 3.3 5.5-12.6 2.3-16.8-2.4-3.2-1.5-7.3 1.6-7.3 2 0 2.4-.5 2.4-3.3 0-4.7 2.8-12.7 5.5-15.7 1.2-1.4 2.8-4.1 3.4-6.1s2.5-4.9 4.2-6.5c4.3-4.1 5.2-6 6.1-12.9 1.3-11 1.8-12.2 5.9-14.9s7.4-8.9 6.3-11.5c-.3-.9-.8-5.7-.9-10.7-.2-5.1-.8-10.1-1.4-11.2-2.1-3.9-1.3-14.5 1.4-20.4 1.4-2.9 2.8-6.9 3.1-8.8a18 18 0 0 1 1.9-5.3c1.1-1.5.7-2.8-2-8.2a73 73 0 0 0-4.4-7.9c-2-2.4 1.4-7.2 7-9.6 2.6-1.1 5.6-2 6.5-2s3.1-1.2 4.6-2.7c2.6-2.5 2.8-2.5 2.8-.7 0 3.2.8 3.4 6.7 1.3 3.1-1 7.2-1.9 9.2-1.9s4.2-.4 5-.9q1.4-.8 4.5.9c1.8 1 6.2 2 10.6 2.3 5.4.5 7.8 1.1 8.7 2.4a53 53 0 0 1 .4 21.5 7 7 0 0 0 .4 5.3c1.2 2.8 1 3.2-2.3 6.7-3.2 3.4-3.4 4-2.4 6.3 1.8 3.8 1.5 6.5-.6 6.5-2.3 0-4.6 5.8-3.1 7.7.6.7 2.3 1.3 3.6 1.3 1.9 0 2.8.8 4 4 1.8 4.5 3.3 3.8 3.3-1.7 0-2.7.5-3.4 2.6-3.9 3.8-1 18.4.2 21.6 1.6 4 1.9 20.5-.3 23.1-3.1q6-6.5 16.1 8.6 2.7 4 2.6 2.1c0-1.4.5-1.7 2.3-1.2l3 .6q.6.2.1 2.5c-.5 2.2-.3 2.5 2 2.5 4 0 6.9 2.3 13.1 10.6 3.1 4.1 6.1 7.4 6.8 7.3 3.1-.4 4.9.4 9.8 4.1 3 2.2 5.9 4 6.5 4q1.1-.2 1-3.8c-.1-3.6.4-3.7 1.1-3.7 1.5 0 2.9 2.4 11.7 19.5 3.6 6.9 7.6 14.3 9 16.5l2.5 4-.6-6c-.4-4.4-1.2-6.7-2.9-8.6-1.3-1.4-2.4-3.4-2.4-4.5s-.9-2.9-2-3.9a7 7 0 0 1-2-5c0-1.8-1-4.5-2.2-6.1-1.9-2.4-2.3-4.1-2.3-10 0-6.1.3-7.6 2.3-9.7l2.2-2.4-2.4-1.1c-1.3-.6-3.4-3.1-4.6-5.7a18 18 0 0 0-6.2-7.1c-4.7-3-6.7-6.6-4.9-8.8q1.2-1.5.5-3.8c-.7-2.1-1.3-7.5-1.5-12.2 0-1.1-1.8-4.2-3.9-6.9-2.2-2.7-4-5.6-4-6.4 0-.7-.9-3.1-1.9-5.2q-1.9-3.6-1.1-5.2c.5-.8.7-4.7.3-8.7l-.6-7.3 5.9.6c5 .6 6.6.4 9.2-1.2q2.9-1.8 2.3-2.9c-1.6-1.7-2.3-5.4-1-5.4.6 0 3-.9 5.3-2.1 3.5-1.7 4.6-3.1 7.3-8.9 2.3-5.1 4-7.5 6.5-9 2.8-1.6 3.7-3 4.7-7.2 1.8-7 2.8-8.8 5-8.8.9 0 3.6-1.6 5.8-3.5 3.4-2.9 5.3-3.6 11.4-4.5 4.1-.6 8.5-1.6 9.9-2.2s3.1-1.1 3.7-.9c.7.1 2.7-.6 4.4-1.5 1.9-1 4.3-1.4 6.1-1q2.9.6 3.5-.9c.4-1.3 1.2-1.1 4.9 1 3.3 1.9 6.5 2.7 13.6 3.4q19.7 1.8 23-2.3l1.7-2.1 3.8 2.1c4.7 2.7 15.8 3 18.5.6q1.7-1.3 3.1-.9c1.4.4 2 .1 2.7-.3s2.2-.4 3.3.1c1.4.8 2.3.6 3.7-.6 1.6-1.4 2.1-1.4 6.1 0l6.2 2.2c1.7.5 2.4 2.3 2.9 7.7.2 2.4.9 3.1 3.6 3.8 2.8.8 3.6.5 5.2-1.4a9 9 0 0 0 2-3.9c0-2.3 4.2-4.8 9.7-5.8 3.9-.8 5.7-1.9 10.1-6.6l5.5-5.6-.5-9.1c-.5-8.6-.4-9.3 1.8-11.5 2-1.9 2.2-2.8 1.3-5-.7-2-.6-3 .7-4.4q1.5-1.8.6-1.9a17 17 0 0 1-4.7-5l-3.7-5 2.2-3.4q2.1-3.5 4.8-3.8 2.8-.2 2.7-2.3c0-1.6-.8-2.1-3.5-2.3-1.9-.2-4.1-.9-4.8-1.5q-1.8-1 1.5-2.5 6.3-3.3 6.3-6.4c0-1 .7-2.9 1.6-4.3 2-3.1 2.1-7.8.2-10.7-.9-1.4-3.8-3.2-6.9-4.2-6.6-2.3-12.2-8.6-10.8-12.4.5-1.2 1.3-2.2 1.9-2.2s1-1.1 1-2.4c0-2.2-.5-2.5-8.7-3.7q-16.2-2.3-16.3-7.2c-.1-4.9-5.1-10.9-8.4-12.7-1.5-.8-3.6-3.1-4.7-5.1q-1.8-3.6-4.4-4.3c-2.6-.7-2.7-.8-2.6-9.9.1-5.1-.3-13.4-.9-18.5-1-8.9-.9-9.4 1.5-14.2 2.1-4.1 2.5-6.4 2.5-13.1 0-9.5-1.6-12.7-8.3-16.1-10.2-5.1-15.6-9.7-18.6-15.7-2.5-5-3.5-5.9-7-6.9-3.4-1.1-4.1-1.7-4.7-4.7a34 34 0 0 0-5.8-10.3c-2.8-3.9-6.8-9.7-8.8-13.1-2-3.3-4.1-6.1-4.7-6.1-.5 0-2.3 1.2-4 2.6-2.8 2.3-3.1 2.4-3.1.7s-1.2-2.2-6.1-3.1a48 48 0 0 1-10.5-3.3c-2.5-1.2-5.4-1.9-6.6-1.6s-3.4-.1-5-.9a13 13 0 0 0-11.8.9c-.9.7-1.6 2.7-1.5 4.7 0 3.1-.3 3.5-3.7 4.3-3.3.8-3.8 1.3-3.8 3.7 0 1.5-.9 3.9-2 5.3s-2 3.5-2 4.6c0 5.1-4.9 8.8-7.8 5.9-.9-.9-2.8-.5-7.9 1.7-8.3 3.5-9.3 4.2-11 8.2q-1.3 3.1-2.7 2.7c-2.2-.8-4.8-5.4-4.2-7.1 1-2.5-1.4-4.3-5.8-4.3a23 23 0 0 1-8.5-2.1c-2.5-1.1-5-1.8-5.7-1.5-1.4.6-6.9-5.2-7.9-8.3-.6-2-1.5-2.4-7-3.6-2.7-.5-3.6.1-8.3 4.9l-5.3 5.4-4.4-1.4c-4.4-1.3-4.5-1.3-5.9 1.4-.7 1.5-1.7 4.1-2 5.7-.5 2.3-1.9 3.7-5.7 5.9-3.7 2.1-5 3.3-4.6 4.6.4 1.4-.7 2.1-5.2 3.6-4.8 1.5-7 3.2-14.6 11l-9 9.2-4.5-2.4c-2.5-1.3-5-2.4-5.7-2.4-1.6 0-1.8-7.3-.3-10 .6-1 .6-2.8.2-4-1-2.8 2.5-10.5 5.5-12.1 1.4-.7 2.3-2.2 2.3-3.5s.9-2.8 2-3.4c2.2-1.2 2.4-3.6 1.4-16.3-.6-7-.9-7.7-3.3-8.6-5.1-1.9-5.8-2.8-3.8-4.8 4-4.2 6.7-7.7 6.7-8.4q.1-.8 1.5-.9c1.4-.1 2.5-2.1 3.8-4.6 2-4.1 2-4.7.6-5.7s-1.4-1.7-.3-4.7c.7-1.9 1.3-4.9 1.3-6.6.1-2.3 1.1-4.2 3.7-6.7 3.5-3.3 3.5-3.5 1.5-4.2-2.9-.9-6.1-7.5-6.1-12.8 0-2.3-.4-4.7-.9-5.3s-1.3-2.4-1.9-4.2c-1.1-3.1-1-3.4 1.8-5 3.4-1.9 4-5.5 1.4-8.3-1.4-1.6-1.9-1.6-5.7-.3-3.7 1.3-4.2 1.3-6.1-.5-2-1.9-5.3-2.6-10.8-2.3-1.4.1-4.7 1.8-7.3 3.8-4.5 3.4-4.8 3.5-7.2 1.9s-7.7-1.3-8.8.6c-.9 1.4-6.5-1.9-6.5-3.9 0-.9-.9-2.3-2-3s-2-2.1-2-3.2-.5-2.9-1.2-3.9c-1.8-2.9.4-7 4.1-7.7 3-.6 4-2.8 5.6-12.9l1.2-6.9c.5-2.7.4-2.8-1.9-2.3q-4 1.1-10.8-9.3c-4.6-6.9-9.4-9.1-10.6-4.6-.6 2.4-7.4 7.6-10.1 7.6-1.3 0-1.5-.8-1-4.4.7-4.7-1.1-7.6-4.7-7.6-.9 0-1.9-.7-2.2-1.5-.6-1.6-5.1-2-7-.7"/><path d="m565 574.5 2.5 6c2.1 4.8 3.1 5.9 7 7.6q8.2 3.8 3.7-1.9a43 43 0 0 1-4.1-6.3 13 13 0 0 0-4.6-4.7c-2.7-1.2-4.5-1.5-4.5-.7m19.2 28.8c-1.3 1.6-.4 8.8 1.2 9.9 1.9 1.3 2.3.9 2.9-3.4.8-6.1-1.5-9.7-4.1-6.5M285.3 719c-1.3.5-2.3 1.8-2.3 2.9s-.9 2.5-2 3.1c-2 1.1-2.7 5.1-1.4 8.3.9 2.3 11.6-9.8 11.2-12.6q-.5-3.7-5.5-1.7m123 19.9c-1 3.8-1 3.9 2.3 4.9l3.4 1v-3.9c0-2.8-.5-4.1-1.9-4.9-2.8-1.4-2.7-1.4-3.8 2.9m-1.5 13c-3 .5-3.6.9-2.8 2.1.5.8 1 3.6 1 6.2 0 2.7.4 4.8 1 4.8 1.8 0 7.8-6 9-9.1 1.1-2.6 1.1-3.2-.1-4-1.5-.9-2.4-.9-8.1 0m-145.6 7.3c-1.4 1.4-1.6 4.4-.3 5.3 1.3.7 4.1-3.4 3.4-5.1q-.8-2.6-3.1-.2M383 948.8c0 1-.7 2.7-1.5 4-1.7 2.4-1.1 4.4 2.3 7.5q4.8 4.5 5-5.2c.2-5.3-.1-5.9-2.4-6.9-3.3-1.5-3.4-1.5-3.4.6m-25.4 8.1c-3.9 1-7.2 2.3-7.4 2.9-.4 1.3 4.1 2.7 6.2 1.9.7-.3 2.3.1 3.5.9 2 1.4 2.2 1.3 3.1-1.1l2-4.6c1.2-2.2 1.6-2.2-7.4 0m37.9 9.6c-1.6.7-5 1.8-7.5 2.2l-4.5.9 3.2 2c3.4 2 4.3 3.9 4.3 9.1 0 2.6.4 3.3 2 3.3q2-.1 3.2-2.5 1.1-2.5 3.3-2.5c5.3 0 6.4-5.5 2.1-11.3-2.2-3.1-2.1-3-6.1-1.2"/></svg>