<svg xmlns="http://www.w3.org/2000/svg" width="1365.333" height="1365.333" viewBox="0 0 1024 1024"><path d="M221.1 1.4c-1 1.2-.8 1.7.8 2.5 1.1.6 2.7 1.1 3.6 1.1 1.9 0 6.5-2.9 6.5-4.1 0-1.5-9.6-1-10.9.5m13.6.3C232.1 4.2 236.9 9 242 9c2.4 0 2.5-1.1.5-5-1.2-2.3-2.3-3-4.4-3-1.5 0-3.1.3-3.4.7m-9.7 9.8q-1.4 1.6-.2 2.7c1.5 1.5 4.4.2 4-1.9-.4-2.3-2.2-2.7-3.8-.8m18.2 4.9c.1 2.6-.6 4-2.6 5.8q-2.8 2.4-2.1 4c1.5 3.7 10.5-1.3 10.5-5.7 0-2.3-3.5-7.5-5-7.5-.5 0-.9 1.5-.8 3.4M224 17.9c0 1.5 2.9 3.3 4.5 2.7 2.8-1 1.7-3.6-1.5-3.6-1.6 0-3 .4-3 .9m3.3 6.8c-1 2.5 2.3 4.8 5.4 3.7q6.1-2.2-.7-4.2c-3.4-.8-4.2-.8-4.7.5m245 207c-2.1.4-5.2 5.8-4 7 .4.3 2.6.9 4.9 1.4 3.9.7 4.5.6 6.5-1.6l2.2-2.5-2.3-2.5c-2.3-2.5-3-2.6-7.3-1.8m-20.6 10.1c-2.1 2.3-2.1 3.6-.3 5.1 1.1.9 1.9.5 4-2 1.4-1.7 2.4-3.5 2-4-.9-1.5-4-1-5.7.9m27.8 2.2q-.4.9.9 1 1.5-.1 1.6-1 0-1-.9-1t-1.6 1m1.3 5.6c-.4.3.5 3.8 1.8 7.7s2.4 8.1 2.4 9.4q0 3.8 2.8 1.1c1.9-1.9 1.4-6.2-1.3-11.6a29 29 0 0 1-2.5-6.1c0-1.2-2.2-1.5-3.2-.5M452 252c0 1.2-1 3.4-2.2 5-2.1 2.9-2.1 3-.3 5s2 2 3.2.4c1.5-2.1 1.8-12.4.3-12.4q-.9.2-1 2m5.7 16.7c-1.4 1.3-.6 3.3 1.2 3.3 2.5 0 3.8-2 2-3.1s-2.4-1.1-3.2-.2M476 271q.1.9 2.1 1 1.8-.1 1.4-1c-.3-.6-1.3-1-2.1-1s-1.4.4-1.4 1m-5.5 1c.3.5 1.3 1 2.1 1s1.4-.5 1.4-1q-.1-1-2.1-1-1.7 0-1.4 1m-4.7 1.7c.6.2 1.8.2 2.5 0q.9-.5-1.3-.5c-2.2 0-1.9.2-1.2.5m262 50.7q-4 2.9 1.9 4.3c2.9.7 4.3 1.8 6.3 5.3 3.1 5.3 5.4 5.8 5.8 1.5.3-3.3-2.3-6.4-8.8-10.3-2.9-1.7-3.8-1.8-5.2-.8m6.2 21.8c.1 1.8.7 4.4 1.5 5.8s1.4 4.6 1.5 7.2c0 4.1.3 4.8 2 4.8s2-.7 2-5.1c0-2.8-.6-6.5-1.4-8.2-.8-1.8-1.6-4.1-1.8-5.2s-1.1-2.1-2.1-2.3c-1.3-.3-1.7.3-1.7 3m-12.9.1c-.8 1.1-.6 1.8.8 3.1 1.6 1.5 1.9 1.5 3.1.1 1-1.2 1-1.8 0-3-1.5-1.9-2.4-1.9-3.9-.2m7.9 11.2q1.2 1.3 2.1.9c1.3-.8.1-2.4-1.8-2.4q-1.9-.1-.3 1.5m4 4.5q.1.9 1 1 1-.1 1-1t-1-1a1 1 0 0 0-1 1m58.3 652c-5.1 2.1-.8 10 5.3 10 3.3 0 7.4-3.5 7.4-6.2 0-4-7-6.1-12.7-3.8"/></svg>