<svg xmlns="http://www.w3.org/2000/svg" width="1365.333" height="1365.333" viewBox="0 0 1024 1024"><path d="M860.4 268.1c-2.7 2.8-9.4 8.6-14.9 12.9a43 43 0 0 1-19.5 10.4l-14.7 4.2c-2.8.8-8.5 3.9-12.7 6.9-8.5 6.1-8.8 6.2-22.5 4.4l-8.6-1.2-8.5 4.3a370 370 0 0 1-21.3 9.6c-7.1 3-17.4 8.1-22.8 11.4-9.9 6-10 6-17.7 6h-7.8l-3.8-5c-3.6-4.8-4.2-5.1-13.9-8-5.6-1.7-13.9-4.7-18.4-6.6-7.8-3.2-8.7-3.4-20.2-3.4-6.6 0-16.6.5-22.2 1.1l-10.2 1.1-9.1 6.8a252 252 0 0 1-24.1 14.9l-15 8.1h-12c-18.3 0-43.1 3.3-53.7 7.1l-8.8 3.1-8.2-3.5a287 287 0 0 0-40.8-13.1l-16.3-4.4-10.1 3.4a50 50 0 0 1-22.7 3.4h-12.8l-13.2 7.2a72 72 0 0 1-21.8 8.9 47 47 0 0 1-25.2 0c-8.4-1.7-8.7-1.7-11.2.1a48 48 0 0 1-9.6 4.3c-6.3 2.1-7.7 2.3-13.4 1.3-5.3-.9-7.9-.7-16.7 1.1a36 36 0 0 0-17.9 7.3l-7.4 5.1-6.4-1c-13.3-2-45.2 4.7-69.6 14.4l-8.9 3.6-10.1-1c-10.1-1-10.3-1-17.5 2-6.5 2.6-13.8 4.9-32.4 10.3l-5.6 1.7-5.5 22.1c-3 12.2-5.8 25-6.2 28.6-.3 3.6-1.6 9.3-2.8 12.8l-2.1 6.3-11.6 7.2c-10.7 6.6-12.1 7.8-16.3 14.2-2.5 3.8-6.8 11.5-9.5 17a86 86 0 0 1-12.6 18.6 58 58 0 0 0-9.5 13.7C2.4 552 0 568.2 0 575c0 1 2.7 4.1 6.1 6.9l6.1 5.1h17.7l4.3-6.3 4.4-6.2 9.9-1.1c5.5-.6 12.1-2.1 14.6-3.2 4.4-1.9 4.8-2.5 7.4-9.4 1.5-4 3.1-7.7 3.6-8.2s5.4 2.5 11.1 6.5 13.2 9.2 16.6 11.4l6.2 4v11.1c0 9.2-.4 12.3-2.5 18.4s-2.5 9.3-2.5 18.2V633H87.2l-9.7 7.6a83 83 0 0 1-10 7.2l-4.3-5.3c-3.8-4.7-4.4-5.1-12.3-7-8.4-2.1-8.4-2.1-17.4-.2a39 39 0 0 0-10.1 3.1c-2 1.9-5.1 11.7-6.9 21.6l-1.8 9.6 6.4 9.6 6.4 9.7 11.8 5.2 11.7 5.3v7.6c0 7.6 0 7.6 4 11.5 4.9 4.8 8 14 8 23.7 0 7.4 1.8 17.8 3.2 17.8 1.6 0 11.2-5.2 15.9-8.6 4.3-3.1 5.2-3.4 12-3.4 5.6 0 9.7-.8 16.9-3.1 10.8-3.6 16-7.7 23.2-18.4 6.3-9.3 13.6-16.4 18.3-17.6 2.8-.7 6-3 10.5-7.4 3.6-3.5 9-7.5 12-9s8.7-4.9 12.5-7.5a91 91 0 0 1 15.6-7.8 38 38 0 0 1 17-3.2h8.5l7.4-5.4c6.8-4.8 8.4-5.5 17-7.1 11.5-2.1 10.9-1.9 24.1-11.5l10.5-7.7 6.5 3.2 6.4 3.2 9.6-1.1c8.5-1 10.3-1.6 15.4-4.9 3.1-2.1 9-5.3 13-7.2a147 147 0 0 0 13.2-6.7l5.8-3.4 9.7 1 9.6.9 6-5 6-5 16.9-.6c25.6-1 24.5-.7 34.4-9.3 6.9-6 10.8-8.4 21.9-13.6 10.9-5 17.3-8.9 32.7-20.1l19.3-13.8 13.7-2.4a189 189 0 0 0 18.8-4c15.3-4.8 13.2-4.8 23.6-.1l9.4 4.3 10-2.3c5.5-1.2 17.3-5 26.3-8.3 15-5.6 16.9-6.1 24.4-6.1 4.5 0 12.2-.5 17.2-1.2l9.1-1.1 6.1-5.9c5.4-5.1 6.9-7.5 11.9-18.6 12.9-28.3 15-31.9 21-35.7 4.9-3.2 6.1-3.5 12.7-3.5h7.4l4.9-5c6.1-6.2 8.8-7 23.4-7 11.1 0 11.4-.1 17-3.4 7.2-4.4 16-6.1 23.8-4.6 3.1.5 10.4 1 16.1 1h10.5l10.6-7.9c24.2-17.9 33.5-22.4 51-24.6a48 48 0 0 0 11-2.2 80 80 0 0 1 18.1-17.8c6.3-5.1 15.1-12.4 19.5-16.4s10.3-8.5 13.2-10.2c3.8-2.1 6.9-5.3 11.5-11.5a65 65 0 0 1 15-15.1 38 38 0 0 0 11.5-11.4l2.8-4.9h5.3c5.2 0 5.5-.2 12.6-6.8l13.9-12.5c3.7-3.2 6.7-6.1 6.7-6.5s-4.3-3.5-9.5-7c-7.9-5.1-10.2-6.2-13.7-6.2-3.3 0-6.6-1.3-13.8-5.3l-9.5-5.2-.9-6c-.5-3.3-1-6.2-1.2-6.3-.5-.7-11.8 3.8-22.7 9.1l-10.9 5.1-10.6-2.2A109 109 0 0 0 916 282c-4.1 0-4.9-.5-10.6-6.1l-6.2-6.1-13.8-2.8-17-3.3c-2.7-.5-3.7 0-8 4.4"/></svg>