<svg xmlns="http://www.w3.org/2000/svg" width="1365.333" height="1365.333" viewBox="0 0 1024 1024"><path d="M427.6 161.8c-.4 2.8-1.2 4.2-3.1 5a28 28 0 0 1-15 .2c-3.8-.9-4.2-.7-7.7 2.7q-7.1 6.6 2.6 7.8c4 .6 4.6 1.1 5.9 4.4.8 2 1.4 3.7 1.3 3.9-.2.1-2.2-.5-4.6-1.3-5.7-2-8.9-1.9-17.3.6l-7.4 2.3c-.1.1.2 1.9.8 3.9.8 3 .6 4.5-1.6 9.6a33 33 0 0 0-2.7 10.1l-15.3 3c-8.2 1.6-16.1 3-17.4 3-3.2 0-10.2 5.9-13.7 11.3-2.5 4.1-3.2 4.5-8.3 5.3s-5.7 1.2-7.8 4.9c-1.9 3.3-2.3 5.5-2.3 13 0 8.7.1 9.2 3.5 14.2 2.1 3.2 3.5 6.4 3.5 8.3 0 1.7.5 5.1 1.1 7.6.9 3.3 1.7 4.6 3.5 5l2.4.6-2.8 2.7a49 49 0 0 0-4.5 5l-1.6 2.4-6.3-1.8q-6.3-1.8-23.3-2.5c-10.5-.5-21-1.6-27.5-2.9a68 68 0 0 0-32.1-.2c-14.3 3.6-14.1 3.6-18.5-.7-11.7-11.5-15.8-17.3-19-27-2.6-7.8-3.8-9.9-7-12.5l-5.6-4.7q-1.8-1.7-3.4-10l-1.7-8.5-9.5-9a134 134 0 0 0-17.6-13.9 264 264 0 0 0-34.8-17.1c-1.7-.4-6.5.4-13.5 2.4a63 63 0 0 1-21 3.1c-9.6 0-10.5.2-18.5 3.8a81 81 0 0 1-14.7 5.1c-6.2 1.2-6.9 1.7-25.5 17.3A607 607 0 0 0 .3 234.9c-.2.3 1.2 1.6 3.1 2.9 2.8 1.9 3.4 3.1 3.9 6.8.2 2.5-.1 6.5-.9 8.9L5.1 258l4.8 5.2c7.5 8.4 10.9 13.5 11.6 18.1.4 2.3 2 9 3.6 14.9 3.7 13.8 3.7 16.8-.1 22.3-2.5 3.6-3.3 6.2-4.1 13.2-1 7.6-1.5 9.2-4.9 13.7a41 41 0 0 0-6 13.1c-2 7-2.1 8.7-1.1 14.7.6 3.7 1.1 10.3 1.1 14.7 0 4.7.4 8.3 1.1 8.7.6.3 2.9 3.4 5.1 6.8l4 6.1-.6-5.4c-.6-4.9-.6-5.3 1.1-4.5 1 .4 6.8 1 12.8 1.4 12.1.6 27.5 4.9 27.5 7.5 0 .8-.9 3.7-2 6.5-2.6 6.6-2.6 12.3.1 15.9 2 2.7 2 3 .4 5.5-1.5 2.3-2.4 2.6-7.6 2.6-5.7 0-5.9-.1-5.9-2.6 0-1.4.5-3.4 1.1-4.5q3.5-6.7-6.6 2.4c-5 4.5-7.8 8.1-9.8 12.3l-2.7 5.9 3.9 10 4 10v-6.7l.1-6.7 3.3 1c1.7.5 5.4 1.4 8.1 1.9 11.8 2.4 12.1 2.5 14.9 8.8 1.4 3.1 2.8 6.8 3.2 8.2.6 2.2 3.6 7.7 6.4 12 .6.9 3.3 1.7 6.8 2 5.3.5 5.8.7 6.1 3 .2 1.4 2.1 4.1 4.4 6.1l4 3.7-2.7 8.3c-2 6-4.1 9.9-7.1 13.4-3.7 4.4-4.3 5.9-5.2 12-.5 3.9-.6 9.5-.1 12.5 1.4 9.8.9 18.5-1.6 31a113 113 0 0 0-.5 44.5c1.1 6.4 2 14.1 2 17 0 4.3.4 5.5 1.8 5.8a77 77 0 0 0 22.3 3.1c9.5.1 9.8 0 18-4.2a49 49 0 0 1 13-4.9q13-1.4 12.9-20.9c0-4.3.1-4.5 4.4-6.4 3.1-1.3 5-3 6.7-5.9 1.8-3.2 3.6-4.7 8.6-7 3.5-1.7 9-5.1 12.3-7.6l6-4.6 14.3-1.8c12.3-1.5 14.7-1.6 18.2-.4 2.2.8 8.5 1.8 14 2.3 22.9 2.1 29.9.7 31.9-6.5.9-3.1 2.2-4.7 6.1-7.2q5-3.4 7-2.6c1.1.4 6.3.7 11.5.8 8.2.1 10.2.5 14.6 2.7 2.7 1.5 6.7 3 8.8 3.3 3.2.7 4.2.3 7.6-2.4 2.3-1.8 5-3.1 6.7-3.1 2.6 0 3.3.8 7.1 8.5 2.3 4.7 4.2 9.7 4.2 11 0 6.9 7.1 10.9 27.4 15.5a183 183 0 0 1 23.1 6.8l9.9 3.9 1.2 4.8c1.4 5.5 1.7 5.8 6.3 7.4a19 19 0 0 0 16.3-1.5l4.2-2.7 5.4 1.7c4.5 1.5 6.1 1.6 10 .6 4.5-1.2 4.9-1.1 10.2 2a69 69 0 0 0 10.7 5.1c2.9.9 6.9 2.9 9 4.3 2.7 1.9 5.1 2.6 8.5 2.6h4.8v6.2c0 5.4.7 7.6 4.3 14.8 3.7 7.5 4.8 8.8 8.7 10.7 2.5 1.3 5.3 3.2 6.2 4.4 1.5 1.8 2.7 2 9.8 1.8l8-.2 2.3 3.4c1.7 2.6 3.3 3.5 6.7 4.2 5.9 1.2 7.7 2.9 11.2 10.7q6.8 15 12.3 17.4c1.9.8 3.7 2.6 4.4 4.4.7 1.6 2.2 3.3 3.4 3.6s14.2.6 28.9.6h26.7l1.5 5.2c.8 2.9 1.7 9.3 2.1 14.3.3 4.9 1.2 12.1 2 16 1.3 6.4 1.2 7.9-.8 18.4-2.2 11.3-2.2 11.4-.2 12.7 5.9 3.9 5.8 3.7 6.1 12.9.2 4.8.6 10 .9 11.6.6 2.6 1 2.9 4.9 2.9s4.6.4 9.6 6.2c6.8 8.2 10.4 10.6 17.9 12.4 5.7 1.3 6.9 1.2 13.4-.4 9.9-2.5 15.8-1.4 18.8 3.4 1.1 1.9 3.5 4.2 5.2 5 5.3 2.7 7.6 5.4 9.2 11 .9 3 1.9 5.4 2.4 5.4s4.5-3.6 8.9-8.1l8.1-8 5 2.5c3.1 1.6 6.7 2.6 9.5 2.6 4.1 0 4.9-.5 13.2-8.2 4.9-4.6 11-9.4 13.7-10.8 4.4-2.4 4.7-2.7 4.7-6.6 0-2.3.3-6.2.6-8.7.6-4.3.8-4.6 5.1-5.8l4.4-1.2-5-5.1a21 21 0 0 1-5.7-8.4l-.6-3.2 4.5.6c3.8.6 6.1.1 13.9-3.1 5.1-2 11.6-5 14.4-6.6s6.4-2.9 8-2.9 5.4-1 8.4-2.2c3.1-1.2 8.8-2.4 13-2.8 8.1-.5 7.9-.4 6.7-7-.5-2.2.1-2.8 5.6-5.3 3.4-1.5 7.4-2.7 9-2.7q2.6 0 2.7-1.5c0-.8 1.9-2.3 4.3-3.3 3.2-1.4 5.6-3.7 8.9-8.3 9.5-13.5 9.8-14.3 9.8-26.6v-11.1l5-11.2c3.9-8.8 5-12.3 5-16.5 0-2.9.3-7.3.6-9.9.7-4.6.7-4.6 9.3-9.2 8.1-4.4 9-4.7 15.4-4.5a45 45 0 0 0 12-1.3c2.8-.8 8.2-2 11.8-2.6l6.7-1.2 2.1-7.1c1.2-4 2.1-8.3 2.1-9.5 0-3 4.6-9.5 8.1-11.6 2.5-1.5 2.8-1.5 4.2.7.9 1.4 3.7 3 7.3 4.1 3.3 1 8.2 3.1 11.1 4.7a59 59 0 0 0 24.3 5.9c7.1-.2 10.3-2.6 11.3-8.5q.8-5-.3-8.8a17 17 0 0 1 0-9q1.2-5.2.3-8.7c-1.2-4.6.3-11.8 3.1-15 4.9-5.5 4.9-5.6 2.7-9.7-2.2-4.5-5.5-6.3-11.1-6.3-2.8 0-6.7-1.4-13.2-4.9a84 84 0 0 0-12.4-5.6c-1.7-.3-4.2-1.7-5.5-3.1q-4-4.5-15.1-4.4c-5 0-5.9.3-8.1 3-1.4 1.6-3.2 3-3.9 3-5.2 0-23.5-9.7-45.3-23.9a265 265 0 0 0-24.5-13.9 127 127 0 0 1-32.2-22.5l-6.6-5.9-5.6 1.8-5.5 1.7-18.1-10.9c-17.3-10.4-18.3-11.3-24.6-19.2a35 35 0 0 0-15.3-12.7c-4.7-2.4-10.2-6-12.1-8a402 402 0 0 0-46.2-31c-7.7-4.3-8.7-5.2-11.1-10.1A24 24 0 0 1 703 402c0-3.7-.7-6-3-9.7a28 28 0 0 1-3.6-8.9c-.3-2.1-1.5-6-2.6-8.6-1.8-4-2.7-4.9-7.2-6.6s-5.1-2.2-5.4-5.2a20 20 0 0 0-3.1-7.4 54 54 0 0 1-10.2-23.8c0-2.9-.8-7.5-1.7-10.1-3.8-10.7-20.3-25.7-28.3-25.7-2 0-5.6-.7-7.9-1.5l-4.5-1.5c-.2 0-.6 2-.9 4.4q-1.4 9.2-10 6.6a29 29 0 0 1-7.8-3.6c-4.5-2.9-5-2.9-7.3-.4-1.7 1.8-1.9 1.8-4.9.3a27 27 0 0 0-19.5-1.2c-10.4 3.6-19 .5-35.9-12.9-3.7-3-4.1-3.7-3.6-6.5a45 45 0 0 1 2.6-7.5l2-4.3-3.1-7c-3.5-7.9-3.7-9.1-1.6-10.9 1.3-1.1 2.3-.9 5.6.9 2.2 1.3 4.3 2.1 4.5 1.8s.2-2.1-.1-4c-.6-2.9-1.9-4.4-8.3-9-4.3-3-9.5-6-11.6-6.7l-4-1.3 2.2-1.8c1.2-.9 2.7-1.9 3.2-2.1q.9-.4-.2-4.1c-1-3.3-.9-4.3.6-7.1 1.6-3 1.6-3.6.3-6.2q-4.2-8-18.4-11.4c-4.8-1.1-5.8-1-10.8 1.1l-5.5 2.3-8.7-3-8.8-2.9-.3-4.1c-.2-3.3-1.1-4.9-4.6-8.3-3.8-3.7-4.7-4.1-6.4-3.2-1.1.6-4 1.1-6.4 1.1-4.2 0-4.7-.4-16.3-12-6.6-6.6-12.3-12-12.6-12-.4 0-.9 1.7-1.3 3.8"/></svg>