<svg xmlns="http://www.w3.org/2000/svg" width="1365.333" height="1365.333" viewBox="0 0 1024 1024"><path d="M58.4 288.1c-2.8 3.2-5.1 4.1-12.3 4.9-6.2.8-6.8 1.1-10.6 5.4q-4 4.5-6.2 4.6c-3.3 0-8.2 5.8-6.8 8 .3.5 3.7 2.8 7.5 5l7 4.1v6.5q0 6.4-1.5 8.8a36 36 0 0 1-13.9 9.2l-2.9.7.7 8.3c.8 10.1.3 11.4-8.8 20.4-5 4.8-6.6 7.1-6.6 9.2 0 2.3.6 2.9 3.8 3.7 2 .5 7.4 1.3 11.9 1.7 7 .5 8.7.4 11-1.1 6-3.9 13.3-3.7 13.3.4 0 1.4-1.9 2.5-7.5 4.6a58 58 0 0 0-11.7 5.8 45 45 0 0 1-8.3 4.8c-3.9 1.6-4 1.8-4.2 6.5 0 2.7-1 6.9-2.1 9.4-1.2 2.4-1.9 4.7-1.6 4.9s3-2 6.2-5c3.1-3 8.3-7.5 11.5-9.9s6.7-5.4 7.7-6.7c2.3-3 15.9-9.3 19.9-9.3 2.3 0 3.7-.9 5.8-3.5 1.7-2.2 4.2-3.9 6.5-4.5 4.2-1.2 11.9-9.2 15.1-15.8 1.7-3.4 2.6-4.2 4.8-4.2 1.4 0 4-.5 5.6-1 2.4-.9 4.1-.7 8 .8l5.1 1.9 4.2-2.8c3.7-2.5 5.3-2.9 10.9-2.9s7.7.5 14 3.7c7.9 4 10.3 4.3 22.4 2.8l5.8-.8 4.2 4.7c2.4 2.5 4.7 4.6 5.2 4.6s3 2.1 5.6 4.6l4.7 4.6 11.2.9c13.6 1.1 16.3 2.4 3.5 1.6-5.7-.3-10.6 0-13.5.8-2.5.7-8.9 1.9-14.3 2.8a34 34 0 0 0-13.8 4.1c-4.7 3.2-4.9 4.8-.9 7.6 2.4 1.7 3.9 2 6.9 1.5 3.4-.6 4.1-.3 5.1 1.4s.8 2.1-.5 2.1q-1.3.1-1.5 1.6c0 1.5-.8 1.6-6.2.9-11.3-1.3-22-1.9-38-2-15.9 0-19.6-.9-14.2-3.4 4.4-2 3-4.7-3.4-6.5-3.2-.9-6.8-1.6-7.9-1.6-2.1 0-2.1.1-.5 4.2a22 22 0 0 0 3 6q3.6 4.4-12.5 3.6c-9-.5-9.6-.7-12.9-3.9-1.9-1.8-3.4-3.9-3.4-4.7 0-1.2-1-1.3-5.2-.8-2.8.4-5.9 1.1-6.9 1.7-2.3 1.2-8.5 1.2-12.8-.1-3.8-1.1-6.1.1-14.2 7.6a25 25 0 0 1-6.7 4.8c-1.6.5-2.6 2.3-3.8 6.6-1.6 5.7-1.7 5.8-5.9 6.4-3.5.6-4.5 1.2-5.3 3.4A45 45 0 0 0 4 448c0 3-.9 8.4-2 11.9-2.4 7.5-1.8 8.9 3.2 7.2 5.5-2 24.9-5.1 32-5.1 5.6 0 6.9.3 7.7 1.9.9 1.6.2 2.6-4.3 6.5-3.9 3.3-6.3 4.6-8.5 4.6-2.6 0-3.1.4-3.1 2.5a5 5 0 0 0 2.5 4.1c1.4.9 2.5 2.5 2.5 3.5s1.3 3.3 2.9 5.1c4 4.6 4.6 7.1 2.1 9.3-3.9 3.5-1.4 6.5 5.4 6.5 4.4 0 6 3.3 2.7 5.7-2.8 1.9-6.1 5.5-6.1 6.5 0 1.2-6.8 1-7.5-.2-1.4-2.3-2.5-.7-2.5 3.4 0 3.6.5 4.9 2.5 6.4q2.5 2 2.5 4.8c0 4.2.8 4.9 8.5 8.5l7 3.2-5 .9c-5.8.9-12 .2-15.2-1.8-3-1.9-3.1-1.9-3.5 1.8l-.3 3.3-2.2-4.2c-1.9-3.4-2.1-4.6-1.2-7.1.9-2.7.6-3.7-2.5-8.6-3-4.8-4-5.6-6.6-5.6h-3v7c0 4.5.6 8.2 1.6 10.2q3 5.3-3.9 4.6c-2.2-.2-3.2.4-4.5 2.4-1.5 2.5-1.5 2.8.3 4.7 1 1.2 3 2.1 4.4 2.1q2.5.1 6.7 4.1l4.2 4.2 2.7-2.7c3.8-3.8 8.9-3.6 11 .4a16 16 0 0 1 1.5 6c0 2.9.3 3.1 2.9 2.9q2.8-.3 6.9 2.3c2.2 1.5 5.2 3 6.6 3.4 3 .7 4 1.8 5.3 5.9q2.5 6.8-7.9 10.7a22 22 0 0 0-5.8 2.9c0 .4 1.1 1 2.4 1.3 3.2.8 5.6 7.9 5.6 16.7 0 5.4.3 6.8 1.8 7.4q1.7.7 4.3-2.4c2.9-3.6 7.7-4.5 5.9-1.2-1.6 3.1-1.2 5.1 1 5.1q2 0 1.4 1.5-.8 1.6 2.5 2.1c3 .6 3.1.9 2.9 5s-.6 4.5-3.5 5.5c-2.4.8-4.1.7-6.7-.2-3-1.1-3.7-1-6.4.9-2.8 2.1-2.9 2.4-2 5.6.9 3 1.3 3.3 2.9 2.3 1.3-.8 2.7-.7 5.6.2a40 40 0 0 0 13.8.7c26.9-1.7 35.7-1.7 35.3-.4-.3.7-1.6 1.4-3.1 1.6-1.4.2-3.1 1-3.7 1.8s-2.5 1.4-4.1 1.4c-2.4 0-3 .6-4 4l-1.2 4-6.1.2-11.1.3c-3.1 0-7.7 1.1-12.3 2.9-6.6 2.7-7.2 3.1-5.6 4.3 2.4 1.7 14 1.7 15.1 0a14 14 0 0 1 3.7-3.1c2.3-1.5 3.3-1.6 5.3-.7 3.1 1.4 8.5 1.4 11.8-.1 1.4-.6 2.8-.8 3.2-.4 1.2 1.1-1.2 4-3.8 4.6q-3 .6-.6 1.3c2.1.8 2.3 3.7.2 3.7-1.2 0-3.5 2.8-3.5 4.4 0 2 4.8 0 8.8-3.7 2.6-2.4 6-4.8 7.6-5.5q3-1.2 2.3-3.1c-.4-1.6.3-2 5.2-2.5 8.7-1 11.8 0 13.1 4 .9 2.5 2.2 3.8 4.8 5 2.1.8 4.4 2.5 5.4 3.6 1.4 1.9 1.9 2 3.2.9.9-.7 1.6-1.9 1.6-2.5s.7-2.2 1.6-3.4l1.5-2.3 4.1 3.2c3.3 2.7 3.7 3.4 2.4 4.1-2.2 1.2-2 4.4.3 6 1.5 1.1 1.9 2.6 1.9 7.1l-.1 5.8 5.9 5.4c4.2 3.8 6.5 5.2 7.9 4.9q2.1-.4 3.9 1.5c1.4 1.5 3.1 2.1 6.1 2.1 3.2 0 4.6.6 6.3 2.5 2.7 3.1 4.5 3.1 8.6 0 1.8-1.4 4.4-2.5 5.9-2.5 3.2 0 10.8-3.2 12.5-5.3 1.2-1.4 1.8-1.4 5.3-.2 2.2.8 5.3 2.2 7 3.2 3.6 2.1 4.3 1.4 5.9-6.2.6-2.7 2-6.5 3.1-8.5 1.3-2.1 2.2-5.8 2.5-9.5.7-11.8 1.4-14.4 4.5-16.6 2.8-2 3.2-2 7-.5a40 40 0 0 0 13.8 1.6c7.7 0 11 .5 14.5 2 2.5 1 4.6 2.4 4.6 2.9s1.5 1.3 3.3 1.6 4.8 2 6.7 3.5 9.1 5.6 16 9c13.5 6.7 14.4 7.5 22.5 19.5q10.3 15.3 14.5 15.5c1.1 0 3.3.9 4.9 2.1a15 15 0 0 0 15.6.9c3.9-1.9 5.1-2.1 7.2-1.1q4 1.7 4.3-2.2c0-.4 5.8-.7 12.9-.7 10.2 0 13.1-.3 14.1-1.5 1.4-1.7 4.1-2 5.6-.5q1 1 5.9-4c5.5-5.5 6.9-6 8.6-2.8l1.1 2.1 1.7-2.6c.8-1.5 2.3-2.7 3.3-2.7 1.4 0 1.6-.6 1.2-2.9-.5-2.5.3-3.7 7.8-11.1 4.5-4.5 10.1-9.3 12.3-10.7s5.1-3.6 6.5-4.9c2-1.8 4.1-2.4 10.2-3 7.3-.6 7.8-.5 10.8 2 1.7 1.4 3.7 2.6 4.3 2.6a22 22 0 0 1 6.1 4c2.6 2.2 5.5 4 6.3 4 .9 0 3.1.9 4.9 2.1 2.6 1.6 3.8 1.8 5.3 1 1.1-.6 3.9-1.1 6.3-1.1s4.8-.4 5.4-.8c1.4-.9 3.4-6.8 3.4-9.8 0-1.9.5-2.4 2.6-2.4q2.6.1 8.6-5.5a32 32 0 0 1 6.9-5.5c2.2 0 8.8 5.4 9.9 8.1a21 21 0 0 1 .8 8.4c-.4 4.6-1 6.2-3.8 9a26 26 0 0 1-5.9 4.5c-1.5.6-4.6 3.3-6.9 6l-4.3 5 4 9.5c4.4 10.1 4.7 12.3 3 17.4-1.6 4.6.8 6.8 8.1 7.3 5.3.3 5.4.3 6.3-2.9.6-1.8 1.8-3.5 2.8-3.8s2.9-1.5 4.3-2.6c2.4-1.8 2.6-2.7 2.6-9V712h4.4c2.5 0 5.6.4 7 1 2.1.8 3 .5 5.5-2l3-3-2.9-1.5c-4.9-2.5-7.3-7-6.6-11.8l1.5-10.3c.8-5.4 2.1-9.1 4.9-13.2.7-1.1 1.7-1 4.8.7 2.1 1.2 5 2.1 6.4 2.1 5.5 0 7.2 1.1 6.8 4.2-.7 4.2 2.8 6.5 7.3 4.9 1.8-.6 6.7-1.1 10.9-1.1 6.3 0 8-.3 9.4-1.9 2-2.2 9.6-5.1 13.5-5.1 1.4 0 4.9-1.4 7.6-3 10.9-6.4 14.9-8 20.3-8 6.6 0 14.2 3.6 19.4 9.4l3.8 4.1 21.8-.1c27.2-.2 34.4-1.2 46.4-6.5l15.3-6.6a36 36 0 0 0 9.5-5.9c1.9-1.8 5.1-4 7-4.8s4.4-2.4 5.4-3.5a7 7 0 0 1 5.2-2.1c1.8 0 5.4-.5 8.1-1.1 4-.9 6.8-.8 14.5.5 11.8 2 17.8 2 22.3.2 1.9-.8 5.6-1.8 8.2-2.1 8.8-1.2 20.1-5.4 22.5-8.5 1.3-1.5 3.8-3.5 5.6-4.4 3.1-1.6 3.5-1.6 6.5.1 2.5 1.5 3.3 2.7 3.7 5.9q.4 4.2 2.3 3.8l4.8-.2c3.9-.2 9-5.5 10.9-11.2.7-2.2 2.4-4.7 3.8-5.6 2.2-1.5 2.8-1.5 6.8.1 4.2 1.6 4.7 1.6 9.3-.1 3.9-1.4 5.4-1.5 8.1-.5 1.8.6 4.8 1.1 6.7 1.1 1.8 0 5.1 1.1 7.3 2.5 2.1 1.4 4.6 2.2 5.5 1.9.8-.4 2.2-.1 3 .6q1.5 1.2 9.1.8c7-.3 7.8-.6 9.9-3.2 2.2-2.8 2.6-2.9 8.2-2.2 4.1.4 6.3 1.2 7.6 2.7 1.9 2.3 2.3 6.4.7 7.4-1.9 1.2-1 6.1 1.5 8.5 2 1.9 3 2.2 4.3 1.4.9-.6 1.8-2 2-3.2q.3-2 4.5-3.7c2.2-.9 5.6-3 7.4-4.6q3.4-2.8 6.4-2.9c3-.1 3.2-.6 3.6-1.8.3-.9 1.3-2.5 2.1-3.4 1.3-1.6 1.2-1.8-1.1-2.7-1.5-.6-3.8-3-5.4-5.3a72 72 0 0 0-4.5-6.4c-1.3-1.5-2-4.6-2.6-11-.7-8.7-.8-8.9-3.4-9.2-1.6-.2-3-1.1-3.3-2.3-.8-2.5-5.5-4.9-9.8-4.9-3.1 0-3.5-.3-3.9-3.2-.3-1.7.1-4.3.8-5.7s1.4-3.1 1.4-3.7 1.1-2.1 2.5-3.4 2.5-3.5 2.5-4.9c0-1.3.9-4.4 2.1-6.8 2.7-5.6 2.2-7.7-1.8-8.1-1.7-.2-3.7-.9-4.3-1.7a91 91 0 0 1-3.6-24.5c-.5-6.6-.8-7.7-2.7-8.5q-5.1-2.3-4.1-11.1c.8-6.5 0-8.8-3.1-10.2q-2.6-1-2.5-4c0-1.6-.5-4.4-1.1-6.2-.9-2.6-.9-3.4.2-4.1 1.8-1.1 6.6-1.1 8.8 0 1.2.7 2.8.2 5.9-1.7 4.1-2.6 4.2-2.8 4.2-8.2.1-8.7 1.4-12.8 5.4-16.5 2-1.8 3.6-3.7 3.6-4.3s-2.9-4.1-6.4-7.8l-6.4-6.9-12.3-.1c-16.8-.1-28.8-3.3-25.9-6.9q1.2-1.3 0-2a40 40 0 0 1-6-13.4c0-.9-.7-2.6-1.5-3.8-1.3-1.9-1.2-2.4 1.4-6 1.6-2.2 3.7-6.5 4.7-9.6 1.6-5.2 1.6-5.8.1-9.9-1-2.4-1.7-5.3-1.7-6.4 0-3-3.4-7-8.6-10q-4.5-2.6-4.4-4.8c0-1.2-.7-3.2-1.6-4.4-1.2-1.8-2.5-2.2-6.9-2.2-4.9 0-5.6-.3-6.8-2.8-.8-1.5-1.3-3.2-1-3.8.2-.5-1.5-1.8-3.7-2.8a20 20 0 0 1-7.3-6.2c-2.3-3.2-3.7-4.3-5.2-4-1.5.4-2.4-.3-3.5-2.7-1.4-2.9-2-3.2-6.6-3.5s-5.4 0-7.3 2.4a9 9 0 0 0-2.1 4.3q-.1 4.8-4.1 3.2c-1.3-.6-8.2-1.5-15.3-2l-12.9-.9-2.5 2.9c-2.2 2.7-2.6 2.8-4.2 1.4a7 7 0 0 0-4.3-1.5c-1.4 0-3.8-.5-5.4-1.1-2.7-1-3.1-.8-9.3 5.9-5.1 5.5-7.3 7.2-10.3 7.7a27 27 0 0 0-8.6 4.6q-4.8 3.8-7.7 3.9-7.8 0-13.3 5.4-5.8 5.6-11.5 5.6c-1.3 0-2.9.7-3.7 1.6-.7.9-4 2.9-7.3 4.6-5.8 3-6.2 3-8.9 1.4-1.6-.9-5.1-1.6-8-1.6-3.9 0-7.7-1.1-15.4-4.4-8.9-3.9-10.6-4.3-14-3.5-2.1.5-5.9.9-8.4.9-2.6 0-11 2.1-20 4.9-8.5 2.7-17.4 5.2-19.7 5.6-4.7.8-16.7-.7-26.9-3.2-6-1.5-6.2-1.6-6.8-5.4-.7-3.8-.7-3.9-5-3.9-3.6 0-4.5.4-5 2.1s-1.2 2-4.3 1.4c-2-.4-4.9-1.3-6.4-2.1-1.6-.8-6.2-2-10.4-2.7-7.3-1.1-7.5-1.3-9.9-5.4-3.7-6.2-7.3-8.3-15.5-9l-7.1-.6-3.9 3.8c-3.7 3.6-3.9 3.7-7.5 2.5-2.7-.9-4.1-2.1-5.1-4.5-1-2.6-2.2-3.5-5.1-4.2l-3.8-.9-.7-7.2c-.4-3.9-1.5-8.3-2.4-9.6-2.3-3.6-8.9-4.4-17.6-2.1q-13.5 3.5-22.7-2.2a27 27 0 0 1-11.4-16c-.8-4.7-4.5-10.6-7-11.1-1-.2-2.7.7-3.8 2.1-4.6 5.9-7.1 6.6-24.3 6.6-11.7 0-16.7-.3-19.3-1.4-2-.8-5.6-1.5-8.2-1.5s-9.8-.7-16.1-1.6-13-1.4-14.9-1.1c-7.7 1-16.8 4.1-20.1 6.7-2.8 2.2-5.7 3.1-13.3 4.3-7.3 1.1-11 2.3-14.5 4.5-2.6 1.6-6 3.3-7.6 3.6s-4.9 2.4-7.5 4.5a31 31 0 0 1-8.8 5c-2.4.6-7.1 3.4-10.5 6.2-6 4.7-8.9 6.3-19.2 10.8-3.8 1.7-4.6 2.6-6.1 7-1.4 4.3-2.4 5.5-5.8 7.2-3.7 1.9-5.4 2.1-18.1 1.7-14.1-.4-14.1-.4-21.2-4.1-9.1-4.9-13.3-5.6-17.1-3a20 20 0 0 1-7 2.7c-4.7.7-17.3-.8-24.7-3-9.4-2.7-22.5-4.5-24.5-3.4-2.8 1.4-3.1 1.3-3.1-1.5 0-2.9-.3-3-3.1-1.3-1.8 1.2-4 .3-18.4-7.1a80 80 0 0 1-23.4-15.2 35 35 0 0 1-7.7-9.6c-.4-1.5-1.5-4.5-2.5-6.5-2.3-4.5-2.4-8.7-.4-9.4 2.5-1 1.7-3.3-1.7-5.4-4.4-2.6-8.4-2.6-9.9.1q-1 2.1-3.1 1.5c-1.2-.2-3.8.4-5.8 1.4l-3.7 1.9-3.3-4.7c-5.2-7.7-13.6-13.2-15.5-10.2-.3.5-1.9 1-3.5 1s-3.2-.5-3.5-1c-1-1.6-3-1.2-5.1 1.1"/></svg>