<svg xmlns="http://www.w3.org/2000/svg" width="1365.333" height="1365.333" viewBox="0 0 1024 1024"><path d="M638.1 169.6c-4.7 1-7.4 1.1-10 .4-5.2-1.4-10.1-1.2-10.7.4-.3.8-3.5 3.4-7 5.7-5.3 3.4-6.7 3.9-7.9 2.9s-1.9-1-3.4.4c-1.3 1.2-2.7 1.4-5.2.9-4.4-.8-9.6-3-10.4-4.3-.3-.5-1.7-1-3-1s-2.7-.5-3-1-1.3-1-2.1-1c-1.2 0-1.4.9-.9 4.3.5 3.3.3 4.6-.9 5.6-1.4 1.1-1.4 1.6-.1 3.3 1.2 1.8 1.2 2.4-.3 4.6a24 24 0 0 1-5.6 5.3c-5.5 4-10.9 4-15.1-.1-2.7-2.7-3.5-2.9-5.8-2.1q-2.5 1-5.9 0a33 33 0 0 0-7.2-.9c-2.2 0-4.7-.7-5.6-1.5-1.5-1.4-2-1.3-4.3.6-1.5 1.1-2.7 2.9-2.7 3.9 0 1.8-4 3.6-5 2.1-1.4-2.1-6.5-2.8-9.7-1.3-1.8.9-3.3 2-3.3 2.5 0 .9-3.2 5.2-8.4 11a41 41 0 0 0-4.7 7 45 45 0 0 1-5.3 7.5c-1.9 2-3.7 5.2-4.1 7-1 4.7-.9 10.3.2 11.1 1.5 1 2.4 5.9 1.2 6.6q-1 .7.4 2.3 3.6 4.3 1.7 10.3c-1.1 3.3-1.7 3.9-4.2 3.9-1.6 0-3.1-.6-3.4-1.5a3 3 0 0 0-2.3-1.5c-1 0-2.7-1-4-2.1-1.9-1.7-2.2-2.8-1.6-5.6.5-2.8.1-4.1-1.9-6.8-3.5-4.5-8.8-5.5-14.5-2.6-3.4 1.8-4.4 1.9-6.2.9-1.7-1.1-2.2-1-3.4.5-1.9 2.7-4.9 1.8-5.3-1.6-.3-2.1-.9-2.7-2.7-2.7-1.3 0-3.3.9-4.4 2.1s-2.4 1.8-3 1.5q-1-.4-1.7 2.9c-.7 3.9-.7 3.9-3.5 2.4-1.6-.8-2.6-.7-4.5.6-2.1 1.4-2.4 1.4-2.4 0 0-.8-.8-2-1.9-2.7-1.4-.9-1.8-2-1.4-4.8.9-6.8-6.8-12.7-11.1-8.5-.8.8-2.7 1.4-4.3 1.3-6.5-.4-8 .1-10.7 4.2-1.4 2.2-3.2 4-3.9 4s-1.7-1.9-2.3-4.3c-.9-4.2-.9-4.2-6.7-5.1-4.9-.8-6.1-.7-7.4.7-1.6 1.5-1.9 1.4-4.5-2.6a20 20 0 0 1-2.8-5.5c0-1.9-4-1.4-4.7.5-2 5.9-8.5 8.1-12.3 4.3a8 8 0 0 0-4.6-2c-2.4 0-2.6.2-2 3.4.6 3 .3 3.7-2.4 5.6-4.9 3.5-6.8.3-3-5l2.1-2.9-5.2-1.6c-6.2-1.8-8.3-1.9-11-.5q-1.9 1-3.8 0-2-1-4.7 0c-2.5 1-2.6.9-2.2-1.9q.5-3-1-3.6c-1.1-.4-1.3-1.6-.8-5l.7-4.5h-5.3c-3 0-5.9.5-6.5 1.1q-1.1 1.2-3.1 0c-1.1-.6-3-1.1-4.2-1.1-1.1 0-3.2-1.2-4.5-2.6q-5-5.3-11.2-2.6c-3.8 1.8-6.3.5-6.3-3.5 0-1.9-.5-2.4-2.2-2.3-8.1.7-11.9 0-14.4-2.7-2.1-2.2-3.5-2.8-7.2-2.9-2.6 0-6-.8-7.7-1.6-2.5-1.2-4.9-1.3-13.4-.6-9.4.8-10.6.7-12.5-1-4.3-3.8-6.6-4.1-13.6-1.8-6.7 2.1-13 2.4-28.4 1.3-6.6-.5-7.1-.4-11.3 2.6-3.3 2.5-4.2 3.8-4.1 5.7.3 3.3-.6 4.6-5.3 7.6a37 37 0 0 0-6.7 5.5c-2.5 2.7-3 2.9-6.1 2-1.9-.6-3.8-.8-4.3-.4q-.9.4-.3-1.6c.5-1.6.1-2.3-1.8-3a9 9 0 0 1-3.1-1.9c-.3-.6-2.4-.3-5.1.7q-4.8 1.6-3.9 3.1c.4.8.5 2.2.4 3l-.1 8.7c0 4-.4 7.5-.9 7.8-1.3.8-1.3 8.5 0 8.5.5 0 1.8 1.9 2.8 4.2s2.6 4.9 3.5 5.7c1 .7 1.7 2.8 1.7 4.7 0 1.8.5 3.6 1 3.9s1 1.4 1 2.4.6 2.4 1.4 3 1.6 2.5 2 4.2a13 13 0 0 0 3.6 5.9c1.6 1.5 3 3.7 3 4.8 0 1.8-.4 2-3 1.2-2.8-.8-3.2-.6-4.1 1.7-.7 2-.6 3.5.6 6 .9 1.8 2 3.3 2.5 3.3 1.8 0 .9 11.4-1.3 17.5l-2.2 6-8.3.5-8.3.5-4.7 5.2a96 96 0 0 1-12.6 10.9 201 201 0 0 0-34 33.7c-2.4 3.4-4.7 5.7-5.8 5.7s-1.8.7-1.8 1.8c0 1-1.5 2.5-3.3 3.5-4.1 2.3-6.6 7.9-4.5 10.4.9 1.2 1.3 4.8 1.1 13.2 0 6.4-.3 12.7-.5 14.1-.2 1.8.4 2.8 2.4 3.8q5.2 2.5 4.6 8.2l-.3 2.9-7.3-3c-9.3-3.7-10.7-3.7-12 .1a9 9 0 0 1-4.6 4.7c-3.2 1.5-3.6 2.1-3.6 5.4 0 2.3-.6 4.1-1.5 4.6s-2.1 2.8-3 5.3q-2.5 7-9.6 14.2c-4.7 4.7-5.4 8.8-3 16.1 2.2 6.6 6.5 13.7 8.2 13.7.6 0 3.5 2.3 6.5 5.1 3.8 3.7 5.4 5.9 5.4 7.8 0 4.2 1.3 5.2 7.2 5.5 7.6.4 8.2 1 7.4 6.4-.4 2.8-.2 5 .5 5.8q2.7 3.1 2.9-1.1c0-2.4.3-2.5 3.8-1.9 3.1.5 4.2.2 6.2-1.8 1.4-1.3 3-3.3 3.6-4.3 1.4-2.5 6-1.3 6.9 1.8.4 1.2 2.1 3.7 3.8 5.5 2.9 3 3.6 3.2 9.5 3.2 8.3 0 15 1.7 16.3 4.2.9 1.7 1.7 1.9 6.8 1.3 5.3-.6 6.1-.4 11.8 2.9 6.3 3.7 8.5 3.8 14.7.5 1.8-1.1 10.2-.4 12.3.9.5.4 1.9 2.8 3 5.3 1.3 2.8 3.3 5.4 5.2 6.5a13 13 0 0 1 4.6 5.6c1.2 3.2 2 3.8 4.4 3.8 6.7 0 9.3-1.3 15.9-8 6.3-6.3 7.1-6.8 12.2-7.4 3.1-.4 9.4-.4 14-.1 5.1.4 10.5.2 13.5-.5 2.8-.7 7.8-1.2 11.2-1.2 6 0 6.3-.1 8.3-3.4 1.2-1.8 3.2-4.2 4.4-5.1 1.2-1 2.6-2.9 2.9-4.3 1-3.8 1.8-4.4 7.2-5.8 6-1.5 14.1-6.8 15-9.7.5-1.9.6-1.9 1.6-.3 1.4 2.5 6.9 2.4 6.9 0 0-.9-.9-2.3-2-3-2.6-1.6-2.6-4.2-.1-4.2 1.1 0 4.1 1.1 6.6 2.4q7.6 4.2 7.5-1 0-4.3 3.5-.4c1.4 1.6 2.6 1.9 4.8 1.4s3.2-.1 4.1 1.2c1.5 2 3.6 1.1 3.6-1.5 0-.9.6-2.6 1.4-3.7 1.4-1.8 1.5-1.8 2.1.9.9 3.4 3.7 3.6 5.9.3 2.3-3.6 5.4-4.3 7.3-1.6 1.3 1.8 2.1 2 5.8 1.5 4.1-.7 4.3-.6 6.5 3.2 3.9 6.4 6.1 8.3 9.6 8.3s4.6 1 4.8 4.4q0 2.2 2.9 2.4c1.5.2 2.7 1 2.7 1.7 0 2.3 1.8 2.7 4.2 1.1 3.1-2.2 5.8-2 5.8.3 0 1-.6 2.4-1.4 3s-1.6 2.1-1.9 3.1c-.7 2.7 1.8 2.6 3.7-.2l1.5-2.1.9 2.4c.5 1.3 1.1 3.3 1.3 4.3.6 3.1 2.6 2.9 3.2-.2.7-3.7 5.9-6.2 8.8-4.4 1 .7 3.2.9 5 .5q5.8-1 5.9 6c0 1.6.9 4 2 5.4s2 3.4 2 4.5q-.1 2.2 1.6 1 1.7-.9 4.6.5c2.7 1.4 3.1 1.4 5.4-.8 2.9-2.7 4.1-1.9 4.6 3.1q.1 3.7 2.1 3.4c2.1-.2 2-.5.2 4-1.4 3.4-1.3 4.1.8 3.7.5-.1.1.9-.7 2.1-.9 1.2-1.6 4.2-1.6 6.6 0 3.1-.7 5.3-2.6 7.7q-2.5 3.4-1.8 4.7c.5.7.7 3.7.5 6.6-.2 4.4-.1 5.1 1.3 4.6.9-.3 2.2-.2 2.9.4.6.5 2.4 1.2 3.8 1.5 2.5.6 3.3 2 5.3 8q1.7 4.8 7.2-.4l3.4-3.3v3.6c0 2-.5 4-1.1 4.3q-1 .8-.4 5.6c.6 4 .4 4.9-.8 4.9-2.8 0-2.9 1.9-.3 4.4 2.7 2.4 3.7 8.8 1.6 10.1-1.8 1.1-.1 2.3 4.1 3 3 .5 4.3 1.3 5 3.2.8 2.2 1.4 2.5 4.9 2.1 3.2-.3 4 0 4 1.3 0 .9.9 2.4 2 3.4 1.7 1.6 2 3.1 2 11.7 0 9.1-.1 9.8-2 9.8q-4.2 0 .7 4.6l5.3 4.9c1.4 1.2 3.6 2.8 4.9 3.5 2.1 1.1 2.2 1.3.8 2.7-1.3 1.3-2.3 1.4-5.8.5-4.6-1.2-5.9-.9-5.9 1.4 0 3.4-4.6 0-7.5-5.5-1.7-3.3-3.5-4.1-3.5-1.5q0 1.6-1.9.9c-1.5-.5-2.4.2-3.8 2.7-1.6 2.9-1.8 3.1-2.1 1.1-.2-1.2-1.5-2.6-3-3.2s-3.2-2.1-3.7-3.3c-1.4-3-3.2-3.3-4-.9-.8 2.7-2.2 2.7-3 .1q-.6-1.8-1.5-2c-1.2 0-2.4 4.6-1.5 5.9q.4 1-.9 1.1-1.8.3-2.5 1.7-1 1.6-1.6 1.1-.6-.7.1-2c.4-.7.8-3.8.9-7 .1-5.3-.1-5.8-2.1-5.8-1.2 0-2.7.7-3.4 1.5s-2.5 1.5-4.1 1.5a5 5 0 0 0-4.4 2.4 8 8 0 0 1-3.4 2.9c-1.8.4-1.8.9-.7 6.4.9 4.2 1 6.6.2 8.2-.9 2-.6 2.7 2.2 5.2 1.8 1.6 3.2 3.1 3.2 3.4s-1.4 2.5-3.2 5c-2.8 4-3.1 4.8-1.9 6.6q1.1 2 .9 2.4l-5.8 2c-7.9 2.5-8.8 3.6-8.2 9.6.4 4.5.2 5.1-1.7 5.6q-2 .6-2.1 2.4c0 1.5-.7 1.9-3.5 1.9q-3.6-.1-3.5 1.6 0 1.5-1.5 1c-1.9-.7-3.8 5.9-2.9 10.3q.6 3-.5 3.1c-.6 0-1.1 1.3-1.1 3 0 3.3-1.9 4-4 1.5-1.9-2.2-8.6-1.9-11 .5s-2.6 4-.5 4q1.4 0 1.5 2.5c0 3.6 2.3 7.6 5.7 10.1 5.3 3.9 13 7.3 18.1 8 5.5.7 9.6-.1 7.4-1.5q-1.4-.7-.3-3.4c1.2-3.2 2.5-3.3 6.9-.7 4 2.4 3.9 2.4 4.5 0 .5-2 2.1-2.9 9.4-5.1 2.4-.6 5-2 5.9-3.1 1.3-1.3 3.1-1.8 7.6-1.8 6.6 0 10.7 1.5 15.8 5.8 2.9 2.5 3.5 3.8 4 8.1 1.1 10.8 5.2 4.1 5.6-9.1l.3-8.7-4.5.6q-4.5.6-4.4-.6c0-2.5 11.8-13.5 22.7-21.3 6.8-4.8 14-10.9 18.1-15.5 8.4-9.3 9.7-11.5 8.7-13.9-.5-1.1-1.6-3.9-2.4-6.3-1.4-3.6-2.4-4.7-5.7-6a30 30 0 0 1-6.5-3.6c-4.8-3.8-4.4-10.5.7-10.5q2.4 0 1.9 1.1c-.9 1.4 2.2 4.7 6.7 7s5.3 3.5 5 7q-.3 2.5 2.3 3.9c2 1.1 2.2 1.6 1.4 3.2a6 6 0 0 0-.7 3.6q.3 2.2 1.7-.8c3.5-6.5 12.6-21.7 14.1-23.5 1-1.1 2.2-3.4 2.8-5.1.8-2.7.7-3.5-.9-5.1q-5-4.7 5.4-5.8c3.4-.4 8.8-1.6 12-2.7 4.7-1.7 6.2-1.9 8.3-.9 4.5 2 7.4 1.3 11-2.6 1.9-2 3.7-3.3 4.1-3 .4.4.1 1.3-.5 1.9q-1.1 1.2-1.2 1.9c0 1.3 5.2 2 6.6.9q1.3-1.2 8.6-.5c10.7 1 12.4-1.1 10.3-12.6-.8-4.1 1.6-9.9 4-9.9 1.8 0 2 1.6.4 2.6-.6.3-1.7 2.1-2.5 4-1.2 2.8-1.2 3.7 0 6.1.8 1.5 2.1 4.5 3 6.7 1.4 3.3 2 3.8 4.2 3.3 1.9-.3 3 .2 4.6 2.3 1.7 2.3 3.1 3 7.9 3.5q9.6 1.3 3.7 4.6c-2.7 1.4-20.4.3-26.1-1.7-2.2-.8-7.2-1.4-11.1-1.4-4.2 0-7.7-.5-8.4-1.2-2.4-2.4-2.2 0 .2 2.9 3.4 4.1 7.7 5.8 10.5 4.3q2.1-1 3.9-.1c.9.5 4.3 1.2 7.5 1.6 4.2.5 6 1.3 6.8 2.7q1 1.8.7 2.2a23 23 0 0 1-10.5 4.6c-3.9 0-6.1 2.3-4.3 4.5s5 1.9 5-.5q.1-4.3 4 1 2.1 3 5 3c1.5 0 3 .7 3.4 1.5s1.7 1.5 3 1.5c2.6 0 5.6 3.2 5.6 6 0 1.1 2.5 2.2 8.6 3.9l8.7 2.4 5.1-1.9c3.6-1.3 7.9-1.9 14.6-2 12.6-.1 12.5 0 11-1.9-1.9-2.3-.3-3.1 2.8-1.3 3.2 1.9 6.2.8 6.2-2.2q.1-1.8 1-2c.6 0 1 1.7 1 3.7 0 3.3.1 3.5 1.3 1.8 1.5-2 4.2-1.2 3.3 1-.3.8.1 1.9.9 2.5q1.3 1.2 1.8-.2t2.7 1.5c2.1 2.6 2.3 2.7 4.6 1.2a10 10 0 0 1 4-1.5q1.9.1.5-1.4c-1-1.2-.8-1.9.7-3.4 1.6-1.6 2.2-1.7 3.6-.7s1.5 2.2 1 5.3a33 33 0 0 0 0 7.7c.6 3.2 1 3.5 4.1 3.5 1.9 0 3.5.4 3.5 1q-.2.8-1.5.4-1.6-.8-2.1 2.5c-.7 3.3-1.1 3.6-3.3 2.2q-1.5-1-3.9 1-2.5 2-3.8.8c-.9-.8-2.2-.2-5.1 2.4-6.6 5.9-10.5 7.1-12.9 4-1.2-1.6-1.4-1.5-2.8 1.8a9 9 0 0 1-4.8 5c-5.5 2.2-12.8 7.9-13.4 10.5-.3 1.3-1.3 2.4-2 2.4-.8 0-2.7.8-4.2 1.8-3.6 2.4-6 3.8-10.5 6.2-3.9 2.2-5.9 5.1-3.9 5.8.7.2 1.2 1.4 1.2 2.6 0 1.7.9 2.4 4.2 3.3 3.6 1 4.5.9 6.6-.7 1.3-1.1 4.3-2.2 6.7-2.5 4.9-.8 6.3 0 17 9.1 3.3 2.8 7.5 5.9 9.3 6.8 3 1.6 3.5 1.6 6.7 0 1.9-.9 3.5-2 3.5-2.4 0-1.5 4.6-2.6 7.8-1.8q5.3 1.5 1.6 4.9c-1.8 1.5-1.2 4.9 1.6 8.8 1.1 1.4 2.5 5.2 3.1 8.4 1.1 5.4 1 6-1.1 8.9-1.9 2.6-2.1 3.8-1.6 8.2.4 2.9.2 6.4-.3 7.9q-1 2.6.1 3.3c1.2.8-4.4 3.4-7.3 3.4-2.4 0-2.4.5 0 3.9a19 19 0 0 0 8.4 5c5.5 1.9 6.7 2.8 7.6 5.3l1.1 3 8.6-.7c10-.8 14.7-2.5 18-6.5 1.4-1.6 4-3.4 5.9-4s3.5-1.7 3.5-2.3c0-.7.9-1.8 1.9-2.4a15 15 0 0 0 3.5-6.1c1.5-4.6 2.4-5.5 9.7-10.1 8.8-5.7 11.8-7.1 15.3-7.1a37 37 0 0 0 14.1-6c.3-.6 2.8-2.1 5.5-3.5 2.6-1.3 5-2.9 5.2-3.6.4-1.2 6.4-1.5 9.7-.4q2.3.8 1.5-.9c-.3-.9-.3-2.4.1-3.4s.9-2.4 1-3.4.9-2.8 1.8-4.2c1.5-2.3 2.4-2.6 7.3-2.6 6.3 0 12.7 2.7 14.5 6.3 1.6 3 3 3.7 5.1 2.6 1-.6 2.7-.8 3.7-.4q1.8.6 2.9-2c1.3-2.7 1.3-2.7 11.3-.9q2.5.5 4.4-1.6c1-1.1 2.7-2 3.7-2 2.3 0 7.8-2.7 7.8-3.9q-.1-1-1.6-2.2c-2.1-1.7-1.4-12.2 1-14.8.9-1 1.6-2.2 1.6-2.8s.8-.9 1.8-.7 2.8-.6 4.4-2.3l2.7-2.8-3.7-3c-3.4-2.7-4.5-3-12.6-3.4-7.5-.3-9.5 0-13.1 1.8q-4.2 2.2-4.9 4.5c-.9 3.7-5.6 4.4-9.6 1.4q-3-2.3-2.7-4c.8-2.9-3.2-2.2-4.3.7q-1 2.3-2 2.5t-1 1.7c0 1-.6 2.6-1.3 3.5a31 31 0 0 1-13 6.8c-1.1 0-2.5.6-3.1 1.4-1.6 1.9-6.6 3-6.6 1.4 0-1.4-10.6-6.8-13.2-6.8-1.8 0-5.8-4.1-5.8-6 0-.8.9-2.3 2-3.5 1.7-1.8 1.8-2.6.9-6-1.5-5.2-8.8-12.6-11.8-11.8q-2.2.6-2.1-1.1-.1-1.5-1.4-1.6c-1.3-.1-1.6-.5-1.8-1.2-.3-.9-1.2-.9-3.6.1-1.7.7-4 1-4.9.6-1.6-.6-1.4-.9 1-2.1 3.5-1.9 3.4-5.7 0-6.2-3.1-.5-2.9-3 .2-3.8 2.9-.7 3.4-2.4.7-2.4-1.9 0-6.3 3-10 6.7-1.2 1.3-2.9 2.3-3.8 2.3-1.3 0-1.2-.4.4-2.7a38 38 0 0 1 4.6-5.2c2.6-2.5 3.4-5.9 1.6-7.7-.5-.5-.7-4.5-.3-9.7l.6-8.7h4.1a14 14 0 0 0 6.6-1.7c1.3-1 5.1-3.2 8.5-4.8 4.3-2.1 6.4-3.9 7.3-6.1.8-1.6 2.4-3.4 3.5-4 2.8-1.2 3.4-5 1.2-7.4-.9-1-1.5-2.5-1.3-3.2q.5-1.2 1.7 1c.6 1.2 1.8 2.2 2.6 2.2q1.4 0 1.7 3.7c.4 4.7 3.2 5.7 5 1.8 1-2.3.9-3.3-.9-6.8-3-6-3.5-7.6-3.9-13.7s.9-9.6 2.5-7.1c.5.8 1.2 3.9 1.6 6.9s1.5 6.8 2.6 8.6c1 1.7 1.9 4.2 1.9 5.5 0 2.2.1 2.3 1.8.9.9-.9 2.8-1.9 4.1-2.3s6.3-4.6 11-9.4c7.3-7.3 9.3-8.8 13.3-9.6 2.5-.6 5.6-.8 6.7-.3s3.4.2 5.1-.3q6.1-2.4 6 3.1.1 3-3.7 7.1c-3.5 3.9-3.6 4.1-1.3 3.7 2-.2 3.5-2.2 7.3-9.3 2.6-5 5.2-9.1 5.7-9.3s2.5-1.4 4.5-2.8 4.4-2.4 5.5-2.4 2.2-.5 2.5-1c.9-1.5 7.7-1.1 9.9.5 1.5 1.2 1.7 2.2 1.2 5.7-.6 3.9-.5 4.1.7 2.3.8-1.1 2.4-5 3.6-8.7 1.7-5 3.2-7.5 5.7-9.6 8.8-7.2 18.2-9.3 19.4-4.2.6 2.4.7 2.3 3.5-2l6.1-9.6 3.3-5.1 7.2-.6c4.2-.4 7.8-1.2 8.8-2.1.9-.8 3.2-1.4 5.1-1.3s4.7-.2 6.3-.6c2.2-.6 2.7-.4 2.7 1 .1 4.4 1.6 4.1 7.3-1.2 3.6-3.3 5.7-6.1 5.7-7.5 0-1.2.8-3.4 1.9-4.8 1-1.5 2-3.9 2.3-5.4.4-2.3.1-2.7-2.1-3-2.9-.3-2.8.2-1.5-12.1.6-6.3 1-7 4.6-10.2 2.2-1.8 5.1-3.6 6.5-4s4-1.7 5.7-3 4.3-2.8 5.9-3.4c1.5-.6 2.7-1.6 2.7-2.3s1.1-3.6 2.4-6.4l2.4-5.1 17.8-.1c20.4-.2 28-.9 31-2.9 1.8-1.1 2.5-3.4 3.9-12.6 1.6-10.6 5.6-21.4 8.5-23.2 1.3-.8 1.3-6.6 0-10-.6-1.5-3.3-5.2-6-8.3-4.1-4.6-5-6.3-5-9.3 0-3.4-.3-3.8-5.1-6-5-2.4-5-2.4-4.5-6.4 1.1-9.3 2.1-12 4.3-12.3 1.2-.2 3.1.2 4.3.8 3.8 2.1 10.7-5.3 8-8.5-1.4-1.7-5-2-5-.4q0 .8-1 .4c-.5-.3-3.5-1-6.5-1.5-4.1-.7-6.3-1.7-8.5-3.9-1.7-1.6-3-3.2-3-3.4 0-.5 5.8-1.6 10.1-2 3.8-.3 5.5-2.2 6.8-7.4 1.3-5 5.7-9.9 10.4-11.5 1.5-.6 2.7-1.3 2.7-1.7s-1.1-3.4-2.4-6.7c-2.2-5.5-2.7-6-7-7.4q-6.4-2.1-6.6-5.2c0-.3 1.6-1.2 3.5-1.8s3.7-1.5 4-2c1.1-1.8-.8-6.1-3.4-7.4-2.3-1.2-3.6-1.2-9.2.1-6.1 1.5-6.9 1.5-11.1-.1s-5.7-3.3-7.2-7.9c-.5-1.5-1.9-1.7-10.5-1.7h-9.9l-3.2-4c-3.5-4.4-6.8-5.2-8.7-2-.7 1.1-2.7 2.7-4.4 3.6-3 1.5-3.2 1.5-5.8-.9a15 15 0 0 0-5.4-3.3c-2.2-.5-2.7-1.1-2.4-2.6.4-1.4-.5-2.6-3.6-4.6q-4.1-2.8-4.5-1.4c-.2.7-2.2 1.2-4.9 1.2-3.7 0-5-.5-7.4-3.1-1.6-1.7-2.9-3.5-2.9-4s-3.1-.9-7-.9c-7.3 0-7.6.2-6 4.6.6 1.4.8 4.1.4 5.9-.5 2.9-.9 3.2-3 2.6-1.4-.3-3.3-2-4.4-3.6a37 37 0 0 0-10.2-7.6l-8.3-4.6-.3-4.6c-.2-3.7-.9-5.1-3.3-7.2-1.7-1.4-3.6-2.5-4.3-2.5s-2.1-.9-3.1-2c-1.6-1.8-1.6-2-.1-2.6q1.5-.7 1.6-3.4c0-2.7-.1-2.8-3.2-1.9a29 29 0 0 1-6.4.9 22 22 0 0 0-9.3 4c-4.8 3.1-7.1 4-10.6 4s-5.8.9-10.7 4c-7.7 5-9.8 5.6-13.6 3.6-1.7-.9-4.9-1.6-7.1-1.6s-4.3-.5-4.6-1a41 41 0 0 0-6.5-5c-7.4-5-11.6-5.2-23.2-.9-12.1 4.4-11.8 4.3-11.8 2.6 0-.9-1.4-3.2-3.1-5.1-4.3-5-5-8.2-3.2-16.2 1.6-7.7.9-12-3-18.3a29 29 0 0 1-2.8-8.9c-.8-5.8-2.7-8.1-6.7-8.2q-5.5.1-7.2-5.5c-2.2-6.7-6.5-7.7-17.8-3.9-5.9 2-8.2 1.8-8.2-.5 0-1.1-1.3-2.9-2.9-4-2.4-1.7-4.4-2.1-11-2.1-8.7 0-9.5-.6-6.5-4.9 1.7-2.3 1.2-3.2-2-4.4q-.8-.4.1-3.3c1.6-4.4.4-9.1-3.1-12.9l-3.2-3.3 3.6-1.1c1.9-.6 5-2 6.7-3.1 3.1-1.9 3.2-2.2 2.7-6.7q-1-8-9.5-12.4c-3.1-1.5-4.2-3.1-6.8-9.3a49 49 0 0 1-3.1-9c0-.8-1-2.7-2.3-4.3s-3.8-5-5.6-7.7c-3.5-5-9.4-8.6-14.1-8.5a77 77 0 0 0-8.9 1.5"/></svg>