<svg xmlns="http://www.w3.org/2000/svg" width="1365.333" height="1365.333" viewBox="0 0 1024 1024"><path d="m779 41.5-43.5 41.4-30.5-.6-30.5-.6-14.7-11.4c-8-6.2-15.1-11.3-15.7-11.3s-5.6 3.3-11.3 7.4c-10.1 7.2-10.6 7.5-26.3 11.9l-16 4.5-29.4.7-29.4.7L513 95.8l-18.7 11.7-.7 8.4c-.3 4.7-.7 8.6-.9 8.7-.1.1-3.9-.2-8.5-.8l-8.2-1.1-3.1-5.3-3-5.3-9.3.6c-11 .7-10.8.8-12.7-10.6-.9-5.4-1.8-7.7-3.4-9-1.3-.9-3.9-4.2-5.8-7.2s-6.2-8.1-9.5-11.3l-6.1-5.9-5.2 4.7A39 39 0 0 0 407 87c-1.2 3-1.9 3.1-21.9 5.6-3.9.5-6.3 1.5-8.7 3.7l-3.4 2.9-8.3-4.3-22.1-11.6-14-7.4-11.2-.6-11.2-.6-6 4.7a38 38 0 0 1-9.8 5.8c-2.2.5-6 2.5-8.5 4.4-2.8 2-5.8 3.4-7.6 3.4-3.4 0-7.3 3.6-7.3 6.8q0 2-4 4.3a35 35 0 0 0-12.4 17.9c-.9 3-1.6 5.7-1.6 6.1 0 1.3 6.4-1.2 7.8-3 1.2-1.5 1.4-1.4 2.5.4a32 32 0 0 1 2.2 9c1 6.9 1 7.1-2.4 13.5a82 82 0 0 1-12.2 17.5c-2 2.1-3.8 6.5-6.2 14.5a472 472 0 0 1-6 18.5c-4.3 12.1-4.3 12.2.2 16.3 13.7 12.8 13.6 12.7 14.9 18.1 2.6 11.5.5 22.4-5.1 26-2.5 1.6-3.4 3.1-4.8 8.8-.9 3.7-3.3 10.6-5.3 15.3-2.5 6.1-3.6 10-3.6 13.8 0 4.2-.6 6-3 9.4-2.3 3.2-3 5.1-2.8 7.8l.3 3.5 9 1.2 9.1 1.2a60 60 0 0 0 3.2 11.9c1.4 3.4 2.4 4.4 5.2 5.2 1.9.5 4 1 4.6 1 1.2 0 4.3-4 6.8-8.8 2.8-5.4 6.5-4.5 17.4 4.1 5.3 4.2 6.2 5.4 5.8 7.3s.1 2.7 4 5c4.4 2.6 4.8 2.7 10.9 1.6 9.6-1.8 9.2-2 11.5 6a25 25 0 0 0 4.3 8.9 29 29 0 0 0 11.6 3.9c.6 0 3.1-2.8 5.6-6.2 4.2-5.9 4.5-6 5.3-3.7l3.1 8.2c1.2 3.2 2.3 8.5 2.4 11.8.2 4.3.9 6.7 2.6 9 2.3 3.1 2.3 3.2.6 8.8-1.5 5-1.5 6.7-.5 13.5l1.2 7.8-7 10.7a68 68 0 0 0-7.6 14.7q-1.5 8.1-10.8 15.5a73 73 0 0 0-9 8.4c-6.8 7.7-9.4 8.8-21.8 8.7h-10.9l-1.5 3.9c-1.3 3.1-2.7 4.4-7.5 6.8a30 30 0 0 0-9.2 7.3c-1.8 2.4-5.8 7.2-8.9 10.8s-7.1 9-8.8 12-7.4 9.8-12.7 15c-7.5 7.5-9.5 10.1-9.5 12.3 0 4-4.4 12.1-7.7 14.2-1.5 1-6 4.9-9.9 8.7l-7.1 6.8-6.8-.9c-3.7-.5-6.9-1.2-7.2-1.5s0-2.6.6-5.1c1-3.8.9-5-.4-6.8-.8-1.2-1.5-3.7-1.6-5.7a20 20 0 0 0-.8-5.5q-.8-2 1-4.7l1.9-2.6-3.9-.7c-2.9-.5-4.9-.1-7.8 1.3a32 32 0 0 1-8.3 2.5c-2.5.4-6.2 1.1-8.3 1.7-3.2 1-3.7 1.5-3.7 4.1 0 2.9 0 3-3 1.4-4-2.1-4.5-2-8.9 2.1a35 35 0 0 0-11.6 21c-2.8 13.6-4 16.5-9.3 21.1a31 31 0 0 1-9.3 5.3c-2.4.6-9.2 3.7-15.1 6.8-10.4 5.5-10.7 5.7-11.8 10.1a42 42 0 0 0-.4 12.2c.6 6.7.4 8.2-1.4 11.1s-1.9 4.1-1 11.3a27 27 0 0 0 2.4 9.6q1.4 1.7 1.4 7.7v6.1l-8.3 9.4c-8.1 9.3-8.3 9.6-11.5 20.5A63 63 0 0 0 63 722v8.1l-5.5-.6-5.5-.7v3c0 2.3-.6 3.2-2.9 4.2q-3 1-5.1 6.3c-2.1 4.9-2.2 5.3-.6 10.2 1.4 4.5 1.4 5.6.1 10.5-2.1 7.9-2 8.7 2 10 1.9.6 5 2.9 6.9 5.2 1.9 2.2 5.2 5.5 7.4 7.4 3.9 3.3 4.1 3.4 7.6 1.9 1.9-.8 4.8-1.5 6.2-1.5h2.7l-2 2.2c-1.6 1.8-2.2 4.1-2.6 9.8-1 14.5-8 30-13.6 30-1.6 0-5.1 1.7-8.4 4-3 2.2-6.4 4-7.5 4-3 0-10.5 8.6-9.9 11.3.3 1.2.9 5.4 1.2 9.2.7 6.8.6 7.1-1.6 8.1q-2.4 1.1-2.5 4c0 1.6-.9 5.6-1.8 8.9S25.5 889.6 25 897l-.8 13.5 2.9 4.2c1.6 2.3 2.9 4.4 2.9 4.7s-2.7.6-6 .6h-5.9l-1 3.7c-.6 2.1-1.1 5.4-1.2 7.3s-.8 6-1.8 9c-1.7 5.3-1.7 5.6.2 10 1.4 3.2 2 7.1 2.1 13.5.2 7.5.6 9.7 2.6 12.9s2.2 4.4 1.4 7.5a14 14 0 0 0-.2 6.7c.5 1.6 1.2 6 1.7 9.8s1.5 7.2 2.2 7.7 3.2 1 5.7 1.4c3.8.6 4.8.3 7.1-1.7 5.8-5.3 7.7-6 13.8-4.8 7.3 1.3 6.8 1.4 8.1-1.5.9-1.9 1.9-2.5 4.4-2.5 4.2 0 9.2 5.7 10.1 11.4.8 4.9 5.7 13 8.1 13.4 1 .2 5.4-1.5 9.7-3.7 5.5-2.9 8.6-4 10.2-3.6 1.9.5 2.8 0 4.2-2.2 2.7-4.2 7.7-8.2 10.3-8.3 3.9 0 7.9-2.8 9.1-6.2 2.9-8.3 4.6-10.7 8.1-11.9 1.9-.6 4.7-2.7 6.3-4.5s3.6-3.6 4.7-3.9 4.2-4.3 6.9-8.8c3.7-6.2 5.1-9.6 5.6-13.9l.7-5.7h12.1c10 .1 12.8.4 16 2.1l3.9 1.9 2.2-2c2.7-2.5 6.9-2.7 14.6-.6l5.5 1.5 3.9-5c3.2-4.2 4.7-5.3 9.5-6.6 3.1-.9 6-2.3 6.4-3 1.1-1.8 5.9-1.8 10.4.1 3.1 1.3 15.5 1.5 90.9 1.5 95.2 0 89.4.4 86.2-5.3-.8-1.4-1.1-5.2-.9-10.5.4-10.2-.9-12.2-7.4-12.2-4.5 0-5.5-1-5.5-5.5 0-3.8 4.6-12.8 8.5-16.5 2-1.9 4.2-4.9 5-6.6a8 8 0 0 1 4.4-4.3c3.8-1.6 3.8-2 .5-4.6-2.5-2-2.5-2-1.3-9.3.7-3.9 1.7-7.2 2.3-7.2s2.6-2.8 4.5-6.3c5.2-9.3 8.1-12.7 11.3-12.7 2.4 0 6.8-3.3 6.8-5 0-1.2 10.9-15.2 12.9-16.6 1.6-1.2 2.1-1.1 3.1.1q1.2 1.3 2.1 1.5 2.2.2-1.2-7.8c-1.6-3.8-2.9-5.3-5-6.1-2.4-.8-2.9-1.6-2.9-4.1q.1-7.2-5.4-7h-3.3l.5-5.8c.3-4.4 1-6.3 3-8.5 2.5-2.6 3-2.7 12.5-2.7h9.9l-1.4-2.2a7 7 0 0 0-4.6-2.6c-2.6-.3-5-2.7-3.9-3.9.3-.2 3-1.1 6.1-2 5.5-1.5 5.7-1.5 7.9.4 3 2.8 9.4 5.9 13.7 6.7 3.2.5 3.7.3 4.7-2.1.7-1.6 1.8-3.6 2.5-4.5 1-1.4.8-2.1-1.2-4.3-3.6-3.9 0-3.3 5.5 1 4 3 4.9 3.3 7 2.3 3.5-1.6 3.5-7.1 0-9.4-1.4-.9-2.5-2.2-2.5-3 0-1 1.7-.7 6.8 1.2 8.1 3.1 9.2 3.9 9.2 7s1.5 3.1 3.6 0q1.6-2.5 1.5-8.6c0-6 .1-6.2 3.4-7.6 1.8-.7 3.6-2.3 4-3.4q.5-2 3.6-2c1.6 0 2.9.4 2.9.9s-1.5 3.2-3.4 6c-2.7 4-3.1 5.2-2.1 6.1 1.8 1.5 6.2.2 6.8-2 .5-1.8 6.4-3.4 7.3-1.9.7 1.2 12.3.9 13-.3.4-.6-.5-2.2-2-3.5-2-1.7-2.6-2.9-2.1-4.4q.7-1.9 2.1-1.5l3 1.2c1.2.5 1.4.1.8-2q-.7-2.7 1-3.2c1.3-.5 1.2-.9-1-2.6-3.6-2.9-3.1-7.8 1.1-9.1 1.7-.5 3.8-1.6 4.7-2.4.9-.9 3.8-1.8 6.3-2 4-.5 4.5-.3 4.5 1.4 0 1.2-.7 2.6-1.6 3.3-.8.8-1.4 2.5-1.2 3.9.4 3.8 4 3.9 9.1.1l4.2-3.1 1.7 2.2c1.7 2 1.7 2.2-.5 3.9-1.3 1-4.1 2.1-6.3 2.5-7.2 1.2-7.4 1.4-7.4 5.2v3.6l6.3-.7c3.4-.4 7-1.5 8-2.3 1.4-1.4 2.3-1.4 5.4-.5 2 .6 3.7 1 3.7.9q.9-3.4 8.4-7.2a63 63 0 0 0 7.6-4.4c1.3-1.1 1.7-.6 2.6 3 1 3.8 1 4.4-.6 5.6-1.7 1.3-1.7 1.5-.1 4.2.9 1.6 1.7 3.6 1.7 4.5 0 1.9 2.2 1.6 11.8-2 7-2.6 12.4-6.2 19.5-12.7 5.3-5.1 5.8-6.9 2.2-9.3-3.3-2.1-1.7-4.4 3.1-4.4 2.7 0 3.4.4 3.4 2q0 1.8.9 2c2 0 4.1-1.3 4.1-2.5 0-.7 1-1.9 2.2-2.7 2-1.3 2.1-1.8.9-4.4-1.2-3.2-.1-8.4 1.8-8.4a123 123 0 0 0 18.5-10.9c.3-.5-1.2-2.1-3.3-3.5l-3.8-2.7 1.8-3.7c1.1-2 1.9-4.2 1.9-4.9 0-1.8.7-1.7 5.7 1.3 3.9 2.2 4.8 2.4 7.6 1.4 1.7-.6 4.4-2.4 6-4.1 2.2-2.5 3-2.9 4.2-1.9s1.1 1.7-1 4.4a12 12 0 0 0-2.5 6.5c0 2.6-.3 3.1-1.7 2.7-6.9-2-7.1-2-7.8 1.7-1 5.2-.1 6 5.8 5.4 4.9-.6 4.9-.6 3.2 1.3-4 4.4 5 7.1 10.2 3q5-3.7 7.5 0a5 5 0 0 0 4 2c2.3 0 2.8.4 2.8 2.5 0 1.4.6 2.8 1.4 3.1s1.2 1.2.9 2c-.6 1.6-4.4 1.9-5.9.4q-1-.9-5.2.2c-3.4.8-4 1.3-3.1 2.4s.7 2-.6 4c-1 1.5-1.3 3-.8 3.5a56 56 0 0 0 16.2 5.9c1.4 0 3.9.7 5.5 1.5 2.8 1.5 3.1 1.4 5.6-1 1.4-1.4 3.3-2.5 4.2-2.5 1.7 0 3.3-3.5 4.3-9.5a39 39 0 0 1 1.8-7.3c1-2.9 1.4-3.2 4.3-2.6q3.2.6 7.6-1.4c3.2-1.4 4.9-1.6 6.5-.9l2.2 1-2.9 3.7q-5.9 7.2 0 7h3l-2 4c-1.1 2.1-2 5.1-2 6.5 0 2.4.2 2.5 6.5 2.5 6.4 0 6.5 0 6.5-2.8.1-2.6.1-2.6 1.5-.8a13 13 0 0 1 1.5 6.3c0 3.6.3 4.3 1.9 4.3q2 0 2.6-3.2c1.1-4.8 1.3-4.9 4.8-2.8q6 3.7 7.2.1c.3-1.1 1.2-2.2 2-2.5s1.5-1.4 1.5-2.5q0-1.9 2.9-2.6a12 12 0 0 0 5.5-3.6c1.4-1.6 3-2.9 3.5-2.9s.4 2.6-.1 5.7q-2.1 12.3 2.4 4.3c1.4-2.5 4.9-6.4 7.6-8.7a46 46 0 0 0 8.6-10.7c3-5.4 3.6-7.4 3.6-12.6q0-6 1.9-9.8c2.2-4.4 7.5-19 9-24.8 1.1-4 1.3-4.2 9.7-7.5l8.6-3.4 3.5-7c2-3.9 4.1-9.3 4.7-12l1.1-5 4.8-.5c6.5-.7 11.7-4.8 11.7-9.3 0-2.5 1-4.2 4.1-7.2 2.2-2.2 5.3-6.1 7-8.6 2.5-3.9 2.9-5.5 2.9-11.5 0-7.3 1.7-13.1 5.9-19.7q2.2-3.7 4-3.3c7 2.1 6.7 2.3 9.1-4.8l2.2-6.6h4.5c3.6 0 5.4-.7 8.5-3.2 3-2.3 5.9-3.5 11.2-4.5l12.4-2.4 5.2-1v-5.5c0-3-.7-7.1-1.6-9.2-.8-2-1.9-5.5-2.4-7.7l-1.5-6.2c-.7-2 0-2.6 5.6-5.1 6.9-3.1 9.8-7 10-13.5.2-7.1 1-8.1 7.4-9.2 5.7-1 6-1.2 7.3-5l4.3-11.8c2.8-7.5 2.9-8.5 2.9-25 0-15.5.2-17.5 2-20.2 2.7-4.1 2.5-5.4-1.2-9.2-2.8-2.9-3.4-4.4-4.3-11.6-1-7.3-1-8.6.7-11.9l1.8-3.8-3-5.9a279 279 0 0 1-14.6-38c-4.1-13.7-4.1-13.7 3.4-18.3 3.2-2 3.4-2.3 2.8-6.4-.3-2.3-1.9-6.4-3.6-9a20 20 0 0 1-3-7.5c0-1.4-.3-4-.6-5.6l-.6-3-3.9 2.1c-4.6 2.4-3.7 3.2-10.1-8.7-3.2-5.7-3.8-7.8-3.8-12.7 0-6.2-4.3-19.9-6.4-20.5l-3.6-.9q-2.5-.4-4.8-5.2l-2.3-4.7-3 2.9-3.1 2.9-4.9-5.5c-2.8-3-5.7-6.9-6.6-8.5a44 44 0 0 1-4.3-17.2c0-2.6-1.3-7.1-3.6-12.1l-3.6-7.9-5.4-1.2c-4.8-1.1-5.7-1.7-7.4-5.1-1.1-2.2-2-5-2-6.4s-.9-4.8-2-7.6-2-6.9-2-9.2q0-4-3.5-10.3l-3.4-6.2 1.6-5.1c1.6-4.8 1.6-5.4 0-8.6l-1.6-3.5 3.2-.3c3.1-.3 3.2-.5 3.8-5.8.4-3 1.3-8 2-11 1.6-6.3 1.4-13.9-.4-14.5l-3.9-.9c-2.6-.6-2.8-1-2.8-5.6v-5h-7.1c-5.5 0-7.9.5-10.5 2.1l-3.4 2.1-1.1-2.8-2.1-7.9-1.2-5.2c-.1-.2-3.7.4-8 1.2-10.2 2-10.4 1.9-7.6-1q2.1-2.3 1.9-2.8l-3.9-1.8-3.5-1.6 5.8-1.7c3.1-.9 5.7-1.9 5.7-2.2 0-.2-.6-2-1.4-3.9-1.3-3-1.9-3.4-5.8-3.7a32 32 0 0 0-9.7 1.4l-5.3 1.8.7-8c.7-7.9.7-8-2.5-12l-3.3-4.1 2.2-2.3c1.1-1.2 2.4-4.2 2.7-6.7.6-4.2.5-4.5-3.6-7.8-3.4-2.7-4.1-3.8-3.6-5.7l1.2-4.7c.4-2-.4-3.1-5-6.6a80 80 0 0 0-6.8-4.6c-.7-.2-20.9 18.2-44.8 41"/><path d="M685 707.7c-1.5.4-8.5 9.2-7.8 9.8.1.2 2.6 1.4 5.3 2.7 4 1.8 5.1 2.9 5.3 5.1.3 2.4 0 2.7-2.5 2.7-4.6 0-6 1.6-2.5 2.8 1.6.5 4.6 3.1 6.7 5.6 3.3 3.9 4 4.3 5 3 .9-1.4 1.3-1 2.3 2.3 1.1 3.6 1.4 3.9 4.2 3.5 3.5-.5 3.5-.4 1.4-4.3q-1.4-3-.9-6c.6-2.5.4-2.9-1.4-2.9-2.9 0-2.8-4 .3-6.9q2.3-2.3 4.8-1.6c3 .8 5.7-2 6.4-6.7.5-2.9.2-3.7-2-5.1-2.5-1.7-2.6-1.7-4 1.2-2.2 4.1-4.1 4.4-7.7 1.2-2.7-2.5-2.9-3.2-2-5 1.1-2 1-2.1-4.1-2-2.9.1-6 .3-6.8.6m58.7 28.6-2.9 1.2 2.6 2.8c3.2 3.4 7.1 3.8 6.2.4-.3-1.2-.6-3-.6-4 0-2-1.4-2.1-5.3-.4m38.5 6.5q-1.3 1-.6 3.5c.6 2.6.8 2.7 8.5 2.7 6.9 0 8-.2 9.3-2.2 1.5-2.1 1.5-2.3-.5-3-3.4-1.3-15.3-2-16.7-1m-181 14.4c-2.5.9-3.4 1.9-4.2 4.8a48 48 0 0 1-11.4 16.9l-4.1 4.3 4.8-.7c3.7-.5 5.4-.3 7.4 1.1 2.5 1.6 2.8 1.6 6.9-.6 2.3-1.3 4.9-3.6 5.8-5.2 1.9-3.1 1.6-3.2-3.2-1.9-2.8.9-3.2.7-3.2-1 0-2.1 2.7-6.5 6.9-11.1 2.3-2.6 2.3-2.8.7-5.3-1.8-2.8-1.7-2.7-6.4-1.3m-130.5 47.6c-2.3 2.5-2.2 2.8 2.2 5.2 2.1 1.2 4.5 3.6 5.2 5.3 1.2 2.5 2.6 3.5 8.3 5.4 3.9 1.3 8 2.3 9.3 2.3 2.8 0 5.3 4.4 5.3 9.5 0 2.9-.3 3.5-2.2 3.5-2.2 0-10.8 8.1-14.3 13.3-1.6 2.5-1.6 2.8.5 6.2l2.2 3.5 4.4-4.5c2.4-2.5 4.4-5.5 4.4-6.6 0-1.9.4-2 3.8-1.4 2 .4 4 1.3 4.4 2s1.8 1 3.2.8q2.5-.5 3-3.5 1.5-7.5-.9-13.1c-.8-2-1.5-4.1-1.5-4.6s2.2-2.2 5-3.8c4.9-2.8 4.9-2.9 3.4-5.2-1.4-2-2.2-2.2-5.8-1.6-6.3 1.1-19.5 1-20.7-.2-.6-.6-1.3-2.8-1.6-5-.5-3.6-.2-4.1 2.7-6l3.1-2-6.8-.6c-11.4-1.1-14.8-.9-16.6 1.1"/></svg>