<svg xmlns="http://www.w3.org/2000/svg" width="1365.333" height="1365.333" viewBox="0 0 1024 1024"><path d="m976.7 187-5.5 5-2.5-2c-2.5-2-2.6-2-3.6-.2a79 79 0 0 0-3.6 30.9c.5 9.2.4 11.7-1 14.2a10 10 0 0 0-.9 6.5c.9 4.9-.3 7.6-4 9.1-3.7 1.6-5.2 3.1-5.7 5.9-.5 2.4-9.7 6.5-35.8 16a229 229 0 0 0-20.8 8.3c-3.2 2.1-7.1 8.9-9.3 16.4a37 37 0 0 1-5 10c-1.6 2.1-3 4-3 4.3s1.8.9 4 1.2q6.3.9 2.8 6.4c-1 1.6-.9 2.3 1.1 4.3l2.2 2.5-3.3 3.1a60 60 0 0 1-12.5 7.7 34 34 0 0 1-15.1 4.8 25 25 0 0 0-12 3.6c-3.7 1.9-5.9 3.7-5.5 4.4.3.6 1.9 2.8 3.5 4.8q3 3.8 2.3 5.9a151 151 0 0 1-26.5 26.7c-3 2-8.6 6.5-12.5 10.2a76 76 0 0 1-23.8 15.6q-2.8.6-4.5-.8c-.9-.9-3.5-1.8-5.6-2.1-2.2-.4-4.6-1.3-5.4-2.1-1.3-1.3-1.3-1.8.2-4.1a31 31 0 0 0 2.6-11.3c1-10.7 1.5-12 4.9-12.9 5.5-1.3 5.4-5-.4-16.8-7.7-15.6-9.6-16.5-16.2-7.4q-7.9 11.4-9.8 3.2-.7-2.6 1.6-5.6a36 36 0 0 0 4.9-16.8 11 11 0 0 0-2-6.2c-1.1-1.4-2-3.8-2-5.4 0-2.8-.3-3-9.2-5.7l-12.2-3.6q-5-1.6-7.7 3.2c-.9 1.7-.8 2.3.6 3.1 1.7.9 1.7 1.1-.3 2.6-1.7 1.2-2.3 2.9-2.5 7.3-.2 3.2-.7 6.1-1.1 6.5-1 1-3.9-1-5.2-3.5-1-2-1.3-1.9-4.9 2.9l-3.9 5.1V356c-.1 12.5.1 14.1 2 16.7 6 8.1 7.5 16.5 5 28.3-2.3 10.7-6.1 17.8-11 20.3-3.5 1.8-4.1 1.9-6.5.6-4.7-2.7-8.3-10-9.1-18.7-.4-4.2-1.7-11-3-15-1.9-6.2-2.1-8-1.2-11.5.6-2.3 1.3-8.5 1.6-13.7.3-6.8 1.2-11.5 3-16.6 1.4-3.9 2.6-7.7 2.6-8.4 0-2.3-2.9 1-6.1 7.1-3.3 6.1-6.5 9.7-7.6 8.5-1.6-1.5 2.8-17.4 7.4-26.6l5-9.9q.3-.2 1.7.8 1.4 1.3 2.1.1c.9-1.4 4.5-1.3 4.5.2q.2 1 2.3-1.3c1.2-1.4 5.1-4.8 8.6-7.4 7-5.2 6.6-5.1 17.9-1.9 1.9.5 2.2.3 2.2-2.1 0-2.3.3-2.5 2.3-1.9 6.3 2.1 8.4.1 3.3-3.4-3-2.1-3.7-2.2-7.8-1.1-3.8 1.1-4.8 1-7.1-.6q-2.8-1.7-2.7-4.5v-2.8l-8.1 3.1a46 46 0 0 0-12.5 7c-4.1 3.6-4.8 3.9-8.7 3.3a56 56 0 0 1-12.5-4.8c-7-3.6-8.6-4-10.2-3-3.1 1.9-4 1.4-4-2 0-2.4 1-4.1 4.7-7.7 2.7-2.5 4.2-4.6 3.5-4.9q-4.7-1.6-18.3 11.4c-5.4 5.2-10.3 9.4-11 9.4s-2.8 1.4-4.6 3.2c-2.9 2.8-4.1 3.3-9.8 3.6l-6.5.4v-3.1c0-3.7-.4-3.7-7.2-1.1-5 1.9-12.8 2.7-12.8 1.4 0-.3 2.3-3.2 5.2-6.3 2.8-3.1 6.6-7.9 8.4-10.6 4.4-6.8 7.7-9.7 15.9-13.8l7-3.5-4.7-.7c-2.7-.4-6.3-.4-8.2-.1a12 12 0 0 1-6-.5c-2.1-1-3.3-.9-6.3.5-3.7 1.6-3.9 1.6-10.8-1.3-4.4-1.9-7.4-2.6-8-2-1.6 1.6-2.4 1-4-2.7-1.1-2.8-1.9-3.5-3.2-3-1 .4-4.9 1.1-8.8 1.6-5.9.7-7.3.6-8.8-.8q-2-1.6-8.3-2l-6.5-.4-2.9-5.2c-5-8.8-4.6-8.5-6.3-4.3q-1.7 3.6-4.2 4.7c-7.4 2.8-112.2 4.3-147 2.1a1171 1171 0 0 1-286.7-53.4 99 99 0 0 0-13.8-4c0 .2 1.1 2.1 2.5 4.1 2.9 4.3 3 5 .9 7.3-1.5 1.7-1.5 2.2 0 6.5 2.2 6.4 2 8.3-.9 11a7 7 0 0 0-2.5 5.7c0 1.8-.6 4-1.2 4.9a32 32 0 0 1-9 6.1c-2.3.8-5.8-2.8-5.8-5.9 0-2 .6-2.3 4.1-2.6 5.6-.4 7.4-3.1 4-5.9l-2.4-2 2.3-2.4c2.3-2.4 2.3-2.5.4-4.6-1-1.1-6-4-11-6.4S57 212 55.3 210.6l-3.1-2.6-1.1 2.8c-.9 2.1-.9 5-.2 11.3a136 136 0 0 1 1.1 14q0 5.7 1.3 6.2c1.3.5.6.9-.8 2-2 1.5-2 1.6-.1 4.7 1.8 3.2 1.8 3.2-.3 6.1-2.7 3.6-2.6 4.3.4 6.3q5.2 3.3-1.1 3.8c-3.7.3-3.7.4-5.9 7.8-1.2 4.1-3.5 10.2-5.2 13.5s-4.5 9.7-6.2 14.2-5.4 11.8-8.2 16.4c-10.7 17.8-11.6 20.6-13.9 41.8-.4 4.1-.5 9.1-.3 11.2.9 6.1-2.5 16.4-7 21.5-5.4 6.2-5.8 9.7-1.7 18.6l3.3 7.2-1.8 11.1c-2.1 12.8-1.7 16 2.7 24.2 2.8 5.2 3 6.2 2 9.7q-1.9 7.4 3.3 9.8c2 .9 2.8.8 4.4-.6 1.7-1.6 1.9-1.6 2.5.6.3 1.3.6 3.8.6 5.7q0 3.6-1.4 2.8-1.6-1-2.2 3.8c-1 7.2.1 10.7 5.1 15.4 2.5 2.3 4.5 4.5 4.5 4.9s-1.1 2.5-2.5 4.6l-2.4 3.9 2.8 5.6c1.6 3.1 3.2 7.5 3.6 9.8s1.9 6 3.5 8.1c1.6 2.2 4 6.9 5.5 10.6 2.3 5.8 2.5 7.4 1.9 13.5l-.6 7 3.3 2c1.9 1.2 6 2.8 9.2 3.7 5 1.5 6.5 2.5 11.9 8.6 3.6 4.1 8.1 7.9 10.9 9.3q4.8 2.5 5.1 4.7c.2 1.2 1.9 3.2 3.8 4.5a25 25 0 0 1 11.9 12.8q3.2 6.8 3.4 11.6c.1 2.8.7 5.1 1.5 5.3.6.3 1.2 1.6 1.2 3 0 2.9-1.7 2.4 26.5 7.1 14.9 2.5 21.2 3.9 21.8 5 1.1 2 7.8 6.3 31.1 19.7 10.5 6.1 22 13.2 25.6 15.8s8.3 5.7 10.5 6.8a128 128 0 0 0 31.5 7.1c17.7 1.9 37 3.4 37.6 2.9.3-.3.6-3 .7-5.8l.2-5.3 15 .7c8.3.3 16.6 1 18.6 1.5 4.4 1 14.9 11 16.4 15.5q1 3 6.7 6.8c3.1 2.1 6.8 5.3 8.3 7.2a48 48 0 0 1 7.5 18.4c0 3.3 4 9.2 9.3 13.9a73 73 0 0 0 20.5 11.9c3 .6 3.7.2 10-6.4 4.1-4.4 8.6-7.9 11.4-9.2 4.3-1.9 5.4-2 11.5-.9 6.4 1 7.1 1.5 12.4 6.9 3 3.2 10 12.7 15.4 21.1 5.8 9 12 17.5 15.1 20.4 5.8 5.5 7.5 9 12.3 24.2 3.6 11.7 4.4 12.5 14.1 14.6 3.6.8 7.9 2.2 9.5 3.1 1.7.9 4.6 1.6 6.6 1.6 2.1 0 4.7.8 6.2 2 2.6 2.1 6.3 2.6 8.5 1.1q1.7-.9-.2-1.4c-.9-.4-1.6-1.8-1.6-3.3s-1.2-6.2-2.7-10.5c-2.4-7.3-2.5-8.2-1.3-12 1.3-3.9 1.3-4.2-1-5.9l-2.4-1.8 3.2-3c3.6-3.4 3.8-3.9 1.7-6.9-1.4-2-1.4-2.3.5-3.6 1.1-.7 2.7-3 3.5-5.1.9-2 2-3.4 2.6-3 1.4.9 4.8-2.4 6.5-6.4 1-2.6 1.8-3.2 3.2-2.8 3.3 1.1 5.2-.3 4.6-3.2l-.5-2.7 7.3-.1c4.6 0 8.4-.6 10.4-1.7 7.4-3.9 16.4-16.9 14.3-20.8-1.2-2.4-.6-3.5 3.1-5.4 2.8-1.5 2.9-1.4 4 2a10 10 0 0 0 2.1 4c.5.4 4.2-1 8.1-3 4-1.9 10.5-4.2 14.3-5 6.6-1.3 7.5-1.3 13.5.5 3.6 1.1 8.3 2 10.5 2 3.4 0 4.4-.5 6.8-3.5 3.2-4 4.8-4.2 11.2-1.5l5.1 2c.3 0-.7-2.2-2.3-4.9-3.1-5.6-2.8-6.6 1.1-5.1 3.4 1.3 5.6 6.3 5.6 13 0 3.7.5 5.5 2 7 2.5 2.5 3.7 2.5 7.5 0 2.2-1.4 3.9-1.8 7.1-1.3 3.5.5 4.4.2 5.8-1.8 2.3-3.3 2-4.6-1.5-7.8-2.3-2.2-2.9-3.4-2.4-5q1.4-4.7 7.4 1.8c2 2.1 5.9 5.1 8.8 6.5s5.6 3.4 6.2 4.3c.9 1.7 1.1 1.7 3-.1q6-5.7-5.1-9.1c-3.5-1-4.4-1.7-4.6-3.9-.4-3.4 1.3-5.6 4.4-5.6s3.1-1.7-.2-3.2c-2-.9-3-.9-4.5 0-3.3 2.1-5.9 1.5-5.9-1.3s-1.2-3.2-3-1c-2.1 2.6-7.8 1.9-11.1-1.4-1.6-1.6-2.9-3.3-2.9-3.8s1.9-1.6 4.3-2.6c4.3-1.7 4.4-1.7 10.9.7l6.5 2.5 5.8-4c4.9-3.3 6.5-3.9 11.2-3.9q9.3 0 13.7-4.9c2.4-2.7 3-2.7 4.4.4 1 2.3 1.7 2.5 7.2 2.5h6v-3c0-2.8.2-3 4-3 2.2 0 6-.5 8.5-1.2 3.8-1 5.9-1 13 .5 8 1.6 8.9 2.1 14.2 7.2l5.6 5.4 6.9-3.5c5.3-2.7 7.2-4.2 8-6.4 1-2.9 1.2-3 7.7-3 7.2 0 8.3.7 12.4 7.2 1 1.6 4.1 4 7 5.4a34 34 0 0 1 12.6 9.3c.6 1 1.5 5.8 2 10.7 2.1 17.2 2.2 18 3.2 16.1 1.3-2.3 4.6-2.1 5.4.3.3 1.1.1 3.5-.6 5.3-1 2.9-.9 3.8 1 7.5 3.4 6.7 5.6 8.4 9.6 7.6 2.8-.5 3.5-.3 3.5.9 0 .9 1.5 2.8 3.4 4.2q3.3 2.6 2.9 4.1c-.3.8.6 2.6 2 3.9 1.3 1.4 2.7 3.8 3 5.4q.6 3 2.9 3.6c1.2.4 4.5 2.9 7.2 5.5s6.1 5.3 7.4 5.9q2.4 1.2 1.7 3.2c-.6 1.9-.5 2 1.7.7 2.2-1.2 2.8-1.4 5.5-1.7 4.1-.4 6.2-15 5.2-36.6-.3-6.1-.9-8.7-2.5-11a22 22 0 0 1-2.8-6c-.4-1.7-4.5-9.2-9.2-16.8s-8.4-14-8.4-14.3q.2-.4 2-.4c1.7 0 .9-1.4-4.4-8.4a95 95 0 0 1-15.6-27.4c-1.5-4.7-2-5.4-2.7-3.7-.4 1.1-.8 4.4-.8 7.2 0 2.9-.2 5.3-.5 5.3-.9 0-3-8.6-3-11.9 0-1.6.7-3.4 1.5-4.1 1.8-1.5 1.9-6.9.4-12.4-1.3-4.9.6-19.4 3.3-24.8 1-2.1 1.8-5.1 1.8-6.7s.5-3.3 1-3.6.9-1.9.8-3.3q-.2-2.5.8-2.5c.7.1 2-.7 2.9-1.7 1-1.1 2.2-2 2.7-2 1.9 0 10.6-8.3 11.2-10.6.4-1.3 1.1-2.4 1.6-2.4 1.4 0 6-7.2 6-9.4 0-1.1.9-2.9 2-4.1s3.7-5.5 5.8-9.6c3-6.1 4.6-8 8.7-10.6 7.6-4.7 10.5-7.8 10.5-10.9s4.1-10.6 8.3-15.1c1.7-1.8 5.2-4 7.9-4.9 5-1.6 8.5-5.1 6.9-6.7q-1-.8-4.2 1.7c-3.7 3.1-7.4 3.2-7.4.1q-.1-2 2.8-2.3c2.2-.3 2.7-.8 2.7-3.2 0-2.3-.6-3-3.2-4-3.1-1.1-3.2-1.2-1.1-2a8 8 0 0 0 3.3-2.9q1.7-3.5 6.1-.9c1.8 1.1 2.3 1 4.4-1.5 3.3-3.7 4.9-10 3.4-12.9-1.1-2.1-1.2-2.1-2.4.9-1.3 3-1.3 3-6.3 2-4.2-.9-5.4-.8-7.6.6l-3 1.7a27 27 0 0 1-2.2-10.8c.4-.3 2 .2 3.6 1.1 2.9 1.7 2.9 1.7 7.4-1.6l4.4-3.4-1.9-2.9a8 8 0 0 1-1.4-5.5c.8-3.6-2.6-5.7-9-5.6a20 20 0 0 1-7.4-1.2c-2.2-1.2-2.3-1.4-.7-2.3 1-.6 2.9-.8 4.2-.5 2.4.4 2.3.3-.8-2.4l-3.3-2.9 2.3-1.7 2.3-1.6-5.2-3.5c-4.2-2.8-4.9-3.6-3.6-4.3.9-.5 2.6-.5 4.1.1 4.1 1.5 4.2-.8.2-4.9-3.9-4-4.4-5.1-2.2-5.1 2.6 0 2.8-2 .3-3.1-1.8-.8-3.3-3.3-5.6-9.1a49 49 0 0 1-3.1-10.1c0-2.7 4.3-9.3 7-10.7 2.6-1.4 3.8 1.1 2.2 4.3-1.8 3.8-1 10.3 1.7 13 1.2 1.4 2.1 3 1.7 3.5-.3.5 1.2 2.6 3.4 4.7 2.1 2.1 4.1 4.8 4.4 6.1.5 1.9 1.3 2.4 3.6 2.4 3.5 0 3.8 1.3 1.4 6.4-1.6 3.3-1.2 7.9.5 6 .5-.5 1.8-6.7 3-13.7 2.7-16.2 2.2-19-4.8-24-3.8-2.8-5-4.3-5.5-7.2-.4-2-.6-3.8-.4-4s2.6.2 5.4.8q8.3 1.9 8.5 5.6c.2 3.5 8.9-30.2 8.9-34.5q0-1.4-3.5-1.4H940v-4.9c0-4.2.7-6 4.9-12.3 6.7-9.9 10-12.8 21.1-18.8s14.6-9.1 16.2-14.2c1.3-4.3 1.5-4.4 3.9-2.2 1.6 1.4 2 1.2 5-2.6q3.3-4 4.3-3c1.7 1.7 2.4 1.2 6.5-4 4-5 4.4-7.3 1.4-8.4-2.2-.9-2.8.1-1.4 1.8 1.8 2.2.5 5.2-2.9 6.6q-6.1 2.6-9.4-3.1c-1-1.7-3.4-3.7-5.2-4.5-3.1-1.3-3.4-1.8-3.4-5.9 0-2.4.5-4.7 1.1-5.1q1.1-.7-1.5-2.1c-3.2-1.7-3.3-3.8-.6-15.1 2.3-9.5 4.2-13.7 7.1-15.5a33 33 0 0 0 5.8-6.2 17 17 0 0 0 4.3-10.8c.5-6.7 3.1-10.6 4.9-7.5 1.8 3.3 1.4 3.7 16-12 3.7-3.9 5.9-7.1 5.9-8.6 0-3.4-3.4-7.1-8-9-2.5-1-4.8-2.8-5.8-4.7a8 8 0 0 0-4.5-3.6c-3.3-.7-5-3.7-9.3-16.2-3.2-9.5-7.6-15.1-11.7-15.1q-2.6 0-8 5"/><path d="M961.9 365.8c-4.7 2-9.4 4.4-10.5 5.2-2.5 1.9-5.4 6-5.4 7.7 0 2.4 2.7 1.3 9.2-3.5 6-4.3 16.6-13.3 15.7-13.2z"/></svg>