<svg xmlns="http://www.w3.org/2000/svg" width="1365.333" height="1365.333" viewBox="0 0 1024 1024"><path d="M237.5 112.7c-1.1.3-4.1 2.5-6.7 4.9s-5.6 4.4-6.8 4.4q-1.8.1-2 1.4c0 .7-1.3 4.2-2.9 7.7l-2.9 6.4 2 3.5c1.2 1.9 3 4.5 4.2 5.8 1.8 2 1.9 2.7.8 5.4-1.9 5.2-.2 5.7 8.6 2.5 4.2-1.6 9.1-3.1 10.7-3.4 1.7-.3 4.3-1.4 5.8-2.5 3.5-2.5 5.1-1.4 8.4 6 2.6 5.9 2.4 6.6-1.5 8.6q-7.4 3.8-7.2 1.2 0-1.5-2.4-1.6c-1.4 0-2.8-.5-3.1-1-1-1.7-4.8-1.2-4.1.5.7 1.9-2.2 3.4-5.6 2.8-2.3-.4-2.7-.1-3.3 2.6-1 4.8-11.3 12.1-17 12.1-3.9 0-7.5 1.5-8.8 3.6q-.7 1.5-7.7 1.4c-3.8 0-7.2.4-7.5 1s-1.7 1-3.1 1-3.5 1.1-5 2.7c-5.4 6.1-6.8 7.3-8.6 7.3-1 0-2.1.7-2.4 1.5q-.7 1.4-2.4 1.5c-1.8 0-16.5 7.3-18.4 9.1-.6.5-2.1.9-3.5.9-5.3 0-7.1 1.1-7.1 4.1 0 1.6.5 2.9 1 2.9q1 0 .1 1.8a6 6 0 0 0-.4 4c.5 2.1.2 2.2-5.5 2.2-3.4 0-6.3.4-6.6.9s.5 1.8 1.9 3.1c2.8 2.6 4.2 7.7 2.6 9.3q-3 3.3 2.7 7.2c3.9 2.5 5.4 4.7 6.8 9.4a43 43 0 0 0 10.8 15.6c2.1 1.6 4 4.3 4.8 6.7 1.1 3.3 2.1 4.3 4.8 5.2 2.7.8 4.2 2.3 6.2 6.1 2.4 4.4 2.7 6 2.6 13.5a115 115 0 0 0 1 15.9c.7 4.1 1 8.2.7 9.1s-2.5 3.1-5 4.9c-3.3 2.3-4.6 4.1-5.1 6.6s-1.5 4-4.1 5.5c-4.7 2.8-14.4 5-21.9 5-7.3 0-11.4-2.5-11.4-6.8 0-3-1.2-5.4-2.6-5.1h-2.2c-1.8-.2.8-4.1 2.8-4.1q1.6.1 1.7-3.5c.1-3.2-.1-3.4-1.9-2.4-2.4 1.3-4.8.5-4.8-1.6 0-1.9-1.4-1.9-3.4 0-.8.8-1.9 1.5-2.5 1.5-1.8 0-1.2-1.8 1-3.3 2-1.5 2-1.5-.9-2.2a7 7 0 0 0-5.1.7c-1.1.7-2.4.9-2.8.4q-.6-.8 1-1.7c1.5-.9 1.6-1.3.2-4.6l-1.5-3.5 2.5 1.6q2.3 1.4 2.5.7c0-1.2-8.7-8.4-12.5-10.4-1.6-.8-4.1-2.7-5.4-4.1-2.2-2.3-2.3-2.8-1-3.9a46 46 0 0 0 5.7-8.2c2.2-3.9 5.9-9 8.1-11.4 2.3-2.4 4.1-4.9 4.1-5.5s1.6-3.3 3.5-6 3.5-5.5 3.5-6.2c0-1.7 6.6-7.3 9.4-8s4-2.9 2.6-5.4c-.6-1-1-3.8-1-6.1 0-2.9-1-5.8-3.4-9.8a58 58 0 0 1-4.5-9.2c-1.9-5.8-3.9-7-11.1-6.7-3.6.2-6.4-.1-6.6-.7-.6-1.5 4.6-3.6 6.5-2.6 3 1.6 14.8 2.1 16 .7.8-.9-.8-2.1-7.1-5.2a40 40 0 0 1-12.3-8.6c-4.6-5.1-5.2-7-6.2-19.7-.5-6.7-.4-7.3 1.2-6.8.9.4 3.4-.3 5.8-1.7 2.3-1.3 6.7-3.2 9.7-4.1 3-1 6.3-2.9 7.3-4.2 1-1.2 2.7-2.3 3.7-2.3 2.4 0 9.1-2.8 11.3-4.8.9-.8 1.7-2.3 1.7-3.4 0-3-4.8-2.2-11.4 2.1a41 41 0 0 1-11.4 5 46 46 0 0 0-22.8 12.8c-2.2 2.6-7.6 10.8-12 18L71.5 202l-5.6 1.1-5.7 1.1-11.8 17a210 210 0 0 1-17.1 22.1c-4.4 4.1-5.3 5.6-5.3 8.4 0 2-2 7.7-4.8 13.6l-4.8 10.2 1.2 7.5c.7 4.1 2.2 9.6 3.4 12.3 2.1 4.7 2.1 4.8.5 21l-1.6 16.2L15 337a36 36 0 0 0-6.9 8.6 11 11 0 0 1-5 5.4c-5.3 2.1-3 5 3.9 5 3.5 0 5.5-.7 8.6-3 3.4-2.4 4.7-2.8 7.8-2.3 2.1.3 4.4 1.5 5.5 2.9a6 6 0 0 0 8 1.5q3.8-2.1 6 5.1c2 6.8 15.7 30.8 20.9 36.6 3.9 4.3 5.5 5.4 9.1 6 4.3.7 4.5.9 5.6 5.3a98 98 0 0 1 1.9 13.7l.7 9.1-3.1 1.6c-2.8 1.5-3.1 1.9-2.4 4.8.4 1.8.7 6.8.6 11.2 0 5.9.4 8.9 1.9 11.7 1 2 2.6 6.2 3.4 9.3 1.8 7.3 1.8 7.3 7.3 8.8 4 1.1 5 2 7 5.8 1.9 3.8 2.9 4.6 6.7 5.5 2.4.7 8.6 4.1 13.9 7.8q9.4 6.5 12.3 6.6c3.2 0 22.2-3.6 22.9-4.3.3-.3 2-.1 3.7.4a63 63 0 0 0 26-3.6c2.7-1.7 3.1-1.7 8.1-.2 2.9 1 5.8 1.7 6.5 1.7 1.3 0 11.6-7.3 12.6-9 1.2-1.9 7.4-3.9 10.8-3.3q3.4.5 4.6-1.1c1.2-1.4 1.7-1.3 5 1.3 6.7 5.3 19.6 7.8 24.4 4.7 2.5-1.7 2.9-1.7 4.5-.4l31.6 28.2 29.9 26.6h6.7c6.5 0 6.6-.1 11-4.5l4.4-4.5h9.1c8.3.1 19.6 1.7 23.7 3.4q1.7.8 2.7-1.2c1.5-2.8 9.8-5.3 20.5-6.2 5-.4 10.9-1.5 13.2-2.4 3.7-1.5 4.3-1.5 7.8-.1 3.7 1.6 3.7 1.6 8.6-2 7.1-5.2 11.8-6.6 18.2-5.4 2.9.6 8.3 1.3 12 1.6l6.8.5 3.5 5.8a42 42 0 0 0 5 7c1.3 1.1 1.1 1.7-1.6 4.7a44 44 0 0 0-5.4 8.9 77 77 0 0 1-5.4 9.8c-2.6 3.8-3.1 5.4-3.1 10.5 0 8.5-2 12-8.7 15.6-5 2.8-5.4 3.2-4.9 5.9l.6 3.5c0 .4 1.3 1.4 2.8 2.3a10 10 0 0 1 4.1 5.8c1.3 4.4 1.4 4-3.4 10.5-.8 1.2-2.2 6.8-3 12.5-.9 5.8-2.2 13.2-3 16.5-1 4.8-1.1 6.3-.1 7.5 2.2 2.6 3.5 7.2 4.2 15 .8 9 2.3 13.1 5.8 15.6 1.5 1.1 4.7 4.8 7.3 8.4 6.9 9.8 10.3 13 13.4 13q7.3 0 9.1 5.2c.7 1.8 2.4 5.7 4 8.7 2.3 4.3 2.8 6.6 2.8 12v6.6l-4.4 2.5a68 68 0 0 0-14.8 15.5c-9.7 12.1-15.6 20.5-14.5 20.5.3 0 2.4-.9 4.8-1.9 3.4-1.6 4.7-1.7 6.3-.8 1.2.6 3.4 1.2 5.1 1.2 2.6 0 3 .4 3.6 3.5a36 36 0 0 0 1.7 6.3c1.1 2.6 1.3 2.7 3.5 1.2 2.2-1.4 2.5-1.3 5.3 1.6a56 56 0 0 0 7.9 6.4c7.3 4.8 12.9 10.9 12.2 13.4-.5 2.1 3.1 8.1 6.7 11 1.5 1.3 1.7 2.5 1.1 8.1-.7 6.6-.6 6.8 2.3 9.1q3 2.4 6.1 10.2c1.7 4.2 4.2 9.5 5.6 11.7 2.8 4.4 7.9 16.6 10.4 25l1.7 5.5 16.9 9.1c9.2 5.1 19 11 21.6 13.3 4.8 4.1 4.8 4.1 13.1 4.1 9.4 0 10.2-.5 16.1-9.7 5-7.9 11.8-11.3 22.3-11.3 5.4 0 6.5.3 7.4 2.1.9 1.6.8 2.4-.3 3.7-1.7 2-5 8.3-4.5 8.6.2.2 1.7.8 3.5 1.4 3 1 3.4.8 7.6-3.6 2.4-2.6 4.8-5.4 5.3-6.3s4.4-3.9 8.6-6.7c4.3-2.9 8.3-6.3 9-7.6 1.9-3.4 7-7.4 11.7-9.1 2.3-.8 5.6-2.5 7.4-3.8 4.1-3.1 10.9-5.7 14.8-5.7s14.6-7.5 19-13.3c5-6.5 5.1-6.5 4.3-2.3-.8 4.6-.9 4.7 9.3-3.6 5.5-4.5 8.1-7.5 11.2-13.1 3.7-6.7 4-7.8 3.4-12.4-.4-4.1-.1-5.8 1.7-9.1l2.3-4 7.6-.3c7.5-.4 7.8-.5 13.3-5.1 3-2.7 6.8-5 8.4-5.3l6.6-1c5-.8 8.2-6 7.3-12.1-.6-4.2-.7-4.2-5.4-4.9-3.6-.5-6.9 0-13.6 1.9-10.7 3.1-15.8 3.3-22.5.6-2.8-1.1-6.4-2-8-2-3.8 0-14.2-3.8-15.7-5.8a9 9 0 0 1-1.3-4.6c0-1.7-1.2-5.6-2.6-8.6s-3.4-8.2-4.5-11.5c-1-3.3-3.3-10.5-5.2-16l-3.4-10 2.3-3c1.3-1.7 3.2-5 4.2-7.3l1.9-4.2-3.4-12.8c-1.9-7-3.7-13-4.1-13.3s-5.8-2.4-12.1-4.5l-11.3-3.9-7.4-9.5a49 49 0 0 1-7.4-11.3c0-2.1 2.2-2.2 15-.2 5.2.8 12.4 1.5 15.9 1.5 5.6 0 6.9-.3 9.2-2.6 2.6-2.5 2.8-2.5 5.7-1 1.7.9 4 3 5.3 4.7q5.1 7.2 16.8 6.2c5.4-.4 10 .3 24.8 3.6 10.1 2.3 20.1 4.1 22.2 4.1 2.4 0 6.7 1.3 11.2 3.5 11.9 5.7 14.8 4.5 17-6.6l1.1-5.8 13.1-5.1a75 75 0 0 0 16.3-8c1.9-1.6 5.1-3.3 7.1-3.7 5-1 15.7-1 21.3 0 4.4.8 4.5.8 6.4-2.7s2-3.6 6.5-3c6.6.9 12.6-1 15.3-4.7 2-2.7 2.7-3 6-2.5 3.4.6 3.9.3 8.5-5.2 2.8-3.1 5.8-6.9 6.7-8.4s3-3 4.6-3.3q2.8-.7 5.5-4.5c2.5-3.6 2.9-3.8 5.8-2.9 1.8.5 7.1.9 11.8.9 8.5 0 8.7-.1 9.3-2.6a23 23 0 0 1 10.8-13.2c5.8-3.2 9.3-7.6 12.6-15.8 4.3-10.4 6.9-6.7-29.3-41.6a797 797 0 0 1-32.5-32.2 35 35 0 0 1 5.6-6c3.1-2.8 6.2-6.3 7-7.8 2.5-4.9 1.3-16.3-2.8-25.9-1.8-4.3-1.8-4.9-.4-7.7 1.5-3 4.9-4.2 11.8-4.2 4.1 0 7.8-2.1 9.5-5.3l1.5-2.9 1.9 2.1c2.4 2.6 7.5 2.8 10.8.4 1.3-.9 4.2-2.6 6.5-3.8 18.2-9.7 20.1-11.2 21.8-16.6q2.3-8.4-5.1-10.8c-5.5-1.6-11.1-1.4-13.3.6-1.4 1.3-2.5 1.5-4.6.7-2.5-.9-2.7-1.4-3-7.3s-.6-6.7-4.8-11.5c-4.9-5.6-6.6-9.7-4.3-10.5q3.3-1.2 11.2-12.8c3.8-5.8 5.5-7.4 9.6-9.2 2.7-1.1 5.7-2.1 6.6-2.1 2.5 0 12-6.7 14.9-10.5 1.4-1.8 4.1-3.8 5.9-4.4a8.5 8.5 0 0 0 5.7-8.1c0-1 1.6-3.1 3.5-4.6 4.7-3.5 5.2-6.3 2.5-12.5-2.5-5.9-6.4-9.8-9.8-9.9-1.3 0-7.3-1.1-13.4-2.5s-12.4-2.5-14-2.5c-2.8 0-3 .2-2.6 3 .4 2.3 0 3.1-1.6 3.6a8 8 0 0 0-3.1 2c-.8 1.1-2.6 1.1-10.5-.2-14.5-2.5-25.3-1.3-28.8 3q-1.6 2.1-8.2 3.5c-3.6.7-7.2 1.9-8.1 2.7-1.5 1.3-5.7 1.8-13.8 1.5a37 37 0 0 1-7.8-2.1c-3-1.1-6.4-2-7.6-2-3.5-.1-6.1-2.5-4.9-4.6.9-1.6 2.6-1.8 13.7-1.8l12.6-.1 2.9-3.5c1.6-1.9 3-4 3-4.6s1.1-2.6 2.5-4.4 2.5-4.6 2.4-6c-.7-8.8-.1-10.4 5.1-14.5 4.3-3.4 5-4.5 4.8-6.9-.2-1.6-.9-3.1-1.5-3.4s-3.8 2.3-6.9 5.5c-4.9 5.1-5.3 5.4-3.4 2.1 1.2-2.1 1.9-4.2 1.6-4.7s.6-1.2 2-1.5c1.5-.4 4.8-2.5 7.3-4.7 2.6-2.1 5.4-3.9 6.3-3.9 2.2 0 6.8-4.6 6.8-6.7-.1-2.3-1.6-4.2-6.2-7.7-3.4-2.6-3.9-2.7-5.3-1.2q-1.5 1.5-2.1 1.6c-.2 0-1.5-2.5-2.9-5.6l-2.5-5.7-6 .6c-4.7.4-6.7.1-9.7-1.5-2.1-1-6-2.8-8.8-3.9a33 33 0 0 1-8.5-5.4c-5.5-5.4-15-8.5-15-5q.2 1.4 1.5 1.5c1.3.1 2.1 1.6 2.9 3.4.8 1.9 2.4 4.1 3.5 4.8 2.6 1.6 2.8 6.5.5 13.2-.9 2.6-1.7 4.6-1.9 4.4s.2-3.4.7-7.2c.8-5.8.7-7.1-.7-8.6-3.4-3.7-17.1-6.8-15.9-3.6q.4 1.2-1.2 2c-1.7.7-2.9-.5-6.1-5.6-.9-1.5-3-3.2-4.7-3.8-1.6-.5-4.3-2.1-6-3.3a27 27 0 0 0-8-3.6c-4.2-1-5.1-1-6.7.5-1 .9-2.1 2.9-2.4 4.4q-.6 3-2.1 2.3c-1.1-.4-1.4.5-1.4 4.1 0 2.6-.8 6.3-1.9 8.4-1 2-2.1 4.8-2.5 6.2-.7 3-4.2 7.7-5 6.9s2.6-9.9 3.6-9.9c1.2 0 1-4.8-.3-7.3a23 23 0 0 0-3.6-4.8 16 16 0 0 1-3.2-7.6c-.5-3.6-1.8-6.4-4.5-9.6q-8.4-10-8.6-1.7c0 1.6-.5 4.1-1 5.6-1 2.4-1.4 2.6-5.3 2.1-3.4-.5-4.6-.2-6.4 1.5q-2.4 2.4-2.3.7c0-2.4 2.2-3.9 5.5-3.9q3.2-.1 5.3-2.3c2.1-2.2 2.1-2.5.7-5.4-1.3-2.7-1.3-3.3.1-6.2 1.6-3.1 1.5-3.3-.7-5.8a30 30 0 0 0-7.1-4.9c-6.6-3.4-6.1-7.7 1.2-9.9 2.3-.7 2.4-.7 1 1s-1.4 1.7.9.6q2.3-1.3 7.5-.6l12.2 1.1c6.9.5 7.1.5 11.1-2.8 3.5-3 5.3-3.6 12.8-4.7q8.7-1.4 10.5-3.1c1-1 2.8-2.3 3.9-3 1.2-.6 2.1-1.8 2.1-2.7s.8-2.5 1.8-3.6c1.6-1.9 1.6-1.9-.8-1.2-3.3 1-8.1 3.4-10 5-1.6 1.4-9.4 2.7-14.5 2.4l-23.7-.1c-17.6.1-21.1.3-24 1.8a14 14 0 0 1-6.4 1.6 46 46 0 0 0-11.7 2.3 59 59 0 0 1-17.6 2.5c-8.9 0-9 0-11.5 3.2s-2.6 3.2-10.2 2.9c-6.1-.2-8.5-.7-11.5-2.7-4.6-2.9-5.9-3-5.9-.5 0 1-1 2.6-2.3 3.4-3.3 2.2-11.4 3.2-13.1 1.8-1.1-1-2.2-.9-4.7.4-2.3 1.3-4.5 1.5-7.9 1.1-5.1-.7-6 0-6 4.9q0 5 6 .7c3.4-2.3 3.8-2.4 16.8-1.7 8.1.4 14.8 1.3 16.9 2.2l3.6 1.4-3.1 1.9c-4.5 2.7-13.4 4.1-25.8 3.8-11.9-.2-18.4 1.2-18.5 4q0 2.1-.8-.3c-.8-1.8-1-1.7-2.7 1.2-1.1 1.8-2.5 3.3-3.1 3.3q-1.2.1-1.3 1.6c0 1.2.7 1.4 3 .9q3-.6 3 .4c0 1.8-5.9 4.2-12.2 5.1-6.4.9-13.3 4.8-14.3 8-1.1 3.4-3.2 4-18.1 4.5-15.5.6-25.8-.4-52.9-5.4-6-1.1-11.6-2.1-12.4-2.1-2.1 0-.4 1.3 3.2 2.7l3.2 1.1-3.6.1c-1.9.1-4.4-.6-5.5-1.4s-2.7-1.5-3.6-1.5c-2.2 0-2.4-2-.3-2q1.3-.1 1.5-1.6c.2-1.5-2.8-2.8-7.4-5-8-3.7-9.5-4.9-7.7-6.7q2.8-2.9-2-4.6a28 28 0 0 0-16.3.3 13 13 0 0 1-8.2.5c-3.1-.6-7.6-.6-12.2.1-4 .5-9.9 1-13 1-3.4.1-6.5.7-7.6 1.5-2.2 1.7-7.3 2-9.5.6q-1.5-.9-7.9 1.5A38 38 0 0 1 455 209c-2.2 0-9 2-15.7 4.7a55 55 0 0 1-16.8 4.7 25 25 0 0 0-8 1.7 72 72 0 0 1-28.3.8c-7-2.2-11.3-8.4-11.4-16.6-.1-2.5-.6-4.4-1.5-4.7q-3.1-1.4 1.7-3.3c1.7-.6 3-1.9 3-2.8q0-1.8-1.7-1-5.7 2.4-6.6.2-.6-1.5 1.8-2.1c2.2-.6 2.3-.9 1.4-3.2-.5-1.5-3-4.9-5.4-7.6-2.5-2.8-4.5-5.4-4.5-5.9s-1.5-.9-3.3-.9c-2.1 0-4.1-.8-5.1-1.9s-3-2.3-4.6-2.6a11 11 0 0 1-4.9-3c-1.5-1.8-3.1-2.5-5.9-2.5-2.1 0-4.7-.7-5.8-1.5-1.5-1.2-3.8-1.3-11.4-.9-8.9.6-9.6.5-11.4-1.5-4.1-4.6-18.8-6.3-20.3-2.5q-.4 1.5-6.4 1.4c-4.8 0-6.7.5-9.9 2.7l-4.1 2.6-2.2-2.1c-5.7-5.3-10.9-17.5-13.2-30.7-1-5.9-4.9-12-10-15.5l-4.7-2.9z"/><path d="M699.1 149.1c-5.7 5.4-6.6 5.9-10.8 5.9-2.4 0-5.8-.8-7.3-1.7-2.5-1.4-3.4-1.5-7.1-.4-4.5 1.4-10.4 6.4-9.4 8.1.3.5 3.9 1 8 1 5.8 0 7.6-.4 8.3-1.6 1-1.9 2.5-1.3 10 4 4.6 3.1 6.7 2.9 8.2-.9 1.2-3.3 5.5-3.6 4.5-.4-.9 2.9 1.6 2.1 3.1-1 .6-1.2 2.1-2.9 3.3-3.7s2.1-2.4 2.1-3.5c0-2.3-4.1-10.7-5.6-11.3-.5-.2-3.8 2.3-7.3 5.5M592.3 168q-2.1 1-2.3 2.5c0 1.2 1.2 1.5 5.4 1.5 6.7 0 8.6-.7 8.6-3.1 0-1.6-.7-1.9-4.7-1.8-2.7 0-5.8.4-7 .9m90.5 2.7q-2.7.4-2.1 1.9c.7 1.8 4.7 1.8 6.2.1 1-1.3.5-2.9-.8-2.6zm14.5.9c-.7 2 1.3 3.4 5 3.4s3.1-2-1.1-3.7c-2.8-1.2-3.3-1.1-3.9.3m248.3 94.9c-1.8 1.8-3 5.4-2.2 6.3.7.6 6.6-4.7 6.6-5.9 0-1.5-3-1.7-4.4-.4M937 271c-.6 1.1-.8 2.5-.5 3 .7 1.2 3.5 1.3 3.5.2l.6-3c.8-2.9-2.1-3.1-3.6-.2m-2.5 8.5c-3 2.4-2 3.4 1.4 1.5 1.9-1 3.6-4 2.3-4-.4 0-2 1.1-3.7 2.5m3 3.7c-1.5 1.8-3.2 4.4-3.8 5.8s-1.7 3.3-2.6 4.3c-.8.9-1.2 2-.8 2.3s3.8-2.6 7.8-6.6c5.5-5.5 6.9-7.4 5.8-8.1-2.4-1.5-3.6-1-6.4 2.3m-9.2 1.5c-1.4.5-1.8 3.3-.5 3.3q.8 0 2-1.2c2.2-2.2 1.4-3.3-1.5-2.1m14 3.6c-4.7 3.5-5.3 4.7-2.4 4.7 1.7 0 9.1-6.1 9.1-7.5 0-1.3-2.9-.1-6.7 2.8m-12.2.3c-2.9 3.7-2.6 5.5.4 2.1 2.3-2.5 3.2-4.7 2.1-4.7-.3 0-1.4 1.2-2.5 2.6m12.2 6.1q-2.1.5-2.3 1.9c0 1.2.4 1.2 2.5-.2q2.3-1.5 2.5-2c.2-.5-.1-.3-.2-.3zm-9.6 2.3c-1.4 1.1-3.1 2-3.9 2-1.8.1-5.3 3-6.6 5.6q-2.5 4.9 4.4 3.9c6.9-1.3 9-3.3 10.8-10.8q1-5-4.7-.7m9.8 2c-2.2 1.1-3.2 1.8-2.2 1.5s2.4-.5 3.1-.5 2.1-.7 3.2-1.5c2.7-2.1.6-1.8-4.1.5m5.5 3.2-3.5 2.2 3 .7c4.8 1.1 16.5 1 16.5-.1 0-.6-1.8-1-4-1-3.8 0-4-.2-3-2s.8-2-2.2-2c-1.8 0-4.9 1-6.8 2.2m-8.3 1.5c-3.8 2-2.9 2.7 1.3 1 1.8-.8 2.9-1.7 2.4-2s-2.2.2-3.7 1m-1.2 4.3c-.8 1.3.5 1.3 2.5 0q2-1.1-.2-1c-.9 0-2 .4-2.3 1m-18.5 3.5q-1.6 1.7.7 1.5c1 0 2.8-.7 3.9-1.5 1.8-1.4 1.8-1.4-.7-1.5-1.5 0-3.2.7-3.9 1.5m1.5 2.2a10 10 0 0 0-3.9 1.4c-.6.5-4.8.9-9.5.9-8.6 0-11.9.9-10.8 2.8 1.8 2.8 19.5 4.3 19 1.6-.1-.7 2.3-1.3 6.3-1.7 6.1-.4 10.4-2.5 10.4-4.9 0-.8-5.9-.9-11.5-.1"/></svg>