<svg xmlns="http://www.w3.org/2000/svg" width="1365.333" height="1365.333" viewBox="0 0 1024 1024"><path d="M943.6 273.1c-2.9 3.4-3.1 4.2-1.6 7 1.7 3.2 5.5 2.4 7.9-1.6q2-3.5 5.1-4.2l3.1-.6-3.1-1.8q-6.9-4.2-11.4 1.2m-64.1 23.6c-2.3.3-3.4 1.1-4.2 3.3q-2 4.9-9.4 5c-3.9 0-3.8 2.7.2 5.9 3.4 2.7 7.2 3 9.7.9.9-.8 2.5-1.8 3.5-2.1q1.6-.7 1.7-3.4c0-1.5.9-3.9 2-5.3 2.2-2.9 2.6-5.1.8-4.8zm35.6 6.2c-1 1.8-.7 2.2 1.9 3.6a25 25 0 0 1 9 14.8v2.8l6.3-.7c6.5-.7 12.7-2.8 12.7-4.3s-3.6-4-8-5.6c-5.6-2-6.8-3.1-8.7-7.7-1.3-3.3-2-3.8-4.7-3.8-1.7 0-4.1-.3-5.3-.6q-2.1-.7-3.2 1.5m29.2 3.8c-2.8 1.9-2.9 2.9-.4 4.3 1.6.8 2.6.5 5-1.6 1.7-1.4 3.1-3 3.1-3.5 0-1.5-5.3-.9-7.7.8"/><path d="M864.2 320.6a9 9 0 0 1-7.2.4c-3.4-.9-4.6-.8-8.1 1q-4 2.1-5.2 1.1c-1-.7-5.7-.8-10.9-.2-1.4.2-.8 2.8 1 4.3.9.9 3.1 2 4.7 2.5 2.5.8 3 1.5 2.8 3.9-.3 5.2-1.5 8.8-4.4 12.5-3.3 4.3-3.4 4.9-1.3 9q1.5 3 .6 4.2c-.6.7-1.3 4.1-1.7 7.7-.6 5.4-.4 6.8.9 7.9q3 2.6.2 9.2c-1.3 3-1.2 3.7.1 6 1.6 2.6 1.5 2.9-1.6 6.7A23 23 0 0 1 819 406c-3.9.4-4.8.2-6.6-1.9l-2-2.3-1.9 2.8c-1 1.6-2.4 3.3-3.2 3.7-.7.4-1.3 1.6-1.3 2.5s-.9 2.3-2.1 3c-2.6 1.6-8.3.6-7.5-1.3.7-1.8-2-4-2.9-2.5-.4.7-1.9.9-3.6.5-2.4-.5-2.9-.3-2.9 1.2 0 1-1.5 2.6-3.7 3.8-5 2.7-5.1 4-.6 6.3q8.8 4.5 8.1 10.4c-.2 2.7 0 3.2 1.6 3q1.7-.2 1.1.7c-.3.6-1.3 1.1-2 1.1-.9 0-1.9 1.8-2.6 4.5s-1.8 4.7-2.9 5-3 1.5-4.4 2.6c-2.1 1.7-2.6 2.9-2.6 6.5 0 2.5-.5 6.5-1.1 8.9-.8 3.2-.8 4.8.1 6.4.9 1.8.7 2.8-.9 5.5-4.7 7.6-1.1 14.7 5.8 11.2 1.7-.9 3.1-2.1 3.1-2.7s1.8-2.9 4.1-5.1c3.3-3.2 4.7-3.9 6.8-3.5 14.3 2.8 16.2 2.9 18 1.3 1-.9 2.5-1.6 3.4-1.6 2.1 0 3.2-1.9 1.8-3.3a4 4 0 0 1-1.1-2.7c0-.8-1.6-2.8-3.5-4.3-5.4-4.3-6.8-7.8-6-15 .4-3.4 1.4-7.2 2.3-8.5a45 45 0 0 0 2.6-13.5l1.1-11.2 4-1.3c2.2-.7 5-2.4 6.3-3.7 1.7-1.8 3.3-2.5 6.2-2.5 3.1 0 4.3-.5 5.7-2.7l4.9-6c3.1-3.2 3.5-3.3 10.6-3.3 4.3 0 7.9.5 8.6 1.2.9.9 1.6.7 3.2-.7 1.8-1.6 2.4-1.7 5.9-.5 3 1 4.3 1 6.1 0 1.2-.6 4.6-1 7.7-.8l5.5.3 1.4-4c1.9-5.4 1.8-6.5-.6-6.5q-1.8.1-2 1.2t-1.5-.6c-1.9-2.5-1.9-7-.1-8.5q1.4-1.1.9-5c-.4-3 0-4.7 2.1-7.8 2.5-3.7 3.2-4.1 8.3-4.7s6-.4 9.6 2.1a18 18 0 0 1 5 5c1.6 3.5 5.1 2.9 8.3-1.3 3.9-5 7.1-6.5 10.9-5 3 1.3 7.7.5 10-1.5.5-.5 3-.9 5.6-.9q4.6 0 7-1.9c2.3-1.9 2.3-2 .6-3.3-2.4-1.8-1.5-3.8 3.4-7.8a19 19 0 0 1 10.7-4.1c7-1.1 13.7-.5 15.9 1.2.9.8 2.9.2 7.4-2 3.4-1.7 7-3.1 7.9-3.1 3.8 0 8.8-3.1 11.3-6.9q2.8-4 4.8-4.1t2.6-1.8c.2-1 1.8-2.3 3.4-2.9s2.9-1.6 2.9-2.2c0-2.5-14.5.1-16 2.9-1.3 2.4-7 3.2-9.2 1.3q-1.7-1.5-5.5-1c-9 1.3-12.1 2.5-18.3 7.5q-6.4 5.2-9.2 5.2c-2.5 0-2.7-.2-1.8-2.5.5-1.4 2.2-3.6 3.7-4.9 2.5-2.2 2.6-2.6 1.5-5.1-1-2.2-1.7-2.6-3.5-2-1.2.4-4.8.9-7.9 1.2-7.7.7-9.2 2.5-9.3 10.8 0 5.7.2 6.5 2.5 7.9l2.5 1.5-3.5.1-11.7.9c-6.8.7-8.6 1.2-10.1 3.1-1.8 2.2-2.1 2.2-7 1-4.4-1.2-5.7-1.1-10.3.3-10.6 3.5-12.6 2.2-9.3-5.8 2.2-5.6 2.3-6.1.7-7.3a7 7 0 0 0-3.2-1.2c-.8 0-2.2-.7-3.2-1.6-1.6-1.4-2.1-1.4-5.9.6-3.7 1.9-4.4 2-5.8.7-1-.8-2.5-1.7-3.5-2q-1.6-.7-1.3-1.6.4-1.2-.9-2.1c-1.3-.9-1.5-2.3-1.5-3.6q0-2.5-1.9-2.4c-3 0-5.1-1.1-5.1-2.6 0-1.7-1.5-1.7-5.8.2m-264.3 18.3c-2 .9-4.4 2.3-5.3 3q-1.6 1.3-5 .7c-3-.6-3.4-.4-4 2q-.8 2.6 1 4.5 1.5 1.8 1 1.9c-.3 0 .3 1.8 1.4 4q3.2 6-.4 6c-1.4 0-3.8 8.2-3 10.3.3.8 2.3 2.4 4.4 3.6s4 2.6 4 3.1.2 1.5.5 2.2q.5 1.4-2.9 3.3c-4.4 2.4-3.7 4.5 1.5 4.5 4.7 0 4.8.7 1.2 8.2-2.7 5.5-2.9 5.7-6.2 5.1q-3.2-.5-4 .6c-.9 1.3 1.7 15.1 3.1 16.8s4.3 1.6 7.7-.2q3-1.4 3.5-5c.6-3.2 1-3.5 4-3.5 4.7 0 7.8-3.6 8.4-9.8.4-4.3.1-5.1-1.9-6.6a10 10 0 0 0-4.7-1.6c-2.2 0-2.3-.3-2-7.2.2-6.4.6-7.7 3.5-11.5 1.8-2.4 3.3-5.5 3.3-6.8 0-1.4.7-4.2 1.5-6.2 1.9-4.5 2-4.3-1.1-4.3q-2.6 0-3.1-1.9c-.2-1-1.6-2.4-2.9-3-2.8-1.2-3.3-5.7-.8-7.5q1.4-1.2 1.2-3.7c-.3-2.6-.3-2.6-3.9-1m142.2 1.9c-1.9 1.3.3 5.2 2.9 5.2q1.9.1 2 1.6c0 1.7.1 1.7 4.7-1.1q6.3-3.7.1-4.8c-1.8-.3-4.4-.8-5.8-1.2a7 7 0 0 0-3.9.3m-242.9 11.7c-4 4-3.5 5.5 1.8 5.5 3.6 0 4 .2 4.5 3.2.3 1.8.7 5.1.8 7.3.2 3.5-.1 4-2 4-2.7.1-6.5 4.7-5.7 7 1 2.4 4.3 3.4 7.6 2.1 3.9-1.5 8.2.2 8.6 3.4.5 5.5 2.5 10.6 5 13.3 1.6 1.6 2.7 4 2.7 5.5 0 2.1.4 2.6 2 2.4 5.5-.7 6.3-1.2 6.9-4.3.8-4.1 4.4-9.9 6.1-9.9q1.3-.1 2.5-1.5c1.2-1.4 2-1.5 3-1.5 2.6 0 5.5-3.7 4.2-5.3-.6-.7-1.2-3.2-1.4-5.6-.4-5.5-2.7-7.4-5.7-4.7-1.9 1.8-2.1 1.7-4.5-.9a16 16 0 0 1-3.1-4.6c-.9-2.8-3.7-2.3-7 1.1-4.8 5.1-7.2 4-12.2-5.5a33 33 0 0 1-3.8-9.2c.4-1.3-4-5.3-5.9-5.3-.6 0-2.6 1.6-4.4 3.5m243.5 10.2c-.4.3-.7 1.4-.7 2.3a9 9 0 0 1-2 4.3q-4.8 6.4 2.6 2.2c4.5-2.7 4.8-2.7 8.1-1.1 4.1 2 9.7 2.1 11.2.2.6-.7.8-2.6.5-4.4-.6-3.1-.7-3.1-3.3-1.6-2.4 1.4-3 1.4-7.9-.5-5.6-2.2-7.4-2.5-8.5-1.4m-25.5 1.5c-1.6 1.6-1.5 4.8.2 4.8.7 0 2.7-.5 4.4-1.1 2.7-.9 3-1.4 2.2-3-1.2-2.1-5-2.5-6.8-.7m-80.3 27c-2.7 5.1-11.9 5.9-16.4 1.4-1.2-1.2-2.7-2-3.3-1.8-1.7.5-2.5 6.7-1.2 9.2 1.2 2.3 1.8 2.3 9.2.5 1.6-.4 4.9 0 8.2 1 10.2 3.2 22.6 0 27.2-7 2.4-3.6.6-5.3-3-3-2.3 1.5-3.1 1.6-5.4.5-1.5-.8-5.3-1.6-8.5-2-5-.5-6-.3-6.8 1.2m-420.6 20.7c-1 1-2.8 2.2-4 2.5-2.3.7-3.2 4-1.4 5 .5.3.7 1.5.4 2.6q-.7 2 2 2.9c3.9 1.5 11.9 1.6 14.5.2 1.3-.7 4.5-1.1 7-.9 3.6.2 4.7 0 4.7-1.2 0-.8-1.3-1.7-3.1-2.1-5-1-14.8-6.9-13.5-8.2q2.7-2.7-1.9-2.7c-1.6 0-3.7.8-4.7 1.9m-67.5 1c-3.1 1.3-3.8 2.1-3.8 4.4 0 3.6-1.6 6.7-3.5 6.7q-1.4 0-1.5 1c0 2.7-12.4 5.9-15.9 4.1-1.6-.9-2.2-.8-3.1.8-.5 1.1-1 3-1 4.2 0 2.1-.2 2.2-8.1 1.6-8.4-.5-13.9.5-13.9 2.8 0 4.4 8.9 9.6 16.4 9.6h6.9c1.6 0 4.3-.9 6.1-2.1 1.9-1.1 4.7-2 6.4-2 4.1 0 10.2 3 10.2 4.9.1 2.6 2.5 5.1 5.8 5.7q5.3 1.2 5.2-6.8 0-5.8 4.7-7.3c1.8-.5 2.5.1 4.2 3.3a38 38 0 0 0 18.3 15.5c7.2 2.3 11.9 2.2 16.2-.4 4.2-2.4 4.3-3.2 1.5-6.7l-2.1-2.7 2.8-.3c1.9-.3 4.5.8 8.7 3.8 7.8 5.3 10.2 5 11.1-1.6.3-2.6.6-6.1.6-7.9 0-3.1-.2-3.3-4.6-3.8-3.5-.4-5.2-1.2-6.9-3.3-1.9-2.4-2.1-3-.8-3.9 1.3-1 1.2-1.6-.7-4.8-1.2-2-2.7-3.7-3.3-3.7q-1-.1.3-1c1.9-1.2.9-2.1-6-5a24 24 0 0 0-13.4-1.8c-6.8.4-8.8.1-13.1-1.7-6.7-3-18.6-3.8-23.7-1.6m427-.7c-3.6 2.8.5 12.8 5.2 12.8 2.1 0 2.2-5.7.3-7.8a6 6 0 0 1-1.3-3.8c0-2.6-1.7-3.1-4.2-1.2m-42.3 2.8c-.3.5-2.8 1-5.5 1q-4.9 0-5.7 1.4c-.5.8-2.6 2.1-4.8 2.8-3.2 1.1-4 1.8-4 3.8s-.6 2.6-2.7 2.8a6 6 0 0 0-4.1 2.6c-1.9 2.9-8.9 6-11.9 5.3-1.3-.4-3.3-1.5-4.4-2.6-2.1-1.9-2.2-1.9-3.3.5a13 13 0 0 0-1.1 3.9c0 2.9-2.8 4.3-6.7 3.4-2.1-.5-5.7-.9-7.9-.9q-7.1-.2-6.1-5c.4-1.6-.1-2.2-2.6-2.8-2.7-.7-3.3-1.4-3.7-4.2-.6-4.2-3.5-5.3-4.5-1.8-.4 1.3-1.3 3.8-2.1 5.6-1.2 2.6-1.8 3-3.3 2.3q-1.7-1-4.5.5a9 9 0 0 1-9.7 0q-2.6-1.2-4-.5c-2.5 1.6-8.5 1-11.2-1.1-2.1-1.7-2.9-1.8-5.7-.9-3.6 1.3-14.8.5-16.4-1.1-.6-.6-2.5-1-4.3-1q-3.2 0-3-1.2c.2-1.4-7-3.6-12-3.7-3.1-.1-3.3.1-3.3 3.3 0 4.1-1 4.6-9.8 4.6-7.8 0-10.6 1.2-7.4 2.9 1.1.6 3 1.1 4.1 1.1 4.4 0 6.7 8.2 3.5 12.8q-2.7 4-8.1.4a112 112 0 0 0-8.7-4.4l-6.1-2.7-.3 2.7c-.8 6.7-2.3 10.2-5.1 11.7-4 2-5.2 9.9-2.4 14.7 1.7 3 2.5 3.4 7.3 3.8l5.5.5-.3 3.5c-.3 4.7-2.1 9-3.8 9-.8 0-3.4 1.6-6 3.5a27 27 0 0 1-7.2 4.1c-10.7 2.3-12.4 4-11.1 10.7.8 4.5.6 5.2-3.1 11.7a68 68 0 0 1-18.8 20.4 58 58 0 0 1-18.8 3.6c-2.4 0-6.5-.8-9.1-1.8-7.6-2.9-10.7-1.6-10.8 4.6v3.7l-4.6.1c-3.3.1-5.3.7-6.9 2.2a49 49 0 0 1-17.8 7.2c-1.2 0-2.2.6-2.2 1.4 0 1 1.9 1.5 6.8 1.9a64 64 0 0 1 11.3 2c4.7 1.5 7.1 1.1 12.2-2.5 1.6-1.1 2.1-.9 4 1.3 1.2 1.5 2.9 2.9 3.7 3.2q1.5.6-.7.6c-1.2.1-2.5.5-2.8 1.1-.3.5-1.7 1-2.9 1-1.3 0-2.9.6-3.6 1.4-.6.8-2.6 1.6-4.3 1.8-5.3.5-4.5 3.1 1.7 5.2 7.1 2.4 20.6 1.2 20.6-1.8q.1-1.4 1.5-2.6c1.7-1.4 2-3 .6-3-.6 0-2.6-1-4.7-2.2l-3.6-2.1 5.8-1.8c9.3-2.8 20.5-4.9 25.7-4.9 5.3 0 6.9 1.2 14.9 10.9 3.5 4.3 3.8 4.5 10 4.9 8.5.5 13-.7 14.6-4.2 1.5-2.9 3.7-4.1 9.3-5.1 3.7-.5 5.2-2.6 6.1-7.9q.6-4.9 8.6-2.7c3.8.9 6.4 1 10.9.2 6.6-1.3 10.1-3.4 12.3-7.7a58 58 0 0 1 6.9-11.4c.4 0 .5 2 .3 4.5-.3 3.8-.1 4.5 1.4 4.5 2.7-.1 6.2-2.9 4.7-3.8-1.5-1-1.9-4.8-.9-9.4.7-3.3.5-4-1.5-5.7-2.3-1.9-2.3-1.9-.6-5.5 1.5-3.2 2-3.5 3.7-2.6q2.2 1 1.4 3.5c-.8 3.1 3.3 6 7.4 5.2 1.5-.3 5.5-.1 9 .5 5.8.9 6.6.8 11-1.4q4.7-2.5 6.7-6.1c1.1-2 2.8-4 3.8-4.3s1.7-1.5 1.7-3-.7-2.7-1.7-3.1-3.7-1.4-6-2.5c-3.8-1.8-4.3-2.4-4.3-5.4q0-3.4 1.9-4.3c3.9-2.1 3.6-8.1-.5-8.1-3.1 0-3.5-.9-1.9-4.8 1.6-3.7 5.5-4.6 5.5-1.2q0 2 2.4 2 3.7.1 3.6-5.3 0-2.3 2.3 2.3c1.6 3.3 2.9 4.6 4.7 4.8 4.3.6 9 4.9 9 8.2 0 1.7.9 3.8 2.2 5 2.5 2.3 3.9 2.5 5.5.9 1.5-1.5 4.7-.3 4 1.5-.9 2.3 6 10.6 8.8 10.6 1.3 0 2.7.4 3 1 1.5 2.4 9.5.3 9.5-2.5 0-2.1 2.9-4.5 5.6-4.5 2 0 2.4.5 2.4 3q0 2.9 1.5 3.7c2.2.8 9.4-2.2 13.4-5.7 2.9-2.5 3.2-3 1.8-3.6-1-.3-2.4-.1-3.2.6-1.7 1.4-4.5.7-4.5-1.1q0-1 .6-.6c1.5 1.5 4.3-1.5 4.9-5.3.4-2.2 1-4 1.4-4a21 21 0 0 1 8.2 3.3q.7.9 3.5 0c2.7-.9 2.9-1.4 3.2-6.6.2-3.1.7-5.7 1.2-5.7q1 .1 1 1.4c0 1.7 3 3 3 1.3.1-1.5 4.6-6.7 5.9-6.7 1.5 0-1-5.6-3.1-6.9q-1.8-1.2-3.8-.1c-1.5.8-2.1.6-3-.9-2.8-5.4 0-13.5 5.2-14.6 8-1.6 13.4-1.7 14.7-.1.8.9 2.4 1.6 3.7 1.6 2.6 0 4.4-3.1 4.4-7.5 0-1.3.5-2.7 1-3 1.5-.9 8.2 1.6 10.2 3.7.9 1 2.2 1.8 3 1.8s2.6 1.3 4.1 3c3.2 3.3 7.7 4.1 7.7 1.3 0-.9.7-2.4 1.6-3.4 1.4-1.5 1.8-1.6 4.2-.3 1.5.8 4.7 1.4 7.3 1.4 5.3 0 11.4 3.5 17.1 9.8 3.1 3.4 3.8 5.1 4.4 10.1.3 3.4 1.1 6.1 1.7 6.1s2.9-1.7 5.3-3.8l7.6-6.4c3.2-2.6 3.3-2.6 2-7-.8-2.3-1.9-6.1-2.5-8.4-1.5-5.2-2.6-6.5-9.2-10.9-3-1.9-5.6-4.4-6-5.4a18 18 0 0 0-8.1-6.1c-.2 0-.4 1.3-.4 2.9 0 3-3.1 6.4-7 7.6-2.7.9-7.1-1.1-6.4-3 .3-.8.4-2.2.1-2.9-.5-1.3-1-1.3-3.8.1-2.6 1.3-3.7 1.4-7 .3-3.4-1.2-4.1-1.1-5.8.4-2.5 2.3-11.8 1.9-11.2-.4.3-.8.5-2.9.5-4.5.1-2.9 0-3-4.9-3s-5 0-6 3.9c-.7 3.1-.6 4 .7 5s1.4 1.6.4 4.1l-1.3 3-1.2-3.7c-.7-2-2-4.7-3.1-6q-1.8-2.4-2.5-10c-.8-8.6-2.5-10.8-8.5-10.8-1.8 0-3.3-.6-3.6-1.5-.7-1.7-2-2-2.9-.5m-289.3 5.2q-2.4 2.5.2 4.7c2.1 1.8 4.1-1.1 2.6-3.8-1.3-2.5-1.2-2.5-2.8-.9M4 423.5q-.2 1.4-2 2.5c-1.9 1-1.9 1.1.1 4.5 1.7 2.8 2 4.5 1.5 8.2-.9 7.2.7 9.7 6.6 9.8 5 .1 9.8-2.9 9.8-6 0-2.4-6.6-13.4-10.3-17.3-3.3-3.4-5.7-4.2-5.7-1.7m237 34.9q0 1.6 3.1 1.6c3.8 0 3.5-2.4-.4-2.8q-2.8-.4-2.7 1.2"/><path d="M540 480.1c0 .4.6 2 1.4 3.6.8 1.5 1.8 4.1 2.3 5.8.6 2.3 1.5 3.1 3.7 3.3 5.6.7 6-.4 1.6-5.9-2.2-2.8-4-5.4-4-5.9s-1.1-1-2.5-1.2c-1.4-.3-2.5-.2-2.5.3m220.6 19.6c-2.5 2.3-2.7 2.8-1.3 3.7 1.2 1 1.3 1.5.2 2.9-1.5 2-.8 6 .9 5.4.6-.2 2.4-2.7 3.9-5.5 2.3-4.2 2.6-5.5 1.7-7.2-1.4-2.6-1.9-2.5-5.4.7m-9.1 33.2q-.4.9.5 1.6.9.4 1-.9 0-2.7-1.5-.7m-2.8 9.8c-1 1-.8 4.3.2 4.3 1.5 0 4.2-3.1 3.6-4.1-.7-1.1-2.9-1.2-3.8-.2M207 555.5c-.7.9-3 1.5-5.4 1.5-2.2.1-5.2.7-6.6 1.5-3 1.7-8.6 1.9-9.6.4-1-1.6-6.5-.3-14.6 3.6-4 1.9-7.8 3.5-8.4 3.5-1.6 0-5.5 5-4.9 6 1 1.6 6.5 2.2 8.1.9a37 37 0 0 1 18.9 1.1c2.4 2 5.2-.3 4.7-3.9-.3-2.6 0-3.1 2.2-3.7 1.4-.3 3-1.2 3.7-2 .6-.8 2.5-1.4 4.1-1.4a17 17 0 0 0 6.1-1.5c1.8-.8 4.7-1.5 6.6-1.7l3.3-.3-2.2-2.8q-3.4-4.5-6-1.2m512.5.5c-1.6.4-5.3.8-8.1.9-4.2.1-5.5.6-7.6 3-1.5 1.6-5.6 4-9.7 5.6q-9.6 3.6-7.9 5.1a64 64 0 0 0 14.7-3c1.2-.8 4 1.9 6.3 6.2q1.6 3.3 4.2 3.2c1.4 0 3.7.5 5.1 1.2 2.2 1 2.7.9 4-.8 2.2-2.9 1.8-4.1-2.2-6.6-2.1-1.3-3.9-3.1-3.9-4.1-.2-1.4.6-1.7 4.2-1.7q4.5 0 5-1.5c.3-.8 1.4-1.7 2.5-2 2.4-.8 2.4-2.7.1-4.8-2-1.8-2.2-1.8-6.7-.7m-82.3 13.2a28 28 0 0 1-1.2 9.6c-1.4 3.2-1.4 3.3 2.3 6.7 2.1 1.9 4.2 3.5 4.6 3.5.5 0 1.1 3.1 1.5 6.9.8 7.5 2.3 9.9 5.2 8.3 1.4-.8 3.1-.3 6.9 1.9 5.8 3.3 7.7 3.6 9.5 1.4 1.7-2 .5-9.6-2-12.2-1.6-1.8-2.3-1.9-5.8-1-2.9.8-4.7.7-6.9-.2-2.8-1.1-3-1.5-2.9-6.6s.3-5.5 2.7-6a6 6 0 0 0 3.6-2.8c.9-1.9.5-2.4-2.6-3.9-8.4-4.1-9.6-5.3-9.3-8.6.3-3 .1-3.2-2.8-3.2h-3.1zm-412.5 4.7c-4.9 2.3-3.4 3.6 5.3 4.4 7.8.7 9.4 0 8.4-3.6-.6-2.5-1-2.7-5.3-2.6-2.5 0-6.3.9-8.4 1.8m381.1 20.2c-2.2 2.4-3.5 2.9-7.3 2.9h-4.6l.7 3.7c.9 5.2 1.5 5.6 6.3 4.2 3.8-1.1 4.4-1 6.9.8q2.6 2 3.6 6.2c.7 3.4 1.3 4.1 3.2 4.1 2.5 0 4.4-2.6 4.4-5.9 0-1.7-.6-2.1-3-2.1-2.7 0-3-.3-3-3q.1-7.5 5.6-8.6c3-.5 5.1-3.4 3.6-4.8-.3-.3-3.5-.5-7.1-.5-5.9.1-6.9.4-9.3 3m-448.7 1.3q-1.2 1.3-.1 4c1.1 2.9.9 2.8 9.5 4.7 3.3.7 6.3 1.8 6.7 2.3 1.3 1.8.9 6.5-.8 9.8-1.2 2.3-1.3 3.2-.4 3.8 1.6 1-.2 4.4-3.6 6.6-2.3 1.6-2.6 1.6-4.9-.6-2.7-2.6-2.1-2.9-12 5-3.5 2.8-6 4-8.3 4-4 0-7.2-1.5-7.2-3.4 0-1.3-2.9-2.6-5.8-2.6-.8 0-3 1.8-4.9 4q-5.4 6.1-11.1 3.1c-8.7-4.4-9.6-4-8.7 3.9.6 5.3.5 5.9-1.5 7-3.1 1.7-9.4.3-12.1-2.6-1.7-1.9-2-2.7-1.1-3.6.7-.7 1.2-2.5 1.2-4q.1-3-2-2.8c-2.6 0-4.3 3.5-3.6 7.4.5 2.5.2 3.7-1.4 5.1-2.5 2.3-2.5 3.1 0 5.2 3.1 2.7 2.5 5.1-1.5 6.2-1.9.5-4.9 2.1-6.6 3.5s-3.7 2.6-4.6 2.6c-1.9 0-9.3 4.1-9.3 5.1 0 2.9 2.2 5.9 4.3 5.9 2.8 0 7 2.8 6.1 4.1q-.7.9-1.9-.8c-1.3-1.7-1.4-1.6-2.4 1-.6 1.6-1.1 3.3-1.1 3.9s-.8.4-1.8-.5c-2.5-2.3-2.9-2.2-3.5 1-1.4 7.2-1.5 7 2.2 6.1 1.4-.3 1.8.8 3.8 9.2.3 1.4 1.2 3.5 2 4.6 1.3 2.1 1.4 2.1 5.1-1.3 2.8-2.6 4.4-3.3 6.7-3.1 2.6.3 3 .8 3.3 3.6.3 3 0 3.4-4.2 5.2-4.9 2.1-5.7 3.7-2.8 6.3 2.7 2.4 5.2 2.1 9.7-1.4 4-3 5.5-2.6 3.6 1q-2.4 4.5.9 5.6 2 .6 2 3.1c0 2.8 2.4 3.2 5.8.8l2.2-1.5-2.1-2.8c-3.5-4.7-.3-8 6.7-6.6 3.3.6 3.4.5 3.4-2.5 0-1.7.5-4 1-5.1 1.3-2.3 5.5-2.5 6.4-.3q.7 1.5 2.5.9t4 2.1a9 9 0 0 1 .6 10.4c-1.2 2.2-1.1 2.7.7 4.7 3.2 3.4 5.1 3 4.5-1a16 16 0 0 1 .4-5.5c.7-1.8.4-3.1-1.1-5.2q-3.5-4.7-.6-8.3c2.8-3.6 7.3-1.8 7.8 3.3.2 2.6 1 3.8 3.7 5.4 5.3 3.1 10.1.9 16.9-7.7 7.2-8.9 8.1-8.9 19.2 1.3 4.8 4.4 9.4 8 10.2 8s2.1.9 3.1 2 2.9 2 4.6 2c2.6 0 3.1-.4 3.7-3.5.6-3.6 3-4.8 4-2q.8 1.3 2.1 1.5c1.2 0 1.4-.7 1-3-.4-1.6-.2-3.2.4-3.5 1.7-1.1 3.8 1.5 4.2 5.3l.3 3.7 1.4-3.3q1.4-3.3 3.7-3.2c3.1 0 3.9.3 3.4 1.5-.3.5-.6 3-.7 5.5-.1 2.4-.7 4.6-1.3 4.8q-1 .4.6 3.4c1.7 2.8 1.7 3 .1 4.2-1.3 1-1.5 1.5-.6 2.4 2.2 2.2 4.6 1.4 5.3-1.8.4-1.6 1.9-4 3.3-5.2a27 27 0 0 0 4.5-5.1c1.5-2.4 2-2.6 3.9-1.6l2.2 1.2-2.3.9q-2.4.8-1.8 2.7c.7 2.7-1 5.2-1.9 2.8-1-2.7-2.4-2-2.4 1.3 0 3.7 3.9 6.2 6.5 4 1.3-1.1 1.5-.8 1.5 1.9 0 1.7.3 3.1.6 3.1.4 0 2.2-1.4 4.1-3 3.3-3 6-3.6 9.6-2.1 1.7.6 1.7.8-.2 2.5q-4.4 4 1 7.8c2.8 2.1 3 2.6 2.4 6.8-.3 2.5-.1 5.2.4 6 .9 1.3 1.2 1.2 2.5-.5.9-1.1 1.3-2.6 1.1-3.3-.3-.8.4-2.5 1.5-3.9 2.5-3.2 2.5-5.4 0-10.3-3-5.9-2.5-12 .9-12q4.3.2 1-4.1a26 26 0 0 1-2.9-5.8c-.8-2.8-.6-3.1 3.1-4.5 5.5-2.2 6.9-8.6 1.8-8.6-1.9 0-2-.5-1.7-7.5l.3-7.5h-3.6c-5.8 0-9.7-2.5-10.9-7.1-.9-3.2-1.5-3.9-3.5-3.9-3.1 0-6.5-3.3-6.5-6.3 0-1.2-.7-3.5-1.5-5.1s-1.5-3.4-1.5-4.2c0-.7-.9-1.8-2-2.4-2.9-1.5-2.5-4.8.6-6.1 2.1-.7 3.2-.6 5.1.6q6.5 4.2 6.3 8.5c0 2.3.5 3.1 2.6 3.6 3.8 1 9.4-2.4 9.4-5.6s-2.6-7-4.6-7c-1.8 0-1.7-.2.1-4.7a21 21 0 0 0 1.5-6.5q0-2.9 2.8-5.3c3.8-3.4 5-3.1 5.4 1.2q.2 4 2.1 4.1 1.5.2 1.7-1c0-1.9 10.6-8.2 12.5-7.4 2.2.8 1.9 2.2-1.2 5.1-2.4 2.1-2.6 2.7-1.3 3.5.8.5 2.3 1 3.3 1 2.6 0 1.6 2.2-1.7 3.9q-3 1.3-1.7 2.4c1.3 1.1 2.1.6 4.6-.6 4.3-2.1 4.5-2.1 4.5-.2q-.1 1.4-2.3 1.5-2.4 0-3.5 2.5-1.1 2.3-2.2 2.5c-1.4 0-1.2 4.8.2 5.2 1 .4 1 1.3.1 4.1-.9 2.9-.8 3.7.4 4.1 2.6 1 3.3.7 3.3-1.6 0-1.2 1.5-3.6 3.3-5.3 1.7-1.8 4-4.4 5-5.8 1.9-2.9 5.4-3.6 6.3-1.2q.6 1.5 3.4.8c2.4-.4 2.9-.2 3.2 1.8.2 1.9 1.2 2.6 5.2 3.6 2.6.7 5.1 1.5 5.4 1.8s.7 3.4.9 6.9c.2 6.1.1 6.5-3.2 9.5q-6.4 5.8-.6 4.9c2.4-.3 3.2 0 4.1 2 1 2.3 1.5 2.4 6.1 1.9 6.5-.8 6.9-1.1 6.9-5.8 0-7.4 6.7-10.2 8.4-3.4q.6 2.5 2.6 2.5c1.8 0 1.8-.2.5-4.8q-2.6-8.2 1.6-8.2 2.3.1 1.4-1.9-.4-1.8.4-2.6 1-.6-.1-3c-1.6-3.6-9.9-6-12.4-3.5-.5.5-2.2.6-3.9.2q-2.9-.8-1.7-1.6c.7-.4 1.2-1.7 1.2-2.9-.1-1.6-1.3-2.8-4.9-4.5-6.1-2.8-7.1-2.8-7.1.4 0 2.4-.2 2.5-4.7 2.2-4.7-.3-4.7-.3-6.1-5-1.2-4.5-1.5-4.7-5.5-5.3a18 18 0 0 1-6.7-2.5c-2.1-1.6-2.3-2.1-1.2-4.4 1-2.2.8-2.9-1.6-5.7-4.6-5.5-9.5-7-21.7-6.5-6.2.3-11.2.9-12 1.6-2.1 1.7-4.5-.4-4.5-4 0-2.9-4.5-6.8-10.4-9-3-1.1-9.2-.4-10.2 1.1-.3.6-2 .1-3.8-1.1l-3.3-2-1 2.3c-.8 1.7-.7 2.8.3 4.2q1.5 1.8.3 3.2c-1.6 1.8-3.8 1.6-7.6-.6-2.6-1.6-4.3-1.9-10.6-1.4q-7.4.6-8.1-.6c-.4-.6-1.8-1.1-3-1.1-3.1 0-8.8-2.4-7.9-3.3.3-.4 2.5-.7 4.9-.7q4 0 6.5-1.9c2.2-1.8 2.2-1.9.6-4.5-1-1.4-3-2.8-4.5-3.2l-7.6-2c-6.6-1.9-23.9-1.9-25.5 0m377.2 13.8q-3 4.8-2.5 7 .7 3.3 3.2.3c.7-.8 1.9-1.5 2.7-1.5s2.3-.5 3.5-1.1c1.9-1 1.8-1.2-1.3-3.5-3.8-2.7-4.5-2.9-5.6-1.2m-40.3 8.6c0 2.2 3.5 7.9 6.3 10.3 3.1 2.7 3 4.9-.2 4.9-1 0-3.8.7-6.1 1.5-3.9 1.4-4.8 1.4-8.6-.1-2.5-1-4.6-2.6-5.3-4.1q-1-2.6-2.9-1.8c-.9.3-5 1.2-8.9 1.8s-7.3 1.5-7.3 1.9.9 1.3 2 2.1c1.9 1.3 1.9 1.4-1.3 3.2-3.3 1.7-5.9 1.7-12.8 0a10 10 0 0 0-6.3 1c-3 1.5-3.4 2-2.5 3.6.5 1.1 2 1.9 3.6 1.9s3.9 1.4 6.4 3.9c4.2 4.1 5.4 3.9 6.1-1.1.3-2.7.4-2.8 3.2-1.3 1.5.8 3.7 1.5 4.7 1.5s2.8 1.3 4.1 3c2.7 3.7 3.4 3.7 5.3 0 .8-1.6 2.7-3.3 4-3.6 1.4-.3 2.5-1 2.5-1.5s1.9-.9 4.2-.9 4.9-.7 6-1.7c1.7-1.5 1.9-1.5 3.7.1 1.4 1.3 2.9 1.5 7.3 1 4.8-.6 5.7-.4 8.1 1.7 1.6 1.5 3.6 5.4 5.3 10.4 1.5 4.4 3.3 8.9 4 10 1.8 2.5 1.8 5.9 0 7.4-.8.6-1.9 2.5-2.6 4.1-1 2.5-.9 3.3 1 6 2.6 3.7 4.6 4.8 10.4 5.9 5.6 1 7.7 0 5.3-2.7-1.4-1.5-1.7-3.9-1.7-12.8 0-6-.5-12.7-1.2-14.9a51 51 0 0 1-.8-21.1c1-3.5 1-5 0-7.4l-1.3-3.1-2.5 3.6c-1.4 1.9-3 3.5-3.6 3.5-2 0-5.6-3.1-5.6-4.8-.1-2.6-2.5-5.2-4.9-5.2-2.2 0-2.8 1.4-1.1 2.5 1.7 1 1.1 3.5-.8 3.5q-1.9-.1-3.6-4-1.7-4-4.2-4.6a7 7 0 0 1-3.5-2.5c-1-1.9-3.9-2.7-3.9-1.1m-83.3 61.9c-1.5 1.4-.6 4.1 1.5 4.7 3.3.8 4.5-1 2.3-3.4-1.9-2.1-2.8-2.4-3.8-1.3M360 690.5c-1.6 1.9-.5 6.5 1.6 6.5 1.5 0 1.8-.5 2.8-5.3.5-2.2.3-2.7-1.3-2.7-1 0-2.4.7-3.1 1.5m60.2 9.8c-1 1.1-.7 1.6 1.4 2.6q2.9 1.2 1.5 2.5c-2.1 2.5.5 4.1 11.7 7.1q4.4 1-.3 3.5c-1.4.7-3.2 2.4-4 3.7-2.2 3.3-4.9 2.9-10-1.8l-4.5-4.2v5.1c0 6.1-1.4 10.2-3.5 10.2-1.8 0-1.8.2-.3 3.5q1.1 2.5 3.7 2.5c1.4 0 3.6.3 4.9.6q2.4.9 2.2-1.4c0-2.6 2.9-3.6 5-1.7s4 1.9 4 .1q0-3.5 5.7-1.5 3.6 1.1 4 .2c.4-.9 1.5-.8 2.8-.5q4.7.6.5-4.8c-2.4-3-2.6-7-.5-7 .8 0 2.3-.4 3.3-.9s2.9-1.2 4.5-1.6q2.7-.6 2.7-2.5c0-1.9.7-2 1.9-2s2.6-.7 3.4-1.5c2.1-2.1 8.6-.9 8 1.5-.6 2.3 2.1 3.2 5.2 1.8 2.1-1 2.9-.8 4.9 1.1q5.7 5.4 4.5-4.8c-.3-3.3-.9-6.4-1.3-6.9-1-1.6-6.7-2.5-7.9-1.3-1.5 1.5-6.3 1.4-12.1-.4-2.7-.8-5.8-1.5-6.9-1.5-1.9 0-1.9.1-.4 1.8 2.5 2.7.6 4.7-4.5 4.5-2.3-.1-4.7-.8-5.3-1.6q-2.7-3.7-6.7 0c-2.6 2.4-2.7 2.5-6.2.8q-3.5-1.7-3.6-3.6-.2-1.8-1.2-1.9c-.7 0-2.2-.3-3.4-.6s-2.5.1-3.2.9"/></svg>