<svg xmlns="http://www.w3.org/2000/svg" width="1365.333" height="1365.333" viewBox="0 0 1024 1024"><path d="M332.1 295.4c-1.4 1.7 1.4 10.7 4.8 15.5 2.9 4 2.7 4.8-1.4 6.5-1.9.8-3.5 1.9-3.5 2.3a14 14 0 0 0 3.1 4.2c2.9 3.2 3.3 3.3 8.5 2.8 3.5-.4 6.7-.1 8.7.7 7.9 3.3 7.7 3.3 7.7-2.8 0-3 .5-6.6 1.2-8 .9-2.1.8-3.3-.7-6.7-2-4.3-3.9-5.6-12.3-8.4q-5.2-1.7-7.4-4.6c-2.4-3.2-6.7-3.9-8.7-1.5M352 336a39 39 0 0 1-7.3 3c-3.3 1-3.8 1.5-3.3 3.3.3 1.2.6 3.4.6 4.8 0 2 .8 3 3 3.9 1.7.7 3.7 2.7 4.6 4.5 2.7 5.8 7.8 8.4 17.5 9.2 10.2.7 11.5 1.3 12.3 5.7.8 4.3 2.7 5.8 8.6 7.2q8 1.7 6.2-.9c-.5-.7-1.5-3.8-2.2-7-1.2-5.4-1.2-6 .9-10.5s2.2-5.1.8-8.4c-.9-2-2.5-4.2-3.8-4.8a38 38 0 0 0-17.6-.7c-3.5.6-4.3.4-4.3-.8 0-2.5-8-10.5-10.4-10.5-1.1.1-3.7 1-5.6 2"/><path d="M492 342.3q0 2.4 3.3 4a30 30 0 0 1 12.8 11.5c1.9 3 4.8 7 6.5 9 1.7 2.1 3.4 4.5 3.7 5.5s2 2 3.6 2.3c1.7.4 5.6 3.1 8.8 6 6.7 6.3 9.6 8.4 11.7 8.4 1.4 0 5.7 2.7 14.1 9l7.5 5.4c1.9 1.3 4.9 3.8 6.5 5.6a19 19 0 0 0 5.3 4.1c1.2.5 2.7 2 3.2 3.4s1.4 2.5 2 2.5c1.7 0 1.1 9-.9 12.9l-4.5 9.1c-4.2 8.6-13.3 17-18.5 17-1 0-3-1.4-4.4-3s-3.7-3.1-5-3.2l-6.2-.4c-6.3-.3-9.4-1.4-12.4-4.4-1.9-2-4.2-3-8-3.5-4-.5-5.9-1.4-7.9-3.6-1.4-1.6-3.5-2.9-4.8-2.9s-3.5-1.1-5.1-2.4a36 36 0 0 0-6.1-4c-1.9-1-3.9-3.1-4.7-4.9-.7-1.8-2.3-4-3.5-5-1.7-1.5-2.1-2.5-1.6-4.9.8-4-1.1-10.7-3.2-11.5a8 8 0 0 1-2.8-2.1c-.8-1.1-1.5-1.2-3.2-.3-2.5 1.3-4.6.6-7.8-2.5-1.2-1.3-2.7-2.4-3.3-2.4q-.9-.2-1.3-2.3c-.3-1.9-.9-2.2-4.8-2.2-6.3-.1-5.7.5-11.1-10.8-1.2-2.5-7.6-6.7-10.2-6.7-.5 0-1.8-1.1-2.9-2.5-2.4-3.1-4.8-3.2-4.8-.4 0 3.6 4.2 10.9 6.2 10.9q3.3.2.2 3.1c-1.7 1.4-1.3 6.3 1 10.9 3.1 6 2.8 7.4-1.7 9.7s-11.8 2.2-14.4.1q-1.3-1-4.8.6c-3.4 1.6-3.6 1.6-8-.9a41 41 0 0 1-8.1-6.1c-4.1-4-6-3.9-7.5.5-1.8 5.1-5.2 5.1-8.1.1-2.6-4.6-6.4-4.1-12.2 1.6-3.6 3.6-5.6 4.8-8.4 5-4 .3-12-2.1-13.8-4.3-.6-.7-2.2-1.3-3.6-1.3s-3.7-.9-5.1-2-3.3-2-4.3-2-3.2-1.7-5-3.8l-3.4-3.7-2.5 2.8c-2.2 2.5-3.3 2.9-8.4 3-3.7.1-6.5-.3-7.5-1.2a34 34 0 0 0-14.1-3.3c-1.6 0-3.3-.6-3.7-1.2-1.2-1.8-6.2 1.8-6.6 4.8-.5 4.2-9.9 6-15.6 3.1-1.5-.8-3.4-1.5-4.1-1.5s-1.5-.7-1.9-1.5q-1.3-3.1-5.1.5l-2.2 2-4.6-2.5c-3.8-2-4.7-2.2-4.7-.9 0 .8-1.4 2.7-3.1 4.1-2.6 2.2-3 3.1-2.5 5.8q.8 3.2-.9 4.5c-1.8 1.5-1.9 3.3-.3 7.6 1 2.7.8 3.5-1.1 6.3-1.7 2.4-3 3.1-5.5 3.1-3.4 0-6.6 2.3-4.7 3.4 1.3.9 3.3 10.9 2.5 12.9-1.4 3.8-18.4 1.2-18.4-2.8 0-.7-1.6-1.9-3.5-2.6-3-1.1-3.5-1.8-4.1-5.6-.3-2.4-1.5-5.4-2.6-6.8-1.7-2.2-2.7-2.5-8.3-2.5-6.6 0-13.6-2.7-16.3-6.3-1.8-2.4-6.9-4.9-7.7-3.7q-.6.8-2 .3c-2.3-.8-1.9 3.1.5 5.2 2.4 2.2 5 7.1 5 9.6 0 1-1.3 2.7-3 3.9q-3 2.1-3 4.6c0 3.1-1.8 3.8-6.6 2.5q-3.8-1-5 0c-.7.6-2.7.7-4.6.4-2.7-.5-4.1-.1-7.6 2.5-3.6 2.6-4.9 3-7.5 2.4-4-.9-11.9-.9-17.9 0q-4.9.6-5.3 2.7c-1 3.1-4 4.2-7.3 2.5-1.6-.8-3.4-2.2-4.1-3-1-1.2-3.1-1.6-7.7-1.6-4.4 0-6.7-.5-7.8-1.6-1.5-1.4-1.7-1.4-3.2 0-2 2-4.8 2-6.4.1-.7-.9-2.9-1.5-5.5-1.5-3.5 0-4.4.4-5.3 2.5-.7 1.4-1.2 4-1.2 5.6v3l-4.8-.7c-2.6-.4-5.2-1.4-5.8-2.2q-1.1-1.5-2.5-.6c-.8.5-3.7.9-6.6.9-6.9 0-8.3 1.5-5.8 5.8 1 1.7 2.7 3.8 3.7 4.5 2.5 1.8 2.3 2.6-1.9 8.8q-3.7 5.2-5.8 5.4-5.4.3-3.5 3.7c1 1.6.9 2.5-.4 5.1-1.6 3.2-4.8 4.3-6.1 2.1q-.7-1-2.3.4c-1.6 1.4-2.4 1.2-3.7.7-1.1-.5-5.1-.9-8.8-.9-7.3-.1-9.2-1.5-6.9-5.2 1.6-2.5 1.5-2.9-.7-2.9-1.1 0-2.3-.5-2.7-1.2-1-1.6-3.4 2-3.4 5.3q.1 2.8 3.2 6.1l5.5 5.9q5.4 5.8 7.6 5.9c.7 0 2 1.6 2.7 3.5q1.4 3.5 3.9 4.1l4.1 1c.9.2 4 2.7 6.9 5.4 4.2 3.9 6 5 8.7 5 1.8 0 3.6.5 3.9 1.1.4.6 1.9.7 3.5.4 2.1-.5 3.3-.1 4.9 1.7 1.2 1.2 1.9 2.9 1.6 3.6s.7 2.8 2.1 4.5 3 4.1 3.5 5.4 1.5 2.3 2.2 2.3 3.2 1.2 5.3 2.6a13 13 0 0 0 7.9 2.6 88 88 0 0 0 17.9-1.3c.3-.3.9-2.8 1.2-5.5 1-7.1 1.6-7.5 9.8-7.1 4 .2 7.8.7 8.5 1.1 2.3 1.4 7.9-.4 10-3.2 4.1-5.4 3.9-5.3 7.4-3.5 3.7 1.9 4.9 3.3 7.8 9 2.9 6 6.6 6 13.4-.2 2.7-2.5 5.9-4.5 7.1-4.5s3.2-.8 4.5-1.9c2.7-2 10.6-3.4 11.5-2 .8 1.4 3.4 1.1 3.4-.4 0-1.9 4.4-3.7 9.2-3.7 3.5 0 4.7-.6 8.6-4.5 2.5-2.6 5.4-4.5 6.6-4.5 2.5 0 10.7-6.3 17.8-13.6 4.5-4.6 4.9-4.8 7-3.5a19 19 0 0 0 7.5 1.6c2.8 0 5.5.4 5.9.8s2 .7 3.6.7 4.5.7 6.5 1.5c1.9.8 4.3 1.5 5.3 1.5s2 .7 2.4 1.5q.6 1.4 1.6 1.5a27 27 0 0 1 8.8 6c.7.9 1.1 2.9.8 5l-.8 5.5c-.3 1.8.3 2 5.7 2.2 15.8.5 20.2 1 24.7 3 5.8 2.6 13 7.5 16.3 11.1 2.5 2.7 3.4 6.2 1.4 6.2-.5 0-1.5 1.4-2.1 3a8 8 0 0 1-2.9 4.1c-1 .5-1.9 1.9-1.9 2.9 0 2.1 1.5 2.7 2.5 1 .8-1.3 6.8-.7 7.3.8q.4 1.2-3.8 1.2c-3.2 0-4.3.4-4.7 1.9-.5 1.8-5 2.5-29.8 4.4-3 .2-3 .3-2.7 5.2.6 8.5 1.5 8.8 17.3 7.5l21.1-1.7 7.7-.6 1.2 2.9c.6 1.6 2.7 6 4.5 9.9 1.8 3.8 3.6 8.2 3.9 9.7.4 1.4 1.6 3.5 2.7 4.5 1.9 1.7 2 1.7 3.9-.6a10 10 0 0 0 1.9-5.2c0-2.3.7-3.2 2.8-4.1 5.2-2.3 6.1-3.9 5.5-10.7l-.6-6.1 3.7-1.5a44 44 0 0 1 19-2.1c2.8.7 6.6 5.8 6.6 8.8 0 1-.9 2.6-2 3.6-1.7 1.6-2 2.8-1.6 7.6.3 5.2 0 6.6-3.5 13.2-2.2 4.1-3.9 8-3.9 8.7 0 3 4.6 11.7 6.2 11.7.9 0 1.9.4 2.2.9.9 1.4 8.9 0 10.4-1.8q1.3-1.6.7-8.1c-.6-9.1-.6-9.1.1-13.3.3-2 1-4 1.5-4.3s.9-2.5.9-5c0-3.9.3-4.4 2.2-4.4 1.2 0 3.1-.8 4.2-1.8q1.9-1.5-.6 1.6-5.4 6.4-2.3 13.4c.8 2.1 2 3.8 2.5 3.8s1.5 1.1 2 2.5q1 2.6 3.5 2.5c1.4 0 3 .9 3.7 2 1.6 2.5 2.8 2.5 7.6 0 6.3-3.3 7.5-5.2 7-11-.4-4.2-.2-5 1.4-5.5 1-.4 2.5 0 3.4.9 2 2 3 2 3.8 0 1.1-2.8.7-3.4-2.3-3.4-1.7 0-3.2-.4-3.5-.9-.9-1.4 5.3-6.1 8-6.1s3.2-1.7.8-3.4c-1.4-1.1-1.3-1.6.8-4.9q3.7-5.8 5.2-2.2.6 1.3 1.9 1.5c.8 0 1.7 1.4 2.1 3.2l.7 3.3 5.2-5.9c4.9-5.5 5.5-5.8 8.7-5.3 8.7 1.5 10.5 2.1 12.6 4.7 3.1 3.7 17.4 6.9 17.4 3.9q.2-1 2-.6c4 1 6.6-7.3 3.9-12.4-.9-1.7-.7-2.1.8-2.5 1-.3 2.3-1.5 2.8-2.7q.8-2.1 6.5-3.4l16-3.8q20.8-5.2 21-2.2c0 2.7 4 3.1 7.1.8 1.7-1.3 4.3-2.1 6.8-2.1 3.7 0 4.2.3 6.8 5l2.8 5h8.8c7.6 0 9.3.3 12.7 2.5 4.2 2.7 5.4 4.3 6.4 9 .6 2.9.1 3.4-11 11.9-12.9 9.9-13 10-7.8 17.9 2.2 3.4 2.4 4.3 1.4 6.6q-2.6 7 5.5 9.2c3.3.8 4.5 1.6 4.5 3q0 1.6-1 2.4c-1 .8-.6 1.5 0 3.1 1.7 4.3 1.2 8.6-1.4 11.3-2.6 2.9-5.9 10.8-5.1 12.1.3.5 1.9.1 3.7-.7q3.2-1.7 11.7-1.7l8.6-.1.3 2.7q.3 2.8 2 2.8c.9 0 3.7 1.1 6.1 2.5 3.1 1.8 5.8 2.5 9.6 2.5 4.8 0 5.4.2 5.7 2.2q.2 2.2 3.6 3.2c2 .5 3.9 2 4.7 3.6s3.2 3.4 5.9 4.5c2.5 1.1 4.6 2.3 4.6 2.7 0 1.3 4.4.8 6.4-.7 2.5-1.9 4.6-1.9 4.6 0q.1 1.3 1.4 1.5c1.3.2 1.6 1.6 2 4.2.4 2.4 1.1 5.8 1.7 7.6 1 3.2 1.3 3.3 5.7 3 3.8-.2 4.9-.8 5.7-2.6 1.2-2.7 4.9-3.9 7-2.2.8.7 1.5 2.6 1.5 4.2 0 3.1 2.4 4.8 4.3 2.9s4.7-1.2 8.8 2q4 3.2 5.7 2.3c.9-.4 2.5-.6 3.5-.5 1.9.3 2.4-3.8.7-5.5-1.2-1.2 1-6.2 3.9-8.8 2.8-2.6 6.5-1.7 6.9 1.6.5 4.6 2.5 5.3 7.1 2.2 2.2-1.4 5.2-2.6 6.6-2.7 1.4 0 2.5-.5 2.5-1.2s1.5-1.5 3.3-1.8c2.5-.4 3.7 0 5.3 1.8a14 14 0 0 0 4.3 3q2.4.6 1.7 2.9c-.6 2.4 1 3.7 6.2 5.1 1.3.4 3 2.2 4 4.3q1.7 3.6 3.9 4c1.2.2 2.5 1.2 2.8 2.2.5 1.6 1 1.7 3.1.8 2.1-1 2.7-.8 4.5 1 1.8 2.1 2.2 2.1 4.2.7 3.1-2.2 8.8-2 9.4.4.3 1 1.9 2.3 3.6 2.8 2.6.7 3.1 1.3 2.9 3.4q-.4 2.5 2.8 4.7c2.9 2.2 3.1 2.7 2.8 8s-.1 5.7 2 6q2 .2 2.8-1.2c.3-.8 2.1-2 4-2.6s3.4-1.6 3.4-2.1 1.6-.9 3.6-.9c1.9 0 4.4-.5 5.5-1 2.7-1.5 2.4-4.9-.6-6-1.4-.5-3-2.1-3.5-3.4-.5-1.4-1.9-3-3-3.6-2.8-1.5-2.4-6.4.6-6.8 1.2-.2 2.8-1.7 3.7-3.8 2.1-4.4 2.2-4.1-1-4.7q-2.8-.5-6.6 1.6c-2.9 1.6-4 1.8-4.9.9s-.5-1.9 1.6-4.1q4.4-4.6 0-8.1c-1.1-1-1.2-1.6-.3-2.7 1.7-2-.3-3.8-2.7-2.5-2.2 1.1-9.1.4-10-.9-.3-.5-2.2-.9-4.2-.9-3.3 0-3.9-.5-5.4-3.9-2.3-4.9-2.3-9.4 0-11.4s5.2-2.1 11.2-.4a67 67 0 0 0 24.5-.1q4-1.1 7.3-4.9c3.2-3.7 3.5-3.8 10.2-3.9 6.5 0 6.9-.2 10.3-3.7 1.9-2 3.9-3.7 4.4-3.7s1.4-1.2 1.9-2.8l1-2.7 3.7 3.8c3.3 3.5 5.2 7.7 2.7 6.2-2-1.2-5 .6-5 3 0 1.3.5 2.7 1 3s1 2.1 1 3.9q0 3.3 2.9 6 5 4.8 5.1-1.1c0-3.7 2.7-5.2 9.2-5.3 5 0 6-.3 7.4-2.5 2-3 8.4-3.7 8.4-.9q-.1 1.8 2.3 1c1.2-.3 2.8-.6 3.4-.6s1.9-1.5 2.7-3.4c1.8-4.4 3-5 6.1-3 2 1.3 2.8 1.4 4 .4q1.6-1.3 2.8-.2c1.2 1 1.7 1.2 3.8 1.2q1.3 0 0 1.3c-1.6 2-.6 2.5 4.9 1.9 4.1-.4 5.1-.1 5.7 1.3q.7 1.8-2.6 4.7c-3 2.7-3.1 3-1.7 5.6.8 1.5 1.7 3.6 2.1 4.7.6 1.9.7 1.9 1.9.2.7-.9 2-1.7 2.9-1.7s2.2-1 2.8-2.2c1.1-2.1 1.2-2.1 2.5-.3a7 7 0 0 1 1.4 3.7c0 2.3 2.9 3.6 4 1.8.7-1.1 1.2-1.1 2.3-.1.9.6 2.6.9 4 .6 3.3-.9 5.7 1.7 5.7 6.1q0 3.4 1.5 4 1.4.7 1.5 1.9 0 3.1 5 2 3-.6 3-2.5 0-1.7 3-2.9c1.7-.5 3-1.5 3-2.1 0-1.9-3.2-6-4.6-6-2.3 0-4-4.8-2.6-7.1a7 7 0 0 0 1.2-3.3c0-1.6 3.7-4.6 5.7-4.6q1.2.2 1.3 2c0 2.7 3.4 2.6 8.4-.1 3.5-1.8 4-1.9 4.8-.5.5.8 1.6 2.3 2.6 3.2s1.7 2.5 1.7 3.3q0 1.6 3 1.9c1.7.1 3.9.7 5 1.2 2.7 1.3 10.9-1.1 11.3-3.4q.6-1.7-2.6-1.6c-1.6 0-3.5-.7-4.2-1.5s-1.9-1.5-2.6-1.5c-1.9 0-1.8-2 .2-4.8 1.5-2.2 1.5-2.4-.5-2.9a4 4 0 0 1-2.6-2.4c-.4-1-1.2-2-1.8-2.1-5.1-.6-7.7-.8-11-.8-3.7.1-3.8 0-3.5-3.1.3-2.7-.1-3.2-1.9-3.4-2.8-.2-2.9-.3-3.6-4.2-.5-2.7-.2-3.6 2.4-5.7 1.7-1.4 3.8-2.6 4.8-2.6a41 41 0 0 0 8.6-3.3c6.3-3 7.5-3.2 12-2.5 2.8.4 6.2 1.5 7.7 2.3 3.7 2.1 16.1 2 17.9-.1 1.2-1.4 1-1.9-1.5-3.9a19 19 0 0 1-4-4.6c-1-2.1-2-2.5-8.6-3-19.3-1.4-26.4.5-36.2 10.2q-6.3 6.1-12.2 4.1c-1.8-.7-4.4-1.2-5.8-1.2-1.5 0-3.5-1.2-5.1-3-3.2-3.5-4.7-3.7-7.2-1-1.9 2.1-10.6 5-15.2 5a18 18 0 0 0-6.6 2c-4.4 2.4-4.7 2.4-4.7.5 0-.8 1.2-2.2 2.8-3.2s4.7-3.3 7.2-5.3c6.9-5.5 9.7-7 13-7s4.2-1.3 4.4-6.2c.1-2.7.3-2.9 3.1-2.3q6.5 1.5 7.3-.5c.2-.6 1.5-1.5 2.8-2 1.8-.7 2.4-1.7 2.4-4.1 0-7.6-5.7-13.9-12.5-13.9-1.8 0-3.8-.7-4.6-1.6-1.1-1.4-.9-1.5 2.1-1.2 4.5.4 5-1.8.8-3.5l-3.3-1.3 2.3-1.9c1.2-1.1 2.2-2.5 2.2-3.2 0-1.6-3.6-1.7-4.6-.2-1 1.6-6.9.4-10.4-2.1-2.6-1.9-3-2.8-3-6.9 0-5.6 1.2-7.1 5.7-7.1 1.8 0 3.3-.4 3.3-.9 0-1.8-5.8-5.1-8.8-5.1-3.8 0-10.1 2.6-12.1 5.1-.9 1.1-3.3 2.2-5.3 2.6-4.1.6-9.8-1.2-9.8-3.1 0-1.6-5.9-8.6-7.2-8.6-1.7 0-9.8-7-10.9-9.4-.5-1.1-1.3-2.9-1.9-3.9l-1.8-3.3c-1.2-2.6-16.9-8.5-24.4-9.1-4.1-.3-6.9-1.1-7.2-1.9-.6-1.6 3.1-6.4 5-6.4.8 0 3.4-1 5.6-2.1 3.1-1.6 5.9-2.1 10.5-2 6.8.1 7.6-.7 4.5-4.5s-11.4-3.6-19 .4l-3.3 1.7-3.5-4.3c-3.2-3.7-4-4.2-7.8-4.2q-4.3 0-6-1.9c-3.5-3.9-19.1-6.1-23.3-3.3q-2.1 1.4-2.3 2.8c0 2.1-3.8 3.8-5.6 2.3q-2.6-2-.2-5.9c2.2-3.4-.7-4.1-11.4-2.6-5.5.8-5.8.7-5.8-1.3q0-2.1 1.8-2.1c1 0 2.9-1.1 4.1-2.4l2.3-2.4-4.4-.7c-2.4-.4-4.7-1-5.3-1.4s-3.1-.7-5.7-.7c-3.7.1-4.8-.3-5.2-1.7-.3-1.3-1.5-1.7-5.4-1.7-2.8 0-5.4-.5-5.8-1.1q-.7-1-3.8 1.9a22 22 0 0 1-7.9 4.2c-4.5 1.2-4.9 1.2-7.2-1q-4.3-4.1-.9-7.1c2.1-1.8 1.4-13.7-.9-15-.9-.5-1.5-2.4-1.5-4.9-.1-4.4-1.6-6.5-7.5-9.8-4.2-2.4-7.3-2.9-6.1-1q.8 1-.9.5c-.9-.3-2.7.3-4 1.4-1.4 1-3.7 1.9-5.3 1.9-2.6 0-2.6.1 1.4 3 2.3 1.6 4.4 3 4.8 3 .8 0 6.7 6 6.3 6.4-3.7 3.2-8.3 3.2-11.7.1-2.1-1.9-2.4-2.7-1.4-3.7q1.1-1.2 1.2-2.9c0-1.3-.8-1.5-4.9-1.1q-8.5.7-9.3-4-.2-2.2-3.5-3.2c-1.8-.5-3.3-1.5-3.3-2.1 0-1.4-2.2-2.5-5-2.5q-1.7-.2-2.3-2-.4-2.1-3.6-2-3 0-3.8-1.5c-.9-2.4-7.2-4.7-13.8-5-3.3-.2-9.6-.8-14-1.3-14-1.8-22.8-2.2-24.2-1.1-2.2 1.9-5.7.2-7.7-3.8L618 415c-1-2.2-8.1-6-11.2-6-1.5 0-3-.5-3.3-1a24 24 0 0 0-9.8-5.9c-5.9 1-14.3-4.5-14.9-9.9a5 5 0 0 0-2.7-3.9 9 9 0 0 1-3.3-2.7q-1-1.5-2.2-1.6-1.7-.3-3.6-2.5c-1.7-1.8-3.4-2.5-6.2-2.5-2.1 0-3.8-.4-3.8-1 0-2-5.2-6-7.8-6a5 5 0 0 1-4-2c-.7-1.1-2-2-3-2-2.6 0-14-3.9-19.9-6.8a19 19 0 0 1-8.4-7.5 21 21 0 0 0-12.6-9.6c-1.8-.5-4-1.6-4.9-2.5-2.3-2.3-4.4-2-4.4.7"/><path d="M509.4 567.1c-.4.7-2 .9-3.9.6-4.7-.8-6.5 1.5-6.5 8.5 0 5.3.2 5.7 2.9 6.6 1.6.6 3.2.8 3.4.5.3-.2 1.5.1 2.7.7 2 1.1 2.2 1.8 1.7 6.6-.3 3-.1 5.6.4 5.9s.9 1.6.9 2.8.7 3.1 1.5 4.1c.8 1.1 1.5 3.7 1.5 5.8s.4 3.8.9 3.8c1.9 0 4.1 3.2 4.1 5.8q0 2.7 3.5 5.5c1.9 1.5 3.8 4.2 4.3 5.9 1.2 4.6 2.7 4.5 5.7-.6 1.5-2.5 3.3-4.6 4.1-4.6s1.4-.4 1.4-.9 1.6-1.9 3.5-3.2c3.6-2.5 4.3-4.7 2.6-9.2-.5-1.3-1.8-2.7-2.9-2.9q-2-.5-3.7-6.3c-1-3.1-2.5-6-3.4-6.3s-2-1.1-2.4-1.9c-1.4-2.3-5.4-1.6-6.1 1.2q-.6 2.5-2.6 2.5c-2.5 0-3.5-1.7-2.2-4.3.5-1.2 1.4-5.5 1.9-9.5.9-7.3.9-7.4-1.8-9.3-1.6-1.1-3.1-2.8-3.4-3.9-.4-1.1-1.5-2-2.5-2s-2-.7-2.4-1.5c-.6-1.8-2.2-2-3.2-.4m-39.8 31.6c-.4.5-2.4.8-4.4.8-2.9 0-3.7.4-4 2-.6 2.5-4.7 6.8-9.2 9.2-2.7 1.5-3.6 2.8-4.1 5.4-.7 4.7-1.4 5.6-5 6.4-1.7.4-3.3 1.4-3.7 2.3-.3 1-1.9 3.4-3.6 5.4-2.1 2.8-3.7 3.8-5.7 3.8-1.5 0-3.1.4-3.4 1q-.6.9-2.5 1c-1 0-3.4 1.6-5.4 3.6-3.5 3.5-3.7 3.6-5.1 1.8q-1.3-1.7-1.5-.7-.2 1.2-1.9 1.3-3 .1-3.1 5c0 .9-.7 2.3-1.5 3-2.2 1.8-.9 2.9 2.9 2.3 4-.6 8.6 2 8.6 4.9s-1.9 5.9-3.8 5.7c-3-.3-3.7 0-7.2 3.3-2.9 2.6-3.6 2.8-3.8 1.5q-.4-1.5-1.5-1.7c-1.9.1-4.7 2.6-4.7 4.2 0 .9-.7 2.1-1.5 2.8-3.8 3.2 0 6.2 7.3 6 7.6-.3 8.2-.1 8.2 1.9 0 2.1 3.5 5.1 5.8 5.1q1.8.2.1-1.6c-1.2-1.4-.9-2 1.6-4 1.7-1.3 3.4-2.4 3.8-2.4 1.5 0 2 3.2.8 5.4q-3 5.3-15.2 4.1c-5.9-.6-6.9-.5-6.9.9q.2 1.5 1.7 1.6c2.2 0 .5 1.7-2.1 2.2-1.6.2-2 1.3-2.2 6l-.3 5.8h3.2q3.3 0 6.4 2.9c2.6 2.4 4 2.8 8 2.7q4.8-.1 6.5-1.9c1-.9 2.6-1.7 3.6-1.7 3.4 0 8.2-7.3 8.2-12.5 0-1.3.6-3 1.3-3.7.6-.7 1.3-2.4 1.4-3.8a88 88 0 0 1 3-19.2c.6-.7 1.5-2.8 2.1-4.6 1-2.8.8-4-.8-7.4s-1.7-4.2-.5-5.4c.7-.8 2.7-1.4 4.3-1.4a5 5 0 0 0 4.6-2.5c.9-1.4 2.3-2.5 3-2.5s1.9-.7 2.6-1.6c.8-.8 2.5-1.4 3.9-1.2 2.3.3 2.6.8 2.9 4.4.3 4 .5 4.2 3.8 4.6 1.9.2 3.4-.1 3.5-.7l-.1-6.3c-.1-4.8 0-5.2 2.2-5.2q2.3 0 3.3 2.2a10 10 0 0 0 4 3.7c3.9 1.8 4.5 2.8 4.5 7.4 0 2.2.5 3.9 1.3 4.1l4.7 1.5c6.8 2.5 6.7 2.5 7.2-.9.3-1.7.1-3.3-.4-3.6s-.6-1.3-.4-2.2q.6-1.7-2.4-3.7c-2.8-1.9-3-2.3-2.4-6.5.6-4.4.5-4.6-3-6.4q-5.8-3.2-2-6.7c1.2-1 1.4-2.3.9-5.4-.4-3-.2-4.5.9-5.4 3-2.5-1.5-9-6.4-9.1-2 0-2.9-.9-4.2-4-1.6-3.8-4.2-5.2-6.2-3.3"/></svg>