<svg xmlns="http://www.w3.org/2000/svg" width="1365.333" height="1365.333" viewBox="0 0 1024 1024"><path d="M465.5 2.8a51 51 0 0 1-12.2 6c-7.4 2.7-9.7 4-11.8 6.8-2.3 3-2.6 4.2-2.1 7.4.6 3.6.3 4.1-2.9 6.6q-3.5 2.7-3.5 5c0 2.2-.4 2.4-5.2 2.4-4.4 0-6.2.7-12.4 4.5-7.8 4.9-8.5 5.1-13.3 3.4-3.5-1.2-3.8-2.4-1.5-5 1.8-2 1.1-3.9-1.3-3.9-2.9 0-9.3 4.4-11.3 7.7-1.2 2.1-2 5.2-2 8.2 0 6.9-1 7.4-8.9 4.5a28 28 0 0 1-10.3-6.4c-4.7-5-7.5-5.7-11.9-3.1a13 13 0 0 1-5 2.1c-1.8 0-5.9-4-5.9-5.8q0-1.1-.9-1.2-3.4-.1-6.3 5.1c-1.2 2.1-3 4.1-4 4.5q-2 .4-1.6 3.7c.3 3 .1 3.2-3 3.5-2.6.3-3.8 1.1-5.3 3.7q-3.7 6.6-6.5 2c-.8-1.3-4.4-4.2-8-6.5s-6.4-4.6-6.4-5.1-1-.9-2.2-.9a33 33 0 0 1-8.8-3.1c-3.5-1.7-6.6-2.7-6.7-2.2q-2.5 7-7.3 8.7c-3 .9-3.5 1.6-3.8 4.6q-.6 6-6.4 8.4l-2.7 1.2 3.7 5.5c2 3.1 10.2 12.4 18.1 20.7l14.5 15.2-.3 5.7-.3 5.6 3.4-2.1c2.9-1.9 3.4-2.7 3.8-7.6.3-3 .8-5.8 1.2-6.2 1.1-1.1 4.5 2.3 5.2 5.2.6 2.1 1.1 2.4 2.9 1.8 4.2-1.3 5.2-1 5 1.6l-.7 7.2c-.3 4.2-.9 5.3-4.6 8.6-3.2 2.8-4.2 4.3-3.7 5.6q.7 1.8 2.7 1.1c4-1.3 1.8 2.9-2.3 4.4-2.3.9-2.7 1.5-2.1 3.4a137 137 0 0 0 16.3 23c5.1 5.5 15.4 10 20.7 9.2 3.7-.5 4.4-.2 8.5 3.3 2.4 2.2 5.8 4.6 7.6 5.6 5.8 3 10.2 1.4 6.7-2.5-1.9-2.1-1.9-2.1 1.4-3.8 1.8-1 2.1-1.5 1.2-2.6s-.4-1.3 3.7-.8c4.7.5 5.1.4 7.9-2.9 1.6-1.9 4.1-4.3 5.7-5.3 2.4-1.6 3-1.6 4.5-.3.9.8 3.6 2 5.8 2.6 3.3 1 4.5 2 6 5 2 4.3 10.3 14.2 11.8 14.2.6 0 1.7.4 2.4.8 2.5 1.6-.2 5.3-5.9 8-3.3 1.7-5.5 3.5-5.8 4.6-.5 2.8 3.7 5.6 7.1 4.9 1.6-.3 3.5 0 4.3.7 1.3 1.1 2 .9 4-1l2.3-2.2 1.6 3c2 3.9 2 3.9-.4 4.5-1 .3-2.7 2.1-3.6 4-1.4 3-1.5 3.9-.4 5.2 1.8 2.1 3.3 1.9 6-1 3-3.2 8-3.5 8-.5 0 1.6.7 2 3.4 2q5.6 0 7.2 7.9c.5 2.3.2 3.2-1.6 4.3-2.5 1.5-5.4 6.8-6.5 11.8-.9 4.4-2.2 6-4.8 6-1.2 0-3.5 1.4-5.3 3.1-2.7 2.6-3.7 3-6.4 2.4q-3-.7-4-3c-.8-2.2-1.2-2.3-4.2-1.4a93 93 0 0 1-22.5 3l-5.3-.1 2 3.2c1.1 1.8 2 4 2 4.9q0 3.5-10.9 10.2a23 23 0 0 0-6.1 4.7c0 1.7 12.8 8 16.3 8 2.9 0 4.2.7 7 4q3.4 4 5 3.4c.9-.3 2.8.3 4.3 1.5s3.3 2.1 4.1 2.1 3.2 2 5.4 4.4c3.2 3.5 5.9 5.1 13.7 8.1a46 46 0 0 1 11.1 5.6c1 1.4 2.6 1.9 6.3 1.9 4.3 0 5.5.5 9.8 4.2l4.8 4.1-.5 5.3c-.5 4.8-.2 5.9 4.2 14.3 4.2 7.9 5.3 9.2 8.4 10.2 7.4 2.4 10.9 4.8 11.6 7.7a10 10 0 0 0 3.5 5.1q3 2.1 3 4.9c0 1.6 1.6 5.4 3.5 8.6a73 73 0 0 0 16.6 19.1q2 .6 1.9 3.4c0 3.6 2.8 6.5 10 10.1 3.3 1.7 6.9 4.3 8 5.8q2.1 3 4.3 2.5c1.9-.3 2.7.8 5.7 6.9 1.9 3.9 5.4 9.2 7.8 11.6 4.7 4.9 4.6 4.4 3.2 12.6-.9 5.7-.8 6 1.9 9.1 1.6 1.8 3.1 4.9 3.5 6.8.5 2.6 1.8 4.5 4.7 6.8 4.6 3.6 5 3.4 7.1-3.4 1.2-3.9 3.1-4.5 3.6-1.1.2 1 2 4.4 4 7.4 3.6 5.3 3.9 5.5 8.7 5.8 7.1.4 9.5 1.8 9.5 5.7q0 3.1 2.3 5.3c2.6 2.5 4.5 2.7 8.1 1.1 3.8-1.8 7.6 1 7.6 5.6q.2 5.3-7.5 9.2c-1.6.9-3.3 2.1-3.7 2.7s-.8.7-.8.2c0-.6-1.3.3-3 1.9-3.7 3.5-3.9 7.1-.5 8.7 1.3.6 2.8 2.4 3.4 3.9.5 1.6 1.5 2.9 2 2.9s1.7 1.6 2.5 3.5q1.5 3.6 3.5 3.5 2 .1 2.1 1.1 0 1.2 3.4.6c3-.5 3.5-.3 3.8 1.6q.4 2 2.8 2.7c3.1.7 3.7 3.3 1.5 6.7-1.6 2.4-1.6 2.8.6 7.4l2.3 4.9-3.2 3.3a17 17 0 0 0-3.8 6 6 6 0 0 1-3.1 4l-2.4 1 3.3 3.4q3.3 3.4 1.6 3.3c-2.9 0-3.1 4.7-.3 8.8 1.9 2.7 2.5 5 2.5 8.9 0 2.8.5 6.4 1 7.9.9 2.2.7 3.1-.8 4.8-5.6 6.5-10.6 16.5-10 20.1a4 4 0 0 1-1 3.5c-1.3 1.2-1.2 1.5.4 2.7 1.1.8 3 1.7 4.4 2 3.3.8 4.1 2.2 3.4 5.6-.4 2.1.8 5.5 5.1 14.1a82 82 0 0 1 6.2 15.3c.4 2.8-.5 7.1-3.1 15.4l-3.7 11.6.9 15.7c.9 15.1 1 15.9 3.8 19.9l2.9 4.1-4.9 9.3-4.9 9.3-3.2-2c-1.9-1.2-5-2-7.6-2-3.8 0-4.8.5-8.9 4.8-9.4 9.5-9.3 9.5-13.7 8.3-5.6-1.5-9.2 0-14.3 6-3.7 4.4-4.6 4.9-8.1 4.9-2.2 0-5.6-.7-7.6-1.5-4.9-2.1-6.3-.1-2.6 3.7l2.6 2.7-2.7 3.5c-2.6 3.4-2.6 3.7-1.1 6.6.8 1.6 2 3 2.5 3q1 .1 1 1.6c0 1.2-1.1 1.5-5.7 1.3a25 25 0 0 0-7.6.5c-1.4.7-1.8.2-2.3-2.3-.7-3.4-2.9-4-9-2.2-2.9.8-3.3.6-4.4-1.7-1.2-2.6-1.2-2.6-2.7-.7-.8 1.1-1.7 3.2-2 4.7-.5 2.6-.7 2.7-5.1 2.1-3.7-.5-4.7-.3-5.8 1.2-1.8 2.5-1.8 7.2.1 12.5.8 2.3 1.5 5.7 1.5 7.4.1 1.7.6 4.1 1.3 5.3 1.8 3.3 11.3 10 16.7 11.8 3.7 1.2 5 2.2 5.4 4.1.4 1.5.2 3.2-.5 4-1.2 1.5-1 2.9 1.6 8.8l1.6 3.9-4.7-.6c-3.7-.4-5.4-1.2-7-3.2-3.1-4-6-2.9-7.8 2.7q-.6 1.7-3 1.8c-2.1 0-2.6-.6-3.2-3.5-.3-2-1.5-4-2.5-4.6-1.4-.7-1.9-2.1-1.9-5 0-4.6-2.1-6.1-4.9-3.5-1 .9-4.9 2.7-8.7 4s-8.6 3.4-10.7 4.6c-3.7 2.2-4 2.2-7.3.6-2-.9-6.5-2.1-10.2-2.6-6.3-.9-6.8-.8-8.3 1.2-2.1 2.7-1.5 4.5 2.5 8l3.1 2.7-8 8.1c-7.6 7.6-8.2 8-12.5 8-6.1 0-16.2 2.2-19.1 4.2-1.5.9-3.1 3.6-4.2 6.9l-1.7 5.4 4.6 4.6c4.3 4.4 4.9 4.6 7.5 3.7 4.4-1.5 9.8-.2 11.1 2.8.8 1.8 2.2 2.6 5.2 3.1 3.7.6 9.6 5.2 9.6 7.5 0 .5-3 3.6-6.6 7.1l-6.6 6.2-.5 9c-.3 5-1.2 10.2-2 11.8-.7 1.5-1.3 4.4-1.2 6.5s-.6 6.4-1.5 9.7c-2 7.3-2.1 15.3-.2 17.4 1.1 1.4 1.1 2.6 0 8-.7 3.6-1.1 6.7-.8 7 .4.5 2 0 7.7-2.4q1.8-1 1.7 1.8c0 1.4.5 2.9 1 3.2s1 1.7 1 3q0 4.2-6.4 2.2c-2.4-.8-3.1-.7-4.6 1.2-1.3 1.8-2.4 2.2-5.1 1.9-2.5-.2-3.4.1-3.7 1.4-.2 1.2.7 2 3.7 2.7l8.1 2.1c2.9.8 6.4.8 12.3-.1 9-1.3 11.2-2.8 12.2-8.2.5-2.7 1.4-3.6 5.2-5.1 5.1-2.1 10.3-8.4 10.3-12.5 0-1.4.5-4.2 1-6.1 2.2-7.8 28.7-20.9 42.3-21 2.7 0 4.5-.7 6.2-2.5 2.3-2.2 2.5-3.2 2.5-11.4v-8.9l3.4 3.4c3.6 3.6 5.1 3.9 15.6 3.5 4.2-.2 6.1-.8 7.8-2.5l2.4-2.3-2.6-4.9c-3-5.8-5.4-8.7-8.4-10.3a4 4 0 0 1-2.2-3.5c0-3.5 2.8-2.4 6.4 2.4 3.5 4.6 8.3 7.1 9.7 4.9 2.3-3.7 0-8.2-6-11.6-7.2-4-6.7-5.3 1.9-5.3 3.9 0 7-.4 7-.9s1.6-.7 3.5-.4l3.5.6v-4.2c0-3.8-.3-4.2-2.9-4.7-1.5-.3-4.1-1.7-5.7-3l-2.9-2.3 3.8-.1c3.7 0 7.7-2.7 7.7-5.2 0-.7-1.2-2.4-2.7-4-3-3.1-2.6-4.6.7-2.8 1.2.6 2.9.9 3.7.6 1.4-.6 1.4-.9-.2-2.5-2.7-3.1-1.6-4.9 2.2-3.9 3 .8 3.2 1 2.1 3.4-1 2.1-.8 2.8 1 4.6 1.2 1.2 2.3 2 2.4 1.7l2-3.4c2-3.7 3.5-4 8.2-2.1 3 1.3 3.6 2 3.6 4.6 0 3.7.1 3.7 13.1-2.1a43 43 0 0 1 12.3-3.9c2 0 3.6-.4 3.6-.8s1.5-2.5 3.4-4.5c2.5-2.7 4.2-3.7 6.4-3.7 1.7 0 4.3-1 5.9-2.4 3.9-3.2 6.8-4.6 9.6-4.6 3.5 0 12.2-9.5 13.1-14.3.6-3.2 1.1-3.7 3.4-3.7 1.5 0 3.9.6 5.3 1.4 3.2 1.6 5.2.7 6.9-3.4.9-2.1 2.1-3.1 4.5-3.6q3.3-.4 4.7-3.8c1.3-2.7 2.4-3.4 6.8-4.4 4-.9 5.6-1 6.7-.1s2.2.4 5.6-2.8c6-5.6 9.4-7.5 13-7.1 2.5.2 3.2-.1 3.5-1.7l1.6-5.5c.8-2.1 1.2-5.6.9-8.8-.6-5.2.9-7.4 2-3.1 1.2 4.6 5.3-.8 7.9-10.7 1.1-4.1 1.1-4.9-.9-8.5-1.2-2.1-1.7-3.9-1.2-3.9s1.4-1.1 1.9-2.5l.9-2.5 2.5 2.5c3.4 3.4 5.8 3.3 5.4-.3q-.2-2.7-3.4-4.1a8.5 8.5 0 0 1-4.8-11.1c1.7-4.7.7-13.9-1.7-16.3-2.2-2.1-2.5-4.7-.6-4.7 2.6 0 5 2.7 5.6 6.5.3 2.1 1.2 4 1.9 4.3 1.4.4 4.9-6.8 5.4-11.3.3-2.9.2-3-3.4-2.7-3.4.3-3.8.1-3.8-2 0-1.4-1.1-3.5-2.5-4.8-3.2-3-3.1-3.8.2-3.8 2 0 3.8-1.2 6.5-4.2a17 17 0 0 0 3.8-5.6q.1-1.3 2.1-1.4c2.5 0 5.9-1.7 5.9-3 0-.5-2.4-2.7-5.2-4.9-7.3-5.5-8.1-7-6.7-12.5.9-3.7.8-5-.5-7.7q-1.5-3.2-.7-4.3c1.3-1.5.1-3.3-2.3-3.7-2-.4-4.3-5.5-3.1-6.7.4-.4 1.7.5 3 2q2.4 2.7 3.9 2.2c1.3-.5 1.3-1.2-.4-5.6-1-2.8-2.8-5.9-4-7q-2-1.9-2-5.8a24 24 0 0 0-1-6.5q-1-2.7-.1-4.3c.8-1.4 1.1-1.3 2.1 1.3 2.2 6.2 2.2 6.1 3.2 3.3.6-1.9.5-3.7-.6-6.3-.9-2.1-1.6-5.2-1.6-6.9-.1-3.6-2-6.6-4.4-6.6-.9 0-2.1-1.1-2.6-2.4s-1.4-2.7-1.9-3.1q-1-.6-1.1-1.7c-.1-1.1 1-.2 2.3.9 4.5 4.1 5 4 4.5-.8a38 38 0 0 0-9.1-16.7c-2.1-1.8-3.3-10.8-1.6-12.8 1.9-2.3-1.8-12.3-5-13.5-1.8-.7-2.2-1.5-1.8-3.5.2-1.5-.4-5-1.4-8-1.1-2.9-1.9-5.9-1.9-6.6s-.9-1.9-2.1-2.6l-2.1-1.3 2.2-2.4c1.7-1.8 2.1-3 1.6-5.2l-1.3-6.1q-.5-3.3-2.4-3.2c-1 0-2.3-.9-2.9-2-1.3-2.4-3.5-2.6-4.4-.5-.9 2.5-2.6 1.7-3.2-1.5-.7-3.4-1.1-3.6-3.5-1.4-2.5 2.2-3.4 1.3-4.9-5.1-.8-3.5-2.6-7-4.7-9.4a36 36 0 0 1-4.9-7.8c-1.8-4.3-5.1-8.3-7-8.3-.6 0-1.7-1.4-2.4-3a10 10 0 0 0-3.1-4.1c-2.7-1.4-2.4-4.6.6-6.5 1.4-.9 2.5-2.3 2.5-3 0-2-6.4-1.8-8.4.2-.9.8-2.6 1.4-3.8 1.2l-2.3-.3 2.3-2.3c1.2-1.2 2.2-3 2.2-4.1 0-1.5-.7-1.8-4-1.7q-7.5.2-5-4.5c1.1-1.9 1-2.4-.6-3.6s-2-1.1-3 .2c-.6.8-2.3 1.5-3.7 1.5s-2.9.5-3.2 1c-.8 1.2-4.6.3-5.7-1.4-.4-.6-.8-2.3-.8-3.7 0-2.3-.8-3-5.6-4.9a117 117 0 0 1-22.1-13.6c.8-.9 9.5 3 11.3 5.1s2.5 2.2 3.9 1.1c1.6-1.1 1.5-1.4-1.1-3.5-4-3.1-10.3-7.1-11.2-7.1-.4 0-2.8-2-5.2-4.5-3.9-3.9-5-4.5-8.7-4.5-4 0-4.3-.2-5.2-3.8-.6-2-1.1-4.7-1.1-6 0-2.8-2.5-7.8-5.4-11.1a36 36 0 0 0-9.3-5.6q-7-3.3-7.8-5.5c-.4-1.2-2.8-3.7-5.5-5.6-5.3-3.8-7.4-7.5-8.4-14.5-.5-3.6-1.2-4.9-3.1-5.7-1.4-.7-2.5-1.9-2.5-2.7s-1-2.9-2.1-4.5l-2.2-2.9 2.7-3.1c3.1-3.8 3.2-4.2.5-6.5a6 6 0 0 1-1.7-4.5q.4-4.9-3.2-5c-1.1 0-3.5-1.6-5.4-3.5s-4.4-3.5-5.5-3.5-2.2-.7-2.5-1.6q-.6-1.5-3.4-1.2c-2.3.2-3.6-.6-7-4.5a25 25 0 0 1-4.2-5.8q-.1-.8-1.4-.9c-2.5 0-4.6-3-4.6-6.7 0-2-.9-4.6-2-6s-2-4.1-2-5.9c0-2.6-.4-3.3-2.2-3.6q-2.3-.2-3.1-3.9a8 8 0 0 0-3.8-5.3c-3-1.8-4.9-5.1-4.9-8.6q-.2-2 4-3c5.2-1.4 7.1-4.7 4.6-8.4-2-3.2-2-3.3.4-3.9q2-.5 2-3c0-1.4.5-3.8 1.1-5.4a71 71 0 0 0 3.1-19.5c0-4.1.2-4.7 2.5-5.3 2.1-.5 2.4-1.1 2.1-3.5q-.5-3 1.4-4.7c1-.9 1.8-2.9 1.8-4.4 0-3.4.7-3.9 9.5-6.4 5.7-1.6 7.3-2.6 9.2-5.4 1.3-1.9 3.6-4.2 5.2-5.2s3.2-3 3.5-4.6c.7-2.5.9-2.6 2-1 1.5 2 4.9 2.3 6.3.4a55 55 0 0 0 5.5-22.1c.2-7.1.4-7.6 1.6-5.7.8 1.2 2.3 2.1 3.3 2.1q3.4.1.4-3.6c-2.2-2.9-1.8-3.6 1.4-2.9 4 .9 5.5-2 5.3-10.3 0-3.6.3-6 .9-5.7q.8.8.9 1.8c.1 1.4 3.5 5.7 4.5 5.7.4 0 .5-1.2.2-2.7-.6-3.2 3.9-8.3 7.2-8.3q2.1 0 2.1-2 .1-4 5.1.6l2.8 2.6 2.9-2.1a13 13 0 0 1 5.6-2.1 5 5 0 0 0 4.2-2.6c1.5-2.2 1.9-2.3 2.6-1 1.1 2 2.8 2.1 2.8.2 0-.8 2.5-3.6 5.5-6.1 5.2-4.5 7.1-7.2 4.3-6.2a5 5 0 0 1-3.2-.6c-1.5-.7-2.3-.5-3.6 1-2.6 3.3-5.6 3.8-6.3 1.1-.8-2.8.7-3.8 6-3.8 3.2 0 4.6-.5 5.5-2 .7-1.1 2-2 2.8-2.1.8 0 2.7-.8 4.1-1.7q8-5.1 9.4-6.8c1.5-1.8 6.5-2.6 8-1.4 2 1.6 5.1-.3 5.9-3.6.6-2.1.3-3-1.1-3.7-1-.6-3.6-2.9-5.7-5.1-9.5-9.9-13.2-10.6-24.7-5.1-8.5 4.1-9.5 4.2-10.2 1.5-.4-1.6-1.4-2-4.7-2s-4.3-.4-4.7-2c-.4-1.5-1.4-2-3.9-2-4.8 0-13.4-6.5-13.4-10.2q0-6.6-2.9-4.6c-3.1 1.9-6.7.2-8.3-3.8l-1.5-3.7-2.2 3.2q-2.2 3-4.6 3.1c-2.3 0-2.3-.1-1.9-10l.5-9.9-3.9-2c-5.7-2.9-6.3-4.1-6-11.2l.3-6.3 3.7-.9c3.3-.8 3.9-1.5 6.4-7.3 1.5-3.5 3.3-6.9 4.1-7.5 2-1.7 1.6-2.6-1.7-4.5-1.6-1-3.6-3.4-4.4-5.5-1.4-3.5-1.7-3.7-7.3-4.3-8.7-1-9.3-.9-14.7 1.9-4.2 2.2-5.2 2.4-6.1 1.2-1.6-2.2-7.1-4.7-10.5-4.7-1.7 0-5.5.8-8.4 1.9-6.7 2.3-10.1 1.7-13.8-2.5a18 18 0 0 0-6.2-4.4c-1.9-.6-4.2-2-5.1-3-1.4-1.5-2.1-1.7-3.1-.9-1.1.9-1.5.2-2-3s-1.6-4.9-4.8-7.5A36 36 0 0 0 469.3 0c-.4 0-2.2 1.3-3.8 2.8"/></svg>