<svg xmlns="http://www.w3.org/2000/svg" width="1365.333" height="1365.333" viewBox="0 0 1024 1024"><path d="M257.6.9c-.3.5-.1 2.3.5 4 .9 2.4.8 3.9-.2 6.3-1.1 2.7-1 3.2.6 4.4 1 .8 2.9 1.4 4.1 1.4 1.7 0 2.3-.8 2.8-3.5.4-1.9 1.1-3.5 1.6-3.5 2.1 0 .9-3-1.5-3.6a5 5 0 0 1-3.1-2.7c-1-3.2-3.7-4.7-4.8-2.8m7.7 20.8c-1.7.6-1.7 4.2 0 4.9 2 .7 6.7-1.3 6.7-3 0-2.1-3.6-3.2-6.7-1.9m5 12.4c-2.7 1-2.8 2-.6 6.2l1.6 3.2 1.3-3q3.7-8.6-2.3-6.4m4.7 12.8c0 3.5.3 4.1 2.1 4.1 1.7 0 2-.5 1.7-3.7q-.2-4-2-4.1c-1.5-.3-1.8.4-1.8 3.7m89.4 8.2c-1.9 2.1-1.8 2.1.9 4.5 3.7 3.2 9.7 3.4 9.7.4 0-1.1-.7-2.3-1.5-2.6a3 3 0 0 1-1.5-2.5c0-2.7-5.1-2.5-7.6.2M414 76.6q-1.4 2.3-3.6 2.4c-1.8 0-3.4 1.7-3.4 3.5 0 1.2 3.4 1.2 5.7 0a13 13 0 0 1 4.9-1.5c2.5 0 6.2-3.7 4.8-4.9a10 10 0 0 0-4-1.4c-2.6-.5-3.3-.2-4.4 1.9m-34.7 8.1c-3.1 1.6-3.3 2-3.3 6.9 0 2.9-.4 5.6-1 5.9-1.4.8 1.1 5.3 4.9 8.9 1.7 1.7 3.1 3.6 3.1 4.4s.5 3.2 1.2 5.4c.9 3.1 1.6 3.8 3.2 3.6 1.8-.3 2.1-.9 1.9-4.1l-.2-3.8 3.4.7q3.6.7 3.5-.6.1-1.1 1.9-.7 2 .4 3.7-1.4c.9-1 2.5-1.9 3.5-1.9q3.4-.1 2.3-3.4-.6-1.7-2.4-.6c-1 .6-3.1 1-4.5 1-2.4 0-2.6-.3-2-2.7a7 7 0 0 1 2.2-3.8c1.4-1 1.3-1.6-.5-5.1a16 16 0 0 0-9.5-8.9c-4.5-1.9-7.3-1.8-11.4.2m15.9 66.9c-1.7 1.2-3.5 1.4-6.8.9-3.9-.5-4.4-.4-4.4 1.2 0 1.1-1.1 3.4-2.5 5.3-2 2.7-2.5 4.6-2.5 9.2 0 7.7 1.3 9.8 5.6 8.8 1.8-.4 5.4-.4 8.1.1 6.4 1.2 9.4-.9 10.9-7.7.6-2.7 1.4-5.7 1.9-6.7s.3-2.8-.2-4l-1.9-5.2c-1.1-3.6-4.7-4.4-8.2-1.9m67.3 33.4c-1.5 1.7-1.6 2.4-.5 5 1.3 3.1 4 4 5.8 1.7q1-1-.5-5c-1.7-4.2-2.3-4.5-4.8-1.7m-197.3 41.3a18 18 0 0 0-2.1 6.4l-2.1 9.5c-1.1 4.4-1.1 4.8 1.6 8.4 2.6 3.4 2.9 4.5 2.9 11.4 0 6.7.3 8.1 2.6 11.1 2.2 2.8 2.9 5.2 3.7 13.1.8 7.7 1.6 10.5 3.6 13.5q4.5 6.6 1.1 17.9c-2.5 8.3-2 10.8 4.1 20.8l7.8 12.1c1.1 1.6 2.5 5.5 3.2 8.5.9 4.5 1.5 5.7 3.6 6.4 2 .7 3.2.5 5.3-1.2 1.5-1.2 3.9-2.2 5.2-2.2s3.5-1.1 4.9-2.5q2.6-2.6 4.5-2 2 .7 3.8-1.7c1.8-2.2 2-2.2 3.9-.5s5.2 1.4 5.2-.4 1.8-.9 2.3.9c.2 1.1 1.3 2.1 2.4 2.4q5 1.3 8.4-5.5c2.5-5.1 6.3-6.9 12.9-6q4.2.6 4-.8c0-.7-2.2-5.9-5-11.6-5.8-12-6.1-13.6-2.3-12.7 2.6.7 2.6.6 2-3.2-.7-4.3-3.8-7.3-7.6-7.4q-2.6.2-1.5-1.8c.4-.9.9-5.1 1-9.2.2-6.1-.1-8-1.6-10-1.6-2-2-2.2-2-.8 0 1.9-1.7 2.3-3.8.9q-1.3-.8-.7-4.4c.6-2.8.4-3.8-.8-4.3-2.5-.9-3.7-5.7-2.5-10.1 1.9-7.5 1.8-7.8-3.4-8.1-3.9-.3-4.9.1-6.2 2-.9 1.2-1.6 3.4-1.6 4.9s-.7 3.2-1.6 4q-1.5 1.3-.9 3.7a33 33 0 0 1-.1 8.3c-.5 4.6-1 5.9-2.1 5.5-.8-.3-2.7.4-4.3 1.5-2.4 1.8-3.6 2.1-8.3 1.5-7.3-.9-9.1-3.4-8.2-11 .5-3.8.3-6.1-.8-8.2a87 87 0 0 1-4.2-19.4c-.4-2.8-1.4-4.1-5-6.5-3.3-2.2-4.6-3.9-5.1-6.3a8 8 0 0 0-2.3-4.5 16 16 0 0 1-3.4-4c-1-1.5-2.3-2.7-3-2.7s-2-1.4-2.8-3.2q-2.4-5.5-4.7-2.5m207.9 31.6c-1.1.7-.9 1.5 1 4 2 2.7 2.3 4.7 2.9 15.3.3 6.8 1.1 13.3 1.8 14.5s1.2 3.7 1.2 5.5c0 1.9.7 4.3 1.5 5.4a6 6 0 0 1 0 8q-3.5 4.8 1.5 9.1c1.7 1.3 3 3.3 3 4.4 0 2.4 3.3 4.2 4.8 2.7q2.4-2.6-.2-6.4c-1.3-1.7-1.3-2.1.5-3.4 1.9-1.5 1.9-2 .8-9-.6-4.1-1.9-9.1-2.9-11s-2.3-6.9-2.9-11l-2.2-13-1.2-8.2q-.2-2.7-3.6-5.3c-3.9-2.8-4-2.8-6-1.6M445 315.1a17 17 0 0 1-7 3.3q-3.8.5-5.5 3.3c-3 4.6-8.8 9.2-11.6 9.3-1.5 0-3.2.6-3.8 1.4-2.5 2.9 8.6 8.4 13.4 6.6 1.1-.4 2.7-.4 3.5 0 .9.5 3.7.4 6.3-.2 3.5-.7 5.2-1.7 6.9-4.1 1.2-1.8 2.8-3.6 3.6-4 4.7-3 8-7 8.6-10.6.3-2.4 1.5-4.6 2.7-5.4 3-2.1 1-2.8-7-2.5-5.7.3-7.4.7-10.1 2.9m38.5 22.8c-.3.6-.7 3.9-.9 7.3-.2 3.5-1 7.6-1.9 9.3-1.2 2.2-1.6 5.3-1.5 11.9.1 7.6.5 9.5 2.4 12.4 1.9 2.7 2.2 4.2 1.7 7.7q-.6 4.3 1.1 7.6c.9 1.7 1.6 5.3 1.6 7.9 0 4.4.3 4.9 4.4 7.8 2.4 1.8 5.1 3.2 5.9 3.2q1.4 0 3.2-7.5c1.5-6.4 1.6-8.3.5-13.7l-2.1-11.8c-.6-3-1.7-6.2-2.4-7.1-.8-.8-1.5-2.8-1.5-4.3s-.5-3.7-1.1-4.8c-.7-1.2-1.5-6.4-1.9-11.5-.5-7-1.2-10.1-2.6-12q-3.4-4.6-4.9-2.4"/><path d="M347.2 351c-3.5 1.6-4.3 2.4-4 4.2.3 2 1 2.3 5.4 2.6 5.4.3 7.7-1.5 4.9-3.8-.7-.6-1.1-2-.8-3 .7-2.5-.1-2.5-5.5 0m10.8 1.6q-2.8 7.2 3.1 2.6 2.1-1.9 1.6-3.5c-1-2.5-3.6-2-4.7.9m-21.5 8.7a16 16 0 0 0-.3 5.8c.3 3.8.6 4.4 2.8 4.7 1.4.2 3.9 1.7 5.5 3.3 6.1 5.8 13.3 4.7 12-1.8q-.6-3.2 1-5.6c2.5-3.8 1.1-5.4-5.3-6l-10.4-1.3c-3.8-.5-4.9-.3-5.3.9m16.8 37.1q-6.7 2-4.5 9.5c1.6 5.3 1.5 7.2-.8 10.1-2.5 3.2-2.5 5.1.1 10.1q2 4 5.4 5.5c4.6 1.9 9.4 1.8 10.2-.2.3-.8 1.7-2 3-2.5 2-.7 2.8-.4 5.6 2.7 5.4 6.2 6 7.8 5.1 15.8-.9 8.5-.8 9.9 1.7 15.3 1 2.3 1.9 4.9 1.9 5.7s1.1 2.8 2.5 4.4c3.1 3.7 3.3 7.2.5 7.2-2.4 0-2.5 1.8-.6 6.4 1 2.5 1.1 3.7.3 4.5q-2.2 2.3 3.9 2.5c2.2.1 4.5 1 5.9 2.4q2.3 2.4 2.7 1 .6-1.2 2.3-1.3c1.1 0 2.4-.9 3-2.1.5-1.1 1.5-1.9 2.2-1.7.7.3 2.2-1.8 3.4-4.6 2.3-5.4 3.3-6.2 4.3-3.4.6 1.4.8 1.4 1.9.1.6-.9 2.9-1.9 4.9-2.2 3.1-.6 3.7-.4 4.3 1.4q.6 2.1 2.5 1.5 1.7-.5 2.4 1c.7 1.8 3.6 2 3.6.2 0-.6 1.4-2.4 3.2-3.9l3.3-2.7-3.2-1.3c-2.6-1-3.3-1.8-3.3-4 0-1.6.5-3.7 1.2-4.7.9-1.4.8-2.6-.2-5-.7-1.7-1.6-3.1-2.1-3.1s-2.3-1.3-4.2-3a29 29 0 0 0-6.1-4q-3-1-2.1-2.9c.6-2.1-1.8-4.1-5.2-4.1-1-.1-3.2-2-4.9-4.3a16 16 0 0 0-8.4-6.1l-5.2-1.9.5-4.7c.5-4.2.3-4.9-1.4-5.3q-1.9-.4-2.8 1.1c-.8 1.4-1.4 1.3-5.9-.8q-7.7-3.6-5.2-8c1.5-2.9 0-5.9-3.4-6.8-2.3-.6-3.2-1.5-3.6-3.5-.4-1.9-2.1-3.6-6.5-6.3-8.4-5-8.6-5.1-12.2-4m128.3 28.8a10 10 0 0 0-1.6 4.8c0 5-3.4 7-11.6 7-6.6 0-16.4 4-16.4 6.7 0 4.8 11.3 15.3 16.5 15.3 1.4 0 4.8 1.1 7.5 2.5 4.9 2.5 10.4 3.3 11.4 1.6.3-.4 2.7-1.1 5.3-1.4 11.7-1.5 14.1-3.4 12.9-10.1-.5-2.4-1.5-3.7-4-4.8a24 24 0 0 1-10.1-14.9c-.8-4.4-4.3-8.9-6.9-8.9-.8 0-2.2 1-3 2.2m12.3 51.3c-2.5 5.7-2.2 7.9 1.3 8.3 2.3.3 2.8-.2 3.7-3.3 1-3.8-.2-9.5-2.1-9.5-.5 0-1.8 2-2.9 4.5m11.8 2.1c-1.2 1.2 1.5 6.1 4.4 7.8s7.9 1.6 7.9-.4c0-1.2-9-7.9-10.6-8q-1 0-1.7.6M486 492.9c-.5 1.1-1 3.1-1 4.5s-1.1 4.1-2.4 6.1c-2.4 3.5-2.4 3.7-1 8.8.9 3.1 2.7 6.3 4.5 7.9q2.9 2.8 2.9 5.7c0 2.5.6 3.1 4.6 4.6 5 1.9 4.8 1.9 13.4-3 3.9-2.3 7.7-1.9 9.6 1 .9 1.4 2.6 2.5 3.7 2.5s2.8.6 3.6 1.4 3.2 1.6 5.1 1.9c3.3.5 3.7.2 4.9-2.5 1.3-2.9 1.2-3.2-1.2-5q-2.6-2-2.7-4.4 0-2.5-2-2.4-1.8 0-2 1c0 1.2-3.7 1.3-4.4.1-.3-.5-2.1-1.2-4.1-1.5-2.8-.6-4-1.6-6.7-6.1-2.9-4.8-3.9-5.7-8.8-7.3-5.4-1.8-5.5-1.9-5.8-6-.3-3.6-.9-4.6-4-6.7-4.4-3-4.8-3-6.2-.6m54.6 48.3a7 7 0 0 0 .9 5.4l1.5 2.3 2.5-2.5c3.7-3.7 4.2-7 1.3-7.8-4.4-1.1-5.5-.7-6.2 2.6M514.3 561c-2.2.9-3.9 4.3-2.9 5.9.8 1.3 6.5 1.9 6.9.7.2-.5 2.1-1.5 4.3-2.1q4-1 3.9-3c0-1.7-.8-2-5-2.2-2.7-.1-6 .2-7.2.7m-3.6 52.7c-1.3 1.2-.7 6.2.9 7.7 1.8 1.9 6.1 2.1 6.7.3.4-1.2-4.9-8.7-6.2-8.7q-.8 0-1.4.7m17.5 4.5c-1.9 1.9-1.5 5.8.6 5.8 2.8 0 5.5-2.4 5-4.6s-3.8-3-5.6-1.2M497.5 629c-1.9 3.7-1.9 4 .4 4q3 0 4.5-4.8c1.1-3.5-3-2.9-4.9.8m6.2 4.1c-.6 1-2 1.9-2.9 1.9q-1.9-.2-1.8 3 .1 3-2.9 5.1a8 8 0 0 0-3.4 5.4c-.3 1.9-1.6 4.7-2.8 6.4-1.8 2.5-2 3.3-.9 4.6 1.5 1.8 4.1 2 5.7.4 1.4-1.4 8.1-2.9 9.9-2.2 2.6 1 1.6 4.1-1.3 4.5q-2.9.2-3.1 2.6c-.5 3.2 2.4 3.9 5.2 1.3 1.2-1.1 2.8-2.1 3.5-2.1 1.5 0 5.5 3.9 6.4 6.3.3.8 2.2 2 4.1 2.7 2.9.9 4.6.9 9-.4 3-.9 7.7-1.6 10.5-1.6h5.1v-5c0-3.9.4-5.3 2-6.2 3-1.9 2.6-5.6-.7-6.4-5.6-1.2-6.2-1.5-6.9-3.7-.4-1.2-1.5-3.4-2.5-4.8s-2.1-3.7-2.4-5c-.5-1.9-2.2-3.2-6.3-5.2-5.1-2.3-6.2-2.5-10-1.5-3.5.9-5.1.8-8.3-.5-3.8-1.5-4-1.5-5.2.4m-11.7 6.2q0 4.6 2.7 2.6c2-1.8 1.6-4.9-.7-4.9q-2 0-2 2.3m-8.3 8.3c-.9 1 1.2 4.4 2.7 4.4 2.2 0 3.7-2.5 2.4-3.8s-4.1-1.6-5.1-.6m120.9 136.8c-4.1 1-5.4 1.9-7.4 5.1-3.9 6.2-4.4 10.8-1.6 14.7s3.1 7.4.4 9a5 5 0 0 0-2 3.8c0 2.8 5.4 10 7.4 10 .7 0 4.8 1.8 9.1 4s8.3 4 9 4 2.3.8 3.6 1.8c2 1.7 2.5 1.8 5.3.4 3.9-1.9 8.6-6.2 8.6-7.9 0-2.7-5.4-14.9-7.6-17.2a21 21 0 0 0-7.6-4.1q-5.1-1.6-5.3-3c0-1.2 1.5-1.5 7.3-1.3 8.2.2 9.3-1 4.1-4.8-2.5-1.8-3.5-2-5.5-1.1-2 1-2.5.8-3.4-.9a9 9 0 0 1-.5-4.9q1.4-6.3-3.7-7.9c-3.6-1.3-3.6-1.3-10.2.3m73.9 93.6c-.4.6-.3 2.4 0 4.1 1 4.4 3.9 3.5 4.3-1.4.3-3.1 0-3.7-1.7-3.7-1.1 0-2.3.5-2.6 1M640 888.9c-.8.5-3.2 1.1-5.2 1.5-3.6.7-3.7.8-3.5 4.9 0 2.3-.7 5.9-1.6 7.9l-1.7 3.7 4.5 6.7c2.5 3.7 4.5 7.4 4.5 8.3q0 3.4 4.1 5.4c1.3.7 2.6 2.3 2.9 3.7.5 2.1 1.3 2.6 4.5 2.8 4.6.4 9-1.5 7.5-3.3q-1-1.2.5-4.1a14 14 0 0 0 1.5-4.1c0-.6 1.4-2.3 3.1-3.6 3.4-2.7 3.5-5.7.1-5.7q-1.8-.2-3.5-3.5c-.9-2-2.5-3.8-3.4-4.1-7.8-2.5-7.6-2.3-7-8.4.5-4.8.3-6-1.2-7.4q-2.7-2.7-6.1-.7m118.7 29.5c-.9 2.2 1.7 3.7 5.2 3q3.1-.6 3.1-2.5c0-1.5-.8-1.9-3.9-1.9q-3.8 0-4.4 1.4m-56 87.5c.4 1.6-.1 2-2.9 2.3s-3.3.7-3.6 3.3q-.4 2.9 1.3 4.1c1 .7 2 2.8 2.4 4.6.6 2.8 1.1 3.2 3.2 3l8.9-1 6.4-.7-.3-5.5q-.4-9-5.8-9c-1.3 0-4-.7-6-1.5-4.4-1.9-4.2-1.9-3.6.4"/></svg>