<svg xmlns="http://www.w3.org/2000/svg" width="1365.333" height="1365.333" viewBox="0 0 1024 1024"><path d="M770.2 170.2c-1.4 1.4-1.6 7.8-.3 7.8 1.5 0 3.4-5.7 2.4-7.4q-.9-1.8-2.1-.4m11.3 11.2c-2.2 2.7-4.8 4.7-6.6 5.1-1.6.4-3.1 1.1-3.4 1.6-.9 1.3.4 1.1 6.3-1.1q5.4-2.1 8.7-1.4c3.7.7 11.2 6.6 19.2 15.1 4.2 4.4 5.5 5.3 6.6 4.4q1.4-1 .8-4.4c-.5-2.7-2.7-5.3-11.2-12.9a54 54 0 0 0-13.6-10.2c-2.8-.6-3.4-.3-6.8 3.8m65.7 54-2.3 1.2 3.6 2.8c2 1.6 6.1 3.4 9.2 4.1l5.5 1.3-5.3-5.4c-5.6-5.7-6.9-6.2-10.7-4m32.8 47.9c0 .7.7 2.2 1.5 3.3s1.5 2.7 1.5 3.6c0 2.4 3.2 2.3 5.4-.1 1.6-1.7 1.5-2-1.3-5-2.9-3.1-7.1-4.2-7.1-1.8m-106.1 5.5c-4.2 1.5-10.8 4.6-14.7 6.9q-7 4.3-10.5 4.3c-5.1 0-6.7.9-6.7 3.7 0 5.2-9.5 19.3-13 19.3-.9 0-3.8 3-6.4 6.8-4.5 6.6-4.6 7-4 12.3.4 4.1.1 6.6-1.4 10.4-1 2.7-2.3 7.2-2.6 10s-1.6 6.5-2.6 8.2c-1.5 2.6-1.7 4.2-1.1 7.5 1 5.9-1.2 12.1-6 16.8-3.7 3.5-3.9 4.1-3.9 9.6 0 3.3.4 7.4.9 9.1.8 2.6.6 3.7-1 5.7-2.9 3.6-2.3 6.2 2.5 12.4 4 5.1 4.5 6.3 4.7 11.2q.2 5.6-2 10.1c-1.8 4-2 5.4-1.1 9.9a48 48 0 0 1 .4 16.8q-.6 3-3 3.6c-2.4.6-2.4 1.4-2.4 2.7 0 3.7-1.9 5.7-10.4 10.8a33 33 0 0 1-17.1 6.1c-8.5 1.1-10.3 1.8-20.8 8q-3.6 2.1-5.5 1.4c-2.1-.9-1.1-1.2-11.2 3-4.6 2-9.3 3.6-10.3 3.6-3.1 0-1.9 9 3.2 24.7 2.7 8.1 2.8 9.2 1.7 13.5a24 24 0 0 1-3.3 7.2c-3.8 4.8-3.9 8.7-.4 15.9 1.7 3.5 3.1 7 3.1 7.8s1.3 3.6 2.8 6.4c3.4 6.2 6.8 7.6 16.3 6.8 5.9-.5 6.9-.3 8.5 1.5l1.7 2.1 6.5-2.4c3.6-1.3 6.9-2.2 7.4-1.9s.8 2.3.8 4.5c0 8.3 4.1 12.9 11.6 12.9 1.3 0 2.9.8 3.6 1.8 1.8 2.6 6 3.4 8.4 1.8s6.2-2.6 7.7-2c.9.3 1 3.5.6 11.1l-.6 10.6 3.1 2.8c1.7 1.6 3.9 2.9 4.8 2.9s2 .5 2.3 1 1.7 1 3 1c2.6 0 3.8 2.5 6 12.8a49 49 0 0 0 4.5 11.6q5.3 9.2 1.1 10.3-4 1-4.1 18.2c0 8.3.3 10.1 1.5 10.1q1.4 0 1.5-2.4 0-5.7 4-.3c1.3 1.8 2.9 3.6 3.7 4 .7.4 1.3 1.7 1.3 2.7 0 2.4.1 2.4 4.4.6 3-1.2 3.8-1.2 7.5.5 2.3 1 5.6 3 7.5 4.4 1.8 1.4 4 2.5 5 2.5q1.5.2 2.2 1.5c1.6 4.1 9.1-1.7 10-7.7.5-2.8 1.8-5.1 4.5-7.8 2.1-2 4.1-4.8 4.4-6.1.7-2.7 7-7.9 9.5-7.9 1 0 3.4 1.3 5.5 3 3.5 2.7 4.1 2.9 9.7 2.3l5.9-.6 6.7 6.6c7.4 7.2 12.4 9.4 18.7 8.3 3.1-.6 4-1.4 5.4-4.6 1.3-3.2 2.6-4.3 6.5-6 2.7-1.1 5.6-2 6.6-2 2.5 0 4.7-3 5.4-7.6.5-3.6.3-4.3-2.7-7.1a84 84 0 0 0-7.9-6.3c-4.7-3.3-4.9-3.3-9.5-2.1-10.4 2.8-12 2.6-15.8-1.2-2.9-2.9-3.5-4.2-3.5-7.9 0-3.6.7-5.2 4-9.2q8.8-10.8-2.5-4.1-6.6 4-9.3 1.3c-1-1-.6-1.8 2-4 3.3-2.6 3.3-2.7 1.6-5.6-2.3-3.9-1.4-6.6 4.3-13.4 5.2-6 5.9-7.8 3.2-7.8q-1.9 0-3.7-4.5c-2.3-5.6-1.5-12 1.9-17.1a32 32 0 0 0 3.5-6.9 11 11 0 0 1 3.6-5l2.6-1.7-4.1-3.5c-3.9-3.2-4.1-3.8-4.1-8.8s.2-5.6 3.7-8l3.7-2.5 3.7 3.6 3.7 3.6 3.9-2.1 4-2 .5-7.3c.7-8.5-.6-12.1-5.8-15.8-3.3-2.3-3.5-2.8-3.1-7 .9-9.2 3.6-15.7 9.7-23.1 3.3-3.8 7.2-9.3 8.7-12 2.9-5 4-5.6 7.2-3.9 2.2 1.1 3.2.2 9.6-9.1a294 294 0 0 0 24.9-40.1l5.7-11.7-2.7-4.3a94 94 0 0 0-6.1-8.4c-2.7-3.4-3.3-5-3.3-9a38 38 0 0 0-5.4-19.7c-3.1-4-10.2-6.4-16-5.3-3.1.6-3.7.2-7.6-4.1-2.4-2.7-5.2-6.8-6.3-9.3s-3.1-6-4.5-7.7q-3.5-4.8-6.7-27.3c-.5-3.5-1.3-5-4-7.1-1.8-1.4-5-4.5-6.9-6.8-3.5-4.1-3.6-4.6-3.6-12.2s-.1-7.9-2.8-9.3c-1.5-.8-3.7-3.1-4.7-5-2.1-3.8-3.3-4.2-9.7-2.7-3.5.8-3.8.7-9.5-5.1a44 44 0 0 0-20.8-13c-2.9-.5-6.1.1-11.6 2M949 458.1l-6.2 2.5c-1.8.6-3.1 3.1-2.3 4.3.8 1.4 11.4 2 14.6.9a8 8 0 0 0 4.1-3.1c.9-1.8.7-2.4-1.6-4.4-3.1-2.7-2.8-2.7-8.6-.2m-937.9 1.1L8 467c-1.7 4.4-2 6.5-1.5 11.3.6 5.1.4 6.2-1.8 9.5-1.4 2-3 5.4-3.7 7.5-1.1 3.4-1 4 1.4 6.8 2.5 3 8 18.7 11 31.6 1 4.5 3 8.5 7.1 14.5 6.2 8.9 10.5 19 10.5 24.5q0 3.5 3.9 10.1c2.2 3.8 5.1 11 6.7 16.6 2.3 8.3 2.6 10.3 1.6 12.9-.6 1.7-1.1 3.1-.9 3.2l8.5 5.9c7.4 4.9 8.9 5.6 13.3 5.6 4 0 5.5.5 7.5 2.5l2.5 2.5-2.1 3-2.2 3 2.4 2c1.2 1.1 2.6 1.9 3 2 .4 0 .4 1.5.2 3.2-.8 4.7 1.4 8.9 7.1 14.1 3.9 3.5 6.3 4.7 10.8 5.7 4.4.9 5.7 1.6 5.7 2.9 0 2.6 1.7 3.6 8.4 5 3.5.8 6.6 2.1 7.5 3.3 1.4 1.7 2 1.8 4.6.8 4.4-1.7 7.1-.5 9.7 4.2 2.3 4.2 2.4 4.3 9.8 5.4 4.1.7 11 1.3 15.2 1.3 7.7.1 7.7.1 10.4-3.5l2.7-3.5 8.1.6c13.7 1 25.6 2.5 37.4 4.7a91 91 0 0 0 23.5 1.5A50 50 0 0 0 265 680c7-4.5 12.5-4.2 19.3.9 14 10.4 19.1 11.4 58.3 10.9 32.6-.5 37.9-1.2 45.1-6q4.1-2.7 8-2.8c4.8-.1 14.5-4.2 15.4-6.6 1.6-4 1-5.3-2.6-6-2.6-.5-4.1-.2-5.4 1-1.5 1.4-2.6 1.5-6 .7a66 66 0 0 0-12.5-.4l-8.4.6-8.9-7.5a62 62 0 0 0-26.8-15.2c-2.7-.5-5.8-1.4-6.9-2.2-1.8-1.2-2.3-1.1-4.1.5-2 1.9-2.1 1.9-7.8-1.5-5.3-3.1-6.5-3.4-13.8-3.4-8 0-8.1 0-11.2-3.6-3.9-4.4-10-8.8-19.2-13.9a152 152 0 0 1-14.3-9.4 29 29 0 0 1-10.7-12 24 24 0 0 0-8.1-10.1c-2.7-1.9-7.6-5.7-10.9-8.5s-10.1-7.7-15.1-10.9-10-7.4-11.1-9c-1.1-1.7-6.8-8.4-12.7-14.8-10.1-11.1-11.8-13.9-9.6-15.3s.6-2.2-6.9-3.9c-6.8-1.4-8-2-8.5-4.1-.3-1.3-1.4-2.6-2.4-2.9s-3.5-2.4-5.5-4.5a23 23 0 0 0-8.2-5.4c-4-1.4-5.1-1.4-9.3-.2-4.1 1.3-4.8 1.3-5.8 0a33 33 0 0 0-13.7-9.1c-2.9-.9-6.5-2.7-8.1-4l-3-2.2-3.9 1.9c-3.3 1.7-4.6 1.9-8.6 1-9.4-2-9.6-2.2-12.5-11.4a67 67 0 0 1-2.6-11c0-3.1-1.6-4.3-3.5-2.7q-1.7 1.2-6.5.8-5-.5-6.8.8c-3.1 2.4-7 1.5-15.6-3.6-4.7-2.7-9.7-5.5-11.2-6s-4.4-2.4-6.5-4c-9.2-7.3-23-10.5-24.8-5.8m942.2 23.5c-1.8.2-3.3 1-3.3 1.6l-.6 4.7c-.6 3.5-.5 3.6 4.5 5.9 5.7 2.7 8.1 1.9 8.1-2.7s-2.2-10.2-3.9-10zm63.8 31-6.5.4 3 1.9c1.6 1.1 4.6 2 6.7 2 3.3 0 3.7-.3 3.7-2.5q0-2.3-.2-2.3zM439 727c-1.9 1-5.3 1.9-7.5 2-2.2 0-7.4 1.3-11.5 2.9s-10 3.1-13 3.5c-4.8.6-6.6 1.5-13.5 6.9-4.4 3.5-11.5 8.2-15.7 10.5A32 32 0 0 0 365 764c-5.3 7.2-7 11.2-7 16.9q0 3.3-3.5 8.2c-2 2.6-4.3 6.8-5.1 9.3-1.5 4.2-1.4 4.7.3 7 1 1.4 3.9 3.7 6.5 5.1s6 4.2 7.6 6.1l2.9 3.5 6.5-1.5c3.5-.8 8.7-2.4 11.5-3.5l5.1-2 8.4 2.3c18.7 5.2 29.8 13.8 29.8 23.1 0 9.5.3 10 9.9 13.4 4.7 1.7 9.3 3.1 10 3.1.8 0 3.3-1.7 5.5-3.8 2.3-2.2 4.9-4.3 5.7-4.8s2.5-2.5 3.7-4.5q2.3-3.7 6.5-5.4c2.3-.9 7.6-4.7 11.7-8.4a231 231 0 0 1 72.3-44.2c10.3-4.4 21.2-9.5 24.2-11.5 4.7-3.2 5.2-3.8 4.2-5.5-1-1.6-1.4-1.6-2.7-.4q-3.8 3.3-11.6-4.6l-4.8-4.9h-10.3c-7.1 0-11.5.5-14.3 1.6-3.4 1.4-4.5 1.4-7.1.4-2.1-.9-5.7-1.1-11.6-.7-8.4.6-8.6.6-16.2-3.3-6.5-3.3-8-4.5-10.3-8.7a57 57 0 0 1-3.9-9.8c-.6-2.8-1.6-5.5-2.1-6.2-1.4-1.8-9-2.6-13.3-1.4-3.1.8-4.3.7-6.9-.7a18 18 0 0 0-7.1-1.7c-2.2-.1-6.9-.4-10.5-.8-5.5-.6-7.1-.4-10 1.3m280.1 48.2c.5 2.9.5 6.7 0 8.4-.8 3-.7 3.3 2.8 4.6 3.2 1.3 4 2.2 5 6.1.8 2.6 1 6.2.6 8.5-.5 3.1-1.3 4.2-4 5.5-2.9 1.4-5.4 5.1-4.3 6.3.3.2 2.7-.3 5.4-1.1 7.1-2.2 10.6-1.9 18.1 1.5l6.8 3c.1 0 .5-1.7.8-3.8s.9-4.7 1.2-5.8c.5-1.7.1-2.3-1.9-2.8a16 16 0 0 1-6.1-4.4c-2.8-3-3.5-4.5-3.5-7.9 0-4-.2-4.3-3.7-5.2-2.1-.6-4.3-1.1-4.9-1.1s-2.3-3.3-3.8-7.4c-2-5.4-3.4-7.6-5.2-8.5-3.9-1.7-4.2-1.4-3.3 4.1m151.8 3-3.7 1 3.9 8.3c4.3 9.1 5 14.9 2.4 19.9-.8 1.5-1.5 4.1-1.5 5.7 0 2.5.4 2.9 2.8 2.9 6.1 0 7.2.9 7.2 5.5 0 5.3-5.2 17.5-7.5 17.5q-1.3 0-1.5.6c0 1.2 4.1 7.4 4.8 7.3 3.5-.3 10.2-16.7 10.2-24.8 0-1.7-1.6-9.5-3.6-17.3-2.8-11.3-3.4-15.2-2.8-19.4.6-5.1.5-5.3-2.4-6.8-3.4-1.8-3.3-1.8-8.3-.4"/></svg>