<svg xmlns="http://www.w3.org/2000/svg" width="1365.333" height="1365.333" viewBox="0 0 1024 1024"><path d="m711.5 209.9-170 63.7-8.3 12.4-85.5 126.4c-65.4 96.5-77.2 113.4-77.5 111l-5-42.9-4.8-40-97.8-37.7-97.8-37.7-15 3a72 72 0 0 0-21.1 6.4l-5.9 3.3-5.2-1.7a13 13 0 0 0-10.1-.5c-2.7.7-5.3 1-5.6.6l-5.3-7c-4.3-5.7-5-6.2-8.5-6.2-2.1 0-5.7-.7-8-1.5l-4.1-1.4-13 10c-7.2 5.6-13 10.4-13 10.9s.7 2.4 1.5 4.4c1.5 3.6 1.5 4-2.1 13.4-2 5.3-3.6 10.8-3.6 12.2l.7 10.7c.7 8 .7 8.2 4.1 10.2l3.5 2.1-.3 8.7-.3 8.8-3.2.5c-2.7.4-4.6 2.5-13 13.5l-9.8 13-7.5 2.6c-5.5 1.9-7.6 3.1-7.8 4.5a51 51 0 0 0 2.4 11.4c1.9 6.5 2.9 13 3.3 20.5.3 6.2 1.2 12 1.9 13.3q1.3 2.3.7 7.7c-.7 4.9-1 5.4-3.7 6-2.8.7-2.9.9-2.3 4.6.6 3.5.5 3.9-1.9 4.5-3.2.8-3.3 2-.1 6.6 2 3 2.5 4.9 2.5 10.2 0 5.5.3 6.6 2 7.1q1.9.6 2.6 4.3c.3 2 1.2 6.2 2 9.3s1.4 6 1.4 6.4c0 1.4-4.4-.8-6.6-3.4l-2.3-2.6-.1 4.8c0 3.6-.7 5.7-3.1 8.9l-3 4.3 3.3 1.2c1.8.6 5.4 1.2 8 1.2 7.5.1 9.3 1.5 12.8 9.6 1.8 4 4.5 8.6 6.1 10.1s2.9 3.8 2.9 5.1c0 2-.4 2.2-3 1.6q-3-.4-3 .6c0 2.4 2.8 7.7 5.4 10 1.4 1.3 4 6.1 5.7 10.5s4.3 9.4 5.9 11.1c1.5 1.6 3.7 5.8 4.8 9.2l2.1 6.3h-3c-3.4 0-3.4.1-1.3 6.6a19 19 0 0 0 5.6 8.5l4.1 3.7.1 12.1c.2 14.2.2 14.2 11.9 24 7.2 6.1 7.7 6.7 7.7 10.4q0 4 3 8.7c4.9 7.7 6.2 12.3 4.5 16.9-.7 2.2-2.1 9.8-3 17-1.6 12.3-1.6 13.3 0 18.3a34 34 0 0 0 9.6 16.3c4.3 4.4 5.2 6.2 7.7 14.5 2.5 8.6 3.1 9.7 6.1 11.2 3.3 1.7 3.4 1.8 3.5 8.9l.1 7.3 3.5.8c3 .6 4.3.2 8.7-2.8 2.9-1.8 5.7-3.4 6.2-3.4s3.7 1.6 7 3.5c4.5 2.6 7.1 3.5 10.6 3.5 2.9 0 6.4.9 9.5 2.5a25 25 0 0 0 21 .5c4.9-2.5 5-2.5 5 .5s.9 3.1 6 .5c2.2-1.1 5-2 6.3-2s3.6-1.3 5.2-3q2.9-3 5.6-3c2.1 0 4.2-1.6 9.4-7.5 6.6-7.4 6.8-7.5 11.6-7.5 2.7 0 4.9.3 4.9.7 0 .5.9 1.9 1.9 3.2l1.8 2.4 3.1-2.2 3.1-2.2 2.1 4.2c2.4 4.7 2.1 4.7 13.2-.4 7.6-3.5 7.6-3.5 9.4-1.6q1.8 2 5.3 1.7l3.6-.3.7-10.9.6-10.9 5.3-5.3c4.7-4.8 5.8-5.4 10.8-6 9.4-1.1 13.4-4.2 19.1-14.8 6.5-12 11.5-16.8 20.4-19.5 3.7-1.2 9.5-2.1 12.9-2.1 5.5 0 6.5-.3 11.3-4.1l5.4-4.1 6.4 1.2c6.2 1.1 6.5 1.1 10.3-1.4 3.4-2.3 4.4-2.5 6.7-1.6a42 42 0 0 0 19.7-.4c2.8-1.1 5.8-1.2 16.2-.5 12.1.9 12.9.9 15.6-1.1 1.6-1.1 3.8-2 4.9-2q3 0 34.7-14.7c7.2-3.3 15.3-6.7 18-7.5 4.8-1.3 5.3-1.8 12.5-12.4 10.1-14.8 14.7-20.3 17.9-21.1 1.4-.3 5.9-3.8 9.9-7.7l7.4-7.1 10.2-.3c10.3-.4 10.3-.4 13.8 2.7 4.9 4.2 9.1 4.2 13.6-.2 3.1-3 3.8-3.2 11.2-3.4 4.9-.1 8.8-.7 10.2-1.7a33 33 0 0 1 9.8-2.1c6.2-.6 8-1.2 10.3-3.4 3.5-3.2 11.2-13.7 15.7-21.3 1.9-3.2 4.2-6 5.1-6.3 1.2-.4 1.8-2.3 2.3-7.1.5-5.4 1.3-7.4 3.9-10.6 3-3.8 3.4-3.9 7.4-3.3 3.9.6 4.3.4 5.7-2.3 2.8-5.4 13.7-13 23-16.2a54 54 0 0 0 13.2-6.4q4.8-3.6 14.8-6.8c8.3-2.5 10.6-3.7 12.9-6.4 3.3-3.8 8-4.6 12.1-1.9 2.1 1.4 2.4 1.3 4.6-1a7 7 0 0 1 5.7-2.5c2.7 0 3.7-.6 5.1-3 1.3-2.3 2.7-3.2 5.6-3.7 2.1-.3 4.6-1.5 5.5-2.6 4.9-6.3 6.7-7.4 13.6-8.7 3.9-.7 9.1-2.4 11.7-3.9 4-2.2 5.1-2.4 6.7-1.4 1.7 1.1 2.3.8 4.5-1.7 1.9-2.3 3.3-3 6-3s4-.6 5.2-2.4c1.2-2 2.7-2.6 7.2-3.1 8.1-.9 9.2-1.4 10.2-4 1.2-3.3 9.2-5.9 13.4-4.4 2.8 1 3.8.7 10.1-2.6 3.9-2.1 7.9-4.6 9-5.5 3.3-2.8 23.7-11.8 28.3-12.5 3.7-.6 4.4-1.1 4.9-3.6.8-3.9 12.4-11.1 17.4-10.7 2.9.3 3.4 0 3.7-2 .4-2.7 5.9-5.6 12.9-6.7 3.3-.5 4.9-1.5 7.7-4.9a21 21 0 0 1 9.1-6.6l5.5-2.2v-7.3c0-5.9-.3-7.5-2-9-1.5-1.4-1.9-2.6-1.4-4.9.4-2.5 0-3.6-1.9-5.4q-2.5-2.3-1.9-4.8.4-2.4-1.4-4.5c-1.7-1.9-1.7-2.1.4-7.2q2.2-5.2 2.2-11.5c0-5.8.4-6.9 5.5-15.4 3-5 5.5-9.4 5.5-9.9 0-1.4 12.8-8.8 22.6-12.9 17.9-7.6 41.5-19.3 41.1-20.4l-69.4-123.1c-52-92-69.4-122-70.9-122.2-1-.1-78.4 28.5-171.9 63.6"/><path d="M5.3 585.2c-6 6.2-7 13.3-2.6 17.4l2.8 2.6 2.2-2.9c2.6-3.2 3.3-11.8 1.1-12.6-1-.4-1-.7 0-1.8 1.3-1.4 1.7-5.9.4-5.9-.4 0-2.2 1.5-3.9 3.2M28 733.5q0 3.5 2 4.5a4 4 0 0 1 2 3.5c0 2 .5 2.5 2.5 2.5 2.4 0 2.5-.2 2.5-6.4s0-6.4-3.1-7c-5.4-1.1-5.9-.8-5.9 2.9m5.3 28.2q-2.1.5-3.2 3.5c-1.6 4.4-1.4 4.8 1.8 4.8 2.2 0 3.7-1.1 6.5-4.5l3.7-4.5-3.3.1z"/></svg>